G04*
G04 #@! TF.GenerationSoftware,Altium Limited,Altium Designer,20.0.2 (26)*
G04*
G04 Layer_Color=8388736*
%FSLAX25Y25*%
%MOIN*%
G70*
G01*
G75*
%ADD40R,0.06300X0.06300*%
%ADD41R,0.06300X0.06300*%
%ADD42R,0.04800X0.04300*%
G04:AMPARAMS|DCode=43|XSize=86.74mil|YSize=86.74mil|CornerRadius=0mil|HoleSize=0mil|Usage=FLASHONLY|Rotation=0.000|XOffset=0mil|YOffset=0mil|HoleType=Round|Shape=RoundedRectangle|*
%AMROUNDEDRECTD43*
21,1,0.08674,0.08674,0,0,0.0*
21,1,0.08674,0.08674,0,0,0.0*
1,1,0.00000,0.04337,-0.04337*
1,1,0.00000,-0.04337,-0.04337*
1,1,0.00000,-0.04337,0.04337*
1,1,0.00000,0.04337,0.04337*
%
%ADD43ROUNDEDRECTD43*%
%ADD44R,0.02370X0.08274*%
%ADD45R,0.02769X0.03162*%
%ADD46R,0.03162X0.02769*%
%ADD47R,0.05900X0.05500*%
G04:AMPARAMS|DCode=48|XSize=67.06mil|YSize=63.12mil|CornerRadius=0mil|HoleSize=0mil|Usage=FLASHONLY|Rotation=225.000|XOffset=0mil|YOffset=0mil|HoleType=Round|Shape=Rectangle|*
%AMROTATEDRECTD48*
4,1,4,0.00139,0.04602,0.04602,0.00139,-0.00139,-0.04602,-0.04602,-0.00139,0.00139,0.04602,0.0*
%
%ADD48ROTATEDRECTD48*%

%ADD49R,0.02965X0.02400*%
%ADD50R,0.02965X0.02000*%
%ADD51R,0.03792X0.06942*%
%ADD52R,0.07500X0.02800*%
%ADD53R,0.01187X0.06148*%
%ADD54R,0.06148X0.01187*%
%ADD55R,0.06312X0.05524*%
%ADD56C,0.04737*%
%ADD57R,0.11233X0.29540*%
%ADD58R,0.10249X0.03950*%
%ADD59R,0.20485X0.21666*%
%ADD60R,0.04737X0.04737*%
%ADD61C,0.06800*%
%ADD62C,0.06890*%
%ADD63C,0.06394*%
%ADD64O,0.16548X0.06706*%
%ADD65O,0.06706X0.16548*%
%ADD66C,0.13674*%
%ADD67O,0.07099X0.10800*%
%ADD68C,0.05800*%
%ADD69C,0.05737*%
%ADD70R,0.04737X0.04737*%
%ADD71C,0.02769*%
%ADD72C,0.08674*%
D40*
X158000Y263750D02*
D03*
Y255250D02*
D03*
X210000Y286250D02*
D03*
Y294750D02*
D03*
D41*
X96750Y263500D02*
D03*
X105250D02*
D03*
X377750Y226500D02*
D03*
X369250D02*
D03*
D42*
X80500Y262650D02*
D03*
Y256350D02*
D03*
X114000Y262650D02*
D03*
Y256350D02*
D03*
X88500Y262650D02*
D03*
Y256350D02*
D03*
D43*
X140161Y263500D02*
D03*
X122839D02*
D03*
D44*
X416040Y183825D02*
D03*
X419190D02*
D03*
X422340D02*
D03*
X425490D02*
D03*
X428638D02*
D03*
X431787D02*
D03*
X434937D02*
D03*
X438087D02*
D03*
X441236D02*
D03*
X444386D02*
D03*
X445960Y151545D02*
D03*
X442810D02*
D03*
X439660D02*
D03*
X436510D02*
D03*
X433362D02*
D03*
X430213D02*
D03*
X427063D02*
D03*
X423913D02*
D03*
X420764D02*
D03*
X417614D02*
D03*
X32614D02*
D03*
X35764D02*
D03*
X38913D02*
D03*
X42063D02*
D03*
X45213D02*
D03*
X48362D02*
D03*
X51510D02*
D03*
X54660D02*
D03*
X57810D02*
D03*
X60960D02*
D03*
X59386Y183825D02*
D03*
X56236D02*
D03*
X53087D02*
D03*
X49937D02*
D03*
X46787D02*
D03*
X43638D02*
D03*
X40490D02*
D03*
X37340D02*
D03*
X34190D02*
D03*
X31040D02*
D03*
D45*
X157272Y274000D02*
D03*
X153728D02*
D03*
X124728Y170000D02*
D03*
X128272D02*
D03*
X143772Y175000D02*
D03*
X140228D02*
D03*
X179228Y297500D02*
D03*
X182772D02*
D03*
Y302500D02*
D03*
X179228D02*
D03*
X337272Y261000D02*
D03*
X333728D02*
D03*
X367228Y234500D02*
D03*
X370772D02*
D03*
X273272Y249500D02*
D03*
X269728D02*
D03*
X197228Y214000D02*
D03*
X200772D02*
D03*
X157228Y182000D02*
D03*
X160772D02*
D03*
X197228Y219000D02*
D03*
X200772D02*
D03*
X197228Y224000D02*
D03*
X200772D02*
D03*
X197228Y209000D02*
D03*
X200772D02*
D03*
X307228Y150000D02*
D03*
X310772D02*
D03*
X367728Y213000D02*
D03*
X371272D02*
D03*
X197228Y204000D02*
D03*
X200772D02*
D03*
X197228Y199000D02*
D03*
X200772D02*
D03*
X197228Y189000D02*
D03*
X200772D02*
D03*
X86272Y185000D02*
D03*
X82728D02*
D03*
Y190500D02*
D03*
X86272D02*
D03*
X82728Y195500D02*
D03*
X86272D02*
D03*
Y201000D02*
D03*
X82728D02*
D03*
X273272Y239500D02*
D03*
X269728D02*
D03*
X273272Y244500D02*
D03*
X269728D02*
D03*
X283272Y246500D02*
D03*
X279728D02*
D03*
X219728Y234000D02*
D03*
X223272D02*
D03*
X219728Y239000D02*
D03*
X223272D02*
D03*
X197228Y194000D02*
D03*
X200772D02*
D03*
X182772Y307500D02*
D03*
X179228D02*
D03*
X360272Y172500D02*
D03*
X356728D02*
D03*
X360272Y167500D02*
D03*
X356728D02*
D03*
X418272Y205500D02*
D03*
X414728D02*
D03*
Y200500D02*
D03*
X418272D02*
D03*
X426772D02*
D03*
X423228D02*
D03*
Y205500D02*
D03*
X426772D02*
D03*
X433228Y200500D02*
D03*
X436772D02*
D03*
X445772D02*
D03*
X442228D02*
D03*
D46*
X127500Y179772D02*
D03*
Y176228D02*
D03*
X224000Y287728D02*
D03*
Y291272D02*
D03*
X218500Y287728D02*
D03*
Y291272D02*
D03*
X352000Y261272D02*
D03*
Y257728D02*
D03*
X366500D02*
D03*
Y261272D02*
D03*
X385500Y259728D02*
D03*
Y263272D02*
D03*
X394500Y259728D02*
D03*
Y263272D02*
D03*
X400000Y259728D02*
D03*
Y263272D02*
D03*
X405500Y259728D02*
D03*
Y263272D02*
D03*
X411000Y259728D02*
D03*
Y263272D02*
D03*
X402000Y232228D02*
D03*
Y235772D02*
D03*
X97500Y130728D02*
D03*
Y134272D02*
D03*
X176500Y130728D02*
D03*
Y134272D02*
D03*
X255500Y130728D02*
D03*
Y134272D02*
D03*
X334500Y130728D02*
D03*
Y134272D02*
D03*
X102000Y214772D02*
D03*
Y211228D02*
D03*
X122500Y229272D02*
D03*
Y225728D02*
D03*
X129000Y214772D02*
D03*
Y211228D02*
D03*
X148500Y229272D02*
D03*
Y225728D02*
D03*
X151500Y170272D02*
D03*
Y166728D02*
D03*
X137500Y184272D02*
D03*
Y180728D02*
D03*
X128500Y158228D02*
D03*
Y161772D02*
D03*
X123000Y185728D02*
D03*
Y189272D02*
D03*
X155000Y215728D02*
D03*
Y219272D02*
D03*
X142000Y214772D02*
D03*
Y211228D02*
D03*
X135500Y229272D02*
D03*
Y225728D02*
D03*
X115500Y214772D02*
D03*
Y211228D02*
D03*
X109000Y229272D02*
D03*
Y225728D02*
D03*
X101000Y191772D02*
D03*
Y188228D02*
D03*
X106500Y191772D02*
D03*
Y188228D02*
D03*
X155000Y202772D02*
D03*
Y199228D02*
D03*
X88000Y158772D02*
D03*
Y155228D02*
D03*
X83000D02*
D03*
Y158772D02*
D03*
Y166772D02*
D03*
Y163228D02*
D03*
X88000D02*
D03*
Y166772D02*
D03*
X294000Y244728D02*
D03*
Y248272D02*
D03*
X316500Y250728D02*
D03*
Y254272D02*
D03*
X157500Y173228D02*
D03*
Y176772D02*
D03*
X146500Y160772D02*
D03*
Y157228D02*
D03*
X133500Y158228D02*
D03*
Y161772D02*
D03*
X437000Y205228D02*
D03*
Y208772D02*
D03*
X442000Y205228D02*
D03*
Y208772D02*
D03*
D47*
X344500Y261063D02*
D03*
Y268937D02*
D03*
X359000Y261063D02*
D03*
Y268937D02*
D03*
X109000Y211063D02*
D03*
Y218937D02*
D03*
X122500Y211063D02*
D03*
Y218937D02*
D03*
X135500Y211063D02*
D03*
Y218937D02*
D03*
X148500Y211063D02*
D03*
Y218937D02*
D03*
X161500Y211063D02*
D03*
Y218937D02*
D03*
D48*
X349685Y220685D02*
D03*
X360315Y231315D02*
D03*
D49*
X360567Y204350D02*
D03*
Y210650D02*
D03*
X356433D02*
D03*
Y204350D02*
D03*
X360567Y193850D02*
D03*
Y200150D02*
D03*
X356433D02*
D03*
Y193850D02*
D03*
X360567Y183350D02*
D03*
Y189650D02*
D03*
X356433D02*
D03*
Y183350D02*
D03*
D50*
X360567Y206516D02*
D03*
Y208484D02*
D03*
X356433D02*
D03*
Y206516D02*
D03*
X360567Y196016D02*
D03*
Y197984D02*
D03*
X356433D02*
D03*
Y196016D02*
D03*
X360567Y185516D02*
D03*
Y187484D02*
D03*
X356433D02*
D03*
Y185516D02*
D03*
D51*
X379500Y121815D02*
D03*
X374500D02*
D03*
X379500Y86185D02*
D03*
X369500Y121815D02*
D03*
X364500D02*
D03*
X349500D02*
D03*
X354500D02*
D03*
X359500D02*
D03*
X334500D02*
D03*
X339500D02*
D03*
X344500D02*
D03*
X324500D02*
D03*
X329500D02*
D03*
X374500Y86185D02*
D03*
X369500D02*
D03*
X364500D02*
D03*
X359500D02*
D03*
X354500D02*
D03*
X349500D02*
D03*
X344500D02*
D03*
X339500D02*
D03*
X334500D02*
D03*
X329500D02*
D03*
X324500D02*
D03*
X221500Y121815D02*
D03*
X216500D02*
D03*
X221500Y86185D02*
D03*
X211500Y121815D02*
D03*
X206500D02*
D03*
X191500D02*
D03*
X196500D02*
D03*
X201500D02*
D03*
X176500D02*
D03*
X181500D02*
D03*
X186500D02*
D03*
X166500D02*
D03*
X171500D02*
D03*
X216500Y86185D02*
D03*
X211500D02*
D03*
X206500D02*
D03*
X201500D02*
D03*
X196500D02*
D03*
X191500D02*
D03*
X186500D02*
D03*
X181500D02*
D03*
X176500D02*
D03*
X171500D02*
D03*
X166500D02*
D03*
X142500Y121815D02*
D03*
X137500D02*
D03*
X142500Y86185D02*
D03*
X132500Y121815D02*
D03*
X127500D02*
D03*
X112500D02*
D03*
X117500D02*
D03*
X122500D02*
D03*
X97500D02*
D03*
X102500D02*
D03*
X107500D02*
D03*
X87500D02*
D03*
X92500D02*
D03*
X137500Y86185D02*
D03*
X132500D02*
D03*
X127500D02*
D03*
X122500D02*
D03*
X117500D02*
D03*
X112500D02*
D03*
X107500D02*
D03*
X102500D02*
D03*
X97500D02*
D03*
X92500D02*
D03*
X87500D02*
D03*
X300500Y121815D02*
D03*
X295500D02*
D03*
X300500Y86185D02*
D03*
X290500Y121815D02*
D03*
X285500D02*
D03*
X270500D02*
D03*
X275500D02*
D03*
X280500D02*
D03*
X255500D02*
D03*
X260500D02*
D03*
X265500D02*
D03*
X245500D02*
D03*
X250500D02*
D03*
X295500Y86185D02*
D03*
X290500D02*
D03*
X285500D02*
D03*
X280500D02*
D03*
X275500D02*
D03*
X270500D02*
D03*
X265500D02*
D03*
X260500D02*
D03*
X255500D02*
D03*
X250500D02*
D03*
X245500D02*
D03*
D52*
X260236Y254500D02*
D03*
Y249500D02*
D03*
Y244500D02*
D03*
Y239500D02*
D03*
X239764D02*
D03*
Y244500D02*
D03*
Y249500D02*
D03*
Y254500D02*
D03*
D53*
X283591Y161461D02*
D03*
X285165Y161461D02*
D03*
X286740Y161461D02*
D03*
X288315Y161461D02*
D03*
X289890Y161461D02*
D03*
X291465Y161461D02*
D03*
X293039Y161461D02*
D03*
X294614Y161461D02*
D03*
X296189Y161461D02*
D03*
X297764D02*
D03*
X299339D02*
D03*
X300914D02*
D03*
X302488D02*
D03*
X304063D02*
D03*
X305638D02*
D03*
X307213D02*
D03*
X308787D02*
D03*
X310362D02*
D03*
X311937D02*
D03*
X313512D02*
D03*
X315087D02*
D03*
X316661D02*
D03*
X318236D02*
D03*
X319811D02*
D03*
X321386Y161461D02*
D03*
X322961Y161461D02*
D03*
X324535Y161461D02*
D03*
X326110Y161461D02*
D03*
X327685Y161461D02*
D03*
X329260Y161461D02*
D03*
X330835Y161461D02*
D03*
X332409Y161461D02*
D03*
Y221539D02*
D03*
X330835Y221539D02*
D03*
X329260Y221539D02*
D03*
X327685Y221539D02*
D03*
X326110Y221539D02*
D03*
X324535Y221539D02*
D03*
X322961Y221539D02*
D03*
X321386Y221539D02*
D03*
X319811Y221539D02*
D03*
X318236D02*
D03*
X316661D02*
D03*
X315087D02*
D03*
X313512D02*
D03*
X311937D02*
D03*
X310362D02*
D03*
X308787D02*
D03*
X307213D02*
D03*
X305638D02*
D03*
X304063D02*
D03*
X302488D02*
D03*
X300914D02*
D03*
X299339D02*
D03*
X297764D02*
D03*
X296189D02*
D03*
X294614Y221539D02*
D03*
X293039Y221539D02*
D03*
X291465Y221539D02*
D03*
X289890Y221539D02*
D03*
X288315Y221539D02*
D03*
X286740Y221539D02*
D03*
X285165Y221539D02*
D03*
X283591Y221539D02*
D03*
D54*
X338039Y167091D02*
D03*
X338039Y168665D02*
D03*
X338039Y170240D02*
D03*
X338039Y171815D02*
D03*
X338039Y173390D02*
D03*
X338039Y174965D02*
D03*
X338039Y176539D02*
D03*
X338039Y178114D02*
D03*
X338039Y179689D02*
D03*
Y181264D02*
D03*
Y182839D02*
D03*
Y184414D02*
D03*
Y185988D02*
D03*
Y187563D02*
D03*
Y189138D02*
D03*
Y190713D02*
D03*
Y192287D02*
D03*
Y193862D02*
D03*
Y195437D02*
D03*
Y197012D02*
D03*
Y198587D02*
D03*
Y200161D02*
D03*
Y201736D02*
D03*
Y203311D02*
D03*
X338039Y204886D02*
D03*
X338039Y206461D02*
D03*
X338039Y208035D02*
D03*
X338039Y209610D02*
D03*
X338039Y211185D02*
D03*
X338039Y212760D02*
D03*
X338039Y214335D02*
D03*
X338039Y215909D02*
D03*
X277961D02*
D03*
X277961Y214335D02*
D03*
X277961Y212760D02*
D03*
X277961Y211185D02*
D03*
X277961Y209610D02*
D03*
X277961Y208035D02*
D03*
X277961Y206461D02*
D03*
X277961Y204886D02*
D03*
X277961Y203311D02*
D03*
Y201736D02*
D03*
Y200161D02*
D03*
Y198587D02*
D03*
Y197012D02*
D03*
Y195437D02*
D03*
Y193862D02*
D03*
Y192287D02*
D03*
Y190713D02*
D03*
Y189138D02*
D03*
Y187563D02*
D03*
Y185988D02*
D03*
Y184414D02*
D03*
Y182839D02*
D03*
Y181264D02*
D03*
Y179689D02*
D03*
X277961Y178114D02*
D03*
X277961Y176539D02*
D03*
X277961Y174965D02*
D03*
X277961Y173390D02*
D03*
X277961Y171815D02*
D03*
X277961Y170240D02*
D03*
X277961Y168665D02*
D03*
X277961Y167091D02*
D03*
D55*
X301169Y250953D02*
D03*
X309831D02*
D03*
Y245047D02*
D03*
X301169D02*
D03*
D56*
X216000Y267500D02*
D03*
X299500Y269500D02*
D03*
X469500Y123500D02*
D03*
Y113500D02*
D03*
Y103500D02*
D03*
Y93500D02*
D03*
Y43500D02*
D03*
Y53500D02*
D03*
Y63500D02*
D03*
Y73500D02*
D03*
Y83500D02*
D03*
X5500Y39000D02*
D03*
Y49000D02*
D03*
Y59000D02*
D03*
Y69000D02*
D03*
Y119000D02*
D03*
Y109000D02*
D03*
Y99000D02*
D03*
Y89000D02*
D03*
Y79000D02*
D03*
D57*
X178347Y275000D02*
D03*
X196653D02*
D03*
D58*
X158035Y282500D02*
D03*
Y287500D02*
D03*
Y292500D02*
D03*
Y297500D02*
D03*
Y302500D02*
D03*
D59*
X124965Y292500D02*
D03*
D60*
X289500Y269500D02*
D03*
D61*
X454500Y240500D02*
D03*
Y260500D02*
D03*
Y250500D02*
D03*
D62*
X40312Y125709D02*
D03*
X61571Y125709D02*
D03*
X51729Y46968D02*
D03*
X74052Y66654D02*
D03*
X74052Y106024D02*
D03*
Y145394D02*
D03*
X74052Y184764D02*
D03*
X17949Y125709D02*
D03*
X17949Y86339D02*
D03*
X17950Y46969D02*
D03*
X402949D02*
D03*
X402949Y86339D02*
D03*
X402949Y125709D02*
D03*
X459052Y184764D02*
D03*
X459052Y145394D02*
D03*
Y106024D02*
D03*
X459052Y66654D02*
D03*
X436729Y46968D02*
D03*
X446571Y125709D02*
D03*
X425312Y125709D02*
D03*
D63*
X74051Y136733D02*
D03*
Y155237D02*
D03*
Y174922D02*
D03*
X64917Y193031D02*
D03*
X46019Y193032D02*
D03*
X27122Y193032D02*
D03*
X17949Y174922D02*
D03*
X17949Y165079D02*
D03*
X17949Y155236D02*
D03*
X17949Y136732D02*
D03*
X402949D02*
D03*
X402949Y155236D02*
D03*
X402949Y165079D02*
D03*
X402949Y174922D02*
D03*
X412122Y193032D02*
D03*
X431019Y193032D02*
D03*
X449917Y193031D02*
D03*
X459051Y174922D02*
D03*
Y155237D02*
D03*
Y136733D02*
D03*
D64*
X56363Y260733D02*
D03*
X56232Y284441D02*
D03*
D65*
X38636Y272746D02*
D03*
D66*
X221755Y22542D02*
D03*
X171382Y22199D02*
D03*
X298755Y22542D02*
D03*
X248382Y22199D02*
D03*
X377255Y22542D02*
D03*
X326882Y22199D02*
D03*
X140755Y22542D02*
D03*
X90382Y22199D02*
D03*
D67*
X228272Y36003D02*
D03*
X164647D02*
D03*
X305272D02*
D03*
X241647D02*
D03*
X383772D02*
D03*
X320147D02*
D03*
X147272D02*
D03*
X83647D02*
D03*
D68*
X169474Y58551D02*
D03*
X178510Y58428D02*
D03*
X214652Y58551D02*
D03*
X223564D02*
D03*
X182442Y39429D02*
D03*
X186509Y32483D02*
D03*
X190581Y39446D02*
D03*
X194691Y32693D02*
D03*
X198588Y39511D02*
D03*
X202604Y32353D02*
D03*
X206595Y39429D02*
D03*
X210579Y32468D02*
D03*
X246474Y58551D02*
D03*
X255510Y58428D02*
D03*
X291652Y58551D02*
D03*
X300564D02*
D03*
X259442Y39429D02*
D03*
X263509Y32483D02*
D03*
X267581Y39446D02*
D03*
X271691Y32693D02*
D03*
X275588Y39511D02*
D03*
X279604Y32353D02*
D03*
X283595Y39429D02*
D03*
X287579Y32468D02*
D03*
X324974Y58551D02*
D03*
X334010Y58428D02*
D03*
X370152Y58551D02*
D03*
X379064D02*
D03*
X337942Y39429D02*
D03*
X342009Y32483D02*
D03*
X346081Y39446D02*
D03*
X350191Y32693D02*
D03*
X354088Y39511D02*
D03*
X358104Y32353D02*
D03*
X362095Y39429D02*
D03*
X366079Y32468D02*
D03*
X88474Y58551D02*
D03*
X97510Y58428D02*
D03*
X133652Y58551D02*
D03*
X142564D02*
D03*
X101442Y39429D02*
D03*
X105509Y32483D02*
D03*
X109581Y39446D02*
D03*
X113691Y32693D02*
D03*
X117588Y39511D02*
D03*
X121604Y32353D02*
D03*
X125595Y39429D02*
D03*
X129579Y32468D02*
D03*
D69*
X347500Y69500D02*
D03*
X327500D02*
D03*
X268500D02*
D03*
X248500D02*
D03*
X189500D02*
D03*
X169500D02*
D03*
X110500D02*
D03*
X90500D02*
D03*
D70*
X469500Y33500D02*
D03*
X5500Y129000D02*
D03*
D71*
X101000Y148500D02*
D03*
X177000Y7500D02*
D03*
X25500Y241500D02*
D03*
X74000Y123500D02*
D03*
X59500Y211500D02*
D03*
X21500D02*
D03*
X63000Y232500D02*
D03*
X199000Y299500D02*
D03*
X97000Y233000D02*
D03*
X101000Y176000D02*
D03*
X202500Y251500D02*
D03*
X179000D02*
D03*
X417500Y246500D02*
D03*
X258000Y233500D02*
D03*
X203000Y231500D02*
D03*
X437500Y234000D02*
D03*
X169500Y229500D02*
D03*
X224500Y250500D02*
D03*
X276000Y262500D02*
D03*
X338500Y228500D02*
D03*
X253000Y218500D02*
D03*
X234000Y253000D02*
D03*
X227500Y219000D02*
D03*
X185500Y177000D02*
D03*
X207000Y175500D02*
D03*
X212000Y200500D02*
D03*
X210000Y209500D02*
D03*
X103500Y162000D02*
D03*
X208500Y187500D02*
D03*
X159500Y142000D02*
D03*
X359000Y134500D02*
D03*
X320000Y138000D02*
D03*
X117500Y144000D02*
D03*
X153000Y149000D02*
D03*
X141000Y136500D02*
D03*
X192500Y174500D02*
D03*
X170500Y162000D02*
D03*
X255000Y187000D02*
D03*
X348000Y159500D02*
D03*
X375000D02*
D03*
X179000Y161500D02*
D03*
X276500Y152000D02*
D03*
X258000Y145000D02*
D03*
X277000Y139500D02*
D03*
X259000Y157000D02*
D03*
X230500Y168000D02*
D03*
X243000Y180500D02*
D03*
X208500Y141500D02*
D03*
X192500Y139500D02*
D03*
X225000Y202000D02*
D03*
X200500Y151500D02*
D03*
X105000Y292000D02*
D03*
X98000Y292500D02*
D03*
X90500D02*
D03*
X82500D02*
D03*
X105000Y302500D02*
D03*
X97500D02*
D03*
X90000D02*
D03*
X82500D02*
D03*
X128500Y287500D02*
D03*
X121500D02*
D03*
X128500Y297500D02*
D03*
X121500D02*
D03*
X209500Y267500D02*
D03*
X364000Y183500D02*
D03*
X356433Y181067D02*
D03*
X354016Y185500D02*
D03*
X367000Y190500D02*
D03*
X158000Y250000D02*
D03*
X80500Y252000D02*
D03*
X455000Y221000D02*
D03*
X457000Y207000D02*
D03*
X459000Y221000D02*
D03*
X457000Y203500D02*
D03*
X35500Y194000D02*
D03*
X37500Y211500D02*
D03*
X363500Y234500D02*
D03*
X391772Y263272D02*
D03*
X114000Y252000D02*
D03*
X351500Y268937D02*
D03*
X29272Y139228D02*
D03*
X439660Y145500D02*
D03*
X433362D02*
D03*
X430213Y143500D02*
D03*
X427063Y145512D02*
D03*
X420764D02*
D03*
X444728Y136728D02*
D03*
X54660Y146340D02*
D03*
X48362Y146500D02*
D03*
X45213Y145500D02*
D03*
X42063Y146500D02*
D03*
X35764D02*
D03*
X344165Y173500D02*
D03*
X411500Y200500D02*
D03*
X338272Y220272D02*
D03*
X102000Y207500D02*
D03*
X50000Y189000D02*
D03*
X433000Y177500D02*
D03*
X427500D02*
D03*
X42500D02*
D03*
X48000D02*
D03*
X115500Y207500D02*
D03*
X136500Y191500D02*
D03*
X166937Y211063D02*
D03*
X118728Y189272D02*
D03*
X136000Y177500D02*
D03*
X146500Y152000D02*
D03*
X133500Y167000D02*
D03*
X128500Y166500D02*
D03*
X131500Y169500D02*
D03*
X131000Y176000D02*
D03*
X137000Y175000D02*
D03*
X445960Y157540D02*
D03*
X442810Y159000D02*
D03*
X417500Y157000D02*
D03*
X434937Y188937D02*
D03*
X425490Y188990D02*
D03*
X435728Y170728D02*
D03*
X427500Y168000D02*
D03*
X444386Y189114D02*
D03*
X412675Y183825D02*
D03*
X448500Y200500D02*
D03*
X430000D02*
D03*
X374000Y234500D02*
D03*
X35500Y197500D02*
D03*
X150500Y292500D02*
D03*
Y274000D02*
D03*
X210000Y299000D02*
D03*
X186000Y307500D02*
D03*
X224000Y295500D02*
D03*
X218500D02*
D03*
X263728Y263772D02*
D03*
X269500Y165500D02*
D03*
X281039Y161461D02*
D03*
X151500Y163500D02*
D03*
X158500Y199000D02*
D03*
X163500Y186000D02*
D03*
X150453Y201453D02*
D03*
X124000Y201500D02*
D03*
X88500Y252000D02*
D03*
X83000Y151500D02*
D03*
X79500Y166772D02*
D03*
X62500Y186500D02*
D03*
X48000Y168000D02*
D03*
X42500D02*
D03*
X63500Y152000D02*
D03*
X57810Y157810D02*
D03*
X32614D02*
D03*
X130500Y142500D02*
D03*
X140272Y146000D02*
D03*
X415000Y209000D02*
D03*
X132500Y82000D02*
D03*
X127500D02*
D03*
X102500D02*
D03*
X97500D02*
D03*
X271500Y193862D02*
D03*
Y181264D02*
D03*
X211500Y82000D02*
D03*
X206500D02*
D03*
X181500D02*
D03*
X176500D02*
D03*
X290500D02*
D03*
X285500D02*
D03*
X260500D02*
D03*
X255500D02*
D03*
X334500D02*
D03*
X339500D02*
D03*
X369500D02*
D03*
X364500D02*
D03*
X194500Y224000D02*
D03*
Y219000D02*
D03*
Y214000D02*
D03*
Y209000D02*
D03*
Y204000D02*
D03*
Y199000D02*
D03*
Y194000D02*
D03*
Y189000D02*
D03*
X186500Y297500D02*
D03*
X128500Y155500D02*
D03*
X133500Y154500D02*
D03*
X130638Y152500D02*
D03*
X118862Y169638D02*
D03*
X120500Y164000D02*
D03*
X137500Y187000D02*
D03*
X123000Y182000D02*
D03*
X144500Y211000D02*
D03*
X126500Y186000D02*
D03*
X149000Y175000D02*
D03*
X146500Y163500D02*
D03*
X151228Y229272D02*
D03*
X316500Y169000D02*
D03*
X305638Y216039D02*
D03*
X260236Y257236D02*
D03*
X293039Y216039D02*
D03*
X271500Y171815D02*
D03*
Y187563D02*
D03*
X332000Y204500D02*
D03*
Y209500D02*
D03*
X344000Y207000D02*
D03*
X324772Y215272D02*
D03*
X330835Y215665D02*
D03*
X344000Y211500D02*
D03*
X327685Y213815D02*
D03*
X332110Y173390D02*
D03*
X338039Y165539D02*
D03*
X311500Y169000D02*
D03*
X321500D02*
D03*
X306500D02*
D03*
X301500D02*
D03*
X296500D02*
D03*
X291500D02*
D03*
X278500Y165500D02*
D03*
X287228Y176772D02*
D03*
X284500Y185000D02*
D03*
Y190000D02*
D03*
Y198500D02*
D03*
Y205000D02*
D03*
X285500Y216000D02*
D03*
X332500Y183500D02*
D03*
Y178500D02*
D03*
X346000Y178114D02*
D03*
X344000Y181000D02*
D03*
X346000Y183500D02*
D03*
X282039Y221539D02*
D03*
X392500Y240000D02*
D03*
X390000Y251500D02*
D03*
X392500Y248000D02*
D03*
X387500Y254000D02*
D03*
X385500Y256500D02*
D03*
X294000Y227000D02*
D03*
X301500Y230500D02*
D03*
X286000Y246500D02*
D03*
X151500Y173000D02*
D03*
X364000Y227500D02*
D03*
X310362Y156000D02*
D03*
X300914Y154587D02*
D03*
X319811Y154811D02*
D03*
X344165Y168665D02*
D03*
X394500Y245276D02*
D03*
X396000Y234000D02*
D03*
X399228Y232228D02*
D03*
X105000Y172000D02*
D03*
X101000Y194500D02*
D03*
X186500Y302500D02*
D03*
X293500Y198500D02*
D03*
Y205000D02*
D03*
Y190000D02*
D03*
Y185000D02*
D03*
Y179500D02*
D03*
X296500Y178000D02*
D03*
X301500D02*
D03*
X306500D02*
D03*
X311500D02*
D03*
X316500D02*
D03*
X321500D02*
D03*
X326228Y186228D02*
D03*
Y169272D02*
D03*
Y201772D02*
D03*
X321500Y207000D02*
D03*
X305500D02*
D03*
X295728Y209728D02*
D03*
X271500Y212760D02*
D03*
Y203311D02*
D03*
X335000Y161461D02*
D03*
X360500Y179500D02*
D03*
X375000Y213000D02*
D03*
X377750Y221250D02*
D03*
X406272Y235772D02*
D03*
X385500Y266500D02*
D03*
X316500Y257000D02*
D03*
X301169Y255669D02*
D03*
X308500Y240000D02*
D03*
X294000Y251000D02*
D03*
X279728Y250500D02*
D03*
X286000Y256500D02*
D03*
X276500Y239500D02*
D03*
Y244500D02*
D03*
X273272Y253500D02*
D03*
X234000Y239500D02*
D03*
X111500Y164000D02*
D03*
X28675Y183825D02*
D03*
X40500Y189000D02*
D03*
X89000Y195500D02*
D03*
Y190500D02*
D03*
X106500Y194500D02*
D03*
X90728Y163228D02*
D03*
X90772Y158772D02*
D03*
X88000Y170500D02*
D03*
Y151500D02*
D03*
X86272Y182228D02*
D03*
Y203772D02*
D03*
X101000Y184000D02*
D03*
X154000Y182000D02*
D03*
X157000Y190000D02*
D03*
X154278Y187500D02*
D03*
X130000Y195500D02*
D03*
X127000Y196500D02*
D03*
X124000Y197500D02*
D03*
X426772Y209000D02*
D03*
X97500Y137500D02*
D03*
X180500Y134272D02*
D03*
X255500Y137500D02*
D03*
X330500Y134272D02*
D03*
X313500Y150000D02*
D03*
X203500Y280500D02*
D03*
Y277000D02*
D03*
Y273000D02*
D03*
Y269500D02*
D03*
Y265500D02*
D03*
X209500Y279000D02*
D03*
Y275000D02*
D03*
Y271000D02*
D03*
X33500Y211500D02*
D03*
D72*
X449898Y167685D02*
D03*
X412102D02*
D03*
X27102D02*
D03*
X64898D02*
D03*
M02*
