G04*
G04 #@! TF.GenerationSoftware,Altium Limited,Altium Designer,20.0.2 (26)*
G04*
G04 Layer_Color=16711935*
%FSLAX25Y25*%
%MOIN*%
G70*
G01*
G75*
%ADD45R,0.02769X0.03162*%
%ADD46R,0.03162X0.02769*%
%ADD55R,0.06312X0.05524*%
%ADD56C,0.04737*%
%ADD60R,0.04737X0.04737*%
%ADD61C,0.06800*%
%ADD62C,0.06890*%
%ADD63C,0.06394*%
%ADD64O,0.16548X0.06706*%
%ADD65O,0.06706X0.16548*%
%ADD66C,0.13674*%
%ADD67O,0.07099X0.10800*%
%ADD68C,0.05800*%
%ADD69C,0.05737*%
%ADD70R,0.04737X0.04737*%
%ADD71C,0.02769*%
%ADD72C,0.08674*%
%ADD99R,0.03543X0.01181*%
%ADD100R,0.01181X0.03543*%
%ADD101R,0.14961X0.14961*%
G04:AMPARAMS|DCode=102|XSize=67.06mil|YSize=63.12mil|CornerRadius=0mil|HoleSize=0mil|Usage=FLASHONLY|Rotation=135.000|XOffset=0mil|YOffset=0mil|HoleType=Round|Shape=Rectangle|*
%AMROTATEDRECTD102*
4,1,4,0.04602,-0.00139,0.00139,-0.04602,-0.04602,0.00139,-0.00139,0.04602,0.04602,-0.00139,0.0*
%
%ADD102ROTATEDRECTD102*%

%ADD103R,0.04000X0.04000*%
D45*
X130772Y201500D02*
D03*
X127228D02*
D03*
X140272Y150000D02*
D03*
X136728D02*
D03*
X117772Y164000D02*
D03*
X114228D02*
D03*
X107728Y172000D02*
D03*
X111272D02*
D03*
X334728Y215000D02*
D03*
X338272D02*
D03*
X329772Y183500D02*
D03*
X326228D02*
D03*
X329772Y209500D02*
D03*
X326228D02*
D03*
X287228Y205000D02*
D03*
X290772D02*
D03*
X287228Y185000D02*
D03*
X290772D02*
D03*
X276272Y165500D02*
D03*
X272728D02*
D03*
X329772Y178500D02*
D03*
X326228D02*
D03*
X329772Y173500D02*
D03*
X326228D02*
D03*
X329772Y204500D02*
D03*
X326228D02*
D03*
X287228Y198500D02*
D03*
X290772D02*
D03*
X287228Y190000D02*
D03*
X290772D02*
D03*
X287228Y179500D02*
D03*
X290772D02*
D03*
X114228Y158500D02*
D03*
X117772D02*
D03*
X114228Y153500D02*
D03*
X117772D02*
D03*
D46*
X176500Y75228D02*
D03*
Y78772D02*
D03*
X181500Y75228D02*
D03*
Y78772D02*
D03*
X206500Y75228D02*
D03*
Y78772D02*
D03*
X211500Y75228D02*
D03*
Y78772D02*
D03*
X255500Y75228D02*
D03*
Y78772D02*
D03*
X260500Y75228D02*
D03*
Y78772D02*
D03*
X285500Y75228D02*
D03*
Y78772D02*
D03*
X290500Y75228D02*
D03*
Y78772D02*
D03*
X334500Y74728D02*
D03*
Y78272D02*
D03*
X339500Y74728D02*
D03*
Y78272D02*
D03*
X364500Y74728D02*
D03*
Y78272D02*
D03*
X369500Y74728D02*
D03*
Y78272D02*
D03*
X132500Y75228D02*
D03*
Y78772D02*
D03*
X127500Y75228D02*
D03*
Y78772D02*
D03*
X102500Y75228D02*
D03*
Y78772D02*
D03*
X97500Y75228D02*
D03*
Y78772D02*
D03*
X152500Y195228D02*
D03*
Y198772D02*
D03*
X130500Y149772D02*
D03*
Y146228D02*
D03*
X35000Y142772D02*
D03*
Y139228D02*
D03*
X40000Y142772D02*
D03*
Y139228D02*
D03*
X50000Y142772D02*
D03*
Y139228D02*
D03*
X55000Y142772D02*
D03*
Y139228D02*
D03*
X45000Y142772D02*
D03*
Y139228D02*
D03*
X425713Y140272D02*
D03*
Y136728D02*
D03*
X435713Y140272D02*
D03*
Y136728D02*
D03*
X440713Y140272D02*
D03*
Y136728D02*
D03*
X420713Y140272D02*
D03*
Y136728D02*
D03*
X430713Y140272D02*
D03*
Y136728D02*
D03*
X145500Y68772D02*
D03*
Y65228D02*
D03*
X150500Y68772D02*
D03*
Y65228D02*
D03*
X229000Y68272D02*
D03*
Y64728D02*
D03*
X223500Y68272D02*
D03*
Y64728D02*
D03*
X307000Y68272D02*
D03*
Y64728D02*
D03*
X300500Y68272D02*
D03*
Y64728D02*
D03*
X387500Y68272D02*
D03*
Y64728D02*
D03*
X379000Y68272D02*
D03*
Y64728D02*
D03*
X296500Y171728D02*
D03*
Y175272D02*
D03*
X306500Y171728D02*
D03*
Y175272D02*
D03*
X316500Y171728D02*
D03*
Y175272D02*
D03*
X338000Y169228D02*
D03*
Y172772D02*
D03*
X305500Y213272D02*
D03*
Y209728D02*
D03*
X293000Y213272D02*
D03*
Y209728D02*
D03*
X260000Y260728D02*
D03*
Y264272D02*
D03*
X311500Y171728D02*
D03*
Y175272D02*
D03*
X321500Y171728D02*
D03*
Y175272D02*
D03*
Y213272D02*
D03*
Y209728D02*
D03*
X285500Y213272D02*
D03*
Y209728D02*
D03*
X291500Y171728D02*
D03*
Y175272D02*
D03*
X42500Y171228D02*
D03*
Y174772D02*
D03*
X48000Y171228D02*
D03*
Y174772D02*
D03*
X427500Y170728D02*
D03*
Y174272D02*
D03*
X433000Y170728D02*
D03*
Y174272D02*
D03*
X301500Y171728D02*
D03*
Y175272D02*
D03*
X176000Y215228D02*
D03*
Y218772D02*
D03*
X286000Y253772D02*
D03*
Y250228D02*
D03*
D55*
X145331Y201453D02*
D03*
X136669D02*
D03*
Y195547D02*
D03*
X145331D02*
D03*
D56*
X299500Y269500D02*
D03*
X469500Y123500D02*
D03*
Y113500D02*
D03*
Y103500D02*
D03*
Y93500D02*
D03*
Y43500D02*
D03*
Y53500D02*
D03*
Y63500D02*
D03*
Y73500D02*
D03*
Y83500D02*
D03*
X5500Y39000D02*
D03*
Y49000D02*
D03*
Y59000D02*
D03*
Y69000D02*
D03*
Y119000D02*
D03*
Y109000D02*
D03*
Y99000D02*
D03*
Y89000D02*
D03*
Y79000D02*
D03*
D60*
X289500Y269500D02*
D03*
D61*
X454500Y240500D02*
D03*
Y260500D02*
D03*
Y250500D02*
D03*
D62*
X40312Y125709D02*
D03*
X61571Y125709D02*
D03*
X51729Y46968D02*
D03*
X74052Y66654D02*
D03*
X74052Y106024D02*
D03*
Y145394D02*
D03*
X74052Y184764D02*
D03*
X17949Y125709D02*
D03*
X17949Y86339D02*
D03*
X17950Y46969D02*
D03*
X402949D02*
D03*
X402949Y86339D02*
D03*
X402949Y125709D02*
D03*
X459052Y184764D02*
D03*
X459052Y145394D02*
D03*
Y106024D02*
D03*
X459052Y66654D02*
D03*
X436729Y46968D02*
D03*
X446571Y125709D02*
D03*
X425312Y125709D02*
D03*
D63*
X74051Y136733D02*
D03*
Y155237D02*
D03*
Y174922D02*
D03*
X64917Y193031D02*
D03*
X46019Y193032D02*
D03*
X27122Y193032D02*
D03*
X17949Y174922D02*
D03*
X17949Y165079D02*
D03*
X17949Y155236D02*
D03*
X17949Y136732D02*
D03*
X402949D02*
D03*
X402949Y155236D02*
D03*
X402949Y165079D02*
D03*
X402949Y174922D02*
D03*
X412122Y193032D02*
D03*
X431019Y193032D02*
D03*
X449917Y193031D02*
D03*
X459051Y174922D02*
D03*
Y155237D02*
D03*
Y136733D02*
D03*
D64*
X56363Y260733D02*
D03*
X56232Y284441D02*
D03*
D65*
X38636Y272746D02*
D03*
D66*
X221755Y22542D02*
D03*
X171382Y22199D02*
D03*
X298755Y22542D02*
D03*
X248382Y22199D02*
D03*
X377255Y22542D02*
D03*
X326882Y22199D02*
D03*
X140755Y22542D02*
D03*
X90382Y22199D02*
D03*
D67*
X228272Y36003D02*
D03*
X164647D02*
D03*
X305272D02*
D03*
X241647D02*
D03*
X383772D02*
D03*
X320147D02*
D03*
X147272D02*
D03*
X83647D02*
D03*
D68*
X169474Y58551D02*
D03*
X178510Y58428D02*
D03*
X214652Y58551D02*
D03*
X223564D02*
D03*
X182442Y39429D02*
D03*
X186509Y32483D02*
D03*
X190581Y39446D02*
D03*
X194691Y32693D02*
D03*
X198588Y39511D02*
D03*
X202604Y32353D02*
D03*
X206595Y39429D02*
D03*
X210579Y32468D02*
D03*
X246474Y58551D02*
D03*
X255510Y58428D02*
D03*
X291652Y58551D02*
D03*
X300564D02*
D03*
X259442Y39429D02*
D03*
X263509Y32483D02*
D03*
X267581Y39446D02*
D03*
X271691Y32693D02*
D03*
X275588Y39511D02*
D03*
X279604Y32353D02*
D03*
X283595Y39429D02*
D03*
X287579Y32468D02*
D03*
X324974Y58551D02*
D03*
X334010Y58428D02*
D03*
X370152Y58551D02*
D03*
X379064D02*
D03*
X337942Y39429D02*
D03*
X342009Y32483D02*
D03*
X346081Y39446D02*
D03*
X350191Y32693D02*
D03*
X354088Y39511D02*
D03*
X358104Y32353D02*
D03*
X362095Y39429D02*
D03*
X366079Y32468D02*
D03*
X88474Y58551D02*
D03*
X97510Y58428D02*
D03*
X133652Y58551D02*
D03*
X142564D02*
D03*
X101442Y39429D02*
D03*
X105509Y32483D02*
D03*
X109581Y39446D02*
D03*
X113691Y32693D02*
D03*
X117588Y39511D02*
D03*
X121604Y32353D02*
D03*
X125595Y39429D02*
D03*
X129579Y32468D02*
D03*
D69*
X347500Y69500D02*
D03*
X327500D02*
D03*
X268500D02*
D03*
X248500D02*
D03*
X189500D02*
D03*
X169500D02*
D03*
X110500D02*
D03*
X90500D02*
D03*
D70*
X469500Y33500D02*
D03*
X5500Y129000D02*
D03*
D71*
X101000Y148500D02*
D03*
X177000Y7500D02*
D03*
X25500Y241500D02*
D03*
X74000Y123500D02*
D03*
X59500Y211500D02*
D03*
X21500D02*
D03*
X63000Y232500D02*
D03*
X199000Y299500D02*
D03*
X97000Y233000D02*
D03*
X101000Y176000D02*
D03*
X202500Y251500D02*
D03*
X179000D02*
D03*
X417500Y246500D02*
D03*
X258000Y233500D02*
D03*
X203000Y231500D02*
D03*
X437500Y234000D02*
D03*
X169500Y229500D02*
D03*
X224500Y250500D02*
D03*
X276000Y262500D02*
D03*
X338500Y228500D02*
D03*
X253000Y218500D02*
D03*
X234000Y253000D02*
D03*
X227500Y219000D02*
D03*
X185500Y177000D02*
D03*
X207000Y175500D02*
D03*
X212000Y200500D02*
D03*
X210000Y209500D02*
D03*
X103500Y162000D02*
D03*
X208500Y187500D02*
D03*
X159500Y142000D02*
D03*
X359000Y134500D02*
D03*
X320000Y138000D02*
D03*
X117500Y144000D02*
D03*
X153000Y149000D02*
D03*
X141000Y136500D02*
D03*
X192500Y174500D02*
D03*
X170500Y162000D02*
D03*
X255000Y187000D02*
D03*
X348000Y159500D02*
D03*
X375000D02*
D03*
X179000Y161500D02*
D03*
X276500Y152000D02*
D03*
X258000Y145000D02*
D03*
X277000Y139500D02*
D03*
X259000Y157000D02*
D03*
X230500Y168000D02*
D03*
X243000Y180500D02*
D03*
X208500Y141500D02*
D03*
X192500Y139500D02*
D03*
X225000Y202000D02*
D03*
X200500Y151500D02*
D03*
X105000Y292000D02*
D03*
X98000Y292500D02*
D03*
X90500D02*
D03*
X82500D02*
D03*
X105000Y302500D02*
D03*
X97500D02*
D03*
X90000D02*
D03*
X82500D02*
D03*
X128500Y287500D02*
D03*
X121500D02*
D03*
X128500Y297500D02*
D03*
X121500D02*
D03*
X209500Y267500D02*
D03*
X364000Y183500D02*
D03*
X356433Y181067D02*
D03*
X354016Y185500D02*
D03*
X367000Y190500D02*
D03*
X158000Y250000D02*
D03*
X80500Y252000D02*
D03*
X455000Y221000D02*
D03*
X457000Y207000D02*
D03*
X459000Y221000D02*
D03*
X457000Y203500D02*
D03*
X35500Y194000D02*
D03*
X37500Y211500D02*
D03*
X363500Y234500D02*
D03*
X391772Y263272D02*
D03*
X114000Y252000D02*
D03*
X351500Y268937D02*
D03*
X29272Y139228D02*
D03*
X439660Y145500D02*
D03*
X433362D02*
D03*
X430213Y143500D02*
D03*
X427063Y145512D02*
D03*
X420764D02*
D03*
X444728Y136728D02*
D03*
X54660Y146340D02*
D03*
X48362Y146500D02*
D03*
X45213Y145500D02*
D03*
X42063Y146500D02*
D03*
X35764D02*
D03*
X344165Y173500D02*
D03*
X411500Y200500D02*
D03*
X338272Y220272D02*
D03*
X102000Y207500D02*
D03*
X50000Y189000D02*
D03*
X433000Y177500D02*
D03*
X427500D02*
D03*
X42500D02*
D03*
X48000D02*
D03*
X115500Y207500D02*
D03*
X136500Y191500D02*
D03*
X166937Y211063D02*
D03*
X118728Y189272D02*
D03*
X136000Y177500D02*
D03*
X146500Y152000D02*
D03*
X133500Y167000D02*
D03*
X128500Y166500D02*
D03*
X131500Y169500D02*
D03*
X131000Y176000D02*
D03*
X137000Y175000D02*
D03*
X445960Y157540D02*
D03*
X442810Y159000D02*
D03*
X417500Y157000D02*
D03*
X434937Y188937D02*
D03*
X425490Y188990D02*
D03*
X435728Y170728D02*
D03*
X427500Y168000D02*
D03*
X444386Y189114D02*
D03*
X412675Y183825D02*
D03*
X448500Y200500D02*
D03*
X430000D02*
D03*
X374000Y234500D02*
D03*
X35500Y197500D02*
D03*
X150500Y292500D02*
D03*
Y274000D02*
D03*
X210000Y299000D02*
D03*
X186000Y307500D02*
D03*
X224000Y295500D02*
D03*
X218500D02*
D03*
X263728Y263772D02*
D03*
X269500Y165500D02*
D03*
X281039Y161461D02*
D03*
X151500Y163500D02*
D03*
X158500Y199000D02*
D03*
X163500Y186000D02*
D03*
X150453Y201453D02*
D03*
X124000Y201500D02*
D03*
X88500Y252000D02*
D03*
X83000Y151500D02*
D03*
X79500Y166772D02*
D03*
X62500Y186500D02*
D03*
X48000Y168000D02*
D03*
X42500D02*
D03*
X63500Y152000D02*
D03*
X57810Y157810D02*
D03*
X32614D02*
D03*
X130500Y142500D02*
D03*
X140272Y146000D02*
D03*
X415000Y209000D02*
D03*
X132500Y82000D02*
D03*
X127500D02*
D03*
X102500D02*
D03*
X97500D02*
D03*
X271500Y193862D02*
D03*
Y181264D02*
D03*
X211500Y82000D02*
D03*
X206500D02*
D03*
X181500D02*
D03*
X176500D02*
D03*
X290500D02*
D03*
X285500D02*
D03*
X260500D02*
D03*
X255500D02*
D03*
X334500D02*
D03*
X339500D02*
D03*
X369500D02*
D03*
X364500D02*
D03*
X194500Y224000D02*
D03*
Y219000D02*
D03*
Y214000D02*
D03*
Y209000D02*
D03*
Y204000D02*
D03*
Y199000D02*
D03*
Y194000D02*
D03*
Y189000D02*
D03*
X186500Y297500D02*
D03*
X128500Y155500D02*
D03*
X133500Y154500D02*
D03*
X130638Y152500D02*
D03*
X118862Y169638D02*
D03*
X120500Y164000D02*
D03*
X137500Y187000D02*
D03*
X123000Y182000D02*
D03*
X144500Y211000D02*
D03*
X126500Y186000D02*
D03*
X149000Y175000D02*
D03*
X146500Y163500D02*
D03*
X151228Y229272D02*
D03*
X316500Y169000D02*
D03*
X305638Y216039D02*
D03*
X260236Y257236D02*
D03*
X293039Y216039D02*
D03*
X271500Y171815D02*
D03*
Y187563D02*
D03*
X332000Y204500D02*
D03*
Y209500D02*
D03*
X344000Y207000D02*
D03*
X324772Y215272D02*
D03*
X330835Y215665D02*
D03*
X344000Y211500D02*
D03*
X327685Y213815D02*
D03*
X332110Y173390D02*
D03*
X338039Y165539D02*
D03*
X311500Y169000D02*
D03*
X321500D02*
D03*
X306500D02*
D03*
X301500D02*
D03*
X296500D02*
D03*
X291500D02*
D03*
X278500Y165500D02*
D03*
X287228Y176772D02*
D03*
X284500Y185000D02*
D03*
Y190000D02*
D03*
Y198500D02*
D03*
Y205000D02*
D03*
X285500Y216000D02*
D03*
X332500Y183500D02*
D03*
Y178500D02*
D03*
X346000Y178114D02*
D03*
X344000Y181000D02*
D03*
X346000Y183500D02*
D03*
X282039Y221539D02*
D03*
X392500Y240000D02*
D03*
X390000Y251500D02*
D03*
X392500Y248000D02*
D03*
X387500Y254000D02*
D03*
X385500Y256500D02*
D03*
X294000Y227000D02*
D03*
X301500Y230500D02*
D03*
X286000Y246500D02*
D03*
X151500Y173000D02*
D03*
X364000Y227500D02*
D03*
X310362Y156000D02*
D03*
X300914Y154587D02*
D03*
X319811Y154811D02*
D03*
X344165Y168665D02*
D03*
X394500Y245276D02*
D03*
X396000Y234000D02*
D03*
X399228Y232228D02*
D03*
X105000Y172000D02*
D03*
X101000Y194500D02*
D03*
X186500Y302500D02*
D03*
X293500Y198500D02*
D03*
Y205000D02*
D03*
Y190000D02*
D03*
Y185000D02*
D03*
Y179500D02*
D03*
X296500Y178000D02*
D03*
X301500D02*
D03*
X306500D02*
D03*
X311500D02*
D03*
X316500D02*
D03*
X321500D02*
D03*
X326228Y186228D02*
D03*
Y169272D02*
D03*
Y201772D02*
D03*
X321500Y207000D02*
D03*
X305500D02*
D03*
X295728Y209728D02*
D03*
X271500Y212760D02*
D03*
Y203311D02*
D03*
X335000Y161461D02*
D03*
X360500Y179500D02*
D03*
X375000Y213000D02*
D03*
X377750Y221250D02*
D03*
X406272Y235772D02*
D03*
X385500Y266500D02*
D03*
X316500Y257000D02*
D03*
X301169Y255669D02*
D03*
X308500Y240000D02*
D03*
X294000Y251000D02*
D03*
X279728Y250500D02*
D03*
X286000Y256500D02*
D03*
X276500Y239500D02*
D03*
Y244500D02*
D03*
X273272Y253500D02*
D03*
X234000Y239500D02*
D03*
X111500Y164000D02*
D03*
X28675Y183825D02*
D03*
X40500Y189000D02*
D03*
X89000Y195500D02*
D03*
Y190500D02*
D03*
X106500Y194500D02*
D03*
X90728Y163228D02*
D03*
X90772Y158772D02*
D03*
X88000Y170500D02*
D03*
Y151500D02*
D03*
X86272Y182228D02*
D03*
Y203772D02*
D03*
X101000Y184000D02*
D03*
X154000Y182000D02*
D03*
X157000Y190000D02*
D03*
X154278Y187500D02*
D03*
X130000Y195500D02*
D03*
X127000Y196500D02*
D03*
X124000Y197500D02*
D03*
X426772Y209000D02*
D03*
X97500Y137500D02*
D03*
X180500Y134272D02*
D03*
X255500Y137500D02*
D03*
X330500Y134272D02*
D03*
X313500Y150000D02*
D03*
X203500Y280500D02*
D03*
Y277000D02*
D03*
Y273000D02*
D03*
Y269500D02*
D03*
Y265500D02*
D03*
X209500Y279000D02*
D03*
Y275000D02*
D03*
Y271000D02*
D03*
X33500Y211500D02*
D03*
D72*
X449898Y167685D02*
D03*
X412102D02*
D03*
X27102D02*
D03*
X64898D02*
D03*
D99*
X123160Y164913D02*
D03*
Y166488D02*
D03*
Y168063D02*
D03*
Y169638D02*
D03*
Y171213D02*
D03*
Y172787D02*
D03*
Y174362D02*
D03*
Y175937D02*
D03*
Y177512D02*
D03*
Y179087D02*
D03*
X142840D02*
D03*
Y177512D02*
D03*
Y175937D02*
D03*
Y174362D02*
D03*
Y172787D02*
D03*
Y171213D02*
D03*
Y169638D02*
D03*
Y168063D02*
D03*
Y166488D02*
D03*
Y164913D02*
D03*
D100*
X140087Y181840D02*
D03*
X138512D02*
D03*
X136937D02*
D03*
X135362D02*
D03*
X133787D02*
D03*
X132213D02*
D03*
X130638D02*
D03*
X129063D02*
D03*
X127488D02*
D03*
X125913D02*
D03*
Y162160D02*
D03*
X127488D02*
D03*
X129063D02*
D03*
X130638D02*
D03*
X132213D02*
D03*
X133787D02*
D03*
X135362D02*
D03*
X136937D02*
D03*
X138512D02*
D03*
X140087D02*
D03*
D101*
X133000Y172000D02*
D03*
D102*
X104685Y190315D02*
D03*
X115315Y179685D02*
D03*
D103*
X457000Y211000D02*
D03*
Y217000D02*
D03*
X35500Y201500D02*
D03*
Y207500D02*
D03*
M02*
