G04*
G04 #@! TF.GenerationSoftware,Altium Limited,Altium Designer,20.0.2 (26)*
G04*
G04 Layer_Color=128*
%FSLAX25Y25*%
%MOIN*%
G70*
G01*
G75*
%ADD25R,0.01968X0.02362*%
%ADD26R,0.02362X0.01968*%
%ADD35R,0.05512X0.04724*%
G04:AMPARAMS|DCode=95|XSize=59.06mil|YSize=55.12mil|CornerRadius=0mil|HoleSize=0mil|Usage=FLASHONLY|Rotation=135.000|XOffset=0mil|YOffset=0mil|HoleType=Round|Shape=Rectangle|*
%AMROTATEDRECTD95*
4,1,4,0.04037,-0.00139,0.00139,-0.04037,-0.04037,0.00139,-0.00139,0.04037,0.04037,-0.00139,0.0*
%
%ADD95ROTATEDRECTD95*%

%ADD96R,0.03200X0.03200*%
G36*
X135755Y180265D02*
X134968D01*
Y183415D01*
X135755D01*
Y180265D01*
D02*
G37*
G36*
X131031D02*
X130244D01*
Y183415D01*
X131031D01*
Y180265D01*
D02*
G37*
G36*
X140480Y180265D02*
X139693D01*
X139693Y183415D01*
X140480D01*
Y180265D01*
D02*
G37*
G36*
X138905D02*
X138118D01*
Y183415D01*
X138905D01*
Y180265D01*
D02*
G37*
G36*
X137330D02*
X136543D01*
Y183415D01*
X137330D01*
X137330Y180265D01*
D02*
G37*
G36*
X134180D02*
X133393D01*
Y183415D01*
X134180D01*
Y180265D01*
D02*
G37*
G36*
X132606D02*
X131819D01*
X131819Y183415D01*
X132606D01*
Y180265D01*
D02*
G37*
G36*
X127881D02*
X127094D01*
X127094Y183415D01*
X127881D01*
Y180265D01*
D02*
G37*
G36*
X126306D02*
X125519D01*
Y183415D01*
X126306D01*
Y180265D01*
D02*
G37*
G36*
X129456Y180265D02*
X128669Y180265D01*
Y183415D01*
X129456D01*
Y180265D01*
D02*
G37*
G36*
X144415Y178693D02*
X141265D01*
Y179481D01*
X144415Y179481D01*
Y178693D01*
D02*
G37*
G36*
X124735Y179481D02*
Y178693D01*
X121585D01*
Y179481D01*
X124735Y179481D01*
D02*
G37*
G36*
X144415Y177118D02*
X141265D01*
Y177906D01*
X144415D01*
Y177118D01*
D02*
G37*
G36*
X124735D02*
X121585D01*
Y177906D01*
X124735D01*
X124735Y177118D01*
D02*
G37*
G36*
X144415Y175543D02*
X141265D01*
Y176331D01*
X144415D01*
Y175543D01*
D02*
G37*
G36*
X124735D02*
X121585Y175543D01*
Y176331D01*
X124735D01*
Y175543D01*
D02*
G37*
G36*
X144415Y173968D02*
X141265D01*
Y174756D01*
X144415D01*
Y173968D01*
D02*
G37*
G36*
X124735D02*
X121585D01*
Y174756D01*
X124735D01*
Y173968D01*
D02*
G37*
G36*
X144415Y172393D02*
X141265D01*
Y173181D01*
X144415D01*
Y172393D01*
D02*
G37*
G36*
X124735D02*
X121585D01*
Y173181D01*
X124735D01*
X124735Y172393D01*
D02*
G37*
G36*
X144415Y170819D02*
X141265D01*
Y171607D01*
X144415D01*
Y170819D01*
D02*
G37*
G36*
X124735D02*
X121585D01*
Y171607D01*
X124735D01*
Y170819D01*
D02*
G37*
G36*
X144415Y169244D02*
X141265D01*
Y170032D01*
X144415D01*
Y169244D01*
D02*
G37*
G36*
X124735Y169244D02*
X121585Y169244D01*
Y170032D01*
X124735D01*
Y169244D01*
D02*
G37*
G36*
X144415Y167669D02*
X141265D01*
Y168457D01*
X144415D01*
Y167669D01*
D02*
G37*
G36*
X124735D02*
X121585D01*
Y168457D01*
X124735D01*
Y167669D01*
D02*
G37*
G36*
X138827Y166173D02*
X127173D01*
Y177827D01*
X138827D01*
Y166173D01*
D02*
G37*
G36*
X144415Y166094D02*
X141265D01*
X141265Y166882D01*
X144415D01*
Y166094D01*
D02*
G37*
G36*
X124735D02*
X121585D01*
Y166882D01*
X124735D01*
X124735Y166094D01*
D02*
G37*
G36*
X144415Y164519D02*
X141265D01*
X141265Y165307D01*
X144415D01*
Y164519D01*
D02*
G37*
G36*
X124735D02*
X121585D01*
Y165307D01*
X124735D01*
X124735Y164519D01*
D02*
G37*
G36*
X140481Y160585D02*
X139693D01*
X139693Y163735D01*
X140481D01*
Y160585D01*
D02*
G37*
G36*
X138906D02*
X138118D01*
X138118Y163735D01*
X138906D01*
Y160585D01*
D02*
G37*
G36*
X137331D02*
X136543D01*
Y163735D01*
X137331D01*
Y160585D01*
D02*
G37*
G36*
X135755Y163735D02*
Y160585D01*
X134968D01*
Y163735D01*
X135755Y163735D01*
D02*
G37*
G36*
X134181D02*
Y160585D01*
X133393D01*
Y163735D01*
X134181Y163735D01*
D02*
G37*
G36*
X132606Y160585D02*
X131819D01*
X131819Y163735D01*
X132606D01*
Y160585D01*
D02*
G37*
G36*
X131032D02*
X130244D01*
Y163735D01*
X131032D01*
Y160585D01*
D02*
G37*
G36*
X129457D02*
X128669D01*
Y163735D01*
X129457D01*
Y160585D01*
D02*
G37*
G36*
X127882D02*
X127094D01*
Y163735D01*
X127882D01*
X127882Y160585D01*
D02*
G37*
G36*
X126307Y163735D02*
Y160585D01*
X125519D01*
Y163735D01*
X126307Y163735D01*
D02*
G37*
D25*
X130772Y201500D02*
D03*
X127228D02*
D03*
X140272Y150000D02*
D03*
X136728D02*
D03*
X117772Y164000D02*
D03*
X114228D02*
D03*
X107728Y172000D02*
D03*
X111272D02*
D03*
X334728Y215000D02*
D03*
X338272D02*
D03*
X329772Y183500D02*
D03*
X326228D02*
D03*
X329772Y209500D02*
D03*
X326228D02*
D03*
X287228Y205000D02*
D03*
X290772D02*
D03*
X287228Y185000D02*
D03*
X290772D02*
D03*
X276272Y165500D02*
D03*
X272728D02*
D03*
X329772Y178500D02*
D03*
X326228D02*
D03*
X329772Y173500D02*
D03*
X326228D02*
D03*
X329772Y204500D02*
D03*
X326228D02*
D03*
X287228Y198500D02*
D03*
X290772D02*
D03*
X287228Y190000D02*
D03*
X290772D02*
D03*
X287228Y179500D02*
D03*
X290772D02*
D03*
X114228Y158500D02*
D03*
X117772D02*
D03*
X114228Y153500D02*
D03*
X117772D02*
D03*
D26*
X176500Y75228D02*
D03*
Y78772D02*
D03*
X181500Y75228D02*
D03*
Y78772D02*
D03*
X206500Y75228D02*
D03*
Y78772D02*
D03*
X211500Y75228D02*
D03*
Y78772D02*
D03*
X255500Y75228D02*
D03*
Y78772D02*
D03*
X260500Y75228D02*
D03*
Y78772D02*
D03*
X285500Y75228D02*
D03*
Y78772D02*
D03*
X290500Y75228D02*
D03*
Y78772D02*
D03*
X334500Y74728D02*
D03*
Y78272D02*
D03*
X339500Y74728D02*
D03*
Y78272D02*
D03*
X364500Y74728D02*
D03*
Y78272D02*
D03*
X369500Y74728D02*
D03*
Y78272D02*
D03*
X132500Y75228D02*
D03*
Y78772D02*
D03*
X127500Y75228D02*
D03*
Y78772D02*
D03*
X102500Y75228D02*
D03*
Y78772D02*
D03*
X97500Y75228D02*
D03*
Y78772D02*
D03*
X152500Y195228D02*
D03*
Y198772D02*
D03*
X130500Y149772D02*
D03*
Y146228D02*
D03*
X35000Y142772D02*
D03*
Y139228D02*
D03*
X40000Y142772D02*
D03*
Y139228D02*
D03*
X50000Y142772D02*
D03*
Y139228D02*
D03*
X55000Y142772D02*
D03*
Y139228D02*
D03*
X45000Y142772D02*
D03*
Y139228D02*
D03*
X425713Y140272D02*
D03*
Y136728D02*
D03*
X435713Y140272D02*
D03*
Y136728D02*
D03*
X440713Y140272D02*
D03*
Y136728D02*
D03*
X420713Y140272D02*
D03*
Y136728D02*
D03*
X430713Y140272D02*
D03*
Y136728D02*
D03*
X145500Y68772D02*
D03*
Y65228D02*
D03*
X150500Y68772D02*
D03*
Y65228D02*
D03*
X229000Y68272D02*
D03*
Y64728D02*
D03*
X223500Y68272D02*
D03*
Y64728D02*
D03*
X307000Y68272D02*
D03*
Y64728D02*
D03*
X300500Y68272D02*
D03*
Y64728D02*
D03*
X387500Y68272D02*
D03*
Y64728D02*
D03*
X379000Y68272D02*
D03*
Y64728D02*
D03*
X296500Y171728D02*
D03*
Y175272D02*
D03*
X306500Y171728D02*
D03*
Y175272D02*
D03*
X316500Y171728D02*
D03*
Y175272D02*
D03*
X338000Y169228D02*
D03*
Y172772D02*
D03*
X305500Y213272D02*
D03*
Y209728D02*
D03*
X293000Y213272D02*
D03*
Y209728D02*
D03*
X260000Y260728D02*
D03*
Y264272D02*
D03*
X311500Y171728D02*
D03*
Y175272D02*
D03*
X321500Y171728D02*
D03*
Y175272D02*
D03*
Y213272D02*
D03*
Y209728D02*
D03*
X285500Y213272D02*
D03*
Y209728D02*
D03*
X291500Y171728D02*
D03*
Y175272D02*
D03*
X42500Y171228D02*
D03*
Y174772D02*
D03*
X48000Y171228D02*
D03*
Y174772D02*
D03*
X427500Y170728D02*
D03*
Y174272D02*
D03*
X433000Y170728D02*
D03*
Y174272D02*
D03*
X301500Y171728D02*
D03*
Y175272D02*
D03*
X176000Y215228D02*
D03*
Y218772D02*
D03*
X286000Y253772D02*
D03*
Y250228D02*
D03*
D35*
X145331Y201453D02*
D03*
X136669D02*
D03*
Y195547D02*
D03*
X145331D02*
D03*
D95*
X104685Y190315D02*
D03*
X115315Y179685D02*
D03*
D96*
X457000Y211000D02*
D03*
Y217000D02*
D03*
X35500Y201500D02*
D03*
Y207500D02*
D03*
M02*
