G04*
G04 #@! TF.GenerationSoftware,Altium Limited,Altium Designer,20.0.2 (26)*
G04*
G04 Layer_Physical_Order=3*
G04 Layer_Color=16440176*
%FSLAX25Y25*%
%MOIN*%
G70*
G01*
G75*
%ADD15C,0.00787*%
%ADD36C,0.03937*%
%ADD80C,0.06000*%
%ADD81C,0.06496*%
%ADD82O,0.15748X0.05906*%
%ADD85O,0.06299X0.10000*%
%ADD86C,0.05000*%
%ADD89C,0.01968*%
%ADD91R,0.21000X0.12500*%
G36*
X475065Y199588D02*
X474603Y199397D01*
X467500Y206500D01*
X458700D01*
X458382Y206887D01*
X458405Y207000D01*
X458298Y207538D01*
X457994Y207993D01*
X457538Y208298D01*
X457000Y208405D01*
X456462Y208298D01*
X456006Y207993D01*
X455702Y207538D01*
X455595Y207000D01*
X455618Y206887D01*
X455300Y206500D01*
X402000D01*
X388500Y193000D01*
Y146000D01*
X373000Y130500D01*
X99500D01*
X95852Y134148D01*
Y135613D01*
X96352Y135881D01*
X96726Y135631D01*
X97000Y135576D01*
Y137500D01*
Y139424D01*
X96726Y139369D01*
X96352Y139119D01*
X95852Y139387D01*
Y183148D01*
X89949Y189051D01*
X89994Y189507D01*
X90298Y189962D01*
X90405Y190500D01*
X90298Y191038D01*
X89993Y191493D01*
X89538Y191798D01*
X89000Y191905D01*
X88462Y191798D01*
X88007Y191493D01*
X87551Y191449D01*
X72000Y207000D01*
X13500D01*
X1775Y195275D01*
X1313Y195466D01*
Y313648D01*
X475065D01*
Y199588D01*
D02*
G37*
G36*
X466500Y187500D02*
Y1313D01*
X13981D01*
Y44341D01*
X14480Y44511D01*
X14920Y43939D01*
X15807Y43258D01*
X16840Y42830D01*
X17449Y42750D01*
Y46969D01*
Y51187D01*
X16840Y51107D01*
X15807Y50679D01*
X14920Y49998D01*
X14480Y49426D01*
X13981Y49596D01*
Y83711D01*
X14480Y83881D01*
X14920Y83309D01*
X15807Y82628D01*
X16840Y82200D01*
X17449Y82120D01*
Y86339D01*
Y90558D01*
X16840Y90478D01*
X15807Y90049D01*
X14920Y89368D01*
X14480Y88796D01*
X13981Y88966D01*
Y123081D01*
X14480Y123251D01*
X14920Y122679D01*
X15807Y121998D01*
X16840Y121570D01*
X17449Y121490D01*
Y125709D01*
Y129928D01*
X16840Y129848D01*
X15807Y129420D01*
X14920Y128739D01*
X14480Y128166D01*
X13981Y128336D01*
Y134402D01*
X14427Y134683D01*
X14480Y134681D01*
X15096Y133880D01*
X15931Y133238D01*
X16904Y132835D01*
X17449Y132764D01*
Y136732D01*
Y140701D01*
X16904Y140629D01*
X15931Y140226D01*
X15096Y139585D01*
X14480Y138783D01*
X14427Y138781D01*
X13981Y139063D01*
Y152907D01*
X14427Y153188D01*
X14480Y153185D01*
X15096Y152383D01*
X15932Y151742D01*
X16905Y151339D01*
X17449Y151268D01*
Y155236D01*
Y159205D01*
X16905Y159133D01*
X15932Y158730D01*
X15096Y158089D01*
X14480Y157287D01*
X14427Y157285D01*
X13981Y157565D01*
Y162756D01*
X14427Y163031D01*
X14480Y163029D01*
X15096Y162226D01*
X15932Y161585D01*
X16905Y161182D01*
X17449Y161110D01*
Y165079D01*
Y169047D01*
X16905Y168976D01*
X15932Y168573D01*
X15096Y167932D01*
X14480Y167129D01*
X14427Y167127D01*
X13981Y167402D01*
Y172591D01*
X14427Y172872D01*
X14480Y172871D01*
X15096Y172069D01*
X15931Y171427D01*
X16904Y171024D01*
X17449Y170953D01*
Y174921D01*
Y178890D01*
X16904Y178819D01*
X15931Y178416D01*
X15096Y177774D01*
X14480Y176972D01*
X14427Y176971D01*
X13981Y177252D01*
Y194187D01*
X16793Y197000D01*
X24792D01*
X25073Y196554D01*
X25071Y196500D01*
X24269Y195885D01*
X23628Y195049D01*
X23225Y194076D01*
X23153Y193532D01*
X27122D01*
X31090D01*
X31019Y194076D01*
X30616Y195049D01*
X29974Y195885D01*
X29173Y196500D01*
X29171Y196554D01*
X29452Y197000D01*
X34194D01*
X34202Y196962D01*
X34506Y196507D01*
X34962Y196202D01*
X35500Y196095D01*
X36038Y196202D01*
X36494Y196507D01*
X36798Y196962D01*
X36805Y197000D01*
X43693D01*
X43971Y196554D01*
X43969Y196500D01*
X43167Y195884D01*
X42525Y195049D01*
X42122Y194076D01*
X42051Y193532D01*
X46019D01*
X49988D01*
X49916Y194076D01*
X49513Y195049D01*
X48872Y195884D01*
X48070Y196500D01*
X48068Y196554D01*
X48346Y197000D01*
X62595D01*
X62869Y196554D01*
X62867Y196500D01*
X62064Y195884D01*
X61423Y195048D01*
X61020Y194075D01*
X60948Y193531D01*
X64917D01*
X68886D01*
X68814Y194075D01*
X68411Y195048D01*
X67770Y195884D01*
X66967Y196500D01*
X66965Y196554D01*
X67238Y197000D01*
X76500D01*
X79500Y194000D01*
Y168795D01*
X78726Y168641D01*
X78069Y168202D01*
X77631Y167546D01*
X77477Y166772D01*
X77631Y165997D01*
X78069Y165341D01*
X78726Y164902D01*
X79500Y164749D01*
Y46000D01*
X82500Y43000D01*
X100166D01*
X100265Y42500D01*
X99784Y42301D01*
X99097Y41774D01*
X98570Y41087D01*
X98239Y40287D01*
X98126Y39429D01*
X98239Y38571D01*
X98570Y37771D01*
X99097Y37085D01*
X99784Y36558D01*
X100584Y36226D01*
X101442Y36113D01*
X102300Y36226D01*
X103100Y36558D01*
X103787Y37085D01*
X104314Y37771D01*
X104645Y38571D01*
X104758Y39429D01*
X104645Y40287D01*
X104314Y41087D01*
X103787Y41774D01*
X103100Y42301D01*
X102619Y42500D01*
X102718Y43000D01*
X108264D01*
X108363Y42500D01*
X107923Y42318D01*
X107236Y41791D01*
X106709Y41104D01*
X106378Y40304D01*
X106265Y39446D01*
X106378Y38588D01*
X106709Y37788D01*
X107236Y37102D01*
X107923Y36575D01*
X108723Y36243D01*
X109581Y36130D01*
X110439Y36243D01*
X111239Y36575D01*
X111926Y37102D01*
X112452Y37788D01*
X112784Y38588D01*
X112897Y39446D01*
X112784Y40304D01*
X112452Y41104D01*
X111926Y41791D01*
X111239Y42318D01*
X110799Y42500D01*
X110898Y43000D01*
X116114D01*
X116213Y42500D01*
X115930Y42383D01*
X115243Y41856D01*
X114716Y41169D01*
X114385Y40369D01*
X114272Y39511D01*
X114385Y38653D01*
X114716Y37853D01*
X115243Y37167D01*
X115930Y36640D01*
X116730Y36308D01*
X117588Y36195D01*
X118446Y36308D01*
X119246Y36640D01*
X119933Y37167D01*
X120459Y37853D01*
X120791Y38653D01*
X120904Y39511D01*
X120791Y40369D01*
X120459Y41169D01*
X119933Y41856D01*
X119246Y42383D01*
X118963Y42500D01*
X119062Y43000D01*
X124319D01*
X124418Y42500D01*
X123937Y42301D01*
X123250Y41774D01*
X122723Y41087D01*
X122392Y40287D01*
X122279Y39429D01*
X122392Y38571D01*
X122723Y37771D01*
X123250Y37085D01*
X123937Y36558D01*
X124737Y36226D01*
X125595Y36113D01*
X126453Y36226D01*
X127253Y36558D01*
X127940Y37085D01*
X128466Y37771D01*
X128798Y38571D01*
X128911Y39429D01*
X128798Y40287D01*
X128466Y41087D01*
X127940Y41774D01*
X127253Y42301D01*
X126772Y42500D01*
X126871Y43000D01*
X181166D01*
X181265Y42500D01*
X180784Y42301D01*
X180097Y41774D01*
X179570Y41087D01*
X179239Y40287D01*
X179126Y39429D01*
X179239Y38571D01*
X179570Y37771D01*
X180097Y37085D01*
X180784Y36558D01*
X181584Y36226D01*
X182442Y36113D01*
X183300Y36226D01*
X184100Y36558D01*
X184787Y37085D01*
X185313Y37771D01*
X185645Y38571D01*
X185758Y39429D01*
X185645Y40287D01*
X185313Y41087D01*
X184787Y41774D01*
X184100Y42301D01*
X183619Y42500D01*
X183718Y43000D01*
X189264D01*
X189363Y42500D01*
X188923Y42318D01*
X188236Y41791D01*
X187709Y41104D01*
X187378Y40304D01*
X187265Y39446D01*
X187378Y38588D01*
X187709Y37788D01*
X188236Y37102D01*
X188923Y36575D01*
X189723Y36243D01*
X190581Y36130D01*
X191439Y36243D01*
X192239Y36575D01*
X192926Y37102D01*
X193453Y37788D01*
X193784Y38588D01*
X193897Y39446D01*
X193784Y40304D01*
X193453Y41104D01*
X192926Y41791D01*
X192239Y42318D01*
X191799Y42500D01*
X191898Y43000D01*
X197114D01*
X197213Y42500D01*
X196930Y42383D01*
X196243Y41856D01*
X195716Y41169D01*
X195385Y40369D01*
X195272Y39511D01*
X195385Y38653D01*
X195716Y37853D01*
X196243Y37167D01*
X196930Y36640D01*
X197730Y36308D01*
X198588Y36195D01*
X199446Y36308D01*
X200246Y36640D01*
X200933Y37167D01*
X201460Y37853D01*
X201791Y38653D01*
X201904Y39511D01*
X201791Y40369D01*
X201460Y41169D01*
X200933Y41856D01*
X200246Y42383D01*
X199963Y42500D01*
X200062Y43000D01*
X205319D01*
X205418Y42500D01*
X204937Y42301D01*
X204250Y41774D01*
X203723Y41087D01*
X203392Y40287D01*
X203279Y39429D01*
X203392Y38571D01*
X203723Y37771D01*
X204250Y37085D01*
X204937Y36558D01*
X205737Y36226D01*
X206595Y36113D01*
X207453Y36226D01*
X208253Y36558D01*
X208940Y37085D01*
X209467Y37771D01*
X209798Y38571D01*
X209911Y39429D01*
X209798Y40287D01*
X209467Y41087D01*
X208940Y41774D01*
X208253Y42301D01*
X207772Y42500D01*
X207871Y43000D01*
X258166D01*
X258265Y42500D01*
X257784Y42301D01*
X257097Y41774D01*
X256570Y41087D01*
X256239Y40287D01*
X256126Y39429D01*
X256239Y38571D01*
X256570Y37771D01*
X257097Y37085D01*
X257784Y36558D01*
X258584Y36226D01*
X259442Y36113D01*
X260300Y36226D01*
X261100Y36558D01*
X261787Y37085D01*
X262314Y37771D01*
X262645Y38571D01*
X262758Y39429D01*
X262645Y40287D01*
X262314Y41087D01*
X261787Y41774D01*
X261100Y42301D01*
X260619Y42500D01*
X260718Y43000D01*
X266264D01*
X266363Y42500D01*
X265923Y42318D01*
X265236Y41791D01*
X264709Y41104D01*
X264378Y40304D01*
X264265Y39446D01*
X264378Y38588D01*
X264709Y37788D01*
X265236Y37102D01*
X265923Y36575D01*
X266723Y36243D01*
X267581Y36130D01*
X268439Y36243D01*
X269239Y36575D01*
X269926Y37102D01*
X270452Y37788D01*
X270784Y38588D01*
X270897Y39446D01*
X270784Y40304D01*
X270452Y41104D01*
X269926Y41791D01*
X269239Y42318D01*
X268799Y42500D01*
X268898Y43000D01*
X274114D01*
X274213Y42500D01*
X273930Y42383D01*
X273243Y41856D01*
X272716Y41169D01*
X272385Y40369D01*
X272272Y39511D01*
X272385Y38653D01*
X272716Y37853D01*
X273243Y37167D01*
X273930Y36640D01*
X274730Y36308D01*
X275588Y36195D01*
X276446Y36308D01*
X277246Y36640D01*
X277933Y37167D01*
X278460Y37853D01*
X278791Y38653D01*
X278904Y39511D01*
X278791Y40369D01*
X278460Y41169D01*
X277933Y41856D01*
X277246Y42383D01*
X276963Y42500D01*
X277062Y43000D01*
X282319D01*
X282418Y42500D01*
X281937Y42301D01*
X281250Y41774D01*
X280723Y41087D01*
X280392Y40287D01*
X280279Y39429D01*
X280392Y38571D01*
X280723Y37771D01*
X281250Y37085D01*
X281937Y36558D01*
X282737Y36226D01*
X283595Y36113D01*
X284453Y36226D01*
X285253Y36558D01*
X285940Y37085D01*
X286467Y37771D01*
X286798Y38571D01*
X286911Y39429D01*
X286798Y40287D01*
X286467Y41087D01*
X285940Y41774D01*
X285253Y42301D01*
X284772Y42500D01*
X284871Y43000D01*
X336666D01*
X336765Y42500D01*
X336284Y42301D01*
X335597Y41774D01*
X335070Y41087D01*
X334739Y40287D01*
X334626Y39429D01*
X334739Y38571D01*
X335070Y37771D01*
X335597Y37085D01*
X336284Y36558D01*
X337084Y36226D01*
X337942Y36113D01*
X338800Y36226D01*
X339600Y36558D01*
X340287Y37085D01*
X340813Y37771D01*
X341145Y38571D01*
X341258Y39429D01*
X341145Y40287D01*
X340813Y41087D01*
X340287Y41774D01*
X339600Y42301D01*
X339119Y42500D01*
X339218Y43000D01*
X344764D01*
X344863Y42500D01*
X344423Y42318D01*
X343736Y41791D01*
X343209Y41104D01*
X342878Y40304D01*
X342765Y39446D01*
X342878Y38588D01*
X343209Y37788D01*
X343736Y37102D01*
X344423Y36575D01*
X345223Y36243D01*
X346081Y36130D01*
X346939Y36243D01*
X347739Y36575D01*
X348426Y37102D01*
X348953Y37788D01*
X349284Y38588D01*
X349397Y39446D01*
X349284Y40304D01*
X348953Y41104D01*
X348426Y41791D01*
X347739Y42318D01*
X347299Y42500D01*
X347398Y43000D01*
X352614D01*
X352713Y42500D01*
X352430Y42383D01*
X351743Y41856D01*
X351216Y41169D01*
X350885Y40369D01*
X350772Y39511D01*
X350885Y38653D01*
X351216Y37853D01*
X351743Y37167D01*
X352430Y36640D01*
X353230Y36308D01*
X354088Y36195D01*
X354946Y36308D01*
X355746Y36640D01*
X356433Y37167D01*
X356960Y37853D01*
X357291Y38653D01*
X357404Y39511D01*
X357291Y40369D01*
X356960Y41169D01*
X356433Y41856D01*
X355746Y42383D01*
X355463Y42500D01*
X355562Y43000D01*
X360819D01*
X360918Y42500D01*
X360437Y42301D01*
X359750Y41774D01*
X359223Y41087D01*
X358892Y40287D01*
X358779Y39429D01*
X358892Y38571D01*
X359223Y37771D01*
X359750Y37085D01*
X360437Y36558D01*
X361237Y36226D01*
X362095Y36113D01*
X362953Y36226D01*
X363753Y36558D01*
X364440Y37085D01*
X364967Y37771D01*
X365298Y38571D01*
X365411Y39429D01*
X365298Y40287D01*
X364967Y41087D01*
X364440Y41774D01*
X363753Y42301D01*
X363272Y42500D01*
X363371Y43000D01*
X390500D01*
X397500Y50000D01*
Y191201D01*
X405299Y199000D01*
X410173D01*
X410726Y198631D01*
X411500Y198477D01*
X412274Y198631D01*
X412827Y199000D01*
X428673D01*
X429226Y198631D01*
X430000Y198477D01*
X430774Y198631D01*
X431327Y199000D01*
X447173D01*
X447726Y198631D01*
X448500Y198477D01*
X449274Y198631D01*
X449827Y199000D01*
X455000D01*
X466500Y187500D01*
D02*
G37*
%LPC*%
G36*
X186500Y309424D02*
Y308000D01*
X187924D01*
X187869Y308274D01*
X187431Y308931D01*
X186774Y309369D01*
X186500Y309424D01*
D02*
G37*
G36*
X185500D02*
X185226Y309369D01*
X184569Y308931D01*
X184131Y308274D01*
X184076Y308000D01*
X185500D01*
Y309424D01*
D02*
G37*
G36*
X187924Y307000D02*
X186500D01*
Y305576D01*
X186774Y305631D01*
X187431Y306069D01*
X187869Y306726D01*
X187924Y307000D01*
D02*
G37*
G36*
X185500D02*
X184076D01*
X184131Y306726D01*
X184569Y306069D01*
X185226Y305631D01*
X185500Y305576D01*
Y307000D01*
D02*
G37*
G36*
X187000Y304424D02*
Y303000D01*
X188424D01*
X188369Y303274D01*
X187931Y303931D01*
X187274Y304369D01*
X187000Y304424D01*
D02*
G37*
G36*
X186000D02*
X185726Y304369D01*
X185069Y303931D01*
X184631Y303274D01*
X184576Y303000D01*
X186000D01*
Y304424D01*
D02*
G37*
G36*
X105500D02*
Y303000D01*
X106924D01*
X106869Y303274D01*
X106431Y303931D01*
X105774Y304369D01*
X105500Y304424D01*
D02*
G37*
G36*
X104500D02*
X104226Y304369D01*
X103569Y303931D01*
X103131Y303274D01*
X103076Y303000D01*
X104500D01*
Y304424D01*
D02*
G37*
G36*
X98000D02*
Y303000D01*
X99424D01*
X99369Y303274D01*
X98931Y303931D01*
X98274Y304369D01*
X98000Y304424D01*
D02*
G37*
G36*
X97000D02*
X96726Y304369D01*
X96069Y303931D01*
X95631Y303274D01*
X95576Y303000D01*
X97000D01*
Y304424D01*
D02*
G37*
G36*
X90500D02*
Y303000D01*
X91924D01*
X91869Y303274D01*
X91431Y303931D01*
X90774Y304369D01*
X90500Y304424D01*
D02*
G37*
G36*
X89500D02*
X89226Y304369D01*
X88569Y303931D01*
X88131Y303274D01*
X88076Y303000D01*
X89500D01*
Y304424D01*
D02*
G37*
G36*
X83000D02*
Y303000D01*
X84424D01*
X84369Y303274D01*
X83931Y303931D01*
X83274Y304369D01*
X83000Y304424D01*
D02*
G37*
G36*
X82000D02*
X81726Y304369D01*
X81069Y303931D01*
X80631Y303274D01*
X80576Y303000D01*
X82000D01*
Y304424D01*
D02*
G37*
G36*
X188424Y302000D02*
X187000D01*
Y300576D01*
X187274Y300631D01*
X187931Y301069D01*
X188369Y301726D01*
X188424Y302000D01*
D02*
G37*
G36*
X186000D02*
X184576D01*
X184631Y301726D01*
X185069Y301069D01*
X185726Y300631D01*
X186000Y300576D01*
Y302000D01*
D02*
G37*
G36*
X106924D02*
X105500D01*
Y300576D01*
X105774Y300631D01*
X106431Y301069D01*
X106869Y301726D01*
X106924Y302000D01*
D02*
G37*
G36*
X104500D02*
X103076D01*
X103131Y301726D01*
X103569Y301069D01*
X104226Y300631D01*
X104500Y300576D01*
Y302000D01*
D02*
G37*
G36*
X99424D02*
X98000D01*
Y300576D01*
X98274Y300631D01*
X98931Y301069D01*
X99369Y301726D01*
X99424Y302000D01*
D02*
G37*
G36*
X97000D02*
X95576D01*
X95631Y301726D01*
X96069Y301069D01*
X96726Y300631D01*
X97000Y300576D01*
Y302000D01*
D02*
G37*
G36*
X91924D02*
X90500D01*
Y300576D01*
X90774Y300631D01*
X91431Y301069D01*
X91869Y301726D01*
X91924Y302000D01*
D02*
G37*
G36*
X89500D02*
X88076D01*
X88131Y301726D01*
X88569Y301069D01*
X89226Y300631D01*
X89500Y300576D01*
Y302000D01*
D02*
G37*
G36*
X84424D02*
X83000D01*
Y300576D01*
X83274Y300631D01*
X83931Y301069D01*
X84369Y301726D01*
X84424Y302000D01*
D02*
G37*
G36*
X82000D02*
X80576D01*
X80631Y301726D01*
X81069Y301069D01*
X81726Y300631D01*
X82000Y300576D01*
Y302000D01*
D02*
G37*
G36*
X199500Y301424D02*
Y300000D01*
X200924D01*
X200869Y300274D01*
X200431Y300931D01*
X199774Y301369D01*
X199500Y301424D01*
D02*
G37*
G36*
X198500D02*
X198226Y301369D01*
X197569Y300931D01*
X197131Y300274D01*
X197076Y300000D01*
X198500D01*
Y301424D01*
D02*
G37*
G36*
X210500Y300924D02*
Y299500D01*
X211924D01*
X211869Y299774D01*
X211431Y300431D01*
X210774Y300869D01*
X210500Y300924D01*
D02*
G37*
G36*
X209500D02*
X209226Y300869D01*
X208569Y300431D01*
X208131Y299774D01*
X208076Y299500D01*
X209500D01*
Y300924D01*
D02*
G37*
G36*
X129000Y299424D02*
Y298000D01*
X130424D01*
X130369Y298274D01*
X129931Y298931D01*
X129274Y299369D01*
X129000Y299424D01*
D02*
G37*
G36*
X128000D02*
X127726Y299369D01*
X127069Y298931D01*
X126631Y298274D01*
X126576Y298000D01*
X128000D01*
Y299424D01*
D02*
G37*
G36*
X122000D02*
Y298000D01*
X123424D01*
X123369Y298274D01*
X122931Y298931D01*
X122274Y299369D01*
X122000Y299424D01*
D02*
G37*
G36*
X121000D02*
X120726Y299369D01*
X120069Y298931D01*
X119631Y298274D01*
X119576Y298000D01*
X121000D01*
Y299424D01*
D02*
G37*
G36*
X200924Y299000D02*
X199500D01*
Y297576D01*
X199774Y297631D01*
X200431Y298069D01*
X200869Y298726D01*
X200924Y299000D01*
D02*
G37*
G36*
X198500D02*
X197076D01*
X197131Y298726D01*
X197569Y298069D01*
X198226Y297631D01*
X198500Y297576D01*
Y299000D01*
D02*
G37*
G36*
X211924Y298500D02*
X210500D01*
Y297076D01*
X210774Y297131D01*
X211431Y297569D01*
X211869Y298226D01*
X211924Y298500D01*
D02*
G37*
G36*
X209500D02*
X208076D01*
X208131Y298226D01*
X208569Y297569D01*
X209226Y297131D01*
X209500Y297076D01*
Y298500D01*
D02*
G37*
G36*
X186500Y298905D02*
X185962Y298798D01*
X185506Y298493D01*
X185202Y298038D01*
X185095Y297500D01*
X185202Y296962D01*
X185506Y296507D01*
X185962Y296202D01*
X186500Y296095D01*
X187038Y296202D01*
X187494Y296507D01*
X187798Y296962D01*
X187905Y297500D01*
X187798Y298038D01*
X187494Y298493D01*
X187038Y298798D01*
X186500Y298905D01*
D02*
G37*
G36*
X224500Y297424D02*
Y296000D01*
X225924D01*
X225869Y296274D01*
X225431Y296931D01*
X224774Y297369D01*
X224500Y297424D01*
D02*
G37*
G36*
X223500D02*
X223226Y297369D01*
X222569Y296931D01*
X222131Y296274D01*
X222076Y296000D01*
X223500D01*
Y297424D01*
D02*
G37*
G36*
X219000D02*
Y296000D01*
X220424D01*
X220369Y296274D01*
X219931Y296931D01*
X219274Y297369D01*
X219000Y297424D01*
D02*
G37*
G36*
X218000D02*
X217726Y297369D01*
X217069Y296931D01*
X216631Y296274D01*
X216576Y296000D01*
X218000D01*
Y297424D01*
D02*
G37*
G36*
X130424Y297000D02*
X129000D01*
Y295576D01*
X129274Y295631D01*
X129931Y296069D01*
X130369Y296726D01*
X130424Y297000D01*
D02*
G37*
G36*
X128000D02*
X126576D01*
X126631Y296726D01*
X127069Y296069D01*
X127726Y295631D01*
X128000Y295576D01*
Y297000D01*
D02*
G37*
G36*
X123424D02*
X122000D01*
Y295576D01*
X122274Y295631D01*
X122931Y296069D01*
X123369Y296726D01*
X123424Y297000D01*
D02*
G37*
G36*
X121000D02*
X119576D01*
X119631Y296726D01*
X120069Y296069D01*
X120726Y295631D01*
X121000Y295576D01*
Y297000D01*
D02*
G37*
G36*
X225924Y295000D02*
X224500D01*
Y293576D01*
X224774Y293631D01*
X225431Y294069D01*
X225869Y294726D01*
X225924Y295000D01*
D02*
G37*
G36*
X223500D02*
X222076D01*
X222131Y294726D01*
X222569Y294069D01*
X223226Y293631D01*
X223500Y293576D01*
Y295000D01*
D02*
G37*
G36*
X220424D02*
X219000D01*
Y293576D01*
X219274Y293631D01*
X219931Y294069D01*
X220369Y294726D01*
X220424Y295000D01*
D02*
G37*
G36*
X218000D02*
X216576D01*
X216631Y294726D01*
X217069Y294069D01*
X217726Y293631D01*
X218000Y293576D01*
Y295000D01*
D02*
G37*
G36*
X151000Y294424D02*
Y293000D01*
X152424D01*
X152369Y293274D01*
X151931Y293931D01*
X151274Y294369D01*
X151000Y294424D01*
D02*
G37*
G36*
X150000D02*
X149726Y294369D01*
X149069Y293931D01*
X148631Y293274D01*
X148576Y293000D01*
X150000D01*
Y294424D01*
D02*
G37*
G36*
X98500D02*
Y293000D01*
X99924D01*
X99869Y293274D01*
X99431Y293931D01*
X98774Y294369D01*
X98500Y294424D01*
D02*
G37*
G36*
X97500D02*
X97226Y294369D01*
X96569Y293931D01*
X96131Y293274D01*
X96076Y293000D01*
X97500D01*
Y294424D01*
D02*
G37*
G36*
X91000D02*
Y293000D01*
X92424D01*
X92369Y293274D01*
X91931Y293931D01*
X91274Y294369D01*
X91000Y294424D01*
D02*
G37*
G36*
X90000D02*
X89726Y294369D01*
X89069Y293931D01*
X88631Y293274D01*
X88576Y293000D01*
X90000D01*
Y294424D01*
D02*
G37*
G36*
X83000D02*
Y293000D01*
X84424D01*
X84369Y293274D01*
X83931Y293931D01*
X83274Y294369D01*
X83000Y294424D01*
D02*
G37*
G36*
X82000D02*
X81726Y294369D01*
X81069Y293931D01*
X80631Y293274D01*
X80576Y293000D01*
X82000D01*
Y294424D01*
D02*
G37*
G36*
X105500Y293924D02*
Y292500D01*
X106924D01*
X106869Y292774D01*
X106431Y293431D01*
X105774Y293869D01*
X105500Y293924D01*
D02*
G37*
G36*
X104500D02*
X104226Y293869D01*
X103569Y293431D01*
X103131Y292774D01*
X103076Y292500D01*
X104500D01*
Y293924D01*
D02*
G37*
G36*
X152424Y292000D02*
X151000D01*
Y290576D01*
X151274Y290631D01*
X151931Y291069D01*
X152369Y291726D01*
X152424Y292000D01*
D02*
G37*
G36*
X150000D02*
X148576D01*
X148631Y291726D01*
X149069Y291069D01*
X149726Y290631D01*
X150000Y290576D01*
Y292000D01*
D02*
G37*
G36*
X99924D02*
X98500D01*
Y290576D01*
X98774Y290631D01*
X99431Y291069D01*
X99869Y291726D01*
X99924Y292000D01*
D02*
G37*
G36*
X97500D02*
X96076D01*
X96131Y291726D01*
X96569Y291069D01*
X97226Y290631D01*
X97500Y290576D01*
Y292000D01*
D02*
G37*
G36*
X92424D02*
X91000D01*
Y290576D01*
X91274Y290631D01*
X91931Y291069D01*
X92369Y291726D01*
X92424Y292000D01*
D02*
G37*
G36*
X90000D02*
X88576D01*
X88631Y291726D01*
X89069Y291069D01*
X89726Y290631D01*
X90000Y290576D01*
Y292000D01*
D02*
G37*
G36*
X84424D02*
X83000D01*
Y290576D01*
X83274Y290631D01*
X83931Y291069D01*
X84369Y291726D01*
X84424Y292000D01*
D02*
G37*
G36*
X82000D02*
X80576D01*
X80631Y291726D01*
X81069Y291069D01*
X81726Y290631D01*
X82000Y290576D01*
Y292000D01*
D02*
G37*
G36*
X106924Y291500D02*
X105500D01*
Y290076D01*
X105774Y290131D01*
X106431Y290569D01*
X106869Y291226D01*
X106924Y291500D01*
D02*
G37*
G36*
X104500D02*
X103076D01*
X103131Y291226D01*
X103569Y290569D01*
X104226Y290131D01*
X104500Y290076D01*
Y291500D01*
D02*
G37*
G36*
X129000Y289424D02*
Y288000D01*
X130424D01*
X130369Y288274D01*
X129931Y288931D01*
X129274Y289369D01*
X129000Y289424D01*
D02*
G37*
G36*
X128000D02*
X127726Y289369D01*
X127069Y288931D01*
X126631Y288274D01*
X126576Y288000D01*
X128000D01*
Y289424D01*
D02*
G37*
G36*
X122000D02*
Y288000D01*
X123424D01*
X123369Y288274D01*
X122931Y288931D01*
X122274Y289369D01*
X122000Y289424D01*
D02*
G37*
G36*
X121000D02*
X120726Y289369D01*
X120069Y288931D01*
X119631Y288274D01*
X119576Y288000D01*
X121000D01*
Y289424D01*
D02*
G37*
G36*
X130424Y287000D02*
X129000D01*
Y285576D01*
X129274Y285631D01*
X129931Y286069D01*
X130369Y286726D01*
X130424Y287000D01*
D02*
G37*
G36*
X128000D02*
X126576D01*
X126631Y286726D01*
X127069Y286069D01*
X127726Y285631D01*
X128000Y285576D01*
Y287000D01*
D02*
G37*
G36*
X123424D02*
X122000D01*
Y285576D01*
X122274Y285631D01*
X122931Y286069D01*
X123369Y286726D01*
X123424Y287000D01*
D02*
G37*
G36*
X121000D02*
X119576D01*
X119631Y286726D01*
X120069Y286069D01*
X120726Y285631D01*
X121000Y285576D01*
Y287000D01*
D02*
G37*
G36*
X61153Y288428D02*
X56732D01*
Y284941D01*
X65074D01*
X65004Y285473D01*
X64606Y286435D01*
X63973Y287261D01*
X63147Y287894D01*
X62185Y288292D01*
X61153Y288428D01*
D02*
G37*
G36*
X55732D02*
X51311D01*
X50279Y288292D01*
X49317Y287894D01*
X48492Y287261D01*
X47858Y286435D01*
X47460Y285473D01*
X47390Y284941D01*
X55732D01*
Y288428D01*
D02*
G37*
G36*
X65074Y283941D02*
X56732D01*
Y280454D01*
X61153D01*
X62185Y280590D01*
X63147Y280989D01*
X63973Y281622D01*
X64606Y282448D01*
X65004Y283410D01*
X65074Y283941D01*
D02*
G37*
G36*
X55732D02*
X47390D01*
X47460Y283410D01*
X47858Y282448D01*
X48492Y281622D01*
X49317Y280989D01*
X50279Y280590D01*
X51311Y280454D01*
X55732D01*
Y283941D01*
D02*
G37*
G36*
X151000Y275924D02*
Y274500D01*
X152424D01*
X152369Y274774D01*
X151931Y275431D01*
X151274Y275869D01*
X151000Y275924D01*
D02*
G37*
G36*
X150000D02*
X149726Y275869D01*
X149069Y275431D01*
X148631Y274774D01*
X148576Y274500D01*
X150000D01*
Y275924D01*
D02*
G37*
G36*
X152424Y273500D02*
X151000D01*
Y272076D01*
X151274Y272131D01*
X151931Y272569D01*
X152369Y273226D01*
X152424Y273500D01*
D02*
G37*
G36*
X150000D02*
X148576D01*
X148631Y273226D01*
X149069Y272569D01*
X149726Y272131D01*
X150000Y272076D01*
Y273500D01*
D02*
G37*
G36*
X300000Y272428D02*
Y270000D01*
X302428D01*
X302392Y270275D01*
X302093Y270997D01*
X301617Y271617D01*
X300997Y272093D01*
X300275Y272392D01*
X300000Y272428D01*
D02*
G37*
G36*
X299000D02*
X298725Y272392D01*
X298003Y272093D01*
X297383Y271617D01*
X296907Y270997D01*
X296608Y270275D01*
X296572Y270000D01*
X299000D01*
Y272428D01*
D02*
G37*
G36*
X351500Y270342D02*
X350962Y270235D01*
X350507Y269931D01*
X350202Y269475D01*
X350095Y268937D01*
X350202Y268399D01*
X350507Y267944D01*
X350962Y267639D01*
X351500Y267532D01*
X352038Y267639D01*
X352493Y267944D01*
X352798Y268399D01*
X352905Y268937D01*
X352798Y269475D01*
X352493Y269931D01*
X352038Y270235D01*
X351500Y270342D01*
D02*
G37*
G36*
X292256Y272256D02*
X286744D01*
Y266744D01*
X292256D01*
Y272256D01*
D02*
G37*
G36*
X302428Y269000D02*
X300000D01*
Y266572D01*
X300275Y266608D01*
X300997Y266907D01*
X301617Y267383D01*
X302093Y268003D01*
X302392Y268725D01*
X302428Y269000D01*
D02*
G37*
G36*
X299000D02*
X296572D01*
X296608Y268725D01*
X296907Y268003D01*
X297383Y267383D01*
X298003Y266907D01*
X298725Y266608D01*
X299000Y266572D01*
Y269000D01*
D02*
G37*
G36*
X385500Y267905D02*
X384962Y267798D01*
X384507Y267493D01*
X384202Y267038D01*
X384095Y266500D01*
X384202Y265962D01*
X384507Y265507D01*
X384962Y265202D01*
X385500Y265095D01*
X386038Y265202D01*
X386493Y265507D01*
X386798Y265962D01*
X386905Y266500D01*
X386798Y267038D01*
X386493Y267493D01*
X386038Y267798D01*
X385500Y267905D01*
D02*
G37*
G36*
X264228Y265695D02*
Y264272D01*
X265652D01*
X265598Y264546D01*
X265159Y265202D01*
X264503Y265641D01*
X264228Y265695D01*
D02*
G37*
G36*
X263228D02*
X262954Y265641D01*
X262298Y265202D01*
X261859Y264546D01*
X261805Y264272D01*
X263228D01*
Y265695D01*
D02*
G37*
G36*
X38636Y281440D02*
X37660Y281311D01*
X36750Y280935D01*
X35969Y280335D01*
X35369Y279554D01*
X34992Y278644D01*
X34864Y277668D01*
Y267825D01*
X34992Y266849D01*
X35369Y265939D01*
X35969Y265158D01*
X36750Y264558D01*
X37660Y264181D01*
X38636Y264053D01*
X39612Y264181D01*
X40522Y264558D01*
X41304Y265158D01*
X41903Y265939D01*
X42280Y266849D01*
X42409Y267825D01*
Y277668D01*
X42280Y278644D01*
X41903Y279554D01*
X41304Y280335D01*
X40522Y280935D01*
X39612Y281311D01*
X38636Y281440D01*
D02*
G37*
G36*
X392272Y265195D02*
Y263772D01*
X393695D01*
X393641Y264046D01*
X393202Y264702D01*
X392546Y265141D01*
X392272Y265195D01*
D02*
G37*
G36*
X391272D02*
X390997Y265141D01*
X390341Y264702D01*
X389902Y264046D01*
X389848Y263772D01*
X391272D01*
Y265195D01*
D02*
G37*
G36*
X276500Y264424D02*
Y263000D01*
X277924D01*
X277869Y263274D01*
X277431Y263931D01*
X276774Y264369D01*
X276500Y264424D01*
D02*
G37*
G36*
X275500D02*
X275226Y264369D01*
X274569Y263931D01*
X274131Y263274D01*
X274076Y263000D01*
X275500D01*
Y264424D01*
D02*
G37*
G36*
X210000Y284000D02*
X203000D01*
X200000Y281000D01*
Y264500D01*
X202500Y262000D01*
X211000D01*
X213000Y264000D01*
Y281000D01*
X210000Y284000D01*
D02*
G37*
G36*
X265652Y263272D02*
X264228D01*
Y261848D01*
X264503Y261902D01*
X265159Y262341D01*
X265598Y262997D01*
X265652Y263272D01*
D02*
G37*
G36*
X263228D02*
X261805D01*
X261859Y262997D01*
X262298Y262341D01*
X262954Y261902D01*
X263228Y261848D01*
Y263272D01*
D02*
G37*
G36*
X393695Y262772D02*
X392272D01*
Y261348D01*
X392546Y261403D01*
X393202Y261841D01*
X393641Y262497D01*
X393695Y262772D01*
D02*
G37*
G36*
X391272D02*
X389848D01*
X389902Y262497D01*
X390341Y261841D01*
X390997Y261403D01*
X391272Y261348D01*
Y262772D01*
D02*
G37*
G36*
X277924Y262000D02*
X276500D01*
Y260576D01*
X276774Y260631D01*
X277431Y261069D01*
X277869Y261726D01*
X277924Y262000D01*
D02*
G37*
G36*
X275500D02*
X274076D01*
X274131Y261726D01*
X274569Y261069D01*
X275226Y260631D01*
X275500Y260576D01*
Y262000D01*
D02*
G37*
G36*
X317000Y258924D02*
Y257500D01*
X318424D01*
X318369Y257774D01*
X317931Y258431D01*
X317274Y258869D01*
X317000Y258924D01*
D02*
G37*
G36*
X316000D02*
X315726Y258869D01*
X315069Y258431D01*
X314631Y257774D01*
X314576Y257500D01*
X316000D01*
Y258924D01*
D02*
G37*
G36*
X61284Y264506D02*
X51442D01*
X50466Y264377D01*
X49556Y264000D01*
X48774Y263401D01*
X48175Y262619D01*
X47798Y261710D01*
X47670Y260733D01*
X47798Y259757D01*
X48175Y258847D01*
X48774Y258066D01*
X49556Y257466D01*
X50466Y257089D01*
X51442Y256961D01*
X61284D01*
X62261Y257089D01*
X63171Y257466D01*
X63952Y258066D01*
X64551Y258847D01*
X64928Y259757D01*
X65057Y260733D01*
X64928Y261710D01*
X64551Y262619D01*
X63952Y263401D01*
X63171Y264000D01*
X62261Y264377D01*
X61284Y264506D01*
D02*
G37*
G36*
X454500Y264320D02*
X453511Y264190D01*
X452590Y263808D01*
X451799Y263201D01*
X451192Y262410D01*
X450810Y261489D01*
X450680Y260500D01*
X450810Y259511D01*
X451192Y258590D01*
X451799Y257799D01*
X452590Y257192D01*
X453511Y256810D01*
X454500Y256680D01*
X455489Y256810D01*
X456410Y257192D01*
X457201Y257799D01*
X457808Y258590D01*
X458190Y259511D01*
X458320Y260500D01*
X458190Y261489D01*
X457808Y262410D01*
X457201Y263201D01*
X456410Y263808D01*
X455489Y264190D01*
X454500Y264320D01*
D02*
G37*
G36*
X301669Y257593D02*
Y256169D01*
X303093D01*
X303038Y256444D01*
X302600Y257100D01*
X301943Y257538D01*
X301669Y257593D01*
D02*
G37*
G36*
X300669D02*
X300395Y257538D01*
X299739Y257100D01*
X299300Y256444D01*
X299246Y256169D01*
X300669D01*
Y257593D01*
D02*
G37*
G36*
X260236Y258641D02*
X259698Y258534D01*
X259243Y258229D01*
X258938Y257774D01*
X258831Y257236D01*
X258938Y256698D01*
X259243Y256242D01*
X259698Y255938D01*
X260236Y255831D01*
X260774Y255938D01*
X261229Y256242D01*
X261534Y256698D01*
X261641Y257236D01*
X261534Y257774D01*
X261229Y258229D01*
X260774Y258534D01*
X260236Y258641D01*
D02*
G37*
G36*
X286000Y257905D02*
X285462Y257798D01*
X285007Y257493D01*
X284702Y257038D01*
X284595Y256500D01*
X284702Y255962D01*
X285007Y255507D01*
X285462Y255202D01*
X286000Y255095D01*
X286538Y255202D01*
X286993Y255507D01*
X287298Y255962D01*
X287405Y256500D01*
X287298Y257038D01*
X286993Y257493D01*
X286538Y257798D01*
X286000Y257905D01*
D02*
G37*
G36*
X318424Y256500D02*
X317000D01*
Y255076D01*
X317274Y255131D01*
X317931Y255569D01*
X318369Y256226D01*
X318424Y256500D01*
D02*
G37*
G36*
X316000D02*
X314576D01*
X314631Y256226D01*
X315069Y255569D01*
X315726Y255131D01*
X316000Y255076D01*
Y256500D01*
D02*
G37*
G36*
X303093Y255169D02*
X301669D01*
Y253746D01*
X301943Y253800D01*
X302600Y254239D01*
X303038Y254895D01*
X303093Y255169D01*
D02*
G37*
G36*
X300669D02*
X299246D01*
X299300Y254895D01*
X299739Y254239D01*
X300395Y253800D01*
X300669Y253746D01*
Y255169D01*
D02*
G37*
G36*
X234500Y254924D02*
Y253500D01*
X235924D01*
X235869Y253774D01*
X235431Y254431D01*
X234774Y254869D01*
X234500Y254924D01*
D02*
G37*
G36*
X233500D02*
X233226Y254869D01*
X232569Y254431D01*
X232131Y253774D01*
X232076Y253500D01*
X233500D01*
Y254924D01*
D02*
G37*
G36*
X385500Y257905D02*
X384962Y257798D01*
X384507Y257493D01*
X384202Y257038D01*
X384095Y256500D01*
X384202Y255962D01*
X384507Y255507D01*
X384962Y255202D01*
X385500Y255095D01*
X386038Y255202D01*
X386050Y255210D01*
X386411Y254850D01*
X386202Y254538D01*
X386095Y254000D01*
X386202Y253462D01*
X386507Y253007D01*
X386962Y252702D01*
X387500Y252595D01*
X388038Y252702D01*
X388493Y253007D01*
X388798Y253462D01*
X388905Y254000D01*
X388798Y254538D01*
X388493Y254993D01*
X388038Y255298D01*
X387500Y255405D01*
X386962Y255298D01*
X386950Y255290D01*
X386589Y255650D01*
X386798Y255962D01*
X386905Y256500D01*
X386798Y257038D01*
X386493Y257493D01*
X386038Y257798D01*
X385500Y257905D01*
D02*
G37*
G36*
X114500Y253924D02*
Y252500D01*
X115924D01*
X115869Y252774D01*
X115431Y253431D01*
X114774Y253869D01*
X114500Y253924D01*
D02*
G37*
G36*
X113500D02*
X113226Y253869D01*
X112569Y253431D01*
X112131Y252774D01*
X112076Y252500D01*
X113500D01*
Y253924D01*
D02*
G37*
G36*
X89000D02*
Y252500D01*
X90424D01*
X90369Y252774D01*
X89931Y253431D01*
X89274Y253869D01*
X89000Y253924D01*
D02*
G37*
G36*
X88000D02*
X87726Y253869D01*
X87069Y253431D01*
X86631Y252774D01*
X86576Y252500D01*
X88000D01*
Y253924D01*
D02*
G37*
G36*
X81000D02*
Y252500D01*
X82424D01*
X82369Y252774D01*
X81931Y253431D01*
X81274Y253869D01*
X81000Y253924D01*
D02*
G37*
G36*
X80000D02*
X79726Y253869D01*
X79069Y253431D01*
X78631Y252774D01*
X78576Y252500D01*
X80000D01*
Y253924D01*
D02*
G37*
G36*
X273272Y254905D02*
X272734Y254798D01*
X272278Y254493D01*
X271974Y254038D01*
X271867Y253500D01*
X271974Y252962D01*
X272278Y252507D01*
X272734Y252202D01*
X273272Y252095D01*
X273809Y252202D01*
X274265Y252507D01*
X274570Y252962D01*
X274677Y253500D01*
X274570Y254038D01*
X274265Y254493D01*
X273809Y254798D01*
X273272Y254905D01*
D02*
G37*
G36*
X203000Y253424D02*
Y252000D01*
X204424D01*
X204369Y252274D01*
X203931Y252931D01*
X203274Y253369D01*
X203000Y253424D01*
D02*
G37*
G36*
X202000D02*
X201726Y253369D01*
X201069Y252931D01*
X200631Y252274D01*
X200576Y252000D01*
X202000D01*
Y253424D01*
D02*
G37*
G36*
X179500D02*
Y252000D01*
X180924D01*
X180869Y252274D01*
X180431Y252931D01*
X179774Y253369D01*
X179500Y253424D01*
D02*
G37*
G36*
X178500D02*
X178226Y253369D01*
X177569Y252931D01*
X177131Y252274D01*
X177076Y252000D01*
X178500D01*
Y253424D01*
D02*
G37*
G36*
X294500Y252924D02*
Y251500D01*
X295924D01*
X295869Y251774D01*
X295431Y252431D01*
X294774Y252869D01*
X294500Y252924D01*
D02*
G37*
G36*
X293500D02*
X293226Y252869D01*
X292569Y252431D01*
X292131Y251774D01*
X292076Y251500D01*
X293500D01*
Y252924D01*
D02*
G37*
G36*
X235924Y252500D02*
X234500D01*
Y251076D01*
X234774Y251131D01*
X235431Y251569D01*
X235869Y252226D01*
X235924Y252500D01*
D02*
G37*
G36*
X233500D02*
X232076D01*
X232131Y252226D01*
X232569Y251569D01*
X233226Y251131D01*
X233500Y251076D01*
Y252500D01*
D02*
G37*
G36*
X280228Y252424D02*
Y251000D01*
X281652D01*
X281597Y251274D01*
X281159Y251931D01*
X280503Y252369D01*
X280228Y252424D01*
D02*
G37*
G36*
X279228D02*
X278954Y252369D01*
X278298Y251931D01*
X277859Y251274D01*
X277805Y251000D01*
X279228D01*
Y252424D01*
D02*
G37*
G36*
X225000D02*
Y251000D01*
X226424D01*
X226369Y251274D01*
X225931Y251931D01*
X225274Y252369D01*
X225000Y252424D01*
D02*
G37*
G36*
X224000D02*
X223726Y252369D01*
X223069Y251931D01*
X222631Y251274D01*
X222576Y251000D01*
X224000D01*
Y252424D01*
D02*
G37*
G36*
X158500Y251924D02*
Y250500D01*
X159924D01*
X159869Y250774D01*
X159431Y251431D01*
X158774Y251869D01*
X158500Y251924D01*
D02*
G37*
G36*
X157500D02*
X157226Y251869D01*
X156569Y251431D01*
X156131Y250774D01*
X156076Y250500D01*
X157500D01*
Y251924D01*
D02*
G37*
G36*
X390000Y252905D02*
X389462Y252798D01*
X389007Y252493D01*
X388702Y252038D01*
X388595Y251500D01*
X388702Y250962D01*
X389007Y250507D01*
X389462Y250202D01*
X390000Y250095D01*
X390538Y250202D01*
X390993Y250507D01*
X391298Y250962D01*
X391405Y251500D01*
X391298Y252038D01*
X390993Y252493D01*
X390538Y252798D01*
X390000Y252905D01*
D02*
G37*
G36*
X115924Y251500D02*
X114500D01*
Y250076D01*
X114774Y250131D01*
X115431Y250569D01*
X115869Y251226D01*
X115924Y251500D01*
D02*
G37*
G36*
X113500D02*
X112076D01*
X112131Y251226D01*
X112569Y250569D01*
X113226Y250131D01*
X113500Y250076D01*
Y251500D01*
D02*
G37*
G36*
X90424D02*
X89000D01*
Y250076D01*
X89274Y250131D01*
X89931Y250569D01*
X90369Y251226D01*
X90424Y251500D01*
D02*
G37*
G36*
X88000D02*
X86576D01*
X86631Y251226D01*
X87069Y250569D01*
X87726Y250131D01*
X88000Y250076D01*
Y251500D01*
D02*
G37*
G36*
X82424D02*
X81000D01*
Y250076D01*
X81274Y250131D01*
X81931Y250569D01*
X82369Y251226D01*
X82424Y251500D01*
D02*
G37*
G36*
X80000D02*
X78576D01*
X78631Y251226D01*
X79069Y250569D01*
X79726Y250131D01*
X80000Y250076D01*
Y251500D01*
D02*
G37*
G36*
X204424Y251000D02*
X203000D01*
Y249576D01*
X203274Y249631D01*
X203931Y250069D01*
X204369Y250726D01*
X204424Y251000D01*
D02*
G37*
G36*
X202000D02*
X200576D01*
X200631Y250726D01*
X201069Y250069D01*
X201726Y249631D01*
X202000Y249576D01*
Y251000D01*
D02*
G37*
G36*
X180924D02*
X179500D01*
Y249576D01*
X179774Y249631D01*
X180431Y250069D01*
X180869Y250726D01*
X180924Y251000D01*
D02*
G37*
G36*
X178500D02*
X177076D01*
X177131Y250726D01*
X177569Y250069D01*
X178226Y249631D01*
X178500Y249576D01*
Y251000D01*
D02*
G37*
G36*
X295924Y250500D02*
X294500D01*
Y249076D01*
X294774Y249131D01*
X295431Y249569D01*
X295869Y250226D01*
X295924Y250500D01*
D02*
G37*
G36*
X293500D02*
X292076D01*
X292131Y250226D01*
X292569Y249569D01*
X293226Y249131D01*
X293500Y249076D01*
Y250500D01*
D02*
G37*
G36*
X281652Y250000D02*
X280228D01*
Y248576D01*
X280503Y248631D01*
X281159Y249069D01*
X281597Y249726D01*
X281652Y250000D01*
D02*
G37*
G36*
X279228D02*
X277805D01*
X277859Y249726D01*
X278298Y249069D01*
X278954Y248631D01*
X279228Y248576D01*
Y250000D01*
D02*
G37*
G36*
X226424D02*
X225000D01*
Y248576D01*
X225274Y248631D01*
X225931Y249069D01*
X226369Y249726D01*
X226424Y250000D01*
D02*
G37*
G36*
X224000D02*
X222576D01*
X222631Y249726D01*
X223069Y249069D01*
X223726Y248631D01*
X224000Y248576D01*
Y250000D01*
D02*
G37*
G36*
X159924Y249500D02*
X158500D01*
Y248076D01*
X158774Y248131D01*
X159431Y248569D01*
X159869Y249226D01*
X159924Y249500D01*
D02*
G37*
G36*
X157500D02*
X156076D01*
X156131Y249226D01*
X156569Y248569D01*
X157226Y248131D01*
X157500Y248076D01*
Y249500D01*
D02*
G37*
G36*
X418000Y248424D02*
Y247000D01*
X419424D01*
X419369Y247274D01*
X418931Y247931D01*
X418274Y248369D01*
X418000Y248424D01*
D02*
G37*
G36*
X417000D02*
X416726Y248369D01*
X416069Y247931D01*
X415631Y247274D01*
X415576Y247000D01*
X417000D01*
Y248424D01*
D02*
G37*
G36*
X454500Y254320D02*
X453511Y254190D01*
X452590Y253808D01*
X451799Y253201D01*
X451192Y252410D01*
X450810Y251489D01*
X450680Y250500D01*
X450810Y249511D01*
X451192Y248590D01*
X451799Y247799D01*
X452590Y247192D01*
X453511Y246810D01*
X454500Y246680D01*
X455489Y246810D01*
X456410Y247192D01*
X457201Y247799D01*
X457808Y248590D01*
X458190Y249511D01*
X458320Y250500D01*
X458190Y251489D01*
X457808Y252410D01*
X457201Y253201D01*
X456410Y253808D01*
X455489Y254190D01*
X454500Y254320D01*
D02*
G37*
G36*
X392500Y249405D02*
X391962Y249298D01*
X391507Y248993D01*
X391202Y248538D01*
X391095Y248000D01*
X391202Y247462D01*
X391507Y247007D01*
X391962Y246702D01*
X392500Y246595D01*
X393038Y246702D01*
X393493Y247007D01*
X393798Y247462D01*
X393905Y248000D01*
X393798Y248538D01*
X393493Y248993D01*
X393038Y249298D01*
X392500Y249405D01*
D02*
G37*
G36*
X286000Y247905D02*
X285462Y247798D01*
X285007Y247493D01*
X284702Y247038D01*
X284595Y246500D01*
X284702Y245962D01*
X285007Y245507D01*
X285462Y245202D01*
X286000Y245095D01*
X286538Y245202D01*
X286993Y245507D01*
X287298Y245962D01*
X287405Y246500D01*
X287298Y247038D01*
X286993Y247493D01*
X286538Y247798D01*
X286000Y247905D01*
D02*
G37*
G36*
X419424Y246000D02*
X418000D01*
Y244576D01*
X418274Y244631D01*
X418931Y245069D01*
X419369Y245726D01*
X419424Y246000D01*
D02*
G37*
G36*
X417000D02*
X415576D01*
X415631Y245726D01*
X416069Y245069D01*
X416726Y244631D01*
X417000Y244576D01*
Y246000D01*
D02*
G37*
G36*
X394500Y246680D02*
X393962Y246574D01*
X393507Y246269D01*
X393202Y245813D01*
X393095Y245276D01*
X393202Y244738D01*
X393507Y244282D01*
X393962Y243978D01*
X394500Y243871D01*
X395038Y243978D01*
X395493Y244282D01*
X395798Y244738D01*
X395905Y245276D01*
X395798Y245813D01*
X395493Y246269D01*
X395038Y246574D01*
X394500Y246680D01*
D02*
G37*
G36*
X276500Y245905D02*
X275962Y245798D01*
X275507Y245493D01*
X275202Y245038D01*
X275095Y244500D01*
X275202Y243962D01*
X275507Y243507D01*
X275962Y243202D01*
X276500Y243095D01*
X277038Y243202D01*
X277493Y243507D01*
X277798Y243962D01*
X277905Y244500D01*
X277798Y245038D01*
X277493Y245493D01*
X277038Y245798D01*
X276500Y245905D01*
D02*
G37*
G36*
X26000Y243424D02*
Y242000D01*
X27424D01*
X27369Y242274D01*
X26931Y242931D01*
X26274Y243369D01*
X26000Y243424D01*
D02*
G37*
G36*
X25000D02*
X24726Y243369D01*
X24069Y242931D01*
X23631Y242274D01*
X23576Y242000D01*
X25000D01*
Y243424D01*
D02*
G37*
G36*
X455000Y244469D02*
Y241000D01*
X458469D01*
X458397Y241544D01*
X457994Y242517D01*
X457353Y243353D01*
X456517Y243994D01*
X455544Y244397D01*
X455000Y244469D01*
D02*
G37*
G36*
X454000D02*
X453456Y244397D01*
X452483Y243994D01*
X451647Y243353D01*
X451006Y242517D01*
X450603Y241544D01*
X450531Y241000D01*
X454000D01*
Y244469D01*
D02*
G37*
G36*
X309000Y241924D02*
Y240500D01*
X310424D01*
X310369Y240774D01*
X309931Y241431D01*
X309274Y241869D01*
X309000Y241924D01*
D02*
G37*
G36*
X308000D02*
X307726Y241869D01*
X307069Y241431D01*
X306631Y240774D01*
X306576Y240500D01*
X308000D01*
Y241924D01*
D02*
G37*
G36*
X234500Y241424D02*
Y240000D01*
X235924D01*
X235869Y240274D01*
X235431Y240931D01*
X234774Y241369D01*
X234500Y241424D01*
D02*
G37*
G36*
X233500D02*
X233226Y241369D01*
X232569Y240931D01*
X232131Y240274D01*
X232076Y240000D01*
X233500D01*
Y241424D01*
D02*
G37*
G36*
X27424Y241000D02*
X26000D01*
Y239576D01*
X26274Y239631D01*
X26931Y240069D01*
X27369Y240726D01*
X27424Y241000D01*
D02*
G37*
G36*
X25000D02*
X23576D01*
X23631Y240726D01*
X24069Y240069D01*
X24726Y239631D01*
X25000Y239576D01*
Y241000D01*
D02*
G37*
G36*
X392500Y241405D02*
X391962Y241298D01*
X391507Y240993D01*
X391202Y240538D01*
X391095Y240000D01*
X391202Y239462D01*
X391507Y239007D01*
X391962Y238702D01*
X392500Y238595D01*
X393038Y238702D01*
X393493Y239007D01*
X393798Y239462D01*
X393905Y240000D01*
X393798Y240538D01*
X393493Y240993D01*
X393038Y241298D01*
X392500Y241405D01*
D02*
G37*
G36*
X276500Y240905D02*
X275962Y240798D01*
X275507Y240493D01*
X275202Y240038D01*
X275095Y239500D01*
X275202Y238962D01*
X275507Y238507D01*
X275962Y238202D01*
X276500Y238095D01*
X277038Y238202D01*
X277493Y238507D01*
X277798Y238962D01*
X277905Y239500D01*
X277798Y240038D01*
X277493Y240493D01*
X277038Y240798D01*
X276500Y240905D01*
D02*
G37*
G36*
X310424Y239500D02*
X309000D01*
Y238076D01*
X309274Y238131D01*
X309931Y238569D01*
X310369Y239226D01*
X310424Y239500D01*
D02*
G37*
G36*
X308000D02*
X306576D01*
X306631Y239226D01*
X307069Y238569D01*
X307726Y238131D01*
X308000Y238076D01*
Y239500D01*
D02*
G37*
G36*
X235924Y239000D02*
X234500D01*
Y237576D01*
X234774Y237631D01*
X235431Y238069D01*
X235869Y238726D01*
X235924Y239000D01*
D02*
G37*
G36*
X233500D02*
X232076D01*
X232131Y238726D01*
X232569Y238069D01*
X233226Y237631D01*
X233500Y237576D01*
Y239000D01*
D02*
G37*
G36*
X458469Y240000D02*
X455000D01*
Y236531D01*
X455544Y236603D01*
X456517Y237006D01*
X457353Y237647D01*
X457994Y238483D01*
X458397Y239456D01*
X458469Y240000D01*
D02*
G37*
G36*
X454000D02*
X450531D01*
X450603Y239456D01*
X451006Y238483D01*
X451647Y237647D01*
X452483Y237006D01*
X453456Y236603D01*
X454000Y236531D01*
Y240000D01*
D02*
G37*
G36*
X374500Y236424D02*
Y235000D01*
X375924D01*
X375869Y235274D01*
X375431Y235931D01*
X374774Y236369D01*
X374500Y236424D01*
D02*
G37*
G36*
X373500D02*
X373226Y236369D01*
X372569Y235931D01*
X372131Y235274D01*
X372076Y235000D01*
X373500D01*
Y236424D01*
D02*
G37*
G36*
X438000Y235924D02*
Y234500D01*
X439424D01*
X439369Y234774D01*
X438931Y235431D01*
X438274Y235869D01*
X438000Y235924D01*
D02*
G37*
G36*
X437000D02*
X436726Y235869D01*
X436069Y235431D01*
X435631Y234774D01*
X435576Y234500D01*
X437000D01*
Y235924D01*
D02*
G37*
G36*
X406272Y237177D02*
X405734Y237070D01*
X405278Y236765D01*
X404974Y236309D01*
X404867Y235772D01*
X404974Y235234D01*
X405278Y234778D01*
X405734Y234474D01*
X406272Y234367D01*
X406809Y234474D01*
X407265Y234778D01*
X407570Y235234D01*
X407677Y235772D01*
X407570Y236309D01*
X407265Y236765D01*
X406809Y237070D01*
X406272Y237177D01*
D02*
G37*
G36*
X258500Y235424D02*
Y234000D01*
X259924D01*
X259869Y234274D01*
X259431Y234931D01*
X258774Y235369D01*
X258500Y235424D01*
D02*
G37*
G36*
X257500D02*
X257226Y235369D01*
X256569Y234931D01*
X256131Y234274D01*
X256076Y234000D01*
X257500D01*
Y235424D01*
D02*
G37*
G36*
X97500Y234924D02*
Y233500D01*
X98924D01*
X98869Y233774D01*
X98431Y234431D01*
X97774Y234869D01*
X97500Y234924D01*
D02*
G37*
G36*
X96500D02*
X96226Y234869D01*
X95569Y234431D01*
X95131Y233774D01*
X95076Y233500D01*
X96500D01*
Y234924D01*
D02*
G37*
G36*
X363500Y235905D02*
X362962Y235798D01*
X362507Y235493D01*
X362202Y235038D01*
X362095Y234500D01*
X362202Y233962D01*
X362507Y233507D01*
X362962Y233202D01*
X363500Y233095D01*
X364038Y233202D01*
X364493Y233507D01*
X364798Y233962D01*
X364905Y234500D01*
X364798Y235038D01*
X364493Y235493D01*
X364038Y235798D01*
X363500Y235905D01*
D02*
G37*
G36*
X63500Y234424D02*
Y233000D01*
X64924D01*
X64869Y233274D01*
X64431Y233931D01*
X63774Y234369D01*
X63500Y234424D01*
D02*
G37*
G36*
X62500D02*
X62226Y234369D01*
X61569Y233931D01*
X61131Y233274D01*
X61076Y233000D01*
X62500D01*
Y234424D01*
D02*
G37*
G36*
X396000Y235405D02*
X395462Y235298D01*
X395007Y234993D01*
X394702Y234538D01*
X394595Y234000D01*
X394702Y233462D01*
X395007Y233007D01*
X395462Y232702D01*
X396000Y232595D01*
X396538Y232702D01*
X396993Y233007D01*
X397298Y233462D01*
X397405Y234000D01*
X397298Y234538D01*
X396993Y234993D01*
X396538Y235298D01*
X396000Y235405D01*
D02*
G37*
G36*
X375924Y234000D02*
X374500D01*
Y232576D01*
X374774Y232631D01*
X375431Y233069D01*
X375869Y233726D01*
X375924Y234000D01*
D02*
G37*
G36*
X373500D02*
X372076D01*
X372131Y233726D01*
X372569Y233069D01*
X373226Y232631D01*
X373500Y232576D01*
Y234000D01*
D02*
G37*
G36*
X439424Y233500D02*
X438000D01*
Y232076D01*
X438274Y232131D01*
X438931Y232569D01*
X439369Y233226D01*
X439424Y233500D01*
D02*
G37*
G36*
X437000D02*
X435576D01*
X435631Y233226D01*
X436069Y232569D01*
X436726Y232131D01*
X437000Y232076D01*
Y233500D01*
D02*
G37*
G36*
X203500Y233424D02*
Y232000D01*
X204924D01*
X204869Y232274D01*
X204431Y232931D01*
X203774Y233369D01*
X203500Y233424D01*
D02*
G37*
G36*
X202500D02*
X202226Y233369D01*
X201569Y232931D01*
X201131Y232274D01*
X201076Y232000D01*
X202500D01*
Y233424D01*
D02*
G37*
G36*
X259924Y233000D02*
X258500D01*
Y231576D01*
X258774Y231631D01*
X259431Y232069D01*
X259869Y232726D01*
X259924Y233000D01*
D02*
G37*
G36*
X257500D02*
X256076D01*
X256131Y232726D01*
X256569Y232069D01*
X257226Y231631D01*
X257500Y231576D01*
Y233000D01*
D02*
G37*
G36*
X98924Y232500D02*
X97500D01*
Y231076D01*
X97774Y231131D01*
X98431Y231569D01*
X98869Y232226D01*
X98924Y232500D01*
D02*
G37*
G36*
X96500D02*
X95076D01*
X95131Y232226D01*
X95569Y231569D01*
X96226Y231131D01*
X96500Y231076D01*
Y232500D01*
D02*
G37*
G36*
X302000Y232424D02*
Y231000D01*
X303424D01*
X303369Y231274D01*
X302931Y231931D01*
X302274Y232369D01*
X302000Y232424D01*
D02*
G37*
G36*
X301000D02*
X300726Y232369D01*
X300069Y231931D01*
X299631Y231274D01*
X299576Y231000D01*
X301000D01*
Y232424D01*
D02*
G37*
G36*
X399228Y233633D02*
X398691Y233526D01*
X398235Y233222D01*
X397930Y232766D01*
X397823Y232228D01*
X397930Y231691D01*
X398235Y231235D01*
X398691Y230930D01*
X399228Y230823D01*
X399766Y230930D01*
X400222Y231235D01*
X400526Y231691D01*
X400633Y232228D01*
X400526Y232766D01*
X400222Y233222D01*
X399766Y233526D01*
X399228Y233633D01*
D02*
G37*
G36*
X64924Y232000D02*
X63500D01*
Y230576D01*
X63774Y230631D01*
X64431Y231069D01*
X64869Y231726D01*
X64924Y232000D01*
D02*
G37*
G36*
X62500D02*
X61076D01*
X61131Y231726D01*
X61569Y231069D01*
X62226Y230631D01*
X62500Y230576D01*
Y232000D01*
D02*
G37*
G36*
X170000Y231424D02*
Y230000D01*
X171424D01*
X171369Y230274D01*
X170931Y230931D01*
X170274Y231369D01*
X170000Y231424D01*
D02*
G37*
G36*
X169000D02*
X168726Y231369D01*
X168069Y230931D01*
X167631Y230274D01*
X167576Y230000D01*
X169000D01*
Y231424D01*
D02*
G37*
G36*
X204924Y231000D02*
X203500D01*
Y229576D01*
X203774Y229631D01*
X204431Y230069D01*
X204869Y230726D01*
X204924Y231000D01*
D02*
G37*
G36*
X202500D02*
X201076D01*
X201131Y230726D01*
X201569Y230069D01*
X202226Y229631D01*
X202500Y229576D01*
Y231000D01*
D02*
G37*
G36*
X339000Y230424D02*
Y229000D01*
X340424D01*
X340369Y229274D01*
X339931Y229931D01*
X339274Y230369D01*
X339000Y230424D01*
D02*
G37*
G36*
X338000D02*
X337726Y230369D01*
X337069Y229931D01*
X336631Y229274D01*
X336576Y229000D01*
X338000D01*
Y230424D01*
D02*
G37*
G36*
X303424Y230000D02*
X302000D01*
Y228576D01*
X302274Y228631D01*
X302931Y229069D01*
X303369Y229726D01*
X303424Y230000D01*
D02*
G37*
G36*
X301000D02*
X299576D01*
X299631Y229726D01*
X300069Y229069D01*
X300726Y228631D01*
X301000Y228576D01*
Y230000D01*
D02*
G37*
G36*
X151228Y230677D02*
X150691Y230570D01*
X150235Y230265D01*
X149930Y229809D01*
X149823Y229272D01*
X149930Y228734D01*
X150235Y228278D01*
X150691Y227974D01*
X151228Y227867D01*
X151766Y227974D01*
X152222Y228278D01*
X152526Y228734D01*
X152633Y229272D01*
X152526Y229809D01*
X152222Y230265D01*
X151766Y230570D01*
X151228Y230677D01*
D02*
G37*
G36*
X171424Y229000D02*
X170000D01*
Y227576D01*
X170274Y227631D01*
X170931Y228069D01*
X171369Y228726D01*
X171424Y229000D01*
D02*
G37*
G36*
X169000D02*
X167576D01*
X167631Y228726D01*
X168069Y228069D01*
X168726Y227631D01*
X169000Y227576D01*
Y229000D01*
D02*
G37*
G36*
X294500Y228924D02*
Y227500D01*
X295924D01*
X295869Y227774D01*
X295431Y228431D01*
X294774Y228869D01*
X294500Y228924D01*
D02*
G37*
G36*
X293500D02*
X293226Y228869D01*
X292569Y228431D01*
X292131Y227774D01*
X292076Y227500D01*
X293500D01*
Y228924D01*
D02*
G37*
G36*
X340424Y228000D02*
X339000D01*
Y226576D01*
X339274Y226631D01*
X339931Y227069D01*
X340369Y227726D01*
X340424Y228000D01*
D02*
G37*
G36*
X338000D02*
X336576D01*
X336631Y227726D01*
X337069Y227069D01*
X337726Y226631D01*
X338000Y226576D01*
Y228000D01*
D02*
G37*
G36*
X364000Y228905D02*
X363462Y228798D01*
X363007Y228493D01*
X362702Y228038D01*
X362595Y227500D01*
X362702Y226962D01*
X363007Y226507D01*
X363462Y226202D01*
X364000Y226095D01*
X364538Y226202D01*
X364993Y226507D01*
X365298Y226962D01*
X365405Y227500D01*
X365298Y228038D01*
X364993Y228493D01*
X364538Y228798D01*
X364000Y228905D01*
D02*
G37*
G36*
X295924Y226500D02*
X294500D01*
Y225076D01*
X294774Y225131D01*
X295431Y225569D01*
X295869Y226226D01*
X295924Y226500D01*
D02*
G37*
G36*
X293500D02*
X292076D01*
X292131Y226226D01*
X292569Y225569D01*
X293226Y225131D01*
X293500Y225076D01*
Y226500D01*
D02*
G37*
G36*
X194500Y225405D02*
X193962Y225298D01*
X193507Y224993D01*
X193202Y224538D01*
X193095Y224000D01*
X193202Y223462D01*
X193507Y223007D01*
X193962Y222702D01*
X194500Y222595D01*
X195038Y222702D01*
X195493Y223007D01*
X195798Y223462D01*
X195905Y224000D01*
X195798Y224538D01*
X195493Y224993D01*
X195038Y225298D01*
X194500Y225405D01*
D02*
G37*
G36*
X282539Y223463D02*
Y222039D01*
X283963D01*
X283909Y222314D01*
X283470Y222970D01*
X282814Y223409D01*
X282539Y223463D01*
D02*
G37*
G36*
X281539D02*
X281265Y223409D01*
X280609Y222970D01*
X280170Y222314D01*
X280116Y222039D01*
X281539D01*
Y223463D01*
D02*
G37*
G36*
X378250Y223174D02*
Y221750D01*
X379674D01*
X379619Y222024D01*
X379181Y222681D01*
X378524Y223119D01*
X378250Y223174D01*
D02*
G37*
G36*
X377250D02*
X376976Y223119D01*
X376319Y222681D01*
X375881Y222024D01*
X375826Y221750D01*
X377250D01*
Y223174D01*
D02*
G37*
G36*
X338772Y222195D02*
Y220772D01*
X340195D01*
X340141Y221046D01*
X339702Y221702D01*
X339046Y222141D01*
X338772Y222195D01*
D02*
G37*
G36*
X337772D02*
X337497Y222141D01*
X336841Y221702D01*
X336403Y221046D01*
X336348Y220772D01*
X337772D01*
Y222195D01*
D02*
G37*
G36*
X283963Y221039D02*
X282539D01*
Y219616D01*
X282814Y219670D01*
X283470Y220109D01*
X283909Y220765D01*
X283963Y221039D01*
D02*
G37*
G36*
X281539D02*
X280116D01*
X280170Y220765D01*
X280609Y220109D01*
X281265Y219670D01*
X281539Y219616D01*
Y221039D01*
D02*
G37*
G36*
X459000Y222405D02*
X458462Y222298D01*
X458006Y221993D01*
X457702Y221538D01*
X457595Y221000D01*
X457702Y220462D01*
X458006Y220007D01*
X458462Y219702D01*
X459000Y219595D01*
X459538Y219702D01*
X459994Y220007D01*
X460298Y220462D01*
X460405Y221000D01*
X460298Y221538D01*
X459994Y221993D01*
X459538Y222298D01*
X459000Y222405D01*
D02*
G37*
G36*
X455000D02*
X454462Y222298D01*
X454006Y221993D01*
X453702Y221538D01*
X453595Y221000D01*
X453702Y220462D01*
X454006Y220007D01*
X454462Y219702D01*
X455000Y219595D01*
X455538Y219702D01*
X455994Y220007D01*
X456298Y220462D01*
X456405Y221000D01*
X456298Y221538D01*
X455994Y221993D01*
X455538Y222298D01*
X455000Y222405D01*
D02*
G37*
G36*
X228000Y220924D02*
Y219500D01*
X229424D01*
X229369Y219774D01*
X228931Y220431D01*
X228274Y220869D01*
X228000Y220924D01*
D02*
G37*
G36*
X227000D02*
X226726Y220869D01*
X226069Y220431D01*
X225631Y219774D01*
X225576Y219500D01*
X227000D01*
Y220924D01*
D02*
G37*
G36*
X379674Y220750D02*
X378250D01*
Y219326D01*
X378524Y219381D01*
X379181Y219819D01*
X379619Y220476D01*
X379674Y220750D01*
D02*
G37*
G36*
X377250D02*
X375826D01*
X375881Y220476D01*
X376319Y219819D01*
X376976Y219381D01*
X377250Y219326D01*
Y220750D01*
D02*
G37*
G36*
X253500Y220424D02*
Y219000D01*
X254924D01*
X254869Y219274D01*
X254431Y219931D01*
X253774Y220369D01*
X253500Y220424D01*
D02*
G37*
G36*
X252500D02*
X252226Y220369D01*
X251569Y219931D01*
X251131Y219274D01*
X251076Y219000D01*
X252500D01*
Y220424D01*
D02*
G37*
G36*
X340195Y219772D02*
X338772D01*
Y218348D01*
X339046Y218403D01*
X339702Y218841D01*
X340141Y219497D01*
X340195Y219772D01*
D02*
G37*
G36*
X337772D02*
X336348D01*
X336403Y219497D01*
X336841Y218841D01*
X337497Y218403D01*
X337772Y218348D01*
Y219772D01*
D02*
G37*
G36*
X194500Y220405D02*
X193962Y220298D01*
X193507Y219993D01*
X193202Y219538D01*
X193095Y219000D01*
X193202Y218462D01*
X193507Y218007D01*
X193962Y217702D01*
X194500Y217595D01*
X195038Y217702D01*
X195493Y218007D01*
X195798Y218462D01*
X195905Y219000D01*
X195798Y219538D01*
X195493Y219993D01*
X195038Y220298D01*
X194500Y220405D01*
D02*
G37*
G36*
X229424Y218500D02*
X228000D01*
Y217076D01*
X228274Y217131D01*
X228931Y217569D01*
X229369Y218226D01*
X229424Y218500D01*
D02*
G37*
G36*
X227000D02*
X225576D01*
X225631Y218226D01*
X226069Y217569D01*
X226726Y217131D01*
X227000Y217076D01*
Y218500D01*
D02*
G37*
G36*
X254924Y218000D02*
X253500D01*
Y216576D01*
X253774Y216631D01*
X254431Y217069D01*
X254869Y217726D01*
X254924Y218000D01*
D02*
G37*
G36*
X252500D02*
X251076D01*
X251131Y217726D01*
X251569Y217069D01*
X252226Y216631D01*
X252500Y216576D01*
Y218000D01*
D02*
G37*
G36*
X330835Y217070D02*
X330297Y216963D01*
X329841Y216659D01*
X329537Y216203D01*
X329430Y215665D01*
X329446Y215582D01*
X328986Y215332D01*
X328459Y215684D01*
X328185Y215739D01*
Y214315D01*
X329783D01*
X330079Y214513D01*
X330297Y214367D01*
X330835Y214260D01*
X331372Y214367D01*
X331828Y214672D01*
X332133Y215128D01*
X332240Y215665D01*
X332133Y216203D01*
X331828Y216659D01*
X331372Y216963D01*
X330835Y217070D01*
D02*
G37*
G36*
X305638Y217444D02*
X305100Y217337D01*
X304644Y217033D01*
X304340Y216577D01*
X304233Y216039D01*
X304340Y215502D01*
X304644Y215046D01*
X305100Y214741D01*
X305638Y214634D01*
X306175Y214741D01*
X306631Y215046D01*
X306936Y215502D01*
X307043Y216039D01*
X306936Y216577D01*
X306631Y217033D01*
X306175Y217337D01*
X305638Y217444D01*
D02*
G37*
G36*
X293039D02*
X292502Y217337D01*
X292046Y217033D01*
X291741Y216577D01*
X291634Y216039D01*
X291741Y215502D01*
X292046Y215046D01*
X292502Y214741D01*
X293039Y214634D01*
X293577Y214741D01*
X294033Y215046D01*
X294337Y215502D01*
X294444Y216039D01*
X294337Y216577D01*
X294033Y217033D01*
X293577Y217337D01*
X293039Y217444D01*
D02*
G37*
G36*
X285500Y217405D02*
X284962Y217298D01*
X284507Y216993D01*
X284202Y216538D01*
X284095Y216000D01*
X284202Y215462D01*
X284507Y215007D01*
X284962Y214702D01*
X285500Y214595D01*
X286038Y214702D01*
X286493Y215007D01*
X286798Y215462D01*
X286905Y216000D01*
X286798Y216538D01*
X286493Y216993D01*
X286038Y217298D01*
X285500Y217405D01*
D02*
G37*
G36*
X272000Y214684D02*
Y213260D01*
X273424D01*
X273369Y213534D01*
X272931Y214190D01*
X272274Y214629D01*
X272000Y214684D01*
D02*
G37*
G36*
X271000D02*
X270726Y214629D01*
X270069Y214190D01*
X269631Y213534D01*
X269576Y213260D01*
X271000D01*
Y214684D01*
D02*
G37*
G36*
X194500Y215405D02*
X193962Y215298D01*
X193507Y214993D01*
X193202Y214538D01*
X193095Y214000D01*
X193202Y213462D01*
X193507Y213007D01*
X193962Y212702D01*
X194500Y212595D01*
X195038Y212702D01*
X195493Y213007D01*
X195798Y213462D01*
X195905Y214000D01*
X195798Y214538D01*
X195493Y214993D01*
X195038Y215298D01*
X194500Y215405D01*
D02*
G37*
G36*
X344500Y213424D02*
Y212000D01*
X345924D01*
X345869Y212274D01*
X345431Y212931D01*
X344774Y213369D01*
X344500Y213424D01*
D02*
G37*
G36*
X343500D02*
X343226Y213369D01*
X342569Y212931D01*
X342131Y212274D01*
X342076Y212000D01*
X343500D01*
Y213424D01*
D02*
G37*
G36*
X60000D02*
Y212000D01*
X61424D01*
X61369Y212274D01*
X60931Y212931D01*
X60274Y213369D01*
X60000Y213424D01*
D02*
G37*
G36*
X59000D02*
X58726Y213369D01*
X58069Y212931D01*
X57631Y212274D01*
X57576Y212000D01*
X59000D01*
Y213424D01*
D02*
G37*
G36*
X22000D02*
Y212000D01*
X23424D01*
X23369Y212274D01*
X22931Y212931D01*
X22274Y213369D01*
X22000Y213424D01*
D02*
G37*
G36*
X21000D02*
X20726Y213369D01*
X20069Y212931D01*
X19631Y212274D01*
X19576Y212000D01*
X21000D01*
Y213424D01*
D02*
G37*
G36*
X329609Y213315D02*
X328185D01*
Y211891D01*
X328459Y211946D01*
X329116Y212384D01*
X329554Y213041D01*
X329609Y213315D01*
D02*
G37*
G36*
X324772Y216677D02*
X324234Y216570D01*
X323778Y216265D01*
X323474Y215809D01*
X323367Y215272D01*
X323474Y214734D01*
X323778Y214278D01*
X324234Y213974D01*
X324772Y213867D01*
X325179Y213948D01*
X325277Y213920D01*
X325570Y213745D01*
X325698Y213632D01*
X325816Y213041D01*
X326254Y212384D01*
X326911Y211946D01*
X327185Y211891D01*
Y213815D01*
Y215739D01*
X326911Y215684D01*
X326640Y215503D01*
X326085Y215734D01*
X326070Y215809D01*
X325765Y216265D01*
X325309Y216570D01*
X324772Y216677D01*
D02*
G37*
G36*
X375000Y214405D02*
X374462Y214298D01*
X374007Y213993D01*
X373702Y213538D01*
X373595Y213000D01*
X373702Y212462D01*
X374007Y212007D01*
X374462Y211702D01*
X375000Y211595D01*
X375538Y211702D01*
X375993Y212007D01*
X376298Y212462D01*
X376405Y213000D01*
X376298Y213538D01*
X375993Y213993D01*
X375538Y214298D01*
X375000Y214405D01*
D02*
G37*
G36*
X167437Y212987D02*
Y211563D01*
X168861D01*
X168806Y211837D01*
X168368Y212494D01*
X167711Y212932D01*
X167437Y212987D01*
D02*
G37*
G36*
X166437D02*
X166163Y212932D01*
X165506Y212494D01*
X165068Y211837D01*
X165013Y211563D01*
X166437D01*
Y212987D01*
D02*
G37*
G36*
X273424Y212260D02*
X272000D01*
Y210836D01*
X272274Y210891D01*
X272931Y211329D01*
X273369Y211986D01*
X273424Y212260D01*
D02*
G37*
G36*
X271000D02*
X269576D01*
X269631Y211986D01*
X270069Y211329D01*
X270726Y210891D01*
X271000Y210836D01*
Y212260D01*
D02*
G37*
G36*
X296228Y211652D02*
Y210228D01*
X297652D01*
X297598Y210503D01*
X297159Y211159D01*
X296503Y211597D01*
X296228Y211652D01*
D02*
G37*
G36*
X295228D02*
X294954Y211597D01*
X294298Y211159D01*
X293859Y210503D01*
X293805Y210228D01*
X295228D01*
Y211652D01*
D02*
G37*
G36*
X37500Y212905D02*
X36962Y212798D01*
X36507Y212493D01*
X36202Y212038D01*
X36095Y211500D01*
X36202Y210962D01*
X36507Y210507D01*
X36962Y210202D01*
X37500Y210095D01*
X38038Y210202D01*
X38493Y210507D01*
X38798Y210962D01*
X38905Y211500D01*
X38798Y212038D01*
X38493Y212493D01*
X38038Y212798D01*
X37500Y212905D01*
D02*
G37*
G36*
X33500D02*
X32962Y212798D01*
X32506Y212493D01*
X32202Y212038D01*
X32095Y211500D01*
X32202Y210962D01*
X32506Y210507D01*
X32962Y210202D01*
X33500Y210095D01*
X34038Y210202D01*
X34493Y210507D01*
X34798Y210962D01*
X34905Y211500D01*
X34798Y212038D01*
X34493Y212493D01*
X34038Y212798D01*
X33500Y212905D01*
D02*
G37*
G36*
X210500Y211424D02*
Y210000D01*
X211924D01*
X211869Y210274D01*
X211431Y210931D01*
X210774Y211369D01*
X210500Y211424D01*
D02*
G37*
G36*
X209500D02*
X209226Y211369D01*
X208569Y210931D01*
X208131Y210274D01*
X208076Y210000D01*
X209500D01*
Y211424D01*
D02*
G37*
G36*
X144500Y212405D02*
X143962Y212298D01*
X143507Y211993D01*
X143202Y211538D01*
X143095Y211000D01*
X143202Y210462D01*
X143507Y210007D01*
X143962Y209702D01*
X144500Y209595D01*
X145038Y209702D01*
X145493Y210007D01*
X145798Y210462D01*
X145905Y211000D01*
X145798Y211538D01*
X145493Y211993D01*
X145038Y212298D01*
X144500Y212405D01*
D02*
G37*
G36*
X61424Y211000D02*
X60000D01*
Y209576D01*
X60274Y209631D01*
X60931Y210069D01*
X61369Y210726D01*
X61424Y211000D01*
D02*
G37*
G36*
X59000D02*
X57576D01*
X57631Y210726D01*
X58069Y210069D01*
X58726Y209631D01*
X59000Y209576D01*
Y211000D01*
D02*
G37*
G36*
X23424D02*
X22000D01*
Y209576D01*
X22274Y209631D01*
X22931Y210069D01*
X23369Y210726D01*
X23424Y211000D01*
D02*
G37*
G36*
X21000D02*
X19576D01*
X19631Y210726D01*
X20069Y210069D01*
X20726Y209631D01*
X21000Y209576D01*
Y211000D01*
D02*
G37*
G36*
X168861Y210563D02*
X167437D01*
Y209139D01*
X167711Y209194D01*
X168368Y209632D01*
X168806Y210289D01*
X168861Y210563D01*
D02*
G37*
G36*
X166437D02*
X165013D01*
X165068Y210289D01*
X165506Y209632D01*
X166163Y209194D01*
X166437Y209139D01*
Y210563D01*
D02*
G37*
G36*
X332000Y210905D02*
X331462Y210798D01*
X331007Y210493D01*
X330702Y210038D01*
X330595Y209500D01*
X330702Y208962D01*
X331007Y208507D01*
X331462Y208202D01*
X332000Y208095D01*
X332538Y208202D01*
X332993Y208507D01*
X333298Y208962D01*
X333405Y209500D01*
X333298Y210038D01*
X332993Y210493D01*
X332538Y210798D01*
X332000Y210905D01*
D02*
G37*
G36*
X297652Y209228D02*
X296228D01*
Y207805D01*
X296503Y207859D01*
X297159Y208298D01*
X297598Y208954D01*
X297652Y209228D01*
D02*
G37*
G36*
X295228D02*
X293805D01*
X293859Y208954D01*
X294298Y208298D01*
X294954Y207859D01*
X295228Y207805D01*
Y209228D01*
D02*
G37*
G36*
X426772Y210405D02*
X426234Y210298D01*
X425778Y209993D01*
X425474Y209538D01*
X425367Y209000D01*
X425474Y208462D01*
X425778Y208007D01*
X426234Y207702D01*
X426772Y207595D01*
X427309Y207702D01*
X427765Y208007D01*
X428070Y208462D01*
X428177Y209000D01*
X428070Y209538D01*
X427765Y209993D01*
X427309Y210298D01*
X426772Y210405D01*
D02*
G37*
G36*
X415000D02*
X414462Y210298D01*
X414007Y209993D01*
X413702Y209538D01*
X413595Y209000D01*
X413702Y208462D01*
X414007Y208007D01*
X414462Y207702D01*
X415000Y207595D01*
X415538Y207702D01*
X415993Y208007D01*
X416298Y208462D01*
X416405Y209000D01*
X416298Y209538D01*
X415993Y209993D01*
X415538Y210298D01*
X415000Y210405D01*
D02*
G37*
G36*
X194500D02*
X193962Y210298D01*
X193507Y209993D01*
X193202Y209538D01*
X193095Y209000D01*
X193202Y208462D01*
X193507Y208007D01*
X193962Y207702D01*
X194500Y207595D01*
X195038Y207702D01*
X195493Y208007D01*
X195798Y208462D01*
X195905Y209000D01*
X195798Y209538D01*
X195493Y209993D01*
X195038Y210298D01*
X194500Y210405D01*
D02*
G37*
G36*
X211924Y209000D02*
X210500D01*
Y207576D01*
X210774Y207631D01*
X211431Y208069D01*
X211869Y208726D01*
X211924Y209000D01*
D02*
G37*
G36*
X209500D02*
X208076D01*
X208131Y208726D01*
X208569Y208069D01*
X209226Y207631D01*
X209500Y207576D01*
Y209000D01*
D02*
G37*
G36*
X345924Y211000D02*
X342076D01*
X342131Y210726D01*
X342569Y210069D01*
X343226Y209631D01*
X343657Y209545D01*
X343859Y209505D01*
Y208995D01*
X343657Y208955D01*
X343226Y208869D01*
X342569Y208431D01*
X342131Y207774D01*
X342076Y207500D01*
X345924D01*
X345869Y207774D01*
X345431Y208431D01*
X344774Y208869D01*
X344342Y208955D01*
X344141Y208995D01*
Y209505D01*
X344342Y209545D01*
X344774Y209631D01*
X345431Y210069D01*
X345869Y210726D01*
X345924Y211000D01*
D02*
G37*
G36*
X322000Y208924D02*
Y207500D01*
X323424D01*
X323369Y207774D01*
X322931Y208431D01*
X322274Y208869D01*
X322000Y208924D01*
D02*
G37*
G36*
X321000D02*
X320726Y208869D01*
X320069Y208431D01*
X319631Y207774D01*
X319576Y207500D01*
X321000D01*
Y208924D01*
D02*
G37*
G36*
X306000D02*
Y207500D01*
X307424D01*
X307369Y207774D01*
X306931Y208431D01*
X306274Y208869D01*
X306000Y208924D01*
D02*
G37*
G36*
X305000D02*
X304726Y208869D01*
X304069Y208431D01*
X303631Y207774D01*
X303576Y207500D01*
X305000D01*
Y208924D01*
D02*
G37*
G36*
X115500Y208905D02*
X114962Y208798D01*
X114506Y208493D01*
X114202Y208038D01*
X114095Y207500D01*
X114202Y206962D01*
X114506Y206507D01*
X114962Y206202D01*
X115500Y206095D01*
X116038Y206202D01*
X116493Y206507D01*
X116798Y206962D01*
X116905Y207500D01*
X116798Y208038D01*
X116493Y208493D01*
X116038Y208798D01*
X115500Y208905D01*
D02*
G37*
G36*
X102000D02*
X101462Y208798D01*
X101007Y208493D01*
X100702Y208038D01*
X100595Y207500D01*
X100702Y206962D01*
X101007Y206507D01*
X101462Y206202D01*
X102000Y206095D01*
X102538Y206202D01*
X102994Y206507D01*
X103298Y206962D01*
X103405Y207500D01*
X103298Y208038D01*
X102994Y208493D01*
X102538Y208798D01*
X102000Y208905D01*
D02*
G37*
G36*
X294000Y206924D02*
Y205500D01*
X295424D01*
X295369Y205774D01*
X294931Y206431D01*
X294274Y206869D01*
X294000Y206924D01*
D02*
G37*
G36*
X293000D02*
X292726Y206869D01*
X292069Y206431D01*
X291631Y205774D01*
X291576Y205500D01*
X293000D01*
Y206924D01*
D02*
G37*
G36*
X345924Y206500D02*
X344500D01*
Y205076D01*
X344774Y205131D01*
X345431Y205569D01*
X345869Y206226D01*
X345924Y206500D01*
D02*
G37*
G36*
X343500D02*
X342076D01*
X342131Y206226D01*
X342569Y205569D01*
X343226Y205131D01*
X343500Y205076D01*
Y206500D01*
D02*
G37*
G36*
X323424D02*
X322000D01*
Y205076D01*
X322274Y205131D01*
X322931Y205569D01*
X323369Y206226D01*
X323424Y206500D01*
D02*
G37*
G36*
X321000D02*
X319576D01*
X319631Y206226D01*
X320069Y205569D01*
X320726Y205131D01*
X321000Y205076D01*
Y206500D01*
D02*
G37*
G36*
X307424D02*
X306000D01*
Y205076D01*
X306274Y205131D01*
X306931Y205569D01*
X307369Y206226D01*
X307424Y206500D01*
D02*
G37*
G36*
X305000D02*
X303576D01*
X303631Y206226D01*
X304069Y205569D01*
X304726Y205131D01*
X305000Y205076D01*
Y206500D01*
D02*
G37*
G36*
X86772Y205695D02*
Y204272D01*
X88195D01*
X88141Y204546D01*
X87702Y205202D01*
X87046Y205641D01*
X86772Y205695D01*
D02*
G37*
G36*
X85772D02*
X85497Y205641D01*
X84841Y205202D01*
X84403Y204546D01*
X84348Y204272D01*
X85772D01*
Y205695D01*
D02*
G37*
G36*
X272000Y205235D02*
Y203811D01*
X273424D01*
X273369Y204085D01*
X272931Y204742D01*
X272274Y205180D01*
X272000Y205235D01*
D02*
G37*
G36*
X271000D02*
X270726Y205180D01*
X270069Y204742D01*
X269631Y204085D01*
X269576Y203811D01*
X271000D01*
Y205235D01*
D02*
G37*
G36*
X284500Y206405D02*
X283962Y206298D01*
X283507Y205993D01*
X283202Y205538D01*
X283095Y205000D01*
X283202Y204462D01*
X283507Y204007D01*
X283962Y203702D01*
X284500Y203595D01*
X285038Y203702D01*
X285493Y204007D01*
X285798Y204462D01*
X285905Y205000D01*
X285798Y205538D01*
X285493Y205993D01*
X285038Y206298D01*
X284500Y206405D01*
D02*
G37*
G36*
X332000Y205905D02*
X331462Y205798D01*
X331007Y205493D01*
X330702Y205038D01*
X330595Y204500D01*
X330702Y203962D01*
X331007Y203506D01*
X331462Y203202D01*
X332000Y203095D01*
X332538Y203202D01*
X332993Y203506D01*
X333298Y203962D01*
X333405Y204500D01*
X333298Y205038D01*
X332993Y205493D01*
X332538Y205798D01*
X332000Y205905D01*
D02*
G37*
G36*
X295424Y204500D02*
X294000D01*
Y203076D01*
X294274Y203131D01*
X294931Y203569D01*
X295369Y204226D01*
X295424Y204500D01*
D02*
G37*
G36*
X293000D02*
X291576D01*
X291631Y204226D01*
X292069Y203569D01*
X292726Y203131D01*
X293000Y203076D01*
Y204500D01*
D02*
G37*
G36*
X194500Y205405D02*
X193962Y205298D01*
X193507Y204993D01*
X193202Y204538D01*
X193095Y204000D01*
X193202Y203462D01*
X193507Y203007D01*
X193962Y202702D01*
X194500Y202595D01*
X195038Y202702D01*
X195493Y203007D01*
X195798Y203462D01*
X195905Y204000D01*
X195798Y204538D01*
X195493Y204993D01*
X195038Y205298D01*
X194500Y205405D01*
D02*
G37*
G36*
X225500Y203924D02*
Y202500D01*
X226924D01*
X226869Y202774D01*
X226431Y203431D01*
X225774Y203869D01*
X225500Y203924D01*
D02*
G37*
G36*
X224500D02*
X224226Y203869D01*
X223569Y203431D01*
X223131Y202774D01*
X223076Y202500D01*
X224500D01*
Y203924D01*
D02*
G37*
G36*
X326728Y203695D02*
Y202272D01*
X328152D01*
X328098Y202546D01*
X327659Y203202D01*
X327003Y203641D01*
X326728Y203695D01*
D02*
G37*
G36*
X325728D02*
X325454Y203641D01*
X324798Y203202D01*
X324359Y202546D01*
X324305Y202272D01*
X325728D01*
Y203695D01*
D02*
G37*
G36*
X124500Y203424D02*
Y202000D01*
X125924D01*
X125869Y202274D01*
X125431Y202931D01*
X124774Y203369D01*
X124500Y203424D01*
D02*
G37*
G36*
X123500D02*
X123226Y203369D01*
X122569Y202931D01*
X122131Y202274D01*
X122076Y202000D01*
X123500D01*
Y203424D01*
D02*
G37*
G36*
X150953Y203376D02*
Y201953D01*
X152376D01*
X152322Y202227D01*
X151883Y202883D01*
X151227Y203322D01*
X150953Y203376D01*
D02*
G37*
G36*
X149953D02*
X149679Y203322D01*
X149022Y202883D01*
X148584Y202227D01*
X148529Y201953D01*
X149953D01*
Y203376D01*
D02*
G37*
G36*
X88195Y203272D02*
X86772D01*
Y201848D01*
X87046Y201903D01*
X87702Y202341D01*
X88141Y202997D01*
X88195Y203272D01*
D02*
G37*
G36*
X85772D02*
X84348D01*
X84403Y202997D01*
X84841Y202341D01*
X85497Y201903D01*
X85772Y201848D01*
Y203272D01*
D02*
G37*
G36*
X273424Y202811D02*
X272000D01*
Y201387D01*
X272274Y201442D01*
X272931Y201881D01*
X273369Y202537D01*
X273424Y202811D01*
D02*
G37*
G36*
X271000D02*
X269576D01*
X269631Y202537D01*
X270069Y201881D01*
X270726Y201442D01*
X271000Y201387D01*
Y202811D01*
D02*
G37*
G36*
X212500Y202424D02*
Y201000D01*
X213924D01*
X213869Y201274D01*
X213431Y201931D01*
X212774Y202369D01*
X212500Y202424D01*
D02*
G37*
G36*
X211500D02*
X211226Y202369D01*
X210569Y201931D01*
X210131Y201274D01*
X210076Y201000D01*
X211500D01*
Y202424D01*
D02*
G37*
G36*
X226924Y201500D02*
X225500D01*
Y200076D01*
X225774Y200131D01*
X226431Y200569D01*
X226869Y201226D01*
X226924Y201500D01*
D02*
G37*
G36*
X224500D02*
X223076D01*
X223131Y201226D01*
X223569Y200569D01*
X224226Y200131D01*
X224500Y200076D01*
Y201500D01*
D02*
G37*
G36*
X328152Y201272D02*
X326728D01*
Y199848D01*
X327003Y199902D01*
X327659Y200341D01*
X328098Y200997D01*
X328152Y201272D01*
D02*
G37*
G36*
X325728D02*
X324305D01*
X324359Y200997D01*
X324798Y200341D01*
X325454Y199902D01*
X325728Y199848D01*
Y201272D01*
D02*
G37*
G36*
X125924Y201000D02*
X124500D01*
Y199576D01*
X124774Y199631D01*
X125431Y200069D01*
X125869Y200726D01*
X125924Y201000D01*
D02*
G37*
G36*
X123500D02*
X122076D01*
X122131Y200726D01*
X122569Y200069D01*
X123226Y199631D01*
X123500Y199576D01*
Y201000D01*
D02*
G37*
G36*
X152376Y200953D02*
X150953D01*
Y199529D01*
X151227Y199584D01*
X151883Y200022D01*
X152322Y200678D01*
X152376Y200953D01*
D02*
G37*
G36*
X149953D02*
X148529D01*
X148584Y200678D01*
X149022Y200022D01*
X149679Y199584D01*
X149953Y199529D01*
Y200953D01*
D02*
G37*
G36*
X159000Y200924D02*
Y199500D01*
X160424D01*
X160369Y199774D01*
X159931Y200431D01*
X159274Y200869D01*
X159000Y200924D01*
D02*
G37*
G36*
X158000D02*
X157726Y200869D01*
X157069Y200431D01*
X156631Y199774D01*
X156576Y199500D01*
X158000D01*
Y200924D01*
D02*
G37*
G36*
X294000Y200424D02*
Y199000D01*
X295424D01*
X295369Y199274D01*
X294931Y199931D01*
X294274Y200369D01*
X294000Y200424D01*
D02*
G37*
G36*
X293000D02*
X292726Y200369D01*
X292069Y199931D01*
X291631Y199274D01*
X291576Y199000D01*
X293000D01*
Y200424D01*
D02*
G37*
G36*
X213924Y200000D02*
X212500D01*
Y198576D01*
X212774Y198631D01*
X213431Y199069D01*
X213869Y199726D01*
X213924Y200000D01*
D02*
G37*
G36*
X211500D02*
X210076D01*
X210131Y199726D01*
X210569Y199069D01*
X211226Y198631D01*
X211500Y198576D01*
Y200000D01*
D02*
G37*
G36*
X194500Y200405D02*
X193962Y200298D01*
X193507Y199994D01*
X193202Y199538D01*
X193095Y199000D01*
X193202Y198462D01*
X193507Y198006D01*
X193962Y197702D01*
X194500Y197595D01*
X195038Y197702D01*
X195493Y198006D01*
X195798Y198462D01*
X195905Y199000D01*
X195798Y199538D01*
X195493Y199994D01*
X195038Y200298D01*
X194500Y200405D01*
D02*
G37*
G36*
X284500Y199905D02*
X283962Y199798D01*
X283507Y199494D01*
X283202Y199038D01*
X283095Y198500D01*
X283202Y197962D01*
X283507Y197506D01*
X283962Y197202D01*
X284500Y197095D01*
X285038Y197202D01*
X285493Y197506D01*
X285798Y197962D01*
X285905Y198500D01*
X285798Y199038D01*
X285493Y199494D01*
X285038Y199798D01*
X284500Y199905D01*
D02*
G37*
G36*
X160424Y198500D02*
X159000D01*
Y197076D01*
X159274Y197131D01*
X159931Y197569D01*
X160369Y198226D01*
X160424Y198500D01*
D02*
G37*
G36*
X158000D02*
X156576D01*
X156631Y198226D01*
X157069Y197569D01*
X157726Y197131D01*
X158000Y197076D01*
Y198500D01*
D02*
G37*
G36*
X295424Y198000D02*
X294000D01*
Y196576D01*
X294274Y196631D01*
X294931Y197069D01*
X295369Y197726D01*
X295424Y198000D01*
D02*
G37*
G36*
X293000D02*
X291576D01*
X291631Y197726D01*
X292069Y197069D01*
X292726Y196631D01*
X293000Y196576D01*
Y198000D01*
D02*
G37*
G36*
X272000Y195786D02*
Y194362D01*
X273424D01*
X273369Y194636D01*
X272931Y195293D01*
X272274Y195731D01*
X272000Y195786D01*
D02*
G37*
G36*
X271000D02*
X270726Y195731D01*
X270069Y195293D01*
X269631Y194636D01*
X269576Y194362D01*
X271000D01*
Y195786D01*
D02*
G37*
G36*
X124000Y198905D02*
X123462Y198798D01*
X123006Y198494D01*
X122702Y198038D01*
X122595Y197500D01*
X122702Y196962D01*
X123006Y196507D01*
X123462Y196202D01*
X124000Y196095D01*
X124538Y196202D01*
X124994Y196507D01*
X125126Y196705D01*
X125597Y196510D01*
X125595Y196500D01*
X125702Y195962D01*
X126006Y195507D01*
X126462Y195202D01*
X127000Y195095D01*
X127538Y195202D01*
X127994Y195507D01*
X128126Y195705D01*
X128597Y195510D01*
X128595Y195500D01*
X128702Y194962D01*
X129007Y194507D01*
X129462Y194202D01*
X130000Y194095D01*
X130538Y194202D01*
X130993Y194507D01*
X131298Y194962D01*
X131405Y195500D01*
X131298Y196038D01*
X130993Y196493D01*
X130538Y196798D01*
X130000Y196905D01*
X129462Y196798D01*
X129007Y196493D01*
X128874Y196295D01*
X128403Y196490D01*
X128405Y196500D01*
X128298Y197038D01*
X127994Y197494D01*
X127538Y197798D01*
X127000Y197905D01*
X126462Y197798D01*
X126006Y197494D01*
X125874Y197295D01*
X125403Y197490D01*
X125405Y197500D01*
X125298Y198038D01*
X124994Y198494D01*
X124538Y198798D01*
X124000Y198905D01*
D02*
G37*
G36*
X89000Y196905D02*
X88462Y196798D01*
X88007Y196493D01*
X87702Y196038D01*
X87595Y195500D01*
X87702Y194962D01*
X88007Y194507D01*
X88462Y194202D01*
X89000Y194095D01*
X89538Y194202D01*
X89993Y194507D01*
X90298Y194962D01*
X90405Y195500D01*
X90298Y196038D01*
X89993Y196493D01*
X89538Y196798D01*
X89000Y196905D01*
D02*
G37*
G36*
X106500Y195905D02*
X105962Y195798D01*
X105507Y195493D01*
X105202Y195038D01*
X105095Y194500D01*
X105202Y193962D01*
X105507Y193507D01*
X105962Y193202D01*
X106500Y193095D01*
X107038Y193202D01*
X107493Y193507D01*
X107798Y193962D01*
X107905Y194500D01*
X107798Y195038D01*
X107493Y195493D01*
X107038Y195798D01*
X106500Y195905D01*
D02*
G37*
G36*
X101000D02*
X100462Y195798D01*
X100007Y195493D01*
X99702Y195038D01*
X99595Y194500D01*
X99702Y193962D01*
X100007Y193507D01*
X100462Y193202D01*
X101000Y193095D01*
X101538Y193202D01*
X101993Y193507D01*
X102298Y193962D01*
X102405Y194500D01*
X102298Y195038D01*
X101993Y195493D01*
X101538Y195798D01*
X101000Y195905D01*
D02*
G37*
G36*
X194500Y195405D02*
X193962Y195298D01*
X193507Y194993D01*
X193202Y194538D01*
X193095Y194000D01*
X193202Y193462D01*
X193507Y193007D01*
X193962Y192702D01*
X194500Y192595D01*
X195038Y192702D01*
X195493Y193007D01*
X195798Y193462D01*
X195905Y194000D01*
X195798Y194538D01*
X195493Y194993D01*
X195038Y195298D01*
X194500Y195405D01*
D02*
G37*
G36*
X137000Y193424D02*
Y192000D01*
X138424D01*
X138369Y192274D01*
X137931Y192931D01*
X137274Y193369D01*
X137000Y193424D01*
D02*
G37*
G36*
X136000D02*
X135726Y193369D01*
X135069Y192931D01*
X134631Y192274D01*
X134576Y192000D01*
X136000D01*
Y193424D01*
D02*
G37*
G36*
X273424Y193362D02*
X272000D01*
Y191938D01*
X272274Y191993D01*
X272931Y192432D01*
X273369Y193088D01*
X273424Y193362D01*
D02*
G37*
G36*
X271000D02*
X269576D01*
X269631Y193088D01*
X270069Y192432D01*
X270726Y191993D01*
X271000Y191938D01*
Y193362D01*
D02*
G37*
G36*
X294000Y191924D02*
Y190500D01*
X295424D01*
X295369Y190774D01*
X294931Y191431D01*
X294274Y191869D01*
X294000Y191924D01*
D02*
G37*
G36*
X293000D02*
X292726Y191869D01*
X292069Y191431D01*
X291631Y190774D01*
X291576Y190500D01*
X293000D01*
Y191924D01*
D02*
G37*
G36*
X119228Y191195D02*
Y189772D01*
X120652D01*
X120598Y190046D01*
X120159Y190702D01*
X119503Y191141D01*
X119228Y191195D01*
D02*
G37*
G36*
X118228D02*
X117954Y191141D01*
X117298Y190702D01*
X116859Y190046D01*
X116805Y189772D01*
X118228D01*
Y191195D01*
D02*
G37*
G36*
X138424Y191000D02*
X137000D01*
Y189576D01*
X137274Y189631D01*
X137931Y190069D01*
X138369Y190726D01*
X138424Y191000D01*
D02*
G37*
G36*
X136000D02*
X134576D01*
X134631Y190726D01*
X135069Y190069D01*
X135726Y189631D01*
X136000Y189576D01*
Y191000D01*
D02*
G37*
G36*
X367000Y191905D02*
X366462Y191798D01*
X366007Y191493D01*
X365702Y191038D01*
X365595Y190500D01*
X365702Y189962D01*
X366007Y189506D01*
X366462Y189202D01*
X367000Y189095D01*
X367538Y189202D01*
X367993Y189506D01*
X368298Y189962D01*
X368405Y190500D01*
X368298Y191038D01*
X367993Y191493D01*
X367538Y191798D01*
X367000Y191905D01*
D02*
G37*
G36*
X284500Y191405D02*
X283962Y191298D01*
X283507Y190993D01*
X283202Y190538D01*
X283095Y190000D01*
X283202Y189462D01*
X283507Y189006D01*
X283962Y188702D01*
X284500Y188595D01*
X285038Y188702D01*
X285493Y189006D01*
X285798Y189462D01*
X285905Y190000D01*
X285798Y190538D01*
X285493Y190993D01*
X285038Y191298D01*
X284500Y191405D01*
D02*
G37*
G36*
X157000D02*
X156462Y191298D01*
X156007Y190993D01*
X155702Y190538D01*
X155595Y190000D01*
X155702Y189462D01*
X156007Y189006D01*
X156462Y188702D01*
X157000Y188595D01*
X157538Y188702D01*
X157993Y189006D01*
X158298Y189462D01*
X158405Y190000D01*
X158298Y190538D01*
X157993Y190993D01*
X157538Y191298D01*
X157000Y191405D01*
D02*
G37*
G36*
X295424Y189500D02*
X294000D01*
Y188076D01*
X294274Y188131D01*
X294931Y188569D01*
X295369Y189226D01*
X295424Y189500D01*
D02*
G37*
G36*
X293000D02*
X291576D01*
X291631Y189226D01*
X292069Y188569D01*
X292726Y188131D01*
X293000Y188076D01*
Y189500D01*
D02*
G37*
G36*
X272000Y189487D02*
Y188063D01*
X273424D01*
X273369Y188337D01*
X272931Y188994D01*
X272274Y189432D01*
X272000Y189487D01*
D02*
G37*
G36*
X271000D02*
X270726Y189432D01*
X270069Y188994D01*
X269631Y188337D01*
X269576Y188063D01*
X271000D01*
Y189487D01*
D02*
G37*
G36*
X209000Y189424D02*
Y188000D01*
X210424D01*
X210369Y188274D01*
X209931Y188931D01*
X209274Y189369D01*
X209000Y189424D01*
D02*
G37*
G36*
X208000D02*
X207726Y189369D01*
X207069Y188931D01*
X206631Y188274D01*
X206576Y188000D01*
X208000D01*
Y189424D01*
D02*
G37*
G36*
X194500Y190405D02*
X193962Y190298D01*
X193507Y189994D01*
X193202Y189538D01*
X193095Y189000D01*
X193202Y188462D01*
X193507Y188006D01*
X193962Y187702D01*
X194500Y187595D01*
X195038Y187702D01*
X195493Y188006D01*
X195798Y188462D01*
X195905Y189000D01*
X195798Y189538D01*
X195493Y189994D01*
X195038Y190298D01*
X194500Y190405D01*
D02*
G37*
G36*
X255500Y188924D02*
Y187500D01*
X256924D01*
X256869Y187774D01*
X256431Y188431D01*
X255774Y188869D01*
X255500Y188924D01*
D02*
G37*
G36*
X254500D02*
X254226Y188869D01*
X253569Y188431D01*
X253131Y187774D01*
X253076Y187500D01*
X254500D01*
Y188924D01*
D02*
G37*
G36*
X120652Y188772D02*
X119228D01*
Y187348D01*
X119503Y187402D01*
X120159Y187841D01*
X120598Y188497D01*
X120652Y188772D01*
D02*
G37*
G36*
X118228D02*
X116805D01*
X116859Y188497D01*
X117298Y187841D01*
X117954Y187402D01*
X118228Y187348D01*
Y188772D01*
D02*
G37*
G36*
X326728Y188152D02*
Y186728D01*
X328152D01*
X328098Y187003D01*
X327659Y187659D01*
X327003Y188098D01*
X326728Y188152D01*
D02*
G37*
G36*
X325728D02*
X325454Y188098D01*
X324798Y187659D01*
X324359Y187003D01*
X324305Y186728D01*
X325728D01*
Y188152D01*
D02*
G37*
G36*
X164000Y187924D02*
Y186500D01*
X165424D01*
X165369Y186774D01*
X164931Y187431D01*
X164274Y187869D01*
X164000Y187924D01*
D02*
G37*
G36*
X163000D02*
X162726Y187869D01*
X162069Y187431D01*
X161631Y186774D01*
X161576Y186500D01*
X163000D01*
Y187924D01*
D02*
G37*
G36*
X154278Y188905D02*
X153741Y188798D01*
X153285Y188494D01*
X152980Y188038D01*
X152873Y187500D01*
X152980Y186962D01*
X153285Y186506D01*
X153741Y186202D01*
X154278Y186095D01*
X154816Y186202D01*
X155272Y186506D01*
X155576Y186962D01*
X155683Y187500D01*
X155576Y188038D01*
X155272Y188494D01*
X154816Y188798D01*
X154278Y188905D01*
D02*
G37*
G36*
X273424Y187063D02*
X272000D01*
Y185639D01*
X272274Y185694D01*
X272931Y186133D01*
X273369Y186789D01*
X273424Y187063D01*
D02*
G37*
G36*
X271000D02*
X269576D01*
X269631Y186789D01*
X270069Y186133D01*
X270726Y185694D01*
X271000Y185639D01*
Y187063D01*
D02*
G37*
G36*
X137500Y188405D02*
X136962Y188298D01*
X136506Y187994D01*
X136202Y187538D01*
X136095Y187000D01*
X136202Y186462D01*
X136506Y186006D01*
X136962Y185702D01*
X137500Y185595D01*
X138038Y185702D01*
X138494Y186006D01*
X138798Y186462D01*
X138905Y187000D01*
X138798Y187538D01*
X138494Y187994D01*
X138038Y188298D01*
X137500Y188405D01*
D02*
G37*
G36*
X210424Y187000D02*
X209000D01*
Y185576D01*
X209274Y185631D01*
X209931Y186069D01*
X210369Y186726D01*
X210424Y187000D01*
D02*
G37*
G36*
X208000D02*
X206576D01*
X206631Y186726D01*
X207069Y186069D01*
X207726Y185631D01*
X208000Y185576D01*
Y187000D01*
D02*
G37*
G36*
X294000Y186924D02*
Y185500D01*
X295424D01*
X295369Y185774D01*
X294931Y186431D01*
X294274Y186869D01*
X294000Y186924D01*
D02*
G37*
G36*
X293000D02*
X292726Y186869D01*
X292069Y186431D01*
X291631Y185774D01*
X291576Y185500D01*
X293000D01*
Y186924D01*
D02*
G37*
G36*
X256924Y186500D02*
X255500D01*
Y185076D01*
X255774Y185131D01*
X256431Y185569D01*
X256869Y186226D01*
X256924Y186500D01*
D02*
G37*
G36*
X254500D02*
X253076D01*
X253131Y186226D01*
X253569Y185569D01*
X254226Y185131D01*
X254500Y185076D01*
Y186500D01*
D02*
G37*
G36*
X126500Y187405D02*
X125962Y187298D01*
X125506Y186994D01*
X125202Y186538D01*
X125095Y186000D01*
X125202Y185462D01*
X125506Y185006D01*
X125962Y184702D01*
X126500Y184595D01*
X127038Y184702D01*
X127494Y185006D01*
X127798Y185462D01*
X127905Y186000D01*
X127798Y186538D01*
X127494Y186994D01*
X127038Y187298D01*
X126500Y187405D01*
D02*
G37*
G36*
X101500Y185924D02*
Y184500D01*
X102924D01*
X102869Y184774D01*
X102431Y185431D01*
X101774Y185869D01*
X101500Y185924D01*
D02*
G37*
G36*
X100500D02*
X100226Y185869D01*
X99569Y185431D01*
X99131Y184774D01*
X99076Y184500D01*
X100500D01*
Y185924D01*
D02*
G37*
G36*
X328152Y185728D02*
X326728D01*
Y184305D01*
X327003Y184359D01*
X327659Y184798D01*
X328098Y185454D01*
X328152Y185728D01*
D02*
G37*
G36*
X325728D02*
X324305D01*
X324359Y185454D01*
X324798Y184798D01*
X325454Y184359D01*
X325728Y184305D01*
Y185728D01*
D02*
G37*
G36*
X354016Y186905D02*
X353478Y186798D01*
X353023Y186494D01*
X352718Y186038D01*
X352611Y185500D01*
X352718Y184962D01*
X353023Y184506D01*
X353478Y184202D01*
X354016Y184095D01*
X354554Y184202D01*
X355010Y184506D01*
X355314Y184962D01*
X355421Y185500D01*
X355314Y186038D01*
X355010Y186494D01*
X354554Y186798D01*
X354016Y186905D01*
D02*
G37*
G36*
X165424Y185500D02*
X164000D01*
Y184076D01*
X164274Y184131D01*
X164931Y184569D01*
X165369Y185226D01*
X165424Y185500D01*
D02*
G37*
G36*
X163000D02*
X161576D01*
X161631Y185226D01*
X162069Y184569D01*
X162726Y184131D01*
X163000Y184076D01*
Y185500D01*
D02*
G37*
G36*
X346500Y185424D02*
Y184000D01*
X347924D01*
X347869Y184274D01*
X347431Y184931D01*
X346774Y185369D01*
X346500Y185424D01*
D02*
G37*
G36*
X345500D02*
X345226Y185369D01*
X344569Y184931D01*
X344131Y184274D01*
X344076Y184000D01*
X345500D01*
Y185424D01*
D02*
G37*
G36*
X284500Y186405D02*
X283962Y186298D01*
X283507Y185994D01*
X283202Y185538D01*
X283095Y185000D01*
X283202Y184462D01*
X283507Y184007D01*
X283962Y183702D01*
X284500Y183595D01*
X285038Y183702D01*
X285493Y184007D01*
X285798Y184462D01*
X285905Y185000D01*
X285798Y185538D01*
X285493Y185994D01*
X285038Y186298D01*
X284500Y186405D01*
D02*
G37*
G36*
X295424Y184500D02*
X294000D01*
Y183076D01*
X294274Y183131D01*
X294931Y183569D01*
X295369Y184226D01*
X295424Y184500D01*
D02*
G37*
G36*
X293000D02*
X291576D01*
X291631Y184226D01*
X292069Y183569D01*
X292726Y183131D01*
X293000Y183076D01*
Y184500D01*
D02*
G37*
G36*
X364000Y184905D02*
X363462Y184798D01*
X363007Y184494D01*
X362702Y184038D01*
X362595Y183500D01*
X362702Y182962D01*
X363007Y182507D01*
X363462Y182202D01*
X364000Y182095D01*
X364538Y182202D01*
X364993Y182507D01*
X365298Y182962D01*
X365405Y183500D01*
X365298Y184038D01*
X364993Y184494D01*
X364538Y184798D01*
X364000Y184905D01*
D02*
G37*
G36*
X332500D02*
X331962Y184798D01*
X331507Y184494D01*
X331202Y184038D01*
X331095Y183500D01*
X331202Y182962D01*
X331507Y182507D01*
X331962Y182202D01*
X332500Y182095D01*
X333038Y182202D01*
X333493Y182507D01*
X333798Y182962D01*
X333905Y183500D01*
X333798Y184038D01*
X333493Y184494D01*
X333038Y184798D01*
X332500Y184905D01*
D02*
G37*
G36*
X102924Y183500D02*
X101500D01*
Y182076D01*
X101774Y182131D01*
X102431Y182569D01*
X102869Y183226D01*
X102924Y183500D01*
D02*
G37*
G36*
X100500D02*
X99076D01*
X99131Y183226D01*
X99569Y182569D01*
X100226Y182131D01*
X100500Y182076D01*
Y183500D01*
D02*
G37*
G36*
X272000Y183187D02*
Y181764D01*
X273424D01*
X273369Y182038D01*
X272931Y182694D01*
X272274Y183133D01*
X272000Y183187D01*
D02*
G37*
G36*
X271000D02*
X270726Y183133D01*
X270069Y182694D01*
X269631Y182038D01*
X269576Y181764D01*
X271000D01*
Y183187D01*
D02*
G37*
G36*
X347924Y183000D02*
X343884D01*
X343226Y182869D01*
X342569Y182431D01*
X342131Y181774D01*
X342076Y181500D01*
X346116D01*
X346774Y181631D01*
X347431Y182069D01*
X347869Y182726D01*
X347924Y183000D01*
D02*
G37*
G36*
X243500Y182424D02*
Y181000D01*
X244924D01*
X244869Y181274D01*
X244431Y181931D01*
X243774Y182369D01*
X243500Y182424D01*
D02*
G37*
G36*
X242500D02*
X242226Y182369D01*
X241569Y181931D01*
X241131Y181274D01*
X241076Y181000D01*
X242500D01*
Y182424D01*
D02*
G37*
G36*
X154000Y183405D02*
X153462Y183298D01*
X153006Y182993D01*
X152702Y182538D01*
X152595Y182000D01*
X152702Y181462D01*
X153006Y181007D01*
X153462Y180702D01*
X154000Y180595D01*
X154538Y180702D01*
X154993Y181007D01*
X155298Y181462D01*
X155405Y182000D01*
X155298Y182538D01*
X154993Y182993D01*
X154538Y183298D01*
X154000Y183405D01*
D02*
G37*
G36*
X123000D02*
X122462Y183298D01*
X122006Y182993D01*
X121702Y182538D01*
X121595Y182000D01*
X121702Y181462D01*
X122006Y181007D01*
X122462Y180702D01*
X123000Y180595D01*
X123538Y180702D01*
X123994Y181007D01*
X124298Y181462D01*
X124405Y182000D01*
X124298Y182538D01*
X123994Y182993D01*
X123538Y183298D01*
X123000Y183405D01*
D02*
G37*
G36*
X361000Y181424D02*
Y180000D01*
X362424D01*
X362369Y180274D01*
X361931Y180931D01*
X361274Y181369D01*
X361000Y181424D01*
D02*
G37*
G36*
X360000D02*
X359726Y181369D01*
X359069Y180931D01*
X358631Y180274D01*
X358576Y180000D01*
X360000D01*
Y181424D01*
D02*
G37*
G36*
X293000D02*
X292726Y181369D01*
X292069Y180931D01*
X291631Y180274D01*
X291576Y180000D01*
X293000D01*
Y181424D01*
D02*
G37*
G36*
X356433Y182472D02*
X355895Y182365D01*
X355440Y182060D01*
X355135Y181605D01*
X355028Y181067D01*
X355135Y180529D01*
X355440Y180073D01*
X355895Y179769D01*
X356433Y179662D01*
X356971Y179769D01*
X357427Y180073D01*
X357731Y180529D01*
X357838Y181067D01*
X357731Y181605D01*
X357427Y182060D01*
X356971Y182365D01*
X356433Y182472D01*
D02*
G37*
G36*
X273424Y180764D02*
X272000D01*
Y179340D01*
X272274Y179395D01*
X272931Y179833D01*
X273369Y180490D01*
X273424Y180764D01*
D02*
G37*
G36*
X271000D02*
X269576D01*
X269631Y180490D01*
X270069Y179833D01*
X270726Y179395D01*
X271000Y179340D01*
Y180764D01*
D02*
G37*
G36*
X345960Y180500D02*
X342076D01*
X342131Y180226D01*
X342569Y179569D01*
X343226Y179131D01*
X343690Y179039D01*
X344005Y178931D01*
X344040Y178614D01*
X347924D01*
X347869Y178888D01*
X347431Y179545D01*
X346774Y179983D01*
X346310Y180076D01*
X345995Y180183D01*
X345960Y180500D01*
D02*
G37*
G36*
X244924Y180000D02*
X243500D01*
Y178576D01*
X243774Y178631D01*
X244431Y179069D01*
X244869Y179726D01*
X244924Y180000D01*
D02*
G37*
G36*
X242500D02*
X241076D01*
X241131Y179726D01*
X241569Y179069D01*
X242226Y178631D01*
X242500Y178576D01*
Y180000D01*
D02*
G37*
G36*
X322000Y179924D02*
Y178500D01*
X323424D01*
X323369Y178774D01*
X322931Y179431D01*
X322274Y179869D01*
X322000Y179924D01*
D02*
G37*
G36*
X321000D02*
X320726Y179869D01*
X320069Y179431D01*
X319631Y178774D01*
X319576Y178500D01*
X321000D01*
Y179924D01*
D02*
G37*
G36*
X317000D02*
Y178500D01*
X318424D01*
X318369Y178774D01*
X317931Y179431D01*
X317274Y179869D01*
X317000Y179924D01*
D02*
G37*
G36*
X316000D02*
X315726Y179869D01*
X315069Y179431D01*
X314631Y178774D01*
X314576Y178500D01*
X316000D01*
Y179924D01*
D02*
G37*
G36*
X312000D02*
Y178500D01*
X313424D01*
X313369Y178774D01*
X312931Y179431D01*
X312274Y179869D01*
X312000Y179924D01*
D02*
G37*
G36*
X311000D02*
X310726Y179869D01*
X310069Y179431D01*
X309631Y178774D01*
X309576Y178500D01*
X311000D01*
Y179924D01*
D02*
G37*
G36*
X307000D02*
Y178500D01*
X308424D01*
X308369Y178774D01*
X307931Y179431D01*
X307274Y179869D01*
X307000Y179924D01*
D02*
G37*
G36*
X306000D02*
X305726Y179869D01*
X305069Y179431D01*
X304631Y178774D01*
X304576Y178500D01*
X306000D01*
Y179924D01*
D02*
G37*
G36*
X302000D02*
Y178500D01*
X303424D01*
X303369Y178774D01*
X302931Y179431D01*
X302274Y179869D01*
X302000Y179924D01*
D02*
G37*
G36*
X301000D02*
X300726Y179869D01*
X300069Y179431D01*
X299631Y178774D01*
X299576Y178500D01*
X301000D01*
Y179924D01*
D02*
G37*
G36*
X297000D02*
Y178500D01*
X298424D01*
X298369Y178774D01*
X297931Y179431D01*
X297274Y179869D01*
X297000Y179924D01*
D02*
G37*
G36*
X136500Y179424D02*
Y178000D01*
X137924D01*
X137869Y178274D01*
X137431Y178931D01*
X136774Y179369D01*
X136500Y179424D01*
D02*
G37*
G36*
X135500D02*
X135226Y179369D01*
X134569Y178931D01*
X134131Y178274D01*
X134076Y178000D01*
X135500D01*
Y179424D01*
D02*
G37*
G36*
X362424Y179000D02*
X361000D01*
Y177576D01*
X361274Y177631D01*
X361931Y178069D01*
X362369Y178726D01*
X362424Y179000D01*
D02*
G37*
G36*
X360000D02*
X358576D01*
X358631Y178726D01*
X359069Y178069D01*
X359726Y177631D01*
X360000Y177576D01*
Y179000D01*
D02*
G37*
G36*
X293000D02*
X291576D01*
X291631Y178726D01*
X292069Y178069D01*
X292726Y177631D01*
X293000Y177576D01*
Y179000D01*
D02*
G37*
G36*
X186000Y178924D02*
Y177500D01*
X187424D01*
X187369Y177774D01*
X186931Y178431D01*
X186274Y178869D01*
X186000Y178924D01*
D02*
G37*
G36*
X185000D02*
X184726Y178869D01*
X184069Y178431D01*
X183631Y177774D01*
X183576Y177500D01*
X185000D01*
Y178924D01*
D02*
G37*
G36*
X332500Y179905D02*
X331962Y179798D01*
X331507Y179493D01*
X331202Y179038D01*
X331095Y178500D01*
X331202Y177962D01*
X331507Y177506D01*
X331962Y177202D01*
X332500Y177095D01*
X333038Y177202D01*
X333493Y177506D01*
X333798Y177962D01*
X333905Y178500D01*
X333798Y179038D01*
X333493Y179493D01*
X333038Y179798D01*
X332500Y179905D01*
D02*
G37*
G36*
X131500Y177924D02*
Y176500D01*
X132924D01*
X132869Y176774D01*
X132431Y177431D01*
X131774Y177869D01*
X131500Y177924D01*
D02*
G37*
G36*
X130500D02*
X130226Y177869D01*
X129569Y177431D01*
X129131Y176774D01*
X129076Y176500D01*
X130500D01*
Y177924D01*
D02*
G37*
G36*
X101500D02*
Y176500D01*
X102924D01*
X102869Y176774D01*
X102431Y177431D01*
X101774Y177869D01*
X101500Y177924D01*
D02*
G37*
G36*
X100500D02*
X100226Y177869D01*
X99569Y177431D01*
X99131Y176774D01*
X99076Y176500D01*
X100500D01*
Y177924D01*
D02*
G37*
G36*
X347924Y177614D02*
X346500D01*
Y176190D01*
X346774Y176245D01*
X347431Y176684D01*
X347869Y177340D01*
X347924Y177614D01*
D02*
G37*
G36*
X345500D02*
X344076D01*
X344131Y177340D01*
X344569Y176684D01*
X345226Y176245D01*
X345500Y176190D01*
Y177614D01*
D02*
G37*
G36*
X323424Y177500D02*
X322000D01*
Y176076D01*
X322274Y176131D01*
X322931Y176569D01*
X323369Y177226D01*
X323424Y177500D01*
D02*
G37*
G36*
X321000D02*
X319576D01*
X319631Y177226D01*
X320069Y176569D01*
X320726Y176131D01*
X321000Y176076D01*
Y177500D01*
D02*
G37*
G36*
X318424D02*
X317000D01*
Y176076D01*
X317274Y176131D01*
X317931Y176569D01*
X318369Y177226D01*
X318424Y177500D01*
D02*
G37*
G36*
X316000D02*
X314576D01*
X314631Y177226D01*
X315069Y176569D01*
X315726Y176131D01*
X316000Y176076D01*
Y177500D01*
D02*
G37*
G36*
X313424D02*
X312000D01*
Y176076D01*
X312274Y176131D01*
X312931Y176569D01*
X313369Y177226D01*
X313424Y177500D01*
D02*
G37*
G36*
X311000D02*
X309576D01*
X309631Y177226D01*
X310069Y176569D01*
X310726Y176131D01*
X311000Y176076D01*
Y177500D01*
D02*
G37*
G36*
X308424D02*
X307000D01*
Y176076D01*
X307274Y176131D01*
X307931Y176569D01*
X308369Y177226D01*
X308424Y177500D01*
D02*
G37*
G36*
X306000D02*
X304576D01*
X304631Y177226D01*
X305069Y176569D01*
X305726Y176131D01*
X306000Y176076D01*
Y177500D01*
D02*
G37*
G36*
X303424D02*
X302000D01*
Y176076D01*
X302274Y176131D01*
X302931Y176569D01*
X303369Y177226D01*
X303424Y177500D01*
D02*
G37*
G36*
X301000D02*
X299576D01*
X299631Y177226D01*
X300069Y176569D01*
X300726Y176131D01*
X301000Y176076D01*
Y177500D01*
D02*
G37*
G36*
X298424D02*
X297000D01*
Y176076D01*
X297274Y176131D01*
X297931Y176569D01*
X298369Y177226D01*
X298424Y177500D01*
D02*
G37*
G36*
X294000Y181424D02*
Y179500D01*
Y177576D01*
X294274Y177631D01*
X294575Y177506D01*
X294631Y177226D01*
X295069Y176569D01*
X295726Y176131D01*
X296000Y176076D01*
Y178000D01*
Y179924D01*
X295726Y179869D01*
X295425Y179994D01*
X295369Y180274D01*
X294931Y180931D01*
X294274Y181369D01*
X294000Y181424D01*
D02*
G37*
G36*
X207500Y177424D02*
Y176000D01*
X208924D01*
X208869Y176274D01*
X208431Y176931D01*
X207774Y177369D01*
X207500Y177424D01*
D02*
G37*
G36*
X206500D02*
X206226Y177369D01*
X205569Y176931D01*
X205131Y176274D01*
X205076Y176000D01*
X206500D01*
Y177424D01*
D02*
G37*
G36*
X137924Y177000D02*
X134076D01*
X134131Y176726D01*
X134569Y176069D01*
X135117Y175704D01*
X135076Y175500D01*
X138924D01*
X138869Y175774D01*
X138431Y176431D01*
X137883Y176796D01*
X137924Y177000D01*
D02*
G37*
G36*
X287228Y178177D02*
X286691Y178070D01*
X286235Y177765D01*
X285930Y177309D01*
X285823Y176772D01*
X285930Y176234D01*
X286235Y175778D01*
X286691Y175474D01*
X287228Y175367D01*
X287766Y175474D01*
X288222Y175778D01*
X288526Y176234D01*
X288633Y176772D01*
X288526Y177309D01*
X288222Y177765D01*
X287766Y178070D01*
X287228Y178177D01*
D02*
G37*
G36*
X187424Y176500D02*
X186000D01*
Y175076D01*
X186274Y175131D01*
X186931Y175569D01*
X187369Y176226D01*
X187424Y176500D01*
D02*
G37*
G36*
X185000D02*
X183576D01*
X183631Y176226D01*
X184069Y175569D01*
X184726Y175131D01*
X185000Y175076D01*
Y176500D01*
D02*
G37*
G36*
X193000Y176424D02*
Y175000D01*
X194424D01*
X194369Y175274D01*
X193931Y175931D01*
X193274Y176369D01*
X193000Y176424D01*
D02*
G37*
G36*
X192000D02*
X191726Y176369D01*
X191069Y175931D01*
X190631Y175274D01*
X190576Y175000D01*
X192000D01*
Y176424D01*
D02*
G37*
G36*
X132924Y175500D02*
X131500D01*
Y174076D01*
X131774Y174131D01*
X132431Y174569D01*
X132869Y175226D01*
X132924Y175500D01*
D02*
G37*
G36*
X130500D02*
X129076D01*
X129131Y175226D01*
X129569Y174569D01*
X130226Y174131D01*
X130500Y174076D01*
Y175500D01*
D02*
G37*
G36*
X102924D02*
X101500D01*
Y174076D01*
X101774Y174131D01*
X102431Y174569D01*
X102869Y175226D01*
X102924Y175500D01*
D02*
G37*
G36*
X100500D02*
X99076D01*
X99131Y175226D01*
X99569Y174569D01*
X100226Y174131D01*
X100500Y174076D01*
Y175500D01*
D02*
G37*
G36*
X344665Y175424D02*
Y174000D01*
X346089D01*
X346035Y174274D01*
X345596Y174931D01*
X344940Y175369D01*
X344665Y175424D01*
D02*
G37*
G36*
X343665D02*
X343391Y175369D01*
X342735Y174931D01*
X342296Y174274D01*
X342242Y174000D01*
X343665D01*
Y175424D01*
D02*
G37*
G36*
X208924Y175000D02*
X207500D01*
Y173576D01*
X207774Y173631D01*
X208431Y174069D01*
X208869Y174726D01*
X208924Y175000D01*
D02*
G37*
G36*
X206500D02*
X205076D01*
X205131Y174726D01*
X205569Y174069D01*
X206226Y173631D01*
X206500Y173576D01*
Y175000D01*
D02*
G37*
G36*
X138924Y174500D02*
X137500D01*
Y173076D01*
X137774Y173131D01*
X138431Y173569D01*
X138869Y174226D01*
X138924Y174500D01*
D02*
G37*
G36*
X136500D02*
X135076D01*
X135131Y174226D01*
X135569Y173569D01*
X136226Y173131D01*
X136500Y173076D01*
Y174500D01*
D02*
G37*
G36*
X194424Y174000D02*
X193000D01*
Y172576D01*
X193274Y172631D01*
X193931Y173069D01*
X194369Y173726D01*
X194424Y174000D01*
D02*
G37*
G36*
X192000D02*
X190576D01*
X190631Y173726D01*
X191069Y173069D01*
X191726Y172631D01*
X192000Y172576D01*
Y174000D01*
D02*
G37*
G36*
X272000Y173739D02*
Y172315D01*
X273424D01*
X273369Y172589D01*
X272931Y173246D01*
X272274Y173684D01*
X272000Y173739D01*
D02*
G37*
G36*
X271000D02*
X270726Y173684D01*
X270069Y173246D01*
X269631Y172589D01*
X269576Y172315D01*
X271000D01*
Y173739D01*
D02*
G37*
G36*
X332110Y174795D02*
X331573Y174688D01*
X331117Y174383D01*
X330812Y173927D01*
X330705Y173390D01*
X330812Y172852D01*
X331117Y172396D01*
X331573Y172092D01*
X332110Y171985D01*
X332648Y172092D01*
X333104Y172396D01*
X333408Y172852D01*
X333515Y173390D01*
X333408Y173927D01*
X333104Y174383D01*
X332648Y174688D01*
X332110Y174795D01*
D02*
G37*
G36*
X149000Y176405D02*
X148462Y176298D01*
X148006Y175994D01*
X147702Y175538D01*
X147595Y175000D01*
X147702Y174462D01*
X148006Y174006D01*
X148462Y173702D01*
X149000Y173595D01*
X149538Y173702D01*
X149850Y173911D01*
X150210Y173550D01*
X150202Y173538D01*
X150095Y173000D01*
X150202Y172462D01*
X150506Y172006D01*
X150962Y171702D01*
X151500Y171595D01*
X152038Y171702D01*
X152494Y172006D01*
X152798Y172462D01*
X152905Y173000D01*
X152798Y173538D01*
X152494Y173994D01*
X152038Y174298D01*
X151500Y174405D01*
X150962Y174298D01*
X150650Y174089D01*
X150290Y174450D01*
X150298Y174462D01*
X150405Y175000D01*
X150298Y175538D01*
X149994Y175994D01*
X149538Y176298D01*
X149000Y176405D01*
D02*
G37*
G36*
X346089Y173000D02*
X344665D01*
Y171576D01*
X344940Y171631D01*
X345596Y172069D01*
X346035Y172726D01*
X346089Y173000D01*
D02*
G37*
G36*
X343665D02*
X342242D01*
X342296Y172726D01*
X342735Y172069D01*
X343391Y171631D01*
X343665Y171576D01*
Y173000D01*
D02*
G37*
G36*
X105000Y173405D02*
X104462Y173298D01*
X104007Y172994D01*
X103702Y172538D01*
X103595Y172000D01*
X103702Y171462D01*
X104007Y171007D01*
X104462Y170702D01*
X105000Y170595D01*
X105538Y170702D01*
X105993Y171007D01*
X106298Y171462D01*
X106405Y172000D01*
X106298Y172538D01*
X105993Y172994D01*
X105538Y173298D01*
X105000Y173405D01*
D02*
G37*
G36*
X132000Y171424D02*
Y170000D01*
X133424D01*
X133369Y170274D01*
X132931Y170931D01*
X132274Y171369D01*
X132000Y171424D01*
D02*
G37*
G36*
X131000D02*
X130726Y171369D01*
X130069Y170931D01*
X129631Y170274D01*
X129576Y170000D01*
X131000D01*
Y171424D01*
D02*
G37*
G36*
X273424Y171315D02*
X272000D01*
Y169891D01*
X272274Y169946D01*
X272931Y170384D01*
X273369Y171041D01*
X273424Y171315D01*
D02*
G37*
G36*
X271000D02*
X269576D01*
X269631Y171041D01*
X270069Y170384D01*
X270726Y169946D01*
X271000Y169891D01*
Y171315D01*
D02*
G37*
G36*
X326728Y171195D02*
Y169772D01*
X328152D01*
X328098Y170046D01*
X327659Y170702D01*
X327003Y171141D01*
X326728Y171195D01*
D02*
G37*
G36*
X325728D02*
X325454Y171141D01*
X324798Y170702D01*
X324359Y170046D01*
X324305Y169772D01*
X325728D01*
Y171195D01*
D02*
G37*
G36*
X344665Y170589D02*
Y169165D01*
X346089D01*
X346035Y169440D01*
X345596Y170096D01*
X344940Y170535D01*
X344665Y170589D01*
D02*
G37*
G36*
X343665D02*
X343391Y170535D01*
X342735Y170096D01*
X342296Y169440D01*
X342242Y169165D01*
X343665D01*
Y170589D01*
D02*
G37*
G36*
X231000Y169924D02*
Y168500D01*
X232424D01*
X232369Y168774D01*
X231931Y169431D01*
X231274Y169869D01*
X231000Y169924D01*
D02*
G37*
G36*
X230000D02*
X229726Y169869D01*
X229069Y169431D01*
X228631Y168774D01*
X228576Y168500D01*
X230000D01*
Y169924D01*
D02*
G37*
G36*
X133616Y169000D02*
X129576D01*
X129629Y168733D01*
X129610Y168705D01*
X129295Y168390D01*
X129267Y168371D01*
X129000Y168424D01*
Y167000D01*
X130424D01*
X130371Y167267D01*
X130390Y167295D01*
X130705Y167610D01*
X130733Y167629D01*
X131384Y167500D01*
X135424D01*
X135369Y167774D01*
X134931Y168431D01*
X134274Y168869D01*
X133616Y169000D01*
D02*
G37*
G36*
X118862Y171043D02*
X118324Y170936D01*
X117869Y170631D01*
X117564Y170176D01*
X117457Y169638D01*
X117564Y169100D01*
X117869Y168644D01*
X118324Y168340D01*
X118862Y168233D01*
X119400Y168340D01*
X119855Y168644D01*
X120160Y169100D01*
X120267Y169638D01*
X120160Y170176D01*
X119855Y170631D01*
X119400Y170936D01*
X118862Y171043D01*
D02*
G37*
G36*
X321500Y170405D02*
X320962Y170298D01*
X320507Y169993D01*
X320202Y169538D01*
X320095Y169000D01*
X320202Y168462D01*
X320507Y168007D01*
X320962Y167702D01*
X321500Y167595D01*
X322038Y167702D01*
X322493Y168007D01*
X322798Y168462D01*
X322905Y169000D01*
X322798Y169538D01*
X322493Y169993D01*
X322038Y170298D01*
X321500Y170405D01*
D02*
G37*
G36*
X316500D02*
X315962Y170298D01*
X315507Y169993D01*
X315202Y169538D01*
X315095Y169000D01*
X315202Y168462D01*
X315507Y168007D01*
X315962Y167702D01*
X316500Y167595D01*
X317038Y167702D01*
X317493Y168007D01*
X317798Y168462D01*
X317905Y169000D01*
X317798Y169538D01*
X317493Y169993D01*
X317038Y170298D01*
X316500Y170405D01*
D02*
G37*
G36*
X311500D02*
X310962Y170298D01*
X310507Y169993D01*
X310202Y169538D01*
X310095Y169000D01*
X310202Y168462D01*
X310507Y168007D01*
X310962Y167702D01*
X311500Y167595D01*
X312038Y167702D01*
X312493Y168007D01*
X312798Y168462D01*
X312905Y169000D01*
X312798Y169538D01*
X312493Y169993D01*
X312038Y170298D01*
X311500Y170405D01*
D02*
G37*
G36*
X306500D02*
X305962Y170298D01*
X305507Y169993D01*
X305202Y169538D01*
X305095Y169000D01*
X305202Y168462D01*
X305507Y168007D01*
X305962Y167702D01*
X306500Y167595D01*
X307038Y167702D01*
X307493Y168007D01*
X307798Y168462D01*
X307905Y169000D01*
X307798Y169538D01*
X307493Y169993D01*
X307038Y170298D01*
X306500Y170405D01*
D02*
G37*
G36*
X301500D02*
X300962Y170298D01*
X300507Y169993D01*
X300202Y169538D01*
X300095Y169000D01*
X300202Y168462D01*
X300507Y168007D01*
X300962Y167702D01*
X301500Y167595D01*
X302038Y167702D01*
X302493Y168007D01*
X302798Y168462D01*
X302905Y169000D01*
X302798Y169538D01*
X302493Y169993D01*
X302038Y170298D01*
X301500Y170405D01*
D02*
G37*
G36*
X296500D02*
X295962Y170298D01*
X295507Y169993D01*
X295202Y169538D01*
X295095Y169000D01*
X295202Y168462D01*
X295507Y168007D01*
X295962Y167702D01*
X296500Y167595D01*
X297038Y167702D01*
X297493Y168007D01*
X297798Y168462D01*
X297905Y169000D01*
X297798Y169538D01*
X297493Y169993D01*
X297038Y170298D01*
X296500Y170405D01*
D02*
G37*
G36*
X291500D02*
X290962Y170298D01*
X290507Y169993D01*
X290202Y169538D01*
X290095Y169000D01*
X290202Y168462D01*
X290507Y168007D01*
X290962Y167702D01*
X291500Y167595D01*
X292038Y167702D01*
X292493Y168007D01*
X292798Y168462D01*
X292905Y169000D01*
X292798Y169538D01*
X292493Y169993D01*
X292038Y170298D01*
X291500Y170405D01*
D02*
G37*
G36*
X328152Y168772D02*
X326728D01*
Y167348D01*
X327003Y167403D01*
X327659Y167841D01*
X328098Y168497D01*
X328152Y168772D01*
D02*
G37*
G36*
X325728D02*
X324305D01*
X324359Y168497D01*
X324798Y167841D01*
X325454Y167403D01*
X325728Y167348D01*
Y168772D01*
D02*
G37*
G36*
X128000Y168424D02*
X127726Y168369D01*
X127069Y167931D01*
X126631Y167274D01*
X126576Y167000D01*
X128000D01*
Y168424D01*
D02*
G37*
G36*
X346089Y168165D02*
X344665D01*
Y166742D01*
X344940Y166796D01*
X345596Y167235D01*
X346035Y167891D01*
X346089Y168165D01*
D02*
G37*
G36*
X343665D02*
X342242D01*
X342296Y167891D01*
X342735Y167235D01*
X343391Y166796D01*
X343665Y166742D01*
Y168165D01*
D02*
G37*
G36*
X232424Y167500D02*
X231000D01*
Y166076D01*
X231274Y166131D01*
X231931Y166569D01*
X232369Y167226D01*
X232424Y167500D01*
D02*
G37*
G36*
X230000D02*
X228576D01*
X228631Y167226D01*
X229069Y166569D01*
X229726Y166131D01*
X230000Y166076D01*
Y167500D01*
D02*
G37*
G36*
X270000Y167424D02*
Y166000D01*
X271424D01*
X271369Y166274D01*
X270931Y166931D01*
X270274Y167369D01*
X270000Y167424D01*
D02*
G37*
G36*
X269000D02*
X268726Y167369D01*
X268069Y166931D01*
X267631Y166274D01*
X267576Y166000D01*
X269000D01*
Y167424D01*
D02*
G37*
G36*
X135424Y166500D02*
X134000D01*
Y165076D01*
X134274Y165131D01*
X134931Y165569D01*
X135369Y166226D01*
X135424Y166500D01*
D02*
G37*
G36*
X133000D02*
X131576D01*
X131631Y166226D01*
X132069Y165569D01*
X132726Y165131D01*
X133000Y165076D01*
Y166500D01*
D02*
G37*
G36*
X130424Y166000D02*
X129000D01*
Y164576D01*
X129274Y164631D01*
X129931Y165069D01*
X130369Y165726D01*
X130424Y166000D01*
D02*
G37*
G36*
X128000D02*
X126576D01*
X126631Y165726D01*
X127069Y165069D01*
X127726Y164631D01*
X128000Y164576D01*
Y166000D01*
D02*
G37*
G36*
X112000Y165924D02*
Y164500D01*
X113424D01*
X113369Y164774D01*
X112931Y165431D01*
X112274Y165869D01*
X112000Y165924D01*
D02*
G37*
G36*
X111000D02*
X110726Y165869D01*
X110069Y165431D01*
X109631Y164774D01*
X109576Y164500D01*
X111000D01*
Y165924D01*
D02*
G37*
G36*
X338039Y166944D02*
X337502Y166837D01*
X337046Y166533D01*
X336741Y166077D01*
X336634Y165539D01*
X336741Y165002D01*
X337046Y164546D01*
X337502Y164241D01*
X338039Y164134D01*
X338577Y164241D01*
X339033Y164546D01*
X339337Y165002D01*
X339444Y165539D01*
X339337Y166077D01*
X339033Y166533D01*
X338577Y166837D01*
X338039Y166944D01*
D02*
G37*
G36*
X278500Y166905D02*
X277962Y166798D01*
X277507Y166493D01*
X277202Y166038D01*
X277095Y165500D01*
X277202Y164962D01*
X277507Y164506D01*
X277962Y164202D01*
X278500Y164095D01*
X279038Y164202D01*
X279493Y164506D01*
X279798Y164962D01*
X279905Y165500D01*
X279798Y166038D01*
X279493Y166493D01*
X279038Y166798D01*
X278500Y166905D01*
D02*
G37*
G36*
X152000Y165424D02*
Y164000D01*
X153424D01*
X153369Y164274D01*
X152931Y164931D01*
X152274Y165369D01*
X152000Y165424D01*
D02*
G37*
G36*
X151000D02*
X150726Y165369D01*
X150069Y164931D01*
X149631Y164274D01*
X149576Y164000D01*
X151000D01*
Y165424D01*
D02*
G37*
G36*
X271424Y165000D02*
X270000D01*
Y163576D01*
X270274Y163631D01*
X270931Y164069D01*
X271369Y164726D01*
X271424Y165000D01*
D02*
G37*
G36*
X269000D02*
X267576D01*
X267631Y164726D01*
X268069Y164069D01*
X268726Y163631D01*
X269000Y163576D01*
Y165000D01*
D02*
G37*
G36*
X120500Y165405D02*
X119962Y165298D01*
X119507Y164994D01*
X119202Y164538D01*
X119095Y164000D01*
X119202Y163462D01*
X119507Y163006D01*
X119962Y162702D01*
X120500Y162595D01*
X121038Y162702D01*
X121493Y163006D01*
X121798Y163462D01*
X121905Y164000D01*
X121798Y164538D01*
X121493Y164994D01*
X121038Y165298D01*
X120500Y165405D01*
D02*
G37*
G36*
X171000Y163924D02*
Y162500D01*
X172424D01*
X172369Y162774D01*
X171931Y163431D01*
X171274Y163869D01*
X171000Y163924D01*
D02*
G37*
G36*
X170000D02*
X169726Y163869D01*
X169069Y163431D01*
X168631Y162774D01*
X168576Y162500D01*
X170000D01*
Y163924D01*
D02*
G37*
G36*
X104000D02*
Y162500D01*
X105424D01*
X105369Y162774D01*
X104931Y163431D01*
X104274Y163869D01*
X104000Y163924D01*
D02*
G37*
G36*
X103000D02*
X102726Y163869D01*
X102069Y163431D01*
X101631Y162774D01*
X101576Y162500D01*
X103000D01*
Y163924D01*
D02*
G37*
G36*
X146500Y164905D02*
X145962Y164798D01*
X145507Y164494D01*
X145202Y164038D01*
X145095Y163500D01*
X145202Y162962D01*
X145507Y162506D01*
X145962Y162202D01*
X146500Y162095D01*
X147038Y162202D01*
X147494Y162506D01*
X147798Y162962D01*
X147905Y163500D01*
X147798Y164038D01*
X147494Y164494D01*
X147038Y164798D01*
X146500Y164905D01*
D02*
G37*
G36*
X113424Y163500D02*
X112000D01*
Y162076D01*
X112274Y162131D01*
X112931Y162569D01*
X113369Y163226D01*
X113424Y163500D01*
D02*
G37*
G36*
X111000D02*
X109576D01*
X109631Y163226D01*
X110069Y162569D01*
X110726Y162131D01*
X111000Y162076D01*
Y163500D01*
D02*
G37*
G36*
X179500Y163424D02*
Y162000D01*
X180924D01*
X180869Y162274D01*
X180431Y162931D01*
X179774Y163369D01*
X179500Y163424D01*
D02*
G37*
G36*
X178500D02*
X178226Y163369D01*
X177569Y162931D01*
X177131Y162274D01*
X177076Y162000D01*
X178500D01*
Y163424D01*
D02*
G37*
G36*
X335500Y163384D02*
Y161961D01*
X336924D01*
X336869Y162235D01*
X336431Y162891D01*
X335774Y163330D01*
X335500Y163384D01*
D02*
G37*
G36*
X334500D02*
X334226Y163330D01*
X333569Y162891D01*
X333131Y162235D01*
X333076Y161961D01*
X334500D01*
Y163384D01*
D02*
G37*
G36*
X281539D02*
Y161961D01*
X282963D01*
X282909Y162235D01*
X282470Y162891D01*
X281814Y163330D01*
X281539Y163384D01*
D02*
G37*
G36*
X280539D02*
X280265Y163330D01*
X279609Y162891D01*
X279170Y162235D01*
X279116Y161961D01*
X280539D01*
Y163384D01*
D02*
G37*
G36*
X153424Y163000D02*
X152000D01*
Y161576D01*
X152274Y161631D01*
X152931Y162069D01*
X153369Y162726D01*
X153424Y163000D01*
D02*
G37*
G36*
X151000D02*
X149576D01*
X149631Y162726D01*
X150069Y162069D01*
X150726Y161631D01*
X151000Y161576D01*
Y163000D01*
D02*
G37*
G36*
X172424Y161500D02*
X171000D01*
Y160076D01*
X171274Y160131D01*
X171931Y160569D01*
X172369Y161226D01*
X172424Y161500D01*
D02*
G37*
G36*
X170000D02*
X168576D01*
X168631Y161226D01*
X169069Y160569D01*
X169726Y160131D01*
X170000Y160076D01*
Y161500D01*
D02*
G37*
G36*
X105424D02*
X104000D01*
Y160076D01*
X104274Y160131D01*
X104931Y160569D01*
X105369Y161226D01*
X105424Y161500D01*
D02*
G37*
G36*
X103000D02*
X101576D01*
X101631Y161226D01*
X102069Y160569D01*
X102726Y160131D01*
X103000Y160076D01*
Y161500D01*
D02*
G37*
G36*
X375500Y161424D02*
Y160000D01*
X376924D01*
X376869Y160274D01*
X376431Y160931D01*
X375774Y161369D01*
X375500Y161424D01*
D02*
G37*
G36*
X374500D02*
X374226Y161369D01*
X373569Y160931D01*
X373131Y160274D01*
X373076Y160000D01*
X374500D01*
Y161424D01*
D02*
G37*
G36*
X348500D02*
Y160000D01*
X349924D01*
X349869Y160274D01*
X349431Y160931D01*
X348774Y161369D01*
X348500Y161424D01*
D02*
G37*
G36*
X347500D02*
X347226Y161369D01*
X346569Y160931D01*
X346131Y160274D01*
X346076Y160000D01*
X347500D01*
Y161424D01*
D02*
G37*
G36*
X180924Y161000D02*
X179500D01*
Y159576D01*
X179774Y159631D01*
X180431Y160069D01*
X180869Y160726D01*
X180924Y161000D01*
D02*
G37*
G36*
X178500D02*
X177076D01*
X177131Y160726D01*
X177569Y160069D01*
X178226Y159631D01*
X178500Y159576D01*
Y161000D01*
D02*
G37*
G36*
X336924Y160961D02*
X335500D01*
Y159537D01*
X335774Y159591D01*
X336431Y160030D01*
X336869Y160686D01*
X336924Y160961D01*
D02*
G37*
G36*
X334500D02*
X333076D01*
X333131Y160686D01*
X333569Y160030D01*
X334226Y159591D01*
X334500Y159537D01*
Y160961D01*
D02*
G37*
G36*
X282963D02*
X281539D01*
Y159537D01*
X281814Y159591D01*
X282470Y160030D01*
X282909Y160686D01*
X282963Y160961D01*
D02*
G37*
G36*
X280539D02*
X279116D01*
X279170Y160686D01*
X279609Y160030D01*
X280265Y159591D01*
X280539Y159537D01*
Y160961D01*
D02*
G37*
G36*
X376924Y159000D02*
X375500D01*
Y157576D01*
X375774Y157631D01*
X376431Y158069D01*
X376869Y158726D01*
X376924Y159000D01*
D02*
G37*
G36*
X374500D02*
X373076D01*
X373131Y158726D01*
X373569Y158069D01*
X374226Y157631D01*
X374500Y157576D01*
Y159000D01*
D02*
G37*
G36*
X349924D02*
X348500D01*
Y157576D01*
X348774Y157631D01*
X349431Y158069D01*
X349869Y158726D01*
X349924Y159000D01*
D02*
G37*
G36*
X347500D02*
X346076D01*
X346131Y158726D01*
X346569Y158069D01*
X347226Y157631D01*
X347500Y157576D01*
Y159000D01*
D02*
G37*
G36*
X259500Y158924D02*
Y157500D01*
X260924D01*
X260869Y157774D01*
X260431Y158431D01*
X259774Y158869D01*
X259500Y158924D01*
D02*
G37*
G36*
X258500D02*
X258226Y158869D01*
X257569Y158431D01*
X257131Y157774D01*
X257076Y157500D01*
X258500D01*
Y158924D01*
D02*
G37*
G36*
X310862Y157924D02*
Y156500D01*
X312286D01*
X312231Y156774D01*
X311793Y157431D01*
X311137Y157869D01*
X310862Y157924D01*
D02*
G37*
G36*
X309862D02*
X309588Y157869D01*
X308932Y157431D01*
X308493Y156774D01*
X308439Y156500D01*
X309862D01*
Y157924D01*
D02*
G37*
G36*
X320311Y156735D02*
Y155311D01*
X321735D01*
X321680Y155585D01*
X321242Y156242D01*
X320585Y156680D01*
X320311Y156735D01*
D02*
G37*
G36*
X319311D02*
X319037Y156680D01*
X318380Y156242D01*
X317942Y155585D01*
X317887Y155311D01*
X319311D01*
Y156735D01*
D02*
G37*
G36*
X301413Y156510D02*
Y155087D01*
X302837D01*
X302783Y155361D01*
X302344Y156017D01*
X301688Y156456D01*
X301413Y156510D01*
D02*
G37*
G36*
X300413D02*
X300139Y156456D01*
X299483Y156017D01*
X299044Y155361D01*
X298990Y155087D01*
X300413D01*
Y156510D01*
D02*
G37*
G36*
X260924Y156500D02*
X259500D01*
Y155076D01*
X259774Y155131D01*
X260431Y155569D01*
X260869Y156226D01*
X260924Y156500D01*
D02*
G37*
G36*
X258500D02*
X257076D01*
X257131Y156226D01*
X257569Y155569D01*
X258226Y155131D01*
X258500Y155076D01*
Y156500D01*
D02*
G37*
G36*
X128500Y156905D02*
X127962Y156798D01*
X127506Y156493D01*
X127202Y156038D01*
X127095Y155500D01*
X127202Y154962D01*
X127506Y154507D01*
X127962Y154202D01*
X128500Y154095D01*
X129038Y154202D01*
X129493Y154507D01*
X129798Y154962D01*
X129905Y155500D01*
X129798Y156038D01*
X129493Y156493D01*
X129038Y156798D01*
X128500Y156905D01*
D02*
G37*
G36*
X312286Y155500D02*
X310862D01*
Y154076D01*
X311137Y154131D01*
X311793Y154569D01*
X312231Y155226D01*
X312286Y155500D01*
D02*
G37*
G36*
X309862D02*
X308439D01*
X308493Y155226D01*
X308932Y154569D01*
X309588Y154131D01*
X309862Y154076D01*
Y155500D01*
D02*
G37*
G36*
X133500Y155905D02*
X132962Y155798D01*
X132507Y155493D01*
X132202Y155038D01*
X132095Y154500D01*
X132202Y153962D01*
X132507Y153507D01*
X132962Y153202D01*
X133500Y153095D01*
X134038Y153202D01*
X134494Y153507D01*
X134798Y153962D01*
X134905Y154500D01*
X134798Y155038D01*
X134494Y155493D01*
X134038Y155798D01*
X133500Y155905D01*
D02*
G37*
G36*
X321735Y154311D02*
X320311D01*
Y152887D01*
X320585Y152942D01*
X321242Y153381D01*
X321680Y154037D01*
X321735Y154311D01*
D02*
G37*
G36*
X319311D02*
X317887D01*
X317942Y154037D01*
X318380Y153381D01*
X319037Y152942D01*
X319311Y152887D01*
Y154311D01*
D02*
G37*
G36*
X302837Y154086D02*
X301413D01*
Y152663D01*
X301688Y152717D01*
X302344Y153156D01*
X302783Y153812D01*
X302837Y154086D01*
D02*
G37*
G36*
X300413D02*
X298990D01*
X299044Y153812D01*
X299483Y153156D01*
X300139Y152717D01*
X300413Y152663D01*
Y154086D01*
D02*
G37*
G36*
X277000Y153924D02*
Y152500D01*
X278424D01*
X278369Y152774D01*
X277931Y153431D01*
X277274Y153869D01*
X277000Y153924D01*
D02*
G37*
G36*
X276000D02*
X275726Y153869D01*
X275069Y153431D01*
X274631Y152774D01*
X274576Y152500D01*
X276000D01*
Y153924D01*
D02*
G37*
G36*
X147000D02*
Y152500D01*
X148424D01*
X148369Y152774D01*
X147931Y153431D01*
X147274Y153869D01*
X147000Y153924D01*
D02*
G37*
G36*
X146000D02*
X145726Y153869D01*
X145069Y153431D01*
X144631Y152774D01*
X144576Y152500D01*
X146000D01*
Y153924D01*
D02*
G37*
G36*
X201000Y153424D02*
Y152000D01*
X202424D01*
X202369Y152274D01*
X201931Y152931D01*
X201274Y153369D01*
X201000Y153424D01*
D02*
G37*
G36*
X200000D02*
X199726Y153369D01*
X199069Y152931D01*
X198631Y152274D01*
X198576Y152000D01*
X200000D01*
Y153424D01*
D02*
G37*
G36*
X130638Y153905D02*
X130100Y153798D01*
X129645Y153493D01*
X129340Y153038D01*
X129233Y152500D01*
X129340Y151962D01*
X129645Y151506D01*
X130100Y151202D01*
X130638Y151095D01*
X131176Y151202D01*
X131631Y151506D01*
X131936Y151962D01*
X132043Y152500D01*
X131936Y153038D01*
X131631Y153493D01*
X131176Y153798D01*
X130638Y153905D01*
D02*
G37*
G36*
X314000Y151924D02*
Y150500D01*
X315424D01*
X315369Y150774D01*
X314931Y151431D01*
X314274Y151869D01*
X314000Y151924D01*
D02*
G37*
G36*
X313000D02*
X312726Y151869D01*
X312069Y151431D01*
X311631Y150774D01*
X311576Y150500D01*
X313000D01*
Y151924D01*
D02*
G37*
G36*
X278424Y151500D02*
X277000D01*
Y150076D01*
X277274Y150131D01*
X277931Y150569D01*
X278369Y151226D01*
X278424Y151500D01*
D02*
G37*
G36*
X276000D02*
X274576D01*
X274631Y151226D01*
X275069Y150569D01*
X275726Y150131D01*
X276000Y150076D01*
Y151500D01*
D02*
G37*
G36*
X148424D02*
X147000D01*
Y150076D01*
X147274Y150131D01*
X147931Y150569D01*
X148369Y151226D01*
X148424Y151500D01*
D02*
G37*
G36*
X146000D02*
X144576D01*
X144631Y151226D01*
X145069Y150569D01*
X145726Y150131D01*
X146000Y150076D01*
Y151500D01*
D02*
G37*
G36*
X202424Y151000D02*
X201000D01*
Y149576D01*
X201274Y149631D01*
X201931Y150069D01*
X202369Y150726D01*
X202424Y151000D01*
D02*
G37*
G36*
X200000D02*
X198576D01*
X198631Y150726D01*
X199069Y150069D01*
X199726Y149631D01*
X200000Y149576D01*
Y151000D01*
D02*
G37*
G36*
X153500Y150924D02*
Y149500D01*
X154924D01*
X154869Y149774D01*
X154431Y150431D01*
X153774Y150869D01*
X153500Y150924D01*
D02*
G37*
G36*
X152500D02*
X152226Y150869D01*
X151569Y150431D01*
X151131Y149774D01*
X151076Y149500D01*
X152500D01*
Y150924D01*
D02*
G37*
G36*
X101500Y150424D02*
Y149000D01*
X102924D01*
X102869Y149274D01*
X102431Y149931D01*
X101774Y150369D01*
X101500Y150424D01*
D02*
G37*
G36*
X100500D02*
X100226Y150369D01*
X99569Y149931D01*
X99131Y149274D01*
X99076Y149000D01*
X100500D01*
Y150424D01*
D02*
G37*
G36*
X315424Y149500D02*
X314000D01*
Y148076D01*
X314274Y148131D01*
X314931Y148569D01*
X315369Y149226D01*
X315424Y149500D01*
D02*
G37*
G36*
X313000D02*
X311576D01*
X311631Y149226D01*
X312069Y148569D01*
X312726Y148131D01*
X313000Y148076D01*
Y149500D01*
D02*
G37*
G36*
X154924Y148500D02*
X153500D01*
Y147076D01*
X153774Y147131D01*
X154431Y147569D01*
X154869Y148226D01*
X154924Y148500D01*
D02*
G37*
G36*
X152500D02*
X151076D01*
X151131Y148226D01*
X151569Y147569D01*
X152226Y147131D01*
X152500Y147076D01*
Y148500D01*
D02*
G37*
G36*
X102924Y148000D02*
X101500D01*
Y146576D01*
X101774Y146631D01*
X102431Y147069D01*
X102869Y147726D01*
X102924Y148000D01*
D02*
G37*
G36*
X100500D02*
X99076D01*
X99131Y147726D01*
X99569Y147069D01*
X100226Y146631D01*
X100500Y146576D01*
Y148000D01*
D02*
G37*
G36*
X140772Y147924D02*
Y146500D01*
X142195D01*
X142141Y146774D01*
X141702Y147431D01*
X141046Y147869D01*
X140772Y147924D01*
D02*
G37*
G36*
X139772D02*
X139497Y147869D01*
X138841Y147431D01*
X138402Y146774D01*
X138348Y146500D01*
X139772D01*
Y147924D01*
D02*
G37*
G36*
X258500Y146924D02*
Y145500D01*
X259924D01*
X259869Y145774D01*
X259431Y146431D01*
X258774Y146869D01*
X258500Y146924D01*
D02*
G37*
G36*
X257500D02*
X257226Y146869D01*
X256569Y146431D01*
X256131Y145774D01*
X256076Y145500D01*
X257500D01*
Y146924D01*
D02*
G37*
G36*
X118000Y145924D02*
Y144500D01*
X119424D01*
X119369Y144774D01*
X118931Y145431D01*
X118274Y145869D01*
X118000Y145924D01*
D02*
G37*
G36*
X117000D02*
X116726Y145869D01*
X116069Y145431D01*
X115631Y144774D01*
X115576Y144500D01*
X117000D01*
Y145924D01*
D02*
G37*
G36*
X142195Y145500D02*
X140772D01*
Y144076D01*
X141046Y144131D01*
X141702Y144569D01*
X142141Y145226D01*
X142195Y145500D01*
D02*
G37*
G36*
X139772D02*
X138348D01*
X138402Y145226D01*
X138841Y144569D01*
X139497Y144131D01*
X139772Y144076D01*
Y145500D01*
D02*
G37*
G36*
X259924Y144500D02*
X258500D01*
Y143076D01*
X258774Y143131D01*
X259431Y143569D01*
X259869Y144226D01*
X259924Y144500D01*
D02*
G37*
G36*
X257500D02*
X256076D01*
X256131Y144226D01*
X256569Y143569D01*
X257226Y143131D01*
X257500Y143076D01*
Y144500D01*
D02*
G37*
G36*
X131000Y144424D02*
Y143000D01*
X132424D01*
X132369Y143274D01*
X131931Y143931D01*
X131274Y144369D01*
X131000Y144424D01*
D02*
G37*
G36*
X130000D02*
X129726Y144369D01*
X129069Y143931D01*
X128631Y143274D01*
X128576Y143000D01*
X130000D01*
Y144424D01*
D02*
G37*
G36*
X160000Y143924D02*
Y142500D01*
X161424D01*
X161369Y142774D01*
X160931Y143431D01*
X160274Y143869D01*
X160000Y143924D01*
D02*
G37*
G36*
X159000D02*
X158726Y143869D01*
X158069Y143431D01*
X157631Y142774D01*
X157576Y142500D01*
X159000D01*
Y143924D01*
D02*
G37*
G36*
X119424Y143500D02*
X118000D01*
Y142076D01*
X118274Y142131D01*
X118931Y142569D01*
X119369Y143226D01*
X119424Y143500D01*
D02*
G37*
G36*
X117000D02*
X115576D01*
X115631Y143226D01*
X116069Y142569D01*
X116726Y142131D01*
X117000Y142076D01*
Y143500D01*
D02*
G37*
G36*
X209000Y143424D02*
Y142000D01*
X210424D01*
X210369Y142274D01*
X209931Y142931D01*
X209274Y143369D01*
X209000Y143424D01*
D02*
G37*
G36*
X208000D02*
X207726Y143369D01*
X207069Y142931D01*
X206631Y142274D01*
X206576Y142000D01*
X208000D01*
Y143424D01*
D02*
G37*
G36*
X132424Y142000D02*
X131000D01*
Y140576D01*
X131274Y140631D01*
X131931Y141069D01*
X132369Y141726D01*
X132424Y142000D01*
D02*
G37*
G36*
X130000D02*
X128576D01*
X128631Y141726D01*
X129069Y141069D01*
X129726Y140631D01*
X130000Y140576D01*
Y142000D01*
D02*
G37*
G36*
X161424Y141500D02*
X160000D01*
Y140076D01*
X160274Y140131D01*
X160931Y140569D01*
X161369Y141226D01*
X161424Y141500D01*
D02*
G37*
G36*
X159000D02*
X157576D01*
X157631Y141226D01*
X158069Y140569D01*
X158726Y140131D01*
X159000Y140076D01*
Y141500D01*
D02*
G37*
G36*
X277500Y141424D02*
Y140000D01*
X278924D01*
X278869Y140274D01*
X278431Y140931D01*
X277774Y141369D01*
X277500Y141424D01*
D02*
G37*
G36*
X276500D02*
X276226Y141369D01*
X275569Y140931D01*
X275131Y140274D01*
X275076Y140000D01*
X276500D01*
Y141424D01*
D02*
G37*
G36*
X193000D02*
Y140000D01*
X194424D01*
X194369Y140274D01*
X193931Y140931D01*
X193274Y141369D01*
X193000Y141424D01*
D02*
G37*
G36*
X192000D02*
X191726Y141369D01*
X191069Y140931D01*
X190631Y140274D01*
X190576Y140000D01*
X192000D01*
Y141424D01*
D02*
G37*
G36*
X210424Y141000D02*
X209000D01*
Y139576D01*
X209274Y139631D01*
X209931Y140069D01*
X210369Y140726D01*
X210424Y141000D01*
D02*
G37*
G36*
X208000D02*
X206576D01*
X206631Y140726D01*
X207069Y140069D01*
X207726Y139631D01*
X208000Y139576D01*
Y141000D01*
D02*
G37*
G36*
X320500Y139924D02*
Y138500D01*
X321924D01*
X321869Y138774D01*
X321431Y139431D01*
X320774Y139869D01*
X320500Y139924D01*
D02*
G37*
G36*
X319500D02*
X319226Y139869D01*
X318569Y139431D01*
X318131Y138774D01*
X318076Y138500D01*
X319500D01*
Y139924D01*
D02*
G37*
G36*
X256000Y139424D02*
Y138000D01*
X257424D01*
X257369Y138274D01*
X256931Y138931D01*
X256274Y139369D01*
X256000Y139424D01*
D02*
G37*
G36*
X255000D02*
X254726Y139369D01*
X254069Y138931D01*
X253631Y138274D01*
X253576Y138000D01*
X255000D01*
Y139424D01*
D02*
G37*
G36*
X98000D02*
Y138000D01*
X99424D01*
X99369Y138274D01*
X98931Y138931D01*
X98274Y139369D01*
X98000Y139424D01*
D02*
G37*
G36*
X278924Y139000D02*
X277500D01*
Y137576D01*
X277774Y137631D01*
X278431Y138069D01*
X278869Y138726D01*
X278924Y139000D01*
D02*
G37*
G36*
X276500D02*
X275076D01*
X275131Y138726D01*
X275569Y138069D01*
X276226Y137631D01*
X276500Y137576D01*
Y139000D01*
D02*
G37*
G36*
X194424D02*
X193000D01*
Y137576D01*
X193274Y137631D01*
X193931Y138069D01*
X194369Y138726D01*
X194424Y139000D01*
D02*
G37*
G36*
X192000D02*
X190576D01*
X190631Y138726D01*
X191069Y138069D01*
X191726Y137631D01*
X192000Y137576D01*
Y139000D01*
D02*
G37*
G36*
X141500Y138424D02*
Y137000D01*
X142924D01*
X142869Y137274D01*
X142431Y137931D01*
X141774Y138369D01*
X141500Y138424D01*
D02*
G37*
G36*
X140500D02*
X140226Y138369D01*
X139569Y137931D01*
X139131Y137274D01*
X139076Y137000D01*
X140500D01*
Y138424D01*
D02*
G37*
G36*
X321924Y137500D02*
X320500D01*
Y136076D01*
X320774Y136131D01*
X321431Y136569D01*
X321869Y137226D01*
X321924Y137500D01*
D02*
G37*
G36*
X319500D02*
X318076D01*
X318131Y137226D01*
X318569Y136569D01*
X319226Y136131D01*
X319500Y136076D01*
Y137500D01*
D02*
G37*
G36*
X257424Y137000D02*
X256000D01*
Y135576D01*
X256274Y135631D01*
X256931Y136069D01*
X257369Y136726D01*
X257424Y137000D01*
D02*
G37*
G36*
X255000D02*
X253576D01*
X253631Y136726D01*
X254069Y136069D01*
X254726Y135631D01*
X255000Y135576D01*
Y137000D01*
D02*
G37*
G36*
X99424D02*
X98000D01*
Y135576D01*
X98274Y135631D01*
X98931Y136069D01*
X99369Y136726D01*
X99424Y137000D01*
D02*
G37*
G36*
X359500Y136424D02*
Y135000D01*
X360924D01*
X360869Y135274D01*
X360431Y135931D01*
X359774Y136369D01*
X359500Y136424D01*
D02*
G37*
G36*
X358500D02*
X358226Y136369D01*
X357569Y135931D01*
X357131Y135274D01*
X357076Y135000D01*
X358500D01*
Y136424D01*
D02*
G37*
G36*
X331000Y136195D02*
Y134772D01*
X332424D01*
X332369Y135046D01*
X331931Y135702D01*
X331274Y136141D01*
X331000Y136195D01*
D02*
G37*
G36*
X330000D02*
X329726Y136141D01*
X329069Y135702D01*
X328631Y135046D01*
X328576Y134772D01*
X330000D01*
Y136195D01*
D02*
G37*
G36*
X181000D02*
Y134772D01*
X182424D01*
X182369Y135046D01*
X181931Y135702D01*
X181274Y136141D01*
X181000Y136195D01*
D02*
G37*
G36*
X180000D02*
X179726Y136141D01*
X179069Y135702D01*
X178631Y135046D01*
X178576Y134772D01*
X180000D01*
Y136195D01*
D02*
G37*
G36*
X142924Y136000D02*
X141500D01*
Y134576D01*
X141774Y134631D01*
X142431Y135069D01*
X142869Y135726D01*
X142924Y136000D01*
D02*
G37*
G36*
X140500D02*
X139076D01*
X139131Y135726D01*
X139569Y135069D01*
X140226Y134631D01*
X140500Y134576D01*
Y136000D01*
D02*
G37*
G36*
X360924Y134000D02*
X359500D01*
Y132576D01*
X359774Y132631D01*
X360431Y133069D01*
X360869Y133726D01*
X360924Y134000D01*
D02*
G37*
G36*
X358500D02*
X357076D01*
X357131Y133726D01*
X357569Y133069D01*
X358226Y132631D01*
X358500Y132576D01*
Y134000D01*
D02*
G37*
G36*
X332424Y133772D02*
X331000D01*
Y132348D01*
X331274Y132403D01*
X331931Y132841D01*
X332369Y133497D01*
X332424Y133772D01*
D02*
G37*
G36*
X330000D02*
X328576D01*
X328631Y133497D01*
X329069Y132841D01*
X329726Y132403D01*
X330000Y132348D01*
Y133772D01*
D02*
G37*
G36*
X182424D02*
X181000D01*
Y132348D01*
X181274Y132403D01*
X181931Y132841D01*
X182369Y133497D01*
X182424Y133772D01*
D02*
G37*
G36*
X180000D02*
X178576D01*
X178631Y133497D01*
X179069Y132841D01*
X179726Y132403D01*
X180000Y132348D01*
Y133772D01*
D02*
G37*
G36*
X412622Y197001D02*
Y193532D01*
X416090D01*
X416019Y194076D01*
X415616Y195049D01*
X414974Y195885D01*
X414139Y196526D01*
X413166Y196929D01*
X412622Y197001D01*
D02*
G37*
G36*
X411622Y197001D02*
X411077Y196929D01*
X410104Y196526D01*
X409269Y195885D01*
X408628Y195049D01*
X408225Y194076D01*
X408153Y193532D01*
X411622D01*
Y197001D01*
D02*
G37*
G36*
X431519Y197000D02*
Y193532D01*
X434988D01*
X434916Y194076D01*
X434513Y195049D01*
X433872Y195884D01*
X433037Y196526D01*
X432064Y196929D01*
X431519Y197000D01*
D02*
G37*
G36*
X430519Y197000D02*
X429975Y196929D01*
X429002Y196526D01*
X428166Y195884D01*
X427525Y195049D01*
X427122Y194076D01*
X427051Y193532D01*
X430519D01*
Y197000D01*
D02*
G37*
G36*
X450417Y197000D02*
Y193531D01*
X453886D01*
X453814Y194075D01*
X453411Y195048D01*
X452770Y195884D01*
X451934Y196525D01*
X450961Y196928D01*
X450417Y197000D01*
D02*
G37*
G36*
X449417Y197000D02*
X448873Y196928D01*
X447900Y196525D01*
X447064Y195884D01*
X446423Y195048D01*
X446020Y194075D01*
X445948Y193531D01*
X449417D01*
Y197000D01*
D02*
G37*
G36*
X35500Y195405D02*
X34962Y195298D01*
X34506Y194993D01*
X34202Y194538D01*
X34095Y194000D01*
X34202Y193462D01*
X34506Y193007D01*
X34962Y192702D01*
X35500Y192595D01*
X36038Y192702D01*
X36494Y193007D01*
X36798Y193462D01*
X36905Y194000D01*
X36798Y194538D01*
X36494Y194993D01*
X36038Y195298D01*
X35500Y195405D01*
D02*
G37*
G36*
X444886Y191038D02*
Y189614D01*
X446310D01*
X446255Y189888D01*
X445816Y190545D01*
X445160Y190983D01*
X444886Y191038D01*
D02*
G37*
G36*
X443886D02*
X443612Y190983D01*
X442955Y190545D01*
X442517Y189888D01*
X442462Y189614D01*
X443886D01*
Y191038D01*
D02*
G37*
G36*
X41000Y190924D02*
Y189500D01*
X42424D01*
X42369Y189774D01*
X41931Y190431D01*
X41274Y190869D01*
X41000Y190924D01*
D02*
G37*
G36*
X40000D02*
X39726Y190869D01*
X39069Y190431D01*
X38631Y189774D01*
X38576Y189500D01*
X40000D01*
Y190924D01*
D02*
G37*
G36*
X425990Y190914D02*
Y189490D01*
X427414D01*
X427359Y189764D01*
X426921Y190421D01*
X426264Y190859D01*
X425990Y190914D01*
D02*
G37*
G36*
X424990D02*
X424716Y190859D01*
X424059Y190421D01*
X423621Y189764D01*
X423566Y189490D01*
X424990D01*
Y190914D01*
D02*
G37*
G36*
X416090Y192532D02*
X412622D01*
Y189063D01*
X413166Y189135D01*
X414139Y189538D01*
X414974Y190179D01*
X415616Y191015D01*
X416019Y191988D01*
X416090Y192532D01*
D02*
G37*
G36*
X26622Y192532D02*
X23153D01*
X23225Y191988D01*
X23628Y191015D01*
X24269Y190179D01*
X25104Y189538D01*
X26077Y189135D01*
X26622Y189063D01*
Y192532D01*
D02*
G37*
G36*
X31090D02*
X27622D01*
Y189063D01*
X28166Y189135D01*
X29139Y189538D01*
X29974Y190179D01*
X30616Y191015D01*
X31019Y191988D01*
X31090Y192532D01*
D02*
G37*
G36*
X411622Y192532D02*
X408153D01*
X408225Y191988D01*
X408628Y191015D01*
X409269Y190179D01*
X410104Y189538D01*
X411077Y189135D01*
X411622Y189063D01*
Y192532D01*
D02*
G37*
G36*
X430519Y192532D02*
X427051D01*
X427122Y191987D01*
X427525Y191014D01*
X428166Y190179D01*
X429002Y189538D01*
X429975Y189135D01*
X430519Y189063D01*
Y192532D01*
D02*
G37*
G36*
X45519D02*
X42051D01*
X42122Y191987D01*
X42525Y191014D01*
X43167Y190179D01*
X44002Y189538D01*
X44975Y189135D01*
X45519Y189063D01*
Y192532D01*
D02*
G37*
G36*
X453886Y192531D02*
X450417D01*
Y189062D01*
X450961Y189134D01*
X451934Y189537D01*
X452770Y190178D01*
X453411Y191014D01*
X453814Y191987D01*
X453886Y192531D01*
D02*
G37*
G36*
X68886D02*
X65417D01*
Y189062D01*
X65961Y189134D01*
X66934Y189537D01*
X67770Y190178D01*
X68411Y191014D01*
X68814Y191987D01*
X68886Y192531D01*
D02*
G37*
G36*
X449417D02*
X445948D01*
X446020Y191987D01*
X446423Y191014D01*
X447064Y190178D01*
X447900Y189537D01*
X448873Y189134D01*
X449417Y189062D01*
Y192531D01*
D02*
G37*
G36*
X64417D02*
X60948D01*
X61020Y191987D01*
X61423Y191014D01*
X62064Y190178D01*
X62900Y189537D01*
X63873Y189134D01*
X64417Y189062D01*
Y192531D01*
D02*
G37*
G36*
X446310Y188614D02*
X444886D01*
Y187190D01*
X445160Y187245D01*
X445816Y187684D01*
X446255Y188340D01*
X446310Y188614D01*
D02*
G37*
G36*
X443886D02*
X442462D01*
X442517Y188340D01*
X442955Y187684D01*
X443612Y187245D01*
X443886Y187190D01*
Y188614D01*
D02*
G37*
G36*
X51924Y188500D02*
X50500D01*
Y187076D01*
X50774Y187131D01*
X51431Y187569D01*
X51869Y188226D01*
X51924Y188500D01*
D02*
G37*
G36*
X49988Y192532D02*
X46519D01*
Y189063D01*
X47064Y189135D01*
X47532Y189329D01*
X47971Y189005D01*
X47982Y188974D01*
X48131Y188226D01*
X48569Y187569D01*
X49226Y187131D01*
X49500Y187076D01*
Y189000D01*
X50000D01*
Y189500D01*
X51924D01*
X51869Y189774D01*
X51431Y190431D01*
X50774Y190869D01*
X50054Y191012D01*
X49966Y191074D01*
X49704Y191474D01*
X49916Y191987D01*
X49988Y192532D01*
D02*
G37*
G36*
X42424Y188500D02*
X41000D01*
Y187076D01*
X41274Y187131D01*
X41931Y187569D01*
X42369Y188226D01*
X42424Y188500D01*
D02*
G37*
G36*
X40000D02*
X38576D01*
X38631Y188226D01*
X39069Y187569D01*
X39726Y187131D01*
X40000Y187076D01*
Y188500D01*
D02*
G37*
G36*
X427414Y188490D02*
X425990D01*
Y187066D01*
X426264Y187121D01*
X426921Y187559D01*
X427359Y188216D01*
X427414Y188490D01*
D02*
G37*
G36*
X424990D02*
X423566D01*
X423621Y188216D01*
X424059Y187559D01*
X424716Y187121D01*
X424990Y187066D01*
Y188490D01*
D02*
G37*
G36*
X436861Y188437D02*
X435437D01*
Y187013D01*
X435711Y187068D01*
X436368Y187506D01*
X436806Y188163D01*
X436861Y188437D01*
D02*
G37*
G36*
X434988Y192532D02*
X431519D01*
Y189063D01*
X432064Y189135D01*
X432543Y189333D01*
X432930Y189016D01*
X432914Y188937D01*
X433068Y188163D01*
X433506Y187506D01*
X434163Y187068D01*
X434437Y187013D01*
Y188937D01*
X434937D01*
Y189437D01*
X436861D01*
X436806Y189711D01*
X436368Y190368D01*
X435711Y190806D01*
X435025Y190943D01*
X434788Y191227D01*
X434681Y191419D01*
X434916Y191987D01*
X434988Y192532D01*
D02*
G37*
G36*
X63000Y188424D02*
Y187000D01*
X64424D01*
X64369Y187274D01*
X63931Y187931D01*
X63274Y188369D01*
X63000Y188424D01*
D02*
G37*
G36*
X62000D02*
X61726Y188369D01*
X61069Y187931D01*
X60631Y187274D01*
X60576Y187000D01*
X62000D01*
Y188424D01*
D02*
G37*
G36*
X74552Y188983D02*
Y185264D01*
X78270D01*
X78190Y185873D01*
X77762Y186907D01*
X77081Y187794D01*
X76194Y188475D01*
X75160Y188903D01*
X74552Y188983D01*
D02*
G37*
G36*
X459552D02*
Y185264D01*
X463270D01*
X463190Y185873D01*
X462762Y186907D01*
X462081Y187794D01*
X461194Y188475D01*
X460160Y188903D01*
X459552Y188983D01*
D02*
G37*
G36*
X73552D02*
X72943Y188903D01*
X71909Y188475D01*
X71022Y187794D01*
X70341Y186907D01*
X69913Y185873D01*
X69833Y185264D01*
X73552D01*
Y188983D01*
D02*
G37*
G36*
X458552D02*
X457943Y188903D01*
X456909Y188475D01*
X456022Y187794D01*
X455341Y186907D01*
X454913Y185873D01*
X454833Y185264D01*
X458552D01*
Y188983D01*
D02*
G37*
G36*
X64424Y186000D02*
X63000D01*
Y184576D01*
X63274Y184631D01*
X63931Y185069D01*
X64369Y185726D01*
X64424Y186000D01*
D02*
G37*
G36*
X62000D02*
X60576D01*
X60631Y185726D01*
X61069Y185069D01*
X61726Y184631D01*
X62000Y184576D01*
Y186000D01*
D02*
G37*
G36*
X413175Y185749D02*
Y184325D01*
X414599D01*
X414544Y184599D01*
X414106Y185256D01*
X413449Y185694D01*
X413175Y185749D01*
D02*
G37*
G36*
X412175D02*
X411901Y185694D01*
X411244Y185256D01*
X410806Y184599D01*
X410751Y184325D01*
X412175D01*
Y185749D01*
D02*
G37*
G36*
X29175D02*
Y184325D01*
X30599D01*
X30544Y184599D01*
X30106Y185256D01*
X29449Y185694D01*
X29175Y185749D01*
D02*
G37*
G36*
X28175D02*
X27901Y185694D01*
X27244Y185256D01*
X26806Y184599D01*
X26751Y184325D01*
X28175D01*
Y185749D01*
D02*
G37*
G36*
X414599Y183325D02*
X413175D01*
Y181901D01*
X413449Y181956D01*
X414106Y182395D01*
X414544Y183051D01*
X414599Y183325D01*
D02*
G37*
G36*
X412175D02*
X410751D01*
X410806Y183051D01*
X411244Y182395D01*
X411901Y181956D01*
X412175Y181901D01*
Y183325D01*
D02*
G37*
G36*
X30599D02*
X29175D01*
Y181901D01*
X29449Y181956D01*
X30106Y182395D01*
X30544Y183051D01*
X30599Y183325D01*
D02*
G37*
G36*
X28175D02*
X26751D01*
X26806Y183051D01*
X27244Y182395D01*
X27901Y181956D01*
X28175Y181901D01*
Y183325D01*
D02*
G37*
G36*
X463270Y184264D02*
X459552D01*
Y180545D01*
X460160Y180626D01*
X461194Y181054D01*
X462081Y181735D01*
X462762Y182622D01*
X463190Y183655D01*
X463270Y184264D01*
D02*
G37*
G36*
X78270D02*
X74552D01*
Y180545D01*
X75160Y180626D01*
X76194Y181054D01*
X77081Y181735D01*
X77762Y182622D01*
X78190Y183655D01*
X78270Y184264D01*
D02*
G37*
G36*
X458552D02*
X454833D01*
X454913Y183655D01*
X455341Y182622D01*
X456022Y181735D01*
X456909Y181054D01*
X457943Y180626D01*
X458552Y180545D01*
Y184264D01*
D02*
G37*
G36*
X73552D02*
X69833D01*
X69913Y183655D01*
X70341Y182622D01*
X71022Y181735D01*
X71909Y181054D01*
X72943Y180626D01*
X73552Y180545D01*
Y184264D01*
D02*
G37*
G36*
X433000Y178905D02*
X432462Y178798D01*
X432007Y178493D01*
X431702Y178038D01*
X431595Y177500D01*
X431702Y176962D01*
X432007Y176506D01*
X432462Y176202D01*
X433000Y176095D01*
X433538Y176202D01*
X433993Y176506D01*
X434298Y176962D01*
X434405Y177500D01*
X434298Y178038D01*
X433993Y178493D01*
X433538Y178798D01*
X433000Y178905D01*
D02*
G37*
G36*
X427500D02*
X426962Y178798D01*
X426507Y178493D01*
X426202Y178038D01*
X426095Y177500D01*
X426202Y176962D01*
X426507Y176506D01*
X426962Y176202D01*
X427500Y176095D01*
X428038Y176202D01*
X428493Y176506D01*
X428798Y176962D01*
X428905Y177500D01*
X428798Y178038D01*
X428493Y178493D01*
X428038Y178798D01*
X427500Y178905D01*
D02*
G37*
G36*
X48000D02*
X47462Y178798D01*
X47006Y178493D01*
X46702Y178038D01*
X46595Y177500D01*
X46702Y176962D01*
X47006Y176506D01*
X47462Y176202D01*
X48000Y176095D01*
X48538Y176202D01*
X48994Y176506D01*
X49298Y176962D01*
X49405Y177500D01*
X49298Y178038D01*
X48994Y178493D01*
X48538Y178798D01*
X48000Y178905D01*
D02*
G37*
G36*
X42500D02*
X41962Y178798D01*
X41506Y178493D01*
X41202Y178038D01*
X41095Y177500D01*
X41202Y176962D01*
X41506Y176506D01*
X41962Y176202D01*
X42500Y176095D01*
X43038Y176202D01*
X43494Y176506D01*
X43798Y176962D01*
X43905Y177500D01*
X43798Y178038D01*
X43494Y178493D01*
X43038Y178798D01*
X42500Y178905D01*
D02*
G37*
G36*
X459551Y178891D02*
Y175422D01*
X463020D01*
X462948Y175966D01*
X462545Y176939D01*
X461904Y177775D01*
X461068Y178416D01*
X460095Y178819D01*
X459551Y178891D01*
D02*
G37*
G36*
X458551Y178891D02*
X458007Y178819D01*
X457034Y178416D01*
X456198Y177775D01*
X455557Y176939D01*
X455154Y175966D01*
X455082Y175422D01*
X458551D01*
Y178891D01*
D02*
G37*
G36*
X74551Y178891D02*
Y175422D01*
X78020D01*
X77948Y175966D01*
X77545Y176939D01*
X76904Y177775D01*
X76068Y178416D01*
X75095Y178819D01*
X74551Y178891D01*
D02*
G37*
G36*
X73551Y178891D02*
X73007Y178819D01*
X72034Y178416D01*
X71198Y177775D01*
X70557Y176939D01*
X70154Y175966D01*
X70082Y175422D01*
X73551D01*
Y178891D01*
D02*
G37*
G36*
X403449Y178890D02*
Y175422D01*
X406917D01*
X406846Y175966D01*
X406443Y176939D01*
X405801Y177774D01*
X404966Y178416D01*
X403993Y178819D01*
X403449Y178890D01*
D02*
G37*
G36*
X402449Y178890D02*
X401904Y178819D01*
X400931Y178416D01*
X400096Y177774D01*
X399455Y176939D01*
X399052Y175966D01*
X398980Y175422D01*
X402449D01*
Y178890D01*
D02*
G37*
G36*
X18449Y178890D02*
Y175421D01*
X21917D01*
X21846Y175966D01*
X21443Y176939D01*
X20801Y177774D01*
X19966Y178416D01*
X18993Y178819D01*
X18449Y178890D01*
D02*
G37*
G36*
X436228Y172652D02*
Y171228D01*
X437652D01*
X437598Y171503D01*
X437159Y172159D01*
X436503Y172598D01*
X436228Y172652D01*
D02*
G37*
G36*
X435228D02*
X434954Y172598D01*
X434298Y172159D01*
X433859Y171503D01*
X433805Y171228D01*
X435228D01*
Y172652D01*
D02*
G37*
G36*
X458551Y174422D02*
X455082D01*
X455154Y173878D01*
X455557Y172905D01*
X456198Y172069D01*
X457034Y171428D01*
X458007Y171025D01*
X458551Y170953D01*
Y174422D01*
D02*
G37*
G36*
X73551Y174422D02*
X70082D01*
X70154Y173878D01*
X70557Y172905D01*
X71198Y172069D01*
X72034Y171428D01*
X73007Y171025D01*
X73551Y170953D01*
Y174422D01*
D02*
G37*
G36*
X78020D02*
X74551D01*
Y170953D01*
X75095Y171025D01*
X76068Y171428D01*
X76904Y172069D01*
X77545Y172905D01*
X77948Y173878D01*
X78020Y174422D01*
D02*
G37*
G36*
X463020Y174422D02*
X459551D01*
Y170953D01*
X460095Y171025D01*
X461068Y171428D01*
X461904Y172069D01*
X462545Y172905D01*
X462948Y173878D01*
X463020Y174422D01*
D02*
G37*
G36*
X402449Y174422D02*
X398980D01*
X399052Y173877D01*
X399455Y172904D01*
X400096Y172069D01*
X400931Y171427D01*
X401904Y171024D01*
X402449Y170953D01*
Y174422D01*
D02*
G37*
G36*
X21917Y174421D02*
X18449D01*
Y170953D01*
X18993Y171024D01*
X19966Y171427D01*
X20801Y172069D01*
X21443Y172904D01*
X21846Y173877D01*
X21917Y174421D01*
D02*
G37*
G36*
X406917Y174422D02*
X403449D01*
Y170953D01*
X403993Y171024D01*
X404966Y171427D01*
X405801Y172069D01*
X406443Y172904D01*
X406846Y173877D01*
X406917Y174422D01*
D02*
G37*
G36*
X437652Y170228D02*
X436228D01*
Y168805D01*
X436503Y168859D01*
X437159Y169298D01*
X437598Y169954D01*
X437652Y170228D01*
D02*
G37*
G36*
X435228D02*
X433805D01*
X433859Y169954D01*
X434298Y169298D01*
X434954Y168859D01*
X435228Y168805D01*
Y170228D01*
D02*
G37*
G36*
X428000Y169924D02*
Y168500D01*
X429424D01*
X429369Y168774D01*
X428931Y169431D01*
X428274Y169869D01*
X428000Y169924D01*
D02*
G37*
G36*
X427000D02*
X426726Y169869D01*
X426069Y169431D01*
X425631Y168774D01*
X425576Y168500D01*
X427000D01*
Y169924D01*
D02*
G37*
G36*
X48500D02*
Y168500D01*
X49924D01*
X49869Y168774D01*
X49431Y169431D01*
X48774Y169869D01*
X48500Y169924D01*
D02*
G37*
G36*
X47500D02*
X47226Y169869D01*
X46569Y169431D01*
X46131Y168774D01*
X46076Y168500D01*
X47500D01*
Y169924D01*
D02*
G37*
G36*
X43000D02*
Y168500D01*
X44424D01*
X44369Y168774D01*
X43931Y169431D01*
X43274Y169869D01*
X43000Y169924D01*
D02*
G37*
G36*
X42000D02*
X41726Y169869D01*
X41069Y169431D01*
X40631Y168774D01*
X40576Y168500D01*
X42000D01*
Y169924D01*
D02*
G37*
G36*
X429424Y167500D02*
X428000D01*
Y166076D01*
X428274Y166131D01*
X428931Y166569D01*
X429369Y167226D01*
X429424Y167500D01*
D02*
G37*
G36*
X427000D02*
X425576D01*
X425631Y167226D01*
X426069Y166569D01*
X426726Y166131D01*
X427000Y166076D01*
Y167500D01*
D02*
G37*
G36*
X49924D02*
X48500D01*
Y166076D01*
X48774Y166131D01*
X49431Y166569D01*
X49869Y167226D01*
X49924Y167500D01*
D02*
G37*
G36*
X47500D02*
X46076D01*
X46131Y167226D01*
X46569Y166569D01*
X47226Y166131D01*
X47500Y166076D01*
Y167500D01*
D02*
G37*
G36*
X44424D02*
X43000D01*
Y166076D01*
X43274Y166131D01*
X43931Y166569D01*
X44369Y167226D01*
X44424Y167500D01*
D02*
G37*
G36*
X42000D02*
X40576D01*
X40631Y167226D01*
X41069Y166569D01*
X41726Y166131D01*
X42000Y166076D01*
Y167500D01*
D02*
G37*
G36*
X18449Y169048D02*
Y165579D01*
X21918D01*
X21846Y166123D01*
X21443Y167096D01*
X20802Y167932D01*
X19966Y168573D01*
X18993Y168976D01*
X18449Y169048D01*
D02*
G37*
G36*
X403449Y169047D02*
Y165579D01*
X406918D01*
X406846Y166123D01*
X406443Y167096D01*
X405802Y167932D01*
X404966Y168573D01*
X403994Y168976D01*
X403449Y169047D01*
D02*
G37*
G36*
X402449Y169048D02*
X401905Y168976D01*
X400932Y168573D01*
X400096Y167932D01*
X399455Y167096D01*
X399052Y166123D01*
X398981Y165579D01*
X402449D01*
Y169048D01*
D02*
G37*
G36*
X449898Y172053D02*
X448767Y171904D01*
X447714Y171468D01*
X446809Y170774D01*
X446115Y169869D01*
X445678Y168816D01*
X445530Y167685D01*
X445678Y166554D01*
X446115Y165501D01*
X446809Y164596D01*
X447714Y163902D01*
X448767Y163466D01*
X449898Y163317D01*
X451028Y163466D01*
X452082Y163902D01*
X452986Y164596D01*
X453681Y165501D01*
X454117Y166554D01*
X454266Y167685D01*
X454117Y168816D01*
X453681Y169869D01*
X452986Y170774D01*
X452082Y171468D01*
X451028Y171904D01*
X449898Y172053D01*
D02*
G37*
G36*
X412102D02*
X410972Y171904D01*
X409918Y171468D01*
X409014Y170774D01*
X408320Y169869D01*
X407883Y168816D01*
X407734Y167685D01*
X407883Y166554D01*
X408320Y165501D01*
X409014Y164596D01*
X409918Y163902D01*
X410972Y163466D01*
X412102Y163317D01*
X413233Y163466D01*
X414286Y163902D01*
X415191Y164596D01*
X415885Y165501D01*
X416322Y166554D01*
X416470Y167685D01*
X416322Y168816D01*
X415885Y169869D01*
X415191Y170774D01*
X414286Y171468D01*
X413233Y171904D01*
X412102Y172053D01*
D02*
G37*
G36*
X64898D02*
X63767Y171904D01*
X62714Y171468D01*
X61809Y170774D01*
X61115Y169869D01*
X60678Y168816D01*
X60530Y167685D01*
X60678Y166554D01*
X61115Y165501D01*
X61809Y164596D01*
X62714Y163902D01*
X63767Y163466D01*
X64898Y163317D01*
X66028Y163466D01*
X67082Y163902D01*
X67986Y164596D01*
X68681Y165501D01*
X69117Y166554D01*
X69266Y167685D01*
X69117Y168816D01*
X68681Y169869D01*
X67986Y170774D01*
X67082Y171468D01*
X66028Y171904D01*
X64898Y172053D01*
D02*
G37*
G36*
X27102D02*
X25972Y171904D01*
X24918Y171468D01*
X24014Y170774D01*
X23320Y169869D01*
X22883Y168816D01*
X22734Y167685D01*
X22883Y166554D01*
X23320Y165501D01*
X24014Y164596D01*
X24918Y163902D01*
X25972Y163466D01*
X27102Y163317D01*
X28233Y163466D01*
X29286Y163902D01*
X30191Y164596D01*
X30885Y165501D01*
X31322Y166554D01*
X31470Y167685D01*
X31322Y168816D01*
X30885Y169869D01*
X30191Y170774D01*
X29286Y171468D01*
X28233Y171904D01*
X27102Y172053D01*
D02*
G37*
G36*
X406918Y164579D02*
X403449D01*
Y161110D01*
X403994Y161182D01*
X404966Y161585D01*
X405802Y162226D01*
X406443Y163062D01*
X406846Y164035D01*
X406918Y164579D01*
D02*
G37*
G36*
X21918Y164579D02*
X18449D01*
Y161110D01*
X18993Y161182D01*
X19966Y161585D01*
X20802Y162226D01*
X21443Y163062D01*
X21846Y164035D01*
X21918Y164579D01*
D02*
G37*
G36*
X402449Y164579D02*
X398981D01*
X399052Y164035D01*
X399455Y163062D01*
X400096Y162226D01*
X400932Y161585D01*
X401905Y161182D01*
X402449Y161110D01*
Y164579D01*
D02*
G37*
G36*
X442310Y160924D02*
X442036Y160869D01*
X441379Y160431D01*
X440941Y159774D01*
X440886Y159500D01*
X442310D01*
Y160924D01*
D02*
G37*
G36*
X58310Y159734D02*
Y158310D01*
X59734D01*
X59679Y158584D01*
X59241Y159241D01*
X58584Y159679D01*
X58310Y159734D01*
D02*
G37*
G36*
X57310D02*
X57036Y159679D01*
X56379Y159241D01*
X55941Y158584D01*
X55886Y158310D01*
X57310D01*
Y159734D01*
D02*
G37*
G36*
X33114D02*
Y158310D01*
X34538D01*
X34483Y158584D01*
X34045Y159241D01*
X33388Y159679D01*
X33114Y159734D01*
D02*
G37*
G36*
X32114D02*
X31840Y159679D01*
X31184Y159241D01*
X30745Y158584D01*
X30691Y158310D01*
X32114D01*
Y159734D01*
D02*
G37*
G36*
X446460Y159464D02*
Y158040D01*
X447884D01*
X447829Y158314D01*
X447391Y158971D01*
X446734Y159409D01*
X446460Y159464D01*
D02*
G37*
G36*
X418000Y158924D02*
Y157500D01*
X419424D01*
X419369Y157774D01*
X418931Y158431D01*
X418274Y158869D01*
X418000Y158924D01*
D02*
G37*
G36*
X417000D02*
X416726Y158869D01*
X416069Y158431D01*
X415631Y157774D01*
X415576Y157500D01*
X417000D01*
Y158924D01*
D02*
G37*
G36*
X442310Y158500D02*
X440886D01*
X440941Y158226D01*
X441379Y157569D01*
X442036Y157131D01*
X442310Y157076D01*
Y158500D01*
D02*
G37*
G36*
X59734Y157310D02*
X58310D01*
Y155886D01*
X58584Y155941D01*
X59241Y156379D01*
X59679Y157036D01*
X59734Y157310D01*
D02*
G37*
G36*
X57310D02*
X55886D01*
X55941Y157036D01*
X56379Y156379D01*
X57036Y155941D01*
X57310Y155886D01*
Y157310D01*
D02*
G37*
G36*
X34538D02*
X33114D01*
Y155886D01*
X33388Y155941D01*
X34045Y156379D01*
X34483Y157036D01*
X34538Y157310D01*
D02*
G37*
G36*
X32114D02*
X30691D01*
X30745Y157036D01*
X31184Y156379D01*
X31840Y155941D01*
X32114Y155886D01*
Y157310D01*
D02*
G37*
G36*
X459551Y159205D02*
Y155737D01*
X463020D01*
X462948Y156281D01*
X462545Y157254D01*
X461904Y158090D01*
X461068Y158731D01*
X460095Y159134D01*
X459551Y159205D01*
D02*
G37*
G36*
X458551Y159205D02*
X458007Y159134D01*
X457034Y158731D01*
X456198Y158090D01*
X455557Y157254D01*
X455154Y156281D01*
X455082Y155737D01*
X458551D01*
Y159205D01*
D02*
G37*
G36*
X74551Y159205D02*
Y155737D01*
X78020D01*
X77948Y156281D01*
X77545Y157254D01*
X76904Y158090D01*
X76068Y158731D01*
X75095Y159134D01*
X74551Y159205D01*
D02*
G37*
G36*
X73551Y159205D02*
X73007Y159134D01*
X72034Y158731D01*
X71198Y158090D01*
X70557Y157254D01*
X70154Y156281D01*
X70082Y155737D01*
X73551D01*
Y159205D01*
D02*
G37*
G36*
X403449Y159205D02*
Y155736D01*
X406917D01*
X406846Y156281D01*
X406443Y157254D01*
X405802Y158089D01*
X404966Y158730D01*
X403993Y159133D01*
X403449Y159205D01*
D02*
G37*
G36*
X18449D02*
Y155736D01*
X21917D01*
X21846Y156281D01*
X21443Y157254D01*
X20802Y158089D01*
X19966Y158730D01*
X18993Y159133D01*
X18449Y159205D01*
D02*
G37*
G36*
X402449Y159205D02*
X401905Y159133D01*
X400932Y158730D01*
X400096Y158089D01*
X399455Y157254D01*
X399052Y156281D01*
X398980Y155736D01*
X402449D01*
Y159205D01*
D02*
G37*
G36*
X447884Y157040D02*
X446460D01*
Y155616D01*
X446734Y155671D01*
X447391Y156109D01*
X447829Y156766D01*
X447884Y157040D01*
D02*
G37*
G36*
X443310Y160924D02*
Y159000D01*
Y157076D01*
X443584Y157131D01*
X443593Y157137D01*
X444055Y156946D01*
X444091Y156766D01*
X444529Y156109D01*
X445186Y155671D01*
X445460Y155616D01*
Y157540D01*
Y159464D01*
X445259Y159424D01*
X445053Y159454D01*
X444715Y159595D01*
X444679Y159774D01*
X444241Y160431D01*
X443584Y160869D01*
X443310Y160924D01*
D02*
G37*
G36*
X419424Y156500D02*
X418000D01*
Y155076D01*
X418274Y155131D01*
X418931Y155569D01*
X419369Y156226D01*
X419424Y156500D01*
D02*
G37*
G36*
X417000D02*
X415576D01*
X415631Y156226D01*
X416069Y155569D01*
X416726Y155131D01*
X417000Y155076D01*
Y156500D01*
D02*
G37*
G36*
X64000Y153924D02*
Y152500D01*
X65424D01*
X65369Y152774D01*
X64931Y153431D01*
X64274Y153869D01*
X64000Y153924D01*
D02*
G37*
G36*
X63000D02*
X62726Y153869D01*
X62069Y153431D01*
X61631Y152774D01*
X61576Y152500D01*
X63000D01*
Y153924D01*
D02*
G37*
G36*
X458551Y154737D02*
X455082D01*
X455154Y154193D01*
X455557Y153220D01*
X456198Y152384D01*
X457034Y151743D01*
X458007Y151340D01*
X458551Y151268D01*
Y154737D01*
D02*
G37*
G36*
X73551Y154737D02*
X70082D01*
X70154Y154193D01*
X70557Y153220D01*
X71198Y152384D01*
X72034Y151743D01*
X73007Y151340D01*
X73551Y151268D01*
Y154737D01*
D02*
G37*
G36*
X78020D02*
X74551D01*
Y151268D01*
X75095Y151340D01*
X76068Y151743D01*
X76904Y152384D01*
X77545Y153220D01*
X77948Y154193D01*
X78020Y154737D01*
D02*
G37*
G36*
X463020Y154737D02*
X459551D01*
Y151268D01*
X460095Y151340D01*
X461068Y151743D01*
X461904Y152384D01*
X462545Y153220D01*
X462948Y154193D01*
X463020Y154737D01*
D02*
G37*
G36*
X406917Y154736D02*
X403449D01*
Y151268D01*
X403993Y151339D01*
X404966Y151742D01*
X405802Y152383D01*
X406443Y153219D01*
X406846Y154192D01*
X406917Y154736D01*
D02*
G37*
G36*
X21917D02*
X18449D01*
Y151268D01*
X18993Y151339D01*
X19966Y151742D01*
X20802Y152383D01*
X21443Y153219D01*
X21846Y154192D01*
X21917Y154736D01*
D02*
G37*
G36*
X402449D02*
X398980D01*
X399052Y154192D01*
X399455Y153219D01*
X400096Y152383D01*
X400932Y151742D01*
X401905Y151339D01*
X402449Y151268D01*
Y154736D01*
D02*
G37*
G36*
X65424Y151500D02*
X64000D01*
Y150076D01*
X64274Y150131D01*
X64931Y150569D01*
X65369Y151226D01*
X65424Y151500D01*
D02*
G37*
G36*
X63000D02*
X61576D01*
X61631Y151226D01*
X62069Y150569D01*
X62726Y150131D01*
X63000Y150076D01*
Y151500D01*
D02*
G37*
G36*
X74552Y149613D02*
Y145894D01*
X78271D01*
X78190Y146503D01*
X77762Y147537D01*
X77081Y148424D01*
X76194Y149105D01*
X75161Y149533D01*
X74552Y149613D01*
D02*
G37*
G36*
X73552D02*
X72943Y149533D01*
X71909Y149105D01*
X71022Y148424D01*
X70341Y147537D01*
X69913Y146503D01*
X69833Y145894D01*
X73552D01*
Y149613D01*
D02*
G37*
G36*
X459552D02*
Y145894D01*
X463271D01*
X463190Y146503D01*
X462762Y147537D01*
X462081Y148424D01*
X461194Y149105D01*
X460161Y149533D01*
X459552Y149613D01*
D02*
G37*
G36*
X458552D02*
X457943Y149533D01*
X456909Y149105D01*
X456022Y148424D01*
X455341Y147537D01*
X454913Y146503D01*
X454833Y145894D01*
X458552D01*
Y149613D01*
D02*
G37*
G36*
X48362Y147905D02*
X47824Y147798D01*
X47369Y147494D01*
X47064Y147038D01*
X46957Y146500D01*
X47064Y145962D01*
X47369Y145507D01*
X47824Y145202D01*
X48362Y145095D01*
X48900Y145202D01*
X49356Y145507D01*
X49660Y145962D01*
X49767Y146500D01*
X49660Y147038D01*
X49356Y147494D01*
X48900Y147798D01*
X48362Y147905D01*
D02*
G37*
G36*
X42063D02*
X41525Y147798D01*
X41069Y147494D01*
X40765Y147038D01*
X40658Y146500D01*
X40765Y145962D01*
X41069Y145507D01*
X41525Y145202D01*
X42063Y145095D01*
X42601Y145202D01*
X43056Y145507D01*
X43361Y145962D01*
X43468Y146500D01*
X43361Y147038D01*
X43056Y147494D01*
X42601Y147798D01*
X42063Y147905D01*
D02*
G37*
G36*
X35764D02*
X35226Y147798D01*
X34770Y147494D01*
X34466Y147038D01*
X34359Y146500D01*
X34466Y145962D01*
X34770Y145507D01*
X35226Y145202D01*
X35764Y145095D01*
X36301Y145202D01*
X36757Y145507D01*
X37062Y145962D01*
X37169Y146500D01*
X37062Y147038D01*
X36757Y147494D01*
X36301Y147798D01*
X35764Y147905D01*
D02*
G37*
G36*
X54660Y147745D02*
X54122Y147638D01*
X53667Y147333D01*
X53362Y146878D01*
X53255Y146340D01*
X53362Y145802D01*
X53667Y145347D01*
X54122Y145042D01*
X54660Y144935D01*
X55198Y145042D01*
X55653Y145347D01*
X55958Y145802D01*
X56065Y146340D01*
X55958Y146878D01*
X55653Y147333D01*
X55198Y147638D01*
X54660Y147745D01*
D02*
G37*
G36*
X427063Y146917D02*
X426525Y146810D01*
X426069Y146505D01*
X425765Y146049D01*
X425658Y145512D01*
X425765Y144974D01*
X426069Y144518D01*
X426525Y144214D01*
X427063Y144107D01*
X427601Y144214D01*
X428056Y144518D01*
X428361Y144974D01*
X428468Y145512D01*
X428361Y146049D01*
X428056Y146505D01*
X427601Y146810D01*
X427063Y146917D01*
D02*
G37*
G36*
X420764D02*
X420226Y146810D01*
X419770Y146505D01*
X419466Y146049D01*
X419359Y145512D01*
X419466Y144974D01*
X419770Y144518D01*
X420226Y144214D01*
X420764Y144107D01*
X421301Y144214D01*
X421757Y144518D01*
X422062Y144974D01*
X422169Y145512D01*
X422062Y146049D01*
X421757Y146505D01*
X421301Y146810D01*
X420764Y146917D01*
D02*
G37*
G36*
X439660Y146905D02*
X439122Y146798D01*
X438667Y146493D01*
X438362Y146038D01*
X438255Y145500D01*
X438362Y144962D01*
X438667Y144507D01*
X439122Y144202D01*
X439660Y144095D01*
X440198Y144202D01*
X440653Y144507D01*
X440958Y144962D01*
X441065Y145500D01*
X440958Y146038D01*
X440653Y146493D01*
X440198Y146798D01*
X439660Y146905D01*
D02*
G37*
G36*
X433362D02*
X432825Y146798D01*
X432369Y146493D01*
X432064Y146038D01*
X431957Y145500D01*
X432064Y144962D01*
X432369Y144507D01*
X432825Y144202D01*
X433362Y144095D01*
X433900Y144202D01*
X434356Y144507D01*
X434660Y144962D01*
X434767Y145500D01*
X434660Y146038D01*
X434356Y146493D01*
X433900Y146798D01*
X433362Y146905D01*
D02*
G37*
G36*
X45213D02*
X44675Y146798D01*
X44219Y146493D01*
X43915Y146038D01*
X43808Y145500D01*
X43915Y144962D01*
X44219Y144507D01*
X44675Y144202D01*
X45213Y144095D01*
X45750Y144202D01*
X46206Y144507D01*
X46511Y144962D01*
X46617Y145500D01*
X46511Y146038D01*
X46206Y146493D01*
X45750Y146798D01*
X45213Y146905D01*
D02*
G37*
G36*
X430213Y144905D02*
X429675Y144798D01*
X429219Y144493D01*
X428915Y144038D01*
X428808Y143500D01*
X428915Y142962D01*
X429219Y142507D01*
X429675Y142202D01*
X430213Y142095D01*
X430750Y142202D01*
X431206Y142507D01*
X431511Y142962D01*
X431618Y143500D01*
X431511Y144038D01*
X431206Y144493D01*
X430750Y144798D01*
X430213Y144905D01*
D02*
G37*
G36*
X29272Y140633D02*
X28734Y140526D01*
X28278Y140222D01*
X27974Y139766D01*
X27867Y139228D01*
X27974Y138691D01*
X28278Y138235D01*
X28734Y137930D01*
X29272Y137823D01*
X29809Y137930D01*
X30265Y138235D01*
X30570Y138691D01*
X30677Y139228D01*
X30570Y139766D01*
X30265Y140222D01*
X29809Y140526D01*
X29272Y140633D01*
D02*
G37*
G36*
X463271Y144894D02*
X459052D01*
X454833D01*
X454913Y144285D01*
X455341Y143252D01*
X456022Y142365D01*
X456909Y141684D01*
X457943Y141255D01*
X458435Y141191D01*
Y140686D01*
X458007Y140630D01*
X457034Y140227D01*
X456198Y139586D01*
X455557Y138750D01*
X455154Y137777D01*
X455082Y137233D01*
X459051D01*
X463020D01*
X462948Y137777D01*
X462545Y138750D01*
X461904Y139586D01*
X461068Y140227D01*
X460095Y140630D01*
X459667Y140686D01*
Y141191D01*
X460161Y141255D01*
X461194Y141684D01*
X462081Y142365D01*
X462762Y143252D01*
X463190Y144285D01*
X463271Y144894D01*
D02*
G37*
G36*
X78271Y144894D02*
X74052D01*
X69833D01*
X69913Y144285D01*
X70341Y143252D01*
X71022Y142365D01*
X71909Y141684D01*
X72943Y141255D01*
X73436Y141191D01*
Y140686D01*
X73007Y140630D01*
X72034Y140227D01*
X71198Y139586D01*
X70557Y138750D01*
X70154Y137777D01*
X70082Y137233D01*
X74051D01*
X78020D01*
X77948Y137777D01*
X77545Y138750D01*
X76904Y139586D01*
X76068Y140227D01*
X75095Y140630D01*
X74667Y140686D01*
Y141191D01*
X75161Y141255D01*
X76194Y141684D01*
X77081Y142365D01*
X77762Y143252D01*
X78190Y144285D01*
X78271Y144894D01*
D02*
G37*
G36*
X403449Y140701D02*
Y137232D01*
X406917D01*
X406846Y137777D01*
X406443Y138750D01*
X405801Y139585D01*
X404966Y140226D01*
X403993Y140629D01*
X403449Y140701D01*
D02*
G37*
G36*
X402449Y140701D02*
X401904Y140629D01*
X400931Y140226D01*
X400096Y139585D01*
X399455Y138750D01*
X399052Y137777D01*
X398980Y137232D01*
X402449D01*
Y140701D01*
D02*
G37*
G36*
X18449Y140701D02*
Y137232D01*
X21917D01*
X21846Y137777D01*
X21443Y138750D01*
X20801Y139585D01*
X19966Y140226D01*
X18993Y140629D01*
X18449Y140701D01*
D02*
G37*
G36*
X444728Y138133D02*
X444191Y138026D01*
X443735Y137722D01*
X443430Y137266D01*
X443323Y136728D01*
X443430Y136191D01*
X443735Y135735D01*
X444191Y135430D01*
X444728Y135323D01*
X445266Y135430D01*
X445722Y135735D01*
X446026Y136191D01*
X446133Y136728D01*
X446026Y137266D01*
X445722Y137722D01*
X445266Y138026D01*
X444728Y138133D01*
D02*
G37*
G36*
X458551Y136233D02*
X455082D01*
X455154Y135689D01*
X455557Y134716D01*
X456198Y133880D01*
X457034Y133239D01*
X458007Y132836D01*
X458551Y132764D01*
Y136233D01*
D02*
G37*
G36*
X73551Y136233D02*
X70082D01*
X70154Y135689D01*
X70557Y134716D01*
X71198Y133880D01*
X72034Y133239D01*
X73007Y132836D01*
X73551Y132764D01*
Y136233D01*
D02*
G37*
G36*
X78020D02*
X74551D01*
Y132764D01*
X75095Y132836D01*
X76068Y133239D01*
X76904Y133880D01*
X77545Y134716D01*
X77948Y135689D01*
X78020Y136233D01*
D02*
G37*
G36*
X463020Y136233D02*
X459551D01*
Y132764D01*
X460095Y132836D01*
X461068Y133239D01*
X461904Y133880D01*
X462545Y134716D01*
X462948Y135689D01*
X463020Y136233D01*
D02*
G37*
G36*
X402449Y136232D02*
X398980D01*
X399052Y135688D01*
X399455Y134715D01*
X400096Y133880D01*
X400931Y133238D01*
X401904Y132835D01*
X402449Y132764D01*
Y136232D01*
D02*
G37*
G36*
X21917Y136232D02*
X18449D01*
Y132764D01*
X18993Y132835D01*
X19966Y133238D01*
X20801Y133880D01*
X21443Y134715D01*
X21846Y135688D01*
X21917Y136232D01*
D02*
G37*
G36*
X406917Y136232D02*
X403449D01*
Y132764D01*
X403993Y132835D01*
X404966Y133238D01*
X405801Y133880D01*
X406443Y134715D01*
X406846Y135688D01*
X406917Y136232D01*
D02*
G37*
G36*
X425811Y129928D02*
Y126209D01*
X429530D01*
X429450Y126818D01*
X429022Y127851D01*
X428341Y128739D01*
X427454Y129420D01*
X426420Y129848D01*
X425811Y129928D01*
D02*
G37*
G36*
X424811Y129928D02*
X424202Y129848D01*
X423169Y129420D01*
X422282Y128739D01*
X421601Y127851D01*
X421173Y126818D01*
X421093Y126209D01*
X424811D01*
Y129928D01*
D02*
G37*
G36*
X40811D02*
Y126209D01*
X44530D01*
X44450Y126818D01*
X44022Y127851D01*
X43341Y128739D01*
X42454Y129420D01*
X41420Y129848D01*
X40811Y129928D01*
D02*
G37*
G36*
X39812D02*
X39202Y129848D01*
X38169Y129420D01*
X37282Y128739D01*
X36601Y127851D01*
X36173Y126818D01*
X36093Y126209D01*
X39812D01*
Y129928D01*
D02*
G37*
G36*
X62071Y129928D02*
Y126209D01*
X65790D01*
X65710Y126818D01*
X65282Y127851D01*
X64601Y128739D01*
X63714Y129420D01*
X62680Y129848D01*
X62071Y129928D01*
D02*
G37*
G36*
X18449D02*
Y126209D01*
X22168D01*
X22088Y126818D01*
X21660Y127851D01*
X20979Y128739D01*
X20092Y129420D01*
X19058Y129848D01*
X18449Y129928D01*
D02*
G37*
G36*
X61071D02*
X60462Y129848D01*
X59429Y129420D01*
X58542Y128739D01*
X57861Y127851D01*
X57433Y126818D01*
X57352Y126209D01*
X61071D01*
Y129928D01*
D02*
G37*
G36*
X447071D02*
Y126209D01*
X450790D01*
X450710Y126818D01*
X450282Y127851D01*
X449601Y128739D01*
X448714Y129420D01*
X447680Y129848D01*
X447071Y129928D01*
D02*
G37*
G36*
X403449D02*
Y126209D01*
X407168D01*
X407088Y126818D01*
X406660Y127851D01*
X405979Y128739D01*
X405092Y129420D01*
X404058Y129848D01*
X403449Y129928D01*
D02*
G37*
G36*
X446071D02*
X445462Y129848D01*
X444429Y129420D01*
X443541Y128739D01*
X442861Y127851D01*
X442432Y126818D01*
X442352Y126209D01*
X446071D01*
Y129928D01*
D02*
G37*
G36*
X402449D02*
X401840Y129848D01*
X400807Y129420D01*
X399920Y128739D01*
X399239Y127851D01*
X398811Y126818D01*
X398730Y126209D01*
X402449D01*
Y129928D01*
D02*
G37*
G36*
X74500Y125424D02*
Y124000D01*
X75924D01*
X75869Y124274D01*
X75431Y124931D01*
X74774Y125369D01*
X74500Y125424D01*
D02*
G37*
G36*
X73500D02*
X73226Y125369D01*
X72569Y124931D01*
X72131Y124274D01*
X72076Y124000D01*
X73500D01*
Y125424D01*
D02*
G37*
G36*
X75924Y123000D02*
X74500D01*
Y121576D01*
X74774Y121631D01*
X75431Y122069D01*
X75869Y122726D01*
X75924Y123000D01*
D02*
G37*
G36*
X73500D02*
X72076D01*
X72131Y122726D01*
X72569Y122069D01*
X73226Y121631D01*
X73500Y121576D01*
Y123000D01*
D02*
G37*
G36*
X424811Y125209D02*
X421093D01*
X421173Y124600D01*
X421601Y123567D01*
X422282Y122679D01*
X423169Y121998D01*
X424202Y121570D01*
X424811Y121490D01*
Y125209D01*
D02*
G37*
G36*
X39812Y125209D02*
X36093D01*
X36173Y124600D01*
X36601Y123567D01*
X37282Y122679D01*
X38169Y121998D01*
X39202Y121570D01*
X39812Y121490D01*
Y125209D01*
D02*
G37*
G36*
X44530D02*
X40811D01*
Y121490D01*
X41420Y121570D01*
X42454Y121998D01*
X43341Y122679D01*
X44022Y123567D01*
X44450Y124600D01*
X44530Y125209D01*
D02*
G37*
G36*
X429530Y125209D02*
X425811D01*
Y121490D01*
X426420Y121570D01*
X427454Y121998D01*
X428341Y122679D01*
X429022Y123567D01*
X429450Y124600D01*
X429530Y125209D01*
D02*
G37*
G36*
X450790Y125209D02*
X447071D01*
Y121490D01*
X447680Y121570D01*
X448714Y121998D01*
X449601Y122679D01*
X450282Y123566D01*
X450710Y124600D01*
X450790Y125209D01*
D02*
G37*
G36*
X407168D02*
X403449D01*
Y121490D01*
X404058Y121570D01*
X405092Y121998D01*
X405979Y122679D01*
X406660Y123566D01*
X407088Y124600D01*
X407168Y125209D01*
D02*
G37*
G36*
X61071Y125209D02*
X57352D01*
X57433Y124600D01*
X57861Y123566D01*
X58542Y122679D01*
X59429Y121998D01*
X60462Y121570D01*
X61071Y121490D01*
Y125209D01*
D02*
G37*
G36*
X65790D02*
X62071D01*
Y121490D01*
X62680Y121570D01*
X63714Y121998D01*
X64601Y122679D01*
X65282Y123566D01*
X65710Y124600D01*
X65790Y125209D01*
D02*
G37*
G36*
X22168D02*
X18449D01*
Y121490D01*
X19058Y121570D01*
X20092Y121998D01*
X20979Y122679D01*
X21660Y123566D01*
X22088Y124600D01*
X22168Y125209D01*
D02*
G37*
G36*
X446071Y125209D02*
X442352D01*
X442432Y124600D01*
X442861Y123566D01*
X443541Y122679D01*
X444429Y121998D01*
X445462Y121570D01*
X446071Y121490D01*
Y125209D01*
D02*
G37*
G36*
X402449D02*
X398730D01*
X398811Y124600D01*
X399239Y123566D01*
X399920Y122679D01*
X400807Y121998D01*
X401840Y121570D01*
X402449Y121490D01*
Y125209D01*
D02*
G37*
G36*
X74552Y110243D02*
Y106524D01*
X78271D01*
X78190Y107133D01*
X77762Y108167D01*
X77081Y109054D01*
X76194Y109735D01*
X75161Y110163D01*
X74552Y110243D01*
D02*
G37*
G36*
X73552D02*
X72943Y110163D01*
X71909Y109735D01*
X71022Y109054D01*
X70341Y108167D01*
X69913Y107133D01*
X69833Y106524D01*
X73552D01*
Y110243D01*
D02*
G37*
G36*
X459552D02*
Y106524D01*
X463271D01*
X463190Y107133D01*
X462762Y108167D01*
X462081Y109054D01*
X461194Y109735D01*
X460161Y110163D01*
X459552Y110243D01*
D02*
G37*
G36*
X458552D02*
X457943Y110163D01*
X456909Y109735D01*
X456022Y109054D01*
X455341Y108167D01*
X454913Y107133D01*
X454833Y106524D01*
X458552D01*
Y110243D01*
D02*
G37*
G36*
X463271Y105524D02*
X459552D01*
Y101805D01*
X460161Y101885D01*
X461194Y102314D01*
X462081Y102995D01*
X462762Y103882D01*
X463190Y104915D01*
X463271Y105524D01*
D02*
G37*
G36*
X73552Y105524D02*
X69833D01*
X69913Y104915D01*
X70341Y103882D01*
X71022Y102995D01*
X71909Y102314D01*
X72943Y101885D01*
X73552Y101805D01*
Y105524D01*
D02*
G37*
G36*
X78271D02*
X74552D01*
Y101805D01*
X75161Y101885D01*
X76194Y102314D01*
X77081Y102995D01*
X77762Y103882D01*
X78190Y104915D01*
X78271Y105524D01*
D02*
G37*
G36*
X458552Y105524D02*
X454833D01*
X454913Y104915D01*
X455341Y103882D01*
X456022Y102995D01*
X456909Y102314D01*
X457943Y101885D01*
X458552Y101805D01*
Y105524D01*
D02*
G37*
G36*
X403449Y90558D02*
Y86839D01*
X407168D01*
X407088Y87448D01*
X406660Y88481D01*
X405979Y89368D01*
X405092Y90049D01*
X404058Y90478D01*
X403449Y90558D01*
D02*
G37*
G36*
X18449D02*
Y86839D01*
X22168D01*
X22088Y87448D01*
X21660Y88481D01*
X20979Y89368D01*
X20092Y90049D01*
X19058Y90478D01*
X18449Y90558D01*
D02*
G37*
G36*
X402449D02*
X401840Y90478D01*
X400807Y90049D01*
X399920Y89368D01*
X399239Y88481D01*
X398811Y87448D01*
X398730Y86839D01*
X402449D01*
Y90558D01*
D02*
G37*
G36*
X407168Y85839D02*
X403449D01*
Y82120D01*
X404058Y82200D01*
X405092Y82628D01*
X405979Y83309D01*
X406660Y84196D01*
X407088Y85230D01*
X407168Y85839D01*
D02*
G37*
G36*
X22168D02*
X18449D01*
Y82120D01*
X19058Y82200D01*
X20092Y82628D01*
X20979Y83309D01*
X21660Y84196D01*
X22088Y85230D01*
X22168Y85839D01*
D02*
G37*
G36*
X402449D02*
X398730D01*
X398811Y85230D01*
X399239Y84196D01*
X399920Y83309D01*
X400807Y82628D01*
X401840Y82200D01*
X402449Y82120D01*
Y85839D01*
D02*
G37*
G36*
X459552Y70873D02*
Y67154D01*
X463271D01*
X463191Y67763D01*
X462762Y68796D01*
X462081Y69684D01*
X461194Y70365D01*
X460161Y70793D01*
X459552Y70873D01*
D02*
G37*
G36*
X74552D02*
Y67154D01*
X78271D01*
X78190Y67763D01*
X77762Y68796D01*
X77082Y69684D01*
X76194Y70365D01*
X75161Y70793D01*
X74552Y70873D01*
D02*
G37*
G36*
X458552D02*
X457943Y70793D01*
X456909Y70365D01*
X456022Y69684D01*
X455341Y68796D01*
X454913Y67763D01*
X454833Y67154D01*
X458552D01*
Y70873D01*
D02*
G37*
G36*
X73552D02*
X72943Y70793D01*
X71909Y70365D01*
X71022Y69684D01*
X70341Y68796D01*
X69913Y67763D01*
X69833Y67154D01*
X73552D01*
Y70873D01*
D02*
G37*
G36*
X463271Y66154D02*
X459552D01*
Y62435D01*
X460161Y62515D01*
X461194Y62944D01*
X462081Y63624D01*
X462762Y64512D01*
X463191Y65545D01*
X463271Y66154D01*
D02*
G37*
G36*
X78271D02*
X74552D01*
Y62435D01*
X75161Y62515D01*
X76194Y62944D01*
X77082Y63624D01*
X77762Y64512D01*
X78190Y65545D01*
X78271Y66154D01*
D02*
G37*
G36*
X458552D02*
X454833D01*
X454913Y65545D01*
X455341Y64512D01*
X456022Y63624D01*
X456909Y62944D01*
X457943Y62515D01*
X458552Y62435D01*
Y66154D01*
D02*
G37*
G36*
X73552D02*
X69833D01*
X69913Y65545D01*
X70341Y64512D01*
X71022Y63624D01*
X71909Y62944D01*
X72943Y62515D01*
X73552Y62435D01*
Y66154D01*
D02*
G37*
G36*
X403449Y51187D02*
Y47469D01*
X407168D01*
X407088Y48078D01*
X406660Y49111D01*
X405979Y49998D01*
X405092Y50679D01*
X404058Y51107D01*
X403449Y51187D01*
D02*
G37*
G36*
X402449Y51187D02*
X401840Y51107D01*
X400807Y50679D01*
X399920Y49998D01*
X399239Y49111D01*
X398811Y48078D01*
X398731Y47469D01*
X402449D01*
Y51187D01*
D02*
G37*
G36*
X18449D02*
Y47469D01*
X22168D01*
X22088Y48078D01*
X21660Y49111D01*
X20979Y49998D01*
X20092Y50679D01*
X19058Y51107D01*
X18449Y51187D01*
D02*
G37*
G36*
X437229Y51187D02*
Y47468D01*
X440948D01*
X440868Y48077D01*
X440440Y49110D01*
X439759Y49998D01*
X438871Y50679D01*
X437838Y51107D01*
X437229Y51187D01*
D02*
G37*
G36*
X52229D02*
Y47468D01*
X55948D01*
X55868Y48077D01*
X55440Y49110D01*
X54759Y49998D01*
X53871Y50679D01*
X52838Y51107D01*
X52229Y51187D01*
D02*
G37*
G36*
X436229D02*
X435620Y51107D01*
X434587Y50679D01*
X433699Y49998D01*
X433018Y49110D01*
X432590Y48077D01*
X432510Y47468D01*
X436229D01*
Y51187D01*
D02*
G37*
G36*
X51229D02*
X50620Y51107D01*
X49587Y50679D01*
X48699Y49998D01*
X48018Y49110D01*
X47590Y48077D01*
X47510Y47468D01*
X51229D01*
Y51187D01*
D02*
G37*
G36*
X402449Y46469D02*
X398731D01*
X398811Y45860D01*
X399239Y44826D01*
X399920Y43939D01*
X400807Y43258D01*
X401840Y42830D01*
X402449Y42750D01*
Y46469D01*
D02*
G37*
G36*
X22168Y46469D02*
X18449D01*
Y42750D01*
X19058Y42830D01*
X20092Y43258D01*
X20979Y43939D01*
X21660Y44826D01*
X22088Y45860D01*
X22168Y46469D01*
D02*
G37*
G36*
X407168Y46469D02*
X403449D01*
Y42750D01*
X404058Y42830D01*
X405092Y43258D01*
X405979Y43939D01*
X406660Y44826D01*
X407088Y45860D01*
X407168Y46469D01*
D02*
G37*
G36*
X440948Y46468D02*
X437229D01*
Y42749D01*
X437838Y42829D01*
X438871Y43257D01*
X439759Y43938D01*
X440440Y44826D01*
X440868Y45859D01*
X440948Y46468D01*
D02*
G37*
G36*
X55948D02*
X52229D01*
Y42749D01*
X52838Y42829D01*
X53871Y43257D01*
X54759Y43938D01*
X55440Y44826D01*
X55868Y45859D01*
X55948Y46468D01*
D02*
G37*
G36*
X436229D02*
X432510D01*
X432590Y45859D01*
X433018Y44826D01*
X433699Y43938D01*
X434587Y43257D01*
X435620Y42829D01*
X436229Y42749D01*
Y46468D01*
D02*
G37*
G36*
X51229D02*
X47510D01*
X47590Y45859D01*
X48018Y44826D01*
X48699Y43938D01*
X49587Y43257D01*
X50620Y42829D01*
X51229Y42749D01*
Y46468D01*
D02*
G37*
G36*
X384272Y41973D02*
Y36503D01*
X387957D01*
Y37854D01*
X387815Y38937D01*
X387397Y39946D01*
X386732Y40813D01*
X385865Y41478D01*
X384855Y41896D01*
X384272Y41973D01*
D02*
G37*
G36*
X383272D02*
X382689Y41896D01*
X381679Y41478D01*
X380813Y40813D01*
X380147Y39946D01*
X379729Y38937D01*
X379587Y37854D01*
Y36503D01*
X383272D01*
Y41973D01*
D02*
G37*
G36*
X320647D02*
Y36503D01*
X324332D01*
Y37854D01*
X324190Y38937D01*
X323772Y39946D01*
X323107Y40813D01*
X322240Y41478D01*
X321230Y41896D01*
X320647Y41973D01*
D02*
G37*
G36*
X319647D02*
X319064Y41896D01*
X318054Y41478D01*
X317187Y40813D01*
X316522Y39946D01*
X316104Y38937D01*
X315962Y37854D01*
Y36503D01*
X319647D01*
Y41973D01*
D02*
G37*
G36*
X305772D02*
Y36503D01*
X309457D01*
Y37854D01*
X309315Y38937D01*
X308897Y39946D01*
X308231Y40813D01*
X307365Y41478D01*
X306355Y41896D01*
X305772Y41973D01*
D02*
G37*
G36*
X304772D02*
X304189Y41896D01*
X303179Y41478D01*
X302312Y40813D01*
X301647Y39946D01*
X301229Y38937D01*
X301087Y37854D01*
Y36503D01*
X304772D01*
Y41973D01*
D02*
G37*
G36*
X242147D02*
Y36503D01*
X245832D01*
Y37854D01*
X245690Y38937D01*
X245272Y39946D01*
X244606Y40813D01*
X243740Y41478D01*
X242730Y41896D01*
X242147Y41973D01*
D02*
G37*
G36*
X241147D02*
X240564Y41896D01*
X239554Y41478D01*
X238687Y40813D01*
X238022Y39946D01*
X237604Y38937D01*
X237462Y37854D01*
Y36503D01*
X241147D01*
Y41973D01*
D02*
G37*
G36*
X228772D02*
Y36503D01*
X232457D01*
Y37854D01*
X232315Y38937D01*
X231897Y39946D01*
X231231Y40813D01*
X230365Y41478D01*
X229355Y41896D01*
X228772Y41973D01*
D02*
G37*
G36*
X227772D02*
X227189Y41896D01*
X226179Y41478D01*
X225312Y40813D01*
X224647Y39946D01*
X224229Y38937D01*
X224087Y37854D01*
Y36503D01*
X227772D01*
Y41973D01*
D02*
G37*
G36*
X165147D02*
Y36503D01*
X168832D01*
Y37854D01*
X168690Y38937D01*
X168272Y39946D01*
X167606Y40813D01*
X166740Y41478D01*
X165730Y41896D01*
X165147Y41973D01*
D02*
G37*
G36*
X164147D02*
X163564Y41896D01*
X162554Y41478D01*
X161687Y40813D01*
X161022Y39946D01*
X160604Y38937D01*
X160462Y37854D01*
Y36503D01*
X164147D01*
Y41973D01*
D02*
G37*
G36*
X147772D02*
Y36503D01*
X151457D01*
Y37854D01*
X151315Y38937D01*
X150897Y39946D01*
X150232Y40813D01*
X149365Y41478D01*
X148355Y41896D01*
X147772Y41973D01*
D02*
G37*
G36*
X146772D02*
X146189Y41896D01*
X145179Y41478D01*
X144313Y40813D01*
X143647Y39946D01*
X143229Y38937D01*
X143087Y37854D01*
Y36503D01*
X146772D01*
Y41973D01*
D02*
G37*
G36*
X84147D02*
Y36503D01*
X87832D01*
Y37854D01*
X87690Y38937D01*
X87272Y39946D01*
X86607Y40813D01*
X85740Y41478D01*
X84730Y41896D01*
X84147Y41973D01*
D02*
G37*
G36*
X83147D02*
X82564Y41896D01*
X81554Y41478D01*
X80687Y40813D01*
X80022Y39946D01*
X79604Y38937D01*
X79462Y37854D01*
Y36503D01*
X83147D01*
Y41973D01*
D02*
G37*
G36*
X387957Y35503D02*
X384272D01*
Y30033D01*
X384855Y30110D01*
X385865Y30528D01*
X386732Y31193D01*
X387397Y32060D01*
X387815Y33070D01*
X387957Y34153D01*
Y35503D01*
D02*
G37*
G36*
X383272D02*
X379587D01*
Y34153D01*
X379729Y33070D01*
X380147Y32060D01*
X380813Y31193D01*
X381679Y30528D01*
X382689Y30110D01*
X383272Y30033D01*
Y35503D01*
D02*
G37*
G36*
X324332D02*
X320647D01*
Y30033D01*
X321230Y30110D01*
X322240Y30528D01*
X323107Y31193D01*
X323772Y32060D01*
X324190Y33070D01*
X324332Y34153D01*
Y35503D01*
D02*
G37*
G36*
X319647D02*
X315962D01*
Y34153D01*
X316104Y33070D01*
X316522Y32060D01*
X317187Y31193D01*
X318054Y30528D01*
X319064Y30110D01*
X319647Y30033D01*
Y35503D01*
D02*
G37*
G36*
X309457D02*
X305772D01*
Y30033D01*
X306355Y30110D01*
X307365Y30528D01*
X308231Y31193D01*
X308897Y32060D01*
X309315Y33070D01*
X309457Y34153D01*
Y35503D01*
D02*
G37*
G36*
X304772D02*
X301087D01*
Y34153D01*
X301229Y33070D01*
X301647Y32060D01*
X302312Y31193D01*
X303179Y30528D01*
X304189Y30110D01*
X304772Y30033D01*
Y35503D01*
D02*
G37*
G36*
X245832D02*
X242147D01*
Y30033D01*
X242730Y30110D01*
X243740Y30528D01*
X244606Y31193D01*
X245272Y32060D01*
X245690Y33070D01*
X245832Y34153D01*
Y35503D01*
D02*
G37*
G36*
X241147D02*
X237462D01*
Y34153D01*
X237604Y33070D01*
X238022Y32060D01*
X238687Y31193D01*
X239554Y30528D01*
X240564Y30110D01*
X241147Y30033D01*
Y35503D01*
D02*
G37*
G36*
X232457D02*
X228772D01*
Y30033D01*
X229355Y30110D01*
X230365Y30528D01*
X231231Y31193D01*
X231897Y32060D01*
X232315Y33070D01*
X232457Y34153D01*
Y35503D01*
D02*
G37*
G36*
X227772D02*
X224087D01*
Y34153D01*
X224229Y33070D01*
X224647Y32060D01*
X225312Y31193D01*
X226179Y30528D01*
X227189Y30110D01*
X227772Y30033D01*
Y35503D01*
D02*
G37*
G36*
X168832D02*
X165147D01*
Y30033D01*
X165730Y30110D01*
X166740Y30528D01*
X167606Y31193D01*
X168272Y32060D01*
X168690Y33070D01*
X168832Y34153D01*
Y35503D01*
D02*
G37*
G36*
X164147D02*
X160462D01*
Y34153D01*
X160604Y33070D01*
X161022Y32060D01*
X161687Y31193D01*
X162554Y30528D01*
X163564Y30110D01*
X164147Y30033D01*
Y35503D01*
D02*
G37*
G36*
X151457D02*
X147772D01*
Y30033D01*
X148355Y30110D01*
X149365Y30528D01*
X150232Y31193D01*
X150897Y32060D01*
X151315Y33070D01*
X151457Y34153D01*
Y35503D01*
D02*
G37*
G36*
X146772D02*
X143087D01*
Y34153D01*
X143229Y33070D01*
X143647Y32060D01*
X144313Y31193D01*
X145179Y30528D01*
X146189Y30110D01*
X146772Y30033D01*
Y35503D01*
D02*
G37*
G36*
X87832D02*
X84147D01*
Y30033D01*
X84730Y30110D01*
X85740Y30528D01*
X86607Y31193D01*
X87272Y32060D01*
X87690Y33070D01*
X87832Y34153D01*
Y35503D01*
D02*
G37*
G36*
X83147D02*
X79462D01*
Y34153D01*
X79604Y33070D01*
X80022Y32060D01*
X80687Y31193D01*
X81554Y30528D01*
X82564Y30110D01*
X83147Y30033D01*
Y35503D01*
D02*
G37*
G36*
X350191Y36009D02*
X349333Y35896D01*
X348533Y35565D01*
X347846Y35038D01*
X347319Y34351D01*
X346988Y33551D01*
X346875Y32693D01*
X346988Y31835D01*
X347319Y31035D01*
X347846Y30349D01*
X348533Y29822D01*
X349333Y29490D01*
X350191Y29377D01*
X351049Y29490D01*
X351849Y29822D01*
X352536Y30349D01*
X353063Y31035D01*
X353394Y31835D01*
X353507Y32693D01*
X353394Y33551D01*
X353063Y34351D01*
X352536Y35038D01*
X351849Y35565D01*
X351049Y35896D01*
X350191Y36009D01*
D02*
G37*
G36*
X271691D02*
X270833Y35896D01*
X270033Y35565D01*
X269346Y35038D01*
X268819Y34351D01*
X268488Y33551D01*
X268375Y32693D01*
X268488Y31835D01*
X268819Y31035D01*
X269346Y30349D01*
X270033Y29822D01*
X270833Y29490D01*
X271691Y29377D01*
X272549Y29490D01*
X273349Y29822D01*
X274036Y30349D01*
X274563Y31035D01*
X274894Y31835D01*
X275007Y32693D01*
X274894Y33551D01*
X274563Y34351D01*
X274036Y35038D01*
X273349Y35565D01*
X272549Y35896D01*
X271691Y36009D01*
D02*
G37*
G36*
X194691D02*
X193833Y35896D01*
X193033Y35565D01*
X192346Y35038D01*
X191819Y34351D01*
X191488Y33551D01*
X191375Y32693D01*
X191488Y31835D01*
X191819Y31035D01*
X192346Y30349D01*
X193033Y29822D01*
X193833Y29490D01*
X194691Y29377D01*
X195549Y29490D01*
X196349Y29822D01*
X197036Y30349D01*
X197563Y31035D01*
X197894Y31835D01*
X198007Y32693D01*
X197894Y33551D01*
X197563Y34351D01*
X197036Y35038D01*
X196349Y35565D01*
X195549Y35896D01*
X194691Y36009D01*
D02*
G37*
G36*
X113691D02*
X112833Y35896D01*
X112033Y35565D01*
X111346Y35038D01*
X110819Y34351D01*
X110488Y33551D01*
X110375Y32693D01*
X110488Y31835D01*
X110819Y31035D01*
X111346Y30349D01*
X112033Y29822D01*
X112833Y29490D01*
X113691Y29377D01*
X114549Y29490D01*
X115349Y29822D01*
X116036Y30349D01*
X116562Y31035D01*
X116894Y31835D01*
X117007Y32693D01*
X116894Y33551D01*
X116562Y34351D01*
X116036Y35038D01*
X115349Y35565D01*
X114549Y35896D01*
X113691Y36009D01*
D02*
G37*
G36*
X342009Y35799D02*
X341151Y35686D01*
X340351Y35355D01*
X339664Y34828D01*
X339137Y34141D01*
X338806Y33341D01*
X338693Y32483D01*
X338806Y31625D01*
X339137Y30825D01*
X339664Y30139D01*
X340351Y29612D01*
X341151Y29280D01*
X342009Y29167D01*
X342867Y29280D01*
X343667Y29612D01*
X344354Y30139D01*
X344881Y30825D01*
X345212Y31625D01*
X345325Y32483D01*
X345212Y33341D01*
X344881Y34141D01*
X344354Y34828D01*
X343667Y35355D01*
X342867Y35686D01*
X342009Y35799D01*
D02*
G37*
G36*
X263509D02*
X262651Y35686D01*
X261851Y35355D01*
X261164Y34828D01*
X260637Y34141D01*
X260306Y33341D01*
X260193Y32483D01*
X260306Y31625D01*
X260637Y30825D01*
X261164Y30139D01*
X261851Y29612D01*
X262651Y29280D01*
X263509Y29167D01*
X264367Y29280D01*
X265167Y29612D01*
X265854Y30139D01*
X266381Y30825D01*
X266712Y31625D01*
X266825Y32483D01*
X266712Y33341D01*
X266381Y34141D01*
X265854Y34828D01*
X265167Y35355D01*
X264367Y35686D01*
X263509Y35799D01*
D02*
G37*
G36*
X186509D02*
X185651Y35686D01*
X184851Y35355D01*
X184164Y34828D01*
X183637Y34141D01*
X183306Y33341D01*
X183193Y32483D01*
X183306Y31625D01*
X183637Y30825D01*
X184164Y30139D01*
X184851Y29612D01*
X185651Y29280D01*
X186509Y29167D01*
X187367Y29280D01*
X188167Y29612D01*
X188854Y30139D01*
X189381Y30825D01*
X189712Y31625D01*
X189825Y32483D01*
X189712Y33341D01*
X189381Y34141D01*
X188854Y34828D01*
X188167Y35355D01*
X187367Y35686D01*
X186509Y35799D01*
D02*
G37*
G36*
X105509D02*
X104651Y35686D01*
X103851Y35355D01*
X103164Y34828D01*
X102637Y34141D01*
X102306Y33341D01*
X102193Y32483D01*
X102306Y31625D01*
X102637Y30825D01*
X103164Y30139D01*
X103851Y29612D01*
X104651Y29280D01*
X105509Y29167D01*
X106367Y29280D01*
X107167Y29612D01*
X107854Y30139D01*
X108380Y30825D01*
X108712Y31625D01*
X108825Y32483D01*
X108712Y33341D01*
X108380Y34141D01*
X107854Y34828D01*
X107167Y35355D01*
X106367Y35686D01*
X105509Y35799D01*
D02*
G37*
G36*
X366079Y35784D02*
X365221Y35671D01*
X364421Y35340D01*
X363734Y34813D01*
X363207Y34126D01*
X362876Y33326D01*
X362763Y32468D01*
X362876Y31610D01*
X363207Y30810D01*
X363734Y30124D01*
X364421Y29597D01*
X365221Y29265D01*
X366079Y29152D01*
X366937Y29265D01*
X367737Y29597D01*
X368424Y30124D01*
X368951Y30810D01*
X369282Y31610D01*
X369395Y32468D01*
X369282Y33326D01*
X368951Y34126D01*
X368424Y34813D01*
X367737Y35340D01*
X366937Y35671D01*
X366079Y35784D01*
D02*
G37*
G36*
X287579D02*
X286721Y35671D01*
X285921Y35340D01*
X285234Y34813D01*
X284707Y34126D01*
X284376Y33326D01*
X284263Y32468D01*
X284376Y31610D01*
X284707Y30810D01*
X285234Y30124D01*
X285921Y29597D01*
X286721Y29265D01*
X287579Y29152D01*
X288437Y29265D01*
X289237Y29597D01*
X289924Y30124D01*
X290451Y30810D01*
X290782Y31610D01*
X290895Y32468D01*
X290782Y33326D01*
X290451Y34126D01*
X289924Y34813D01*
X289237Y35340D01*
X288437Y35671D01*
X287579Y35784D01*
D02*
G37*
G36*
X210579D02*
X209721Y35671D01*
X208921Y35340D01*
X208234Y34813D01*
X207707Y34126D01*
X207376Y33326D01*
X207263Y32468D01*
X207376Y31610D01*
X207707Y30810D01*
X208234Y30124D01*
X208921Y29597D01*
X209721Y29265D01*
X210579Y29152D01*
X211437Y29265D01*
X212237Y29597D01*
X212924Y30124D01*
X213451Y30810D01*
X213782Y31610D01*
X213895Y32468D01*
X213782Y33326D01*
X213451Y34126D01*
X212924Y34813D01*
X212237Y35340D01*
X211437Y35671D01*
X210579Y35784D01*
D02*
G37*
G36*
X129579D02*
X128721Y35671D01*
X127921Y35340D01*
X127234Y34813D01*
X126707Y34126D01*
X126376Y33326D01*
X126263Y32468D01*
X126376Y31610D01*
X126707Y30810D01*
X127234Y30124D01*
X127921Y29597D01*
X128721Y29265D01*
X129579Y29152D01*
X130437Y29265D01*
X131237Y29597D01*
X131924Y30124D01*
X132450Y30810D01*
X132782Y31610D01*
X132895Y32468D01*
X132782Y33326D01*
X132450Y34126D01*
X131924Y34813D01*
X131237Y35340D01*
X130437Y35671D01*
X129579Y35784D01*
D02*
G37*
G36*
X358104Y35669D02*
X357246Y35556D01*
X356446Y35225D01*
X355759Y34698D01*
X355232Y34011D01*
X354901Y33211D01*
X354788Y32353D01*
X354901Y31495D01*
X355232Y30695D01*
X355759Y30009D01*
X356446Y29482D01*
X357246Y29150D01*
X358104Y29037D01*
X358962Y29150D01*
X359762Y29482D01*
X360449Y30009D01*
X360976Y30695D01*
X361307Y31495D01*
X361420Y32353D01*
X361307Y33211D01*
X360976Y34011D01*
X360449Y34698D01*
X359762Y35225D01*
X358962Y35556D01*
X358104Y35669D01*
D02*
G37*
G36*
X279604D02*
X278746Y35556D01*
X277946Y35225D01*
X277259Y34698D01*
X276732Y34011D01*
X276401Y33211D01*
X276288Y32353D01*
X276401Y31495D01*
X276732Y30695D01*
X277259Y30009D01*
X277946Y29482D01*
X278746Y29150D01*
X279604Y29037D01*
X280462Y29150D01*
X281262Y29482D01*
X281949Y30009D01*
X282475Y30695D01*
X282807Y31495D01*
X282920Y32353D01*
X282807Y33211D01*
X282475Y34011D01*
X281949Y34698D01*
X281262Y35225D01*
X280462Y35556D01*
X279604Y35669D01*
D02*
G37*
G36*
X202604D02*
X201746Y35556D01*
X200946Y35225D01*
X200259Y34698D01*
X199732Y34011D01*
X199401Y33211D01*
X199288Y32353D01*
X199401Y31495D01*
X199732Y30695D01*
X200259Y30009D01*
X200946Y29482D01*
X201746Y29150D01*
X202604Y29037D01*
X203462Y29150D01*
X204262Y29482D01*
X204949Y30009D01*
X205475Y30695D01*
X205807Y31495D01*
X205920Y32353D01*
X205807Y33211D01*
X205475Y34011D01*
X204949Y34698D01*
X204262Y35225D01*
X203462Y35556D01*
X202604Y35669D01*
D02*
G37*
G36*
X121604D02*
X120746Y35556D01*
X119946Y35225D01*
X119259Y34698D01*
X118732Y34011D01*
X118401Y33211D01*
X118288Y32353D01*
X118401Y31495D01*
X118732Y30695D01*
X119259Y30009D01*
X119946Y29482D01*
X120746Y29150D01*
X121604Y29037D01*
X122462Y29150D01*
X123262Y29482D01*
X123949Y30009D01*
X124476Y30695D01*
X124807Y31495D01*
X124920Y32353D01*
X124807Y33211D01*
X124476Y34011D01*
X123949Y34698D01*
X123262Y35225D01*
X122462Y35556D01*
X121604Y35669D01*
D02*
G37*
G36*
X377255Y29802D02*
X375839Y29662D01*
X374477Y29249D01*
X373222Y28578D01*
X372122Y27675D01*
X371219Y26575D01*
X370548Y25320D01*
X370135Y23958D01*
X369996Y22542D01*
X370135Y21126D01*
X370548Y19764D01*
X371219Y18509D01*
X372122Y17409D01*
X373222Y16506D01*
X374477Y15835D01*
X375839Y15422D01*
X377255Y15283D01*
X378671Y15422D01*
X380033Y15835D01*
X381288Y16506D01*
X382388Y17409D01*
X383291Y18509D01*
X383962Y19764D01*
X384375Y21126D01*
X384514Y22542D01*
X384375Y23958D01*
X383962Y25320D01*
X383291Y26575D01*
X382388Y27675D01*
X381288Y28578D01*
X380033Y29249D01*
X378671Y29662D01*
X377255Y29802D01*
D02*
G37*
G36*
X298755D02*
X297339Y29662D01*
X295977Y29249D01*
X294722Y28578D01*
X293622Y27675D01*
X292719Y26575D01*
X292048Y25320D01*
X291635Y23958D01*
X291496Y22542D01*
X291635Y21126D01*
X292048Y19764D01*
X292719Y18509D01*
X293622Y17409D01*
X294722Y16506D01*
X295977Y15835D01*
X297339Y15422D01*
X298755Y15283D01*
X300171Y15422D01*
X301533Y15835D01*
X302788Y16506D01*
X303888Y17409D01*
X304791Y18509D01*
X305462Y19764D01*
X305875Y21126D01*
X306014Y22542D01*
X305875Y23958D01*
X305462Y25320D01*
X304791Y26575D01*
X303888Y27675D01*
X302788Y28578D01*
X301533Y29249D01*
X300171Y29662D01*
X298755Y29802D01*
D02*
G37*
G36*
X221755D02*
X220339Y29662D01*
X218977Y29249D01*
X217722Y28578D01*
X216622Y27675D01*
X215719Y26575D01*
X215048Y25320D01*
X214635Y23958D01*
X214496Y22542D01*
X214635Y21126D01*
X215048Y19764D01*
X215719Y18509D01*
X216622Y17409D01*
X217722Y16506D01*
X218977Y15835D01*
X220339Y15422D01*
X221755Y15283D01*
X223171Y15422D01*
X224533Y15835D01*
X225788Y16506D01*
X226888Y17409D01*
X227791Y18509D01*
X228462Y19764D01*
X228875Y21126D01*
X229014Y22542D01*
X228875Y23958D01*
X228462Y25320D01*
X227791Y26575D01*
X226888Y27675D01*
X225788Y28578D01*
X224533Y29249D01*
X223171Y29662D01*
X221755Y29802D01*
D02*
G37*
G36*
X140755D02*
X139339Y29662D01*
X137977Y29249D01*
X136722Y28578D01*
X135622Y27675D01*
X134719Y26575D01*
X134048Y25320D01*
X133635Y23958D01*
X133496Y22542D01*
X133635Y21126D01*
X134048Y19764D01*
X134719Y18509D01*
X135622Y17409D01*
X136722Y16506D01*
X137977Y15835D01*
X139339Y15422D01*
X140755Y15283D01*
X142171Y15422D01*
X143533Y15835D01*
X144788Y16506D01*
X145888Y17409D01*
X146791Y18509D01*
X147462Y19764D01*
X147875Y21126D01*
X148014Y22542D01*
X147875Y23958D01*
X147462Y25320D01*
X146791Y26575D01*
X145888Y27675D01*
X144788Y28578D01*
X143533Y29249D01*
X142171Y29662D01*
X140755Y29802D01*
D02*
G37*
G36*
X326882Y29459D02*
X325466Y29319D01*
X324104Y28906D01*
X322849Y28235D01*
X321749Y27332D01*
X320846Y26232D01*
X320175Y24977D01*
X319762Y23615D01*
X319623Y22199D01*
X319762Y20783D01*
X320175Y19421D01*
X320846Y18166D01*
X321749Y17066D01*
X322849Y16163D01*
X324104Y15492D01*
X325466Y15079D01*
X326882Y14940D01*
X328298Y15079D01*
X329660Y15492D01*
X330915Y16163D01*
X332015Y17066D01*
X332918Y18166D01*
X333589Y19421D01*
X334002Y20783D01*
X334141Y22199D01*
X334002Y23615D01*
X333589Y24977D01*
X332918Y26232D01*
X332015Y27332D01*
X330915Y28235D01*
X329660Y28906D01*
X328298Y29319D01*
X326882Y29459D01*
D02*
G37*
G36*
X248382D02*
X246966Y29319D01*
X245604Y28906D01*
X244349Y28235D01*
X243249Y27332D01*
X242346Y26232D01*
X241675Y24977D01*
X241262Y23615D01*
X241123Y22199D01*
X241262Y20783D01*
X241675Y19421D01*
X242346Y18166D01*
X243249Y17066D01*
X244349Y16163D01*
X245604Y15492D01*
X246966Y15079D01*
X248382Y14940D01*
X249798Y15079D01*
X251160Y15492D01*
X252415Y16163D01*
X253515Y17066D01*
X254418Y18166D01*
X255089Y19421D01*
X255502Y20783D01*
X255641Y22199D01*
X255502Y23615D01*
X255089Y24977D01*
X254418Y26232D01*
X253515Y27332D01*
X252415Y28235D01*
X251160Y28906D01*
X249798Y29319D01*
X248382Y29459D01*
D02*
G37*
G36*
X171382D02*
X169966Y29319D01*
X168604Y28906D01*
X167349Y28235D01*
X166249Y27332D01*
X165346Y26232D01*
X164675Y24977D01*
X164262Y23615D01*
X164123Y22199D01*
X164262Y20783D01*
X164675Y19421D01*
X165346Y18166D01*
X166249Y17066D01*
X167349Y16163D01*
X168604Y15492D01*
X169966Y15079D01*
X171382Y14940D01*
X172798Y15079D01*
X174160Y15492D01*
X175415Y16163D01*
X176515Y17066D01*
X177418Y18166D01*
X178089Y19421D01*
X178502Y20783D01*
X178641Y22199D01*
X178502Y23615D01*
X178089Y24977D01*
X177418Y26232D01*
X176515Y27332D01*
X175415Y28235D01*
X174160Y28906D01*
X172798Y29319D01*
X171382Y29459D01*
D02*
G37*
G36*
X90382D02*
X88966Y29319D01*
X87604Y28906D01*
X86349Y28235D01*
X85249Y27332D01*
X84346Y26232D01*
X83675Y24977D01*
X83262Y23615D01*
X83123Y22199D01*
X83262Y20783D01*
X83675Y19421D01*
X84346Y18166D01*
X85249Y17066D01*
X86349Y16163D01*
X87604Y15492D01*
X88966Y15079D01*
X90382Y14940D01*
X91798Y15079D01*
X93160Y15492D01*
X94415Y16163D01*
X95515Y17066D01*
X96418Y18166D01*
X97089Y19421D01*
X97502Y20783D01*
X97641Y22199D01*
X97502Y23615D01*
X97089Y24977D01*
X96418Y26232D01*
X95515Y27332D01*
X94415Y28235D01*
X93160Y28906D01*
X91798Y29319D01*
X90382Y29459D01*
D02*
G37*
G36*
X177500Y9424D02*
Y8000D01*
X178924D01*
X178869Y8274D01*
X178431Y8931D01*
X177774Y9369D01*
X177500Y9424D01*
D02*
G37*
G36*
X176500D02*
X176226Y9369D01*
X175569Y8931D01*
X175131Y8274D01*
X175076Y8000D01*
X176500D01*
Y9424D01*
D02*
G37*
G36*
X178924Y7000D02*
X177500D01*
Y5576D01*
X177774Y5631D01*
X178431Y6069D01*
X178869Y6726D01*
X178924Y7000D01*
D02*
G37*
G36*
X176500D02*
X175076D01*
X175131Y6726D01*
X175569Y6069D01*
X176226Y5631D01*
X176500Y5576D01*
Y7000D01*
D02*
G37*
%LPD*%
D15*
X174500Y39500D02*
Y48500D01*
X178510Y52510D02*
Y58428D01*
X174500Y48500D02*
X178510Y52510D01*
X252000Y54918D02*
X255510Y58428D01*
X252000Y37500D02*
Y54918D01*
D36*
X299500Y269500D02*
D03*
D80*
X454500Y240500D02*
D03*
X74051Y136733D02*
D03*
Y155237D02*
D03*
Y174922D02*
D03*
X64917Y193031D02*
D03*
X46019Y193032D02*
D03*
X27122Y193032D02*
D03*
X17949Y174922D02*
D03*
X17949Y165079D02*
D03*
X17949Y155236D02*
D03*
X17949Y136732D02*
D03*
X402949D02*
D03*
X402949Y155236D02*
D03*
X402949Y165079D02*
D03*
X402949Y174922D02*
D03*
X412122Y193032D02*
D03*
X431019Y193032D02*
D03*
X449917Y193031D02*
D03*
X459051Y174922D02*
D03*
Y155237D02*
D03*
Y136733D02*
D03*
D81*
X40312Y125709D02*
D03*
X61571Y125709D02*
D03*
X51729Y46968D02*
D03*
X74052Y66654D02*
D03*
X74052Y106024D02*
D03*
Y145394D02*
D03*
X74052Y184764D02*
D03*
X17949Y125709D02*
D03*
X17949Y86339D02*
D03*
X17950Y46969D02*
D03*
X402949D02*
D03*
X402949Y86339D02*
D03*
X402949Y125709D02*
D03*
X459052Y184764D02*
D03*
X459052Y145394D02*
D03*
Y106024D02*
D03*
X459052Y66654D02*
D03*
X436729Y46968D02*
D03*
X446571Y125709D02*
D03*
X425312Y125709D02*
D03*
D82*
X56232Y284441D02*
D03*
D85*
X228272Y36003D02*
D03*
X164647D02*
D03*
X305272D02*
D03*
X241647D02*
D03*
X383772D02*
D03*
X320147D02*
D03*
X147272D02*
D03*
X83647D02*
D03*
D86*
X178510Y58428D02*
D03*
X255510D02*
D03*
D89*
X101000Y148500D02*
D03*
X177000Y7500D02*
D03*
X25500Y241500D02*
D03*
X74000Y123500D02*
D03*
X59500Y211500D02*
D03*
X21500D02*
D03*
X63000Y232500D02*
D03*
X199000Y299500D02*
D03*
X97000Y233000D02*
D03*
X101000Y176000D02*
D03*
X202500Y251500D02*
D03*
X179000D02*
D03*
X417500Y246500D02*
D03*
X258000Y233500D02*
D03*
X203000Y231500D02*
D03*
X437500Y234000D02*
D03*
X169500Y229500D02*
D03*
X224500Y250500D02*
D03*
X276000Y262500D02*
D03*
X338500Y228500D02*
D03*
X253000Y218500D02*
D03*
X234000Y253000D02*
D03*
X227500Y219000D02*
D03*
X185500Y177000D02*
D03*
X207000Y175500D02*
D03*
X212000Y200500D02*
D03*
X210000Y209500D02*
D03*
X103500Y162000D02*
D03*
X208500Y187500D02*
D03*
X159500Y142000D02*
D03*
X359000Y134500D02*
D03*
X320000Y138000D02*
D03*
X117500Y144000D02*
D03*
X153000Y149000D02*
D03*
X141000Y136500D02*
D03*
X192500Y174500D02*
D03*
X170500Y162000D02*
D03*
X255000Y187000D02*
D03*
X348000Y159500D02*
D03*
X375000D02*
D03*
X179000Y161500D02*
D03*
X276500Y152000D02*
D03*
X258000Y145000D02*
D03*
X277000Y139500D02*
D03*
X259000Y157000D02*
D03*
X230500Y168000D02*
D03*
X243000Y180500D02*
D03*
X208500Y141500D02*
D03*
X192500Y139500D02*
D03*
X225000Y202000D02*
D03*
X200500Y151500D02*
D03*
X105000Y292000D02*
D03*
X98000Y292500D02*
D03*
X90500D02*
D03*
X82500D02*
D03*
X105000Y302500D02*
D03*
X97500D02*
D03*
X90000D02*
D03*
X82500D02*
D03*
X128500Y287500D02*
D03*
X121500D02*
D03*
X128500Y297500D02*
D03*
X121500D02*
D03*
X158000Y250000D02*
D03*
X80500Y252000D02*
D03*
X391772Y263272D02*
D03*
X114000Y252000D02*
D03*
X344165Y173500D02*
D03*
X338272Y220272D02*
D03*
X50000Y189000D02*
D03*
X136500Y191500D02*
D03*
X166937Y211063D02*
D03*
X118728Y189272D02*
D03*
X136000Y177500D02*
D03*
X146500Y152000D02*
D03*
X133500Y167000D02*
D03*
X128500Y166500D02*
D03*
X131500Y169500D02*
D03*
X131000Y176000D02*
D03*
X137000Y175000D02*
D03*
X445960Y157540D02*
D03*
X442810Y159000D02*
D03*
X417500Y157000D02*
D03*
X434937Y188937D02*
D03*
X425490Y188990D02*
D03*
X435728Y170728D02*
D03*
X427500Y168000D02*
D03*
X444386Y189114D02*
D03*
X412675Y183825D02*
D03*
X374000Y234500D02*
D03*
X150500Y292500D02*
D03*
Y274000D02*
D03*
X210000Y299000D02*
D03*
X186000Y307500D02*
D03*
X224000Y295500D02*
D03*
X218500D02*
D03*
X263728Y263772D02*
D03*
X269500Y165500D02*
D03*
X281039Y161461D02*
D03*
X151500Y163500D02*
D03*
X158500Y199000D02*
D03*
X163500Y186000D02*
D03*
X150453Y201453D02*
D03*
X124000Y201500D02*
D03*
X88500Y252000D02*
D03*
X62500Y186500D02*
D03*
X48000Y168000D02*
D03*
X42500D02*
D03*
X63500Y152000D02*
D03*
X57810Y157810D02*
D03*
X32614D02*
D03*
X130500Y142500D02*
D03*
X140272Y146000D02*
D03*
X271500Y193862D02*
D03*
Y181264D02*
D03*
Y171815D02*
D03*
Y187563D02*
D03*
X344000Y207000D02*
D03*
Y211500D02*
D03*
X327685Y213815D02*
D03*
X346000Y178114D02*
D03*
X344000Y181000D02*
D03*
X346000Y183500D02*
D03*
X282039Y221539D02*
D03*
X294000Y227000D02*
D03*
X301500Y230500D02*
D03*
X310362Y156000D02*
D03*
X300914Y154587D02*
D03*
X319811Y154811D02*
D03*
X344165Y168665D02*
D03*
X186500Y302500D02*
D03*
X293500Y198500D02*
D03*
Y205000D02*
D03*
Y190000D02*
D03*
Y185000D02*
D03*
Y179500D02*
D03*
X296500Y178000D02*
D03*
X301500D02*
D03*
X306500D02*
D03*
X311500D02*
D03*
X316500D02*
D03*
X321500D02*
D03*
X326228Y186228D02*
D03*
Y169272D02*
D03*
Y201772D02*
D03*
X321500Y207000D02*
D03*
X305500D02*
D03*
X295728Y209728D02*
D03*
X271500Y212760D02*
D03*
Y203311D02*
D03*
X335000Y161461D02*
D03*
X360500Y179500D02*
D03*
X377750Y221250D02*
D03*
X316500Y257000D02*
D03*
X301169Y255669D02*
D03*
X308500Y240000D02*
D03*
X294000Y251000D02*
D03*
X279728Y250500D02*
D03*
X234000Y239500D02*
D03*
X111500Y164000D02*
D03*
X28675Y183825D02*
D03*
X40500Y189000D02*
D03*
X86272Y203772D02*
D03*
X101000Y184000D02*
D03*
X97500Y137500D02*
D03*
X180500Y134272D02*
D03*
X255500Y137500D02*
D03*
X330500Y134272D02*
D03*
X313500Y150000D02*
D03*
D91*
X56500Y284750D02*
D03*
M02*
