%FSLAX44Y44*%
%MOMM*%
G71*
G01*
G75*
G04 Layer_Color=8421504*
%ADD10R,0.6000X0.5000*%
%ADD11C,1.0000*%
%ADD12R,3.7000X3.7000*%
%ADD13R,0.2000X0.8000*%
%ADD14R,0.8000X0.2000*%
%ADD15R,7.3000X2.6500*%
%ADD16R,0.8128X0.8128*%
%ADD17R,0.5000X0.6000*%
%ADD18R,1.3970X1.3970*%
%ADD19R,1.0160X0.8890*%
%ADD20R,1.3970X1.3970*%
%ADD21R,2.4000X0.8000*%
%ADD22R,5.0000X5.3000*%
G04:AMPARAMS|DCode=23|XSize=2mm|YSize=2mm|CornerRadius=0mm|HoleSize=0mm|Usage=FLASHONLY|Rotation=180.000|XOffset=0mm|YOffset=0mm|HoleType=Round|Shape=RoundedRectangle|*
%AMROUNDEDRECTD23*
21,1,2.0000,2.0000,0,0,180.0*
21,1,2.0000,2.0000,0,0,180.0*
1,1,0.0000,-1.0000,1.0000*
1,1,0.0000,1.0000,1.0000*
1,1,0.0000,1.0000,-1.0000*
1,1,0.0000,-1.0000,-1.0000*
%
%ADD23ROUNDEDRECTD23*%
%ADD24R,1.4000X1.2000*%
G04:AMPARAMS|DCode=25|XSize=1.5mm|YSize=1.4mm|CornerRadius=0mm|HoleSize=0mm|Usage=FLASHONLY|Rotation=225.000|XOffset=0mm|YOffset=0mm|HoleType=Round|Shape=Rectangle|*
%AMROTATEDRECTD25*
4,1,4,0.0354,1.0253,1.0253,0.0354,-0.0354,-1.0253,-1.0253,-0.0354,0.0354,1.0253,0.0*
%
%ADD25ROTATEDRECTD25*%

%ADD26R,1.2954X1.1938*%
%ADD27R,2.0000X0.5004*%
%ADD28C,0.1780*%
%ADD29C,0.2000*%
%ADD30C,0.4000*%
%ADD31C,0.1270*%
%ADD32C,0.6000*%
%ADD33C,0.2540*%
%ADD34C,0.3000*%
%ADD35C,1.0000*%
%ADD36C,0.1800*%
%ADD37C,0.8000*%
%ADD38R,0.8890X0.8890*%
%ADD39O,1.5000X4.0000*%
%ADD40O,4.0000X1.5000*%
%ADD41R,1.0000X1.0000*%
%ADD42C,4.0000*%
%ADD43C,1.6500*%
%ADD44C,1.5240*%
%ADD45C,1.7000*%
%ADD46C,2.1590*%
%ADD47R,1.5240X1.5240*%
%ADD48C,3.2500*%
%ADD49C,0.5000*%
%ADD50C,2.0000*%
%ADD51C,0.1250*%
%ADD52C,0.1200*%
%ADD53C,0.1501*%
G36*
X648296Y156510D02*
X640296D01*
Y158511D01*
X648296D01*
X648296Y156510D01*
D02*
G37*
G36*
X698284Y152510D02*
X690284D01*
Y154510D01*
X698284D01*
Y152510D01*
D02*
G37*
G36*
Y156510D02*
X690284D01*
X690284Y158511D01*
X698284D01*
Y156510D01*
D02*
G37*
G36*
Y160511D02*
X690284D01*
X690284Y162511D01*
X698284D01*
Y160511D01*
D02*
G37*
G36*
X648296D02*
X640296D01*
Y162511D01*
X648296D01*
X648296Y160511D01*
D02*
G37*
G36*
X698284Y144509D02*
X690284D01*
Y146510D01*
X698284D01*
Y144509D01*
D02*
G37*
G36*
X648296D02*
X640296D01*
Y146510D01*
X648296D01*
Y144509D01*
D02*
G37*
G36*
X648296Y150510D02*
Y148510D01*
X640296D01*
Y150510D01*
X648296Y150510D01*
D02*
G37*
G36*
X648296Y152510D02*
X640296D01*
Y154510D01*
X648296D01*
Y152510D01*
D02*
G37*
G36*
X698283Y148510D02*
X690283D01*
Y150510D01*
X698283D01*
Y148510D01*
D02*
G37*
G36*
X656289Y164504D02*
X654289D01*
Y172504D01*
X656289D01*
X656289Y164504D01*
D02*
G37*
G36*
X652289D02*
X650288Y164504D01*
Y172504D01*
X652289D01*
Y164504D01*
D02*
G37*
G36*
X660290D02*
X658290D01*
Y172504D01*
X660290D01*
Y164504D01*
D02*
G37*
G36*
X688291D02*
X686291D01*
X686291Y172504D01*
X688291D01*
Y164504D01*
D02*
G37*
G36*
X668290D02*
X666290D01*
X666290Y172504D01*
X668290D01*
Y164504D01*
D02*
G37*
G36*
X680290Y164503D02*
X678289D01*
Y172504D01*
X680290D01*
Y164503D01*
D02*
G37*
G36*
X664290D02*
X662290D01*
Y172504D01*
X664290D01*
Y164503D01*
D02*
G37*
G36*
X672289Y164504D02*
X670289Y164504D01*
Y172504D01*
X672289D01*
Y164504D01*
D02*
G37*
G36*
X684290D02*
X682290D01*
X682290Y172504D01*
X684290D01*
Y164504D01*
D02*
G37*
G36*
X676289D02*
X674288Y164504D01*
Y172504D01*
X676289D01*
Y164504D01*
D02*
G37*
G36*
X698284Y140511D02*
X690283D01*
Y142511D01*
X698284D01*
Y140511D01*
D02*
G37*
G36*
X656288Y114516D02*
X654288D01*
X654288Y122516D01*
X656288D01*
Y114516D01*
D02*
G37*
G36*
X652288D02*
X650287D01*
Y122516D01*
X652288D01*
Y114516D01*
D02*
G37*
G36*
X660289D02*
X658289D01*
Y122516D01*
X660289Y122516D01*
Y114516D01*
D02*
G37*
G36*
X688290D02*
X686290D01*
X686290Y122516D01*
X688290D01*
Y114516D01*
D02*
G37*
G36*
X668289D02*
X666289D01*
X666289Y122516D01*
X668289D01*
Y114516D01*
D02*
G37*
G36*
X680289Y114515D02*
X678289D01*
Y122516D01*
X680289D01*
X680289Y114515D01*
D02*
G37*
G36*
X664289D02*
X662289D01*
Y122516D01*
X664289D01*
Y114515D01*
D02*
G37*
G36*
X672288Y114516D02*
X670288D01*
Y122516D01*
X672288D01*
Y114516D01*
D02*
G37*
G36*
X684289D02*
X682289D01*
Y122516D01*
X684289D01*
Y114516D01*
D02*
G37*
G36*
X676288D02*
X674288D01*
Y122516D01*
X676288D01*
Y114516D01*
D02*
G37*
G36*
X698284Y132510D02*
X690283D01*
Y134510D01*
X698284D01*
Y132510D01*
D02*
G37*
G36*
X648296D02*
X640296D01*
Y134510D01*
X648296Y134510D01*
Y132510D01*
D02*
G37*
G36*
X648296Y136511D02*
X640296D01*
Y138511D01*
X648296D01*
Y136511D01*
D02*
G37*
G36*
X648296Y140511D02*
X640296D01*
Y142511D01*
X648296D01*
X648296Y140511D01*
D02*
G37*
G36*
X698283Y136511D02*
X690283D01*
Y138511D01*
X698283D01*
Y136511D01*
D02*
G37*
G36*
X698284Y124509D02*
X690284Y124509D01*
Y126509D01*
X698284D01*
Y124509D01*
D02*
G37*
G36*
X648296Y124509D02*
X640296Y124509D01*
Y126509D01*
X648296D01*
Y124509D01*
D02*
G37*
G36*
Y128510D02*
X640296D01*
Y130510D01*
X648296D01*
X648296Y128510D01*
D02*
G37*
G36*
X684090Y128710D02*
X654490D01*
Y158310D01*
X684090D01*
Y128710D01*
D02*
G37*
G36*
X698284Y128510D02*
X690283D01*
Y130510D01*
X698284D01*
Y128510D01*
D02*
G37*
G36*
X644486Y542590D02*
X636486D01*
Y544590D01*
X644486D01*
X644486Y542590D01*
D02*
G37*
G36*
X694474Y538590D02*
X686474D01*
Y540590D01*
X694474D01*
Y538590D01*
D02*
G37*
G36*
Y542590D02*
X686474D01*
X686474Y544590D01*
X694474D01*
Y542590D01*
D02*
G37*
G36*
Y546591D02*
X686474D01*
X686474Y548591D01*
X694474D01*
Y546591D01*
D02*
G37*
G36*
X644486D02*
X636486D01*
Y548591D01*
X644486D01*
X644486Y546591D01*
D02*
G37*
G36*
X694474Y530589D02*
X686474D01*
Y532589D01*
X694474D01*
Y530589D01*
D02*
G37*
G36*
X644486D02*
X636486D01*
Y532589D01*
X644486D01*
Y530589D01*
D02*
G37*
G36*
X644486Y536590D02*
Y534590D01*
X636486D01*
Y536590D01*
X644486Y536590D01*
D02*
G37*
G36*
X644486Y538590D02*
X636486D01*
Y540590D01*
X644486D01*
Y538590D01*
D02*
G37*
G36*
X694473Y534590D02*
X686473D01*
Y536590D01*
X694473D01*
Y534590D01*
D02*
G37*
G36*
X652479Y550584D02*
X650479D01*
Y558584D01*
X652479D01*
X652479Y550584D01*
D02*
G37*
G36*
X648479D02*
X646479Y550584D01*
Y558584D01*
X648479D01*
Y550584D01*
D02*
G37*
G36*
X656480D02*
X654480D01*
Y558584D01*
X656480D01*
Y550584D01*
D02*
G37*
G36*
X684481D02*
X682480D01*
X682480Y558584D01*
X684481D01*
Y550584D01*
D02*
G37*
G36*
X664480D02*
X662480D01*
X662480Y558584D01*
X664480D01*
Y550584D01*
D02*
G37*
G36*
X676480Y550583D02*
X674480D01*
Y558584D01*
X676480D01*
Y550583D01*
D02*
G37*
G36*
X660480D02*
X658480D01*
Y558584D01*
X660480D01*
Y550583D01*
D02*
G37*
G36*
X668479Y550584D02*
X666479Y550584D01*
Y558584D01*
X668479D01*
Y550584D01*
D02*
G37*
G36*
X680480D02*
X678480D01*
X678480Y558584D01*
X680480D01*
Y550584D01*
D02*
G37*
G36*
X672478D02*
X670479Y550584D01*
Y558584D01*
X672478D01*
Y550584D01*
D02*
G37*
G36*
X694474Y526591D02*
X686473D01*
Y528591D01*
X694474D01*
Y526591D01*
D02*
G37*
G36*
X652478Y500596D02*
X650478D01*
X650478Y508596D01*
X652478D01*
Y500596D01*
D02*
G37*
G36*
X648477D02*
X646478D01*
Y508596D01*
X648477D01*
Y500596D01*
D02*
G37*
G36*
X656479D02*
X654479D01*
Y508596D01*
X656479Y508596D01*
Y500596D01*
D02*
G37*
G36*
X684480D02*
X682480D01*
X682480Y508596D01*
X684480D01*
Y500596D01*
D02*
G37*
G36*
X664479D02*
X662479D01*
X662479Y508596D01*
X664479D01*
Y500596D01*
D02*
G37*
G36*
X676479Y500595D02*
X674479D01*
Y508596D01*
X676479D01*
X676479Y500595D01*
D02*
G37*
G36*
X660479D02*
X658479D01*
Y508596D01*
X660479D01*
Y500595D01*
D02*
G37*
G36*
X668478Y500596D02*
X666478D01*
Y508596D01*
X668478D01*
Y500596D01*
D02*
G37*
G36*
X680479D02*
X678479D01*
Y508596D01*
X680479D01*
Y500596D01*
D02*
G37*
G36*
X672478D02*
X670478D01*
Y508596D01*
X672478D01*
Y500596D01*
D02*
G37*
G36*
X694474Y518590D02*
X686473D01*
Y520590D01*
X694474D01*
Y518590D01*
D02*
G37*
G36*
X644486D02*
X636486D01*
Y520590D01*
X644486Y520590D01*
Y518590D01*
D02*
G37*
G36*
X644486Y522591D02*
X636486D01*
Y524591D01*
X644486D01*
Y522591D01*
D02*
G37*
G36*
X644486Y526591D02*
X636486D01*
Y528591D01*
X644486D01*
X644486Y526591D01*
D02*
G37*
G36*
X694473Y522591D02*
X686473D01*
Y524591D01*
X694473D01*
Y522591D01*
D02*
G37*
G36*
X694474Y510589D02*
X686474Y510589D01*
Y512589D01*
X694474D01*
Y510589D01*
D02*
G37*
G36*
X644486Y510589D02*
X636486Y510589D01*
Y512589D01*
X644486D01*
Y510589D01*
D02*
G37*
G36*
Y514590D02*
X636486D01*
Y516590D01*
X644486D01*
X644486Y514590D01*
D02*
G37*
G36*
X680280Y514790D02*
X650680D01*
Y544390D01*
X680280D01*
Y514790D01*
D02*
G37*
G36*
X694474Y514590D02*
X686473D01*
Y516590D01*
X694474D01*
Y514590D01*
D02*
G37*
D10*
X764540Y424760D02*
D03*
Y433760D02*
D03*
X777240Y424760D02*
D03*
Y433760D02*
D03*
X739140Y424760D02*
D03*
Y433760D02*
D03*
X751840Y424760D02*
D03*
Y433760D02*
D03*
X645160Y208970D02*
D03*
Y199970D02*
D03*
X657860Y208970D02*
D03*
Y199970D02*
D03*
X518160Y189810D02*
D03*
Y198810D02*
D03*
Y177220D02*
D03*
Y168220D02*
D03*
X670560Y208970D02*
D03*
Y199970D02*
D03*
X683260Y208970D02*
D03*
Y199970D02*
D03*
X651510Y89480D02*
D03*
Y98480D02*
D03*
X683260Y89480D02*
D03*
Y98480D02*
D03*
X513080Y469210D02*
D03*
Y478210D02*
D03*
X538480Y522550D02*
D03*
Y531550D02*
D03*
X521970Y542980D02*
D03*
Y533980D02*
D03*
Y556840D02*
D03*
Y565840D02*
D03*
X638810Y97100D02*
D03*
Y106100D02*
D03*
X702310Y55190D02*
D03*
Y64190D02*
D03*
X728980Y41220D02*
D03*
Y50220D02*
D03*
X754380Y41220D02*
D03*
Y50220D02*
D03*
X767080Y41220D02*
D03*
Y50220D02*
D03*
X741680Y41220D02*
D03*
Y50220D02*
D03*
X801370Y38790D02*
D03*
Y29790D02*
D03*
X701040Y440000D02*
D03*
Y449000D02*
D03*
X679450Y474290D02*
D03*
Y483290D02*
D03*
X647700Y474290D02*
D03*
Y483290D02*
D03*
X635000Y483180D02*
D03*
Y492180D02*
D03*
X741680Y470480D02*
D03*
Y479480D02*
D03*
X643890Y598860D02*
D03*
Y589860D02*
D03*
X681990Y598860D02*
D03*
Y589860D02*
D03*
X656590Y598860D02*
D03*
Y589860D02*
D03*
X669290Y598860D02*
D03*
Y589860D02*
D03*
X599440Y451430D02*
D03*
Y460430D02*
D03*
X586740Y451430D02*
D03*
Y460430D02*
D03*
X414020Y305380D02*
D03*
Y314380D02*
D03*
X426720Y305380D02*
D03*
Y314380D02*
D03*
X251460Y422330D02*
D03*
Y413330D02*
D03*
X269240Y422330D02*
D03*
Y413330D02*
D03*
X284480D02*
D03*
Y422330D02*
D03*
X800100Y447730D02*
D03*
Y438730D02*
D03*
D11*
X882650Y645160D02*
D03*
X892810Y237490D02*
D03*
X563190Y460430D02*
D03*
X882650Y436880D02*
D03*
X370840Y314960D02*
D03*
X570230Y116840D02*
D03*
X892810Y35560D02*
D03*
D15*
X321310Y359800D02*
D03*
Y313300D02*
D03*
D16*
X524510Y631190D02*
D03*
Y615950D02*
D03*
X522029Y267970D02*
D03*
Y252730D02*
D03*
D17*
X224100Y281940D02*
D03*
X233100D02*
D03*
X914980Y237490D02*
D03*
X923980D02*
D03*
X904820Y436880D02*
D03*
X913820D02*
D03*
X174570Y281940D02*
D03*
X183570D02*
D03*
X72970D02*
D03*
X81970D02*
D03*
X149170D02*
D03*
X158170D02*
D03*
X123770D02*
D03*
X132770D02*
D03*
X907360Y645160D02*
D03*
X916360D02*
D03*
X588590Y528320D02*
D03*
X597590D02*
D03*
X725860Y524510D02*
D03*
X716860D02*
D03*
X542980Y163830D02*
D03*
X533980D02*
D03*
X542980Y176530D02*
D03*
X533980D02*
D03*
X542980Y189230D02*
D03*
X533980D02*
D03*
X542980Y203200D02*
D03*
X533980D02*
D03*
X521390Y154940D02*
D03*
X512390D02*
D03*
X521390Y142240D02*
D03*
X512390D02*
D03*
X521390Y129540D02*
D03*
X512390D02*
D03*
X521390Y116840D02*
D03*
X512390D02*
D03*
X300410Y34290D02*
D03*
X291410D02*
D03*
X300410Y54610D02*
D03*
X291410D02*
D03*
X366450Y34290D02*
D03*
X357450D02*
D03*
X366450Y54610D02*
D03*
X357450D02*
D03*
X428680Y34290D02*
D03*
X419680D02*
D03*
X428680Y54610D02*
D03*
X419680D02*
D03*
X485830D02*
D03*
X476830D02*
D03*
X542980Y41910D02*
D03*
X533980D02*
D03*
X542980Y54610D02*
D03*
X533980D02*
D03*
X521391Y492762D02*
D03*
X512391D02*
D03*
X521391Y505462D02*
D03*
X512391D02*
D03*
X521391Y518162D02*
D03*
X512391D02*
D03*
X546790Y543560D02*
D03*
X537790D02*
D03*
X546790Y556260D02*
D03*
X537790D02*
D03*
X546790Y568960D02*
D03*
X537790D02*
D03*
X565730Y83820D02*
D03*
X574730D02*
D03*
X565730Y96520D02*
D03*
X574730D02*
D03*
X749990Y95250D02*
D03*
X740990D02*
D03*
X734750Y125730D02*
D03*
X725750D02*
D03*
X725860Y138430D02*
D03*
X716860D02*
D03*
X725860Y163830D02*
D03*
X716860D02*
D03*
X619070Y166370D02*
D03*
X628070D02*
D03*
X589860Y139700D02*
D03*
X598860D02*
D03*
X611450D02*
D03*
X620450D02*
D03*
X523820Y236220D02*
D03*
X532820D02*
D03*
X523820Y222250D02*
D03*
X532820D02*
D03*
X523820Y588010D02*
D03*
X532820D02*
D03*
X523820Y600710D02*
D03*
X532820D02*
D03*
X732210Y511810D02*
D03*
X723210D02*
D03*
X716970Y551180D02*
D03*
X707970D02*
D03*
X607640D02*
D03*
X616640D02*
D03*
X611450Y528320D02*
D03*
X620450D02*
D03*
X581080Y419100D02*
D03*
X572080D02*
D03*
X581080Y402590D02*
D03*
X572080D02*
D03*
X523930Y398780D02*
D03*
X514930D02*
D03*
X523930Y419100D02*
D03*
X514930D02*
D03*
X465510D02*
D03*
X456510D02*
D03*
X465510Y398780D02*
D03*
X456510D02*
D03*
X413440D02*
D03*
X404440D02*
D03*
X413440Y419100D02*
D03*
X404440D02*
D03*
X361370D02*
D03*
X352370D02*
D03*
X361370Y398780D02*
D03*
X352370D02*
D03*
X231720Y317500D02*
D03*
X240720D02*
D03*
X485830Y34290D02*
D03*
X476830D02*
D03*
X139010Y642620D02*
D03*
X148010D02*
D03*
X912440Y36830D02*
D03*
X921440D02*
D03*
X189810Y642620D02*
D03*
X198810D02*
D03*
X215210D02*
D03*
X224210D02*
D03*
X240610D02*
D03*
X249610D02*
D03*
X291410D02*
D03*
X300410D02*
D03*
D18*
X776605Y330200D02*
D03*
X755015D02*
D03*
D19*
X723900Y330581D02*
D03*
Y314579D02*
D03*
X808990Y330581D02*
D03*
Y314579D02*
D03*
X828040Y330581D02*
D03*
Y314579D02*
D03*
D20*
X619760Y330835D02*
D03*
Y309245D02*
D03*
X392430Y314325D02*
D03*
Y292735D02*
D03*
D21*
X249010Y392430D02*
D03*
Y379730D02*
D03*
Y367030D02*
D03*
Y354330D02*
D03*
Y341630D02*
D03*
D22*
X165010Y367030D02*
D03*
D23*
X651100Y330200D02*
D03*
X695100D02*
D03*
D24*
X724740Y78860D02*
D03*
X702740D02*
D03*
Y93860D02*
D03*
X724740D02*
D03*
X723470Y463670D02*
D03*
X701470D02*
D03*
Y478670D02*
D03*
X723470D02*
D03*
D25*
X592290Y91910D02*
D03*
X619290Y118910D02*
D03*
X588480Y479260D02*
D03*
X615480Y506260D02*
D03*
D26*
X549910Y398940D02*
D03*
Y418940D02*
D03*
X492760Y398940D02*
D03*
Y418940D02*
D03*
X435610Y398940D02*
D03*
Y418940D02*
D03*
X383540Y398940D02*
D03*
Y418940D02*
D03*
X331470Y398940D02*
D03*
Y418940D02*
D03*
X511810Y34450D02*
D03*
Y54450D02*
D03*
X270510Y34450D02*
D03*
Y54450D02*
D03*
X334010Y34450D02*
D03*
Y54450D02*
D03*
X397510Y34450D02*
D03*
Y54450D02*
D03*
X454660Y34450D02*
D03*
Y54450D02*
D03*
D27*
X464454Y559283D02*
D03*
Y551282D02*
D03*
Y543281D02*
D03*
Y535280D02*
D03*
Y527285D02*
D03*
Y519285D02*
D03*
Y511285D02*
D03*
Y503285D02*
D03*
Y495285D02*
D03*
Y487285D02*
D03*
X382463Y483287D02*
D03*
Y491288D02*
D03*
Y499289D02*
D03*
Y507290D02*
D03*
Y515285D02*
D03*
Y523285D02*
D03*
Y531285D02*
D03*
Y539285D02*
D03*
Y547285D02*
D03*
Y555285D02*
D03*
Y193892D02*
D03*
Y185892D02*
D03*
Y177892D02*
D03*
Y169892D02*
D03*
Y161892D02*
D03*
Y153892D02*
D03*
Y145896D02*
D03*
Y137895D02*
D03*
Y129894D02*
D03*
Y121893D02*
D03*
X464454Y125892D02*
D03*
Y133892D02*
D03*
Y141892D02*
D03*
Y149892D02*
D03*
Y157892D02*
D03*
Y165892D02*
D03*
Y173887D02*
D03*
Y181888D02*
D03*
Y189889D02*
D03*
Y197890D02*
D03*
M02*
