%FSLAX44Y44*%
%MOMM*%
G71*
G01*
G75*
%ADD10R,0.6000X0.5000*%
%ADD11C,1.0000*%
%ADD12R,3.7000X3.7000*%
%ADD13R,0.2000X0.8000*%
%ADD14R,0.8000X0.2000*%
%ADD15R,7.3000X2.6500*%
%ADD16R,0.8128X0.8128*%
%ADD17R,0.5000X0.6000*%
%ADD18R,1.3970X1.3970*%
%ADD19R,1.0160X0.8890*%
%ADD20R,1.3970X1.3970*%
%ADD21R,2.4000X0.8000*%
%ADD22R,5.0000X5.3000*%
G04:AMPARAMS|DCode=23|XSize=2mm|YSize=2mm|CornerRadius=0mm|HoleSize=0mm|Usage=FLASHONLY|Rotation=180.000|XOffset=0mm|YOffset=0mm|HoleType=Round|Shape=RoundedRectangle|*
%AMROUNDEDRECTD23*
21,1,2.0000,2.0000,0,0,180.0*
21,1,2.0000,2.0000,0,0,180.0*
1,1,0.0000,-1.0000,1.0000*
1,1,0.0000,1.0000,1.0000*
1,1,0.0000,1.0000,-1.0000*
1,1,0.0000,-1.0000,-1.0000*
%
%ADD23ROUNDEDRECTD23*%
%ADD24R,1.4000X1.2000*%
G04:AMPARAMS|DCode=25|XSize=1.5mm|YSize=1.4mm|CornerRadius=0mm|HoleSize=0mm|Usage=FLASHONLY|Rotation=225.000|XOffset=0mm|YOffset=0mm|HoleType=Round|Shape=Rectangle|*
%AMROTATEDRECTD25*
4,1,4,0.0354,1.0253,1.0253,0.0354,-0.0354,-1.0253,-1.0253,-0.0354,0.0354,1.0253,0.0*
%
%ADD25ROTATEDRECTD25*%

%ADD26R,1.2954X1.1938*%
%ADD27R,2.0000X0.5004*%
%ADD28C,0.1780*%
%ADD29C,0.2000*%
%ADD30C,0.4000*%
%ADD31C,0.1270*%
%ADD32C,0.6000*%
%ADD33C,0.2540*%
%ADD34C,0.3000*%
%ADD35C,1.0000*%
%ADD36C,0.1800*%
%ADD37C,0.8000*%
%ADD38R,0.8890X0.8890*%
%ADD39O,1.5000X4.0000*%
%ADD40O,4.0000X1.5000*%
%ADD41R,1.0000X1.0000*%
%ADD42C,4.0000*%
%ADD43C,1.6500*%
%ADD44C,1.5240*%
%ADD45C,1.7000*%
%ADD46C,2.1590*%
%ADD47R,1.5240X1.5240*%
%ADD48C,3.2500*%
%ADD49C,0.5000*%
%ADD50C,2.0000*%
D10*
X764540Y424760D02*
D03*
Y433760D02*
D03*
X777240Y424760D02*
D03*
Y433760D02*
D03*
X739140Y424760D02*
D03*
Y433760D02*
D03*
X751840Y424760D02*
D03*
Y433760D02*
D03*
X645160Y208970D02*
D03*
Y199970D02*
D03*
X657860Y208970D02*
D03*
Y199970D02*
D03*
X518160Y189810D02*
D03*
Y198810D02*
D03*
Y177220D02*
D03*
Y168220D02*
D03*
X670560Y208970D02*
D03*
Y199970D02*
D03*
X683260Y208970D02*
D03*
Y199970D02*
D03*
X651510Y89480D02*
D03*
Y98480D02*
D03*
X683260Y89480D02*
D03*
Y98480D02*
D03*
X513080Y469210D02*
D03*
Y478210D02*
D03*
X538480Y522550D02*
D03*
Y531550D02*
D03*
X521970Y542980D02*
D03*
Y533980D02*
D03*
Y556840D02*
D03*
Y565840D02*
D03*
X638810Y97100D02*
D03*
Y106100D02*
D03*
X702310Y55190D02*
D03*
Y64190D02*
D03*
X728980Y41220D02*
D03*
Y50220D02*
D03*
X754380Y41220D02*
D03*
Y50220D02*
D03*
X767080Y41220D02*
D03*
Y50220D02*
D03*
X741680Y41220D02*
D03*
Y50220D02*
D03*
X801370Y38790D02*
D03*
Y29790D02*
D03*
X701040Y440000D02*
D03*
Y449000D02*
D03*
X679450Y474290D02*
D03*
Y483290D02*
D03*
X647700Y474290D02*
D03*
Y483290D02*
D03*
X635000Y483180D02*
D03*
Y492180D02*
D03*
X741680Y470480D02*
D03*
Y479480D02*
D03*
X643890Y598860D02*
D03*
Y589860D02*
D03*
X681990Y598860D02*
D03*
Y589860D02*
D03*
X656590Y598860D02*
D03*
Y589860D02*
D03*
X669290Y598860D02*
D03*
Y589860D02*
D03*
X599440Y451430D02*
D03*
Y460430D02*
D03*
X586740Y451430D02*
D03*
Y460430D02*
D03*
X414020Y305380D02*
D03*
Y314380D02*
D03*
X426720Y305380D02*
D03*
Y314380D02*
D03*
X251460Y422330D02*
D03*
Y413330D02*
D03*
X269240Y422330D02*
D03*
Y413330D02*
D03*
X284480D02*
D03*
Y422330D02*
D03*
X800100Y447730D02*
D03*
Y438730D02*
D03*
D11*
X882650Y645160D02*
D03*
X892810Y237490D02*
D03*
X563190Y460430D02*
D03*
X882650Y436880D02*
D03*
X370840Y314960D02*
D03*
X570230Y116840D02*
D03*
X892810Y35560D02*
D03*
X87630Y621030D02*
D03*
X113030D02*
D03*
X138430D02*
D03*
X163830D02*
D03*
X290830D02*
D03*
X265430D02*
D03*
X240030D02*
D03*
X214630D02*
D03*
X189230D02*
D03*
X21590Y260350D02*
D03*
X46990D02*
D03*
X72390D02*
D03*
X97790D02*
D03*
X224790D02*
D03*
X199390D02*
D03*
X173990D02*
D03*
X148590D02*
D03*
X123190D02*
D03*
D12*
X669290Y143510D02*
D03*
X665480Y529590D02*
D03*
D13*
X687291Y168504D02*
D03*
X683290D02*
D03*
X679290D02*
D03*
X675290D02*
D03*
X671289D02*
D03*
X667291D02*
D03*
X663290D02*
D03*
X659290D02*
D03*
X655290D02*
D03*
X651289D02*
D03*
Y118516D02*
D03*
X655290D02*
D03*
X659290D02*
D03*
X663290D02*
D03*
X667291D02*
D03*
X671289D02*
D03*
X675290D02*
D03*
X679290D02*
D03*
X683290D02*
D03*
X687291D02*
D03*
X683481Y554584D02*
D03*
X679481D02*
D03*
X675480D02*
D03*
X671479D02*
D03*
X667479D02*
D03*
X663481D02*
D03*
X659481D02*
D03*
X655480D02*
D03*
X651479D02*
D03*
X647479D02*
D03*
Y504596D02*
D03*
X651479D02*
D03*
X655480D02*
D03*
X659481D02*
D03*
X663481D02*
D03*
X667479D02*
D03*
X671479D02*
D03*
X675480D02*
D03*
X679481D02*
D03*
X683481D02*
D03*
D14*
X694284Y161511D02*
D03*
Y157510D02*
D03*
Y153510D02*
D03*
Y149509D02*
D03*
Y145509D02*
D03*
Y141511D02*
D03*
Y137510D02*
D03*
Y133510D02*
D03*
Y129509D02*
D03*
Y125509D02*
D03*
X644296D02*
D03*
Y129509D02*
D03*
Y133510D02*
D03*
Y137510D02*
D03*
Y141511D02*
D03*
Y145509D02*
D03*
Y149509D02*
D03*
Y153510D02*
D03*
Y157510D02*
D03*
Y161511D02*
D03*
X690474Y547591D02*
D03*
Y543591D02*
D03*
Y539590D02*
D03*
Y535589D02*
D03*
Y531589D02*
D03*
Y527591D02*
D03*
Y523591D02*
D03*
Y519590D02*
D03*
Y515589D02*
D03*
Y511589D02*
D03*
X640486D02*
D03*
Y515589D02*
D03*
Y519590D02*
D03*
Y523591D02*
D03*
Y527591D02*
D03*
Y531589D02*
D03*
Y535589D02*
D03*
Y539590D02*
D03*
Y543591D02*
D03*
Y547591D02*
D03*
D15*
X321310Y359800D02*
D03*
Y313300D02*
D03*
D16*
X524510Y631190D02*
D03*
Y615950D02*
D03*
X522029Y267970D02*
D03*
Y252730D02*
D03*
D17*
X224100Y281940D02*
D03*
X233100D02*
D03*
X914980Y237490D02*
D03*
X923980D02*
D03*
X904820Y436880D02*
D03*
X913820D02*
D03*
X174570Y281940D02*
D03*
X183570D02*
D03*
X72970D02*
D03*
X81970D02*
D03*
X149170D02*
D03*
X158170D02*
D03*
X123770D02*
D03*
X132770D02*
D03*
X907360Y645160D02*
D03*
X916360D02*
D03*
X588590Y528320D02*
D03*
X597590D02*
D03*
X725860Y524510D02*
D03*
X716860D02*
D03*
X542980Y163830D02*
D03*
X533980D02*
D03*
X542980Y176530D02*
D03*
X533980D02*
D03*
X542980Y189230D02*
D03*
X533980D02*
D03*
X542980Y203200D02*
D03*
X533980D02*
D03*
X521390Y154940D02*
D03*
X512390D02*
D03*
X521390Y142240D02*
D03*
X512390D02*
D03*
X521390Y129540D02*
D03*
X512390D02*
D03*
X521390Y116840D02*
D03*
X512390D02*
D03*
X300410Y34290D02*
D03*
X291410D02*
D03*
X300410Y54610D02*
D03*
X291410D02*
D03*
X366450Y34290D02*
D03*
X357450D02*
D03*
X366450Y54610D02*
D03*
X357450D02*
D03*
X428680Y34290D02*
D03*
X419680D02*
D03*
X428680Y54610D02*
D03*
X419680D02*
D03*
X485830D02*
D03*
X476830D02*
D03*
X542980Y41910D02*
D03*
X533980D02*
D03*
X542980Y54610D02*
D03*
X533980D02*
D03*
X521391Y492762D02*
D03*
X512391D02*
D03*
X521391Y505462D02*
D03*
X512391D02*
D03*
X521391Y518162D02*
D03*
X512391D02*
D03*
X546790Y543560D02*
D03*
X537790D02*
D03*
X546790Y556260D02*
D03*
X537790D02*
D03*
X546790Y568960D02*
D03*
X537790D02*
D03*
X565730Y83820D02*
D03*
X574730D02*
D03*
X565730Y96520D02*
D03*
X574730D02*
D03*
X749990Y95250D02*
D03*
X740990D02*
D03*
X734750Y125730D02*
D03*
X725750D02*
D03*
X725860Y138430D02*
D03*
X716860D02*
D03*
X725860Y163830D02*
D03*
X716860D02*
D03*
X619070Y166370D02*
D03*
X628070D02*
D03*
X589860Y139700D02*
D03*
X598860D02*
D03*
X611450D02*
D03*
X620450D02*
D03*
X523820Y236220D02*
D03*
X532820D02*
D03*
X523820Y222250D02*
D03*
X532820D02*
D03*
X523820Y588010D02*
D03*
X532820D02*
D03*
X523820Y600710D02*
D03*
X532820D02*
D03*
X732210Y511810D02*
D03*
X723210D02*
D03*
X716970Y551180D02*
D03*
X707970D02*
D03*
X607640D02*
D03*
X616640D02*
D03*
X611450Y528320D02*
D03*
X620450D02*
D03*
X581080Y419100D02*
D03*
X572080D02*
D03*
X581080Y402590D02*
D03*
X572080D02*
D03*
X523930Y398780D02*
D03*
X514930D02*
D03*
X523930Y419100D02*
D03*
X514930D02*
D03*
X465510D02*
D03*
X456510D02*
D03*
X465510Y398780D02*
D03*
X456510D02*
D03*
X413440D02*
D03*
X404440D02*
D03*
X413440Y419100D02*
D03*
X404440D02*
D03*
X361370D02*
D03*
X352370D02*
D03*
X361370Y398780D02*
D03*
X352370D02*
D03*
X231720Y317500D02*
D03*
X240720D02*
D03*
X485830Y34290D02*
D03*
X476830D02*
D03*
X139010Y642620D02*
D03*
X148010D02*
D03*
X912440Y36830D02*
D03*
X921440D02*
D03*
X189810Y642620D02*
D03*
X198810D02*
D03*
X215210D02*
D03*
X224210D02*
D03*
X240610D02*
D03*
X249610D02*
D03*
X291410D02*
D03*
X300410D02*
D03*
D18*
X776605Y330200D02*
D03*
X755015D02*
D03*
D19*
X723900Y330581D02*
D03*
Y314579D02*
D03*
X808990Y330581D02*
D03*
Y314579D02*
D03*
X828040Y330581D02*
D03*
Y314579D02*
D03*
D20*
X619760Y330835D02*
D03*
Y309245D02*
D03*
X392430Y314325D02*
D03*
Y292735D02*
D03*
D21*
X249010Y392430D02*
D03*
Y379730D02*
D03*
Y367030D02*
D03*
Y354330D02*
D03*
Y341630D02*
D03*
D22*
X165010Y367030D02*
D03*
D23*
X651100Y330200D02*
D03*
X695100D02*
D03*
D24*
X724740Y78860D02*
D03*
X702740D02*
D03*
Y93860D02*
D03*
X724740D02*
D03*
X723470Y463670D02*
D03*
X701470D02*
D03*
Y478670D02*
D03*
X723470D02*
D03*
D25*
X592290Y91910D02*
D03*
X619290Y118910D02*
D03*
X588480Y479260D02*
D03*
X615480Y506260D02*
D03*
D26*
X549910Y398940D02*
D03*
Y418940D02*
D03*
X492760Y398940D02*
D03*
Y418940D02*
D03*
X435610Y398940D02*
D03*
Y418940D02*
D03*
X383540Y398940D02*
D03*
Y418940D02*
D03*
X331470Y398940D02*
D03*
Y418940D02*
D03*
X511810Y34450D02*
D03*
Y54450D02*
D03*
X270510Y34450D02*
D03*
Y54450D02*
D03*
X334010Y34450D02*
D03*
Y54450D02*
D03*
X397510Y34450D02*
D03*
Y54450D02*
D03*
X454660Y34450D02*
D03*
Y54450D02*
D03*
D27*
X464454Y559283D02*
D03*
Y551282D02*
D03*
Y543281D02*
D03*
Y535280D02*
D03*
Y527285D02*
D03*
Y519285D02*
D03*
Y511285D02*
D03*
Y503285D02*
D03*
Y495285D02*
D03*
Y487285D02*
D03*
X382463Y483287D02*
D03*
Y491288D02*
D03*
Y499289D02*
D03*
Y507290D02*
D03*
Y515285D02*
D03*
Y523285D02*
D03*
Y531285D02*
D03*
Y539285D02*
D03*
Y547285D02*
D03*
Y555285D02*
D03*
Y193892D02*
D03*
Y185892D02*
D03*
Y177892D02*
D03*
Y169892D02*
D03*
Y161892D02*
D03*
Y153892D02*
D03*
Y145896D02*
D03*
Y137895D02*
D03*
Y129894D02*
D03*
Y121893D02*
D03*
X464454Y125892D02*
D03*
Y133892D02*
D03*
Y141892D02*
D03*
Y149892D02*
D03*
Y157892D02*
D03*
Y165892D02*
D03*
Y173887D02*
D03*
Y181888D02*
D03*
Y189889D02*
D03*
Y197890D02*
D03*
D39*
X861653Y335628D02*
D03*
X921871Y335960D02*
D03*
D40*
X892166Y380654D02*
D03*
D41*
X316230Y621030D02*
D03*
X250190Y260350D02*
D03*
D42*
X30000Y30000D02*
D03*
Y650000D02*
D03*
X970000Y30000D02*
D03*
Y650000D02*
D03*
D43*
X116839Y231140D02*
D03*
X216839Y231140D02*
D03*
X316839Y231140D02*
D03*
X466840Y88641D02*
D03*
X366840Y88640D02*
D03*
X266840D02*
D03*
X166840Y88640D02*
D03*
X116838Y145340D02*
D03*
X316839Y120341D02*
D03*
X316839Y174340D02*
D03*
X116839Y592533D02*
D03*
X216839Y592534D02*
D03*
X316839Y592534D02*
D03*
X466840Y450034D02*
D03*
X366840Y450034D02*
D03*
X266840D02*
D03*
X166840Y450033D02*
D03*
X116838Y506733D02*
D03*
X316839Y481734D02*
D03*
X316839Y535734D02*
D03*
D44*
X344839Y231142D02*
D03*
X391839Y231142D02*
D03*
X416839Y231140D02*
D03*
X441839Y231142D02*
D03*
X487839Y207843D02*
D03*
X487839Y159843D02*
D03*
X487837Y111843D02*
D03*
X441840Y88642D02*
D03*
X391840D02*
D03*
X344840D02*
D03*
X344839Y592535D02*
D03*
X391839Y592535D02*
D03*
X416839Y592534D02*
D03*
X441839Y592535D02*
D03*
X487839Y569236D02*
D03*
X487839Y521236D02*
D03*
X487837Y473236D02*
D03*
X441840Y450035D02*
D03*
X391840D02*
D03*
X344840D02*
D03*
X826165Y191999D02*
D03*
X800766Y180289D02*
D03*
X826165Y166599D02*
D03*
X800766Y154889D02*
D03*
X826165Y141199D02*
D03*
X800766Y129489D02*
D03*
X826165Y115799D02*
D03*
X800766Y104089D02*
D03*
X826165Y90399D02*
D03*
Y600939D02*
D03*
X800766Y589229D02*
D03*
X826165Y575539D02*
D03*
X800766Y563829D02*
D03*
X826165Y550139D02*
D03*
X800766Y538429D02*
D03*
X826165Y524739D02*
D03*
X800766Y513029D02*
D03*
X826165Y499339D02*
D03*
D45*
X939195Y95250D02*
D03*
Y69850D02*
D03*
Y176530D02*
D03*
Y201930D02*
D03*
Y504190D02*
D03*
Y478790D02*
D03*
Y585470D02*
D03*
Y610870D02*
D03*
D46*
X859160Y215900D02*
D03*
Y55880D02*
D03*
Y624840D02*
D03*
Y464820D02*
D03*
D47*
X800704Y77564D02*
D03*
Y486504D02*
D03*
D48*
X889666Y78892D02*
D03*
Y192888D02*
D03*
Y487832D02*
D03*
Y601828D02*
D03*
M02*
