M48
;Layer_Color=9474304
;FILE_FORMAT=4:4
METRIC,LZ
;TYPE=PLATED
T1F00S00C0.2500
T2F00S00C0.7620
T4F00S00C0.8500
T5F00S00C0.9100
T6F00S00C0.9500
T7F00S00C1.0500
T8F00S00C1.1000
T9F00S00C1.6510
T10F00S00C1.9000
T11F00S00C2.2000
;TYPE=NON_PLATED
T12F00S00C3.2500
%
T01
X0026104Y0003429
X0036645Y0004445
X0042868
X0048583
X0055245Y0005461
X0067691Y0004445
X0070231Y0004826
X0071813Y0004122
X0077401
X0080137Y0002286
X0074999Y0008832
X0073926Y0007886
X0074168Y0012573
X0080899Y0030422
X0082804
X0095631Y0030226
Y0031877
Y0033782
Y0035433
Y0037211
Y0038862
X0098552
Y0037211
Y0035433
Y0033782
Y0031877
Y0030226
Y0028321
X0095631
X008001Y004318
X0077724Y0041783
X0073221Y0042476
X0070104Y0043307
X0059944Y004445
X0058674
X0058928Y004191
X0052393Y0040894
X0046551
X0041344
X0035237Y0039185
X0039243Y002794
X0041402Y0029718
X0042672
X00510599Y0026797
X00522029Y002794
X0054102Y0023622
Y0022225
X0054298Y0021024
X0052197Y0021336
X00511869Y0022733
X0050477Y0019881
Y0016822
X005334Y0015113
X0055118Y0016383
X0058293Y001397
X0062611Y0014859
X0061214Y0016637
X00644296Y00165964
X0064516Y0019304
Y002159
X0065786
X0067056
X0068326
X0067056Y0019304
X0066167Y0018415
X006604Y0015113
Y0013589
X0067691Y0013462
Y0015113
X007112Y0016383
X0073279
Y0013843
X007112
X0072009Y0012573
X0070231Y0010256
X0068326Y0010414
Y0008255
X0065151
X0063881Y0009017
X0065151Y0010541
X00644296Y00121056
X0058166Y0008636
X005842Y0008128
X005588Y0008382
Y0009652
X0052197Y0010414
X0045085Y00125892
Y00157892
X00445292Y00165892
X00382463Y00206817
Y00111953
X0060648Y0030861
X0063304
X0061976Y0029533
X007239Y0030422
X0033528Y002921
X0032512
X0031496
X0030353
X0022479Y003175
X0023368Y0036703
X0018415Y0036576
Y0034544
Y0038735
X0013277Y0038481
Y0036703
Y0035052
X0024453Y0042233
X0026924Y0042926
X0029141Y0042233
X002667Y0066548
X0032512
X00381195Y00566225
X00364692Y00491288
X0036449Y0047371
X0045085Y00519285
X00447275Y00527285
X0051065Y0053456
X0051112Y0056584
X0054679Y0057589
X0053975Y0058801
Y0060071
X0054102Y0063119
Y0064389
X0050927Y0061595
X0052959Y0051816
X0053848Y0051562
X0058166Y0052832
X0060452
X0060071Y0055118
X0062992
X0065786Y0053721
Y0052324
X0067183
Y0053721
X0066421Y0057277
X00649685Y00573325
X0065659Y0058293
Y0060579
X0066929
X0068199
X0064389
X00640486Y00504596
X006477Y0049149
Y0046736
X00635Y0047625
X0059309Y0046863
X0058293
X0051308Y0046101
X0067945Y0046736
Y0049149
X0070147Y0048852
X00714996Y0051181
X0070866Y0052451
X0073279
X0072575Y0055118
X0070104
X0073914Y0051181
X0073787Y0046228
T02
X0002159Y0026035
X0004699
X0007239
X0009779
X0012319
X0014859
X0017399
X0019939
X0022479
X0025019
X0024003Y0062103
X0021463
X0018923
X0016383
X0013843
X0011303
X0008763
X0026543
X0029083
X0031623
T04
X00416839Y0023114
Y00592534
T05
X00800704Y00077564
X00800766Y00104089
Y00129489
Y00154889
Y00180289
X00826165Y00191999
Y00166599
Y00141199
Y00115799
Y00090399
Y00499339
Y00524739
Y00550139
Y00575539
Y00600939
X00800766Y00589229
Y00563829
Y00538429
Y00513029
X00800704Y00486504
T06
X00344839Y00088643
X00391839
X00441839
X00487836Y00111841
X00487837Y00159842
X00487838Y00207843
X00441838Y00231142
X00391838Y00231142
X00344838Y00231142
X00344839Y00450036
X00391839
X00441839
X00487836Y00473235
X00487837Y00521236
X00487838Y00569236
X00441838Y00592535
X00391838Y00592535
X00344838Y00592535
T07
X00366841Y00088641
X0046684Y00088642
Y00450035
X00366841Y00450035
X00266841
X00166841Y00450034
X0021684Y0023114
X0031684Y0023114
X0031684Y00174341
X0031684Y00120341
X00266841Y00088641
X00166841Y00088641
X00116839Y00145339
X0011684Y0023114
X00116839Y00506732
X0011684Y00592533
X0021684Y00592534
X0031684Y00592534
X0031684Y00535734
X0031684Y00481734
T08
X00939195Y0006985
Y0009525
Y0017653
Y0020193
Y0047879
Y0050419
Y0058547
Y0061087
T09
X0085916Y0005588
Y002159
Y0046482
Y0062484
T10
X00423458Y00111892
Y00207892
Y00473285
Y00569285
T11
X0003Y0003
X0097
X0003Y0065
X0097
T12
X00889666Y00078892
Y00192888
Y00487832
Y00601828
M30
