G04*
G04 #@! TF.GenerationSoftware,Altium Limited,Altium Designer,20.0.2 (26)*
G04*
G04 Layer_Color=16711935*
%FSLAX25Y25*%
%MOIN*%
G70*
G01*
G75*
%ADD20C,0.00200*%
%ADD46R,0.02769X0.03162*%
%ADD47R,0.03162X0.02769*%
%ADD56R,0.06312X0.05524*%
%ADD57C,0.04737*%
%ADD61R,0.04737X0.04737*%
%ADD62C,0.06800*%
%ADD63C,0.06890*%
%ADD64C,0.06394*%
%ADD65O,0.16548X0.06706*%
%ADD66O,0.06706X0.16548*%
%ADD67C,0.13674*%
%ADD68O,0.07099X0.10800*%
%ADD69C,0.05800*%
%ADD70C,0.05737*%
%ADD71R,0.04737X0.04737*%
%ADD72C,0.02769*%
%ADD73C,0.08674*%
%ADD100R,0.14961X0.14961*%
%ADD101R,0.01181X0.03543*%
%ADD102R,0.03543X0.01181*%
G04:AMPARAMS|DCode=103|XSize=67.06mil|YSize=63.12mil|CornerRadius=0mil|HoleSize=0mil|Usage=FLASHONLY|Rotation=135.000|XOffset=0mil|YOffset=0mil|HoleType=Round|Shape=Rectangle|*
%AMROTATEDRECTD103*
4,1,4,0.04602,-0.00139,0.00139,-0.04602,-0.04602,0.00139,-0.00139,0.04602,0.04602,-0.00139,0.0*
%
%ADD103ROTATEDRECTD103*%

%ADD104R,0.04000X0.04000*%
G36*
X140480Y180268D02*
X139693D01*
Y181843D01*
X140480D01*
Y180268D01*
D02*
G37*
G36*
X138906D02*
X138118D01*
Y181843D01*
X138906D01*
Y180268D01*
D02*
G37*
G36*
X137331D02*
X136543D01*
Y181843D01*
X137331D01*
Y180268D01*
D02*
G37*
G36*
X135756D02*
X134968D01*
Y181843D01*
X135756D01*
Y180268D01*
D02*
G37*
G36*
X134181D02*
X133394D01*
Y181843D01*
X134181D01*
Y180268D01*
D02*
G37*
G36*
X132606D02*
X131819D01*
Y181843D01*
X132606D01*
Y180268D01*
D02*
G37*
G36*
X131032D02*
X130244D01*
Y181843D01*
X131032D01*
Y180268D01*
D02*
G37*
G36*
X129457D02*
X128669D01*
Y181843D01*
X129457D01*
Y180268D01*
D02*
G37*
G36*
X127882D02*
X127094D01*
Y181843D01*
X127882D01*
Y180268D01*
D02*
G37*
G36*
X126307D02*
X125520D01*
Y181843D01*
X126307D01*
Y180268D01*
D02*
G37*
G36*
X142842Y178693D02*
X141268D01*
Y179480D01*
X142842D01*
Y178693D01*
D02*
G37*
G36*
X124732D02*
X123158D01*
Y179480D01*
X124732D01*
Y178693D01*
D02*
G37*
G36*
X142842Y177118D02*
X141268D01*
Y177905D01*
X142842D01*
Y177118D01*
D02*
G37*
G36*
X124732D02*
X123158D01*
Y177905D01*
X124732D01*
Y177118D01*
D02*
G37*
G36*
X142842Y175543D02*
X141268D01*
Y176331D01*
X142842D01*
Y175543D01*
D02*
G37*
G36*
X124732D02*
X123158D01*
Y176331D01*
X124732D01*
Y175543D01*
D02*
G37*
G36*
X142842Y173969D02*
X141268D01*
Y174756D01*
X142842D01*
Y173969D01*
D02*
G37*
G36*
X124732D02*
X123158D01*
Y174756D01*
X124732D01*
Y173969D01*
D02*
G37*
G36*
X142842Y172394D02*
X141268D01*
Y173181D01*
X142842D01*
Y172394D01*
D02*
G37*
G36*
X124732D02*
X123158D01*
Y173181D01*
X124732D01*
Y172394D01*
D02*
G37*
G36*
X142842Y170819D02*
X141268D01*
Y171606D01*
X142842D01*
Y170819D01*
D02*
G37*
G36*
X124732D02*
X123158D01*
Y171606D01*
X124732D01*
Y170819D01*
D02*
G37*
G36*
X142842Y169244D02*
X141268D01*
Y170031D01*
X142842D01*
Y169244D01*
D02*
G37*
G36*
X124732D02*
X123158D01*
Y170031D01*
X124732D01*
Y169244D01*
D02*
G37*
G36*
X142842Y167669D02*
X141268D01*
Y168457D01*
X142842D01*
Y167669D01*
D02*
G37*
G36*
X124732D02*
X123158D01*
Y168457D01*
X124732D01*
Y167669D01*
D02*
G37*
G36*
X142842Y166095D02*
X141268D01*
Y166882D01*
X142842D01*
Y166095D01*
D02*
G37*
G36*
X124732D02*
X123158D01*
Y166882D01*
X124732D01*
Y166095D01*
D02*
G37*
G36*
X140284Y164716D02*
X125716D01*
Y179283D01*
X140284D01*
Y164716D01*
D02*
G37*
G36*
X142842Y164520D02*
X141268D01*
Y165307D01*
X142842D01*
Y164520D01*
D02*
G37*
G36*
X124732D02*
X123158D01*
Y165307D01*
X124732D01*
Y164520D01*
D02*
G37*
G36*
X140480Y162157D02*
X139693D01*
Y163732D01*
X140480D01*
Y162157D01*
D02*
G37*
G36*
X138906D02*
X138118D01*
Y163732D01*
X138906D01*
Y162157D01*
D02*
G37*
G36*
X137331D02*
X136543D01*
Y163732D01*
X137331D01*
Y162157D01*
D02*
G37*
G36*
X135756D02*
X134968D01*
Y163732D01*
X135756D01*
Y162157D01*
D02*
G37*
G36*
X134181D02*
X133394D01*
Y163732D01*
X134181D01*
Y162157D01*
D02*
G37*
G36*
X132606D02*
X131819D01*
Y163732D01*
X132606D01*
Y162157D01*
D02*
G37*
G36*
X131032D02*
X130244D01*
Y163732D01*
X131032D01*
Y162157D01*
D02*
G37*
G36*
X129457D02*
X128669D01*
Y163732D01*
X129457D01*
Y162157D01*
D02*
G37*
G36*
X127882D02*
X127094D01*
Y163732D01*
X127882D01*
Y162157D01*
D02*
G37*
G36*
X126307D02*
X125520D01*
Y163732D01*
X126307D01*
Y162157D01*
D02*
G37*
G36*
X143314Y162353D02*
X143314Y161961D01*
X143176Y161823D01*
X143038Y161685D01*
X142646Y161685D01*
X142370Y161961D01*
X142369Y162353D01*
X142508Y162491D01*
X142646Y162629D01*
X143037Y162629D01*
X143314Y162353D01*
D02*
G37*
G36*
X76221Y57864D02*
X76247D01*
X76272Y57860D01*
X76334Y57849D01*
X76400Y57831D01*
X76469Y57802D01*
X76538Y57765D01*
X76596Y57714D01*
X76604Y57707D01*
X76618Y57685D01*
X76644Y57653D01*
X76655Y57627D01*
X76669Y57602D01*
X76684Y57569D01*
X76695Y57536D01*
X76709Y57500D01*
X76720Y57456D01*
X76727Y57412D01*
X76735Y57361D01*
X76742Y57310D01*
Y57252D01*
Y56000D01*
X76433D01*
Y57147D01*
Y57150D01*
Y57154D01*
Y57176D01*
Y57209D01*
X76429Y57249D01*
X76425Y57292D01*
X76422Y57336D01*
X76414Y57380D01*
X76403Y57412D01*
Y57416D01*
X76396Y57427D01*
X76389Y57441D01*
X76378Y57460D01*
X76363Y57481D01*
X76345Y57503D01*
X76323Y57525D01*
X76294Y57547D01*
X76291Y57551D01*
X76280Y57554D01*
X76265Y57562D01*
X76240Y57573D01*
X76214Y57583D01*
X76181Y57591D01*
X76149Y57594D01*
X76109Y57598D01*
X76090D01*
X76076Y57594D01*
X76039Y57591D01*
X75996Y57583D01*
X75945Y57565D01*
X75890Y57543D01*
X75836Y57511D01*
X75785Y57467D01*
X75781Y57460D01*
X75766Y57441D01*
X75745Y57412D01*
X75723Y57369D01*
X75697Y57310D01*
X75679Y57241D01*
X75665Y57157D01*
X75657Y57059D01*
Y56000D01*
X75348D01*
Y57183D01*
Y57187D01*
Y57194D01*
Y57201D01*
Y57216D01*
X75344Y57256D01*
X75337Y57300D01*
X75330Y57350D01*
X75315Y57401D01*
X75297Y57449D01*
X75271Y57492D01*
X75268Y57496D01*
X75257Y57511D01*
X75239Y57525D01*
X75213Y57547D01*
X75180Y57565D01*
X75137Y57583D01*
X75086Y57594D01*
X75024Y57598D01*
X75002D01*
X74976Y57594D01*
X74947Y57591D01*
X74911Y57580D01*
X74867Y57569D01*
X74827Y57551D01*
X74784Y57529D01*
X74780Y57525D01*
X74765Y57514D01*
X74747Y57500D01*
X74722Y57478D01*
X74696Y57449D01*
X74671Y57412D01*
X74645Y57372D01*
X74623Y57325D01*
X74620Y57318D01*
X74616Y57300D01*
X74609Y57270D01*
X74598Y57230D01*
X74587Y57176D01*
X74580Y57110D01*
X74576Y57034D01*
X74572Y56946D01*
Y56000D01*
X74263D01*
Y57827D01*
X74540D01*
Y57565D01*
X74543Y57573D01*
X74554Y57587D01*
X74576Y57613D01*
X74602Y57642D01*
X74634Y57678D01*
X74674Y57714D01*
X74718Y57751D01*
X74769Y57784D01*
X74776Y57787D01*
X74795Y57798D01*
X74824Y57809D01*
X74864Y57827D01*
X74911Y57842D01*
X74966Y57853D01*
X75028Y57864D01*
X75093Y57867D01*
X75126D01*
X75166Y57864D01*
X75209Y57856D01*
X75264Y57845D01*
X75319Y57831D01*
X75373Y57809D01*
X75424Y57780D01*
X75432Y57776D01*
X75446Y57765D01*
X75468Y57747D01*
X75497Y57718D01*
X75526Y57685D01*
X75559Y57645D01*
X75588Y57598D01*
X75610Y57543D01*
X75613Y57547D01*
X75621Y57558D01*
X75632Y57573D01*
X75650Y57594D01*
X75672Y57620D01*
X75697Y57645D01*
X75726Y57674D01*
X75763Y57707D01*
X75803Y57736D01*
X75843Y57765D01*
X75890Y57791D01*
X75941Y57816D01*
X75996Y57838D01*
X76054Y57853D01*
X76112Y57864D01*
X76178Y57867D01*
X76203D01*
X76221Y57864D01*
D02*
G37*
G36*
X73288D02*
X73313D01*
X73339Y57860D01*
X73400Y57849D01*
X73466Y57831D01*
X73535Y57802D01*
X73604Y57765D01*
X73663Y57714D01*
X73670Y57707D01*
X73684Y57685D01*
X73710Y57653D01*
X73721Y57627D01*
X73735Y57602D01*
X73750Y57569D01*
X73761Y57536D01*
X73775Y57500D01*
X73786Y57456D01*
X73794Y57412D01*
X73801Y57361D01*
X73808Y57310D01*
Y57252D01*
Y56000D01*
X73499D01*
Y57147D01*
Y57150D01*
Y57154D01*
Y57176D01*
Y57209D01*
X73495Y57249D01*
X73491Y57292D01*
X73488Y57336D01*
X73480Y57380D01*
X73470Y57412D01*
Y57416D01*
X73462Y57427D01*
X73455Y57441D01*
X73444Y57460D01*
X73430Y57481D01*
X73411Y57503D01*
X73390Y57525D01*
X73360Y57547D01*
X73357Y57551D01*
X73346Y57554D01*
X73331Y57562D01*
X73306Y57573D01*
X73280Y57583D01*
X73247Y57591D01*
X73215Y57594D01*
X73175Y57598D01*
X73156D01*
X73142Y57594D01*
X73106Y57591D01*
X73062Y57583D01*
X73011Y57565D01*
X72956Y57543D01*
X72902Y57511D01*
X72851Y57467D01*
X72847Y57460D01*
X72833Y57441D01*
X72811Y57412D01*
X72789Y57369D01*
X72763Y57310D01*
X72745Y57241D01*
X72731Y57157D01*
X72723Y57059D01*
Y56000D01*
X72414D01*
Y57183D01*
Y57187D01*
Y57194D01*
Y57201D01*
Y57216D01*
X72410Y57256D01*
X72403Y57300D01*
X72396Y57350D01*
X72381Y57401D01*
X72363Y57449D01*
X72338Y57492D01*
X72334Y57496D01*
X72323Y57511D01*
X72305Y57525D01*
X72279Y57547D01*
X72246Y57565D01*
X72203Y57583D01*
X72152Y57594D01*
X72090Y57598D01*
X72068D01*
X72043Y57594D01*
X72014Y57591D01*
X71977Y57580D01*
X71934Y57569D01*
X71893Y57551D01*
X71850Y57529D01*
X71846Y57525D01*
X71832Y57514D01*
X71813Y57500D01*
X71788Y57478D01*
X71762Y57449D01*
X71737Y57412D01*
X71711Y57372D01*
X71690Y57325D01*
X71686Y57318D01*
X71682Y57300D01*
X71675Y57270D01*
X71664Y57230D01*
X71653Y57176D01*
X71646Y57110D01*
X71642Y57034D01*
X71639Y56946D01*
Y56000D01*
X71329D01*
Y57827D01*
X71606D01*
Y57565D01*
X71609Y57573D01*
X71620Y57587D01*
X71642Y57613D01*
X71668Y57642D01*
X71701Y57678D01*
X71741Y57714D01*
X71784Y57751D01*
X71835Y57784D01*
X71842Y57787D01*
X71861Y57798D01*
X71890Y57809D01*
X71930Y57827D01*
X71977Y57842D01*
X72032Y57853D01*
X72094Y57864D01*
X72159Y57867D01*
X72192D01*
X72232Y57864D01*
X72276Y57856D01*
X72330Y57845D01*
X72385Y57831D01*
X72439Y57809D01*
X72490Y57780D01*
X72498Y57776D01*
X72512Y57765D01*
X72534Y57747D01*
X72563Y57718D01*
X72592Y57685D01*
X72625Y57645D01*
X72654Y57598D01*
X72676Y57543D01*
X72680Y57547D01*
X72687Y57558D01*
X72698Y57573D01*
X72716Y57594D01*
X72738Y57620D01*
X72763Y57645D01*
X72793Y57674D01*
X72829Y57707D01*
X72869Y57736D01*
X72909Y57765D01*
X72956Y57791D01*
X73007Y57816D01*
X73062Y57838D01*
X73120Y57853D01*
X73178Y57864D01*
X73244Y57867D01*
X73269D01*
X73288Y57864D01*
D02*
G37*
G36*
X70838Y58191D02*
X69830D01*
X69695Y57511D01*
X69699Y57514D01*
X69706Y57518D01*
X69717Y57525D01*
X69735Y57536D01*
X69757Y57547D01*
X69782Y57562D01*
X69841Y57591D01*
X69913Y57620D01*
X69993Y57645D01*
X70081Y57664D01*
X70124Y57671D01*
X70205D01*
X70226Y57667D01*
X70255Y57664D01*
X70288Y57660D01*
X70325Y57653D01*
X70365Y57642D01*
X70452Y57616D01*
X70499Y57598D01*
X70547Y57573D01*
X70594Y57547D01*
X70641Y57518D01*
X70685Y57481D01*
X70729Y57441D01*
X70732Y57438D01*
X70740Y57430D01*
X70750Y57420D01*
X70765Y57401D01*
X70783Y57376D01*
X70801Y57350D01*
X70823Y57318D01*
X70845Y57281D01*
X70863Y57241D01*
X70885Y57198D01*
X70903Y57147D01*
X70922Y57096D01*
X70936Y57041D01*
X70947Y56979D01*
X70954Y56917D01*
X70958Y56852D01*
Y56848D01*
Y56837D01*
Y56819D01*
X70954Y56793D01*
X70951Y56764D01*
X70947Y56732D01*
X70940Y56692D01*
X70933Y56652D01*
X70911Y56557D01*
X70874Y56459D01*
X70852Y56408D01*
X70823Y56360D01*
X70794Y56309D01*
X70758Y56262D01*
X70754Y56258D01*
X70747Y56248D01*
X70732Y56233D01*
X70714Y56215D01*
X70689Y56193D01*
X70660Y56164D01*
X70623Y56138D01*
X70583Y56109D01*
X70539Y56080D01*
X70488Y56055D01*
X70434Y56029D01*
X70376Y56004D01*
X70314Y55985D01*
X70244Y55971D01*
X70172Y55960D01*
X70095Y55956D01*
X70063D01*
X70037Y55960D01*
X70008Y55964D01*
X69975Y55967D01*
X69935Y55971D01*
X69895Y55982D01*
X69804Y56004D01*
X69713Y56036D01*
X69666Y56058D01*
X69618Y56084D01*
X69575Y56113D01*
X69531Y56146D01*
X69527Y56149D01*
X69520Y56153D01*
X69513Y56167D01*
X69498Y56182D01*
X69480Y56200D01*
X69462Y56222D01*
X69440Y56251D01*
X69422Y56284D01*
X69400Y56317D01*
X69378Y56357D01*
X69338Y56444D01*
X69305Y56546D01*
X69295Y56601D01*
X69287Y56659D01*
X69611Y56684D01*
Y56681D01*
Y56673D01*
X69615Y56662D01*
X69618Y56644D01*
X69629Y56604D01*
X69644Y56550D01*
X69666Y56495D01*
X69695Y56433D01*
X69731Y56379D01*
X69775Y56328D01*
X69782Y56324D01*
X69797Y56309D01*
X69826Y56291D01*
X69866Y56269D01*
X69910Y56248D01*
X69964Y56229D01*
X70026Y56215D01*
X70095Y56211D01*
X70117D01*
X70132Y56215D01*
X70175Y56218D01*
X70226Y56233D01*
X70288Y56251D01*
X70350Y56280D01*
X70416Y56324D01*
X70445Y56349D01*
X70474Y56379D01*
X70477Y56382D01*
X70481Y56386D01*
X70488Y56397D01*
X70499Y56408D01*
X70525Y56448D01*
X70554Y56499D01*
X70579Y56561D01*
X70605Y56637D01*
X70623Y56728D01*
X70630Y56775D01*
Y56826D01*
Y56830D01*
Y56837D01*
Y56852D01*
X70627Y56870D01*
Y56892D01*
X70623Y56917D01*
X70612Y56976D01*
X70594Y57045D01*
X70569Y57114D01*
X70532Y57179D01*
X70481Y57241D01*
Y57245D01*
X70474Y57249D01*
X70456Y57267D01*
X70423Y57292D01*
X70379Y57321D01*
X70321Y57347D01*
X70255Y57372D01*
X70179Y57390D01*
X70135Y57398D01*
X70066D01*
X70037Y57394D01*
X70001Y57390D01*
X69957Y57380D01*
X69913Y57369D01*
X69866Y57350D01*
X69819Y57329D01*
X69815Y57325D01*
X69800Y57318D01*
X69779Y57300D01*
X69749Y57281D01*
X69720Y57256D01*
X69691Y57223D01*
X69658Y57190D01*
X69633Y57150D01*
X69342Y57190D01*
X69586Y58486D01*
X70838D01*
Y58191D01*
D02*
G37*
G36*
X115218Y55864D02*
X115243D01*
X115269Y55860D01*
X115331Y55849D01*
X115396Y55831D01*
X115465Y55802D01*
X115534Y55765D01*
X115593Y55714D01*
X115600Y55707D01*
X115614Y55685D01*
X115640Y55653D01*
X115651Y55627D01*
X115665Y55602D01*
X115680Y55569D01*
X115691Y55536D01*
X115706Y55500D01*
X115716Y55456D01*
X115724Y55412D01*
X115731Y55361D01*
X115738Y55310D01*
Y55252D01*
Y54000D01*
X115429D01*
Y55147D01*
Y55150D01*
Y55154D01*
Y55176D01*
Y55208D01*
X115425Y55248D01*
X115422Y55292D01*
X115418Y55336D01*
X115411Y55380D01*
X115400Y55412D01*
Y55416D01*
X115392Y55427D01*
X115385Y55441D01*
X115374Y55460D01*
X115360Y55481D01*
X115341Y55503D01*
X115320Y55525D01*
X115291Y55547D01*
X115287Y55551D01*
X115276Y55554D01*
X115261Y55562D01*
X115236Y55572D01*
X115210Y55583D01*
X115178Y55591D01*
X115145Y55594D01*
X115105Y55598D01*
X115087D01*
X115072Y55594D01*
X115036Y55591D01*
X114992Y55583D01*
X114941Y55565D01*
X114886Y55543D01*
X114832Y55511D01*
X114781Y55467D01*
X114777Y55460D01*
X114763Y55441D01*
X114741Y55412D01*
X114719Y55369D01*
X114694Y55310D01*
X114675Y55241D01*
X114661Y55158D01*
X114654Y55059D01*
Y54000D01*
X114344D01*
Y55183D01*
Y55187D01*
Y55194D01*
Y55201D01*
Y55216D01*
X114340Y55256D01*
X114333Y55300D01*
X114326Y55350D01*
X114311Y55401D01*
X114293Y55449D01*
X114268Y55492D01*
X114264Y55496D01*
X114253Y55511D01*
X114235Y55525D01*
X114209Y55547D01*
X114177Y55565D01*
X114133Y55583D01*
X114082Y55594D01*
X114020Y55598D01*
X113998D01*
X113973Y55594D01*
X113944Y55591D01*
X113907Y55580D01*
X113864Y55569D01*
X113824Y55551D01*
X113780Y55529D01*
X113776Y55525D01*
X113762Y55514D01*
X113744Y55500D01*
X113718Y55478D01*
X113693Y55449D01*
X113667Y55412D01*
X113642Y55372D01*
X113620Y55325D01*
X113616Y55318D01*
X113612Y55300D01*
X113605Y55270D01*
X113594Y55230D01*
X113583Y55176D01*
X113576Y55110D01*
X113573Y55034D01*
X113569Y54946D01*
Y54000D01*
X113259D01*
Y55827D01*
X113536D01*
Y55565D01*
X113540Y55572D01*
X113551Y55587D01*
X113573Y55612D01*
X113598Y55642D01*
X113631Y55678D01*
X113671Y55714D01*
X113714Y55751D01*
X113765Y55784D01*
X113773Y55787D01*
X113791Y55798D01*
X113820Y55809D01*
X113860Y55827D01*
X113907Y55842D01*
X113962Y55853D01*
X114024Y55864D01*
X114089Y55867D01*
X114122D01*
X114162Y55864D01*
X114206Y55856D01*
X114260Y55845D01*
X114315Y55831D01*
X114370Y55809D01*
X114421Y55780D01*
X114428Y55776D01*
X114442Y55765D01*
X114464Y55747D01*
X114493Y55718D01*
X114523Y55685D01*
X114555Y55645D01*
X114584Y55598D01*
X114606Y55543D01*
X114610Y55547D01*
X114617Y55558D01*
X114628Y55572D01*
X114646Y55594D01*
X114668Y55620D01*
X114694Y55645D01*
X114723Y55674D01*
X114759Y55707D01*
X114799Y55736D01*
X114839Y55765D01*
X114886Y55791D01*
X114937Y55816D01*
X114992Y55838D01*
X115050Y55853D01*
X115109Y55864D01*
X115174Y55867D01*
X115200D01*
X115218Y55864D01*
D02*
G37*
G36*
X112284D02*
X112309D01*
X112335Y55860D01*
X112397Y55849D01*
X112462Y55831D01*
X112531Y55802D01*
X112601Y55765D01*
X112659Y55714D01*
X112666Y55707D01*
X112681Y55685D01*
X112706Y55653D01*
X112717Y55627D01*
X112732Y55602D01*
X112746Y55569D01*
X112757Y55536D01*
X112772Y55500D01*
X112783Y55456D01*
X112790Y55412D01*
X112797Y55361D01*
X112804Y55310D01*
Y55252D01*
Y54000D01*
X112495D01*
Y55147D01*
Y55150D01*
Y55154D01*
Y55176D01*
Y55208D01*
X112491Y55248D01*
X112488Y55292D01*
X112484Y55336D01*
X112477Y55380D01*
X112466Y55412D01*
Y55416D01*
X112459Y55427D01*
X112451Y55441D01*
X112440Y55460D01*
X112426Y55481D01*
X112408Y55503D01*
X112386Y55525D01*
X112357Y55547D01*
X112353Y55551D01*
X112342Y55554D01*
X112328Y55562D01*
X112302Y55572D01*
X112277Y55583D01*
X112244Y55591D01*
X112211Y55594D01*
X112171Y55598D01*
X112153D01*
X112138Y55594D01*
X112102Y55591D01*
X112058Y55583D01*
X112007Y55565D01*
X111953Y55543D01*
X111898Y55511D01*
X111847Y55467D01*
X111844Y55460D01*
X111829Y55441D01*
X111807Y55412D01*
X111785Y55369D01*
X111760Y55310D01*
X111742Y55241D01*
X111727Y55158D01*
X111720Y55059D01*
Y54000D01*
X111410D01*
Y55183D01*
Y55187D01*
Y55194D01*
Y55201D01*
Y55216D01*
X111407Y55256D01*
X111399Y55300D01*
X111392Y55350D01*
X111378Y55401D01*
X111359Y55449D01*
X111334Y55492D01*
X111330Y55496D01*
X111319Y55511D01*
X111301Y55525D01*
X111276Y55547D01*
X111243Y55565D01*
X111199Y55583D01*
X111148Y55594D01*
X111086Y55598D01*
X111065D01*
X111039Y55594D01*
X111010Y55591D01*
X110974Y55580D01*
X110930Y55569D01*
X110890Y55551D01*
X110846Y55529D01*
X110843Y55525D01*
X110828Y55514D01*
X110810Y55500D01*
X110784Y55478D01*
X110759Y55449D01*
X110733Y55412D01*
X110708Y55372D01*
X110686Y55325D01*
X110682Y55318D01*
X110679Y55300D01*
X110671Y55270D01*
X110661Y55230D01*
X110650Y55176D01*
X110642Y55110D01*
X110639Y55034D01*
X110635Y54946D01*
Y54000D01*
X110326D01*
Y55827D01*
X110602D01*
Y55565D01*
X110606Y55572D01*
X110617Y55587D01*
X110639Y55612D01*
X110664Y55642D01*
X110697Y55678D01*
X110737Y55714D01*
X110781Y55751D01*
X110832Y55784D01*
X110839Y55787D01*
X110857Y55798D01*
X110886Y55809D01*
X110926Y55827D01*
X110974Y55842D01*
X111028Y55853D01*
X111090Y55864D01*
X111155Y55867D01*
X111188D01*
X111228Y55864D01*
X111272Y55856D01*
X111327Y55845D01*
X111381Y55831D01*
X111436Y55809D01*
X111487Y55780D01*
X111494Y55776D01*
X111509Y55765D01*
X111530Y55747D01*
X111560Y55718D01*
X111589Y55685D01*
X111621Y55645D01*
X111651Y55598D01*
X111672Y55543D01*
X111676Y55547D01*
X111683Y55558D01*
X111694Y55572D01*
X111712Y55594D01*
X111734Y55620D01*
X111760Y55645D01*
X111789Y55674D01*
X111825Y55707D01*
X111865Y55736D01*
X111905Y55765D01*
X111953Y55791D01*
X112004Y55816D01*
X112058Y55838D01*
X112117Y55853D01*
X112175Y55864D01*
X112240Y55867D01*
X112266D01*
X112284Y55864D01*
D02*
G37*
G36*
X109150Y56526D02*
X109197Y56519D01*
X109255Y56508D01*
X109321Y56490D01*
X109387Y56468D01*
X109452Y56439D01*
X109456D01*
X109459Y56435D01*
X109481Y56424D01*
X109514Y56402D01*
X109550Y56377D01*
X109594Y56340D01*
X109638Y56300D01*
X109681Y56253D01*
X109718Y56199D01*
X109721Y56191D01*
X109732Y56173D01*
X109747Y56140D01*
X109765Y56100D01*
X109783Y56053D01*
X109798Y55998D01*
X109809Y55936D01*
X109812Y55875D01*
Y55867D01*
Y55845D01*
X109809Y55816D01*
X109801Y55776D01*
X109791Y55729D01*
X109772Y55678D01*
X109750Y55627D01*
X109721Y55576D01*
X109718Y55569D01*
X109707Y55554D01*
X109685Y55529D01*
X109656Y55500D01*
X109619Y55467D01*
X109576Y55431D01*
X109525Y55398D01*
X109463Y55365D01*
X109467D01*
X109474Y55361D01*
X109485Y55358D01*
X109499Y55354D01*
X109539Y55339D01*
X109590Y55318D01*
X109649Y55289D01*
X109707Y55252D01*
X109761Y55205D01*
X109812Y55150D01*
X109816Y55143D01*
X109831Y55121D01*
X109852Y55085D01*
X109874Y55037D01*
X109896Y54979D01*
X109918Y54910D01*
X109932Y54830D01*
X109936Y54743D01*
Y54739D01*
Y54728D01*
Y54710D01*
X109932Y54688D01*
X109929Y54659D01*
X109922Y54626D01*
X109914Y54590D01*
X109907Y54550D01*
X109878Y54462D01*
X109856Y54415D01*
X109834Y54371D01*
X109805Y54324D01*
X109772Y54277D01*
X109736Y54229D01*
X109692Y54186D01*
X109689Y54182D01*
X109681Y54175D01*
X109667Y54164D01*
X109649Y54149D01*
X109627Y54131D01*
X109598Y54113D01*
X109565Y54091D01*
X109525Y54073D01*
X109485Y54051D01*
X109437Y54029D01*
X109390Y54011D01*
X109335Y53993D01*
X109277Y53978D01*
X109215Y53967D01*
X109153Y53960D01*
X109084Y53956D01*
X109052D01*
X109030Y53960D01*
X109001Y53964D01*
X108968Y53967D01*
X108932Y53974D01*
X108891Y53982D01*
X108804Y54004D01*
X108713Y54040D01*
X108666Y54062D01*
X108622Y54087D01*
X108578Y54120D01*
X108535Y54153D01*
X108531Y54157D01*
X108524Y54164D01*
X108513Y54175D01*
X108502Y54189D01*
X108484Y54207D01*
X108466Y54233D01*
X108444Y54258D01*
X108422Y54291D01*
X108400Y54328D01*
X108378Y54364D01*
X108338Y54451D01*
X108305Y54553D01*
X108294Y54608D01*
X108287Y54666D01*
X108597Y54706D01*
Y54703D01*
X108600Y54695D01*
X108604Y54681D01*
X108607Y54663D01*
X108611Y54641D01*
X108618Y54615D01*
X108637Y54561D01*
X108662Y54495D01*
X108695Y54433D01*
X108731Y54375D01*
X108775Y54324D01*
X108782Y54320D01*
X108797Y54306D01*
X108826Y54288D01*
X108862Y54269D01*
X108906Y54247D01*
X108961Y54229D01*
X109022Y54215D01*
X109088Y54211D01*
X109110D01*
X109124Y54215D01*
X109164Y54218D01*
X109215Y54229D01*
X109274Y54247D01*
X109335Y54273D01*
X109397Y54309D01*
X109456Y54360D01*
X109463Y54368D01*
X109481Y54390D01*
X109503Y54422D01*
X109532Y54466D01*
X109561Y54520D01*
X109583Y54582D01*
X109601Y54655D01*
X109608Y54735D01*
Y54739D01*
Y54746D01*
Y54757D01*
X109605Y54772D01*
X109601Y54812D01*
X109590Y54859D01*
X109576Y54917D01*
X109550Y54975D01*
X109514Y55034D01*
X109467Y55088D01*
X109459Y55096D01*
X109441Y55110D01*
X109412Y55132D01*
X109372Y55158D01*
X109321Y55183D01*
X109259Y55205D01*
X109190Y55219D01*
X109114Y55227D01*
X109081D01*
X109055Y55223D01*
X109022Y55219D01*
X108986Y55212D01*
X108942Y55205D01*
X108895Y55194D01*
X108932Y55467D01*
X108950D01*
X108964Y55463D01*
X109012D01*
X109052Y55471D01*
X109099Y55478D01*
X109153Y55489D01*
X109215Y55507D01*
X109274Y55532D01*
X109335Y55565D01*
X109339D01*
X109343Y55569D01*
X109361Y55583D01*
X109387Y55609D01*
X109416Y55642D01*
X109445Y55689D01*
X109470Y55744D01*
X109488Y55805D01*
X109496Y55842D01*
Y55882D01*
Y55885D01*
Y55889D01*
Y55911D01*
X109488Y55940D01*
X109481Y55980D01*
X109467Y56024D01*
X109448Y56071D01*
X109419Y56119D01*
X109379Y56162D01*
X109376Y56166D01*
X109357Y56180D01*
X109332Y56199D01*
X109299Y56220D01*
X109255Y56239D01*
X109204Y56257D01*
X109146Y56271D01*
X109081Y56275D01*
X109052D01*
X109019Y56268D01*
X108975Y56260D01*
X108928Y56246D01*
X108880Y56228D01*
X108830Y56199D01*
X108782Y56162D01*
X108779Y56159D01*
X108764Y56140D01*
X108742Y56115D01*
X108717Y56078D01*
X108691Y56031D01*
X108666Y55973D01*
X108644Y55904D01*
X108629Y55824D01*
X108320Y55878D01*
Y55882D01*
X108324Y55893D01*
X108327Y55907D01*
X108331Y55929D01*
X108338Y55955D01*
X108349Y55984D01*
X108371Y56053D01*
X108407Y56133D01*
X108451Y56213D01*
X108506Y56290D01*
X108575Y56359D01*
X108578Y56362D01*
X108586Y56366D01*
X108597Y56373D01*
X108611Y56384D01*
X108629Y56399D01*
X108655Y56413D01*
X108680Y56428D01*
X108713Y56446D01*
X108786Y56475D01*
X108870Y56504D01*
X108968Y56523D01*
X109019Y56530D01*
X109110D01*
X109150Y56526D01*
D02*
G37*
D20*
X142842Y162157D02*
Y181843D01*
X123158D02*
X142842D01*
X123158Y162157D02*
Y181843D01*
Y162157D02*
X142842D01*
D46*
X130772Y201500D02*
D03*
X127228D02*
D03*
X140272Y150000D02*
D03*
X136728D02*
D03*
X117772Y164000D02*
D03*
X114228D02*
D03*
X107728Y172000D02*
D03*
X111272D02*
D03*
X334728Y215000D02*
D03*
X338272D02*
D03*
X329772Y183500D02*
D03*
X326228D02*
D03*
X329772Y209500D02*
D03*
X326228D02*
D03*
X287228Y205000D02*
D03*
X290772D02*
D03*
X287228Y185000D02*
D03*
X290772D02*
D03*
X276272Y165500D02*
D03*
X272728D02*
D03*
X329772Y178500D02*
D03*
X326228D02*
D03*
X329772Y173500D02*
D03*
X326228D02*
D03*
X329772Y204500D02*
D03*
X326228D02*
D03*
X287228Y198500D02*
D03*
X290772D02*
D03*
X287228Y190000D02*
D03*
X290772D02*
D03*
X287228Y179500D02*
D03*
X290772D02*
D03*
X114228Y158500D02*
D03*
X117772D02*
D03*
X114228Y153500D02*
D03*
X117772D02*
D03*
D47*
X176500Y75228D02*
D03*
Y78772D02*
D03*
X181500Y75228D02*
D03*
Y78772D02*
D03*
X206500Y75228D02*
D03*
Y78772D02*
D03*
X211500Y75228D02*
D03*
Y78772D02*
D03*
X255500Y75228D02*
D03*
Y78772D02*
D03*
X260500Y75228D02*
D03*
Y78772D02*
D03*
X285500Y75228D02*
D03*
Y78772D02*
D03*
X290500Y75228D02*
D03*
Y78772D02*
D03*
X334500Y74728D02*
D03*
Y78272D02*
D03*
X339500Y74728D02*
D03*
Y78272D02*
D03*
X364500Y74728D02*
D03*
Y78272D02*
D03*
X369500Y74728D02*
D03*
Y78272D02*
D03*
X132500Y75228D02*
D03*
Y78772D02*
D03*
X127500Y75228D02*
D03*
Y78772D02*
D03*
X102500Y75228D02*
D03*
Y78772D02*
D03*
X97500Y75228D02*
D03*
Y78772D02*
D03*
X152500Y195228D02*
D03*
Y198772D02*
D03*
X130500Y149772D02*
D03*
Y146228D02*
D03*
X35000Y142772D02*
D03*
Y139228D02*
D03*
X40000Y142772D02*
D03*
Y139228D02*
D03*
X50000Y142772D02*
D03*
Y139228D02*
D03*
X55000Y142772D02*
D03*
Y139228D02*
D03*
X45000Y142772D02*
D03*
Y139228D02*
D03*
X425713Y140272D02*
D03*
Y136728D02*
D03*
X435713Y140272D02*
D03*
Y136728D02*
D03*
X440713Y140272D02*
D03*
Y136728D02*
D03*
X420713Y140272D02*
D03*
Y136728D02*
D03*
X430713Y140272D02*
D03*
Y136728D02*
D03*
X145500Y68772D02*
D03*
Y65228D02*
D03*
X150500Y68772D02*
D03*
Y65228D02*
D03*
X229000Y68272D02*
D03*
Y64728D02*
D03*
X223500Y68272D02*
D03*
Y64728D02*
D03*
X307000Y68272D02*
D03*
Y64728D02*
D03*
X300500Y68272D02*
D03*
Y64728D02*
D03*
X387500Y68272D02*
D03*
Y64728D02*
D03*
X379000Y68272D02*
D03*
Y64728D02*
D03*
X296500Y171728D02*
D03*
Y175272D02*
D03*
X306500Y171728D02*
D03*
Y175272D02*
D03*
X316500Y171728D02*
D03*
Y175272D02*
D03*
X338000Y169228D02*
D03*
Y172772D02*
D03*
X305500Y213272D02*
D03*
Y209728D02*
D03*
X293000Y213272D02*
D03*
Y209728D02*
D03*
X260000Y260728D02*
D03*
Y264272D02*
D03*
X311500Y171728D02*
D03*
Y175272D02*
D03*
X321500Y171728D02*
D03*
Y175272D02*
D03*
Y213272D02*
D03*
Y209728D02*
D03*
X285500Y213272D02*
D03*
Y209728D02*
D03*
X291500Y171728D02*
D03*
Y175272D02*
D03*
X42500Y171228D02*
D03*
Y174772D02*
D03*
X48000Y171228D02*
D03*
Y174772D02*
D03*
X427500Y170728D02*
D03*
Y174272D02*
D03*
X433000Y170728D02*
D03*
Y174272D02*
D03*
X301500Y171728D02*
D03*
Y175272D02*
D03*
X176000Y215228D02*
D03*
Y218772D02*
D03*
X286000Y253772D02*
D03*
Y250228D02*
D03*
D56*
X145331Y201453D02*
D03*
X136669D02*
D03*
Y195547D02*
D03*
X145331D02*
D03*
D57*
X299500Y269500D02*
D03*
X469500Y123500D02*
D03*
Y113500D02*
D03*
Y103500D02*
D03*
Y93500D02*
D03*
Y43500D02*
D03*
Y53500D02*
D03*
Y63500D02*
D03*
Y73500D02*
D03*
Y83500D02*
D03*
X5500Y39000D02*
D03*
Y49000D02*
D03*
Y59000D02*
D03*
Y69000D02*
D03*
Y119000D02*
D03*
Y109000D02*
D03*
Y99000D02*
D03*
Y89000D02*
D03*
Y79000D02*
D03*
D61*
X289500Y269500D02*
D03*
D62*
X454500Y240500D02*
D03*
Y260500D02*
D03*
Y250500D02*
D03*
D63*
X40312Y125709D02*
D03*
X61571Y125709D02*
D03*
X51729Y46968D02*
D03*
X74052Y66654D02*
D03*
X74052Y106024D02*
D03*
Y145394D02*
D03*
X74052Y184764D02*
D03*
X17949Y125709D02*
D03*
X17949Y86339D02*
D03*
X17950Y46969D02*
D03*
X402949D02*
D03*
X402949Y86339D02*
D03*
X402949Y125709D02*
D03*
X459052Y184764D02*
D03*
X459052Y145394D02*
D03*
Y106024D02*
D03*
X459052Y66654D02*
D03*
X436729Y46968D02*
D03*
X446571Y125709D02*
D03*
X425312Y125709D02*
D03*
D64*
X74051Y136733D02*
D03*
Y155237D02*
D03*
Y174922D02*
D03*
X64917Y193031D02*
D03*
X46019Y193032D02*
D03*
X27122Y193032D02*
D03*
X17949Y174922D02*
D03*
X17949Y165079D02*
D03*
X17949Y155236D02*
D03*
X17949Y136732D02*
D03*
X402949D02*
D03*
X402949Y155236D02*
D03*
X402949Y165079D02*
D03*
X402949Y174922D02*
D03*
X412122Y193032D02*
D03*
X431019Y193032D02*
D03*
X449917Y193031D02*
D03*
X459051Y174922D02*
D03*
Y155237D02*
D03*
Y136733D02*
D03*
D65*
X56363Y260733D02*
D03*
X56232Y284441D02*
D03*
D66*
X38636Y272746D02*
D03*
D67*
X221755Y22542D02*
D03*
X171382Y22199D02*
D03*
X298755Y22542D02*
D03*
X248382Y22199D02*
D03*
X377255Y22542D02*
D03*
X326882Y22199D02*
D03*
X140755Y22542D02*
D03*
X90382Y22199D02*
D03*
D68*
X228272Y36003D02*
D03*
X164647D02*
D03*
X305272D02*
D03*
X241647D02*
D03*
X383772D02*
D03*
X320147D02*
D03*
X147272D02*
D03*
X83647D02*
D03*
D69*
X169474Y58551D02*
D03*
X178510Y58428D02*
D03*
X214652Y58551D02*
D03*
X223564D02*
D03*
X182442Y39429D02*
D03*
X186509Y32483D02*
D03*
X190581Y39446D02*
D03*
X194691Y32693D02*
D03*
X198588Y39511D02*
D03*
X202604Y32353D02*
D03*
X206595Y39429D02*
D03*
X210579Y32468D02*
D03*
X246474Y58551D02*
D03*
X255510Y58428D02*
D03*
X291652Y58551D02*
D03*
X300564D02*
D03*
X259442Y39429D02*
D03*
X263509Y32483D02*
D03*
X267581Y39446D02*
D03*
X271691Y32693D02*
D03*
X275588Y39511D02*
D03*
X279604Y32353D02*
D03*
X283595Y39429D02*
D03*
X287579Y32468D02*
D03*
X324974Y58551D02*
D03*
X334010Y58428D02*
D03*
X370152Y58551D02*
D03*
X379064D02*
D03*
X337942Y39429D02*
D03*
X342009Y32483D02*
D03*
X346081Y39446D02*
D03*
X350191Y32693D02*
D03*
X354088Y39511D02*
D03*
X358104Y32353D02*
D03*
X362095Y39429D02*
D03*
X366079Y32468D02*
D03*
X88474Y58551D02*
D03*
X97510Y58428D02*
D03*
X133652Y58551D02*
D03*
X142564D02*
D03*
X101442Y39429D02*
D03*
X105509Y32483D02*
D03*
X109581Y39446D02*
D03*
X113691Y32693D02*
D03*
X117588Y39511D02*
D03*
X121604Y32353D02*
D03*
X125595Y39429D02*
D03*
X129579Y32468D02*
D03*
D70*
X347500Y69500D02*
D03*
X327500D02*
D03*
X268500D02*
D03*
X248500D02*
D03*
X189500D02*
D03*
X169500D02*
D03*
X110500D02*
D03*
X90500D02*
D03*
D71*
X469500Y33500D02*
D03*
X5500Y129000D02*
D03*
D72*
X101000Y148500D02*
D03*
X177000Y7500D02*
D03*
X25500Y241500D02*
D03*
X74000Y123500D02*
D03*
X59500Y211500D02*
D03*
X21500D02*
D03*
X63000Y232500D02*
D03*
X199000Y299500D02*
D03*
X97000Y233000D02*
D03*
X101000Y176000D02*
D03*
X202500Y251500D02*
D03*
X179000D02*
D03*
X417500Y246500D02*
D03*
X258000Y233500D02*
D03*
X203000Y231500D02*
D03*
X437500Y234000D02*
D03*
X169500Y229500D02*
D03*
X224500Y250500D02*
D03*
X276000Y262500D02*
D03*
X338500Y228500D02*
D03*
X253000Y218500D02*
D03*
X234000Y253000D02*
D03*
X227500Y219000D02*
D03*
X185500Y177000D02*
D03*
X207000Y175500D02*
D03*
X212000Y200500D02*
D03*
X210000Y209500D02*
D03*
X103500Y162000D02*
D03*
X208500Y187500D02*
D03*
X159500Y142000D02*
D03*
X359000Y134500D02*
D03*
X320000Y138000D02*
D03*
X117500Y144000D02*
D03*
X153000Y149000D02*
D03*
X141000Y136500D02*
D03*
X192500Y174500D02*
D03*
X170500Y162000D02*
D03*
X255000Y187000D02*
D03*
X348000Y159500D02*
D03*
X375000D02*
D03*
X179000Y161500D02*
D03*
X276500Y152000D02*
D03*
X258000Y145000D02*
D03*
X277000Y139500D02*
D03*
X259000Y157000D02*
D03*
X230500Y168000D02*
D03*
X243000Y180500D02*
D03*
X208500Y141500D02*
D03*
X192500Y139500D02*
D03*
X225000Y202000D02*
D03*
X200500Y151500D02*
D03*
X105000Y292000D02*
D03*
X98000Y292500D02*
D03*
X90500D02*
D03*
X82500D02*
D03*
X105000Y302500D02*
D03*
X97500D02*
D03*
X90000D02*
D03*
X82500D02*
D03*
X128500Y287500D02*
D03*
X121500D02*
D03*
X128500Y297500D02*
D03*
X121500D02*
D03*
X209500Y267500D02*
D03*
X364000Y183500D02*
D03*
X356433Y181067D02*
D03*
X354016Y185500D02*
D03*
X367000Y190500D02*
D03*
X158000Y250000D02*
D03*
X80500Y252000D02*
D03*
X455000Y221000D02*
D03*
X457000Y207000D02*
D03*
X459000Y221000D02*
D03*
X457000Y203500D02*
D03*
X35500Y194000D02*
D03*
X37500Y211500D02*
D03*
X363500Y234500D02*
D03*
X391772Y263272D02*
D03*
X114000Y252000D02*
D03*
X351500Y268937D02*
D03*
X29272Y139228D02*
D03*
X439660Y145500D02*
D03*
X433362D02*
D03*
X430213Y143500D02*
D03*
X427063Y145512D02*
D03*
X420764D02*
D03*
X444728Y136728D02*
D03*
X54660Y146340D02*
D03*
X48362Y146500D02*
D03*
X45213Y145500D02*
D03*
X42063Y146500D02*
D03*
X35764D02*
D03*
X344165Y173500D02*
D03*
X411500Y200500D02*
D03*
X338272Y220272D02*
D03*
X102000Y207500D02*
D03*
X50000Y189000D02*
D03*
X433000Y177500D02*
D03*
X427500D02*
D03*
X42500D02*
D03*
X48000D02*
D03*
X115500Y207500D02*
D03*
X136500Y191500D02*
D03*
X166937Y211063D02*
D03*
X118728Y189272D02*
D03*
X136000Y177500D02*
D03*
X146500Y152000D02*
D03*
X133500Y167000D02*
D03*
X128500Y166500D02*
D03*
X131500Y169500D02*
D03*
X131000Y176000D02*
D03*
X137000Y175000D02*
D03*
X445960Y157540D02*
D03*
X442810Y159000D02*
D03*
X417500Y157000D02*
D03*
X434937Y188937D02*
D03*
X425490Y188990D02*
D03*
X435728Y170728D02*
D03*
X427500Y168000D02*
D03*
X444386Y189114D02*
D03*
X412675Y183825D02*
D03*
X448500Y200500D02*
D03*
X430000D02*
D03*
X374000Y234500D02*
D03*
X35500Y197500D02*
D03*
X150500Y292500D02*
D03*
Y274000D02*
D03*
X210000Y299000D02*
D03*
X186000Y307500D02*
D03*
X224000Y295500D02*
D03*
X218500D02*
D03*
X263728Y263772D02*
D03*
X269500Y165500D02*
D03*
X281039Y161461D02*
D03*
X151500Y163500D02*
D03*
X158500Y199000D02*
D03*
X163500Y186000D02*
D03*
X150453Y201453D02*
D03*
X124000Y201500D02*
D03*
X88500Y252000D02*
D03*
X83000Y151500D02*
D03*
X79500Y166772D02*
D03*
X62500Y186500D02*
D03*
X48000Y168000D02*
D03*
X42500D02*
D03*
X63500Y152000D02*
D03*
X57810Y157810D02*
D03*
X32614D02*
D03*
X130500Y142500D02*
D03*
X140272Y146000D02*
D03*
X415000Y209000D02*
D03*
X132500Y82000D02*
D03*
X127500D02*
D03*
X102500D02*
D03*
X97500D02*
D03*
X271500Y193862D02*
D03*
Y181264D02*
D03*
X211500Y82000D02*
D03*
X206500D02*
D03*
X181500D02*
D03*
X176500D02*
D03*
X290500D02*
D03*
X285500D02*
D03*
X260500D02*
D03*
X255500D02*
D03*
X334500D02*
D03*
X339500D02*
D03*
X369500D02*
D03*
X364500D02*
D03*
X194500Y224000D02*
D03*
Y219000D02*
D03*
Y214000D02*
D03*
Y209000D02*
D03*
Y204000D02*
D03*
Y199000D02*
D03*
Y194000D02*
D03*
Y189000D02*
D03*
X186500Y297500D02*
D03*
X128500Y155500D02*
D03*
X133500Y154500D02*
D03*
X130638Y152500D02*
D03*
X118862Y169638D02*
D03*
X120500Y164000D02*
D03*
X137500Y187000D02*
D03*
X123000Y182000D02*
D03*
X144500Y211000D02*
D03*
X126500Y186000D02*
D03*
X149000Y175000D02*
D03*
X146500Y163500D02*
D03*
X151228Y229272D02*
D03*
X316500Y169000D02*
D03*
X305638Y216039D02*
D03*
X260236Y257236D02*
D03*
X293039Y216039D02*
D03*
X271500Y171815D02*
D03*
Y187563D02*
D03*
X332000Y204500D02*
D03*
Y209500D02*
D03*
X344000Y207000D02*
D03*
X324772Y215272D02*
D03*
X330835Y215665D02*
D03*
X344000Y211500D02*
D03*
X327685Y213815D02*
D03*
X332110Y173390D02*
D03*
X338039Y165539D02*
D03*
X311500Y169000D02*
D03*
X321500D02*
D03*
X306500D02*
D03*
X301500D02*
D03*
X296500D02*
D03*
X291500D02*
D03*
X278500Y165500D02*
D03*
X287228Y176772D02*
D03*
X284500Y185000D02*
D03*
Y190000D02*
D03*
Y198500D02*
D03*
Y205000D02*
D03*
X285500Y216000D02*
D03*
X332500Y183500D02*
D03*
Y178500D02*
D03*
X346000Y178114D02*
D03*
X344000Y181000D02*
D03*
X346000Y183500D02*
D03*
X282039Y221539D02*
D03*
X392500Y240000D02*
D03*
X390000Y251500D02*
D03*
X392500Y248000D02*
D03*
X387500Y254000D02*
D03*
X385500Y256500D02*
D03*
X294000Y227000D02*
D03*
X301500Y230500D02*
D03*
X286000Y246500D02*
D03*
X151500Y173000D02*
D03*
X364000Y227500D02*
D03*
X310362Y156000D02*
D03*
X300914Y154587D02*
D03*
X319811Y154811D02*
D03*
X344165Y168665D02*
D03*
X394500Y245276D02*
D03*
X396000Y234000D02*
D03*
X399228Y232228D02*
D03*
X105000Y172000D02*
D03*
X101000Y194500D02*
D03*
X186500Y302500D02*
D03*
X293500Y198500D02*
D03*
Y205000D02*
D03*
Y190000D02*
D03*
Y185000D02*
D03*
Y179500D02*
D03*
X296500Y178000D02*
D03*
X301500D02*
D03*
X306500D02*
D03*
X311500D02*
D03*
X316500D02*
D03*
X321500D02*
D03*
X326228Y186228D02*
D03*
Y169272D02*
D03*
Y201772D02*
D03*
X321500Y207000D02*
D03*
X305500D02*
D03*
X295728Y209728D02*
D03*
X271500Y212760D02*
D03*
Y203311D02*
D03*
X335000Y161461D02*
D03*
X360500Y179500D02*
D03*
X375000Y213000D02*
D03*
X377750Y221250D02*
D03*
X406272Y235772D02*
D03*
X385500Y266500D02*
D03*
X316500Y257000D02*
D03*
X301169Y255669D02*
D03*
X308500Y240000D02*
D03*
X294000Y251000D02*
D03*
X279728Y250500D02*
D03*
X286000Y256500D02*
D03*
X276500Y239500D02*
D03*
Y244500D02*
D03*
X273272Y253500D02*
D03*
X234000Y239500D02*
D03*
X111500Y164000D02*
D03*
X28675Y183825D02*
D03*
X40500Y189000D02*
D03*
X89000Y195500D02*
D03*
Y190500D02*
D03*
X106500Y194500D02*
D03*
X90728Y163228D02*
D03*
X90772Y158772D02*
D03*
X88000Y170500D02*
D03*
Y151500D02*
D03*
X86272Y182228D02*
D03*
Y203772D02*
D03*
X101000Y184000D02*
D03*
X154000Y182000D02*
D03*
X157000Y190000D02*
D03*
X154278Y187500D02*
D03*
X130000Y195500D02*
D03*
X127000Y196500D02*
D03*
X124000Y197500D02*
D03*
X426772Y209000D02*
D03*
X97500Y137500D02*
D03*
X180500Y134272D02*
D03*
X255500Y137500D02*
D03*
X330500Y134272D02*
D03*
X313500Y150000D02*
D03*
X203500Y280500D02*
D03*
Y277000D02*
D03*
Y273000D02*
D03*
Y269500D02*
D03*
Y265500D02*
D03*
X209500Y279000D02*
D03*
Y275000D02*
D03*
Y271000D02*
D03*
X33500Y211500D02*
D03*
D73*
X449898Y167685D02*
D03*
X412102D02*
D03*
X27102D02*
D03*
X64898D02*
D03*
D100*
X133000Y172000D02*
D03*
D101*
X140087Y162160D02*
D03*
X138512D02*
D03*
X136937D02*
D03*
X135362D02*
D03*
X133787D02*
D03*
X132213D02*
D03*
X130638D02*
D03*
X129063D02*
D03*
X127488D02*
D03*
X125913D02*
D03*
Y181840D02*
D03*
X127488D02*
D03*
X129063D02*
D03*
X130638D02*
D03*
X132213D02*
D03*
X133787D02*
D03*
X135362D02*
D03*
X136937D02*
D03*
X138512D02*
D03*
X140087D02*
D03*
D102*
X142840Y164913D02*
D03*
Y166488D02*
D03*
Y168063D02*
D03*
Y169638D02*
D03*
Y171213D02*
D03*
Y172787D02*
D03*
Y174362D02*
D03*
Y175937D02*
D03*
Y177512D02*
D03*
Y179087D02*
D03*
X123160D02*
D03*
Y177512D02*
D03*
Y175937D02*
D03*
Y174362D02*
D03*
Y172787D02*
D03*
Y171213D02*
D03*
Y169638D02*
D03*
Y168063D02*
D03*
Y166488D02*
D03*
Y164913D02*
D03*
D103*
X104685Y190315D02*
D03*
X115315Y179685D02*
D03*
D104*
X457000Y211000D02*
D03*
Y217000D02*
D03*
X35500Y201500D02*
D03*
Y207500D02*
D03*
M02*
