G04*
G04 #@! TF.GenerationSoftware,Altium Limited,Altium Designer,20.0.2 (26)*
G04*
G04 Layer_Color=2752767*
%FSLAX25Y25*%
%MOIN*%
G70*
G01*
G75*
%ADD20C,0.00200*%
%ADD105C,0.00267*%
%ADD106C,0.00133*%
G36*
X140480Y180268D02*
X139693D01*
Y181843D01*
X140480D01*
Y180268D01*
D02*
G37*
G36*
X138906D02*
X138118D01*
Y181843D01*
X138906D01*
Y180268D01*
D02*
G37*
G36*
X137331D02*
X136543D01*
Y181843D01*
X137331D01*
Y180268D01*
D02*
G37*
G36*
X135756D02*
X134968D01*
Y181843D01*
X135756D01*
Y180268D01*
D02*
G37*
G36*
X134181D02*
X133394D01*
Y181843D01*
X134181D01*
Y180268D01*
D02*
G37*
G36*
X132606D02*
X131819D01*
Y181843D01*
X132606D01*
Y180268D01*
D02*
G37*
G36*
X131032D02*
X130244D01*
Y181843D01*
X131032D01*
Y180268D01*
D02*
G37*
G36*
X129457D02*
X128669D01*
Y181843D01*
X129457D01*
Y180268D01*
D02*
G37*
G36*
X127882D02*
X127094D01*
Y181843D01*
X127882D01*
Y180268D01*
D02*
G37*
G36*
X126307D02*
X125520D01*
Y181843D01*
X126307D01*
Y180268D01*
D02*
G37*
G36*
X142842Y178693D02*
X141268D01*
Y179480D01*
X142842D01*
Y178693D01*
D02*
G37*
G36*
X124732D02*
X123158D01*
Y179480D01*
X124732D01*
Y178693D01*
D02*
G37*
G36*
X142842Y177118D02*
X141268D01*
Y177905D01*
X142842D01*
Y177118D01*
D02*
G37*
G36*
X124732D02*
X123158D01*
Y177905D01*
X124732D01*
Y177118D01*
D02*
G37*
G36*
X142842Y175543D02*
X141268D01*
Y176331D01*
X142842D01*
Y175543D01*
D02*
G37*
G36*
X124732D02*
X123158D01*
Y176331D01*
X124732D01*
Y175543D01*
D02*
G37*
G36*
X142842Y173969D02*
X141268D01*
Y174756D01*
X142842D01*
Y173969D01*
D02*
G37*
G36*
X124732D02*
X123158D01*
Y174756D01*
X124732D01*
Y173969D01*
D02*
G37*
G36*
X142842Y172394D02*
X141268D01*
Y173181D01*
X142842D01*
Y172394D01*
D02*
G37*
G36*
X124732D02*
X123158D01*
Y173181D01*
X124732D01*
Y172394D01*
D02*
G37*
G36*
X142842Y170819D02*
X141268D01*
Y171606D01*
X142842D01*
Y170819D01*
D02*
G37*
G36*
X124732D02*
X123158D01*
Y171606D01*
X124732D01*
Y170819D01*
D02*
G37*
G36*
X142842Y169244D02*
X141268D01*
Y170031D01*
X142842D01*
Y169244D01*
D02*
G37*
G36*
X124732D02*
X123158D01*
Y170031D01*
X124732D01*
Y169244D01*
D02*
G37*
G36*
X142842Y167669D02*
X141268D01*
Y168457D01*
X142842D01*
Y167669D01*
D02*
G37*
G36*
X124732D02*
X123158D01*
Y168457D01*
X124732D01*
Y167669D01*
D02*
G37*
G36*
X142842Y166095D02*
X141268D01*
Y166882D01*
X142842D01*
Y166095D01*
D02*
G37*
G36*
X124732D02*
X123158D01*
Y166882D01*
X124732D01*
Y166095D01*
D02*
G37*
G36*
X140284Y164716D02*
X125716D01*
Y179283D01*
X140284D01*
Y164716D01*
D02*
G37*
G36*
X142842Y164520D02*
X141268D01*
Y165307D01*
X142842D01*
Y164520D01*
D02*
G37*
G36*
X124732D02*
X123158D01*
Y165307D01*
X124732D01*
Y164520D01*
D02*
G37*
G36*
X140480Y162157D02*
X139693D01*
Y163732D01*
X140480D01*
Y162157D01*
D02*
G37*
G36*
X138906D02*
X138118D01*
Y163732D01*
X138906D01*
Y162157D01*
D02*
G37*
G36*
X137331D02*
X136543D01*
Y163732D01*
X137331D01*
Y162157D01*
D02*
G37*
G36*
X135756D02*
X134968D01*
Y163732D01*
X135756D01*
Y162157D01*
D02*
G37*
G36*
X134181D02*
X133394D01*
Y163732D01*
X134181D01*
Y162157D01*
D02*
G37*
G36*
X132606D02*
X131819D01*
Y163732D01*
X132606D01*
Y162157D01*
D02*
G37*
G36*
X131032D02*
X130244D01*
Y163732D01*
X131032D01*
Y162157D01*
D02*
G37*
G36*
X129457D02*
X128669D01*
Y163732D01*
X129457D01*
Y162157D01*
D02*
G37*
G36*
X127882D02*
X127094D01*
Y163732D01*
X127882D01*
Y162157D01*
D02*
G37*
G36*
X126307D02*
X125520D01*
Y163732D01*
X126307D01*
Y162157D01*
D02*
G37*
G36*
X143314Y162353D02*
X143314Y161961D01*
X143176Y161823D01*
X143038Y161685D01*
X142646Y161685D01*
X142370Y161961D01*
X142369Y162353D01*
X142508Y162491D01*
X142646Y162629D01*
X143037Y162629D01*
X143314Y162353D01*
D02*
G37*
G36*
X76221Y57864D02*
X76247D01*
X76272Y57860D01*
X76334Y57849D01*
X76400Y57831D01*
X76469Y57802D01*
X76538Y57765D01*
X76596Y57714D01*
X76604Y57707D01*
X76618Y57685D01*
X76644Y57653D01*
X76655Y57627D01*
X76669Y57602D01*
X76684Y57569D01*
X76695Y57536D01*
X76709Y57500D01*
X76720Y57456D01*
X76727Y57412D01*
X76735Y57361D01*
X76742Y57310D01*
Y57252D01*
Y56000D01*
X76433D01*
Y57147D01*
Y57150D01*
Y57154D01*
Y57176D01*
Y57209D01*
X76429Y57249D01*
X76425Y57292D01*
X76422Y57336D01*
X76414Y57380D01*
X76403Y57412D01*
Y57416D01*
X76396Y57427D01*
X76389Y57441D01*
X76378Y57460D01*
X76363Y57481D01*
X76345Y57503D01*
X76323Y57525D01*
X76294Y57547D01*
X76291Y57551D01*
X76280Y57554D01*
X76265Y57562D01*
X76240Y57573D01*
X76214Y57583D01*
X76181Y57591D01*
X76149Y57594D01*
X76109Y57598D01*
X76090D01*
X76076Y57594D01*
X76039Y57591D01*
X75996Y57583D01*
X75945Y57565D01*
X75890Y57543D01*
X75836Y57511D01*
X75785Y57467D01*
X75781Y57460D01*
X75766Y57441D01*
X75745Y57412D01*
X75723Y57369D01*
X75697Y57310D01*
X75679Y57241D01*
X75665Y57157D01*
X75657Y57059D01*
Y56000D01*
X75348D01*
Y57183D01*
Y57187D01*
Y57194D01*
Y57201D01*
Y57216D01*
X75344Y57256D01*
X75337Y57300D01*
X75330Y57350D01*
X75315Y57401D01*
X75297Y57449D01*
X75271Y57492D01*
X75268Y57496D01*
X75257Y57511D01*
X75239Y57525D01*
X75213Y57547D01*
X75180Y57565D01*
X75137Y57583D01*
X75086Y57594D01*
X75024Y57598D01*
X75002D01*
X74976Y57594D01*
X74947Y57591D01*
X74911Y57580D01*
X74867Y57569D01*
X74827Y57551D01*
X74784Y57529D01*
X74780Y57525D01*
X74765Y57514D01*
X74747Y57500D01*
X74722Y57478D01*
X74696Y57449D01*
X74671Y57412D01*
X74645Y57372D01*
X74623Y57325D01*
X74620Y57318D01*
X74616Y57300D01*
X74609Y57270D01*
X74598Y57230D01*
X74587Y57176D01*
X74580Y57110D01*
X74576Y57034D01*
X74572Y56946D01*
Y56000D01*
X74263D01*
Y57827D01*
X74540D01*
Y57565D01*
X74543Y57573D01*
X74554Y57587D01*
X74576Y57613D01*
X74602Y57642D01*
X74634Y57678D01*
X74674Y57714D01*
X74718Y57751D01*
X74769Y57784D01*
X74776Y57787D01*
X74795Y57798D01*
X74824Y57809D01*
X74864Y57827D01*
X74911Y57842D01*
X74966Y57853D01*
X75028Y57864D01*
X75093Y57867D01*
X75126D01*
X75166Y57864D01*
X75209Y57856D01*
X75264Y57845D01*
X75319Y57831D01*
X75373Y57809D01*
X75424Y57780D01*
X75432Y57776D01*
X75446Y57765D01*
X75468Y57747D01*
X75497Y57718D01*
X75526Y57685D01*
X75559Y57645D01*
X75588Y57598D01*
X75610Y57543D01*
X75613Y57547D01*
X75621Y57558D01*
X75632Y57573D01*
X75650Y57594D01*
X75672Y57620D01*
X75697Y57645D01*
X75726Y57674D01*
X75763Y57707D01*
X75803Y57736D01*
X75843Y57765D01*
X75890Y57791D01*
X75941Y57816D01*
X75996Y57838D01*
X76054Y57853D01*
X76112Y57864D01*
X76178Y57867D01*
X76203D01*
X76221Y57864D01*
D02*
G37*
G36*
X73288D02*
X73313D01*
X73339Y57860D01*
X73400Y57849D01*
X73466Y57831D01*
X73535Y57802D01*
X73604Y57765D01*
X73663Y57714D01*
X73670Y57707D01*
X73684Y57685D01*
X73710Y57653D01*
X73721Y57627D01*
X73735Y57602D01*
X73750Y57569D01*
X73761Y57536D01*
X73775Y57500D01*
X73786Y57456D01*
X73794Y57412D01*
X73801Y57361D01*
X73808Y57310D01*
Y57252D01*
Y56000D01*
X73499D01*
Y57147D01*
Y57150D01*
Y57154D01*
Y57176D01*
Y57209D01*
X73495Y57249D01*
X73491Y57292D01*
X73488Y57336D01*
X73480Y57380D01*
X73470Y57412D01*
Y57416D01*
X73462Y57427D01*
X73455Y57441D01*
X73444Y57460D01*
X73430Y57481D01*
X73411Y57503D01*
X73390Y57525D01*
X73360Y57547D01*
X73357Y57551D01*
X73346Y57554D01*
X73331Y57562D01*
X73306Y57573D01*
X73280Y57583D01*
X73247Y57591D01*
X73215Y57594D01*
X73175Y57598D01*
X73156D01*
X73142Y57594D01*
X73106Y57591D01*
X73062Y57583D01*
X73011Y57565D01*
X72956Y57543D01*
X72902Y57511D01*
X72851Y57467D01*
X72847Y57460D01*
X72833Y57441D01*
X72811Y57412D01*
X72789Y57369D01*
X72763Y57310D01*
X72745Y57241D01*
X72731Y57157D01*
X72723Y57059D01*
Y56000D01*
X72414D01*
Y57183D01*
Y57187D01*
Y57194D01*
Y57201D01*
Y57216D01*
X72410Y57256D01*
X72403Y57300D01*
X72396Y57350D01*
X72381Y57401D01*
X72363Y57449D01*
X72338Y57492D01*
X72334Y57496D01*
X72323Y57511D01*
X72305Y57525D01*
X72279Y57547D01*
X72246Y57565D01*
X72203Y57583D01*
X72152Y57594D01*
X72090Y57598D01*
X72068D01*
X72043Y57594D01*
X72014Y57591D01*
X71977Y57580D01*
X71934Y57569D01*
X71893Y57551D01*
X71850Y57529D01*
X71846Y57525D01*
X71832Y57514D01*
X71813Y57500D01*
X71788Y57478D01*
X71762Y57449D01*
X71737Y57412D01*
X71711Y57372D01*
X71690Y57325D01*
X71686Y57318D01*
X71682Y57300D01*
X71675Y57270D01*
X71664Y57230D01*
X71653Y57176D01*
X71646Y57110D01*
X71642Y57034D01*
X71639Y56946D01*
Y56000D01*
X71329D01*
Y57827D01*
X71606D01*
Y57565D01*
X71609Y57573D01*
X71620Y57587D01*
X71642Y57613D01*
X71668Y57642D01*
X71701Y57678D01*
X71741Y57714D01*
X71784Y57751D01*
X71835Y57784D01*
X71842Y57787D01*
X71861Y57798D01*
X71890Y57809D01*
X71930Y57827D01*
X71977Y57842D01*
X72032Y57853D01*
X72094Y57864D01*
X72159Y57867D01*
X72192D01*
X72232Y57864D01*
X72276Y57856D01*
X72330Y57845D01*
X72385Y57831D01*
X72439Y57809D01*
X72490Y57780D01*
X72498Y57776D01*
X72512Y57765D01*
X72534Y57747D01*
X72563Y57718D01*
X72592Y57685D01*
X72625Y57645D01*
X72654Y57598D01*
X72676Y57543D01*
X72680Y57547D01*
X72687Y57558D01*
X72698Y57573D01*
X72716Y57594D01*
X72738Y57620D01*
X72763Y57645D01*
X72793Y57674D01*
X72829Y57707D01*
X72869Y57736D01*
X72909Y57765D01*
X72956Y57791D01*
X73007Y57816D01*
X73062Y57838D01*
X73120Y57853D01*
X73178Y57864D01*
X73244Y57867D01*
X73269D01*
X73288Y57864D01*
D02*
G37*
G36*
X70838Y58191D02*
X69830D01*
X69695Y57511D01*
X69699Y57514D01*
X69706Y57518D01*
X69717Y57525D01*
X69735Y57536D01*
X69757Y57547D01*
X69782Y57562D01*
X69841Y57591D01*
X69913Y57620D01*
X69993Y57645D01*
X70081Y57664D01*
X70124Y57671D01*
X70205D01*
X70226Y57667D01*
X70255Y57664D01*
X70288Y57660D01*
X70325Y57653D01*
X70365Y57642D01*
X70452Y57616D01*
X70499Y57598D01*
X70547Y57573D01*
X70594Y57547D01*
X70641Y57518D01*
X70685Y57481D01*
X70729Y57441D01*
X70732Y57438D01*
X70740Y57430D01*
X70750Y57420D01*
X70765Y57401D01*
X70783Y57376D01*
X70801Y57350D01*
X70823Y57318D01*
X70845Y57281D01*
X70863Y57241D01*
X70885Y57198D01*
X70903Y57147D01*
X70922Y57096D01*
X70936Y57041D01*
X70947Y56979D01*
X70954Y56917D01*
X70958Y56852D01*
Y56848D01*
Y56837D01*
Y56819D01*
X70954Y56793D01*
X70951Y56764D01*
X70947Y56732D01*
X70940Y56692D01*
X70933Y56652D01*
X70911Y56557D01*
X70874Y56459D01*
X70852Y56408D01*
X70823Y56360D01*
X70794Y56309D01*
X70758Y56262D01*
X70754Y56258D01*
X70747Y56248D01*
X70732Y56233D01*
X70714Y56215D01*
X70689Y56193D01*
X70660Y56164D01*
X70623Y56138D01*
X70583Y56109D01*
X70539Y56080D01*
X70488Y56055D01*
X70434Y56029D01*
X70376Y56004D01*
X70314Y55985D01*
X70244Y55971D01*
X70172Y55960D01*
X70095Y55956D01*
X70063D01*
X70037Y55960D01*
X70008Y55964D01*
X69975Y55967D01*
X69935Y55971D01*
X69895Y55982D01*
X69804Y56004D01*
X69713Y56036D01*
X69666Y56058D01*
X69618Y56084D01*
X69575Y56113D01*
X69531Y56146D01*
X69527Y56149D01*
X69520Y56153D01*
X69513Y56167D01*
X69498Y56182D01*
X69480Y56200D01*
X69462Y56222D01*
X69440Y56251D01*
X69422Y56284D01*
X69400Y56317D01*
X69378Y56357D01*
X69338Y56444D01*
X69305Y56546D01*
X69295Y56601D01*
X69287Y56659D01*
X69611Y56684D01*
Y56681D01*
Y56673D01*
X69615Y56662D01*
X69618Y56644D01*
X69629Y56604D01*
X69644Y56550D01*
X69666Y56495D01*
X69695Y56433D01*
X69731Y56379D01*
X69775Y56328D01*
X69782Y56324D01*
X69797Y56309D01*
X69826Y56291D01*
X69866Y56269D01*
X69910Y56248D01*
X69964Y56229D01*
X70026Y56215D01*
X70095Y56211D01*
X70117D01*
X70132Y56215D01*
X70175Y56218D01*
X70226Y56233D01*
X70288Y56251D01*
X70350Y56280D01*
X70416Y56324D01*
X70445Y56349D01*
X70474Y56379D01*
X70477Y56382D01*
X70481Y56386D01*
X70488Y56397D01*
X70499Y56408D01*
X70525Y56448D01*
X70554Y56499D01*
X70579Y56561D01*
X70605Y56637D01*
X70623Y56728D01*
X70630Y56775D01*
Y56826D01*
Y56830D01*
Y56837D01*
Y56852D01*
X70627Y56870D01*
Y56892D01*
X70623Y56917D01*
X70612Y56976D01*
X70594Y57045D01*
X70569Y57114D01*
X70532Y57179D01*
X70481Y57241D01*
Y57245D01*
X70474Y57249D01*
X70456Y57267D01*
X70423Y57292D01*
X70379Y57321D01*
X70321Y57347D01*
X70255Y57372D01*
X70179Y57390D01*
X70135Y57398D01*
X70066D01*
X70037Y57394D01*
X70001Y57390D01*
X69957Y57380D01*
X69913Y57369D01*
X69866Y57350D01*
X69819Y57329D01*
X69815Y57325D01*
X69800Y57318D01*
X69779Y57300D01*
X69749Y57281D01*
X69720Y57256D01*
X69691Y57223D01*
X69658Y57190D01*
X69633Y57150D01*
X69342Y57190D01*
X69586Y58486D01*
X70838D01*
Y58191D01*
D02*
G37*
G36*
X115218Y55864D02*
X115243D01*
X115269Y55860D01*
X115331Y55849D01*
X115396Y55831D01*
X115465Y55802D01*
X115534Y55765D01*
X115593Y55714D01*
X115600Y55707D01*
X115614Y55685D01*
X115640Y55653D01*
X115651Y55627D01*
X115665Y55602D01*
X115680Y55569D01*
X115691Y55536D01*
X115706Y55500D01*
X115716Y55456D01*
X115724Y55412D01*
X115731Y55361D01*
X115738Y55310D01*
Y55252D01*
Y54000D01*
X115429D01*
Y55147D01*
Y55150D01*
Y55154D01*
Y55176D01*
Y55208D01*
X115425Y55248D01*
X115422Y55292D01*
X115418Y55336D01*
X115411Y55380D01*
X115400Y55412D01*
Y55416D01*
X115392Y55427D01*
X115385Y55441D01*
X115374Y55460D01*
X115360Y55481D01*
X115341Y55503D01*
X115320Y55525D01*
X115291Y55547D01*
X115287Y55551D01*
X115276Y55554D01*
X115261Y55562D01*
X115236Y55572D01*
X115210Y55583D01*
X115178Y55591D01*
X115145Y55594D01*
X115105Y55598D01*
X115087D01*
X115072Y55594D01*
X115036Y55591D01*
X114992Y55583D01*
X114941Y55565D01*
X114886Y55543D01*
X114832Y55511D01*
X114781Y55467D01*
X114777Y55460D01*
X114763Y55441D01*
X114741Y55412D01*
X114719Y55369D01*
X114694Y55310D01*
X114675Y55241D01*
X114661Y55158D01*
X114654Y55059D01*
Y54000D01*
X114344D01*
Y55183D01*
Y55187D01*
Y55194D01*
Y55201D01*
Y55216D01*
X114340Y55256D01*
X114333Y55300D01*
X114326Y55350D01*
X114311Y55401D01*
X114293Y55449D01*
X114268Y55492D01*
X114264Y55496D01*
X114253Y55511D01*
X114235Y55525D01*
X114209Y55547D01*
X114177Y55565D01*
X114133Y55583D01*
X114082Y55594D01*
X114020Y55598D01*
X113998D01*
X113973Y55594D01*
X113944Y55591D01*
X113907Y55580D01*
X113864Y55569D01*
X113824Y55551D01*
X113780Y55529D01*
X113776Y55525D01*
X113762Y55514D01*
X113744Y55500D01*
X113718Y55478D01*
X113693Y55449D01*
X113667Y55412D01*
X113642Y55372D01*
X113620Y55325D01*
X113616Y55318D01*
X113612Y55300D01*
X113605Y55270D01*
X113594Y55230D01*
X113583Y55176D01*
X113576Y55110D01*
X113573Y55034D01*
X113569Y54946D01*
Y54000D01*
X113259D01*
Y55827D01*
X113536D01*
Y55565D01*
X113540Y55572D01*
X113551Y55587D01*
X113573Y55612D01*
X113598Y55642D01*
X113631Y55678D01*
X113671Y55714D01*
X113714Y55751D01*
X113765Y55784D01*
X113773Y55787D01*
X113791Y55798D01*
X113820Y55809D01*
X113860Y55827D01*
X113907Y55842D01*
X113962Y55853D01*
X114024Y55864D01*
X114089Y55867D01*
X114122D01*
X114162Y55864D01*
X114206Y55856D01*
X114260Y55845D01*
X114315Y55831D01*
X114370Y55809D01*
X114421Y55780D01*
X114428Y55776D01*
X114442Y55765D01*
X114464Y55747D01*
X114493Y55718D01*
X114523Y55685D01*
X114555Y55645D01*
X114584Y55598D01*
X114606Y55543D01*
X114610Y55547D01*
X114617Y55558D01*
X114628Y55572D01*
X114646Y55594D01*
X114668Y55620D01*
X114694Y55645D01*
X114723Y55674D01*
X114759Y55707D01*
X114799Y55736D01*
X114839Y55765D01*
X114886Y55791D01*
X114937Y55816D01*
X114992Y55838D01*
X115050Y55853D01*
X115109Y55864D01*
X115174Y55867D01*
X115200D01*
X115218Y55864D01*
D02*
G37*
G36*
X112284D02*
X112309D01*
X112335Y55860D01*
X112397Y55849D01*
X112462Y55831D01*
X112531Y55802D01*
X112601Y55765D01*
X112659Y55714D01*
X112666Y55707D01*
X112681Y55685D01*
X112706Y55653D01*
X112717Y55627D01*
X112732Y55602D01*
X112746Y55569D01*
X112757Y55536D01*
X112772Y55500D01*
X112783Y55456D01*
X112790Y55412D01*
X112797Y55361D01*
X112804Y55310D01*
Y55252D01*
Y54000D01*
X112495D01*
Y55147D01*
Y55150D01*
Y55154D01*
Y55176D01*
Y55208D01*
X112491Y55248D01*
X112488Y55292D01*
X112484Y55336D01*
X112477Y55380D01*
X112466Y55412D01*
Y55416D01*
X112459Y55427D01*
X112451Y55441D01*
X112440Y55460D01*
X112426Y55481D01*
X112408Y55503D01*
X112386Y55525D01*
X112357Y55547D01*
X112353Y55551D01*
X112342Y55554D01*
X112328Y55562D01*
X112302Y55572D01*
X112277Y55583D01*
X112244Y55591D01*
X112211Y55594D01*
X112171Y55598D01*
X112153D01*
X112138Y55594D01*
X112102Y55591D01*
X112058Y55583D01*
X112007Y55565D01*
X111953Y55543D01*
X111898Y55511D01*
X111847Y55467D01*
X111844Y55460D01*
X111829Y55441D01*
X111807Y55412D01*
X111785Y55369D01*
X111760Y55310D01*
X111742Y55241D01*
X111727Y55158D01*
X111720Y55059D01*
Y54000D01*
X111410D01*
Y55183D01*
Y55187D01*
Y55194D01*
Y55201D01*
Y55216D01*
X111407Y55256D01*
X111399Y55300D01*
X111392Y55350D01*
X111378Y55401D01*
X111359Y55449D01*
X111334Y55492D01*
X111330Y55496D01*
X111319Y55511D01*
X111301Y55525D01*
X111276Y55547D01*
X111243Y55565D01*
X111199Y55583D01*
X111148Y55594D01*
X111086Y55598D01*
X111065D01*
X111039Y55594D01*
X111010Y55591D01*
X110974Y55580D01*
X110930Y55569D01*
X110890Y55551D01*
X110846Y55529D01*
X110843Y55525D01*
X110828Y55514D01*
X110810Y55500D01*
X110784Y55478D01*
X110759Y55449D01*
X110733Y55412D01*
X110708Y55372D01*
X110686Y55325D01*
X110682Y55318D01*
X110679Y55300D01*
X110671Y55270D01*
X110661Y55230D01*
X110650Y55176D01*
X110642Y55110D01*
X110639Y55034D01*
X110635Y54946D01*
Y54000D01*
X110326D01*
Y55827D01*
X110602D01*
Y55565D01*
X110606Y55572D01*
X110617Y55587D01*
X110639Y55612D01*
X110664Y55642D01*
X110697Y55678D01*
X110737Y55714D01*
X110781Y55751D01*
X110832Y55784D01*
X110839Y55787D01*
X110857Y55798D01*
X110886Y55809D01*
X110926Y55827D01*
X110974Y55842D01*
X111028Y55853D01*
X111090Y55864D01*
X111155Y55867D01*
X111188D01*
X111228Y55864D01*
X111272Y55856D01*
X111327Y55845D01*
X111381Y55831D01*
X111436Y55809D01*
X111487Y55780D01*
X111494Y55776D01*
X111509Y55765D01*
X111530Y55747D01*
X111560Y55718D01*
X111589Y55685D01*
X111621Y55645D01*
X111651Y55598D01*
X111672Y55543D01*
X111676Y55547D01*
X111683Y55558D01*
X111694Y55572D01*
X111712Y55594D01*
X111734Y55620D01*
X111760Y55645D01*
X111789Y55674D01*
X111825Y55707D01*
X111865Y55736D01*
X111905Y55765D01*
X111953Y55791D01*
X112004Y55816D01*
X112058Y55838D01*
X112117Y55853D01*
X112175Y55864D01*
X112240Y55867D01*
X112266D01*
X112284Y55864D01*
D02*
G37*
G36*
X109150Y56526D02*
X109197Y56519D01*
X109255Y56508D01*
X109321Y56490D01*
X109387Y56468D01*
X109452Y56439D01*
X109456D01*
X109459Y56435D01*
X109481Y56424D01*
X109514Y56402D01*
X109550Y56377D01*
X109594Y56340D01*
X109638Y56300D01*
X109681Y56253D01*
X109718Y56199D01*
X109721Y56191D01*
X109732Y56173D01*
X109747Y56140D01*
X109765Y56100D01*
X109783Y56053D01*
X109798Y55998D01*
X109809Y55936D01*
X109812Y55875D01*
Y55867D01*
Y55845D01*
X109809Y55816D01*
X109801Y55776D01*
X109791Y55729D01*
X109772Y55678D01*
X109750Y55627D01*
X109721Y55576D01*
X109718Y55569D01*
X109707Y55554D01*
X109685Y55529D01*
X109656Y55500D01*
X109619Y55467D01*
X109576Y55431D01*
X109525Y55398D01*
X109463Y55365D01*
X109467D01*
X109474Y55361D01*
X109485Y55358D01*
X109499Y55354D01*
X109539Y55339D01*
X109590Y55318D01*
X109649Y55289D01*
X109707Y55252D01*
X109761Y55205D01*
X109812Y55150D01*
X109816Y55143D01*
X109831Y55121D01*
X109852Y55085D01*
X109874Y55037D01*
X109896Y54979D01*
X109918Y54910D01*
X109932Y54830D01*
X109936Y54743D01*
Y54739D01*
Y54728D01*
Y54710D01*
X109932Y54688D01*
X109929Y54659D01*
X109922Y54626D01*
X109914Y54590D01*
X109907Y54550D01*
X109878Y54462D01*
X109856Y54415D01*
X109834Y54371D01*
X109805Y54324D01*
X109772Y54277D01*
X109736Y54229D01*
X109692Y54186D01*
X109689Y54182D01*
X109681Y54175D01*
X109667Y54164D01*
X109649Y54149D01*
X109627Y54131D01*
X109598Y54113D01*
X109565Y54091D01*
X109525Y54073D01*
X109485Y54051D01*
X109437Y54029D01*
X109390Y54011D01*
X109335Y53993D01*
X109277Y53978D01*
X109215Y53967D01*
X109153Y53960D01*
X109084Y53956D01*
X109052D01*
X109030Y53960D01*
X109001Y53964D01*
X108968Y53967D01*
X108932Y53974D01*
X108891Y53982D01*
X108804Y54004D01*
X108713Y54040D01*
X108666Y54062D01*
X108622Y54087D01*
X108578Y54120D01*
X108535Y54153D01*
X108531Y54157D01*
X108524Y54164D01*
X108513Y54175D01*
X108502Y54189D01*
X108484Y54207D01*
X108466Y54233D01*
X108444Y54258D01*
X108422Y54291D01*
X108400Y54328D01*
X108378Y54364D01*
X108338Y54451D01*
X108305Y54553D01*
X108294Y54608D01*
X108287Y54666D01*
X108597Y54706D01*
Y54703D01*
X108600Y54695D01*
X108604Y54681D01*
X108607Y54663D01*
X108611Y54641D01*
X108618Y54615D01*
X108637Y54561D01*
X108662Y54495D01*
X108695Y54433D01*
X108731Y54375D01*
X108775Y54324D01*
X108782Y54320D01*
X108797Y54306D01*
X108826Y54288D01*
X108862Y54269D01*
X108906Y54247D01*
X108961Y54229D01*
X109022Y54215D01*
X109088Y54211D01*
X109110D01*
X109124Y54215D01*
X109164Y54218D01*
X109215Y54229D01*
X109274Y54247D01*
X109335Y54273D01*
X109397Y54309D01*
X109456Y54360D01*
X109463Y54368D01*
X109481Y54390D01*
X109503Y54422D01*
X109532Y54466D01*
X109561Y54520D01*
X109583Y54582D01*
X109601Y54655D01*
X109608Y54735D01*
Y54739D01*
Y54746D01*
Y54757D01*
X109605Y54772D01*
X109601Y54812D01*
X109590Y54859D01*
X109576Y54917D01*
X109550Y54975D01*
X109514Y55034D01*
X109467Y55088D01*
X109459Y55096D01*
X109441Y55110D01*
X109412Y55132D01*
X109372Y55158D01*
X109321Y55183D01*
X109259Y55205D01*
X109190Y55219D01*
X109114Y55227D01*
X109081D01*
X109055Y55223D01*
X109022Y55219D01*
X108986Y55212D01*
X108942Y55205D01*
X108895Y55194D01*
X108932Y55467D01*
X108950D01*
X108964Y55463D01*
X109012D01*
X109052Y55471D01*
X109099Y55478D01*
X109153Y55489D01*
X109215Y55507D01*
X109274Y55532D01*
X109335Y55565D01*
X109339D01*
X109343Y55569D01*
X109361Y55583D01*
X109387Y55609D01*
X109416Y55642D01*
X109445Y55689D01*
X109470Y55744D01*
X109488Y55805D01*
X109496Y55842D01*
Y55882D01*
Y55885D01*
Y55889D01*
Y55911D01*
X109488Y55940D01*
X109481Y55980D01*
X109467Y56024D01*
X109448Y56071D01*
X109419Y56119D01*
X109379Y56162D01*
X109376Y56166D01*
X109357Y56180D01*
X109332Y56199D01*
X109299Y56220D01*
X109255Y56239D01*
X109204Y56257D01*
X109146Y56271D01*
X109081Y56275D01*
X109052D01*
X109019Y56268D01*
X108975Y56260D01*
X108928Y56246D01*
X108880Y56228D01*
X108830Y56199D01*
X108782Y56162D01*
X108779Y56159D01*
X108764Y56140D01*
X108742Y56115D01*
X108717Y56078D01*
X108691Y56031D01*
X108666Y55973D01*
X108644Y55904D01*
X108629Y55824D01*
X108320Y55878D01*
Y55882D01*
X108324Y55893D01*
X108327Y55907D01*
X108331Y55929D01*
X108338Y55955D01*
X108349Y55984D01*
X108371Y56053D01*
X108407Y56133D01*
X108451Y56213D01*
X108506Y56290D01*
X108575Y56359D01*
X108578Y56362D01*
X108586Y56366D01*
X108597Y56373D01*
X108611Y56384D01*
X108629Y56399D01*
X108655Y56413D01*
X108680Y56428D01*
X108713Y56446D01*
X108786Y56475D01*
X108870Y56504D01*
X108968Y56523D01*
X109019Y56530D01*
X109110D01*
X109150Y56526D01*
D02*
G37*
D20*
X142842Y162157D02*
Y181843D01*
X123158D02*
X142842D01*
X123158Y162157D02*
Y181843D01*
Y162157D02*
X142842D01*
X298700Y268700D02*
Y270300D01*
X300300D01*
Y268700D01*
X298700D01*
X288700D02*
Y270300D01*
X290300D01*
Y268700D01*
X288700D01*
X453700Y239700D02*
Y241300D01*
X455300D01*
Y239700D01*
X453700D01*
Y259700D02*
Y261300D01*
X455300D01*
Y259700D01*
X453700D01*
Y249700D02*
Y251300D01*
X455300D01*
Y249700D01*
X453700D01*
X74051Y135933D02*
X73251Y137532D01*
X74851D01*
X74051Y135933D01*
Y154437D02*
X73251Y156037D01*
X74851D01*
X74051Y154437D01*
Y174122D02*
X73251Y175722D01*
X74851D01*
X74051Y174122D01*
X64917Y192231D02*
X64117Y193831D01*
X65718D01*
X64917Y192231D01*
X46020Y192231D02*
X45219Y193831D01*
X46819D01*
X46020Y192231D01*
X27121Y192231D02*
X26322Y193831D01*
X27922D01*
X27121Y192231D01*
X17949Y174121D02*
X17149Y175721D01*
X18749D01*
X17949Y174121D01*
X17949Y164279D02*
X18349Y164679D01*
X18749D01*
X18349Y165079D01*
X18749Y165479D01*
X18349D01*
X17949Y165879D01*
X17549Y165479D01*
X17149D01*
X17549Y165079D01*
X17149Y164679D01*
X17549D01*
X17949Y164279D01*
X17949Y154436D02*
X17149Y156036D01*
X18749D01*
X17949Y154436D01*
X17949Y135932D02*
X17149Y137532D01*
X18749D01*
X17949Y135932D01*
X402949D02*
X402149Y137532D01*
X403749D01*
X402949Y135932D01*
X402949Y154436D02*
X402149Y156036D01*
X403749D01*
X402949Y154436D01*
X402949Y164279D02*
X403349Y164679D01*
X403749D01*
X403349Y165079D01*
X403749Y165479D01*
X403349D01*
X402949Y165879D01*
X402549Y165479D01*
X402149D01*
X402549Y165079D01*
X402149Y164679D01*
X402549D01*
X402949Y164279D01*
X402949Y174121D02*
X402149Y175721D01*
X403749D01*
X402949Y174121D01*
X412121Y192231D02*
X411321Y193831D01*
X412921D01*
X412121Y192231D01*
X431019Y192231D02*
X430220Y193831D01*
X431819D01*
X431019Y192231D01*
X449918Y192231D02*
X449118Y193831D01*
X450717D01*
X449918Y192231D01*
X459051Y174122D02*
X458251Y175722D01*
X459851D01*
X459051Y174122D01*
Y154437D02*
X458251Y156037D01*
X459851D01*
X459051Y154437D01*
Y135933D02*
X458251Y137532D01*
X459851D01*
X459051Y135933D01*
X55563Y259933D02*
X55963Y260733D01*
X55563Y261533D01*
X56363Y261133D01*
X57163Y261533D01*
X56763Y260733D01*
X57163Y259933D01*
X56363Y260333D01*
X55563Y259933D01*
X37836Y271946D02*
X38236Y272746D01*
X37836Y273546D01*
X38636Y273146D01*
X39436Y273546D01*
X39036Y272746D01*
X39436Y271946D01*
X38636Y272346D01*
X37836Y271946D01*
X55432Y283641D02*
X55832Y284441D01*
X55432Y285241D01*
X56232Y284841D01*
X57032Y285241D01*
X56632Y284441D01*
X57032Y283641D01*
X56232Y284041D01*
X55432Y283641D01*
X221355Y22142D02*
Y21742D01*
X222155D01*
Y22142D01*
X222555D01*
Y22942D01*
X222155D01*
Y23342D01*
X221355D01*
Y22942D01*
X220955D01*
Y22142D01*
X221355D01*
X170982Y21799D02*
Y21399D01*
X171782D01*
Y21799D01*
X172182D01*
Y22599D01*
X171782D01*
Y22999D01*
X170982D01*
Y22599D01*
X170582D01*
Y21799D01*
X170982D01*
X227472Y35203D02*
X227872D01*
X228272Y35603D01*
X228672Y35203D01*
X229072D01*
Y35603D01*
X228672Y36003D01*
X229072Y36403D01*
Y36803D01*
X228672D01*
X228272Y36403D01*
X227872Y36803D01*
X227472D01*
Y36403D01*
X227872Y36003D01*
X227472Y35603D01*
Y35203D01*
X163847D02*
X164247D01*
X164647Y35603D01*
X165047Y35203D01*
X165447D01*
Y35603D01*
X165047Y36003D01*
X165447Y36403D01*
Y36803D01*
X165047D01*
X164647Y36403D01*
X164247Y36803D01*
X163847D01*
Y36403D01*
X164247Y36003D01*
X163847Y35603D01*
Y35203D01*
X168674Y58551D02*
X169474Y59351D01*
X170274Y58551D01*
X169474Y57751D01*
X168674Y58551D01*
X177710Y58428D02*
X178510Y59228D01*
X179310Y58428D01*
X178510Y57628D01*
X177710Y58428D01*
X213852Y58551D02*
X214652Y59351D01*
X215452Y58551D01*
X214652Y57751D01*
X213852Y58551D01*
X222764D02*
X223564Y59351D01*
X224364Y58551D01*
X223564Y57751D01*
X222764Y58551D01*
X181642Y39429D02*
X182442Y40229D01*
X183242Y39429D01*
X182442Y38629D01*
X181642Y39429D01*
X185709Y32483D02*
X186509Y33283D01*
X187309Y32483D01*
X186509Y31683D01*
X185709Y32483D01*
X189781Y39446D02*
X190581Y40246D01*
X191381Y39446D01*
X190581Y38646D01*
X189781Y39446D01*
X193891Y32693D02*
X194691Y33493D01*
X195491Y32693D01*
X194691Y31893D01*
X193891Y32693D01*
X197788Y39511D02*
X198588Y40311D01*
X199388Y39511D01*
X198588Y38711D01*
X197788Y39511D01*
X201804Y32353D02*
X202604Y33153D01*
X203404Y32353D01*
X202604Y31553D01*
X201804Y32353D01*
X205795Y39429D02*
X206595Y40229D01*
X207395Y39429D01*
X206595Y38629D01*
X205795Y39429D01*
X209779Y32468D02*
X210579Y33268D01*
X211379Y32468D01*
X210579Y31668D01*
X209779Y32468D01*
X298355Y22142D02*
Y21742D01*
X299155D01*
Y22142D01*
X299555D01*
Y22942D01*
X299155D01*
Y23342D01*
X298355D01*
Y22942D01*
X297955D01*
Y22142D01*
X298355D01*
X247982Y21799D02*
Y21399D01*
X248782D01*
Y21799D01*
X249182D01*
Y22599D01*
X248782D01*
Y22999D01*
X247982D01*
Y22599D01*
X247582D01*
Y21799D01*
X247982D01*
X304472Y35203D02*
X304872D01*
X305272Y35603D01*
X305672Y35203D01*
X306072D01*
Y35603D01*
X305672Y36003D01*
X306072Y36403D01*
Y36803D01*
X305672D01*
X305272Y36403D01*
X304872Y36803D01*
X304472D01*
Y36403D01*
X304872Y36003D01*
X304472Y35603D01*
Y35203D01*
X240847D02*
X241247D01*
X241647Y35603D01*
X242047Y35203D01*
X242447D01*
Y35603D01*
X242047Y36003D01*
X242447Y36403D01*
Y36803D01*
X242047D01*
X241647Y36403D01*
X241247Y36803D01*
X240847D01*
Y36403D01*
X241247Y36003D01*
X240847Y35603D01*
Y35203D01*
X245674Y58551D02*
X246474Y59351D01*
X247274Y58551D01*
X246474Y57751D01*
X245674Y58551D01*
X254710Y58428D02*
X255510Y59228D01*
X256310Y58428D01*
X255510Y57628D01*
X254710Y58428D01*
X290852Y58551D02*
X291652Y59351D01*
X292452Y58551D01*
X291652Y57751D01*
X290852Y58551D01*
X299764D02*
X300564Y59351D01*
X301364Y58551D01*
X300564Y57751D01*
X299764Y58551D01*
X258642Y39429D02*
X259442Y40229D01*
X260242Y39429D01*
X259442Y38629D01*
X258642Y39429D01*
X262709Y32483D02*
X263509Y33283D01*
X264309Y32483D01*
X263509Y31683D01*
X262709Y32483D01*
X266781Y39446D02*
X267581Y40246D01*
X268381Y39446D01*
X267581Y38646D01*
X266781Y39446D01*
X270891Y32693D02*
X271691Y33493D01*
X272491Y32693D01*
X271691Y31893D01*
X270891Y32693D01*
X274788Y39511D02*
X275588Y40311D01*
X276388Y39511D01*
X275588Y38711D01*
X274788Y39511D01*
X278804Y32353D02*
X279604Y33153D01*
X280404Y32353D01*
X279604Y31553D01*
X278804Y32353D01*
X282795Y39429D02*
X283595Y40229D01*
X284395Y39429D01*
X283595Y38629D01*
X282795Y39429D01*
X286779Y32468D02*
X287579Y33268D01*
X288379Y32468D01*
X287579Y31668D01*
X286779Y32468D01*
X376855Y22142D02*
Y21742D01*
X377655D01*
Y22142D01*
X378055D01*
Y22942D01*
X377655D01*
Y23342D01*
X376855D01*
Y22942D01*
X376455D01*
Y22142D01*
X376855D01*
X326482Y21799D02*
Y21399D01*
X327282D01*
Y21799D01*
X327682D01*
Y22599D01*
X327282D01*
Y22999D01*
X326482D01*
Y22599D01*
X326082D01*
Y21799D01*
X326482D01*
X382972Y35203D02*
X383372D01*
X383772Y35603D01*
X384172Y35203D01*
X384572D01*
Y35603D01*
X384172Y36003D01*
X384572Y36403D01*
Y36803D01*
X384172D01*
X383772Y36403D01*
X383372Y36803D01*
X382972D01*
Y36403D01*
X383372Y36003D01*
X382972Y35603D01*
Y35203D01*
X319347D02*
X319747D01*
X320147Y35603D01*
X320547Y35203D01*
X320947D01*
Y35603D01*
X320547Y36003D01*
X320947Y36403D01*
Y36803D01*
X320547D01*
X320147Y36403D01*
X319747Y36803D01*
X319347D01*
Y36403D01*
X319747Y36003D01*
X319347Y35603D01*
Y35203D01*
X324174Y58551D02*
X324974Y59351D01*
X325774Y58551D01*
X324974Y57751D01*
X324174Y58551D01*
X333210Y58428D02*
X334010Y59228D01*
X334810Y58428D01*
X334010Y57628D01*
X333210Y58428D01*
X369352Y58551D02*
X370152Y59351D01*
X370952Y58551D01*
X370152Y57751D01*
X369352Y58551D01*
X378264D02*
X379064Y59351D01*
X379864Y58551D01*
X379064Y57751D01*
X378264Y58551D01*
X337142Y39429D02*
X337942Y40229D01*
X338742Y39429D01*
X337942Y38629D01*
X337142Y39429D01*
X341209Y32483D02*
X342009Y33283D01*
X342809Y32483D01*
X342009Y31683D01*
X341209Y32483D01*
X345281Y39446D02*
X346081Y40246D01*
X346881Y39446D01*
X346081Y38646D01*
X345281Y39446D01*
X349391Y32693D02*
X350191Y33493D01*
X350991Y32693D01*
X350191Y31893D01*
X349391Y32693D01*
X353288Y39511D02*
X354088Y40311D01*
X354888Y39511D01*
X354088Y38711D01*
X353288Y39511D01*
X357304Y32353D02*
X358104Y33153D01*
X358904Y32353D01*
X358104Y31553D01*
X357304Y32353D01*
X361295Y39429D02*
X362095Y40229D01*
X362895Y39429D01*
X362095Y38629D01*
X361295Y39429D01*
X365279Y32468D02*
X366079Y33268D01*
X366879Y32468D01*
X366079Y31668D01*
X365279Y32468D01*
X140355Y22142D02*
Y21742D01*
X141155D01*
Y22142D01*
X141555D01*
Y22942D01*
X141155D01*
Y23342D01*
X140355D01*
Y22942D01*
X139955D01*
Y22142D01*
X140355D01*
X89982Y21799D02*
Y21399D01*
X90782D01*
Y21799D01*
X91182D01*
Y22599D01*
X90782D01*
Y22999D01*
X89982D01*
Y22599D01*
X89582D01*
Y21799D01*
X89982D01*
X146472Y35203D02*
X146872D01*
X147272Y35603D01*
X147672Y35203D01*
X148072D01*
Y35603D01*
X147672Y36003D01*
X148072Y36403D01*
Y36803D01*
X147672D01*
X147272Y36403D01*
X146872Y36803D01*
X146472D01*
Y36403D01*
X146872Y36003D01*
X146472Y35603D01*
Y35203D01*
X82847D02*
X83247D01*
X83647Y35603D01*
X84047Y35203D01*
X84447D01*
Y35603D01*
X84047Y36003D01*
X84447Y36403D01*
Y36803D01*
X84047D01*
X83647Y36403D01*
X83247Y36803D01*
X82847D01*
Y36403D01*
X83247Y36003D01*
X82847Y35603D01*
Y35203D01*
X87674Y58551D02*
X88474Y59351D01*
X89274Y58551D01*
X88474Y57751D01*
X87674Y58551D01*
X96710Y58428D02*
X97510Y59228D01*
X98310Y58428D01*
X97510Y57628D01*
X96710Y58428D01*
X132852Y58551D02*
X133652Y59351D01*
X134452Y58551D01*
X133652Y57751D01*
X132852Y58551D01*
X141764D02*
X142564Y59351D01*
X143364Y58551D01*
X142564Y57751D01*
X141764Y58551D01*
X100642Y39429D02*
X101442Y40229D01*
X102242Y39429D01*
X101442Y38629D01*
X100642Y39429D01*
X104709Y32483D02*
X105509Y33283D01*
X106309Y32483D01*
X105509Y31683D01*
X104709Y32483D01*
X108781Y39446D02*
X109581Y40246D01*
X110381Y39446D01*
X109581Y38646D01*
X108781Y39446D01*
X112891Y32693D02*
X113691Y33493D01*
X114491Y32693D01*
X113691Y31893D01*
X112891Y32693D01*
X116788Y39511D02*
X117588Y40311D01*
X118388Y39511D01*
X117588Y38711D01*
X116788Y39511D01*
X120804Y32353D02*
X121604Y33153D01*
X122404Y32353D01*
X121604Y31553D01*
X120804Y32353D01*
X124795Y39429D02*
X125595Y40229D01*
X126395Y39429D01*
X125595Y38629D01*
X124795Y39429D01*
X128779Y32468D02*
X129579Y33268D01*
X130379Y32468D01*
X129579Y31668D01*
X128779Y32468D01*
X346700Y68700D02*
Y70300D01*
X348300D01*
Y68700D01*
X346700D01*
X326700D02*
Y70300D01*
X328300D01*
Y68700D01*
X326700D01*
X267700D02*
Y70300D01*
X269300D01*
Y68700D01*
X267700D01*
X247700D02*
Y70300D01*
X249300D01*
Y68700D01*
X247700D01*
X188700D02*
Y70300D01*
X190300D01*
Y68700D01*
X188700D01*
X168700D02*
Y70300D01*
X170300D01*
Y68700D01*
X168700D01*
X109700D02*
Y70300D01*
X111300D01*
Y68700D01*
X109700D01*
X89700D02*
Y70300D01*
X91300D01*
Y68700D01*
X89700D01*
X468700Y122700D02*
Y124300D01*
X470300D01*
Y122700D01*
X468700D01*
Y112700D02*
Y114300D01*
X470300D01*
Y112700D01*
X468700D01*
Y102700D02*
Y104300D01*
X470300D01*
Y102700D01*
X468700D01*
Y92700D02*
Y94300D01*
X470300D01*
Y92700D01*
X468700D01*
Y32700D02*
Y34300D01*
X470300D01*
Y32700D01*
X468700D01*
Y42700D02*
Y44300D01*
X470300D01*
Y42700D01*
X468700D01*
Y52700D02*
Y54300D01*
X470300D01*
Y52700D01*
X468700D01*
Y62700D02*
Y64300D01*
X470300D01*
Y62700D01*
X468700D01*
Y72700D02*
Y74300D01*
X470300D01*
Y72700D01*
X468700D01*
Y82700D02*
Y84300D01*
X470300D01*
Y82700D01*
X468700D01*
X4700Y38200D02*
Y39800D01*
X6300D01*
Y38200D01*
X4700D01*
Y48200D02*
Y49800D01*
X6300D01*
Y48200D01*
X4700D01*
Y58200D02*
Y59800D01*
X6300D01*
Y58200D01*
X4700D01*
Y68200D02*
Y69800D01*
X6300D01*
Y68200D01*
X4700D01*
Y128200D02*
Y129800D01*
X6300D01*
Y128200D01*
X4700D01*
Y118200D02*
Y119800D01*
X6300D01*
Y118200D01*
X4700D01*
Y108200D02*
Y109800D01*
X6300D01*
Y108200D01*
X4700D01*
Y98200D02*
Y99800D01*
X6300D01*
Y98200D01*
X4700D01*
Y88200D02*
Y89800D01*
X6300D01*
Y88200D01*
X4700D01*
Y78200D02*
Y79800D01*
X6300D01*
Y78200D01*
X4700D01*
X100200Y147700D02*
Y149300D01*
X101800D01*
Y147700D01*
X100200D01*
X100600Y148100D02*
Y148900D01*
X101400D01*
Y148100D01*
X100600D01*
X176200Y6700D02*
Y8300D01*
X177800D01*
Y6700D01*
X176200D01*
X176600Y7100D02*
Y7900D01*
X177400D01*
Y7100D01*
X176600D01*
X24700Y240700D02*
Y242300D01*
X26300D01*
Y240700D01*
X24700D01*
X25100Y241100D02*
Y241900D01*
X25900D01*
Y241100D01*
X25100D01*
X73200Y122700D02*
Y124300D01*
X74800D01*
Y122700D01*
X73200D01*
X73600Y123100D02*
Y123900D01*
X74400D01*
Y123100D01*
X73600D01*
X58700Y210700D02*
Y212300D01*
X60300D01*
Y210700D01*
X58700D01*
X59100Y211100D02*
Y211900D01*
X59900D01*
Y211100D01*
X59100D01*
X20700Y210700D02*
Y212300D01*
X22300D01*
Y210700D01*
X20700D01*
X21100Y211100D02*
Y211900D01*
X21900D01*
Y211100D01*
X21100D01*
X62200Y231700D02*
Y233300D01*
X63800D01*
Y231700D01*
X62200D01*
X62600Y232100D02*
Y232900D01*
X63400D01*
Y232100D01*
X62600D01*
X198200Y298700D02*
Y300300D01*
X199800D01*
Y298700D01*
X198200D01*
X198600Y299100D02*
Y299900D01*
X199400D01*
Y299100D01*
X198600D01*
X96200Y232200D02*
Y233800D01*
X97800D01*
Y232200D01*
X96200D01*
X96600Y232600D02*
Y233400D01*
X97400D01*
Y232600D01*
X96600D01*
X100200Y175200D02*
Y176800D01*
X101800D01*
Y175200D01*
X100200D01*
X100600Y175600D02*
Y176400D01*
X101400D01*
Y175600D01*
X100600D01*
X201700Y250700D02*
Y252300D01*
X203300D01*
Y250700D01*
X201700D01*
X202100Y251100D02*
Y251900D01*
X202900D01*
Y251100D01*
X202100D01*
X178200Y250700D02*
Y252300D01*
X179800D01*
Y250700D01*
X178200D01*
X178600Y251100D02*
Y251900D01*
X179400D01*
Y251100D01*
X178600D01*
X416700Y245700D02*
Y247300D01*
X418300D01*
Y245700D01*
X416700D01*
X417100Y246100D02*
Y246900D01*
X417900D01*
Y246100D01*
X417100D01*
X257200Y232700D02*
Y234300D01*
X258800D01*
Y232700D01*
X257200D01*
X257600Y233100D02*
Y233900D01*
X258400D01*
Y233100D01*
X257600D01*
X202200Y230700D02*
Y232300D01*
X203800D01*
Y230700D01*
X202200D01*
X202600Y231100D02*
Y231900D01*
X203400D01*
Y231100D01*
X202600D01*
X436700Y233200D02*
Y234800D01*
X438300D01*
Y233200D01*
X436700D01*
X437100Y233600D02*
Y234400D01*
X437900D01*
Y233600D01*
X437100D01*
X168700Y228700D02*
Y230300D01*
X170300D01*
Y228700D01*
X168700D01*
X169100Y229100D02*
Y229900D01*
X169900D01*
Y229100D01*
X169100D01*
X223700Y249700D02*
Y251300D01*
X225300D01*
Y249700D01*
X223700D01*
X224100Y250100D02*
Y250900D01*
X224900D01*
Y250100D01*
X224100D01*
X275200Y261700D02*
Y263300D01*
X276800D01*
Y261700D01*
X275200D01*
X275600Y262100D02*
Y262900D01*
X276400D01*
Y262100D01*
X275600D01*
X337700Y227700D02*
Y229300D01*
X339300D01*
Y227700D01*
X337700D01*
X338100Y228100D02*
Y228900D01*
X338900D01*
Y228100D01*
X338100D01*
X252200Y217700D02*
Y219300D01*
X253800D01*
Y217700D01*
X252200D01*
X252600Y218100D02*
Y218900D01*
X253400D01*
Y218100D01*
X252600D01*
X233200Y252200D02*
Y253800D01*
X234800D01*
Y252200D01*
X233200D01*
X233600Y252600D02*
Y253400D01*
X234400D01*
Y252600D01*
X233600D01*
X226700Y218200D02*
Y219800D01*
X228300D01*
Y218200D01*
X226700D01*
X227100Y218600D02*
Y219400D01*
X227900D01*
Y218600D01*
X227100D01*
X184700Y176200D02*
Y177800D01*
X186300D01*
Y176200D01*
X184700D01*
X185100Y176600D02*
Y177400D01*
X185900D01*
Y176600D01*
X185100D01*
X206200Y174700D02*
Y176300D01*
X207800D01*
Y174700D01*
X206200D01*
X206600Y175100D02*
Y175900D01*
X207400D01*
Y175100D01*
X206600D01*
X211200Y199700D02*
Y201300D01*
X212800D01*
Y199700D01*
X211200D01*
X211600Y200100D02*
Y200900D01*
X212400D01*
Y200100D01*
X211600D01*
X209200Y208700D02*
Y210300D01*
X210800D01*
Y208700D01*
X209200D01*
X209600Y209100D02*
Y209900D01*
X210400D01*
Y209100D01*
X209600D01*
X102700Y161200D02*
Y162800D01*
X104300D01*
Y161200D01*
X102700D01*
X103100Y161600D02*
Y162400D01*
X103900D01*
Y161600D01*
X103100D01*
X207700Y186700D02*
Y188300D01*
X209300D01*
Y186700D01*
X207700D01*
X208100Y187100D02*
Y187900D01*
X208900D01*
Y187100D01*
X208100D01*
X158700Y141200D02*
Y142800D01*
X160300D01*
Y141200D01*
X158700D01*
X159100Y141600D02*
Y142400D01*
X159900D01*
Y141600D01*
X159100D01*
X358200Y133700D02*
Y135300D01*
X359800D01*
Y133700D01*
X358200D01*
X358600Y134100D02*
Y134900D01*
X359400D01*
Y134100D01*
X358600D01*
X319200Y137200D02*
Y138800D01*
X320800D01*
Y137200D01*
X319200D01*
X319600Y137600D02*
Y138400D01*
X320400D01*
Y137600D01*
X319600D01*
X116700Y143200D02*
Y144800D01*
X118300D01*
Y143200D01*
X116700D01*
X117100Y143600D02*
Y144400D01*
X117900D01*
Y143600D01*
X117100D01*
X152200Y148200D02*
Y149800D01*
X153800D01*
Y148200D01*
X152200D01*
X152600Y148600D02*
Y149400D01*
X153400D01*
Y148600D01*
X152600D01*
X140200Y135700D02*
Y137300D01*
X141800D01*
Y135700D01*
X140200D01*
X140600Y136100D02*
Y136900D01*
X141400D01*
Y136100D01*
X140600D01*
X191700Y173700D02*
Y175300D01*
X193300D01*
Y173700D01*
X191700D01*
X192100Y174100D02*
Y174900D01*
X192900D01*
Y174100D01*
X192100D01*
X169700Y161200D02*
Y162800D01*
X171300D01*
Y161200D01*
X169700D01*
X170100Y161600D02*
Y162400D01*
X170900D01*
Y161600D01*
X170100D01*
X254200Y186200D02*
Y187800D01*
X255800D01*
Y186200D01*
X254200D01*
X254600Y186600D02*
Y187400D01*
X255400D01*
Y186600D01*
X254600D01*
X347200Y158700D02*
Y160300D01*
X348800D01*
Y158700D01*
X347200D01*
X347600Y159100D02*
Y159900D01*
X348400D01*
Y159100D01*
X347600D01*
X374200Y158700D02*
Y160300D01*
X375800D01*
Y158700D01*
X374200D01*
X374600Y159100D02*
Y159900D01*
X375400D01*
Y159100D01*
X374600D01*
X178200Y160700D02*
Y162300D01*
X179800D01*
Y160700D01*
X178200D01*
X178600Y161100D02*
Y161900D01*
X179400D01*
Y161100D01*
X178600D01*
X275700Y151200D02*
Y152800D01*
X277300D01*
Y151200D01*
X275700D01*
X276100Y151600D02*
Y152400D01*
X276900D01*
Y151600D01*
X276100D01*
X257200Y144200D02*
Y145800D01*
X258800D01*
Y144200D01*
X257200D01*
X257600Y144600D02*
Y145400D01*
X258400D01*
Y144600D01*
X257600D01*
X276200Y138700D02*
Y140300D01*
X277800D01*
Y138700D01*
X276200D01*
X276600Y139100D02*
Y139900D01*
X277400D01*
Y139100D01*
X276600D01*
X258200Y156200D02*
Y157800D01*
X259800D01*
Y156200D01*
X258200D01*
X258600Y156600D02*
Y157400D01*
X259400D01*
Y156600D01*
X258600D01*
X229700Y167200D02*
Y168800D01*
X231300D01*
Y167200D01*
X229700D01*
X230100Y167600D02*
Y168400D01*
X230900D01*
Y167600D01*
X230100D01*
X242200Y179700D02*
Y181300D01*
X243800D01*
Y179700D01*
X242200D01*
X242600Y180100D02*
Y180900D01*
X243400D01*
Y180100D01*
X242600D01*
X207700Y140700D02*
Y142300D01*
X209300D01*
Y140700D01*
X207700D01*
X208100Y141100D02*
Y141900D01*
X208900D01*
Y141100D01*
X208100D01*
X191700Y138700D02*
Y140300D01*
X193300D01*
Y138700D01*
X191700D01*
X192100Y139100D02*
Y139900D01*
X192900D01*
Y139100D01*
X192100D01*
X224200Y201200D02*
Y202800D01*
X225800D01*
Y201200D01*
X224200D01*
X224600Y201600D02*
Y202400D01*
X225400D01*
Y201600D01*
X224600D01*
X199700Y150700D02*
Y152300D01*
X201300D01*
Y150700D01*
X199700D01*
X200100Y151100D02*
Y151900D01*
X200900D01*
Y151100D01*
X200100D01*
X104200Y291200D02*
Y292800D01*
X105800D01*
Y291200D01*
X104200D01*
X104600Y291600D02*
Y292400D01*
X105400D01*
Y291600D01*
X104600D01*
X97200Y291700D02*
Y293300D01*
X98800D01*
Y291700D01*
X97200D01*
X97600Y292100D02*
Y292900D01*
X98400D01*
Y292100D01*
X97600D01*
X89700Y291700D02*
Y293300D01*
X91300D01*
Y291700D01*
X89700D01*
X90100Y292100D02*
Y292900D01*
X90900D01*
Y292100D01*
X90100D01*
X81700Y291700D02*
Y293300D01*
X83300D01*
Y291700D01*
X81700D01*
X82100Y292100D02*
Y292900D01*
X82900D01*
Y292100D01*
X82100D01*
X104200Y301700D02*
Y303300D01*
X105800D01*
Y301700D01*
X104200D01*
X104600Y302100D02*
Y302900D01*
X105400D01*
Y302100D01*
X104600D01*
X96700Y301700D02*
Y303300D01*
X98300D01*
Y301700D01*
X96700D01*
X97100Y302100D02*
Y302900D01*
X97900D01*
Y302100D01*
X97100D01*
X89200Y301700D02*
Y303300D01*
X90800D01*
Y301700D01*
X89200D01*
X89600Y302100D02*
Y302900D01*
X90400D01*
Y302100D01*
X89600D01*
X81700Y301700D02*
Y303300D01*
X83300D01*
Y301700D01*
X81700D01*
X82100Y302100D02*
Y302900D01*
X82900D01*
Y302100D01*
X82100D01*
X127700Y286700D02*
Y288300D01*
X129300D01*
Y286700D01*
X127700D01*
X128100Y287100D02*
Y287900D01*
X128900D01*
Y287100D01*
X128100D01*
X120700Y286700D02*
Y288300D01*
X122300D01*
Y286700D01*
X120700D01*
X121100Y287100D02*
Y287900D01*
X121900D01*
Y287100D01*
X121100D01*
X127700Y296700D02*
Y298300D01*
X129300D01*
Y296700D01*
X127700D01*
X128100Y297100D02*
Y297900D01*
X128900D01*
Y297100D01*
X128100D01*
X120700Y296700D02*
Y298300D01*
X122300D01*
Y296700D01*
X120700D01*
X121100Y297100D02*
Y297900D01*
X121900D01*
Y297100D01*
X121100D01*
X208700Y266700D02*
Y268300D01*
X210300D01*
Y266700D01*
X208700D01*
X209100Y267100D02*
Y267900D01*
X209900D01*
Y267100D01*
X209100D01*
X363200Y182700D02*
Y184300D01*
X364800D01*
Y182700D01*
X363200D01*
X363600Y183100D02*
Y183900D01*
X364400D01*
Y183100D01*
X363600D01*
X355633Y180267D02*
Y181867D01*
X357233D01*
Y180267D01*
X355633D01*
X356033Y180667D02*
Y181467D01*
X356833D01*
Y180667D01*
X356033D01*
X353216Y184700D02*
Y186300D01*
X354816D01*
Y184700D01*
X353216D01*
X353616Y185100D02*
Y185900D01*
X354416D01*
Y185100D01*
X353616D01*
X366200Y189700D02*
Y191300D01*
X367800D01*
Y189700D01*
X366200D01*
X366600Y190100D02*
Y190900D01*
X367400D01*
Y190100D01*
X366600D01*
X157200Y249200D02*
Y250800D01*
X158800D01*
Y249200D01*
X157200D01*
X157600Y249600D02*
Y250400D01*
X158400D01*
Y249600D01*
X157600D01*
X79700Y251200D02*
Y252800D01*
X81300D01*
Y251200D01*
X79700D01*
X80100Y251600D02*
Y252400D01*
X80900D01*
Y251600D01*
X80100D01*
X454200Y220200D02*
Y221800D01*
X455800D01*
Y220200D01*
X454200D01*
X454600Y220600D02*
Y221400D01*
X455400D01*
Y220600D01*
X454600D01*
X456200Y206200D02*
Y207800D01*
X457800D01*
Y206200D01*
X456200D01*
X456600Y206600D02*
Y207400D01*
X457400D01*
Y206600D01*
X456600D01*
X458200Y220200D02*
Y221800D01*
X459800D01*
Y220200D01*
X458200D01*
X458600Y220600D02*
Y221400D01*
X459400D01*
Y220600D01*
X458600D01*
X456200Y202700D02*
Y204300D01*
X457800D01*
Y202700D01*
X456200D01*
X456600Y203100D02*
Y203900D01*
X457400D01*
Y203100D01*
X456600D01*
X34700Y193200D02*
Y194800D01*
X36300D01*
Y193200D01*
X34700D01*
X35100Y193600D02*
Y194400D01*
X35900D01*
Y193600D01*
X35100D01*
X36700Y210700D02*
Y212300D01*
X38300D01*
Y210700D01*
X36700D01*
X37100Y211100D02*
Y211900D01*
X37900D01*
Y211100D01*
X37100D01*
X362700Y233700D02*
Y235300D01*
X364300D01*
Y233700D01*
X362700D01*
X363100Y234100D02*
Y234900D01*
X363900D01*
Y234100D01*
X363100D01*
X390972Y262472D02*
Y264072D01*
X392572D01*
Y262472D01*
X390972D01*
X391372Y262872D02*
Y263672D01*
X392172D01*
Y262872D01*
X391372D01*
X113200Y251200D02*
Y252800D01*
X114800D01*
Y251200D01*
X113200D01*
X113600Y251600D02*
Y252400D01*
X114400D01*
Y251600D01*
X113600D01*
X350700Y268137D02*
Y269737D01*
X352300D01*
Y268137D01*
X350700D01*
X351100Y268537D02*
Y269337D01*
X351900D01*
Y268537D01*
X351100D01*
X28472Y138428D02*
Y140028D01*
X30072D01*
Y138428D01*
X28472D01*
X28872Y138828D02*
Y139628D01*
X29672D01*
Y138828D01*
X28872D01*
X438860Y144700D02*
Y146300D01*
X440460D01*
Y144700D01*
X438860D01*
X439260Y145100D02*
Y145900D01*
X440060D01*
Y145100D01*
X439260D01*
X432562Y144700D02*
Y146300D01*
X434162D01*
Y144700D01*
X432562D01*
X432962Y145100D02*
Y145900D01*
X433762D01*
Y145100D01*
X432962D01*
X429413Y142700D02*
Y144300D01*
X431013D01*
Y142700D01*
X429413D01*
X429813Y143100D02*
Y143900D01*
X430613D01*
Y143100D01*
X429813D01*
X426263Y144712D02*
Y146312D01*
X427863D01*
Y144712D01*
X426263D01*
X426663Y145112D02*
Y145912D01*
X427463D01*
Y145112D01*
X426663D01*
X419964Y144712D02*
Y146312D01*
X421564D01*
Y144712D01*
X419964D01*
X420364Y145112D02*
Y145912D01*
X421164D01*
Y145112D01*
X420364D01*
X443928Y135928D02*
Y137528D01*
X445528D01*
Y135928D01*
X443928D01*
X444328Y136328D02*
Y137128D01*
X445128D01*
Y136328D01*
X444328D01*
X53860Y145540D02*
Y147140D01*
X55460D01*
Y145540D01*
X53860D01*
X54260Y145940D02*
Y146740D01*
X55060D01*
Y145940D01*
X54260D01*
X47562Y145700D02*
Y147300D01*
X49162D01*
Y145700D01*
X47562D01*
X47962Y146100D02*
Y146900D01*
X48762D01*
Y146100D01*
X47962D01*
X44413Y144700D02*
Y146300D01*
X46013D01*
Y144700D01*
X44413D01*
X44813Y145100D02*
Y145900D01*
X45613D01*
Y145100D01*
X44813D01*
X41263Y145700D02*
Y147300D01*
X42863D01*
Y145700D01*
X41263D01*
X41663Y146100D02*
Y146900D01*
X42463D01*
Y146100D01*
X41663D01*
X34964Y145700D02*
Y147300D01*
X36564D01*
Y145700D01*
X34964D01*
X35364Y146100D02*
Y146900D01*
X36164D01*
Y146100D01*
X35364D01*
X343365Y172700D02*
Y174300D01*
X344965D01*
Y172700D01*
X343365D01*
X343765Y173100D02*
Y173900D01*
X344565D01*
Y173100D01*
X343765D01*
X410700Y199700D02*
Y201300D01*
X412300D01*
Y199700D01*
X410700D01*
X411100Y200100D02*
Y200900D01*
X411900D01*
Y200100D01*
X411100D01*
X337472Y219472D02*
Y221072D01*
X339072D01*
Y219472D01*
X337472D01*
X337872Y219872D02*
Y220672D01*
X338672D01*
Y219872D01*
X337872D01*
X101200Y206700D02*
Y208300D01*
X102800D01*
Y206700D01*
X101200D01*
X101600Y207100D02*
Y207900D01*
X102400D01*
Y207100D01*
X101600D01*
X49200Y188200D02*
Y189800D01*
X50800D01*
Y188200D01*
X49200D01*
X49600Y188600D02*
Y189400D01*
X50400D01*
Y188600D01*
X49600D01*
X432200Y176700D02*
Y178300D01*
X433800D01*
Y176700D01*
X432200D01*
X432600Y177100D02*
Y177900D01*
X433400D01*
Y177100D01*
X432600D01*
X426700Y176700D02*
Y178300D01*
X428300D01*
Y176700D01*
X426700D01*
X427100Y177100D02*
Y177900D01*
X427900D01*
Y177100D01*
X427100D01*
X41700Y176700D02*
Y178300D01*
X43300D01*
Y176700D01*
X41700D01*
X42100Y177100D02*
Y177900D01*
X42900D01*
Y177100D01*
X42100D01*
X47200Y176700D02*
Y178300D01*
X48800D01*
Y176700D01*
X47200D01*
X47600Y177100D02*
Y177900D01*
X48400D01*
Y177100D01*
X47600D01*
X114700Y206700D02*
Y208300D01*
X116300D01*
Y206700D01*
X114700D01*
X115100Y207100D02*
Y207900D01*
X115900D01*
Y207100D01*
X115100D01*
X135700Y190700D02*
Y192300D01*
X137300D01*
Y190700D01*
X135700D01*
X136100Y191100D02*
Y191900D01*
X136900D01*
Y191100D01*
X136100D01*
X166137Y210263D02*
Y211863D01*
X167737D01*
Y210263D01*
X166137D01*
X166537Y210663D02*
Y211463D01*
X167337D01*
Y210663D01*
X166537D01*
X117928Y188472D02*
Y190072D01*
X119528D01*
Y188472D01*
X117928D01*
X118328Y188872D02*
Y189672D01*
X119128D01*
Y188872D01*
X118328D01*
X135200Y176700D02*
Y178300D01*
X136800D01*
Y176700D01*
X135200D01*
X135600Y177100D02*
Y177900D01*
X136400D01*
Y177100D01*
X135600D01*
X145700Y151200D02*
Y152800D01*
X147300D01*
Y151200D01*
X145700D01*
X146100Y151600D02*
Y152400D01*
X146900D01*
Y151600D01*
X146100D01*
X132700Y166200D02*
Y167800D01*
X134300D01*
Y166200D01*
X132700D01*
X133100Y166600D02*
Y167400D01*
X133900D01*
Y166600D01*
X133100D01*
X127700Y165700D02*
Y167300D01*
X129300D01*
Y165700D01*
X127700D01*
X128100Y166100D02*
Y166900D01*
X128900D01*
Y166100D01*
X128100D01*
X130700Y168700D02*
Y170300D01*
X132300D01*
Y168700D01*
X130700D01*
X131100Y169100D02*
Y169900D01*
X131900D01*
Y169100D01*
X131100D01*
X130200Y175200D02*
Y176800D01*
X131800D01*
Y175200D01*
X130200D01*
X130600Y175600D02*
Y176400D01*
X131400D01*
Y175600D01*
X130600D01*
X136200Y174200D02*
Y175800D01*
X137800D01*
Y174200D01*
X136200D01*
X136600Y174600D02*
Y175400D01*
X137400D01*
Y174600D01*
X136600D01*
X445160Y156740D02*
Y158340D01*
X446760D01*
Y156740D01*
X445160D01*
X445560Y157140D02*
Y157940D01*
X446360D01*
Y157140D01*
X445560D01*
X442010Y158200D02*
Y159800D01*
X443610D01*
Y158200D01*
X442010D01*
X442410Y158600D02*
Y159400D01*
X443210D01*
Y158600D01*
X442410D01*
X416700Y156200D02*
Y157800D01*
X418300D01*
Y156200D01*
X416700D01*
X417100Y156600D02*
Y157400D01*
X417900D01*
Y156600D01*
X417100D01*
X434137Y188137D02*
Y189737D01*
X435737D01*
Y188137D01*
X434137D01*
X434537Y188537D02*
Y189337D01*
X435337D01*
Y188537D01*
X434537D01*
X424690Y188190D02*
Y189790D01*
X426290D01*
Y188190D01*
X424690D01*
X425090Y188590D02*
Y189390D01*
X425890D01*
Y188590D01*
X425090D01*
X434928Y169928D02*
Y171528D01*
X436528D01*
Y169928D01*
X434928D01*
X435328Y170328D02*
Y171128D01*
X436128D01*
Y170328D01*
X435328D01*
X426700Y167200D02*
Y168800D01*
X428300D01*
Y167200D01*
X426700D01*
X427100Y167600D02*
Y168400D01*
X427900D01*
Y167600D01*
X427100D01*
X443586Y188314D02*
Y189914D01*
X445186D01*
Y188314D01*
X443586D01*
X443986Y188714D02*
Y189514D01*
X444786D01*
Y188714D01*
X443986D01*
X411875Y183025D02*
Y184625D01*
X413475D01*
Y183025D01*
X411875D01*
X412275Y183425D02*
Y184225D01*
X413075D01*
Y183425D01*
X412275D01*
X447700Y199700D02*
Y201300D01*
X449300D01*
Y199700D01*
X447700D01*
X448100Y200100D02*
Y200900D01*
X448900D01*
Y200100D01*
X448100D01*
X429200Y199700D02*
Y201300D01*
X430800D01*
Y199700D01*
X429200D01*
X429600Y200100D02*
Y200900D01*
X430400D01*
Y200100D01*
X429600D01*
X373200Y233700D02*
Y235300D01*
X374800D01*
Y233700D01*
X373200D01*
X373600Y234100D02*
Y234900D01*
X374400D01*
Y234100D01*
X373600D01*
X34700Y196700D02*
Y198300D01*
X36300D01*
Y196700D01*
X34700D01*
X35100Y197100D02*
Y197900D01*
X35900D01*
Y197100D01*
X35100D01*
X149700Y291700D02*
Y293300D01*
X151300D01*
Y291700D01*
X149700D01*
X150100Y292100D02*
Y292900D01*
X150900D01*
Y292100D01*
X150100D01*
X149700Y273200D02*
Y274800D01*
X151300D01*
Y273200D01*
X149700D01*
X150100Y273600D02*
Y274400D01*
X150900D01*
Y273600D01*
X150100D01*
X209200Y298200D02*
Y299800D01*
X210800D01*
Y298200D01*
X209200D01*
X209600Y298600D02*
Y299400D01*
X210400D01*
Y298600D01*
X209600D01*
X185200Y306700D02*
Y308300D01*
X186800D01*
Y306700D01*
X185200D01*
X185600Y307100D02*
Y307900D01*
X186400D01*
Y307100D01*
X185600D01*
X223200Y294700D02*
Y296300D01*
X224800D01*
Y294700D01*
X223200D01*
X223600Y295100D02*
Y295900D01*
X224400D01*
Y295100D01*
X223600D01*
X217700Y294700D02*
Y296300D01*
X219300D01*
Y294700D01*
X217700D01*
X218100Y295100D02*
Y295900D01*
X218900D01*
Y295100D01*
X218100D01*
X262928Y262972D02*
Y264572D01*
X264528D01*
Y262972D01*
X262928D01*
X263328Y263372D02*
Y264172D01*
X264128D01*
Y263372D01*
X263328D01*
X268700Y164700D02*
Y166300D01*
X270300D01*
Y164700D01*
X268700D01*
X269100Y165100D02*
Y165900D01*
X269900D01*
Y165100D01*
X269100D01*
X280239Y160661D02*
Y162261D01*
X281839D01*
Y160661D01*
X280239D01*
X280639Y161061D02*
Y161861D01*
X281439D01*
Y161061D01*
X280639D01*
X150700Y162700D02*
Y164300D01*
X152300D01*
Y162700D01*
X150700D01*
X151100Y163100D02*
Y163900D01*
X151900D01*
Y163100D01*
X151100D01*
X157700Y198200D02*
Y199800D01*
X159300D01*
Y198200D01*
X157700D01*
X158100Y198600D02*
Y199400D01*
X158900D01*
Y198600D01*
X158100D01*
X162700Y185200D02*
Y186800D01*
X164300D01*
Y185200D01*
X162700D01*
X163100Y185600D02*
Y186400D01*
X163900D01*
Y185600D01*
X163100D01*
X149653Y200653D02*
Y202253D01*
X151253D01*
Y200653D01*
X149653D01*
X150053Y201053D02*
Y201853D01*
X150853D01*
Y201053D01*
X150053D01*
X123200Y200700D02*
Y202300D01*
X124800D01*
Y200700D01*
X123200D01*
X123600Y201100D02*
Y201900D01*
X124400D01*
Y201100D01*
X123600D01*
X87700Y251200D02*
Y252800D01*
X89300D01*
Y251200D01*
X87700D01*
X88100Y251600D02*
Y252400D01*
X88900D01*
Y251600D01*
X88100D01*
X82200Y150700D02*
Y152300D01*
X83800D01*
Y150700D01*
X82200D01*
X82600Y151100D02*
Y151900D01*
X83400D01*
Y151100D01*
X82600D01*
X78700Y165972D02*
Y167572D01*
X80300D01*
Y165972D01*
X78700D01*
X79100Y166372D02*
Y167172D01*
X79900D01*
Y166372D01*
X79100D01*
X61700Y185700D02*
Y187300D01*
X63300D01*
Y185700D01*
X61700D01*
X62100Y186100D02*
Y186900D01*
X62900D01*
Y186100D01*
X62100D01*
X47200Y167200D02*
Y168800D01*
X48800D01*
Y167200D01*
X47200D01*
X47600Y167600D02*
Y168400D01*
X48400D01*
Y167600D01*
X47600D01*
X41700Y167200D02*
Y168800D01*
X43300D01*
Y167200D01*
X41700D01*
X42100Y167600D02*
Y168400D01*
X42900D01*
Y167600D01*
X42100D01*
X62700Y151200D02*
Y152800D01*
X64300D01*
Y151200D01*
X62700D01*
X63100Y151600D02*
Y152400D01*
X63900D01*
Y151600D01*
X63100D01*
X57010Y157010D02*
Y158610D01*
X58610D01*
Y157010D01*
X57010D01*
X57410Y157410D02*
Y158210D01*
X58210D01*
Y157410D01*
X57410D01*
X31814Y157010D02*
Y158610D01*
X33414D01*
Y157010D01*
X31814D01*
X32214Y157410D02*
Y158210D01*
X33014D01*
Y157410D01*
X32214D01*
X129700Y141700D02*
Y143300D01*
X131300D01*
Y141700D01*
X129700D01*
X130100Y142100D02*
Y142900D01*
X130900D01*
Y142100D01*
X130100D01*
X139472Y145200D02*
Y146800D01*
X141072D01*
Y145200D01*
X139472D01*
X139872Y145600D02*
Y146400D01*
X140672D01*
Y145600D01*
X139872D01*
X414200Y208200D02*
Y209800D01*
X415800D01*
Y208200D01*
X414200D01*
X414600Y208600D02*
Y209400D01*
X415400D01*
Y208600D01*
X414600D01*
X131700Y81200D02*
Y82800D01*
X133300D01*
Y81200D01*
X131700D01*
X132100Y81600D02*
Y82400D01*
X132900D01*
Y81600D01*
X132100D01*
X126700Y81200D02*
Y82800D01*
X128300D01*
Y81200D01*
X126700D01*
X127100Y81600D02*
Y82400D01*
X127900D01*
Y81600D01*
X127100D01*
X101700Y81200D02*
Y82800D01*
X103300D01*
Y81200D01*
X101700D01*
X102100Y81600D02*
Y82400D01*
X102900D01*
Y81600D01*
X102100D01*
X96700Y81200D02*
Y82800D01*
X98300D01*
Y81200D01*
X96700D01*
X97100Y81600D02*
Y82400D01*
X97900D01*
Y81600D01*
X97100D01*
X270700Y193062D02*
Y194662D01*
X272300D01*
Y193062D01*
X270700D01*
X271100Y193462D02*
Y194262D01*
X271900D01*
Y193462D01*
X271100D01*
X270700Y180464D02*
Y182064D01*
X272300D01*
Y180464D01*
X270700D01*
X271100Y180864D02*
Y181664D01*
X271900D01*
Y180864D01*
X271100D01*
X210700Y81200D02*
Y82800D01*
X212300D01*
Y81200D01*
X210700D01*
X211100Y81600D02*
Y82400D01*
X211900D01*
Y81600D01*
X211100D01*
X205700Y81200D02*
Y82800D01*
X207300D01*
Y81200D01*
X205700D01*
X206100Y81600D02*
Y82400D01*
X206900D01*
Y81600D01*
X206100D01*
X180700Y81200D02*
Y82800D01*
X182300D01*
Y81200D01*
X180700D01*
X181100Y81600D02*
Y82400D01*
X181900D01*
Y81600D01*
X181100D01*
X175700Y81200D02*
Y82800D01*
X177300D01*
Y81200D01*
X175700D01*
X176100Y81600D02*
Y82400D01*
X176900D01*
Y81600D01*
X176100D01*
X289700Y81200D02*
Y82800D01*
X291300D01*
Y81200D01*
X289700D01*
X290100Y81600D02*
Y82400D01*
X290900D01*
Y81600D01*
X290100D01*
X284700Y81200D02*
Y82800D01*
X286300D01*
Y81200D01*
X284700D01*
X285100Y81600D02*
Y82400D01*
X285900D01*
Y81600D01*
X285100D01*
X259700Y81200D02*
Y82800D01*
X261300D01*
Y81200D01*
X259700D01*
X260100Y81600D02*
Y82400D01*
X260900D01*
Y81600D01*
X260100D01*
X254700Y81200D02*
Y82800D01*
X256300D01*
Y81200D01*
X254700D01*
X255100Y81600D02*
Y82400D01*
X255900D01*
Y81600D01*
X255100D01*
X333700Y81200D02*
Y82800D01*
X335300D01*
Y81200D01*
X333700D01*
X334100Y81600D02*
Y82400D01*
X334900D01*
Y81600D01*
X334100D01*
X338700Y81200D02*
Y82800D01*
X340300D01*
Y81200D01*
X338700D01*
X339100Y81600D02*
Y82400D01*
X339900D01*
Y81600D01*
X339100D01*
X368700Y81200D02*
Y82800D01*
X370300D01*
Y81200D01*
X368700D01*
X369100Y81600D02*
Y82400D01*
X369900D01*
Y81600D01*
X369100D01*
X363700Y81200D02*
Y82800D01*
X365300D01*
Y81200D01*
X363700D01*
X364100Y81600D02*
Y82400D01*
X364900D01*
Y81600D01*
X364100D01*
X193700Y223200D02*
Y224800D01*
X195300D01*
Y223200D01*
X193700D01*
X194100Y223600D02*
Y224400D01*
X194900D01*
Y223600D01*
X194100D01*
X193700Y218200D02*
Y219800D01*
X195300D01*
Y218200D01*
X193700D01*
X194100Y218600D02*
Y219400D01*
X194900D01*
Y218600D01*
X194100D01*
X193700Y213200D02*
Y214800D01*
X195300D01*
Y213200D01*
X193700D01*
X194100Y213600D02*
Y214400D01*
X194900D01*
Y213600D01*
X194100D01*
X193700Y208200D02*
Y209800D01*
X195300D01*
Y208200D01*
X193700D01*
X194100Y208600D02*
Y209400D01*
X194900D01*
Y208600D01*
X194100D01*
X193700Y203200D02*
Y204800D01*
X195300D01*
Y203200D01*
X193700D01*
X194100Y203600D02*
Y204400D01*
X194900D01*
Y203600D01*
X194100D01*
X193700Y198200D02*
Y199800D01*
X195300D01*
Y198200D01*
X193700D01*
X194100Y198600D02*
Y199400D01*
X194900D01*
Y198600D01*
X194100D01*
X193700Y193200D02*
Y194800D01*
X195300D01*
Y193200D01*
X193700D01*
X194100Y193600D02*
Y194400D01*
X194900D01*
Y193600D01*
X194100D01*
X193700Y188200D02*
Y189800D01*
X195300D01*
Y188200D01*
X193700D01*
X194100Y188600D02*
Y189400D01*
X194900D01*
Y188600D01*
X194100D01*
X185700Y296700D02*
Y298300D01*
X187300D01*
Y296700D01*
X185700D01*
X186100Y297100D02*
Y297900D01*
X186900D01*
Y297100D01*
X186100D01*
X127700Y154700D02*
Y156300D01*
X129300D01*
Y154700D01*
X127700D01*
X128100Y155100D02*
Y155900D01*
X128900D01*
Y155100D01*
X128100D01*
X132700Y153700D02*
Y155300D01*
X134300D01*
Y153700D01*
X132700D01*
X133100Y154100D02*
Y154900D01*
X133900D01*
Y154100D01*
X133100D01*
X129838Y151700D02*
Y153300D01*
X131438D01*
Y151700D01*
X129838D01*
X130238Y152100D02*
Y152900D01*
X131038D01*
Y152100D01*
X130238D01*
X118062Y168838D02*
Y170438D01*
X119662D01*
Y168838D01*
X118062D01*
X118462Y169238D02*
Y170038D01*
X119262D01*
Y169238D01*
X118462D01*
X119700Y163200D02*
Y164800D01*
X121300D01*
Y163200D01*
X119700D01*
X120100Y163600D02*
Y164400D01*
X120900D01*
Y163600D01*
X120100D01*
X136700Y186200D02*
Y187800D01*
X138300D01*
Y186200D01*
X136700D01*
X137100Y186600D02*
Y187400D01*
X137900D01*
Y186600D01*
X137100D01*
X122200Y181200D02*
Y182800D01*
X123800D01*
Y181200D01*
X122200D01*
X122600Y181600D02*
Y182400D01*
X123400D01*
Y181600D01*
X122600D01*
X143700Y210200D02*
Y211800D01*
X145300D01*
Y210200D01*
X143700D01*
X144100Y210600D02*
Y211400D01*
X144900D01*
Y210600D01*
X144100D01*
X125700Y185200D02*
Y186800D01*
X127300D01*
Y185200D01*
X125700D01*
X126100Y185600D02*
Y186400D01*
X126900D01*
Y185600D01*
X126100D01*
X148200Y174200D02*
Y175800D01*
X149800D01*
Y174200D01*
X148200D01*
X148600Y174600D02*
Y175400D01*
X149400D01*
Y174600D01*
X148600D01*
X145700Y162700D02*
Y164300D01*
X147300D01*
Y162700D01*
X145700D01*
X146100Y163100D02*
Y163900D01*
X146900D01*
Y163100D01*
X146100D01*
X150428Y228472D02*
Y230072D01*
X152028D01*
Y228472D01*
X150428D01*
X150828Y228872D02*
Y229672D01*
X151628D01*
Y228872D01*
X150828D01*
X315700Y168200D02*
Y169800D01*
X317300D01*
Y168200D01*
X315700D01*
X316100Y168600D02*
Y169400D01*
X316900D01*
Y168600D01*
X316100D01*
X304838Y215239D02*
Y216839D01*
X306438D01*
Y215239D01*
X304838D01*
X305238Y215639D02*
Y216439D01*
X306038D01*
Y215639D01*
X305238D01*
X259436Y256436D02*
Y258036D01*
X261036D01*
Y256436D01*
X259436D01*
X259836Y256836D02*
Y257636D01*
X260636D01*
Y256836D01*
X259836D01*
X292239Y215239D02*
Y216839D01*
X293839D01*
Y215239D01*
X292239D01*
X292639Y215639D02*
Y216439D01*
X293439D01*
Y215639D01*
X292639D01*
X270700Y171015D02*
Y172615D01*
X272300D01*
Y171015D01*
X270700D01*
X271100Y171415D02*
Y172215D01*
X271900D01*
Y171415D01*
X271100D01*
X270700Y186763D02*
Y188363D01*
X272300D01*
Y186763D01*
X270700D01*
X271100Y187163D02*
Y187963D01*
X271900D01*
Y187163D01*
X271100D01*
X331200Y203700D02*
Y205300D01*
X332800D01*
Y203700D01*
X331200D01*
X331600Y204100D02*
Y204900D01*
X332400D01*
Y204100D01*
X331600D01*
X331200Y208700D02*
Y210300D01*
X332800D01*
Y208700D01*
X331200D01*
X331600Y209100D02*
Y209900D01*
X332400D01*
Y209100D01*
X331600D01*
X343200Y206200D02*
Y207800D01*
X344800D01*
Y206200D01*
X343200D01*
X343600Y206600D02*
Y207400D01*
X344400D01*
Y206600D01*
X343600D01*
X323972Y214472D02*
Y216072D01*
X325572D01*
Y214472D01*
X323972D01*
X324372Y214872D02*
Y215672D01*
X325172D01*
Y214872D01*
X324372D01*
X330035Y214865D02*
Y216465D01*
X331635D01*
Y214865D01*
X330035D01*
X330435Y215265D02*
Y216065D01*
X331235D01*
Y215265D01*
X330435D01*
X343200Y210700D02*
Y212300D01*
X344800D01*
Y210700D01*
X343200D01*
X343600Y211100D02*
Y211900D01*
X344400D01*
Y211100D01*
X343600D01*
X326885Y213015D02*
Y214615D01*
X328485D01*
Y213015D01*
X326885D01*
X327285Y213415D02*
Y214215D01*
X328085D01*
Y213415D01*
X327285D01*
X331310Y172590D02*
Y174190D01*
X332910D01*
Y172590D01*
X331310D01*
X331710Y172990D02*
Y173790D01*
X332510D01*
Y172990D01*
X331710D01*
X337239Y164739D02*
Y166339D01*
X338839D01*
Y164739D01*
X337239D01*
X337639Y165139D02*
Y165939D01*
X338439D01*
Y165139D01*
X337639D01*
X310700Y168200D02*
Y169800D01*
X312300D01*
Y168200D01*
X310700D01*
X311100Y168600D02*
Y169400D01*
X311900D01*
Y168600D01*
X311100D01*
X320700Y168200D02*
Y169800D01*
X322300D01*
Y168200D01*
X320700D01*
X321100Y168600D02*
Y169400D01*
X321900D01*
Y168600D01*
X321100D01*
X305700Y168200D02*
Y169800D01*
X307300D01*
Y168200D01*
X305700D01*
X306100Y168600D02*
Y169400D01*
X306900D01*
Y168600D01*
X306100D01*
X300700Y168200D02*
Y169800D01*
X302300D01*
Y168200D01*
X300700D01*
X301100Y168600D02*
Y169400D01*
X301900D01*
Y168600D01*
X301100D01*
X295700Y168200D02*
Y169800D01*
X297300D01*
Y168200D01*
X295700D01*
X296100Y168600D02*
Y169400D01*
X296900D01*
Y168600D01*
X296100D01*
X290700Y168200D02*
Y169800D01*
X292300D01*
Y168200D01*
X290700D01*
X291100Y168600D02*
Y169400D01*
X291900D01*
Y168600D01*
X291100D01*
X277700Y164700D02*
Y166300D01*
X279300D01*
Y164700D01*
X277700D01*
X278100Y165100D02*
Y165900D01*
X278900D01*
Y165100D01*
X278100D01*
X286428Y175972D02*
Y177572D01*
X288028D01*
Y175972D01*
X286428D01*
X286828Y176372D02*
Y177172D01*
X287628D01*
Y176372D01*
X286828D01*
X283700Y184200D02*
Y185800D01*
X285300D01*
Y184200D01*
X283700D01*
X284100Y184600D02*
Y185400D01*
X284900D01*
Y184600D01*
X284100D01*
X283700Y189200D02*
Y190800D01*
X285300D01*
Y189200D01*
X283700D01*
X284100Y189600D02*
Y190400D01*
X284900D01*
Y189600D01*
X284100D01*
X283700Y197700D02*
Y199300D01*
X285300D01*
Y197700D01*
X283700D01*
X284100Y198100D02*
Y198900D01*
X284900D01*
Y198100D01*
X284100D01*
X283700Y204200D02*
Y205800D01*
X285300D01*
Y204200D01*
X283700D01*
X284100Y204600D02*
Y205400D01*
X284900D01*
Y204600D01*
X284100D01*
X284700Y215200D02*
Y216800D01*
X286300D01*
Y215200D01*
X284700D01*
X285100Y215600D02*
Y216400D01*
X285900D01*
Y215600D01*
X285100D01*
X331700Y182700D02*
Y184300D01*
X333300D01*
Y182700D01*
X331700D01*
X332100Y183100D02*
Y183900D01*
X332900D01*
Y183100D01*
X332100D01*
X331700Y177700D02*
Y179300D01*
X333300D01*
Y177700D01*
X331700D01*
X332100Y178100D02*
Y178900D01*
X332900D01*
Y178100D01*
X332100D01*
X345200Y177314D02*
Y178914D01*
X346800D01*
Y177314D01*
X345200D01*
X345600Y177714D02*
Y178514D01*
X346400D01*
Y177714D01*
X345600D01*
X343200Y180200D02*
Y181800D01*
X344800D01*
Y180200D01*
X343200D01*
X343600Y180600D02*
Y181400D01*
X344400D01*
Y180600D01*
X343600D01*
X345200Y182700D02*
Y184300D01*
X346800D01*
Y182700D01*
X345200D01*
X345600Y183100D02*
Y183900D01*
X346400D01*
Y183100D01*
X345600D01*
X281239Y220739D02*
Y222339D01*
X282839D01*
Y220739D01*
X281239D01*
X281639Y221139D02*
Y221939D01*
X282439D01*
Y221139D01*
X281639D01*
X391700Y239200D02*
Y240800D01*
X393300D01*
Y239200D01*
X391700D01*
X392100Y239600D02*
Y240400D01*
X392900D01*
Y239600D01*
X392100D01*
X389200Y250700D02*
Y252300D01*
X390800D01*
Y250700D01*
X389200D01*
X389600Y251100D02*
Y251900D01*
X390400D01*
Y251100D01*
X389600D01*
X391700Y247200D02*
Y248800D01*
X393300D01*
Y247200D01*
X391700D01*
X392100Y247600D02*
Y248400D01*
X392900D01*
Y247600D01*
X392100D01*
X386700Y253200D02*
Y254800D01*
X388300D01*
Y253200D01*
X386700D01*
X387100Y253600D02*
Y254400D01*
X387900D01*
Y253600D01*
X387100D01*
X384700Y255700D02*
Y257300D01*
X386300D01*
Y255700D01*
X384700D01*
X385100Y256100D02*
Y256900D01*
X385900D01*
Y256100D01*
X385100D01*
X293200Y226200D02*
Y227800D01*
X294800D01*
Y226200D01*
X293200D01*
X293600Y226600D02*
Y227400D01*
X294400D01*
Y226600D01*
X293600D01*
X300700Y229700D02*
Y231300D01*
X302300D01*
Y229700D01*
X300700D01*
X301100Y230100D02*
Y230900D01*
X301900D01*
Y230100D01*
X301100D01*
X285200Y245700D02*
Y247300D01*
X286800D01*
Y245700D01*
X285200D01*
X285600Y246100D02*
Y246900D01*
X286400D01*
Y246100D01*
X285600D01*
X150700Y172200D02*
Y173800D01*
X152300D01*
Y172200D01*
X150700D01*
X151100Y172600D02*
Y173400D01*
X151900D01*
Y172600D01*
X151100D01*
X363200Y226700D02*
Y228300D01*
X364800D01*
Y226700D01*
X363200D01*
X363600Y227100D02*
Y227900D01*
X364400D01*
Y227100D01*
X363600D01*
X309562Y155200D02*
Y156800D01*
X311162D01*
Y155200D01*
X309562D01*
X309962Y155600D02*
Y156400D01*
X310762D01*
Y155600D01*
X309962D01*
X300114Y153787D02*
Y155386D01*
X301713D01*
Y153787D01*
X300114D01*
X300514Y154186D02*
Y154987D01*
X301313D01*
Y154186D01*
X300514D01*
X319011Y154011D02*
Y155611D01*
X320611D01*
Y154011D01*
X319011D01*
X319411Y154411D02*
Y155211D01*
X320211D01*
Y154411D01*
X319411D01*
X343365Y167865D02*
Y169465D01*
X344965D01*
Y167865D01*
X343365D01*
X343765Y168265D02*
Y169065D01*
X344565D01*
Y168265D01*
X343765D01*
X393700Y244476D02*
Y246076D01*
X395300D01*
Y244476D01*
X393700D01*
X394100Y244876D02*
Y245676D01*
X394900D01*
Y244876D01*
X394100D01*
X395200Y233200D02*
Y234800D01*
X396800D01*
Y233200D01*
X395200D01*
X395600Y233600D02*
Y234400D01*
X396400D01*
Y233600D01*
X395600D01*
X398428Y231428D02*
Y233028D01*
X400028D01*
Y231428D01*
X398428D01*
X398828Y231828D02*
Y232628D01*
X399628D01*
Y231828D01*
X398828D01*
X104200Y171200D02*
Y172800D01*
X105800D01*
Y171200D01*
X104200D01*
X104600Y171600D02*
Y172400D01*
X105400D01*
Y171600D01*
X104600D01*
X100200Y193700D02*
Y195300D01*
X101800D01*
Y193700D01*
X100200D01*
X100600Y194100D02*
Y194900D01*
X101400D01*
Y194100D01*
X100600D01*
X185700Y301700D02*
Y303300D01*
X187300D01*
Y301700D01*
X185700D01*
X186100Y302100D02*
Y302900D01*
X186900D01*
Y302100D01*
X186100D01*
X292700Y197700D02*
Y199300D01*
X294300D01*
Y197700D01*
X292700D01*
X293100Y198100D02*
Y198900D01*
X293900D01*
Y198100D01*
X293100D01*
X292700Y204200D02*
Y205800D01*
X294300D01*
Y204200D01*
X292700D01*
X293100Y204600D02*
Y205400D01*
X293900D01*
Y204600D01*
X293100D01*
X292700Y189200D02*
Y190800D01*
X294300D01*
Y189200D01*
X292700D01*
X293100Y189600D02*
Y190400D01*
X293900D01*
Y189600D01*
X293100D01*
X292700Y184200D02*
Y185800D01*
X294300D01*
Y184200D01*
X292700D01*
X293100Y184600D02*
Y185400D01*
X293900D01*
Y184600D01*
X293100D01*
X292700Y178700D02*
Y180300D01*
X294300D01*
Y178700D01*
X292700D01*
X293100Y179100D02*
Y179900D01*
X293900D01*
Y179100D01*
X293100D01*
X295700Y177200D02*
Y178800D01*
X297300D01*
Y177200D01*
X295700D01*
X296100Y177600D02*
Y178400D01*
X296900D01*
Y177600D01*
X296100D01*
X300700Y177200D02*
Y178800D01*
X302300D01*
Y177200D01*
X300700D01*
X301100Y177600D02*
Y178400D01*
X301900D01*
Y177600D01*
X301100D01*
X305700Y177200D02*
Y178800D01*
X307300D01*
Y177200D01*
X305700D01*
X306100Y177600D02*
Y178400D01*
X306900D01*
Y177600D01*
X306100D01*
X310700Y177200D02*
Y178800D01*
X312300D01*
Y177200D01*
X310700D01*
X311100Y177600D02*
Y178400D01*
X311900D01*
Y177600D01*
X311100D01*
X315700Y177200D02*
Y178800D01*
X317300D01*
Y177200D01*
X315700D01*
X316100Y177600D02*
Y178400D01*
X316900D01*
Y177600D01*
X316100D01*
X320700Y177200D02*
Y178800D01*
X322300D01*
Y177200D01*
X320700D01*
X321100Y177600D02*
Y178400D01*
X321900D01*
Y177600D01*
X321100D01*
X325428Y185428D02*
Y187028D01*
X327028D01*
Y185428D01*
X325428D01*
X325828Y185828D02*
Y186628D01*
X326628D01*
Y185828D01*
X325828D01*
X325428Y168472D02*
Y170072D01*
X327028D01*
Y168472D01*
X325428D01*
X325828Y168872D02*
Y169672D01*
X326628D01*
Y168872D01*
X325828D01*
X325428Y200972D02*
Y202572D01*
X327028D01*
Y200972D01*
X325428D01*
X325828Y201372D02*
Y202172D01*
X326628D01*
Y201372D01*
X325828D01*
X320700Y206200D02*
Y207800D01*
X322300D01*
Y206200D01*
X320700D01*
X321100Y206600D02*
Y207400D01*
X321900D01*
Y206600D01*
X321100D01*
X304700Y206200D02*
Y207800D01*
X306300D01*
Y206200D01*
X304700D01*
X305100Y206600D02*
Y207400D01*
X305900D01*
Y206600D01*
X305100D01*
X294928Y208928D02*
Y210528D01*
X296528D01*
Y208928D01*
X294928D01*
X295328Y209328D02*
Y210128D01*
X296128D01*
Y209328D01*
X295328D01*
X270700Y211960D02*
Y213560D01*
X272300D01*
Y211960D01*
X270700D01*
X271100Y212360D02*
Y213160D01*
X271900D01*
Y212360D01*
X271100D01*
X270700Y202511D02*
Y204111D01*
X272300D01*
Y202511D01*
X270700D01*
X271100Y202911D02*
Y203711D01*
X271900D01*
Y202911D01*
X271100D01*
X334200Y160661D02*
Y162261D01*
X335800D01*
Y160661D01*
X334200D01*
X334600Y161061D02*
Y161861D01*
X335400D01*
Y161061D01*
X334600D01*
X359700Y178700D02*
Y180300D01*
X361300D01*
Y178700D01*
X359700D01*
X360100Y179100D02*
Y179900D01*
X360900D01*
Y179100D01*
X360100D01*
X374200Y212200D02*
Y213800D01*
X375800D01*
Y212200D01*
X374200D01*
X374600Y212600D02*
Y213400D01*
X375400D01*
Y212600D01*
X374600D01*
X376950Y220450D02*
Y222050D01*
X378550D01*
Y220450D01*
X376950D01*
X377350Y220850D02*
Y221650D01*
X378150D01*
Y220850D01*
X377350D01*
X405472Y234972D02*
Y236572D01*
X407072D01*
Y234972D01*
X405472D01*
X405872Y235372D02*
Y236172D01*
X406672D01*
Y235372D01*
X405872D01*
X384700Y265700D02*
Y267300D01*
X386300D01*
Y265700D01*
X384700D01*
X385100Y266100D02*
Y266900D01*
X385900D01*
Y266100D01*
X385100D01*
X315700Y256200D02*
Y257800D01*
X317300D01*
Y256200D01*
X315700D01*
X316100Y256600D02*
Y257400D01*
X316900D01*
Y256600D01*
X316100D01*
X300369Y254869D02*
Y256469D01*
X301969D01*
Y254869D01*
X300369D01*
X300769Y255269D02*
Y256069D01*
X301569D01*
Y255269D01*
X300769D01*
X307700Y239200D02*
Y240800D01*
X309300D01*
Y239200D01*
X307700D01*
X308100Y239600D02*
Y240400D01*
X308900D01*
Y239600D01*
X308100D01*
X293200Y250200D02*
Y251800D01*
X294800D01*
Y250200D01*
X293200D01*
X293600Y250600D02*
Y251400D01*
X294400D01*
Y250600D01*
X293600D01*
X278928Y249700D02*
Y251300D01*
X280528D01*
Y249700D01*
X278928D01*
X279328Y250100D02*
Y250900D01*
X280128D01*
Y250100D01*
X279328D01*
X285200Y255700D02*
Y257300D01*
X286800D01*
Y255700D01*
X285200D01*
X285600Y256100D02*
Y256900D01*
X286400D01*
Y256100D01*
X285600D01*
X275700Y238700D02*
Y240300D01*
X277300D01*
Y238700D01*
X275700D01*
X276100Y239100D02*
Y239900D01*
X276900D01*
Y239100D01*
X276100D01*
X275700Y243700D02*
Y245300D01*
X277300D01*
Y243700D01*
X275700D01*
X276100Y244100D02*
Y244900D01*
X276900D01*
Y244100D01*
X276100D01*
X272472Y252700D02*
Y254300D01*
X274072D01*
Y252700D01*
X272472D01*
X272872Y253100D02*
Y253900D01*
X273672D01*
Y253100D01*
X272872D01*
X233200Y238700D02*
Y240300D01*
X234800D01*
Y238700D01*
X233200D01*
X233600Y239100D02*
Y239900D01*
X234400D01*
Y239100D01*
X233600D01*
X110700Y163200D02*
Y164800D01*
X112300D01*
Y163200D01*
X110700D01*
X111100Y163600D02*
Y164400D01*
X111900D01*
Y163600D01*
X111100D01*
X27875Y183025D02*
Y184625D01*
X29475D01*
Y183025D01*
X27875D01*
X28275Y183425D02*
Y184225D01*
X29075D01*
Y183425D01*
X28275D01*
X39700Y188200D02*
Y189800D01*
X41300D01*
Y188200D01*
X39700D01*
X40100Y188600D02*
Y189400D01*
X40900D01*
Y188600D01*
X40100D01*
X88200Y194700D02*
Y196300D01*
X89800D01*
Y194700D01*
X88200D01*
X88600Y195100D02*
Y195900D01*
X89400D01*
Y195100D01*
X88600D01*
X88200Y189700D02*
Y191300D01*
X89800D01*
Y189700D01*
X88200D01*
X88600Y190100D02*
Y190900D01*
X89400D01*
Y190100D01*
X88600D01*
X105700Y193700D02*
Y195300D01*
X107300D01*
Y193700D01*
X105700D01*
X106100Y194100D02*
Y194900D01*
X106900D01*
Y194100D01*
X106100D01*
X89928Y162428D02*
Y164028D01*
X91528D01*
Y162428D01*
X89928D01*
X90328Y162828D02*
Y163628D01*
X91128D01*
Y162828D01*
X90328D01*
X89972Y157972D02*
Y159572D01*
X91572D01*
Y157972D01*
X89972D01*
X90372Y158372D02*
Y159172D01*
X91172D01*
Y158372D01*
X90372D01*
X87200Y169700D02*
Y171300D01*
X88800D01*
Y169700D01*
X87200D01*
X87600Y170100D02*
Y170900D01*
X88400D01*
Y170100D01*
X87600D01*
X87200Y150700D02*
Y152300D01*
X88800D01*
Y150700D01*
X87200D01*
X87600Y151100D02*
Y151900D01*
X88400D01*
Y151100D01*
X87600D01*
X85472Y181428D02*
Y183028D01*
X87072D01*
Y181428D01*
X85472D01*
X85872Y181828D02*
Y182628D01*
X86672D01*
Y181828D01*
X85872D01*
X85472Y202972D02*
Y204572D01*
X87072D01*
Y202972D01*
X85472D01*
X85872Y203372D02*
Y204172D01*
X86672D01*
Y203372D01*
X85872D01*
X100200Y183200D02*
Y184800D01*
X101800D01*
Y183200D01*
X100200D01*
X100600Y183600D02*
Y184400D01*
X101400D01*
Y183600D01*
X100600D01*
X153200Y181200D02*
Y182800D01*
X154800D01*
Y181200D01*
X153200D01*
X153600Y181600D02*
Y182400D01*
X154400D01*
Y181600D01*
X153600D01*
X156200Y189200D02*
Y190800D01*
X157800D01*
Y189200D01*
X156200D01*
X156600Y189600D02*
Y190400D01*
X157400D01*
Y189600D01*
X156600D01*
X153478Y186700D02*
Y188300D01*
X155078D01*
Y186700D01*
X153478D01*
X153878Y187100D02*
Y187900D01*
X154678D01*
Y187100D01*
X153878D01*
X129200Y194700D02*
Y196300D01*
X130800D01*
Y194700D01*
X129200D01*
X129600Y195100D02*
Y195900D01*
X130400D01*
Y195100D01*
X129600D01*
X126200Y195700D02*
Y197300D01*
X127800D01*
Y195700D01*
X126200D01*
X126600Y196100D02*
Y196900D01*
X127400D01*
Y196100D01*
X126600D01*
X123200Y196700D02*
Y198300D01*
X124800D01*
Y196700D01*
X123200D01*
X123600Y197100D02*
Y197900D01*
X124400D01*
Y197100D01*
X123600D01*
X425972Y208200D02*
Y209800D01*
X427572D01*
Y208200D01*
X425972D01*
X426372Y208600D02*
Y209400D01*
X427172D01*
Y208600D01*
X426372D01*
X96700Y136700D02*
Y138300D01*
X98300D01*
Y136700D01*
X96700D01*
X97100Y137100D02*
Y137900D01*
X97900D01*
Y137100D01*
X97100D01*
X179700Y133472D02*
Y135072D01*
X181300D01*
Y133472D01*
X179700D01*
X180100Y133872D02*
Y134672D01*
X180900D01*
Y133872D01*
X180100D01*
X254700Y136700D02*
Y138300D01*
X256300D01*
Y136700D01*
X254700D01*
X255100Y137100D02*
Y137900D01*
X255900D01*
Y137100D01*
X255100D01*
X329700Y133472D02*
Y135072D01*
X331300D01*
Y133472D01*
X329700D01*
X330100Y133872D02*
Y134672D01*
X330900D01*
Y133872D01*
X330100D01*
X312700Y149200D02*
Y150800D01*
X314300D01*
Y149200D01*
X312700D01*
X313100Y149600D02*
Y150400D01*
X313900D01*
Y149600D01*
X313100D01*
X202700Y279700D02*
Y281300D01*
X204300D01*
Y279700D01*
X202700D01*
X203100Y280100D02*
Y280900D01*
X203900D01*
Y280100D01*
X203100D01*
X202700Y276200D02*
Y277800D01*
X204300D01*
Y276200D01*
X202700D01*
X203100Y276600D02*
Y277400D01*
X203900D01*
Y276600D01*
X203100D01*
X202700Y272200D02*
Y273800D01*
X204300D01*
Y272200D01*
X202700D01*
X203100Y272600D02*
Y273400D01*
X203900D01*
Y272600D01*
X203100D01*
X202700Y268700D02*
Y270300D01*
X204300D01*
Y268700D01*
X202700D01*
X203100Y269100D02*
Y269900D01*
X203900D01*
Y269100D01*
X203100D01*
X202700Y264700D02*
Y266300D01*
X204300D01*
Y264700D01*
X202700D01*
X203100Y265100D02*
Y265900D01*
X203900D01*
Y265100D01*
X203100D01*
X208700Y278200D02*
Y279800D01*
X210300D01*
Y278200D01*
X208700D01*
X209100Y278600D02*
Y279400D01*
X209900D01*
Y278600D01*
X209100D01*
X208700Y274200D02*
Y275800D01*
X210300D01*
Y274200D01*
X208700D01*
X209100Y274600D02*
Y275400D01*
X209900D01*
Y274600D01*
X209100D01*
X208700Y270200D02*
Y271800D01*
X210300D01*
Y270200D01*
X208700D01*
X209100Y270600D02*
Y271400D01*
X209900D01*
Y270600D01*
X209100D01*
X32700Y210700D02*
Y212300D01*
X34300D01*
Y210700D01*
X32700D01*
X33100Y211100D02*
Y211900D01*
X33900D01*
Y211100D01*
X33100D01*
D105*
X41111Y125709D02*
G03*
X41111Y125709I-800J0D01*
G01*
X62371Y125709D02*
G03*
X62371Y125709I-800J0D01*
G01*
X52530Y46969D02*
G03*
X52530Y46969I-800J0D01*
G01*
X74851Y66654D02*
G03*
X74851Y66654I-800J0D01*
G01*
X74851Y106025D02*
G03*
X74851Y106025I-800J0D01*
G01*
Y145395D02*
G03*
X74851Y145395I-800J0D01*
G01*
X74851Y184765D02*
G03*
X74851Y184765I-800J0D01*
G01*
X18749Y125709D02*
G03*
X18749Y125709I-800J0D01*
G01*
X18749Y86339D02*
G03*
X18749Y86339I-800J0D01*
G01*
X18749Y46969D02*
G03*
X18749Y46969I-800J0D01*
G01*
X403750D02*
G03*
X403750Y46969I-800J0D01*
G01*
X403749Y86339D02*
G03*
X403749Y86339I-800J0D01*
G01*
X403749Y125709D02*
G03*
X403749Y125709I-800J0D01*
G01*
X459851Y184765D02*
G03*
X459851Y184765I-800J0D01*
G01*
X459851Y145395D02*
G03*
X459851Y145395I-800J0D01*
G01*
Y106025D02*
G03*
X459851Y106025I-800J0D01*
G01*
X459851Y66654D02*
G03*
X459851Y66654I-800J0D01*
G01*
X437530Y46969D02*
G03*
X437530Y46969I-800J0D01*
G01*
X447371Y125709D02*
G03*
X447371Y125709I-800J0D01*
G01*
X426111Y125709D02*
G03*
X426111Y125709I-800J0D01*
G01*
X450698Y167685D02*
G03*
X450698Y167685I-800J0D01*
G01*
X412902D02*
G03*
X412902Y167685I-800J0D01*
G01*
X27902D02*
G03*
X27902Y167685I-800J0D01*
G01*
X65698D02*
G03*
X65698Y167685I-800J0D01*
G01*
D106*
X450298D02*
G03*
X450298Y167685I-400J0D01*
G01*
X412502D02*
G03*
X412502Y167685I-400J0D01*
G01*
X27502D02*
G03*
X27502Y167685I-400J0D01*
G01*
X65298D02*
G03*
X65298Y167685I-400J0D01*
G01*
M02*
