G04*
G04 #@! TF.GenerationSoftware,Altium Limited,Altium Designer,20.0.2 (26)*
G04*
G04 Layer_Color=128*
%FSLAX25Y25*%
%MOIN*%
G70*
G01*
G75*
%ADD20C,0.00200*%
G36*
X140480Y180268D02*
X139693D01*
Y181843D01*
X140480D01*
Y180268D01*
D02*
G37*
G36*
X138906D02*
X138118D01*
Y181843D01*
X138906D01*
Y180268D01*
D02*
G37*
G36*
X137331D02*
X136543D01*
Y181843D01*
X137331D01*
Y180268D01*
D02*
G37*
G36*
X135756D02*
X134968D01*
Y181843D01*
X135756D01*
Y180268D01*
D02*
G37*
G36*
X134181D02*
X133394D01*
Y181843D01*
X134181D01*
Y180268D01*
D02*
G37*
G36*
X132606D02*
X131819D01*
Y181843D01*
X132606D01*
Y180268D01*
D02*
G37*
G36*
X131032D02*
X130244D01*
Y181843D01*
X131032D01*
Y180268D01*
D02*
G37*
G36*
X129457D02*
X128669D01*
Y181843D01*
X129457D01*
Y180268D01*
D02*
G37*
G36*
X127882D02*
X127094D01*
Y181843D01*
X127882D01*
Y180268D01*
D02*
G37*
G36*
X126307D02*
X125520D01*
Y181843D01*
X126307D01*
Y180268D01*
D02*
G37*
G36*
X142842Y178693D02*
X141268D01*
Y179480D01*
X142842D01*
Y178693D01*
D02*
G37*
G36*
X124732D02*
X123158D01*
Y179480D01*
X124732D01*
Y178693D01*
D02*
G37*
G36*
X142842Y177118D02*
X141268D01*
Y177905D01*
X142842D01*
Y177118D01*
D02*
G37*
G36*
X124732D02*
X123158D01*
Y177905D01*
X124732D01*
Y177118D01*
D02*
G37*
G36*
X142842Y175543D02*
X141268D01*
Y176331D01*
X142842D01*
Y175543D01*
D02*
G37*
G36*
X124732D02*
X123158D01*
Y176331D01*
X124732D01*
Y175543D01*
D02*
G37*
G36*
X142842Y173969D02*
X141268D01*
Y174756D01*
X142842D01*
Y173969D01*
D02*
G37*
G36*
X124732D02*
X123158D01*
Y174756D01*
X124732D01*
Y173969D01*
D02*
G37*
G36*
X142842Y172394D02*
X141268D01*
Y173181D01*
X142842D01*
Y172394D01*
D02*
G37*
G36*
X124732D02*
X123158D01*
Y173181D01*
X124732D01*
Y172394D01*
D02*
G37*
G36*
X142842Y170819D02*
X141268D01*
Y171606D01*
X142842D01*
Y170819D01*
D02*
G37*
G36*
X124732D02*
X123158D01*
Y171606D01*
X124732D01*
Y170819D01*
D02*
G37*
G36*
X142842Y169244D02*
X141268D01*
Y170031D01*
X142842D01*
Y169244D01*
D02*
G37*
G36*
X124732D02*
X123158D01*
Y170031D01*
X124732D01*
Y169244D01*
D02*
G37*
G36*
X142842Y167669D02*
X141268D01*
Y168457D01*
X142842D01*
Y167669D01*
D02*
G37*
G36*
X124732D02*
X123158D01*
Y168457D01*
X124732D01*
Y167669D01*
D02*
G37*
G36*
X142842Y166095D02*
X141268D01*
Y166882D01*
X142842D01*
Y166095D01*
D02*
G37*
G36*
X124732D02*
X123158D01*
Y166882D01*
X124732D01*
Y166095D01*
D02*
G37*
G36*
X140284Y164716D02*
X125716D01*
Y179283D01*
X140284D01*
Y164716D01*
D02*
G37*
G36*
X142842Y164520D02*
X141268D01*
Y165307D01*
X142842D01*
Y164520D01*
D02*
G37*
G36*
X124732D02*
X123158D01*
Y165307D01*
X124732D01*
Y164520D01*
D02*
G37*
G36*
X140480Y162157D02*
X139693D01*
Y163732D01*
X140480D01*
Y162157D01*
D02*
G37*
G36*
X138906D02*
X138118D01*
Y163732D01*
X138906D01*
Y162157D01*
D02*
G37*
G36*
X137331D02*
X136543D01*
Y163732D01*
X137331D01*
Y162157D01*
D02*
G37*
G36*
X135756D02*
X134968D01*
Y163732D01*
X135756D01*
Y162157D01*
D02*
G37*
G36*
X134181D02*
X133394D01*
Y163732D01*
X134181D01*
Y162157D01*
D02*
G37*
G36*
X132606D02*
X131819D01*
Y163732D01*
X132606D01*
Y162157D01*
D02*
G37*
G36*
X131032D02*
X130244D01*
Y163732D01*
X131032D01*
Y162157D01*
D02*
G37*
G36*
X129457D02*
X128669D01*
Y163732D01*
X129457D01*
Y162157D01*
D02*
G37*
G36*
X127882D02*
X127094D01*
Y163732D01*
X127882D01*
Y162157D01*
D02*
G37*
G36*
X126307D02*
X125520D01*
Y163732D01*
X126307D01*
Y162157D01*
D02*
G37*
G36*
X143314Y162353D02*
X143314Y161961D01*
X143176Y161823D01*
X143038Y161685D01*
X142646Y161685D01*
X142370Y161961D01*
X142369Y162353D01*
X142508Y162491D01*
X142646Y162629D01*
X143037Y162629D01*
X143314Y162353D01*
D02*
G37*
G36*
X76221Y57864D02*
X76247D01*
X76272Y57860D01*
X76334Y57849D01*
X76400Y57831D01*
X76469Y57802D01*
X76538Y57765D01*
X76596Y57714D01*
X76604Y57707D01*
X76618Y57685D01*
X76644Y57653D01*
X76655Y57627D01*
X76669Y57602D01*
X76684Y57569D01*
X76695Y57536D01*
X76709Y57500D01*
X76720Y57456D01*
X76727Y57412D01*
X76735Y57361D01*
X76742Y57310D01*
Y57252D01*
Y56000D01*
X76433D01*
Y57147D01*
Y57150D01*
Y57154D01*
Y57176D01*
Y57209D01*
X76429Y57249D01*
X76425Y57292D01*
X76422Y57336D01*
X76414Y57380D01*
X76403Y57412D01*
Y57416D01*
X76396Y57427D01*
X76389Y57441D01*
X76378Y57460D01*
X76363Y57481D01*
X76345Y57503D01*
X76323Y57525D01*
X76294Y57547D01*
X76291Y57551D01*
X76280Y57554D01*
X76265Y57562D01*
X76240Y57573D01*
X76214Y57583D01*
X76181Y57591D01*
X76149Y57594D01*
X76109Y57598D01*
X76090D01*
X76076Y57594D01*
X76039Y57591D01*
X75996Y57583D01*
X75945Y57565D01*
X75890Y57543D01*
X75836Y57511D01*
X75785Y57467D01*
X75781Y57460D01*
X75766Y57441D01*
X75745Y57412D01*
X75723Y57369D01*
X75697Y57310D01*
X75679Y57241D01*
X75665Y57157D01*
X75657Y57059D01*
Y56000D01*
X75348D01*
Y57183D01*
Y57187D01*
Y57194D01*
Y57201D01*
Y57216D01*
X75344Y57256D01*
X75337Y57300D01*
X75330Y57350D01*
X75315Y57401D01*
X75297Y57449D01*
X75271Y57492D01*
X75268Y57496D01*
X75257Y57511D01*
X75239Y57525D01*
X75213Y57547D01*
X75180Y57565D01*
X75137Y57583D01*
X75086Y57594D01*
X75024Y57598D01*
X75002D01*
X74976Y57594D01*
X74947Y57591D01*
X74911Y57580D01*
X74867Y57569D01*
X74827Y57551D01*
X74784Y57529D01*
X74780Y57525D01*
X74765Y57514D01*
X74747Y57500D01*
X74722Y57478D01*
X74696Y57449D01*
X74671Y57412D01*
X74645Y57372D01*
X74623Y57325D01*
X74620Y57318D01*
X74616Y57300D01*
X74609Y57270D01*
X74598Y57230D01*
X74587Y57176D01*
X74580Y57110D01*
X74576Y57034D01*
X74572Y56946D01*
Y56000D01*
X74263D01*
Y57827D01*
X74540D01*
Y57565D01*
X74543Y57573D01*
X74554Y57587D01*
X74576Y57613D01*
X74602Y57642D01*
X74634Y57678D01*
X74674Y57714D01*
X74718Y57751D01*
X74769Y57784D01*
X74776Y57787D01*
X74795Y57798D01*
X74824Y57809D01*
X74864Y57827D01*
X74911Y57842D01*
X74966Y57853D01*
X75028Y57864D01*
X75093Y57867D01*
X75126D01*
X75166Y57864D01*
X75209Y57856D01*
X75264Y57845D01*
X75319Y57831D01*
X75373Y57809D01*
X75424Y57780D01*
X75432Y57776D01*
X75446Y57765D01*
X75468Y57747D01*
X75497Y57718D01*
X75526Y57685D01*
X75559Y57645D01*
X75588Y57598D01*
X75610Y57543D01*
X75613Y57547D01*
X75621Y57558D01*
X75632Y57573D01*
X75650Y57594D01*
X75672Y57620D01*
X75697Y57645D01*
X75726Y57674D01*
X75763Y57707D01*
X75803Y57736D01*
X75843Y57765D01*
X75890Y57791D01*
X75941Y57816D01*
X75996Y57838D01*
X76054Y57853D01*
X76112Y57864D01*
X76178Y57867D01*
X76203D01*
X76221Y57864D01*
D02*
G37*
G36*
X73288D02*
X73313D01*
X73339Y57860D01*
X73400Y57849D01*
X73466Y57831D01*
X73535Y57802D01*
X73604Y57765D01*
X73663Y57714D01*
X73670Y57707D01*
X73684Y57685D01*
X73710Y57653D01*
X73721Y57627D01*
X73735Y57602D01*
X73750Y57569D01*
X73761Y57536D01*
X73775Y57500D01*
X73786Y57456D01*
X73794Y57412D01*
X73801Y57361D01*
X73808Y57310D01*
Y57252D01*
Y56000D01*
X73499D01*
Y57147D01*
Y57150D01*
Y57154D01*
Y57176D01*
Y57209D01*
X73495Y57249D01*
X73491Y57292D01*
X73488Y57336D01*
X73480Y57380D01*
X73470Y57412D01*
Y57416D01*
X73462Y57427D01*
X73455Y57441D01*
X73444Y57460D01*
X73430Y57481D01*
X73411Y57503D01*
X73390Y57525D01*
X73360Y57547D01*
X73357Y57551D01*
X73346Y57554D01*
X73331Y57562D01*
X73306Y57573D01*
X73280Y57583D01*
X73247Y57591D01*
X73215Y57594D01*
X73175Y57598D01*
X73156D01*
X73142Y57594D01*
X73106Y57591D01*
X73062Y57583D01*
X73011Y57565D01*
X72956Y57543D01*
X72902Y57511D01*
X72851Y57467D01*
X72847Y57460D01*
X72833Y57441D01*
X72811Y57412D01*
X72789Y57369D01*
X72763Y57310D01*
X72745Y57241D01*
X72731Y57157D01*
X72723Y57059D01*
Y56000D01*
X72414D01*
Y57183D01*
Y57187D01*
Y57194D01*
Y57201D01*
Y57216D01*
X72410Y57256D01*
X72403Y57300D01*
X72396Y57350D01*
X72381Y57401D01*
X72363Y57449D01*
X72338Y57492D01*
X72334Y57496D01*
X72323Y57511D01*
X72305Y57525D01*
X72279Y57547D01*
X72246Y57565D01*
X72203Y57583D01*
X72152Y57594D01*
X72090Y57598D01*
X72068D01*
X72043Y57594D01*
X72014Y57591D01*
X71977Y57580D01*
X71934Y57569D01*
X71893Y57551D01*
X71850Y57529D01*
X71846Y57525D01*
X71832Y57514D01*
X71813Y57500D01*
X71788Y57478D01*
X71762Y57449D01*
X71737Y57412D01*
X71711Y57372D01*
X71690Y57325D01*
X71686Y57318D01*
X71682Y57300D01*
X71675Y57270D01*
X71664Y57230D01*
X71653Y57176D01*
X71646Y57110D01*
X71642Y57034D01*
X71639Y56946D01*
Y56000D01*
X71329D01*
Y57827D01*
X71606D01*
Y57565D01*
X71609Y57573D01*
X71620Y57587D01*
X71642Y57613D01*
X71668Y57642D01*
X71701Y57678D01*
X71741Y57714D01*
X71784Y57751D01*
X71835Y57784D01*
X71842Y57787D01*
X71861Y57798D01*
X71890Y57809D01*
X71930Y57827D01*
X71977Y57842D01*
X72032Y57853D01*
X72094Y57864D01*
X72159Y57867D01*
X72192D01*
X72232Y57864D01*
X72276Y57856D01*
X72330Y57845D01*
X72385Y57831D01*
X72439Y57809D01*
X72490Y57780D01*
X72498Y57776D01*
X72512Y57765D01*
X72534Y57747D01*
X72563Y57718D01*
X72592Y57685D01*
X72625Y57645D01*
X72654Y57598D01*
X72676Y57543D01*
X72680Y57547D01*
X72687Y57558D01*
X72698Y57573D01*
X72716Y57594D01*
X72738Y57620D01*
X72763Y57645D01*
X72793Y57674D01*
X72829Y57707D01*
X72869Y57736D01*
X72909Y57765D01*
X72956Y57791D01*
X73007Y57816D01*
X73062Y57838D01*
X73120Y57853D01*
X73178Y57864D01*
X73244Y57867D01*
X73269D01*
X73288Y57864D01*
D02*
G37*
G36*
X70838Y58191D02*
X69830D01*
X69695Y57511D01*
X69699Y57514D01*
X69706Y57518D01*
X69717Y57525D01*
X69735Y57536D01*
X69757Y57547D01*
X69782Y57562D01*
X69841Y57591D01*
X69913Y57620D01*
X69993Y57645D01*
X70081Y57664D01*
X70124Y57671D01*
X70205D01*
X70226Y57667D01*
X70255Y57664D01*
X70288Y57660D01*
X70325Y57653D01*
X70365Y57642D01*
X70452Y57616D01*
X70499Y57598D01*
X70547Y57573D01*
X70594Y57547D01*
X70641Y57518D01*
X70685Y57481D01*
X70729Y57441D01*
X70732Y57438D01*
X70740Y57430D01*
X70750Y57420D01*
X70765Y57401D01*
X70783Y57376D01*
X70801Y57350D01*
X70823Y57318D01*
X70845Y57281D01*
X70863Y57241D01*
X70885Y57198D01*
X70903Y57147D01*
X70922Y57096D01*
X70936Y57041D01*
X70947Y56979D01*
X70954Y56917D01*
X70958Y56852D01*
Y56848D01*
Y56837D01*
Y56819D01*
X70954Y56793D01*
X70951Y56764D01*
X70947Y56732D01*
X70940Y56692D01*
X70933Y56652D01*
X70911Y56557D01*
X70874Y56459D01*
X70852Y56408D01*
X70823Y56360D01*
X70794Y56309D01*
X70758Y56262D01*
X70754Y56258D01*
X70747Y56248D01*
X70732Y56233D01*
X70714Y56215D01*
X70689Y56193D01*
X70660Y56164D01*
X70623Y56138D01*
X70583Y56109D01*
X70539Y56080D01*
X70488Y56055D01*
X70434Y56029D01*
X70376Y56004D01*
X70314Y55985D01*
X70244Y55971D01*
X70172Y55960D01*
X70095Y55956D01*
X70063D01*
X70037Y55960D01*
X70008Y55964D01*
X69975Y55967D01*
X69935Y55971D01*
X69895Y55982D01*
X69804Y56004D01*
X69713Y56036D01*
X69666Y56058D01*
X69618Y56084D01*
X69575Y56113D01*
X69531Y56146D01*
X69527Y56149D01*
X69520Y56153D01*
X69513Y56167D01*
X69498Y56182D01*
X69480Y56200D01*
X69462Y56222D01*
X69440Y56251D01*
X69422Y56284D01*
X69400Y56317D01*
X69378Y56357D01*
X69338Y56444D01*
X69305Y56546D01*
X69295Y56601D01*
X69287Y56659D01*
X69611Y56684D01*
Y56681D01*
Y56673D01*
X69615Y56662D01*
X69618Y56644D01*
X69629Y56604D01*
X69644Y56550D01*
X69666Y56495D01*
X69695Y56433D01*
X69731Y56379D01*
X69775Y56328D01*
X69782Y56324D01*
X69797Y56309D01*
X69826Y56291D01*
X69866Y56269D01*
X69910Y56248D01*
X69964Y56229D01*
X70026Y56215D01*
X70095Y56211D01*
X70117D01*
X70132Y56215D01*
X70175Y56218D01*
X70226Y56233D01*
X70288Y56251D01*
X70350Y56280D01*
X70416Y56324D01*
X70445Y56349D01*
X70474Y56379D01*
X70477Y56382D01*
X70481Y56386D01*
X70488Y56397D01*
X70499Y56408D01*
X70525Y56448D01*
X70554Y56499D01*
X70579Y56561D01*
X70605Y56637D01*
X70623Y56728D01*
X70630Y56775D01*
Y56826D01*
Y56830D01*
Y56837D01*
Y56852D01*
X70627Y56870D01*
Y56892D01*
X70623Y56917D01*
X70612Y56976D01*
X70594Y57045D01*
X70569Y57114D01*
X70532Y57179D01*
X70481Y57241D01*
Y57245D01*
X70474Y57249D01*
X70456Y57267D01*
X70423Y57292D01*
X70379Y57321D01*
X70321Y57347D01*
X70255Y57372D01*
X70179Y57390D01*
X70135Y57398D01*
X70066D01*
X70037Y57394D01*
X70001Y57390D01*
X69957Y57380D01*
X69913Y57369D01*
X69866Y57350D01*
X69819Y57329D01*
X69815Y57325D01*
X69800Y57318D01*
X69779Y57300D01*
X69749Y57281D01*
X69720Y57256D01*
X69691Y57223D01*
X69658Y57190D01*
X69633Y57150D01*
X69342Y57190D01*
X69586Y58486D01*
X70838D01*
Y58191D01*
D02*
G37*
G36*
X115218Y55864D02*
X115243D01*
X115269Y55860D01*
X115331Y55849D01*
X115396Y55831D01*
X115465Y55802D01*
X115534Y55765D01*
X115593Y55714D01*
X115600Y55707D01*
X115614Y55685D01*
X115640Y55653D01*
X115651Y55627D01*
X115665Y55602D01*
X115680Y55569D01*
X115691Y55536D01*
X115706Y55500D01*
X115716Y55456D01*
X115724Y55412D01*
X115731Y55361D01*
X115738Y55310D01*
Y55252D01*
Y54000D01*
X115429D01*
Y55147D01*
Y55150D01*
Y55154D01*
Y55176D01*
Y55208D01*
X115425Y55248D01*
X115422Y55292D01*
X115418Y55336D01*
X115411Y55380D01*
X115400Y55412D01*
Y55416D01*
X115392Y55427D01*
X115385Y55441D01*
X115374Y55460D01*
X115360Y55481D01*
X115341Y55503D01*
X115320Y55525D01*
X115291Y55547D01*
X115287Y55551D01*
X115276Y55554D01*
X115261Y55562D01*
X115236Y55572D01*
X115210Y55583D01*
X115178Y55591D01*
X115145Y55594D01*
X115105Y55598D01*
X115087D01*
X115072Y55594D01*
X115036Y55591D01*
X114992Y55583D01*
X114941Y55565D01*
X114886Y55543D01*
X114832Y55511D01*
X114781Y55467D01*
X114777Y55460D01*
X114763Y55441D01*
X114741Y55412D01*
X114719Y55369D01*
X114694Y55310D01*
X114675Y55241D01*
X114661Y55158D01*
X114654Y55059D01*
Y54000D01*
X114344D01*
Y55183D01*
Y55187D01*
Y55194D01*
Y55201D01*
Y55216D01*
X114340Y55256D01*
X114333Y55300D01*
X114326Y55350D01*
X114311Y55401D01*
X114293Y55449D01*
X114268Y55492D01*
X114264Y55496D01*
X114253Y55511D01*
X114235Y55525D01*
X114209Y55547D01*
X114177Y55565D01*
X114133Y55583D01*
X114082Y55594D01*
X114020Y55598D01*
X113998D01*
X113973Y55594D01*
X113944Y55591D01*
X113907Y55580D01*
X113864Y55569D01*
X113824Y55551D01*
X113780Y55529D01*
X113776Y55525D01*
X113762Y55514D01*
X113744Y55500D01*
X113718Y55478D01*
X113693Y55449D01*
X113667Y55412D01*
X113642Y55372D01*
X113620Y55325D01*
X113616Y55318D01*
X113612Y55300D01*
X113605Y55270D01*
X113594Y55230D01*
X113583Y55176D01*
X113576Y55110D01*
X113573Y55034D01*
X113569Y54946D01*
Y54000D01*
X113259D01*
Y55827D01*
X113536D01*
Y55565D01*
X113540Y55572D01*
X113551Y55587D01*
X113573Y55612D01*
X113598Y55642D01*
X113631Y55678D01*
X113671Y55714D01*
X113714Y55751D01*
X113765Y55784D01*
X113773Y55787D01*
X113791Y55798D01*
X113820Y55809D01*
X113860Y55827D01*
X113907Y55842D01*
X113962Y55853D01*
X114024Y55864D01*
X114089Y55867D01*
X114122D01*
X114162Y55864D01*
X114206Y55856D01*
X114260Y55845D01*
X114315Y55831D01*
X114370Y55809D01*
X114421Y55780D01*
X114428Y55776D01*
X114442Y55765D01*
X114464Y55747D01*
X114493Y55718D01*
X114523Y55685D01*
X114555Y55645D01*
X114584Y55598D01*
X114606Y55543D01*
X114610Y55547D01*
X114617Y55558D01*
X114628Y55572D01*
X114646Y55594D01*
X114668Y55620D01*
X114694Y55645D01*
X114723Y55674D01*
X114759Y55707D01*
X114799Y55736D01*
X114839Y55765D01*
X114886Y55791D01*
X114937Y55816D01*
X114992Y55838D01*
X115050Y55853D01*
X115109Y55864D01*
X115174Y55867D01*
X115200D01*
X115218Y55864D01*
D02*
G37*
G36*
X112284D02*
X112309D01*
X112335Y55860D01*
X112397Y55849D01*
X112462Y55831D01*
X112531Y55802D01*
X112601Y55765D01*
X112659Y55714D01*
X112666Y55707D01*
X112681Y55685D01*
X112706Y55653D01*
X112717Y55627D01*
X112732Y55602D01*
X112746Y55569D01*
X112757Y55536D01*
X112772Y55500D01*
X112783Y55456D01*
X112790Y55412D01*
X112797Y55361D01*
X112804Y55310D01*
Y55252D01*
Y54000D01*
X112495D01*
Y55147D01*
Y55150D01*
Y55154D01*
Y55176D01*
Y55208D01*
X112491Y55248D01*
X112488Y55292D01*
X112484Y55336D01*
X112477Y55380D01*
X112466Y55412D01*
Y55416D01*
X112459Y55427D01*
X112451Y55441D01*
X112440Y55460D01*
X112426Y55481D01*
X112408Y55503D01*
X112386Y55525D01*
X112357Y55547D01*
X112353Y55551D01*
X112342Y55554D01*
X112328Y55562D01*
X112302Y55572D01*
X112277Y55583D01*
X112244Y55591D01*
X112211Y55594D01*
X112171Y55598D01*
X112153D01*
X112138Y55594D01*
X112102Y55591D01*
X112058Y55583D01*
X112007Y55565D01*
X111953Y55543D01*
X111898Y55511D01*
X111847Y55467D01*
X111844Y55460D01*
X111829Y55441D01*
X111807Y55412D01*
X111785Y55369D01*
X111760Y55310D01*
X111742Y55241D01*
X111727Y55158D01*
X111720Y55059D01*
Y54000D01*
X111410D01*
Y55183D01*
Y55187D01*
Y55194D01*
Y55201D01*
Y55216D01*
X111407Y55256D01*
X111399Y55300D01*
X111392Y55350D01*
X111378Y55401D01*
X111359Y55449D01*
X111334Y55492D01*
X111330Y55496D01*
X111319Y55511D01*
X111301Y55525D01*
X111276Y55547D01*
X111243Y55565D01*
X111199Y55583D01*
X111148Y55594D01*
X111086Y55598D01*
X111065D01*
X111039Y55594D01*
X111010Y55591D01*
X110974Y55580D01*
X110930Y55569D01*
X110890Y55551D01*
X110846Y55529D01*
X110843Y55525D01*
X110828Y55514D01*
X110810Y55500D01*
X110784Y55478D01*
X110759Y55449D01*
X110733Y55412D01*
X110708Y55372D01*
X110686Y55325D01*
X110682Y55318D01*
X110679Y55300D01*
X110671Y55270D01*
X110661Y55230D01*
X110650Y55176D01*
X110642Y55110D01*
X110639Y55034D01*
X110635Y54946D01*
Y54000D01*
X110326D01*
Y55827D01*
X110602D01*
Y55565D01*
X110606Y55572D01*
X110617Y55587D01*
X110639Y55612D01*
X110664Y55642D01*
X110697Y55678D01*
X110737Y55714D01*
X110781Y55751D01*
X110832Y55784D01*
X110839Y55787D01*
X110857Y55798D01*
X110886Y55809D01*
X110926Y55827D01*
X110974Y55842D01*
X111028Y55853D01*
X111090Y55864D01*
X111155Y55867D01*
X111188D01*
X111228Y55864D01*
X111272Y55856D01*
X111327Y55845D01*
X111381Y55831D01*
X111436Y55809D01*
X111487Y55780D01*
X111494Y55776D01*
X111509Y55765D01*
X111530Y55747D01*
X111560Y55718D01*
X111589Y55685D01*
X111621Y55645D01*
X111651Y55598D01*
X111672Y55543D01*
X111676Y55547D01*
X111683Y55558D01*
X111694Y55572D01*
X111712Y55594D01*
X111734Y55620D01*
X111760Y55645D01*
X111789Y55674D01*
X111825Y55707D01*
X111865Y55736D01*
X111905Y55765D01*
X111953Y55791D01*
X112004Y55816D01*
X112058Y55838D01*
X112117Y55853D01*
X112175Y55864D01*
X112240Y55867D01*
X112266D01*
X112284Y55864D01*
D02*
G37*
G36*
X109150Y56526D02*
X109197Y56519D01*
X109255Y56508D01*
X109321Y56490D01*
X109387Y56468D01*
X109452Y56439D01*
X109456D01*
X109459Y56435D01*
X109481Y56424D01*
X109514Y56402D01*
X109550Y56377D01*
X109594Y56340D01*
X109638Y56300D01*
X109681Y56253D01*
X109718Y56199D01*
X109721Y56191D01*
X109732Y56173D01*
X109747Y56140D01*
X109765Y56100D01*
X109783Y56053D01*
X109798Y55998D01*
X109809Y55936D01*
X109812Y55875D01*
Y55867D01*
Y55845D01*
X109809Y55816D01*
X109801Y55776D01*
X109791Y55729D01*
X109772Y55678D01*
X109750Y55627D01*
X109721Y55576D01*
X109718Y55569D01*
X109707Y55554D01*
X109685Y55529D01*
X109656Y55500D01*
X109619Y55467D01*
X109576Y55431D01*
X109525Y55398D01*
X109463Y55365D01*
X109467D01*
X109474Y55361D01*
X109485Y55358D01*
X109499Y55354D01*
X109539Y55339D01*
X109590Y55318D01*
X109649Y55289D01*
X109707Y55252D01*
X109761Y55205D01*
X109812Y55150D01*
X109816Y55143D01*
X109831Y55121D01*
X109852Y55085D01*
X109874Y55037D01*
X109896Y54979D01*
X109918Y54910D01*
X109932Y54830D01*
X109936Y54743D01*
Y54739D01*
Y54728D01*
Y54710D01*
X109932Y54688D01*
X109929Y54659D01*
X109922Y54626D01*
X109914Y54590D01*
X109907Y54550D01*
X109878Y54462D01*
X109856Y54415D01*
X109834Y54371D01*
X109805Y54324D01*
X109772Y54277D01*
X109736Y54229D01*
X109692Y54186D01*
X109689Y54182D01*
X109681Y54175D01*
X109667Y54164D01*
X109649Y54149D01*
X109627Y54131D01*
X109598Y54113D01*
X109565Y54091D01*
X109525Y54073D01*
X109485Y54051D01*
X109437Y54029D01*
X109390Y54011D01*
X109335Y53993D01*
X109277Y53978D01*
X109215Y53967D01*
X109153Y53960D01*
X109084Y53956D01*
X109052D01*
X109030Y53960D01*
X109001Y53964D01*
X108968Y53967D01*
X108932Y53974D01*
X108891Y53982D01*
X108804Y54004D01*
X108713Y54040D01*
X108666Y54062D01*
X108622Y54087D01*
X108578Y54120D01*
X108535Y54153D01*
X108531Y54157D01*
X108524Y54164D01*
X108513Y54175D01*
X108502Y54189D01*
X108484Y54207D01*
X108466Y54233D01*
X108444Y54258D01*
X108422Y54291D01*
X108400Y54328D01*
X108378Y54364D01*
X108338Y54451D01*
X108305Y54553D01*
X108294Y54608D01*
X108287Y54666D01*
X108597Y54706D01*
Y54703D01*
X108600Y54695D01*
X108604Y54681D01*
X108607Y54663D01*
X108611Y54641D01*
X108618Y54615D01*
X108637Y54561D01*
X108662Y54495D01*
X108695Y54433D01*
X108731Y54375D01*
X108775Y54324D01*
X108782Y54320D01*
X108797Y54306D01*
X108826Y54288D01*
X108862Y54269D01*
X108906Y54247D01*
X108961Y54229D01*
X109022Y54215D01*
X109088Y54211D01*
X109110D01*
X109124Y54215D01*
X109164Y54218D01*
X109215Y54229D01*
X109274Y54247D01*
X109335Y54273D01*
X109397Y54309D01*
X109456Y54360D01*
X109463Y54368D01*
X109481Y54390D01*
X109503Y54422D01*
X109532Y54466D01*
X109561Y54520D01*
X109583Y54582D01*
X109601Y54655D01*
X109608Y54735D01*
Y54739D01*
Y54746D01*
Y54757D01*
X109605Y54772D01*
X109601Y54812D01*
X109590Y54859D01*
X109576Y54917D01*
X109550Y54975D01*
X109514Y55034D01*
X109467Y55088D01*
X109459Y55096D01*
X109441Y55110D01*
X109412Y55132D01*
X109372Y55158D01*
X109321Y55183D01*
X109259Y55205D01*
X109190Y55219D01*
X109114Y55227D01*
X109081D01*
X109055Y55223D01*
X109022Y55219D01*
X108986Y55212D01*
X108942Y55205D01*
X108895Y55194D01*
X108932Y55467D01*
X108950D01*
X108964Y55463D01*
X109012D01*
X109052Y55471D01*
X109099Y55478D01*
X109153Y55489D01*
X109215Y55507D01*
X109274Y55532D01*
X109335Y55565D01*
X109339D01*
X109343Y55569D01*
X109361Y55583D01*
X109387Y55609D01*
X109416Y55642D01*
X109445Y55689D01*
X109470Y55744D01*
X109488Y55805D01*
X109496Y55842D01*
Y55882D01*
Y55885D01*
Y55889D01*
Y55911D01*
X109488Y55940D01*
X109481Y55980D01*
X109467Y56024D01*
X109448Y56071D01*
X109419Y56119D01*
X109379Y56162D01*
X109376Y56166D01*
X109357Y56180D01*
X109332Y56199D01*
X109299Y56220D01*
X109255Y56239D01*
X109204Y56257D01*
X109146Y56271D01*
X109081Y56275D01*
X109052D01*
X109019Y56268D01*
X108975Y56260D01*
X108928Y56246D01*
X108880Y56228D01*
X108830Y56199D01*
X108782Y56162D01*
X108779Y56159D01*
X108764Y56140D01*
X108742Y56115D01*
X108717Y56078D01*
X108691Y56031D01*
X108666Y55973D01*
X108644Y55904D01*
X108629Y55824D01*
X108320Y55878D01*
Y55882D01*
X108324Y55893D01*
X108327Y55907D01*
X108331Y55929D01*
X108338Y55955D01*
X108349Y55984D01*
X108371Y56053D01*
X108407Y56133D01*
X108451Y56213D01*
X108506Y56290D01*
X108575Y56359D01*
X108578Y56362D01*
X108586Y56366D01*
X108597Y56373D01*
X108611Y56384D01*
X108629Y56399D01*
X108655Y56413D01*
X108680Y56428D01*
X108713Y56446D01*
X108786Y56475D01*
X108870Y56504D01*
X108968Y56523D01*
X109019Y56530D01*
X109110D01*
X109150Y56526D01*
D02*
G37*
D20*
X142842Y162157D02*
Y181843D01*
X123158D02*
X142842D01*
X123158Y162157D02*
Y181843D01*
Y162157D02*
X142842D01*
X298000Y269500D02*
X301000D01*
X299500Y268000D02*
Y271000D01*
X288000Y269500D02*
X291000D01*
X289500Y268000D02*
Y271000D01*
X453000Y240500D02*
X456000D01*
X454500Y239000D02*
Y242000D01*
X453000Y260500D02*
X456000D01*
X454500Y259000D02*
Y262000D01*
X453000Y250500D02*
X456000D01*
X454500Y249000D02*
Y252000D01*
X38244Y125709D02*
X42378D01*
X40311Y123643D02*
Y127776D01*
X59504Y125709D02*
X63638D01*
X61571Y123642D02*
Y127776D01*
X49663Y46969D02*
X53796D01*
X51730Y44902D02*
Y49036D01*
X71984Y66654D02*
X76118D01*
X74051Y64588D02*
Y68721D01*
X71984Y106025D02*
X76118D01*
X74051Y103958D02*
Y108091D01*
X72181Y136732D02*
X75921D01*
X74051Y134862D02*
Y138603D01*
X71984Y145395D02*
X76118D01*
X74051Y143328D02*
Y147461D01*
X72181Y155237D02*
X75921D01*
X74051Y153366D02*
Y157107D01*
X72181Y174922D02*
X75921D01*
X74051Y173051D02*
Y176792D01*
X71984Y184765D02*
X76118D01*
X74051Y182698D02*
Y186831D01*
X63047Y193031D02*
X66788D01*
X64917Y191161D02*
Y194901D01*
X44149Y193031D02*
X47890D01*
X46020Y191161D02*
Y194901D01*
X25251Y193031D02*
X28992D01*
X27121Y191161D02*
Y194901D01*
X16079Y174921D02*
X19819D01*
X17949Y173051D02*
Y176791D01*
X16276Y165079D02*
X19623D01*
X17949Y163406D02*
Y166752D01*
X16079Y155236D02*
X19819D01*
X17949Y153366D02*
Y157106D01*
X16079Y136732D02*
X19819D01*
X17949Y134862D02*
Y138602D01*
X15882Y125709D02*
X20016D01*
X17949Y123642D02*
Y127776D01*
X15882Y86339D02*
X20016D01*
X17949Y84272D02*
Y88406D01*
X15883Y46969D02*
X20016D01*
X17950Y44902D02*
Y49036D01*
X400883Y46969D02*
X405016D01*
X402949Y44902D02*
Y49036D01*
X400882Y86339D02*
X405016D01*
X402949Y84272D02*
Y88406D01*
X400882Y125709D02*
X405016D01*
X402949Y123642D02*
Y127776D01*
X401079Y136732D02*
X404819D01*
X402949Y134862D02*
Y138602D01*
X401079Y155236D02*
X404819D01*
X402949Y153366D02*
Y157106D01*
X401276Y165079D02*
X404623D01*
X402949Y163406D02*
Y166752D01*
X401079Y174921D02*
X404819D01*
X402949Y173051D02*
Y176791D01*
X410251Y193031D02*
X413992D01*
X412121Y191161D02*
Y194901D01*
X429149Y193031D02*
X432890D01*
X431019Y191161D02*
Y194901D01*
X448047Y193031D02*
X451788D01*
X449918Y191161D02*
Y194901D01*
X456984Y184765D02*
X461118D01*
X459051Y182698D02*
Y186831D01*
X457181Y174922D02*
X460921D01*
X459051Y173051D02*
Y176792D01*
X457181Y155237D02*
X460921D01*
X459051Y153366D02*
Y157107D01*
X456984Y145395D02*
X461118D01*
X459051Y143328D02*
Y147461D01*
X457181Y136732D02*
X460921D01*
X459051Y134862D02*
Y138603D01*
X456984Y106025D02*
X461118D01*
X459051Y103958D02*
Y108091D01*
X456985Y66654D02*
X461118D01*
X459051Y64588D02*
Y68721D01*
X434663Y46969D02*
X438796D01*
X436729Y44902D02*
Y49036D01*
X444504Y125709D02*
X448638D01*
X446571Y123642D02*
Y127776D01*
X423244Y125709D02*
X427378D01*
X425311Y123643D02*
Y127776D01*
X54788Y260733D02*
X57938D01*
X56363Y259158D02*
Y262308D01*
X37061Y272746D02*
X40211D01*
X38636Y271171D02*
Y274321D01*
X54657Y284441D02*
X57807D01*
X56232Y282867D02*
Y286016D01*
X215318Y22542D02*
X228192D01*
X221755Y16105D02*
Y28979D01*
X164945Y22199D02*
X177819D01*
X171382Y15762D02*
Y28636D01*
X226304Y36003D02*
X230241D01*
X228272Y34035D02*
Y37972D01*
X162679Y36003D02*
X166615D01*
X164647Y34035D02*
Y37972D01*
X167899Y58551D02*
X171049D01*
X169474Y56976D02*
Y60126D01*
X176935Y58428D02*
X180085D01*
X178510Y56853D02*
Y60003D01*
X213077Y58551D02*
X216227D01*
X214652Y56976D02*
Y60126D01*
X221989Y58551D02*
X225139D01*
X223564Y56976D02*
Y60126D01*
X180867Y39429D02*
X184017D01*
X182442Y37854D02*
Y41004D01*
X184934Y32483D02*
X188084D01*
X186509Y30908D02*
Y34058D01*
X189006Y39446D02*
X192156D01*
X190581Y37871D02*
Y41021D01*
X193116Y32693D02*
X196266D01*
X194691Y31118D02*
Y34268D01*
X197013Y39511D02*
X200163D01*
X198588Y37936D02*
Y41086D01*
X201029Y32353D02*
X204179D01*
X202604Y30778D02*
Y33928D01*
X205020Y39429D02*
X208170D01*
X206595Y37854D02*
Y41004D01*
X209004Y32468D02*
X212154D01*
X210579Y30893D02*
Y34043D01*
X292318Y22542D02*
X305192D01*
X298755Y16105D02*
Y28979D01*
X241945Y22199D02*
X254819D01*
X248382Y15762D02*
Y28636D01*
X303304Y36003D02*
X307241D01*
X305272Y34035D02*
Y37972D01*
X239679Y36003D02*
X243616D01*
X241647Y34035D02*
Y37972D01*
X244899Y58551D02*
X248049D01*
X246474Y56976D02*
Y60126D01*
X253935Y58428D02*
X257085D01*
X255510Y56853D02*
Y60003D01*
X290077Y58551D02*
X293227D01*
X291652Y56976D02*
Y60126D01*
X298989Y58551D02*
X302139D01*
X300564Y56976D02*
Y60126D01*
X257867Y39429D02*
X261017D01*
X259442Y37854D02*
Y41004D01*
X261934Y32483D02*
X265084D01*
X263509Y30908D02*
Y34058D01*
X266006Y39446D02*
X269156D01*
X267581Y37871D02*
Y41021D01*
X270116Y32693D02*
X273266D01*
X271691Y31118D02*
Y34268D01*
X274013Y39511D02*
X277163D01*
X275588Y37936D02*
Y41086D01*
X278029Y32353D02*
X281179D01*
X279604Y30778D02*
Y33928D01*
X282020Y39429D02*
X285170D01*
X283595Y37854D02*
Y41004D01*
X286004Y32468D02*
X289154D01*
X287579Y30893D02*
Y34043D01*
X370818Y22542D02*
X383692D01*
X377255Y16105D02*
Y28979D01*
X320445Y22199D02*
X333319D01*
X326882Y15762D02*
Y28636D01*
X381803Y36003D02*
X385740D01*
X383772Y34035D02*
Y37972D01*
X318179Y36003D02*
X322115D01*
X320147Y34035D02*
Y37972D01*
X323399Y58551D02*
X326549D01*
X324974Y56976D02*
Y60126D01*
X332435Y58428D02*
X335585D01*
X334010Y56853D02*
Y60003D01*
X368577Y58551D02*
X371727D01*
X370152Y56976D02*
Y60126D01*
X377489Y58551D02*
X380639D01*
X379064Y56976D02*
Y60126D01*
X336367Y39429D02*
X339517D01*
X337942Y37854D02*
Y41004D01*
X340434Y32483D02*
X343584D01*
X342009Y30908D02*
Y34058D01*
X344506Y39446D02*
X347656D01*
X346081Y37871D02*
Y41021D01*
X348616Y32693D02*
X351766D01*
X350191Y31118D02*
Y34268D01*
X352513Y39511D02*
X355663D01*
X354088Y37936D02*
Y41086D01*
X356529Y32353D02*
X359679D01*
X358104Y30778D02*
Y33928D01*
X360520Y39429D02*
X363670D01*
X362095Y37854D02*
Y41004D01*
X364504Y32468D02*
X367654D01*
X366079Y30893D02*
Y34043D01*
X134318Y22542D02*
X147192D01*
X140755Y16105D02*
Y28979D01*
X83945Y22199D02*
X96819D01*
X90382Y15762D02*
Y28636D01*
X145303Y36003D02*
X149241D01*
X147272Y34035D02*
Y37972D01*
X81678Y36003D02*
X85615D01*
X83647Y34035D02*
Y37972D01*
X86899Y58551D02*
X90049D01*
X88474Y56976D02*
Y60126D01*
X95935Y58428D02*
X99085D01*
X97510Y56853D02*
Y60003D01*
X132077Y58551D02*
X135227D01*
X133652Y56976D02*
Y60126D01*
X140989Y58551D02*
X144139D01*
X142564Y56976D02*
Y60126D01*
X99867Y39429D02*
X103017D01*
X101442Y37854D02*
Y41004D01*
X103934Y32483D02*
X107084D01*
X105509Y30908D02*
Y34058D01*
X108006Y39446D02*
X111156D01*
X109581Y37871D02*
Y41021D01*
X112116Y32693D02*
X115266D01*
X113691Y31118D02*
Y34268D01*
X116013Y39511D02*
X119163D01*
X117588Y37936D02*
Y41086D01*
X120029Y32353D02*
X123179D01*
X121604Y30778D02*
Y33928D01*
X124020Y39429D02*
X127170D01*
X125595Y37854D02*
Y41004D01*
X128004Y32468D02*
X131154D01*
X129579Y30893D02*
Y34043D01*
X346000Y69500D02*
X349000D01*
X347500Y68000D02*
Y71000D01*
X326000Y69500D02*
X329000D01*
X327500Y68000D02*
Y71000D01*
X267000Y69500D02*
X270000D01*
X268500Y68000D02*
Y71000D01*
X247000Y69500D02*
X250000D01*
X248500Y68000D02*
Y71000D01*
X188000Y69500D02*
X191000D01*
X189500Y68000D02*
Y71000D01*
X168000Y69500D02*
X171000D01*
X169500Y68000D02*
Y71000D01*
X109000Y69500D02*
X112000D01*
X110500Y68000D02*
Y71000D01*
X89000Y69500D02*
X92000D01*
X90500Y68000D02*
Y71000D01*
X468000Y123500D02*
X471000D01*
X469500Y122000D02*
Y125000D01*
X468000Y113500D02*
X471000D01*
X469500Y112000D02*
Y115000D01*
X468000Y103500D02*
X471000D01*
X469500Y102000D02*
Y105000D01*
X468000Y93500D02*
X471000D01*
X469500Y92000D02*
Y95000D01*
X468000Y33500D02*
X471000D01*
X469500Y32000D02*
Y35000D01*
X468000Y43500D02*
X471000D01*
X469500Y42000D02*
Y45000D01*
X468000Y53500D02*
X471000D01*
X469500Y52000D02*
Y55000D01*
X468000Y63500D02*
X471000D01*
X469500Y62000D02*
Y65000D01*
X468000Y73500D02*
X471000D01*
X469500Y72000D02*
Y75000D01*
X468000Y83500D02*
X471000D01*
X469500Y82000D02*
Y85000D01*
X4000Y39000D02*
X7000D01*
X5500Y37500D02*
Y40500D01*
X4000Y49000D02*
X7000D01*
X5500Y47500D02*
Y50500D01*
X4000Y59000D02*
X7000D01*
X5500Y57500D02*
Y60500D01*
X4000Y69000D02*
X7000D01*
X5500Y67500D02*
Y70500D01*
X4000Y129000D02*
X7000D01*
X5500Y127500D02*
Y130500D01*
X4000Y119000D02*
X7000D01*
X5500Y117500D02*
Y120500D01*
X4000Y109000D02*
X7000D01*
X5500Y107500D02*
Y110500D01*
X4000Y99000D02*
X7000D01*
X5500Y97500D02*
Y100500D01*
X4000Y89000D02*
X7000D01*
X5500Y87500D02*
Y90500D01*
X4000Y79000D02*
X7000D01*
X5500Y77500D02*
Y80500D01*
X100508Y148500D02*
X101492D01*
X101000Y148008D02*
Y148992D01*
X176508Y7500D02*
X177492D01*
X177000Y7008D02*
Y7992D01*
X25008Y241500D02*
X25992D01*
X25500Y241008D02*
Y241992D01*
X73508Y123500D02*
X74492D01*
X74000Y123008D02*
Y123992D01*
X59008Y211500D02*
X59992D01*
X59500Y211008D02*
Y211992D01*
X21008Y211500D02*
X21992D01*
X21500Y211008D02*
Y211992D01*
X62508Y232500D02*
X63492D01*
X63000Y232008D02*
Y232992D01*
X198508Y299500D02*
X199492D01*
X199000Y299008D02*
Y299992D01*
X96508Y233000D02*
X97492D01*
X97000Y232508D02*
Y233492D01*
X100508Y176000D02*
X101492D01*
X101000Y175508D02*
Y176492D01*
X202008Y251500D02*
X202992D01*
X202500Y251008D02*
Y251992D01*
X178508Y251500D02*
X179492D01*
X179000Y251008D02*
Y251992D01*
X417008Y246500D02*
X417992D01*
X417500Y246008D02*
Y246992D01*
X257508Y233500D02*
X258492D01*
X258000Y233008D02*
Y233992D01*
X202508Y231500D02*
X203492D01*
X203000Y231008D02*
Y231992D01*
X437008Y234000D02*
X437992D01*
X437500Y233508D02*
Y234492D01*
X169008Y229500D02*
X169992D01*
X169500Y229008D02*
Y229992D01*
X224008Y250500D02*
X224992D01*
X224500Y250008D02*
Y250992D01*
X275508Y262500D02*
X276492D01*
X276000Y262008D02*
Y262992D01*
X338008Y228500D02*
X338992D01*
X338500Y228008D02*
Y228992D01*
X252508Y218500D02*
X253492D01*
X253000Y218008D02*
Y218992D01*
X233508Y253000D02*
X234492D01*
X234000Y252508D02*
Y253492D01*
X227008Y219000D02*
X227992D01*
X227500Y218508D02*
Y219492D01*
X185008Y177000D02*
X185992D01*
X185500Y176508D02*
Y177492D01*
X206508Y175500D02*
X207492D01*
X207000Y175008D02*
Y175992D01*
X211508Y200500D02*
X212492D01*
X212000Y200008D02*
Y200992D01*
X209508Y209500D02*
X210492D01*
X210000Y209008D02*
Y209992D01*
X103008Y162000D02*
X103992D01*
X103500Y161508D02*
Y162492D01*
X208008Y187500D02*
X208992D01*
X208500Y187008D02*
Y187992D01*
X159008Y142000D02*
X159992D01*
X159500Y141508D02*
Y142492D01*
X358508Y134500D02*
X359492D01*
X359000Y134008D02*
Y134992D01*
X319508Y138000D02*
X320492D01*
X320000Y137508D02*
Y138492D01*
X117008Y144000D02*
X117992D01*
X117500Y143508D02*
Y144492D01*
X152508Y149000D02*
X153492D01*
X153000Y148508D02*
Y149492D01*
X140508Y136500D02*
X141492D01*
X141000Y136008D02*
Y136992D01*
X192008Y174500D02*
X192992D01*
X192500Y174008D02*
Y174992D01*
X170008Y162000D02*
X170992D01*
X170500Y161508D02*
Y162492D01*
X254508Y187000D02*
X255492D01*
X255000Y186508D02*
Y187492D01*
X347508Y159500D02*
X348492D01*
X348000Y159008D02*
Y159992D01*
X374508Y159500D02*
X375492D01*
X375000Y159008D02*
Y159992D01*
X178508Y161500D02*
X179492D01*
X179000Y161008D02*
Y161992D01*
X276008Y152000D02*
X276992D01*
X276500Y151508D02*
Y152492D01*
X257508Y145000D02*
X258492D01*
X258000Y144508D02*
Y145492D01*
X276508Y139500D02*
X277492D01*
X277000Y139008D02*
Y139992D01*
X258508Y157000D02*
X259492D01*
X259000Y156508D02*
Y157492D01*
X230008Y168000D02*
X230992D01*
X230500Y167508D02*
Y168492D01*
X242508Y180500D02*
X243492D01*
X243000Y180008D02*
Y180992D01*
X208008Y141500D02*
X208992D01*
X208500Y141008D02*
Y141992D01*
X192008Y139500D02*
X192992D01*
X192500Y139008D02*
Y139992D01*
X224508Y202000D02*
X225492D01*
X225000Y201508D02*
Y202492D01*
X200008Y151500D02*
X200992D01*
X200500Y151008D02*
Y151992D01*
X104508Y292000D02*
X105492D01*
X105000Y291508D02*
Y292492D01*
X97508Y292500D02*
X98492D01*
X98000Y292008D02*
Y292992D01*
X90008Y292500D02*
X90992D01*
X90500Y292008D02*
Y292992D01*
X82008Y292500D02*
X82992D01*
X82500Y292008D02*
Y292992D01*
X104508Y302500D02*
X105492D01*
X105000Y302008D02*
Y302992D01*
X97008Y302500D02*
X97992D01*
X97500Y302008D02*
Y302992D01*
X89508Y302500D02*
X90492D01*
X90000Y302008D02*
Y302992D01*
X82008Y302500D02*
X82992D01*
X82500Y302008D02*
Y302992D01*
X128008Y287500D02*
X128992D01*
X128500Y287008D02*
Y287992D01*
X121008Y287500D02*
X121992D01*
X121500Y287008D02*
Y287992D01*
X128008Y297500D02*
X128992D01*
X128500Y297008D02*
Y297992D01*
X121008Y297500D02*
X121992D01*
X121500Y297008D02*
Y297992D01*
X209008Y267500D02*
X209992D01*
X209500Y267008D02*
Y267992D01*
X363508Y183500D02*
X364492D01*
X364000Y183008D02*
Y183992D01*
X355941Y181067D02*
X356925D01*
X356433Y180575D02*
Y181559D01*
X353524Y185500D02*
X354508D01*
X354016Y185008D02*
Y185992D01*
X366508Y190500D02*
X367492D01*
X367000Y190008D02*
Y190992D01*
X157508Y250000D02*
X158492D01*
X158000Y249508D02*
Y250492D01*
X80008Y252000D02*
X80992D01*
X80500Y251508D02*
Y252492D01*
X454508Y221000D02*
X455492D01*
X455000Y220508D02*
Y221492D01*
X456508Y207000D02*
X457492D01*
X457000Y206508D02*
Y207492D01*
X458508Y221000D02*
X459492D01*
X459000Y220508D02*
Y221492D01*
X456508Y203500D02*
X457492D01*
X457000Y203008D02*
Y203992D01*
X35008Y194000D02*
X35992D01*
X35500Y193508D02*
Y194492D01*
X37008Y211500D02*
X37992D01*
X37500Y211008D02*
Y211992D01*
X363008Y234500D02*
X363992D01*
X363500Y234008D02*
Y234992D01*
X391280Y263272D02*
X392264D01*
X391772Y262779D02*
Y263764D01*
X446158Y167685D02*
X453638D01*
X449898Y163945D02*
Y171425D01*
X408362Y167685D02*
X415842D01*
X412102Y163945D02*
Y171425D01*
X23362Y167685D02*
X30843D01*
X27102Y163945D02*
Y171425D01*
X61158Y167685D02*
X68638D01*
X64898Y163945D02*
Y171425D01*
X113508Y252000D02*
X114492D01*
X114000Y251508D02*
Y252492D01*
X351008Y268937D02*
X351992D01*
X351500Y268445D02*
Y269429D01*
X28780Y139228D02*
X29764D01*
X29272Y138736D02*
Y139720D01*
X439168Y145500D02*
X440152D01*
X439660Y145008D02*
Y145992D01*
X432870Y145500D02*
X433854D01*
X433362Y145008D02*
Y145992D01*
X429720Y143500D02*
X430705D01*
X430213Y143008D02*
Y143992D01*
X426571Y145512D02*
X427555D01*
X427063Y145020D02*
Y146004D01*
X420272Y145512D02*
X421256D01*
X420764Y145020D02*
Y146004D01*
X444236Y136728D02*
X445221D01*
X444728Y136236D02*
Y137221D01*
X54168Y146340D02*
X55152D01*
X54660Y145848D02*
Y146832D01*
X47870Y146500D02*
X48854D01*
X48362Y146008D02*
Y146992D01*
X44721Y145500D02*
X45705D01*
X45213Y145008D02*
Y145992D01*
X41571Y146500D02*
X42555D01*
X42063Y146008D02*
Y146992D01*
X35272Y146500D02*
X36256D01*
X35764Y146008D02*
Y146992D01*
X343673Y173500D02*
X344657D01*
X344165Y173008D02*
Y173992D01*
X411008Y200500D02*
X411992D01*
X411500Y200008D02*
Y200992D01*
X337779Y220272D02*
X338764D01*
X338272Y219779D02*
Y220764D01*
X101508Y207500D02*
X102492D01*
X102000Y207008D02*
Y207992D01*
X49508Y189000D02*
X50492D01*
X50000Y188508D02*
Y189492D01*
X432508Y177500D02*
X433492D01*
X433000Y177008D02*
Y177992D01*
X427008Y177500D02*
X427992D01*
X427500Y177008D02*
Y177992D01*
X42008Y177500D02*
X42992D01*
X42500Y177008D02*
Y177992D01*
X47508Y177500D02*
X48492D01*
X48000Y177008D02*
Y177992D01*
X115008Y207500D02*
X115992D01*
X115500Y207008D02*
Y207992D01*
X136008Y191500D02*
X136992D01*
X136500Y191008D02*
Y191992D01*
X166445Y211063D02*
X167429D01*
X166937Y210571D02*
Y211555D01*
X118236Y189272D02*
X119220D01*
X118728Y188779D02*
Y189764D01*
X135508Y177500D02*
X136492D01*
X136000Y177008D02*
Y177992D01*
X146008Y152000D02*
X146992D01*
X146500Y151508D02*
Y152492D01*
X133008Y167000D02*
X133992D01*
X133500Y166508D02*
Y167492D01*
X128008Y166500D02*
X128992D01*
X128500Y166008D02*
Y166992D01*
X131008Y169500D02*
X131992D01*
X131500Y169008D02*
Y169992D01*
X130508Y176000D02*
X131492D01*
X131000Y175508D02*
Y176492D01*
X136508Y175000D02*
X137492D01*
X137000Y174508D02*
Y175492D01*
X445468Y157540D02*
X446452D01*
X445960Y157048D02*
Y158032D01*
X442318Y159000D02*
X443302D01*
X442810Y158508D02*
Y159492D01*
X417008Y157000D02*
X417992D01*
X417500Y156508D02*
Y157492D01*
X434445Y188937D02*
X435429D01*
X434937Y188445D02*
Y189429D01*
X424998Y188990D02*
X425982D01*
X425490Y188498D02*
Y189482D01*
X435236Y170728D02*
X436221D01*
X435728Y170236D02*
Y171221D01*
X427008Y168000D02*
X427992D01*
X427500Y167508D02*
Y168492D01*
X443894Y189114D02*
X444878D01*
X444386Y188622D02*
Y189606D01*
X412183Y183825D02*
X413167D01*
X412675Y183333D02*
Y184317D01*
X448008Y200500D02*
X448992D01*
X448500Y200008D02*
Y200992D01*
X429508Y200500D02*
X430492D01*
X430000Y200008D02*
Y200992D01*
X373508Y234500D02*
X374492D01*
X374000Y234008D02*
Y234992D01*
X35008Y197500D02*
X35992D01*
X35500Y197008D02*
Y197992D01*
X150008Y292500D02*
X150992D01*
X150500Y292008D02*
Y292992D01*
X150008Y274000D02*
X150992D01*
X150500Y273508D02*
Y274492D01*
X209508Y299000D02*
X210492D01*
X210000Y298508D02*
Y299492D01*
X185508Y307500D02*
X186492D01*
X186000Y307008D02*
Y307992D01*
X223508Y295500D02*
X224492D01*
X224000Y295008D02*
Y295992D01*
X218008Y295500D02*
X218992D01*
X218500Y295008D02*
Y295992D01*
X263236Y263772D02*
X264220D01*
X263728Y263280D02*
Y264264D01*
X269008Y165500D02*
X269992D01*
X269500Y165008D02*
Y165992D01*
X280547Y161461D02*
X281532D01*
X281039Y160968D02*
Y161953D01*
X151008Y163500D02*
X151992D01*
X151500Y163008D02*
Y163992D01*
X158008Y199000D02*
X158992D01*
X158500Y198508D02*
Y199492D01*
X163008Y186000D02*
X163992D01*
X163500Y185508D02*
Y186492D01*
X149961Y201453D02*
X150945D01*
X150453Y200961D02*
Y201945D01*
X123508Y201500D02*
X124492D01*
X124000Y201008D02*
Y201992D01*
X88008Y252000D02*
X88992D01*
X88500Y251508D02*
Y252492D01*
X82508Y151500D02*
X83492D01*
X83000Y151008D02*
Y151992D01*
X79008Y166772D02*
X79992D01*
X79500Y166279D02*
Y167264D01*
X62008Y186500D02*
X62992D01*
X62500Y186008D02*
Y186992D01*
X47508Y168000D02*
X48492D01*
X48000Y167508D02*
Y168492D01*
X42008Y168000D02*
X42992D01*
X42500Y167508D02*
Y168492D01*
X63008Y152000D02*
X63992D01*
X63500Y151508D02*
Y152492D01*
X57318Y157810D02*
X58302D01*
X57810Y157318D02*
Y158302D01*
X32122Y157810D02*
X33106D01*
X32614Y157318D02*
Y158302D01*
X130008Y142500D02*
X130992D01*
X130500Y142008D02*
Y142992D01*
X139779Y146000D02*
X140764D01*
X140272Y145508D02*
Y146492D01*
X414508Y209000D02*
X415492D01*
X415000Y208508D02*
Y209492D01*
X132008Y82000D02*
X132992D01*
X132500Y81508D02*
Y82492D01*
X127008Y82000D02*
X127992D01*
X127500Y81508D02*
Y82492D01*
X102008Y82000D02*
X102992D01*
X102500Y81508D02*
Y82492D01*
X97008Y82000D02*
X97992D01*
X97500Y81508D02*
Y82492D01*
X271008Y193862D02*
X271992D01*
X271500Y193370D02*
Y194354D01*
X271008Y181264D02*
X271992D01*
X271500Y180772D02*
Y181756D01*
X211008Y82000D02*
X211992D01*
X211500Y81508D02*
Y82492D01*
X206008Y82000D02*
X206992D01*
X206500Y81508D02*
Y82492D01*
X181008Y82000D02*
X181992D01*
X181500Y81508D02*
Y82492D01*
X176008Y82000D02*
X176992D01*
X176500Y81508D02*
Y82492D01*
X290008Y82000D02*
X290992D01*
X290500Y81508D02*
Y82492D01*
X285008Y82000D02*
X285992D01*
X285500Y81508D02*
Y82492D01*
X260008Y82000D02*
X260992D01*
X260500Y81508D02*
Y82492D01*
X255008Y82000D02*
X255992D01*
X255500Y81508D02*
Y82492D01*
X334008Y82000D02*
X334992D01*
X334500Y81508D02*
Y82492D01*
X339008Y82000D02*
X339992D01*
X339500Y81508D02*
Y82492D01*
X369008Y82000D02*
X369992D01*
X369500Y81508D02*
Y82492D01*
X364008Y82000D02*
X364992D01*
X364500Y81508D02*
Y82492D01*
X194008Y224000D02*
X194992D01*
X194500Y223508D02*
Y224492D01*
X194008Y219000D02*
X194992D01*
X194500Y218508D02*
Y219492D01*
X194008Y214000D02*
X194992D01*
X194500Y213508D02*
Y214492D01*
X194008Y209000D02*
X194992D01*
X194500Y208508D02*
Y209492D01*
X194008Y204000D02*
X194992D01*
X194500Y203508D02*
Y204492D01*
X194008Y199000D02*
X194992D01*
X194500Y198508D02*
Y199492D01*
X194008Y194000D02*
X194992D01*
X194500Y193508D02*
Y194492D01*
X194008Y189000D02*
X194992D01*
X194500Y188508D02*
Y189492D01*
X186008Y297500D02*
X186992D01*
X186500Y297008D02*
Y297992D01*
X128008Y155500D02*
X128992D01*
X128500Y155008D02*
Y155992D01*
X133008Y154500D02*
X133992D01*
X133500Y154008D02*
Y154992D01*
X130146Y152500D02*
X131130D01*
X130638Y152008D02*
Y152992D01*
X118370Y169638D02*
X119354D01*
X118862Y169146D02*
Y170130D01*
X120008Y164000D02*
X120992D01*
X120500Y163508D02*
Y164492D01*
X137008Y187000D02*
X137992D01*
X137500Y186508D02*
Y187492D01*
X122508Y182000D02*
X123492D01*
X123000Y181508D02*
Y182492D01*
X144008Y211000D02*
X144992D01*
X144500Y210508D02*
Y211492D01*
X126008Y186000D02*
X126992D01*
X126500Y185508D02*
Y186492D01*
X148508Y175000D02*
X149492D01*
X149000Y174508D02*
Y175492D01*
X146008Y163500D02*
X146992D01*
X146500Y163008D02*
Y163992D01*
X150736Y229272D02*
X151720D01*
X151228Y228780D02*
Y229764D01*
X316008Y169000D02*
X316992D01*
X316500Y168508D02*
Y169492D01*
X305146Y216039D02*
X306130D01*
X305638Y215547D02*
Y216531D01*
X259744Y257236D02*
X260728D01*
X260236Y256744D02*
Y257728D01*
X292547Y216039D02*
X293531D01*
X293039Y215547D02*
Y216531D01*
X271008Y171815D02*
X271992D01*
X271500Y171323D02*
Y172307D01*
X271008Y187563D02*
X271992D01*
X271500Y187071D02*
Y188055D01*
X331508Y204500D02*
X332492D01*
X332000Y204008D02*
Y204992D01*
X331508Y209500D02*
X332492D01*
X332000Y209008D02*
Y209992D01*
X343508Y207000D02*
X344492D01*
X344000Y206508D02*
Y207492D01*
X324279Y215272D02*
X325264D01*
X324772Y214779D02*
Y215764D01*
X330343Y215665D02*
X331327D01*
X330835Y215173D02*
Y216158D01*
X343508Y211500D02*
X344492D01*
X344000Y211008D02*
Y211992D01*
X327193Y213815D02*
X328177D01*
X327685Y213323D02*
Y214307D01*
X331618Y173390D02*
X332602D01*
X332110Y172898D02*
Y173882D01*
X337547Y165539D02*
X338531D01*
X338039Y165047D02*
Y166032D01*
X311008Y169000D02*
X311992D01*
X311500Y168508D02*
Y169492D01*
X321008Y169000D02*
X321992D01*
X321500Y168508D02*
Y169492D01*
X306008Y169000D02*
X306992D01*
X306500Y168508D02*
Y169492D01*
X301008Y169000D02*
X301992D01*
X301500Y168508D02*
Y169492D01*
X296008Y169000D02*
X296992D01*
X296500Y168508D02*
Y169492D01*
X291008Y169000D02*
X291992D01*
X291500Y168508D02*
Y169492D01*
X278008Y165500D02*
X278992D01*
X278500Y165008D02*
Y165992D01*
X286736Y176772D02*
X287720D01*
X287228Y176279D02*
Y177264D01*
X284008Y185000D02*
X284992D01*
X284500Y184508D02*
Y185492D01*
X284008Y190000D02*
X284992D01*
X284500Y189508D02*
Y190492D01*
X284008Y198500D02*
X284992D01*
X284500Y198008D02*
Y198992D01*
X284008Y205000D02*
X284992D01*
X284500Y204508D02*
Y205492D01*
X285008Y216000D02*
X285992D01*
X285500Y215508D02*
Y216492D01*
X332008Y183500D02*
X332992D01*
X332500Y183008D02*
Y183992D01*
X332008Y178500D02*
X332992D01*
X332500Y178008D02*
Y178992D01*
X345508Y178114D02*
X346492D01*
X346000Y177622D02*
Y178606D01*
X343508Y181000D02*
X344492D01*
X344000Y180508D02*
Y181492D01*
X345508Y183500D02*
X346492D01*
X346000Y183008D02*
Y183992D01*
X281547Y221539D02*
X282531D01*
X282039Y221047D02*
Y222031D01*
X392008Y240000D02*
X392992D01*
X392500Y239508D02*
Y240492D01*
X389508Y251500D02*
X390492D01*
X390000Y251008D02*
Y251992D01*
X392008Y248000D02*
X392992D01*
X392500Y247508D02*
Y248492D01*
X387008Y254000D02*
X387992D01*
X387500Y253508D02*
Y254492D01*
X385008Y256500D02*
X385992D01*
X385500Y256008D02*
Y256992D01*
X293508Y227000D02*
X294492D01*
X294000Y226508D02*
Y227492D01*
X301008Y230500D02*
X301992D01*
X301500Y230008D02*
Y230992D01*
X285508Y246500D02*
X286492D01*
X286000Y246008D02*
Y246992D01*
X151008Y173000D02*
X151992D01*
X151500Y172508D02*
Y173492D01*
X363508Y227500D02*
X364492D01*
X364000Y227008D02*
Y227992D01*
X309870Y156000D02*
X310854D01*
X310362Y155508D02*
Y156492D01*
X300421Y154587D02*
X301406D01*
X300914Y154094D02*
Y155079D01*
X319319Y154811D02*
X320303D01*
X319811Y154319D02*
Y155303D01*
X343673Y168665D02*
X344657D01*
X344165Y168173D02*
Y169158D01*
X394008Y245276D02*
X394992D01*
X394500Y244783D02*
Y245768D01*
X395508Y234000D02*
X396492D01*
X396000Y233508D02*
Y234492D01*
X398736Y232228D02*
X399721D01*
X399228Y231736D02*
Y232720D01*
X104508Y172000D02*
X105492D01*
X105000Y171508D02*
Y172492D01*
X100508Y194500D02*
X101492D01*
X101000Y194008D02*
Y194992D01*
X186008Y302500D02*
X186992D01*
X186500Y302008D02*
Y302992D01*
X293008Y198500D02*
X293992D01*
X293500Y198008D02*
Y198992D01*
X293008Y205000D02*
X293992D01*
X293500Y204508D02*
Y205492D01*
X293008Y190000D02*
X293992D01*
X293500Y189508D02*
Y190492D01*
X293008Y185000D02*
X293992D01*
X293500Y184508D02*
Y185492D01*
X293008Y179500D02*
X293992D01*
X293500Y179008D02*
Y179992D01*
X296008Y178000D02*
X296992D01*
X296500Y177508D02*
Y178492D01*
X301008Y178000D02*
X301992D01*
X301500Y177508D02*
Y178492D01*
X306008Y178000D02*
X306992D01*
X306500Y177508D02*
Y178492D01*
X311008Y178000D02*
X311992D01*
X311500Y177508D02*
Y178492D01*
X316008Y178000D02*
X316992D01*
X316500Y177508D02*
Y178492D01*
X321008Y178000D02*
X321992D01*
X321500Y177508D02*
Y178492D01*
X325736Y186228D02*
X326720D01*
X326228Y185736D02*
Y186721D01*
X325736Y169272D02*
X326720D01*
X326228Y168780D02*
Y169764D01*
X325736Y201772D02*
X326720D01*
X326228Y201279D02*
Y202264D01*
X321008Y207000D02*
X321992D01*
X321500Y206508D02*
Y207492D01*
X305008Y207000D02*
X305992D01*
X305500Y206508D02*
Y207492D01*
X295236Y209728D02*
X296220D01*
X295728Y209236D02*
Y210221D01*
X271008Y212760D02*
X271992D01*
X271500Y212268D02*
Y213252D01*
X271008Y203311D02*
X271992D01*
X271500Y202819D02*
Y203803D01*
X334508Y161461D02*
X335492D01*
X335000Y160968D02*
Y161953D01*
X360008Y179500D02*
X360992D01*
X360500Y179008D02*
Y179992D01*
X374508Y213000D02*
X375492D01*
X375000Y212508D02*
Y213492D01*
X377258Y221250D02*
X378242D01*
X377750Y220758D02*
Y221742D01*
X405780Y235772D02*
X406764D01*
X406272Y235279D02*
Y236264D01*
X385008Y266500D02*
X385992D01*
X385500Y266008D02*
Y266992D01*
X316008Y257000D02*
X316992D01*
X316500Y256508D02*
Y257492D01*
X300677Y255669D02*
X301661D01*
X301169Y255177D02*
Y256161D01*
X308008Y240000D02*
X308992D01*
X308500Y239508D02*
Y240492D01*
X293508Y251000D02*
X294492D01*
X294000Y250508D02*
Y251492D01*
X279236Y250500D02*
X280221D01*
X279728Y250008D02*
Y250992D01*
X285508Y256500D02*
X286492D01*
X286000Y256008D02*
Y256992D01*
X276008Y239500D02*
X276992D01*
X276500Y239008D02*
Y239992D01*
X276008Y244500D02*
X276992D01*
X276500Y244008D02*
Y244992D01*
X272779Y253500D02*
X273764D01*
X273272Y253008D02*
Y253992D01*
X233508Y239500D02*
X234492D01*
X234000Y239008D02*
Y239992D01*
X111008Y164000D02*
X111992D01*
X111500Y163508D02*
Y164492D01*
X28183Y183825D02*
X29167D01*
X28675Y183333D02*
Y184317D01*
X40008Y189000D02*
X40992D01*
X40500Y188508D02*
Y189492D01*
X88508Y195500D02*
X89492D01*
X89000Y195008D02*
Y195992D01*
X88508Y190500D02*
X89492D01*
X89000Y190008D02*
Y190992D01*
X106008Y194500D02*
X106992D01*
X106500Y194008D02*
Y194992D01*
X90236Y163228D02*
X91220D01*
X90728Y162736D02*
Y163721D01*
X90280Y158772D02*
X91264D01*
X90772Y158280D02*
Y159264D01*
X87508Y170500D02*
X88492D01*
X88000Y170008D02*
Y170992D01*
X87508Y151500D02*
X88492D01*
X88000Y151008D02*
Y151992D01*
X85780Y182228D02*
X86764D01*
X86272Y181736D02*
Y182720D01*
X85780Y203772D02*
X86764D01*
X86272Y203279D02*
Y204264D01*
X100508Y184000D02*
X101492D01*
X101000Y183508D02*
Y184492D01*
X153508Y182000D02*
X154492D01*
X154000Y181508D02*
Y182492D01*
X156508Y190000D02*
X157492D01*
X157000Y189508D02*
Y190492D01*
X153786Y187500D02*
X154771D01*
X154278Y187008D02*
Y187992D01*
X129508Y195500D02*
X130492D01*
X130000Y195008D02*
Y195992D01*
X126508Y196500D02*
X127492D01*
X127000Y196008D02*
Y196992D01*
X123508Y197500D02*
X124492D01*
X124000Y197008D02*
Y197992D01*
X426279Y209000D02*
X427264D01*
X426772Y208508D02*
Y209492D01*
X97008Y137500D02*
X97992D01*
X97500Y137008D02*
Y137992D01*
X180008Y134272D02*
X180992D01*
X180500Y133780D02*
Y134764D01*
X255008Y137500D02*
X255992D01*
X255500Y137008D02*
Y137992D01*
X330008Y134272D02*
X330992D01*
X330500Y133780D02*
Y134764D01*
X313008Y150000D02*
X313992D01*
X313500Y149508D02*
Y150492D01*
X203008Y280500D02*
X203992D01*
X203500Y280008D02*
Y280992D01*
X203008Y277000D02*
X203992D01*
X203500Y276508D02*
Y277492D01*
X203008Y273000D02*
X203992D01*
X203500Y272508D02*
Y273492D01*
X203008Y269500D02*
X203992D01*
X203500Y269008D02*
Y269992D01*
X203008Y265500D02*
X203992D01*
X203500Y265008D02*
Y265992D01*
X209008Y279000D02*
X209992D01*
X209500Y278508D02*
Y279492D01*
X209008Y275000D02*
X209992D01*
X209500Y274508D02*
Y275492D01*
X209008Y271000D02*
X209992D01*
X209500Y270508D02*
Y271492D01*
X33008Y211500D02*
X33992D01*
X33500Y211008D02*
Y211992D01*
M02*
