M48
;Layer_Color=9474304
;FILE_FORMAT=4:4
METRIC,LZ
;TYPE=PLATED
T4F00S00C0.8000
T7F00S00C1.0000
%
G90
G05
T04
G00X00098136Y00684276
M15
G01Y00701276
M16
G00X0013433Y00722481
M15
G01X0015133
M16
G00X00134662Y00662263
M15
G01X00151662
M16
T07
G00X00775391Y00088448
M15
G01Y00094448
M16
G00X00813173Y00088448
M15
G01Y00094448
M16
G00X00974781Y00088448
M15
G01Y00094448
M16
G00X00613783Y00088448
M15
G01Y00094448
M16
G00X00579811Y00088448
M15
G01Y00094448
M16
G00X00418203Y00088448
M15
G01Y00094448
M16
G00X00374071Y00088448
M15
G01Y00094448
M16
G00X00212463Y00088448
M15
G01Y00094448
M16
M17
M30
