M48
;Layer_Color=9474304
;FILE_FORMAT=4:4
METRIC,LZ
;TYPE=PLATED
T1F00S00C0.2500
T2F00S00C0.7620
T3F00S00C0.8000
T5F00S00C0.8500
T6F00S00C0.9500
T8F00S00C1.0500
T9F00S00C1.9000
T10F00S00C3.2700
%
T01
X0044958Y0001905
X01132738Y00400152
X01124737Y0040386
X01116736Y0036957
X0110074
X0109274Y0036449
X0108474Y003696
X0106874
X0106045Y0039878
X0108585Y0042672
Y0045085
X0109982
X0110675Y0043365
X0112961Y0034729
X0091186Y0034163
X0083947Y0034105
X008128Y0035052
X0081232Y0039322
X0078832Y0039624
X0079629Y00381
X0076432Y0039265
X0076581Y0042926
X0077851
X0079121
X0080391
X0081661
X0082862Y0042995
X0084356Y0044041
X0084455Y0045339
X0081661Y0045212
X0080391
X0079121
X0077851
X0076581
X0075311
Y0042926
X0074041
X0085862Y0042047
X008509Y0041011
X0088392Y0040513
X0087418Y0042841
Y0044069
X0087884Y0045241
X009525Y0040513
X0093853Y0020828
X0092583
X0086233
X0084963
X0073787
X0072517
X0066167
X0064897
X0053721
X0052451
X0046101
X0044831
X0033655
X0035814Y0034671
X0035629Y0037084
X0037211Y0038608
X0038862Y0037846
X0040513Y0036068
X0045847Y0034105
X0048895Y0035433
X0052959Y0035941
X0050927Y0038481
X0052578Y0044577
X0048895Y0044323
X0047117Y0044958
X0045466Y0041021
X0043307Y0041148
X0038481Y0041529
X0037211
X0037846Y004445
X0038481Y0043942
X0034798Y004445
X0034544Y0045085
X0033909Y0042418
Y0039243
X0058547Y0042672
X0065786Y0039878
X0065532Y003683
X0064897Y0034925
X0070358Y0035433
X0070231Y0038608
X0071384Y0041011
X0070739Y0042037
X0068453
X0068961Y0043641
X0072956Y00449
X0033274Y0044704
X0033401Y0043053
X0032639Y0042291
X0030607Y0041656
X0030191Y00430881
X0028321Y0041656
X0026289Y0041148
X002667Y0043688
X0025654Y0044704
X0022352Y0043307
X0023045Y004146
X0023056Y0040328
X0022352Y0038481
X0021082
X0020193Y004236
X00146837Y00400837
X0016129Y0038608
X00138836Y00371704
X0012284Y0037211
X0011484Y0036957
X0010684Y0037211
X0009084
X0007435Y0035364
X0008284Y00400837
X0010795Y0042672
X0012192
Y0045085
X0010795
X0018796Y0031369
X0024765Y0034925
X0025654Y0037719
X0029845Y0036576
X0033147Y0036195
X0033182Y0038735
X0032639Y0039497
X0032385Y0020828
X0026035
X0024765
X0025654Y0046736
Y0049403
X0027051
X0030157Y0048075
X0032131Y0047244
X0031242Y0046228
X0031496Y0050165
Y0051181
X0032258Y0049911
X003302Y0049657
X0029337Y0052705
X0025908
X0021913Y0051758
X0022606Y0049657
Y0048387
X0021913Y0046286
X0015875Y0047371
X00127Y0048006
X0010287
X0009017Y0049276
Y0050165
X0009525Y0053721
X0008509
X0005461
X0006477Y0061341
X0016002Y0059055
X0015113Y0053721
X00072834Y00466916
X0024638Y0059182
X0022479Y0064008
X0020447
X0028956
X0030861Y0073025
X0032639
Y0075565
X0030861
X002667Y0076835
X0024765
X002286
X0020955
Y0074295
X0022987
X0024892
X002667Y0074168
X0038227Y0074295
Y0069596
X0040132Y00635
X0045466Y0063881
X0051435
X0051689Y0067437
Y0068453
Y0069342
Y0070358
Y0071247
X0053213Y0070866
Y006985
Y0068834
Y0067945
X0057023Y0063627
X0059436Y0064262
Y0060833
X0057785Y0055626
X005715Y0051308
X0053848Y0050927
X005334Y0053213
X0049403Y0053086
Y0054356
Y0055626
Y0056896
X0051562Y0058801
X0043053Y0058293
X0038412Y0058235
X0036703Y0053594
X0038215Y0051169
X0040259Y0050546
X0039878Y004826
X00391867Y0047625
X0039116Y0046228
X0041529Y0047244
X0034925Y0047498
X0034671Y0048641
X0042402Y005361
X0049403Y0051816
Y0050546
Y0049276
Y0048006
X0052959Y0047625
X0061722Y0045847
X006477Y0047498
X0068961Y0047641
Y0049241
Y0051641
Y0054041
X0072517Y0054864
X0071638Y0056271
X0072263Y005207
Y0050419
Y004826
Y004699
X0068961Y0046041
X0064262Y0055499
X0065532Y0059309
X0070231Y0060833
Y0062103
X0071051Y0063627
X0069411Y0064389
X0070104Y0066675
X0066987Y0066998
X00660999Y00653379
X0072644Y0065151
Y0062611
X0056896Y0075057
X0055499
X005334Y0075946
X0050546Y0076073
X0047371Y0075565
Y0076835
X0047244Y0078105
X0074676Y0063754
X0076497Y006494
X0080391Y0065278
X0078359Y006096
X0076581Y0058547
X0074676Y0057658
X0074432Y0054874
X0075115Y0053271
X0074549Y005207
Y0050419
Y004826
Y004699
Y0045593
X0082862Y0047302
X0084455Y0046609
X0087884
X0087376Y0045974
X0090534Y0045991
X0091567Y0045593
X0092456Y0046609
X0093218Y0048387
X00899201Y0047117
X0087376Y0052578
Y0053721
X0084328Y0053213
Y0051943
X0082862Y005125
X0081661Y0052578
X0082492Y0054679
X0083232Y0054309
X0084032Y0054779
X0085921Y0055949
X0085979Y0058039
X0092456Y0057785
X0092329Y0059563
X0094996
X00959485Y00561975
X009525Y0054102
X0100584Y0059436
X0101404Y0058986
X0103193Y0059886
X0099695Y006096
X0100203Y00623
X0099695Y0062992
X009906Y0063881
X0098425Y0064516
X0097917Y0065151
Y0067691
X009951Y0066871
X0106045Y0062611
X0111125Y0059436
X01084Y0053086
X010922Y0050927
X01080745Y00480035
X0110474Y004799
X0112874Y0048035
X01048194Y00466916
X0104521Y0050927
X010541Y0053086
X0077597Y0052578
X0077632Y0054874
X0089281Y006831
X011557Y0056134
X0116586
X0116078Y0052578
Y0051689
X0113919Y0050927
T02
X0119253Y0008509
Y0011049
Y0013589
Y0016129
Y0018669
Y0021209
Y0023749
Y0026289
Y0028829
Y0031369
X0088265Y0017653
X0083185
X0068199
X0063119
X0048133
X0043053
X0028067
X0022987
X0001397Y0017526
Y0014986
Y0012446
Y0009906
Y0020066
Y0022606
Y0025146
Y0027686
Y0030226
Y0032766
X0073533Y0068453
X0076073
X0115443Y0066167
Y0063627
Y0061087
T03
X00740796Y0014872
X00763432
X00825434
X00848385Y00148408
X00858373Y0010015
X00879046Y00100193
X00899383Y00100358
X00919721Y0010015
X00929841Y00082469
X00909584Y00082177
X00889485Y00083041
X00868703Y00082507
X00940186Y0014872
X00962822
X00720331Y0010015
X00699994Y00100358
X00679656Y00100193
X00658983Y0010015
X00669313Y00082507
X00690095Y00083041
X00710194Y00082177
X00730451Y00082469
X00648995Y00148408
X00626044Y0014872
X00567853
X00545216
X00524751Y0010015
X00504413Y00100358
X00484076Y00100193
X00463403Y0010015
X00473733Y00082507
X00494515Y00083041
X00514614Y00082177
X00534871Y00082469
X00453415Y00148408
X00430464Y0014872
X00362113
X00339476
X00319011Y0010015
X00298673Y00100358
X00278336Y00100193
X00257663Y0010015
X00267993Y00082507
X00288775Y00083041
X00308874Y00082177
X00329131Y00082469
X00247675Y00148408
X00224724Y0014872
T05
X01023491Y00419301
X00045591
T06
X01165989Y00347301
Y00394301
Y00444301
X0102349Y004443
X0102349Y003943
X0102349Y003473
X00188089Y00347301
Y00394301
Y00444301
X0004559Y004443
X0004559Y003943
X0004559Y003473
X00068889Y004903
X00116889Y00490299
X0016489Y00490298
X01046788Y004903
X01094789Y00490299
X0114279Y00490298
T08
X01165991Y00169303
X0116599Y00269302
X01134291Y00319301
X0116599Y00369302
X01080291Y00319302
X01023491Y00319301
X01023491Y00219301
X01023492Y00119302
X01109293Y001193
X0018809Y00169303
X0018809Y00269302
X00156391Y00319301
X00102391Y00319302
X00045591Y00319301
X00045591Y00219301
X00045592Y00119302
X00131393Y001193
X0018809Y00369302
X0018809Y00469302
X0116599
T09
X0114274Y0042592
X0104674
X0016484
X0006884
T10
X0022957Y00056386
X00357518Y00057257
X0043531Y00056386
X00563258Y00057257
X0063089Y00056386
X00758838Y00057257
X0083028Y00056386
X00958228Y00057257
M30
