%FSLAX44Y44*%
%MOMM*%
G71*
G01*
G75*
G04 Layer_Physical_Order=3*
G04 Layer_Color=16440176*
%ADD10R,0.5000X0.6000*%
%ADD11R,0.6000X0.5000*%
%ADD12R,1.2954X1.1938*%
%ADD13R,2.0000X0.5004*%
%ADD14R,1.0160X0.8890*%
%ADD15R,1.3970X1.3970*%
G04:AMPARAMS|DCode=16|XSize=1.5mm|YSize=1.4mm|CornerRadius=0mm|HoleSize=0mm|Usage=FLASHONLY|Rotation=225.000|XOffset=0mm|YOffset=0mm|HoleType=Round|Shape=Rectangle|*
%AMROTATEDRECTD16*
4,1,4,0.0354,1.0253,1.0253,0.0354,-0.0354,-1.0253,-1.0253,-0.0354,0.0354,1.0253,0.0*
%
%ADD16ROTATEDRECTD16*%

%ADD17R,0.8000X0.2000*%
%ADD18R,0.2000X0.8000*%
%ADD19R,3.7000X3.7000*%
%ADD20R,1.4000X1.2000*%
%ADD21R,0.8128X0.8128*%
%ADD22C,1.0000*%
G04:AMPARAMS|DCode=23|XSize=2mm|YSize=2mm|CornerRadius=0mm|HoleSize=0mm|Usage=FLASHONLY|Rotation=180.000|XOffset=0mm|YOffset=0mm|HoleType=Round|Shape=RoundedRectangle|*
%AMROUNDEDRECTD23*
21,1,2.0000,2.0000,0,0,180.0*
21,1,2.0000,2.0000,0,0,180.0*
1,1,0.0000,-1.0000,1.0000*
1,1,0.0000,1.0000,1.0000*
1,1,0.0000,1.0000,-1.0000*
1,1,0.0000,-1.0000,-1.0000*
%
%ADD23ROUNDEDRECTD23*%
%ADD24R,2.4000X0.8000*%
%ADD25R,5.0000X5.3000*%
%ADD26R,1.3970X1.3970*%
%ADD27R,7.3000X2.6500*%
%ADD28C,0.8000*%
%ADD29C,0.1780*%
%ADD30C,0.4000*%
%ADD31C,0.2000*%
%ADD32C,0.3000*%
%ADD33C,0.6000*%
%ADD34C,0.1270*%
%ADD35C,0.2540*%
%ADD36C,0.1800*%
%ADD37C,1.0000*%
%ADD38R,0.8890X0.8890*%
%ADD39C,3.2500*%
%ADD40R,1.5240X1.5240*%
%ADD41C,1.5240*%
%ADD42C,2.1590*%
%ADD43C,1.7000*%
%ADD44C,1.6500*%
%ADD45R,1.0000X1.0000*%
%ADD46C,4.0000*%
%ADD47O,1.5000X4.0000*%
%ADD48O,4.0000X1.5000*%
%ADD49C,0.5000*%
%ADD50C,2.0000*%
G36*
X996666Y3334D02*
X3334D01*
Y67867D01*
X515620D01*
X561340Y113587D01*
Y249477D01*
X560070Y250747D01*
X3334D01*
Y429260D01*
X264101D01*
X264492Y427294D01*
X265606Y425626D01*
X267274Y424512D01*
X267970Y424374D01*
Y429260D01*
X270510D01*
Y424374D01*
X271206Y424512D01*
X272874Y425626D01*
X273988Y427294D01*
X274379Y429260D01*
X515620D01*
X561340Y474980D01*
Y610870D01*
X560070Y612140D01*
X512055D01*
X511687Y613355D01*
X511793Y613427D01*
X512567Y614584D01*
X512839Y615950D01*
X512567Y617316D01*
X511793Y618473D01*
X510636Y619247D01*
X509270Y619519D01*
X507904Y619247D01*
X506747Y618473D01*
X505973Y617316D01*
X505701Y615950D01*
X505973Y614584D01*
X506747Y613427D01*
X506853Y613355D01*
X506485Y612140D01*
X3334D01*
Y676666D01*
X996666D01*
Y3334D01*
D02*
G37*
G36*
X552450Y170011D02*
Y163830D01*
Y157649D01*
Y118667D01*
X513080Y79297D01*
X474363D01*
X473954Y80499D01*
X474535Y80945D01*
X476265Y83199D01*
X477352Y85824D01*
X477556Y87372D01*
X456124D01*
X456328Y85824D01*
X457415Y83199D01*
X459144Y80945D01*
X459725Y80499D01*
X459317Y79297D01*
X448326D01*
X447918Y80499D01*
X449086Y81396D01*
X450715Y83518D01*
X451738Y85990D01*
X451921Y87373D01*
X431759D01*
X431941Y85990D01*
X432965Y83518D01*
X434594Y81396D01*
X435762Y80499D01*
X435354Y79297D01*
X398326D01*
X397918Y80499D01*
X399086Y81396D01*
X400715Y83518D01*
X401739Y85990D01*
X401921Y87373D01*
X381759D01*
X381941Y85990D01*
X382965Y83518D01*
X384594Y81396D01*
X385762Y80499D01*
X385354Y79297D01*
X374363D01*
X373955Y80499D01*
X374535Y80945D01*
X376265Y83199D01*
X377352Y85824D01*
X377556Y87371D01*
X366841D01*
Y88641D01*
X365570D01*
Y99356D01*
X364023Y99153D01*
X361398Y98066D01*
X359144Y96336D01*
X357415Y94082D01*
X356327Y91457D01*
X356157Y90164D01*
X354887D01*
X354738Y91294D01*
X353715Y93766D01*
X352086Y95888D01*
X349964Y97517D01*
X347492Y98540D01*
X346109Y98722D01*
Y88643D01*
X344839D01*
Y87373D01*
X334759D01*
X334941Y85990D01*
X335965Y83518D01*
X337594Y81396D01*
X338762Y80499D01*
X338354Y79297D01*
X274363D01*
X273955Y80499D01*
X274536Y80945D01*
X276265Y83199D01*
X277352Y85824D01*
X277556Y87371D01*
X256124D01*
X256328Y85824D01*
X257415Y83199D01*
X259144Y80945D01*
X259725Y80499D01*
X259317Y79297D01*
X174363D01*
X173955Y80499D01*
X174536Y80945D01*
X176265Y83199D01*
X177352Y85823D01*
X177556Y87371D01*
X156124D01*
X156328Y85823D01*
X157415Y83199D01*
X159144Y80945D01*
X159725Y80499D01*
X159317Y79297D01*
X3334D01*
Y239317D01*
X108077D01*
X108638Y238178D01*
X107414Y236582D01*
X106326Y233957D01*
X106123Y232410D01*
X127555D01*
X127351Y233957D01*
X126264Y236582D01*
X125039Y238178D01*
X125601Y239317D01*
X208076D01*
X208638Y238178D01*
X207414Y236582D01*
X206327Y233957D01*
X206123Y232410D01*
X227555D01*
X227351Y233957D01*
X226264Y236582D01*
X225039Y238178D01*
X225601Y239317D01*
X308076D01*
X308638Y238178D01*
X307414Y236582D01*
X306327Y233957D01*
X306123Y232411D01*
X327555D01*
X327351Y233957D01*
X326264Y236582D01*
X325040Y238178D01*
X325601Y239317D01*
X336869D01*
X337431Y238178D01*
X335964Y236266D01*
X334940Y233794D01*
X334758Y232412D01*
X354919D01*
X354737Y233794D01*
X353713Y236266D01*
X352247Y238178D01*
X352808Y239317D01*
X383869D01*
X384431Y238178D01*
X382964Y236266D01*
X381940Y233794D01*
X381758Y232412D01*
X401919D01*
X401737Y233794D01*
X400713Y236266D01*
X399246Y238178D01*
X399808Y239317D01*
X408870D01*
X409432Y238178D01*
X407964Y236264D01*
X406940Y233793D01*
X406758Y232411D01*
X426919D01*
X426737Y233793D01*
X425713Y236264D01*
X424245Y238178D01*
X424807Y239317D01*
X433869D01*
X434431Y238178D01*
X432964Y236266D01*
X431940Y233794D01*
X431758Y232412D01*
X451919D01*
X451737Y233794D01*
X450714Y236266D01*
X449247Y238178D01*
X449808Y239317D01*
X535681D01*
X536279Y238197D01*
X536272Y238186D01*
X536134Y237490D01*
X545906D01*
X545768Y238186D01*
X545761Y238197D01*
X546359Y239317D01*
X552450D01*
Y170011D01*
D02*
G37*
G36*
Y578678D02*
X551235Y578310D01*
X550424Y579524D01*
X548756Y580638D01*
X548060Y580776D01*
Y575890D01*
Y571004D01*
X548756Y571142D01*
X550424Y572256D01*
X551235Y573470D01*
X552450Y573102D01*
Y480060D01*
X513080Y440690D01*
X474363D01*
X473954Y441893D01*
X474535Y442338D01*
X476265Y444593D01*
X477352Y447217D01*
X477556Y448765D01*
X456124D01*
X456328Y447217D01*
X457415Y444593D01*
X459144Y442338D01*
X459725Y441893D01*
X459317Y440690D01*
X448326D01*
X447918Y441893D01*
X449086Y442789D01*
X450715Y444911D01*
X451738Y447383D01*
X451921Y448766D01*
X431759D01*
X431941Y447383D01*
X432965Y444911D01*
X434594Y442789D01*
X435762Y441893D01*
X435354Y440690D01*
X398326D01*
X397918Y441893D01*
X399086Y442789D01*
X400715Y444911D01*
X401739Y447383D01*
X401921Y448766D01*
X381759D01*
X381941Y447383D01*
X382965Y444911D01*
X384594Y442789D01*
X385762Y441893D01*
X385354Y440690D01*
X374363D01*
X373955Y441893D01*
X374535Y442338D01*
X376265Y444592D01*
X377352Y447217D01*
X377556Y448765D01*
X366841D01*
Y450035D01*
X365570D01*
Y460750D01*
X364023Y460546D01*
X361398Y459459D01*
X359144Y457729D01*
X357415Y455475D01*
X356327Y452850D01*
X356157Y451557D01*
X354887D01*
X354738Y452688D01*
X353715Y455159D01*
X352086Y457281D01*
X349964Y458910D01*
X347492Y459934D01*
X346109Y460116D01*
Y450036D01*
X344839D01*
Y448766D01*
X334759D01*
X334941Y447383D01*
X335965Y444911D01*
X337594Y442789D01*
X338762Y441893D01*
X338354Y440690D01*
X274363D01*
X273955Y441893D01*
X274536Y442338D01*
X276265Y444592D01*
X277352Y447217D01*
X277556Y448765D01*
X256124D01*
X256328Y447217D01*
X257415Y444592D01*
X259144Y442338D01*
X259725Y441893D01*
X259317Y440690D01*
X174363D01*
X173955Y441893D01*
X174536Y442338D01*
X176265Y444592D01*
X177352Y447217D01*
X177556Y448764D01*
X156124D01*
X156328Y447217D01*
X157415Y444592D01*
X159144Y442338D01*
X159725Y441893D01*
X159317Y440690D01*
X3334D01*
Y600710D01*
X108077D01*
X108638Y599571D01*
X107414Y597975D01*
X106326Y595350D01*
X106123Y593803D01*
X127555D01*
X127351Y595350D01*
X126264Y597975D01*
X125039Y599571D01*
X125601Y600710D01*
X208076D01*
X208638Y599571D01*
X207414Y597975D01*
X206327Y595350D01*
X206123Y593804D01*
X227555D01*
X227351Y595350D01*
X226264Y597975D01*
X225039Y599571D01*
X225601Y600710D01*
X308076D01*
X308638Y599571D01*
X307414Y597975D01*
X306327Y595351D01*
X306123Y593804D01*
X327555D01*
X327351Y595351D01*
X326264Y597975D01*
X325040Y599571D01*
X325601Y600710D01*
X336869D01*
X337431Y599571D01*
X335964Y597659D01*
X334940Y595188D01*
X334758Y593805D01*
X354919D01*
X354737Y595188D01*
X353713Y597659D01*
X352247Y599571D01*
X352808Y600710D01*
X383869D01*
X384431Y599571D01*
X382964Y597659D01*
X381940Y595187D01*
X381758Y593805D01*
X401919D01*
X401737Y595187D01*
X400713Y597659D01*
X399246Y599571D01*
X399808Y600710D01*
X408870D01*
X409432Y599571D01*
X407964Y597658D01*
X406940Y595186D01*
X406758Y593804D01*
X426919D01*
X426737Y595186D01*
X425713Y597658D01*
X424245Y599571D01*
X424807Y600710D01*
X433869D01*
X434431Y599571D01*
X432964Y597659D01*
X431940Y595188D01*
X431758Y593805D01*
X451919D01*
X451737Y595188D01*
X450714Y597659D01*
X449247Y599571D01*
X449808Y600710D01*
X534611D01*
X535002Y598744D01*
X536116Y597076D01*
X537784Y595962D01*
X538480Y595824D01*
Y600710D01*
X541020D01*
Y595824D01*
X541716Y595962D01*
X543384Y597076D01*
X544498Y598744D01*
X544889Y600710D01*
X552450D01*
Y578678D01*
D02*
G37*
%LPC*%
G36*
X681990Y220786D02*
X681293Y220648D01*
X679626Y219534D01*
X678512Y217866D01*
X678374Y217170D01*
X681990D01*
Y220786D01*
D02*
G37*
G36*
X671830D02*
Y217170D01*
X675446D01*
X675308Y217866D01*
X674194Y219534D01*
X672526Y220648D01*
X671830Y220786D01*
D02*
G37*
G36*
X669290D02*
X668594Y220648D01*
X666926Y219534D01*
X665812Y217866D01*
X665674Y217170D01*
X669290D01*
Y220786D01*
D02*
G37*
G36*
X684530D02*
Y217170D01*
X688146D01*
X688008Y217866D01*
X686894Y219534D01*
X685227Y220648D01*
X684530Y220786D01*
D02*
G37*
G36*
X539750Y220980D02*
X536134D01*
X536272Y220284D01*
X537386Y218616D01*
X539053Y217502D01*
X539750Y217364D01*
Y220980D01*
D02*
G37*
G36*
X545906D02*
X542290D01*
Y217364D01*
X542986Y217502D01*
X544654Y218616D01*
X545768Y220284D01*
X545906Y220980D01*
D02*
G37*
G36*
X857890Y229183D02*
X855679Y228892D01*
X852435Y227548D01*
X849649Y225411D01*
X847512Y222625D01*
X846168Y219381D01*
X845877Y217170D01*
X857890D01*
Y229183D01*
D02*
G37*
G36*
X860430D02*
Y217170D01*
X872443D01*
X872152Y219381D01*
X870808Y222625D01*
X868671Y225411D01*
X865885Y227548D01*
X862641Y228892D01*
X860430Y229183D01*
D02*
G37*
G36*
X659130Y220786D02*
Y217170D01*
X662746D01*
X662608Y217866D01*
X661494Y219534D01*
X659827Y220648D01*
X659130Y220786D01*
D02*
G37*
G36*
X681990Y214630D02*
X678374D01*
X678512Y213934D01*
X679626Y212266D01*
X681293Y211152D01*
X681990Y211014D01*
Y214630D01*
D02*
G37*
G36*
X688146D02*
X684530D01*
Y211014D01*
X685227Y211152D01*
X686894Y212266D01*
X688008Y213934D01*
X688146Y214630D01*
D02*
G37*
G36*
X669290D02*
X665674D01*
X665812Y213934D01*
X666926Y212266D01*
X668594Y211152D01*
X669290Y211014D01*
Y214630D01*
D02*
G37*
G36*
X675446D02*
X671830D01*
Y211014D01*
X672526Y211152D01*
X674194Y212266D01*
X675308Y213934D01*
X675446Y214630D01*
D02*
G37*
G36*
X541710Y215126D02*
X541013Y214988D01*
X539346Y213874D01*
X538232Y212206D01*
X538094Y211510D01*
X541710D01*
Y215126D01*
D02*
G37*
G36*
X646430Y220786D02*
Y217170D01*
X650046D01*
X649908Y217866D01*
X648794Y219534D01*
X647126Y220648D01*
X646430Y220786D01*
D02*
G37*
G36*
X656590D02*
X655893Y220648D01*
X654226Y219534D01*
X653112Y217866D01*
X652974Y217170D01*
X656590D01*
Y220786D01*
D02*
G37*
G36*
X544250Y215126D02*
Y211510D01*
X547866D01*
X547728Y212206D01*
X546614Y213874D01*
X544947Y214988D01*
X544250Y215126D01*
D02*
G37*
G36*
X643890Y220786D02*
X643194Y220648D01*
X641526Y219534D01*
X640412Y217866D01*
X640274Y217170D01*
X643890D01*
Y220786D01*
D02*
G37*
G36*
X115570Y229870D02*
X106123D01*
X106326Y228323D01*
X107414Y225698D01*
X109143Y223444D01*
X111397Y221715D01*
X114022Y220628D01*
X115570Y220424D01*
Y229870D01*
D02*
G37*
G36*
X440568Y229872D02*
X431758D01*
X431940Y228490D01*
X432964Y226018D01*
X434593Y223896D01*
X436715Y222267D01*
X439187Y221243D01*
X440568Y221062D01*
Y229872D01*
D02*
G37*
G36*
X539750Y227136D02*
X539053Y226998D01*
X537386Y225884D01*
X536272Y224216D01*
X536134Y223520D01*
X539750D01*
Y227136D01*
D02*
G37*
G36*
X451919Y229872D02*
X443108D01*
Y221061D01*
X444491Y221243D01*
X446963Y222267D01*
X449085Y223896D01*
X450714Y226018D01*
X451737Y228490D01*
X451919Y229872D01*
D02*
G37*
G36*
X343568D02*
X334758D01*
X334940Y228490D01*
X335964Y226018D01*
X337593Y223896D01*
X339715Y222267D01*
X342187Y221243D01*
X343568Y221062D01*
Y229872D01*
D02*
G37*
G36*
X542290Y227136D02*
Y223520D01*
X545906D01*
X545768Y224216D01*
X544654Y225884D01*
X542986Y226998D01*
X542290Y227136D01*
D02*
G37*
G36*
X545906Y234950D02*
X542290D01*
Y231334D01*
X542986Y231472D01*
X544654Y232586D01*
X545768Y234254D01*
X545906Y234950D01*
D02*
G37*
G36*
X20320Y259080D02*
X14152D01*
X14244Y258382D01*
X15004Y256548D01*
X16212Y254972D01*
X17787Y253764D01*
X19622Y253004D01*
X20320Y252912D01*
Y259080D01*
D02*
G37*
G36*
X511869Y230898D02*
X510503Y230627D01*
X509345Y229853D01*
X508572Y228696D01*
X508300Y227330D01*
X508572Y225964D01*
X509345Y224807D01*
X510503Y224033D01*
X511869Y223761D01*
X513234Y224033D01*
X514392Y224807D01*
X515166Y225964D01*
X515437Y227330D01*
X515166Y228696D01*
X514392Y229853D01*
X513234Y230627D01*
X511869Y230898D01*
D02*
G37*
G36*
X539750Y234950D02*
X536134D01*
X536272Y234254D01*
X537386Y232586D01*
X539053Y231472D01*
X539750Y231334D01*
Y234950D01*
D02*
G37*
G36*
X354919Y229872D02*
X346108D01*
Y221061D01*
X347491Y221243D01*
X349963Y222267D01*
X352085Y223896D01*
X353713Y226018D01*
X354737Y228490D01*
X354919Y229872D01*
D02*
G37*
G36*
X227555Y229870D02*
X218110D01*
Y220424D01*
X219655Y220628D01*
X222280Y221715D01*
X224534Y223445D01*
X226264Y225699D01*
X227351Y228323D01*
X227555Y229870D01*
D02*
G37*
G36*
X315570Y229870D02*
X306123D01*
X306327Y228324D01*
X307414Y225699D01*
X309143Y223445D01*
X311397Y221715D01*
X314022Y220628D01*
X315570Y220424D01*
Y229870D01*
D02*
G37*
G36*
X215570Y229870D02*
X206123D01*
X206327Y228323D01*
X207414Y225699D01*
X209143Y223445D01*
X211397Y221715D01*
X214022Y220628D01*
X215570Y220424D01*
Y229870D01*
D02*
G37*
G36*
X127555Y229870D02*
X118110D01*
Y220424D01*
X119656Y220628D01*
X122280Y221715D01*
X124534Y223444D01*
X126264Y225698D01*
X127351Y228323D01*
X127555Y229870D01*
D02*
G37*
G36*
X327555Y229870D02*
X318110D01*
Y220425D01*
X319656Y220628D01*
X322280Y221715D01*
X324534Y223445D01*
X326264Y225699D01*
X327351Y228324D01*
X327555Y229870D01*
D02*
G37*
G36*
X401919Y229872D02*
X393108D01*
Y221061D01*
X394491Y221243D01*
X396963Y222267D01*
X399085Y223896D01*
X400713Y226018D01*
X401737Y228489D01*
X401919Y229872D01*
D02*
G37*
G36*
X390568D02*
X381758D01*
X381940Y228489D01*
X382964Y226018D01*
X384593Y223896D01*
X386715Y222267D01*
X389186Y221243D01*
X390568Y221061D01*
Y229872D01*
D02*
G37*
G36*
X415569Y229870D02*
X406758D01*
X406940Y228488D01*
X407964Y226017D01*
X409592Y223894D01*
X411715Y222266D01*
X414186Y221242D01*
X415569Y221060D01*
Y229870D01*
D02*
G37*
G36*
X426919D02*
X418109D01*
Y221060D01*
X419491Y221242D01*
X421963Y222266D01*
X424085Y223894D01*
X425713Y226017D01*
X426737Y228488D01*
X426919Y229870D01*
D02*
G37*
G36*
X318110Y185056D02*
Y175611D01*
X327555D01*
X327352Y177157D01*
X326264Y179782D01*
X324535Y182036D01*
X322281Y183766D01*
X319656Y184853D01*
X318110Y185056D01*
D02*
G37*
G36*
X661670Y187719D02*
X660304Y187447D01*
X659147Y186673D01*
X658373Y185516D01*
X658101Y184150D01*
X658373Y182784D01*
X659147Y181627D01*
X660304Y180853D01*
X661670Y180581D01*
X663036Y180853D01*
X664193Y181627D01*
X664967Y182784D01*
X665239Y184150D01*
X664967Y185516D01*
X664193Y186673D01*
X663036Y187447D01*
X661670Y187719D01*
D02*
G37*
G36*
X315570Y185057D02*
X314023Y184853D01*
X311398Y183766D01*
X309144Y182036D01*
X307414Y179782D01*
X306327Y177157D01*
X306123Y175611D01*
X315570D01*
Y185057D01*
D02*
G37*
G36*
X800766Y189992D02*
X798254Y189662D01*
X795914Y188692D01*
X793904Y187150D01*
X792362Y185141D01*
X791393Y182801D01*
X791062Y180289D01*
X791393Y177778D01*
X792362Y175438D01*
X793904Y173428D01*
X795914Y171886D01*
X798254Y170917D01*
X800766Y170586D01*
X803277Y170917D01*
X805617Y171886D01*
X807626Y173428D01*
X809168Y175438D01*
X810138Y177778D01*
X810469Y180289D01*
X810138Y182801D01*
X809168Y185141D01*
X807626Y187150D01*
X805617Y188692D01*
X803277Y189662D01*
X800766Y189992D01*
D02*
G37*
G36*
X889666Y211226D02*
X886088Y210874D01*
X882648Y209830D01*
X879477Y208135D01*
X876698Y205855D01*
X874418Y203076D01*
X872723Y199905D01*
X871680Y196465D01*
X871327Y192888D01*
X871680Y189310D01*
X872723Y185870D01*
X874418Y182700D01*
X876698Y179921D01*
X879477Y177640D01*
X882648Y175945D01*
X886088Y174902D01*
X889666Y174549D01*
X893243Y174902D01*
X896683Y175945D01*
X899854Y177640D01*
X902633Y179921D01*
X904913Y182700D01*
X906608Y185870D01*
X907651Y189310D01*
X908004Y192888D01*
X907651Y196465D01*
X906608Y199905D01*
X904913Y203076D01*
X902633Y205855D01*
X899854Y208135D01*
X896683Y209830D01*
X893243Y210874D01*
X889666Y211226D01*
D02*
G37*
G36*
X670560Y196609D02*
X669194Y196337D01*
X668037Y195563D01*
X667263Y194406D01*
X666991Y193040D01*
X667263Y191674D01*
X668037Y190517D01*
X669194Y189743D01*
X670560Y189471D01*
X671926Y189743D01*
X673083Y190517D01*
X673857Y191674D01*
X674129Y193040D01*
X673857Y194406D01*
X673083Y195563D01*
X671926Y196337D01*
X670560Y196609D01*
D02*
G37*
G36*
X939195Y212521D02*
X936454Y212160D01*
X933900Y211102D01*
X931707Y209419D01*
X930024Y207225D01*
X928966Y204671D01*
X928605Y201930D01*
X928966Y199189D01*
X930024Y196635D01*
X931707Y194441D01*
X933900Y192758D01*
X936454Y191700D01*
X939195Y191339D01*
X941936Y191700D01*
X944491Y192758D01*
X946684Y194441D01*
X948367Y196635D01*
X949425Y199189D01*
X949786Y201930D01*
X949425Y204671D01*
X948367Y207225D01*
X946684Y209419D01*
X944491Y211102D01*
X941936Y212160D01*
X939195Y212521D01*
D02*
G37*
G36*
X645160Y196609D02*
X643794Y196337D01*
X642637Y195563D01*
X641863Y194406D01*
X641591Y193040D01*
X641863Y191674D01*
X642637Y190517D01*
X643794Y189743D01*
X645160Y189471D01*
X646526Y189743D01*
X647683Y190517D01*
X648457Y191674D01*
X648729Y193040D01*
X648457Y194406D01*
X647683Y195563D01*
X646526Y196337D01*
X645160Y196609D01*
D02*
G37*
G36*
X824895Y190729D02*
X816085D01*
X816267Y189346D01*
X817291Y186875D01*
X818919Y184752D01*
X821042Y183124D01*
X823513Y182100D01*
X824895Y181918D01*
Y190729D01*
D02*
G37*
G36*
X836246D02*
X827436D01*
Y181918D01*
X828818Y182100D01*
X831289Y183124D01*
X833412Y184752D01*
X835040Y186875D01*
X836064Y189346D01*
X836246Y190729D01*
D02*
G37*
G36*
X504770Y171789D02*
X503404Y171517D01*
X502247Y170743D01*
X501473Y169586D01*
X501201Y168220D01*
X501473Y166854D01*
X502247Y165697D01*
X503404Y164923D01*
X504770Y164651D01*
X506136Y164923D01*
X507293Y165697D01*
X508067Y166854D01*
X508339Y168220D01*
X508067Y169586D01*
X507293Y170743D01*
X506136Y171517D01*
X504770Y171789D01*
D02*
G37*
G36*
X549910Y168716D02*
X549213Y168578D01*
X547546Y167464D01*
X546432Y165797D01*
X546294Y165100D01*
X549910D01*
Y168716D01*
D02*
G37*
G36*
X327555Y173071D02*
X318110D01*
Y163625D01*
X319656Y163828D01*
X322281Y164915D01*
X324535Y166645D01*
X326264Y168899D01*
X327352Y171524D01*
X327555Y173071D01*
D02*
G37*
G36*
X644296Y169532D02*
X642931Y169261D01*
X641773Y168487D01*
X641000Y167329D01*
X640728Y165964D01*
X641000Y164598D01*
X641773Y163440D01*
X642931Y162667D01*
X644296Y162395D01*
X645662Y162667D01*
X646820Y163440D01*
X647593Y164598D01*
X647865Y165964D01*
X647593Y167329D01*
X646820Y168487D01*
X645662Y169261D01*
X644296Y169532D01*
D02*
G37*
G36*
X315570Y173071D02*
X306123D01*
X306327Y171524D01*
X307414Y168899D01*
X309144Y166645D01*
X311398Y164915D01*
X314023Y163828D01*
X315570Y163624D01*
Y173071D01*
D02*
G37*
G36*
X610870Y171256D02*
X610173Y171118D01*
X608506Y170004D01*
X607392Y168337D01*
X607254Y167640D01*
X610870D01*
Y171256D01*
D02*
G37*
G36*
X613410D02*
Y167640D01*
X617026D01*
X616888Y168337D01*
X615774Y170004D01*
X614106Y171118D01*
X613410Y171256D01*
D02*
G37*
G36*
X939195Y187121D02*
X936454Y186760D01*
X933900Y185702D01*
X931707Y184019D01*
X930024Y181825D01*
X928966Y179271D01*
X928605Y176530D01*
X928966Y173789D01*
X930024Y171235D01*
X931707Y169041D01*
X933900Y167358D01*
X936454Y166300D01*
X939195Y165939D01*
X941936Y166300D01*
X944491Y167358D01*
X946684Y169041D01*
X948367Y171235D01*
X949425Y173789D01*
X949786Y176530D01*
X949425Y179271D01*
X948367Y181825D01*
X946684Y184019D01*
X944491Y185702D01*
X941936Y186760D01*
X939195Y187121D01*
D02*
G37*
G36*
X731520Y168716D02*
X730824Y168578D01*
X729156Y167464D01*
X728042Y165797D01*
X727904Y165100D01*
X731520D01*
Y168716D01*
D02*
G37*
G36*
X734060D02*
Y165100D01*
X737676D01*
X737538Y165797D01*
X736424Y167464D01*
X734756Y168578D01*
X734060Y168716D01*
D02*
G37*
G36*
X824895Y202079D02*
X823513Y201897D01*
X821042Y200873D01*
X818919Y199245D01*
X817291Y197122D01*
X816267Y194651D01*
X816085Y193269D01*
X824895D01*
Y202079D01*
D02*
G37*
G36*
X486568Y217923D02*
X485187Y217741D01*
X482715Y216717D01*
X480593Y215089D01*
X478965Y212966D01*
X477941Y210495D01*
X477759Y209113D01*
X486568D01*
Y217923D01*
D02*
G37*
G36*
X489108Y217923D02*
Y209113D01*
X497920D01*
X497738Y210495D01*
X496714Y212966D01*
X495085Y215089D01*
X492963Y216717D01*
X490492Y217741D01*
X489108Y217923D01*
D02*
G37*
G36*
X383733Y211703D02*
Y208087D01*
X387349D01*
X387210Y208784D01*
X386096Y210451D01*
X384429Y211565D01*
X383733Y211703D01*
D02*
G37*
G36*
X547866Y208970D02*
X544250D01*
Y205354D01*
X544947Y205492D01*
X546614Y206606D01*
X547728Y208274D01*
X547866Y208970D01*
D02*
G37*
G36*
X381193Y211703D02*
X380496Y211565D01*
X378829Y210451D01*
X377715Y208784D01*
X377577Y208087D01*
X381193D01*
Y211703D01*
D02*
G37*
G36*
X656590Y214630D02*
X652974D01*
X653112Y213934D01*
X654226Y212266D01*
X655893Y211152D01*
X656590Y211014D01*
Y214630D01*
D02*
G37*
G36*
X662746D02*
X659130D01*
Y211014D01*
X659827Y211152D01*
X661494Y212266D01*
X662608Y213934D01*
X662746Y214630D01*
D02*
G37*
G36*
X650046D02*
X646430D01*
Y211014D01*
X647126Y211152D01*
X648794Y212266D01*
X649908Y213934D01*
X650046Y214630D01*
D02*
G37*
G36*
X521970Y216929D02*
X520604Y216657D01*
X519447Y215883D01*
X518673Y214726D01*
X518401Y213360D01*
X518673Y211994D01*
X519447Y210837D01*
X520604Y210063D01*
X521970Y209791D01*
X523336Y210063D01*
X524493Y210837D01*
X525267Y211994D01*
X525539Y213360D01*
X525267Y214726D01*
X524493Y215883D01*
X523336Y216657D01*
X521970Y216929D01*
D02*
G37*
G36*
X643890Y214630D02*
X640274D01*
X640412Y213934D01*
X641526Y212266D01*
X643194Y211152D01*
X643890Y211014D01*
Y214630D01*
D02*
G37*
G36*
X497920Y206573D02*
X489108D01*
Y197762D01*
X490492Y197944D01*
X492963Y198968D01*
X495085Y200596D01*
X496714Y202719D01*
X497738Y205190D01*
X497920Y206573D01*
D02*
G37*
G36*
X486568D02*
X477759D01*
X477941Y205190D01*
X478965Y202719D01*
X480593Y200596D01*
X482715Y198968D01*
X485187Y197944D01*
X486568Y197762D01*
Y206573D01*
D02*
G37*
G36*
X423458Y218987D02*
X420587Y218608D01*
X417911Y217500D01*
X415613Y215737D01*
X413850Y213439D01*
X412742Y210763D01*
X412363Y207892D01*
X412742Y205020D01*
X413850Y202344D01*
X415613Y200046D01*
X417911Y198283D01*
X420587Y197175D01*
X423458Y196797D01*
X426330Y197175D01*
X429006Y198283D01*
X431304Y200046D01*
X433067Y202344D01*
X434175Y205020D01*
X434553Y207892D01*
X434175Y210763D01*
X433067Y213439D01*
X431304Y215737D01*
X429006Y217500D01*
X426330Y218608D01*
X423458Y218987D01*
D02*
G37*
G36*
X827436Y202079D02*
Y193269D01*
X836246D01*
X836064Y194651D01*
X835040Y197122D01*
X833412Y199245D01*
X831289Y200873D01*
X828818Y201897D01*
X827436Y202079D01*
D02*
G37*
G36*
X504770Y202379D02*
X503404Y202107D01*
X502247Y201333D01*
X501473Y200176D01*
X501201Y198810D01*
X501473Y197444D01*
X502247Y196287D01*
X503404Y195513D01*
X504770Y195241D01*
X506136Y195513D01*
X507293Y196287D01*
X508067Y197444D01*
X508339Y198810D01*
X508067Y200176D01*
X507293Y201333D01*
X506136Y202107D01*
X504770Y202379D01*
D02*
G37*
G36*
X872443Y214630D02*
X860430D01*
Y202617D01*
X862641Y202908D01*
X865885Y204252D01*
X868671Y206389D01*
X870808Y209175D01*
X872152Y212419D01*
X872443Y214630D01*
D02*
G37*
G36*
X541710Y208970D02*
X538094D01*
X538232Y208274D01*
X539346Y206606D01*
X541013Y205492D01*
X541710Y205354D01*
Y208970D01*
D02*
G37*
G36*
X857890Y214630D02*
X845877D01*
X846168Y212419D01*
X847512Y209175D01*
X849649Y206389D01*
X852435Y204252D01*
X855679Y202908D01*
X857890Y202617D01*
Y214630D01*
D02*
G37*
G36*
X381193Y205547D02*
X377577D01*
X377715Y204851D01*
X378829Y203184D01*
X380496Y202070D01*
X381193Y201931D01*
Y205547D01*
D02*
G37*
G36*
X387349D02*
X383733D01*
Y201931D01*
X384429Y202070D01*
X386096Y203184D01*
X387210Y204851D01*
X387349Y205547D01*
D02*
G37*
G36*
X984250Y307146D02*
X983553Y307008D01*
X981886Y305894D01*
X980772Y304226D01*
X980634Y303530D01*
X984250D01*
Y307146D01*
D02*
G37*
G36*
X986790D02*
Y303530D01*
X990406D01*
X990268Y304226D01*
X989154Y305894D01*
X987486Y307008D01*
X986790Y307146D01*
D02*
G37*
G36*
X957580D02*
Y303530D01*
X961196D01*
X961058Y304226D01*
X959944Y305894D01*
X958277Y307008D01*
X957580Y307146D01*
D02*
G37*
G36*
X832926Y302950D02*
X829310D01*
Y299334D01*
X830006Y299472D01*
X831674Y300586D01*
X832788Y302253D01*
X832926Y302950D01*
D02*
G37*
G36*
X955040Y307146D02*
X954343Y307008D01*
X952676Y305894D01*
X951562Y304226D01*
X951424Y303530D01*
X955040D01*
Y307146D01*
D02*
G37*
G36*
X637926Y307340D02*
X634310D01*
Y303724D01*
X635006Y303862D01*
X636674Y304976D01*
X637788Y306644D01*
X637926Y307340D01*
D02*
G37*
G36*
X722630Y309106D02*
X721934Y308968D01*
X720266Y307854D01*
X719152Y306187D01*
X719014Y305490D01*
X722630D01*
Y309106D01*
D02*
G37*
G36*
X631770Y307340D02*
X628154D01*
X628292Y306644D01*
X629406Y304976D01*
X631073Y303862D01*
X631770Y303724D01*
Y307340D01*
D02*
G37*
G36*
X605210D02*
X601594D01*
X601732Y306644D01*
X602846Y304976D01*
X604514Y303862D01*
X605210Y303724D01*
Y307340D01*
D02*
G37*
G36*
X611366D02*
X607750D01*
Y303724D01*
X608447Y303862D01*
X610114Y304976D01*
X611228Y306644D01*
X611366Y307340D01*
D02*
G37*
G36*
X425450Y302066D02*
X424753Y301928D01*
X423086Y300814D01*
X421972Y299146D01*
X421834Y298450D01*
X425450D01*
Y302066D01*
D02*
G37*
G36*
X427990D02*
Y298450D01*
X431606D01*
X431468Y299146D01*
X430354Y300814D01*
X428686Y301928D01*
X427990Y302066D01*
D02*
G37*
G36*
X415290D02*
Y298450D01*
X418906D01*
X418768Y299146D01*
X417654Y300814D01*
X415987Y301928D01*
X415290Y302066D01*
D02*
G37*
G36*
X990406Y300990D02*
X986790D01*
Y297374D01*
X987486Y297512D01*
X989154Y298626D01*
X990268Y300294D01*
X990406Y300990D01*
D02*
G37*
G36*
X412750Y302066D02*
X412053Y301928D01*
X410386Y300814D01*
X409272Y299146D01*
X409134Y298450D01*
X412750D01*
Y302066D01*
D02*
G37*
G36*
X813876Y302950D02*
X810260D01*
Y299334D01*
X810956Y299472D01*
X812624Y300586D01*
X813738Y302253D01*
X813876Y302950D01*
D02*
G37*
G36*
X826770D02*
X823154D01*
X823292Y302253D01*
X824406Y300586D01*
X826074Y299472D01*
X826770Y299334D01*
Y302950D01*
D02*
G37*
G36*
X807720D02*
X804104D01*
X804242Y302253D01*
X805356Y300586D01*
X807023Y299472D01*
X807720Y299334D01*
Y302950D01*
D02*
G37*
G36*
X722630D02*
X719014D01*
X719152Y302253D01*
X720266Y300586D01*
X721934Y299472D01*
X722630Y299334D01*
Y302950D01*
D02*
G37*
G36*
X728786D02*
X725170D01*
Y299334D01*
X725866Y299472D01*
X727534Y300586D01*
X728648Y302253D01*
X728786Y302950D01*
D02*
G37*
G36*
X861653Y357710D02*
X859173Y357383D01*
X856862Y356426D01*
X854877Y354903D01*
X853354Y352919D01*
X852397Y350608D01*
X852071Y348128D01*
Y323128D01*
X852397Y320648D01*
X853354Y318337D01*
X854877Y316352D01*
X856862Y314829D01*
X859173Y313872D01*
X861653Y313546D01*
X864133Y313872D01*
X866444Y314829D01*
X868428Y316352D01*
X869951Y318337D01*
X870908Y320648D01*
X871235Y323128D01*
Y348128D01*
X870908Y350608D01*
X869951Y352919D01*
X868428Y354903D01*
X866444Y356426D01*
X864133Y357383D01*
X861653Y357710D01*
D02*
G37*
G36*
X955040Y317500D02*
X951424D01*
X951562Y316803D01*
X952676Y315136D01*
X954343Y314022D01*
X955040Y313884D01*
Y317500D01*
D02*
G37*
G36*
X931998Y334690D02*
X923141D01*
Y313501D01*
X924492Y313679D01*
X926934Y314690D01*
X929032Y316300D01*
X930641Y318397D01*
X931653Y320839D01*
X931998Y323460D01*
Y334690D01*
D02*
G37*
G36*
X229676Y316230D02*
X226060D01*
Y312614D01*
X226756Y312752D01*
X228424Y313866D01*
X229538Y315534D01*
X229676Y316230D01*
D02*
G37*
G36*
X920601Y334690D02*
X911744D01*
Y323460D01*
X912089Y320839D01*
X913101Y318397D01*
X914710Y316300D01*
X916808Y314690D01*
X919250Y313679D01*
X920601Y313501D01*
Y334690D01*
D02*
G37*
G36*
X223520Y322386D02*
X222824Y322248D01*
X221156Y321134D01*
X220042Y319466D01*
X219904Y318770D01*
X223520D01*
Y322386D01*
D02*
G37*
G36*
X226060D02*
Y318770D01*
X229676D01*
X229538Y319466D01*
X228424Y321134D01*
X226756Y322248D01*
X226060Y322386D01*
D02*
G37*
G36*
X990406Y317500D02*
X986790D01*
Y313884D01*
X987486Y314022D01*
X989154Y315136D01*
X990268Y316803D01*
X990406Y317500D01*
D02*
G37*
G36*
X961196D02*
X957580D01*
Y313884D01*
X958277Y314022D01*
X959944Y315136D01*
X961058Y316803D01*
X961196Y317500D01*
D02*
G37*
G36*
X984250D02*
X980634D01*
X980772Y316803D01*
X981886Y315136D01*
X983553Y314022D01*
X984250Y313884D01*
Y317500D01*
D02*
G37*
G36*
X826770Y309106D02*
X826074Y308968D01*
X824406Y307854D01*
X823292Y306187D01*
X823154Y305490D01*
X826770D01*
Y309106D01*
D02*
G37*
G36*
X829310D02*
Y305490D01*
X832926D01*
X832788Y306187D01*
X831674Y307854D01*
X830006Y308968D01*
X829310Y309106D01*
D02*
G37*
G36*
X810260D02*
Y305490D01*
X813876D01*
X813738Y306187D01*
X812624Y307854D01*
X810956Y308968D01*
X810260Y309106D01*
D02*
G37*
G36*
X725170D02*
Y305490D01*
X728786D01*
X728648Y306187D01*
X727534Y307854D01*
X725866Y308968D01*
X725170Y309106D01*
D02*
G37*
G36*
X807720D02*
X807023Y308968D01*
X805356Y307854D01*
X804242Y306187D01*
X804104Y305490D01*
X807720D01*
Y309106D01*
D02*
G37*
G36*
X634310Y313496D02*
Y309880D01*
X637926D01*
X637788Y310576D01*
X636674Y312244D01*
X635006Y313358D01*
X634310Y313496D01*
D02*
G37*
G36*
X223520Y316230D02*
X219904D01*
X220042Y315534D01*
X221156Y313866D01*
X222824Y312752D01*
X223520Y312614D01*
Y316230D01*
D02*
G37*
G36*
X631770Y313496D02*
X631073Y313358D01*
X629406Y312244D01*
X628292Y310576D01*
X628154Y309880D01*
X631770D01*
Y313496D01*
D02*
G37*
G36*
X605210D02*
X604514Y313358D01*
X602846Y312244D01*
X601732Y310576D01*
X601594Y309880D01*
X605210D01*
Y313496D01*
D02*
G37*
G36*
X607750D02*
Y309880D01*
X611366D01*
X611228Y310576D01*
X610114Y312244D01*
X608447Y313358D01*
X607750Y313496D01*
D02*
G37*
G36*
X984250Y300990D02*
X980634D01*
X980772Y300294D01*
X981886Y298626D01*
X983553Y297512D01*
X984250Y297374D01*
Y300990D01*
D02*
G37*
G36*
X45720Y267788D02*
X45022Y267696D01*
X43187Y266936D01*
X41612Y265728D01*
X40404Y264153D01*
X39644Y262318D01*
X39552Y261620D01*
X45720D01*
Y267788D01*
D02*
G37*
G36*
X48260D02*
Y261620D01*
X54428D01*
X54336Y262318D01*
X53576Y264153D01*
X52368Y265728D01*
X50792Y266936D01*
X48958Y267696D01*
X48260Y267788D01*
D02*
G37*
G36*
X22860D02*
Y261620D01*
X29028D01*
X28936Y262318D01*
X28176Y264153D01*
X26968Y265728D01*
X25392Y266936D01*
X23558Y267696D01*
X22860Y267788D01*
D02*
G37*
G36*
X257190Y267350D02*
X243190D01*
Y253350D01*
X257190D01*
Y267350D01*
D02*
G37*
G36*
X20320Y267788D02*
X19622Y267696D01*
X17787Y266936D01*
X16212Y265728D01*
X15004Y264153D01*
X14244Y262318D01*
X14152Y261620D01*
X20320D01*
Y267788D01*
D02*
G37*
G36*
X522029Y282969D02*
X520663Y282697D01*
X519505Y281923D01*
X518732Y280766D01*
X518460Y279400D01*
X518732Y278034D01*
X519505Y276877D01*
X520663Y276103D01*
X522029Y275831D01*
X523394Y276103D01*
X524552Y276877D01*
X525326Y278034D01*
X525597Y279400D01*
X525326Y280766D01*
X524552Y281923D01*
X523394Y282697D01*
X522029Y282969D01*
D02*
G37*
G36*
X955040Y281940D02*
X951424D01*
X951562Y281243D01*
X952676Y279576D01*
X954343Y278462D01*
X955040Y278324D01*
Y281940D01*
D02*
G37*
G36*
X397316Y278130D02*
X393700D01*
Y274514D01*
X394397Y274652D01*
X396064Y275766D01*
X397178Y277433D01*
X397316Y278130D01*
D02*
G37*
G36*
X510599Y271539D02*
X509233Y271267D01*
X508075Y270493D01*
X507302Y269336D01*
X507030Y267970D01*
X507302Y266604D01*
X508075Y265447D01*
X509233Y264673D01*
X510599Y264401D01*
X511964Y264673D01*
X513122Y265447D01*
X513896Y266604D01*
X514167Y267970D01*
X513896Y269336D01*
X513122Y270493D01*
X511964Y271267D01*
X510599Y271539D01*
D02*
G37*
G36*
X391160Y278130D02*
X387544D01*
X387682Y277433D01*
X388796Y275766D01*
X390463Y274652D01*
X391160Y274514D01*
Y278130D01*
D02*
G37*
G36*
X72390Y267410D02*
X70563Y267170D01*
X68860Y266465D01*
X67398Y265342D01*
X66276Y263880D01*
X65570Y262177D01*
X65330Y260350D01*
X65570Y258523D01*
X66276Y256820D01*
X67398Y255358D01*
X68860Y254235D01*
X70563Y253530D01*
X72390Y253290D01*
X74217Y253530D01*
X75920Y254235D01*
X77382Y255358D01*
X78505Y256820D01*
X79210Y258523D01*
X79450Y260350D01*
X79210Y262177D01*
X78505Y263880D01*
X77382Y265342D01*
X75920Y266465D01*
X74217Y267170D01*
X72390Y267410D01*
D02*
G37*
G36*
X97790D02*
X95963Y267170D01*
X94260Y266465D01*
X92798Y265342D01*
X91676Y263880D01*
X90970Y262177D01*
X90730Y260350D01*
X90970Y258523D01*
X91676Y256820D01*
X92798Y255358D01*
X94260Y254235D01*
X95963Y253530D01*
X97790Y253290D01*
X99617Y253530D01*
X101320Y254235D01*
X102782Y255358D01*
X103904Y256820D01*
X104610Y258523D01*
X104850Y260350D01*
X104610Y262177D01*
X103904Y263880D01*
X102782Y265342D01*
X101320Y266465D01*
X99617Y267170D01*
X97790Y267410D01*
D02*
G37*
G36*
X54428Y259080D02*
X48260D01*
Y252912D01*
X48958Y253004D01*
X50792Y253764D01*
X52368Y254972D01*
X53576Y256548D01*
X54336Y258382D01*
X54428Y259080D01*
D02*
G37*
G36*
X29028D02*
X22860D01*
Y252912D01*
X23558Y253004D01*
X25392Y253764D01*
X26968Y254972D01*
X28176Y256548D01*
X28936Y258382D01*
X29028Y259080D01*
D02*
G37*
G36*
X45720D02*
X39552D01*
X39644Y258382D01*
X40404Y256548D01*
X41612Y254972D01*
X43187Y253764D01*
X45022Y253004D01*
X45720Y252912D01*
Y259080D01*
D02*
G37*
G36*
X199390Y267410D02*
X197563Y267170D01*
X195860Y266465D01*
X194398Y265342D01*
X193276Y263880D01*
X192570Y262177D01*
X192330Y260350D01*
X192570Y258523D01*
X193276Y256820D01*
X194398Y255358D01*
X195860Y254235D01*
X197563Y253530D01*
X199390Y253290D01*
X201217Y253530D01*
X202920Y254235D01*
X204382Y255358D01*
X205504Y256820D01*
X206210Y258523D01*
X206450Y260350D01*
X206210Y262177D01*
X205504Y263880D01*
X204382Y265342D01*
X202920Y266465D01*
X201217Y267170D01*
X199390Y267410D01*
D02*
G37*
G36*
X224790D02*
X222963Y267170D01*
X221260Y266465D01*
X219798Y265342D01*
X218675Y263880D01*
X217970Y262177D01*
X217730Y260350D01*
X217970Y258523D01*
X218675Y256820D01*
X219798Y255358D01*
X221260Y254235D01*
X222963Y253530D01*
X224790Y253290D01*
X226617Y253530D01*
X228320Y254235D01*
X229782Y255358D01*
X230905Y256820D01*
X231610Y258523D01*
X231850Y260350D01*
X231610Y262177D01*
X230905Y263880D01*
X229782Y265342D01*
X228320Y266465D01*
X226617Y267170D01*
X224790Y267410D01*
D02*
G37*
G36*
X173990D02*
X172163Y267170D01*
X170460Y266465D01*
X168998Y265342D01*
X167875Y263880D01*
X167170Y262177D01*
X166930Y260350D01*
X167170Y258523D01*
X167875Y256820D01*
X168998Y255358D01*
X170460Y254235D01*
X172163Y253530D01*
X173990Y253290D01*
X175817Y253530D01*
X177520Y254235D01*
X178982Y255358D01*
X180105Y256820D01*
X180810Y258523D01*
X181050Y260350D01*
X180810Y262177D01*
X180105Y263880D01*
X178982Y265342D01*
X177520Y266465D01*
X175817Y267170D01*
X173990Y267410D01*
D02*
G37*
G36*
X123190D02*
X121363Y267170D01*
X119660Y266465D01*
X118198Y265342D01*
X117076Y263880D01*
X116370Y262177D01*
X116130Y260350D01*
X116370Y258523D01*
X117076Y256820D01*
X118198Y255358D01*
X119660Y254235D01*
X121363Y253530D01*
X123190Y253290D01*
X125017Y253530D01*
X126720Y254235D01*
X128182Y255358D01*
X129305Y256820D01*
X130010Y258523D01*
X130250Y260350D01*
X130010Y262177D01*
X129305Y263880D01*
X128182Y265342D01*
X126720Y266465D01*
X125017Y267170D01*
X123190Y267410D01*
D02*
G37*
G36*
X148590D02*
X146763Y267170D01*
X145060Y266465D01*
X143598Y265342D01*
X142476Y263880D01*
X141770Y262177D01*
X141530Y260350D01*
X141770Y258523D01*
X142476Y256820D01*
X143598Y255358D01*
X145060Y254235D01*
X146763Y253530D01*
X148590Y253290D01*
X150417Y253530D01*
X152120Y254235D01*
X153582Y255358D01*
X154705Y256820D01*
X155410Y258523D01*
X155650Y260350D01*
X155410Y262177D01*
X154705Y263880D01*
X153582Y265342D01*
X152120Y266465D01*
X150417Y267170D01*
X148590Y267410D01*
D02*
G37*
G36*
X418906Y295910D02*
X415290D01*
Y292294D01*
X415987Y292432D01*
X417654Y293546D01*
X418768Y295214D01*
X418906Y295910D01*
D02*
G37*
G36*
X425450D02*
X421834D01*
X421972Y295214D01*
X423086Y293546D01*
X424753Y292432D01*
X425450Y292294D01*
Y295910D01*
D02*
G37*
G36*
X412750D02*
X409134D01*
X409272Y295214D01*
X410386Y293546D01*
X412053Y292432D01*
X412750Y292294D01*
Y295910D01*
D02*
G37*
G36*
X618490Y294060D02*
X614874D01*
X615012Y293363D01*
X616126Y291696D01*
X617794Y290582D01*
X618490Y290444D01*
Y294060D01*
D02*
G37*
G36*
X624646D02*
X621030D01*
Y290444D01*
X621726Y290582D01*
X623394Y291696D01*
X624508Y293363D01*
X624646Y294060D01*
D02*
G37*
G36*
X955040Y300990D02*
X951424D01*
X951562Y300294D01*
X952676Y298626D01*
X954343Y297512D01*
X955040Y297374D01*
Y300990D01*
D02*
G37*
G36*
X961196D02*
X957580D01*
Y297374D01*
X958277Y297512D01*
X959944Y298626D01*
X961058Y300294D01*
X961196Y300990D01*
D02*
G37*
G36*
X621030Y300216D02*
Y296600D01*
X624646D01*
X624508Y297297D01*
X623394Y298964D01*
X621726Y300078D01*
X621030Y300216D01*
D02*
G37*
G36*
X431606Y295910D02*
X427990D01*
Y292294D01*
X428686Y292432D01*
X430354Y293546D01*
X431468Y295214D01*
X431606Y295910D01*
D02*
G37*
G36*
X618490Y300216D02*
X617794Y300078D01*
X616126Y298964D01*
X615012Y297297D01*
X614874Y296600D01*
X618490D01*
Y300216D01*
D02*
G37*
G36*
X391160Y284286D02*
X390463Y284148D01*
X388796Y283034D01*
X387682Y281367D01*
X387544Y280670D01*
X391160D01*
Y284286D01*
D02*
G37*
G36*
X393700D02*
Y280670D01*
X397316D01*
X397178Y281367D01*
X396064Y283034D01*
X394397Y284148D01*
X393700Y284286D01*
D02*
G37*
G36*
X990406Y281940D02*
X986790D01*
Y278324D01*
X987486Y278462D01*
X989154Y279576D01*
X990268Y281243D01*
X990406Y281940D01*
D02*
G37*
G36*
X961196D02*
X957580D01*
Y278324D01*
X958277Y278462D01*
X959944Y279576D01*
X961058Y281243D01*
X961196Y281940D01*
D02*
G37*
G36*
X984250D02*
X980634D01*
X980772Y281243D01*
X981886Y279576D01*
X983553Y278462D01*
X984250Y278324D01*
Y281940D01*
D02*
G37*
G36*
Y288096D02*
X983553Y287958D01*
X981886Y286844D01*
X980772Y285177D01*
X980634Y284480D01*
X984250D01*
Y288096D01*
D02*
G37*
G36*
X986790D02*
Y284480D01*
X990406D01*
X990268Y285177D01*
X989154Y286844D01*
X987486Y287958D01*
X986790Y288096D01*
D02*
G37*
G36*
X957580D02*
Y284480D01*
X961196D01*
X961058Y285177D01*
X959944Y286844D01*
X958277Y287958D01*
X957580Y288096D01*
D02*
G37*
G36*
X347345Y309245D02*
X295275D01*
Y284480D01*
X347345D01*
Y309245D01*
D02*
G37*
G36*
X955040Y288096D02*
X954343Y287958D01*
X952676Y286844D01*
X951562Y285177D01*
X951424Y284480D01*
X955040D01*
Y288096D01*
D02*
G37*
G36*
X560070Y88706D02*
Y85090D01*
X563686D01*
X563548Y85787D01*
X562434Y87454D01*
X560766Y88568D01*
X560070Y88706D01*
D02*
G37*
G36*
X637540Y88900D02*
X633924D01*
X634062Y88203D01*
X635176Y86536D01*
X636843Y85422D01*
X637540Y85284D01*
Y88900D01*
D02*
G37*
G36*
X557530Y88706D02*
X556833Y88568D01*
X555166Y87454D01*
X554052Y85787D01*
X553914Y85090D01*
X557530D01*
Y88706D01*
D02*
G37*
G36*
X581660Y89929D02*
X580294Y89657D01*
X579137Y88883D01*
X578363Y87726D01*
X578091Y86360D01*
X578363Y84994D01*
X579137Y83837D01*
X580294Y83063D01*
X580294D01*
X580903Y82646D01*
X580631Y81280D01*
X580903Y79914D01*
X581677Y78757D01*
X582834Y77983D01*
X584200Y77711D01*
X585566Y77983D01*
X586723Y78757D01*
X587497Y79914D01*
X587769Y81280D01*
X587497Y82646D01*
X586723Y83803D01*
X585566Y84577D01*
X585566D01*
X584957Y84994D01*
X585229Y86360D01*
X584957Y87726D01*
X584183Y88883D01*
X583026Y89657D01*
X581660Y89929D01*
D02*
G37*
G36*
X939195Y105841D02*
X936454Y105480D01*
X933900Y104422D01*
X931707Y102739D01*
X930024Y100545D01*
X928966Y97991D01*
X928605Y95250D01*
X928966Y92509D01*
X930024Y89955D01*
X931707Y87761D01*
X933900Y86078D01*
X936454Y85020D01*
X939195Y84659D01*
X941936Y85020D01*
X944491Y86078D01*
X946684Y87761D01*
X948367Y89955D01*
X949425Y92509D01*
X949786Y95250D01*
X949425Y97991D01*
X948367Y100545D01*
X946684Y102739D01*
X944491Y104422D01*
X941936Y105480D01*
X939195Y105841D01*
D02*
G37*
G36*
X165571Y99356D02*
X164023Y99152D01*
X161398Y98065D01*
X159144Y96336D01*
X157415Y94082D01*
X156328Y91457D01*
X156124Y89911D01*
X165571D01*
Y99356D01*
D02*
G37*
G36*
X168111Y99356D02*
Y89911D01*
X177556D01*
X177352Y91457D01*
X176265Y94082D01*
X174536Y96336D01*
X172281Y98065D01*
X169657Y99152D01*
X168111Y99356D01*
D02*
G37*
G36*
X751260Y93206D02*
Y89590D01*
X754876D01*
X754738Y90287D01*
X753624Y91954D01*
X751956Y93068D01*
X751260Y93206D01*
D02*
G37*
G36*
X643696Y88900D02*
X640080D01*
Y85284D01*
X640777Y85422D01*
X642444Y86536D01*
X643558Y88203D01*
X643696Y88900D01*
D02*
G37*
G36*
X748720Y93206D02*
X748024Y93068D01*
X746356Y91954D01*
X745242Y90287D01*
X745104Y89590D01*
X748720D01*
Y93206D01*
D02*
G37*
G36*
X826165Y100102D02*
X823654Y99771D01*
X821314Y98802D01*
X819304Y97260D01*
X817762Y95250D01*
X816793Y92910D01*
X816462Y90399D01*
X816793Y87887D01*
X817762Y85547D01*
X819304Y83538D01*
X821314Y81996D01*
X823654Y81026D01*
X826165Y80696D01*
X828677Y81026D01*
X831017Y81996D01*
X833027Y83538D01*
X834568Y85547D01*
X835538Y87887D01*
X835869Y90399D01*
X835538Y92910D01*
X834568Y95250D01*
X833027Y97260D01*
X831017Y98802D01*
X828677Y99771D01*
X826165Y100102D01*
D02*
G37*
G36*
X748720Y87050D02*
X745104D01*
X745242Y86354D01*
X746356Y84686D01*
X748024Y83572D01*
X748720Y83434D01*
Y87050D01*
D02*
G37*
G36*
X740530Y83746D02*
Y80130D01*
X744146D01*
X744008Y80827D01*
X742894Y82494D01*
X741227Y83608D01*
X740530Y83746D01*
D02*
G37*
G36*
X563686Y82550D02*
X560070D01*
Y78934D01*
X560766Y79072D01*
X562434Y80186D01*
X563548Y81854D01*
X563686Y82550D01*
D02*
G37*
G36*
X737990Y83746D02*
X737293Y83608D01*
X735626Y82494D01*
X734512Y80827D01*
X734374Y80130D01*
X737990D01*
Y83746D01*
D02*
G37*
G36*
X681990Y87436D02*
X681293Y87298D01*
X679626Y86184D01*
X678512Y84516D01*
X678374Y83820D01*
X681990D01*
Y87436D01*
D02*
G37*
G36*
X684530D02*
Y83820D01*
X688146D01*
X688008Y84516D01*
X686894Y86184D01*
X685227Y87298D01*
X684530Y87436D01*
D02*
G37*
G36*
X652780D02*
Y83820D01*
X656396D01*
X656258Y84516D01*
X655144Y86184D01*
X653476Y87298D01*
X652780Y87436D01*
D02*
G37*
G36*
X754876Y87050D02*
X751260D01*
Y83434D01*
X751956Y83572D01*
X753624Y84686D01*
X754738Y86354D01*
X754876Y87050D01*
D02*
G37*
G36*
X650240Y87436D02*
X649544Y87298D01*
X647876Y86184D01*
X646762Y84516D01*
X646624Y83820D01*
X650240D01*
Y87436D01*
D02*
G37*
G36*
X563686Y95250D02*
X560070D01*
Y91634D01*
X560766Y91772D01*
X562434Y92886D01*
X563548Y94553D01*
X563686Y95250D01*
D02*
G37*
G36*
X800766Y113792D02*
X798254Y113462D01*
X795914Y112492D01*
X793904Y110950D01*
X792362Y108941D01*
X791393Y106601D01*
X791062Y104089D01*
X791393Y101578D01*
X792362Y99238D01*
X793904Y97228D01*
X795914Y95686D01*
X798254Y94717D01*
X800766Y94386D01*
X803277Y94717D01*
X805617Y95686D01*
X807626Y97228D01*
X809168Y99238D01*
X810138Y101578D01*
X810469Y104089D01*
X810138Y106601D01*
X809168Y108941D01*
X807626Y110950D01*
X805617Y112492D01*
X803277Y113462D01*
X800766Y113792D01*
D02*
G37*
G36*
X557530Y95250D02*
X553914D01*
X554052Y94553D01*
X555166Y92886D01*
X556833Y91772D01*
X557530Y91634D01*
Y95250D01*
D02*
G37*
G36*
X637540Y95056D02*
X636843Y94918D01*
X635176Y93804D01*
X634062Y92136D01*
X633924Y91440D01*
X637540D01*
Y95056D01*
D02*
G37*
G36*
X640080D02*
Y91440D01*
X643696D01*
X643558Y92136D01*
X642444Y93804D01*
X640777Y94918D01*
X640080Y95056D01*
D02*
G37*
G36*
X560070Y101406D02*
Y97790D01*
X563686D01*
X563548Y98486D01*
X562434Y100154D01*
X560766Y101268D01*
X560070Y101406D01*
D02*
G37*
G36*
X520700Y102870D02*
X517084D01*
X517222Y102174D01*
X518336Y100506D01*
X520004Y99392D01*
X520700Y99254D01*
Y102870D01*
D02*
G37*
G36*
X557530Y101406D02*
X556833Y101268D01*
X555166Y100154D01*
X554052Y98486D01*
X553914Y97790D01*
X557530D01*
Y101406D01*
D02*
G37*
G36*
X701040Y101290D02*
X697424D01*
X697562Y100594D01*
X698676Y98926D01*
X700343Y97812D01*
X701040Y97674D01*
Y101290D01*
D02*
G37*
G36*
X707196D02*
X703580D01*
Y97674D01*
X704277Y97812D01*
X705944Y98926D01*
X707058Y100594D01*
X707196Y101290D01*
D02*
G37*
G36*
X465570Y99357D02*
X464023Y99153D01*
X461398Y98066D01*
X459144Y96336D01*
X457415Y94082D01*
X456328Y91457D01*
X456124Y89912D01*
X465570D01*
Y99357D01*
D02*
G37*
G36*
X468110Y99357D02*
Y89912D01*
X477556D01*
X477352Y91457D01*
X476265Y94082D01*
X474535Y96336D01*
X472281Y98066D01*
X469657Y99153D01*
X468110Y99357D01*
D02*
G37*
G36*
X368111Y99356D02*
Y89911D01*
X377556D01*
X377352Y91457D01*
X376265Y94082D01*
X374535Y96336D01*
X372281Y98066D01*
X369656Y99153D01*
X368111Y99356D01*
D02*
G37*
G36*
X265571Y99356D02*
X264023Y99153D01*
X261398Y98066D01*
X259144Y96336D01*
X257415Y94082D01*
X256328Y91457D01*
X256124Y89911D01*
X265571D01*
Y99356D01*
D02*
G37*
G36*
X268111Y99356D02*
Y89911D01*
X277556D01*
X277352Y91457D01*
X276265Y94082D01*
X274536Y96336D01*
X272281Y98066D01*
X269657Y99153D01*
X268111Y99356D01*
D02*
G37*
G36*
X440569Y98722D02*
X439188Y98540D01*
X436716Y97517D01*
X434594Y95888D01*
X432965Y93766D01*
X431941Y91294D01*
X431759Y89913D01*
X440569D01*
Y98722D01*
D02*
G37*
G36*
X443109Y98722D02*
Y89913D01*
X451920D01*
X451738Y91294D01*
X450715Y93766D01*
X449086Y95888D01*
X446964Y97517D01*
X444492Y98540D01*
X443109Y98722D01*
D02*
G37*
G36*
X393109D02*
Y89913D01*
X401920D01*
X401739Y91294D01*
X400715Y93766D01*
X399086Y95888D01*
X396964Y97517D01*
X394492Y98540D01*
X393109Y98722D01*
D02*
G37*
G36*
X343569Y98722D02*
X342188Y98540D01*
X339716Y97517D01*
X337594Y95888D01*
X335965Y93766D01*
X334941Y91294D01*
X334759Y89913D01*
X343569D01*
Y98722D01*
D02*
G37*
G36*
X390569D02*
X389188Y98540D01*
X386716Y97517D01*
X384594Y95888D01*
X382965Y93766D01*
X381941Y91294D01*
X381760Y89913D01*
X390569D01*
Y98722D01*
D02*
G37*
G36*
X557530Y82550D02*
X553914D01*
X554052Y81854D01*
X555166Y80186D01*
X556833Y79072D01*
X557530Y78934D01*
Y82550D01*
D02*
G37*
G36*
X675640Y43180D02*
X672024D01*
X672162Y42484D01*
X673276Y40816D01*
X674943Y39702D01*
X675640Y39564D01*
Y43180D01*
D02*
G37*
G36*
X681796D02*
X678180D01*
Y39564D01*
X678876Y39702D01*
X680544Y40816D01*
X681658Y42484D01*
X681796Y43180D01*
D02*
G37*
G36*
X718130Y44789D02*
X716764Y44517D01*
X715607Y43743D01*
X714833Y42586D01*
X714561Y41220D01*
X714833Y39854D01*
X715607Y38697D01*
X716764Y37923D01*
X718130Y37651D01*
X719496Y37923D01*
X720653Y38697D01*
X721427Y39854D01*
X721699Y41220D01*
X721427Y42586D01*
X720653Y43743D01*
X719496Y44517D01*
X718130Y44789D01*
D02*
G37*
G36*
X772740Y39950D02*
X769124D01*
X769262Y39253D01*
X770376Y37586D01*
X772044Y36472D01*
X772740Y36334D01*
Y39950D01*
D02*
G37*
G36*
X778896D02*
X775280D01*
Y36334D01*
X775976Y36472D01*
X777644Y37586D01*
X778758Y39253D01*
X778896Y39950D01*
D02*
G37*
G36*
X772740Y46106D02*
X772044Y45968D01*
X770376Y44854D01*
X769262Y43186D01*
X769124Y42490D01*
X772740D01*
Y46106D01*
D02*
G37*
G36*
X775280D02*
Y42490D01*
X778896D01*
X778758Y43186D01*
X777644Y44854D01*
X775976Y45968D01*
X775280Y46106D01*
D02*
G37*
G36*
X485830Y48019D02*
X484464Y47747D01*
X483307Y46973D01*
X482533Y45816D01*
X482261Y44450D01*
X482533Y43084D01*
X483307Y41927D01*
X484464Y41153D01*
X485830Y40881D01*
X487196Y41153D01*
X488353Y41927D01*
X489127Y43084D01*
X489399Y44450D01*
X489127Y45816D01*
X488353Y46973D01*
X487196Y47747D01*
X485830Y48019D01*
D02*
G37*
G36*
X366450D02*
X365084Y47747D01*
X363927Y46973D01*
X363153Y45816D01*
X362881Y44450D01*
X363153Y43084D01*
X363927Y41927D01*
X365084Y41153D01*
X366450Y40881D01*
X367816Y41153D01*
X368973Y41927D01*
X369747Y43084D01*
X370019Y44450D01*
X369747Y45816D01*
X368973Y46973D01*
X367816Y47747D01*
X366450Y48019D01*
D02*
G37*
G36*
X428680D02*
X427314Y47747D01*
X426157Y46973D01*
X425383Y45816D01*
X425111Y44450D01*
X425383Y43084D01*
X426157Y41927D01*
X427314Y41153D01*
X428680Y40881D01*
X430046Y41153D01*
X431203Y41927D01*
X431977Y43084D01*
X432249Y44450D01*
X431977Y45816D01*
X431203Y46973D01*
X430046Y47747D01*
X428680Y48019D01*
D02*
G37*
G36*
X806256Y21590D02*
X802640D01*
Y17974D01*
X803336Y18112D01*
X805004Y19226D01*
X806118Y20893D01*
X806256Y21590D01*
D02*
G37*
G36*
X800100Y27746D02*
X799404Y27608D01*
X797736Y26494D01*
X796622Y24827D01*
X796484Y24130D01*
X800100D01*
Y27746D01*
D02*
G37*
G36*
Y21590D02*
X796484D01*
X796622Y20893D01*
X797736Y19226D01*
X799404Y18112D01*
X800100Y17974D01*
Y21590D01*
D02*
G37*
G36*
X30000Y52106D02*
X25687Y51682D01*
X21540Y50424D01*
X17718Y48381D01*
X14368Y45632D01*
X11619Y42282D01*
X9576Y38460D01*
X8318Y34313D01*
X7894Y30000D01*
X8318Y25687D01*
X9576Y21540D01*
X11619Y17718D01*
X14368Y14368D01*
X17718Y11619D01*
X21540Y9576D01*
X25687Y8318D01*
X30000Y7894D01*
X34313Y8318D01*
X38460Y9576D01*
X42282Y11619D01*
X45632Y14368D01*
X48381Y17718D01*
X50424Y21540D01*
X51682Y25687D01*
X52106Y30000D01*
X51682Y34313D01*
X50424Y38460D01*
X48381Y42282D01*
X45632Y45632D01*
X42282Y48381D01*
X38460Y50424D01*
X34313Y51682D01*
X30000Y52106D01*
D02*
G37*
G36*
X970000D02*
X965687Y51682D01*
X961540Y50424D01*
X957718Y48381D01*
X954368Y45632D01*
X951619Y42282D01*
X949576Y38460D01*
X948318Y34313D01*
X947894Y30000D01*
X948318Y25687D01*
X949576Y21540D01*
X951619Y17718D01*
X954368Y14368D01*
X957718Y11619D01*
X961540Y9576D01*
X965687Y8318D01*
X970000Y7894D01*
X974313Y8318D01*
X978460Y9576D01*
X982282Y11619D01*
X985632Y14368D01*
X988381Y17718D01*
X990424Y21540D01*
X991682Y25687D01*
X992106Y30000D01*
X991682Y34313D01*
X990424Y38460D01*
X988381Y42282D01*
X985632Y45632D01*
X982282Y48381D01*
X978460Y50424D01*
X974313Y51682D01*
X970000Y52106D01*
D02*
G37*
G36*
X259770Y39176D02*
X259074Y39038D01*
X257406Y37924D01*
X256292Y36256D01*
X256154Y35560D01*
X259770D01*
Y39176D01*
D02*
G37*
G36*
X262310D02*
Y35560D01*
X265926D01*
X265788Y36256D01*
X264674Y37924D01*
X263006Y39038D01*
X262310Y39176D01*
D02*
G37*
G36*
X265926Y33020D02*
X262310D01*
Y29404D01*
X263006Y29542D01*
X264674Y30656D01*
X265788Y32324D01*
X265926Y33020D01*
D02*
G37*
G36*
X802640Y27746D02*
Y24130D01*
X806256D01*
X806118Y24827D01*
X805004Y26494D01*
X803336Y27608D01*
X802640Y27746D01*
D02*
G37*
G36*
X259770Y33020D02*
X256154D01*
X256292Y32324D01*
X257406Y30656D01*
X259074Y29542D01*
X259770Y29404D01*
Y33020D01*
D02*
G37*
G36*
X810324Y87184D02*
X791085D01*
Y67944D01*
X810324D01*
Y87184D01*
D02*
G37*
G36*
X737990Y77590D02*
X734374D01*
X734512Y76894D01*
X735626Y75226D01*
X737293Y74112D01*
X737990Y73974D01*
Y77590D01*
D02*
G37*
G36*
X889666Y97231D02*
X886088Y96878D01*
X882648Y95835D01*
X879477Y94140D01*
X876698Y91860D01*
X874418Y89081D01*
X872723Y85910D01*
X871680Y82470D01*
X871327Y78892D01*
X871680Y75315D01*
X872723Y71875D01*
X874418Y68704D01*
X876698Y65925D01*
X879477Y63645D01*
X882648Y61950D01*
X886088Y60907D01*
X889666Y60554D01*
X893243Y60907D01*
X896683Y61950D01*
X899854Y63645D01*
X902633Y65925D01*
X904913Y68704D01*
X906608Y71875D01*
X907651Y75315D01*
X908004Y78892D01*
X907651Y82470D01*
X906608Y85910D01*
X904913Y89081D01*
X902633Y91860D01*
X899854Y94140D01*
X896683Y95835D01*
X893243Y96878D01*
X889666Y97231D01*
D02*
G37*
G36*
X860430Y69163D02*
Y57150D01*
X872443D01*
X872152Y59361D01*
X870808Y62605D01*
X868671Y65391D01*
X865885Y67528D01*
X862641Y68872D01*
X860430Y69163D01*
D02*
G37*
G36*
X939195Y80441D02*
X936454Y80080D01*
X933900Y79022D01*
X931707Y77339D01*
X930024Y75145D01*
X928966Y72591D01*
X928605Y69850D01*
X928966Y67109D01*
X930024Y64555D01*
X931707Y62361D01*
X933900Y60678D01*
X936454Y59620D01*
X939195Y59259D01*
X941936Y59620D01*
X944491Y60678D01*
X946684Y62361D01*
X948367Y64555D01*
X949425Y67109D01*
X949786Y69850D01*
X949425Y72591D01*
X948367Y75145D01*
X946684Y77339D01*
X944491Y79022D01*
X941936Y80080D01*
X939195Y80441D01*
D02*
G37*
G36*
X681990Y81280D02*
X678374D01*
X678512Y80583D01*
X679626Y78916D01*
X681293Y77802D01*
X681990Y77664D01*
Y81280D01*
D02*
G37*
G36*
X688146D02*
X684530D01*
Y77664D01*
X685227Y77802D01*
X686894Y78916D01*
X688008Y80583D01*
X688146Y81280D01*
D02*
G37*
G36*
X656396D02*
X652780D01*
Y77664D01*
X653476Y77802D01*
X655144Y78916D01*
X656258Y80583D01*
X656396Y81280D01*
D02*
G37*
G36*
X744146Y77590D02*
X740530D01*
Y73974D01*
X741227Y74112D01*
X742894Y75226D01*
X744008Y76894D01*
X744146Y77590D01*
D02*
G37*
G36*
X650240Y81280D02*
X646624D01*
X646762Y80583D01*
X647876Y78916D01*
X649544Y77802D01*
X650240Y77664D01*
Y81280D01*
D02*
G37*
G36*
X707196Y46990D02*
X703580D01*
Y43374D01*
X704277Y43512D01*
X705944Y44626D01*
X707058Y46294D01*
X707196Y46990D01*
D02*
G37*
G36*
X675640Y49336D02*
X674943Y49198D01*
X673276Y48084D01*
X672162Y46417D01*
X672024Y45720D01*
X675640D01*
Y49336D01*
D02*
G37*
G36*
X701040Y46990D02*
X697424D01*
X697562Y46294D01*
X698676Y44626D01*
X700343Y43512D01*
X701040Y43374D01*
Y46990D01*
D02*
G37*
G36*
X857890Y54610D02*
X845877D01*
X846168Y52399D01*
X847512Y49155D01*
X849649Y46369D01*
X852435Y44232D01*
X855679Y42888D01*
X857890Y42597D01*
Y54610D01*
D02*
G37*
G36*
X872443D02*
X860430D01*
Y42597D01*
X862641Y42888D01*
X865885Y44232D01*
X868671Y46369D01*
X870808Y49155D01*
X872152Y52399D01*
X872443Y54610D01*
D02*
G37*
G36*
X552450Y58179D02*
X551084Y57907D01*
X549927Y57133D01*
X549153Y55976D01*
X548881Y54610D01*
X549153Y53244D01*
X549927Y52087D01*
X551084Y51313D01*
X552450Y51041D01*
X553816Y51313D01*
X554973Y52087D01*
X555747Y53244D01*
X556019Y54610D01*
X555747Y55976D01*
X554973Y57133D01*
X553816Y57907D01*
X552450Y58179D01*
D02*
G37*
G36*
X857890Y69163D02*
X855679Y68872D01*
X852435Y67528D01*
X849649Y65391D01*
X847512Y62605D01*
X846168Y59361D01*
X845877Y57150D01*
X857890D01*
Y69163D01*
D02*
G37*
G36*
X703580Y53146D02*
Y49530D01*
X707196D01*
X707058Y50226D01*
X705944Y51894D01*
X704277Y53008D01*
X703580Y53146D01*
D02*
G37*
G36*
X678180Y49336D02*
Y45720D01*
X681796D01*
X681658Y46417D01*
X680544Y48084D01*
X678876Y49198D01*
X678180Y49336D01*
D02*
G37*
G36*
X701040Y53146D02*
X700343Y53008D01*
X698676Y51894D01*
X697562Y50226D01*
X697424Y49530D01*
X701040D01*
Y53146D01*
D02*
G37*
G36*
X532130Y149860D02*
X528514D01*
X528652Y149164D01*
X529766Y147496D01*
X531433Y146382D01*
X532130Y146244D01*
Y149860D01*
D02*
G37*
G36*
X538286D02*
X534670D01*
Y146244D01*
X535367Y146382D01*
X537034Y147496D01*
X538148Y149164D01*
X538286Y149860D01*
D02*
G37*
G36*
X800766Y164592D02*
X798254Y164262D01*
X795914Y163292D01*
X793904Y161750D01*
X792362Y159741D01*
X791393Y157401D01*
X791062Y154889D01*
X791393Y152378D01*
X792362Y150038D01*
X793904Y148028D01*
X795914Y146486D01*
X798254Y145517D01*
X800766Y145186D01*
X803277Y145517D01*
X805617Y146486D01*
X807626Y148028D01*
X809168Y150038D01*
X810138Y152378D01*
X810469Y154889D01*
X810138Y157401D01*
X809168Y159741D01*
X807626Y161750D01*
X805617Y163292D01*
X803277Y164262D01*
X800766Y164592D01*
D02*
G37*
G36*
X584200Y144586D02*
Y140970D01*
X587816D01*
X587678Y141666D01*
X586564Y143334D01*
X584897Y144448D01*
X584200Y144586D01*
D02*
G37*
G36*
X626110Y152159D02*
X624744Y151887D01*
X623587Y151113D01*
X622813Y149956D01*
X622541Y148590D01*
X622813Y147224D01*
X623587Y146067D01*
X624744Y145293D01*
X626110Y145021D01*
X627476Y145293D01*
X628633Y146067D01*
X629407Y147224D01*
X629679Y148590D01*
X629407Y149956D01*
X628633Y151113D01*
X627476Y151887D01*
X626110Y152159D01*
D02*
G37*
G36*
X681796Y149860D02*
X678180D01*
Y146244D01*
X678876Y146382D01*
X680544Y147496D01*
X681658Y149164D01*
X681796Y149860D01*
D02*
G37*
G36*
X115569Y156056D02*
X114021Y155852D01*
X111396Y154765D01*
X109142Y153036D01*
X107412Y150782D01*
X106325Y148157D01*
X106121Y146609D01*
X115569D01*
Y156056D01*
D02*
G37*
G36*
X675640Y149860D02*
X672024D01*
X672162Y149164D01*
X673276Y147496D01*
X674943Y146382D01*
X675640Y146244D01*
Y149860D01*
D02*
G37*
G36*
X659130D02*
X655514D01*
X655652Y149164D01*
X656766Y147496D01*
X658434Y146382D01*
X659130Y146244D01*
Y149860D01*
D02*
G37*
G36*
X665286D02*
X661670D01*
Y146244D01*
X662366Y146382D01*
X664034Y147496D01*
X665148Y149164D01*
X665286Y149860D01*
D02*
G37*
G36*
X675640Y139506D02*
X674943Y139368D01*
X673276Y138254D01*
X672162Y136587D01*
X672024Y135890D01*
X675640D01*
Y139506D01*
D02*
G37*
G36*
X678180D02*
Y135890D01*
X681796D01*
X681658Y136587D01*
X680544Y138254D01*
X678876Y139368D01*
X678180Y139506D01*
D02*
G37*
G36*
X711200Y141999D02*
X709834Y141727D01*
X708677Y140953D01*
X707903Y139796D01*
X707631Y138430D01*
X707903Y137064D01*
X708677Y135907D01*
X709834Y135133D01*
X711200Y134861D01*
X712566Y135133D01*
X713723Y135907D01*
X714497Y137064D01*
X714769Y138430D01*
X714497Y139796D01*
X713723Y140953D01*
X712566Y141727D01*
X711200Y141999D01*
D02*
G37*
G36*
X581660Y138430D02*
X578044D01*
X578182Y137733D01*
X579296Y136066D01*
X580964Y134952D01*
X581660Y134814D01*
Y138430D01*
D02*
G37*
G36*
X587816D02*
X584200D01*
Y134814D01*
X584897Y134952D01*
X586564Y136066D01*
X587678Y137733D01*
X587816Y138430D01*
D02*
G37*
G36*
X734060Y143316D02*
Y139700D01*
X737676D01*
X737538Y140396D01*
X736424Y142064D01*
X734756Y143178D01*
X734060Y143316D01*
D02*
G37*
G36*
X581660Y144586D02*
X580964Y144448D01*
X579296Y143334D01*
X578182Y141666D01*
X578044Y140970D01*
X581660D01*
Y144586D01*
D02*
G37*
G36*
X731520Y143316D02*
X730824Y143178D01*
X729156Y142064D01*
X728042Y140396D01*
X727904Y139700D01*
X731520D01*
Y143316D01*
D02*
G37*
G36*
X659130Y140776D02*
X658434Y140638D01*
X656766Y139524D01*
X655652Y137857D01*
X655514Y137160D01*
X659130D01*
Y140776D01*
D02*
G37*
G36*
X661670D02*
Y137160D01*
X665286D01*
X665148Y137857D01*
X664034Y139524D01*
X662366Y140638D01*
X661670Y140776D01*
D02*
G37*
G36*
X737676Y162560D02*
X734060D01*
Y158944D01*
X734756Y159082D01*
X736424Y160196D01*
X737538Y161863D01*
X737676Y162560D01*
D02*
G37*
G36*
X711200Y167399D02*
X709834Y167127D01*
X708677Y166353D01*
X707903Y165196D01*
X707631Y163830D01*
X707903Y162464D01*
X708677Y161307D01*
X709834Y160533D01*
X711200Y160261D01*
X712566Y160533D01*
X713723Y161307D01*
X714497Y162464D01*
X714769Y163830D01*
X714497Y165196D01*
X713723Y166353D01*
X712566Y167127D01*
X711200Y167399D01*
D02*
G37*
G36*
X731520Y162560D02*
X727904D01*
X728042Y161863D01*
X729156Y160196D01*
X730824Y159082D01*
X731520Y158944D01*
Y162560D01*
D02*
G37*
G36*
X826165Y176302D02*
X823654Y175971D01*
X821314Y175002D01*
X819304Y173460D01*
X817762Y171450D01*
X816793Y169110D01*
X816462Y166599D01*
X816793Y164087D01*
X817762Y161747D01*
X819304Y159738D01*
X821314Y158196D01*
X823654Y157226D01*
X826165Y156896D01*
X828677Y157226D01*
X831017Y158196D01*
X833027Y159738D01*
X834568Y161747D01*
X835538Y164087D01*
X835869Y166599D01*
X835538Y169110D01*
X834568Y171450D01*
X833027Y173460D01*
X831017Y175002D01*
X828677Y175971D01*
X826165Y176302D01*
D02*
G37*
G36*
X549910Y162560D02*
X546294D01*
X546432Y161863D01*
X547546Y160196D01*
X549213Y159082D01*
X549910Y158944D01*
Y162560D01*
D02*
G37*
G36*
X617026Y165100D02*
X613410D01*
Y161484D01*
X614106Y161622D01*
X615774Y162736D01*
X616888Y164403D01*
X617026Y165100D01*
D02*
G37*
G36*
X445292Y169460D02*
X443926Y169188D01*
X442768Y168415D01*
X441995Y167257D01*
X441723Y165892D01*
X441995Y164526D01*
X442768Y163368D01*
X443926Y162595D01*
X445292Y162323D01*
X446657Y162595D01*
X447815Y163368D01*
X448588Y164526D01*
X448860Y165892D01*
X448588Y167257D01*
X447815Y168415D01*
X446657Y169188D01*
X445292Y169460D01*
D02*
G37*
G36*
X610870Y165100D02*
X607254D01*
X607392Y164403D01*
X608506Y162736D01*
X610173Y161622D01*
X610870Y161484D01*
Y165100D01*
D02*
G37*
G36*
X486567Y169923D02*
X485186Y169741D01*
X482715Y168717D01*
X480592Y167089D01*
X478964Y164966D01*
X477940Y162495D01*
X477758Y161112D01*
X486567D01*
Y169923D01*
D02*
G37*
G36*
X489107Y169923D02*
Y161112D01*
X497919D01*
X497737Y162495D01*
X496713Y164966D01*
X495085Y167089D01*
X492962Y168717D01*
X490491Y169741D01*
X489107Y169923D01*
D02*
G37*
G36*
X532130Y156016D02*
X531433Y155878D01*
X529766Y154764D01*
X528652Y153097D01*
X528514Y152400D01*
X532130D01*
Y156016D01*
D02*
G37*
G36*
X534670D02*
Y152400D01*
X538286D01*
X538148Y153097D01*
X537034Y154764D01*
X535367Y155878D01*
X534670Y156016D01*
D02*
G37*
G36*
X486567Y158572D02*
X477758D01*
X477940Y157190D01*
X478964Y154719D01*
X480592Y152596D01*
X482715Y150968D01*
X485186Y149944D01*
X486567Y149762D01*
Y158572D01*
D02*
G37*
G36*
X118109Y156056D02*
Y146609D01*
X127554D01*
X127350Y148157D01*
X126263Y150782D01*
X124533Y153036D01*
X122279Y154765D01*
X119654Y155852D01*
X118109Y156056D01*
D02*
G37*
G36*
X497919Y158572D02*
X489107D01*
Y149762D01*
X490491Y149944D01*
X492962Y150968D01*
X495085Y152596D01*
X496713Y154719D01*
X497737Y157190D01*
X497919Y158572D01*
D02*
G37*
G36*
X678180Y156016D02*
Y152400D01*
X681796D01*
X681658Y153097D01*
X680544Y154764D01*
X678876Y155878D01*
X678180Y156016D01*
D02*
G37*
G36*
X450850Y161460D02*
X449484Y161189D01*
X448327Y160415D01*
X447553Y159257D01*
X447281Y157892D01*
X447553Y156526D01*
X448327Y155368D01*
X449484Y154595D01*
X450850Y154323D01*
X452216Y154595D01*
X453373Y155368D01*
X454147Y156526D01*
X454419Y157892D01*
X454147Y159257D01*
X453373Y160415D01*
X452216Y161189D01*
X450850Y161460D01*
D02*
G37*
G36*
X675640Y156016D02*
X674943Y155878D01*
X673276Y154764D01*
X672162Y153097D01*
X672024Y152400D01*
X675640D01*
Y156016D01*
D02*
G37*
G36*
X659130D02*
X658434Y155878D01*
X656766Y154764D01*
X655652Y153097D01*
X655514Y152400D01*
X659130D01*
Y156016D01*
D02*
G37*
G36*
X661670D02*
Y152400D01*
X665286D01*
X665148Y153097D01*
X664034Y154764D01*
X662366Y155878D01*
X661670Y156016D01*
D02*
G37*
G36*
X127553Y144069D02*
X118109D01*
Y134624D01*
X119654Y134828D01*
X122279Y135915D01*
X124533Y137645D01*
X126263Y139899D01*
X127350Y142523D01*
X127553Y144069D01*
D02*
G37*
G36*
X315570Y119071D02*
X306123D01*
X306327Y117524D01*
X307414Y114899D01*
X309143Y112645D01*
X311397Y110915D01*
X314022Y109828D01*
X315570Y109625D01*
Y119071D01*
D02*
G37*
G36*
X327555D02*
X318110D01*
Y109625D01*
X319656Y109828D01*
X322280Y110915D01*
X324534Y112645D01*
X326264Y114899D01*
X327351Y117524D01*
X327555Y119071D01*
D02*
G37*
G36*
X387349Y110683D02*
X383733D01*
Y107067D01*
X384429Y107205D01*
X386096Y108319D01*
X387210Y109986D01*
X387349Y110683D01*
D02*
G37*
G36*
X826165Y125502D02*
X823654Y125171D01*
X821314Y124202D01*
X819304Y122660D01*
X817762Y120650D01*
X816793Y118310D01*
X816462Y115799D01*
X816793Y113287D01*
X817762Y110947D01*
X819304Y108938D01*
X821314Y107396D01*
X823654Y106426D01*
X826165Y106096D01*
X828677Y106426D01*
X831017Y107396D01*
X833027Y108938D01*
X834568Y110947D01*
X835538Y113287D01*
X835869Y115799D01*
X835538Y118310D01*
X834568Y120650D01*
X833027Y122660D01*
X831017Y124202D01*
X828677Y125171D01*
X826165Y125502D01*
D02*
G37*
G36*
X381193Y110683D02*
X377577D01*
X377715Y109986D01*
X378829Y108319D01*
X380496Y107205D01*
X381193Y107067D01*
Y110683D01*
D02*
G37*
G36*
X383733Y116839D02*
Y113223D01*
X387349D01*
X387210Y113919D01*
X386096Y115586D01*
X384429Y116700D01*
X383733Y116839D01*
D02*
G37*
G36*
X644296Y124625D02*
X642931Y124353D01*
X641773Y123580D01*
X641000Y122422D01*
X640728Y121056D01*
X641000Y119691D01*
X641773Y118533D01*
X642931Y117760D01*
X644296Y117488D01*
X645662Y117760D01*
X646820Y118533D01*
X647593Y119691D01*
X647865Y121056D01*
X647593Y122422D01*
X646820Y123580D01*
X645662Y124353D01*
X644296Y124625D01*
D02*
G37*
G36*
X381193Y116839D02*
X380496Y116700D01*
X378829Y115586D01*
X377715Y113919D01*
X377577Y113223D01*
X381193D01*
Y116839D01*
D02*
G37*
G36*
X486566Y121923D02*
X485185Y121741D01*
X482714Y120717D01*
X480591Y119089D01*
X478963Y116966D01*
X477939Y114495D01*
X477757Y113111D01*
X486566D01*
Y121923D01*
D02*
G37*
G36*
X489106Y121923D02*
Y113111D01*
X497918D01*
X497736Y114495D01*
X496712Y116966D01*
X495084Y119089D01*
X492961Y120717D01*
X490490Y121741D01*
X489106Y121923D01*
D02*
G37*
G36*
X497918Y110571D02*
X489106D01*
Y101762D01*
X490490Y101944D01*
X492961Y102968D01*
X495084Y104596D01*
X496712Y106719D01*
X497736Y109190D01*
X497918Y110571D01*
D02*
G37*
G36*
X486566D02*
X477757D01*
X477939Y109190D01*
X478963Y106719D01*
X480591Y104596D01*
X482714Y102968D01*
X485185Y101944D01*
X486566Y101762D01*
Y110571D01*
D02*
G37*
G36*
X423458Y122986D02*
X420587Y122608D01*
X417911Y121500D01*
X415613Y119737D01*
X413850Y117439D01*
X412742Y114763D01*
X412363Y111892D01*
X412742Y109020D01*
X413850Y106344D01*
X415613Y104046D01*
X417911Y102283D01*
X420587Y101175D01*
X423458Y100797D01*
X426330Y101175D01*
X429006Y102283D01*
X431304Y104046D01*
X433067Y106344D01*
X434175Y109020D01*
X434553Y111892D01*
X434175Y114763D01*
X433067Y117439D01*
X431304Y119737D01*
X429006Y121500D01*
X426330Y122608D01*
X423458Y122986D01*
D02*
G37*
G36*
X526856Y102870D02*
X523240D01*
Y99254D01*
X523937Y99392D01*
X525604Y100506D01*
X526718Y102174D01*
X526856Y102870D01*
D02*
G37*
G36*
X683260Y107709D02*
X681894Y107437D01*
X680737Y106663D01*
X679963Y105506D01*
X679691Y104140D01*
X679963Y102774D01*
X680737Y101617D01*
X681894Y100843D01*
X683260Y100571D01*
X684626Y100843D01*
X685783Y101617D01*
X686557Y102774D01*
X686829Y104140D01*
X686557Y105506D01*
X685783Y106663D01*
X684626Y107437D01*
X683260Y107709D01*
D02*
G37*
G36*
X520700Y109026D02*
X520004Y108888D01*
X518336Y107774D01*
X517222Y106107D01*
X517084Y105410D01*
X520700D01*
Y109026D01*
D02*
G37*
G36*
X523240D02*
Y105410D01*
X526856D01*
X526718Y106107D01*
X525604Y107774D01*
X523937Y108888D01*
X523240Y109026D01*
D02*
G37*
G36*
X703580Y107446D02*
Y103830D01*
X707196D01*
X707058Y104527D01*
X705944Y106194D01*
X704277Y107308D01*
X703580Y107446D01*
D02*
G37*
G36*
X651510Y108979D02*
X650144Y108707D01*
X648987Y107933D01*
X648213Y106776D01*
X647941Y105410D01*
X648213Y104044D01*
X648987Y102887D01*
X650144Y102113D01*
X651510Y101841D01*
X652876Y102113D01*
X654033Y102887D01*
X654807Y104044D01*
X655079Y105410D01*
X654807Y106776D01*
X654033Y107933D01*
X652876Y108707D01*
X651510Y108979D01*
D02*
G37*
G36*
X701040Y107446D02*
X700343Y107308D01*
X698676Y106194D01*
X697562Y104527D01*
X697424Y103830D01*
X701040D01*
Y107446D01*
D02*
G37*
G36*
X681796Y133350D02*
X678180D01*
Y129734D01*
X678876Y129872D01*
X680544Y130986D01*
X681658Y132654D01*
X681796Y133350D01*
D02*
G37*
G36*
X659130Y134620D02*
X655514D01*
X655652Y133924D01*
X656766Y132256D01*
X658434Y131142D01*
X659130Y131004D01*
Y134620D01*
D02*
G37*
G36*
X675640Y133350D02*
X672024D01*
X672162Y132654D01*
X673276Y130986D01*
X674943Y129872D01*
X675640Y129734D01*
Y133350D01*
D02*
G37*
G36*
X449580Y130778D02*
X448884Y130639D01*
X447216Y129525D01*
X446102Y127858D01*
X445964Y127162D01*
X449580D01*
Y130778D01*
D02*
G37*
G36*
X452120D02*
Y127162D01*
X455736D01*
X455598Y127858D01*
X454484Y129525D01*
X452817Y130639D01*
X452120Y130778D01*
D02*
G37*
G36*
X737676Y137160D02*
X734060D01*
Y133544D01*
X734756Y133682D01*
X736424Y134796D01*
X737538Y136463D01*
X737676Y137160D01*
D02*
G37*
G36*
X115569Y144069D02*
X106122D01*
X106325Y142523D01*
X107412Y139899D01*
X109142Y137645D01*
X111396Y135915D01*
X114021Y134828D01*
X115569Y134624D01*
Y144069D01*
D02*
G37*
G36*
X731520Y137160D02*
X727904D01*
X728042Y136463D01*
X729156Y134796D01*
X730824Y133682D01*
X731520Y133544D01*
Y137160D01*
D02*
G37*
G36*
X665286Y134620D02*
X661670D01*
Y131004D01*
X662366Y131142D01*
X664034Y132256D01*
X665148Y133924D01*
X665286Y134620D01*
D02*
G37*
G36*
X826165Y150902D02*
X823654Y150571D01*
X821314Y149602D01*
X819304Y148060D01*
X817762Y146050D01*
X816793Y143710D01*
X816462Y141199D01*
X816793Y138687D01*
X817762Y136347D01*
X819304Y134338D01*
X821314Y132796D01*
X823654Y131826D01*
X826165Y131496D01*
X828677Y131826D01*
X831017Y132796D01*
X833027Y134338D01*
X834568Y136347D01*
X835538Y138687D01*
X835869Y141199D01*
X835538Y143710D01*
X834568Y146050D01*
X833027Y148060D01*
X831017Y149602D01*
X828677Y150571D01*
X826165Y150902D01*
D02*
G37*
G36*
X449580Y124622D02*
X445964D01*
X446102Y123925D01*
X447216Y122258D01*
X448884Y121144D01*
X449580Y121005D01*
Y124622D01*
D02*
G37*
G36*
X455736D02*
X452120D01*
Y121005D01*
X452817Y121144D01*
X454484Y122258D01*
X455598Y123925D01*
X455736Y124622D01*
D02*
G37*
G36*
X746566Y124460D02*
X742950D01*
Y120844D01*
X743646Y120982D01*
X745314Y122096D01*
X746428Y123764D01*
X746566Y124460D01*
D02*
G37*
G36*
X800766Y139192D02*
X798254Y138862D01*
X795914Y137892D01*
X793904Y136350D01*
X792362Y134341D01*
X791393Y132001D01*
X791062Y129489D01*
X791393Y126978D01*
X792362Y124638D01*
X793904Y122628D01*
X795914Y121086D01*
X798254Y120117D01*
X800766Y119786D01*
X803277Y120117D01*
X805617Y121086D01*
X807626Y122628D01*
X809168Y124638D01*
X810138Y126978D01*
X810469Y129489D01*
X810138Y132001D01*
X809168Y134341D01*
X807626Y136350D01*
X805617Y137892D01*
X803277Y138862D01*
X800766Y139192D01*
D02*
G37*
G36*
X740410Y124460D02*
X736794D01*
X736932Y123764D01*
X738046Y122096D01*
X739714Y120982D01*
X740410Y120844D01*
Y124460D01*
D02*
G37*
G36*
Y130616D02*
X739714Y130478D01*
X738046Y129364D01*
X736932Y127697D01*
X736794Y127000D01*
X740410D01*
Y130616D01*
D02*
G37*
G36*
X742950D02*
Y127000D01*
X746566D01*
X746428Y127697D01*
X745314Y129364D01*
X743646Y130478D01*
X742950Y130616D01*
D02*
G37*
G36*
X720090Y129299D02*
X718724Y129027D01*
X717567Y128253D01*
X716793Y127096D01*
X716521Y125730D01*
X716793Y124364D01*
X717567Y123207D01*
X718724Y122433D01*
X720090Y122161D01*
X721456Y122433D01*
X722613Y123207D01*
X723387Y124364D01*
X723659Y125730D01*
X723387Y127096D01*
X722613Y128253D01*
X721456Y129027D01*
X720090Y129299D01*
D02*
G37*
G36*
X315570Y131057D02*
X314022Y130853D01*
X311397Y129766D01*
X309143Y128036D01*
X307414Y125782D01*
X306327Y123157D01*
X306123Y121611D01*
X315570D01*
Y131057D01*
D02*
G37*
G36*
X318110Y131056D02*
Y121611D01*
X327555D01*
X327351Y123157D01*
X326264Y125782D01*
X324534Y128036D01*
X322280Y129766D01*
X319656Y130853D01*
X318110Y131056D01*
D02*
G37*
G36*
X955040Y323656D02*
X954343Y323518D01*
X952676Y322404D01*
X951562Y320737D01*
X951424Y320040D01*
X955040D01*
Y323656D01*
D02*
G37*
G36*
X315570Y546450D02*
X314023Y546246D01*
X311398Y545159D01*
X309144Y543429D01*
X307414Y541175D01*
X306327Y538551D01*
X306123Y537004D01*
X315570D01*
Y546450D01*
D02*
G37*
G36*
X318110Y546450D02*
Y537004D01*
X327555D01*
X327352Y538551D01*
X326264Y541175D01*
X324535Y543429D01*
X322281Y545159D01*
X319656Y546246D01*
X318110Y546450D01*
D02*
G37*
G36*
X676716Y535940D02*
X673100D01*
Y532324D01*
X673796Y532462D01*
X675464Y533576D01*
X676578Y535243D01*
X676716Y535940D01*
D02*
G37*
G36*
X662746D02*
X659130D01*
Y532324D01*
X659827Y532462D01*
X661494Y533576D01*
X662608Y535243D01*
X662746Y535940D01*
D02*
G37*
G36*
X670560D02*
X666944D01*
X667082Y535243D01*
X668196Y533576D01*
X669864Y532462D01*
X670560Y532324D01*
Y535940D01*
D02*
G37*
G36*
X673100Y542096D02*
Y538480D01*
X676716D01*
X676578Y539176D01*
X675464Y540844D01*
X673796Y541958D01*
X673100Y542096D01*
D02*
G37*
G36*
X826165Y559842D02*
X823654Y559511D01*
X821314Y558542D01*
X819304Y557000D01*
X817762Y554990D01*
X816793Y552650D01*
X816462Y550139D01*
X816793Y547627D01*
X817762Y545287D01*
X819304Y543278D01*
X821314Y541736D01*
X823654Y540766D01*
X826165Y540436D01*
X828677Y540766D01*
X831017Y541736D01*
X833027Y543278D01*
X834568Y545287D01*
X835538Y547627D01*
X835869Y550139D01*
X835538Y552650D01*
X834568Y554990D01*
X833027Y557000D01*
X831017Y558542D01*
X828677Y559511D01*
X826165Y559842D01*
D02*
G37*
G36*
X670560Y542096D02*
X669864Y541958D01*
X668196Y540844D01*
X667082Y539176D01*
X666944Y538480D01*
X670560D01*
Y542096D01*
D02*
G37*
G36*
X656590D02*
X655893Y541958D01*
X654226Y540844D01*
X653112Y539176D01*
X652974Y538480D01*
X656590D01*
Y542096D01*
D02*
G37*
G36*
X659130D02*
Y538480D01*
X662746D01*
X662608Y539176D01*
X661494Y540844D01*
X659827Y541958D01*
X659130Y542096D01*
D02*
G37*
G36*
X731520Y529396D02*
X730824Y529258D01*
X729156Y528144D01*
X728042Y526477D01*
X727904Y525780D01*
X731520D01*
Y529396D01*
D02*
G37*
G36*
X734060D02*
Y525780D01*
X737676D01*
X737538Y526477D01*
X736424Y528144D01*
X734756Y529258D01*
X734060Y529396D01*
D02*
G37*
G36*
X327555Y534464D02*
X318110D01*
Y525018D01*
X319656Y525222D01*
X322281Y526309D01*
X324535Y528038D01*
X326264Y530292D01*
X327352Y532917D01*
X327555Y534464D01*
D02*
G37*
G36*
X604520Y531889D02*
X603154Y531617D01*
X601997Y530843D01*
X601223Y529686D01*
X600951Y528320D01*
X601223Y526954D01*
X601997Y525797D01*
X603154Y525023D01*
X604520Y524751D01*
X605886Y525023D01*
X607043Y525797D01*
X607817Y526954D01*
X608089Y528320D01*
X607817Y529686D01*
X607043Y530843D01*
X605886Y531617D01*
X604520Y531889D01*
D02*
G37*
G36*
X315570Y534464D02*
X306123D01*
X306327Y532917D01*
X307414Y530292D01*
X309144Y528038D01*
X311398Y526309D01*
X314023Y525222D01*
X315570Y525018D01*
Y534464D01*
D02*
G37*
G36*
X510650Y538129D02*
X509284Y537857D01*
X508127Y537083D01*
X507353Y535926D01*
X507081Y534560D01*
X507353Y533194D01*
X508127Y532037D01*
X509284Y531263D01*
X510650Y530991D01*
X512016Y531263D01*
X513173Y532037D01*
X513947Y533194D01*
X514219Y534560D01*
X513947Y535926D01*
X513173Y537083D01*
X512016Y537857D01*
X510650Y538129D01*
D02*
G37*
G36*
X656590Y535940D02*
X652974D01*
X653112Y535243D01*
X654226Y533576D01*
X655893Y532462D01*
X656590Y532324D01*
Y535940D01*
D02*
G37*
G36*
X582930Y533206D02*
Y529590D01*
X586546D01*
X586408Y530286D01*
X585294Y531954D01*
X583627Y533068D01*
X582930Y533206D01*
D02*
G37*
G36*
X800766Y548132D02*
X798254Y547802D01*
X795914Y546832D01*
X793904Y545290D01*
X792362Y543281D01*
X791393Y540941D01*
X791062Y538429D01*
X791393Y535918D01*
X792362Y533578D01*
X793904Y531568D01*
X795914Y530026D01*
X798254Y529057D01*
X800766Y528726D01*
X803277Y529057D01*
X805617Y530026D01*
X807626Y531568D01*
X809168Y533578D01*
X810138Y535918D01*
X810469Y538429D01*
X810138Y540941D01*
X809168Y543281D01*
X807626Y545290D01*
X805617Y546832D01*
X803277Y547802D01*
X800766Y548132D01*
D02*
G37*
G36*
X580390Y533206D02*
X579693Y533068D01*
X578026Y531954D01*
X576912Y530286D01*
X576774Y529590D01*
X580390D01*
Y533206D01*
D02*
G37*
G36*
X486568Y567966D02*
X477759D01*
X477941Y566584D01*
X478965Y564112D01*
X480593Y561990D01*
X482715Y560361D01*
X485187Y559338D01*
X486568Y559156D01*
Y567966D01*
D02*
G37*
G36*
X379925Y564955D02*
X376309D01*
X376447Y564259D01*
X377561Y562592D01*
X379228Y561478D01*
X379925Y561339D01*
Y564955D01*
D02*
G37*
G36*
X497920Y567966D02*
X489108D01*
Y559155D01*
X490492Y559338D01*
X492963Y560361D01*
X495085Y561990D01*
X496714Y564112D01*
X497738Y566584D01*
X497920Y567966D01*
D02*
G37*
G36*
X800766Y573532D02*
X798254Y573202D01*
X795914Y572232D01*
X793904Y570690D01*
X792362Y568681D01*
X791393Y566340D01*
X791062Y563829D01*
X791393Y561318D01*
X792362Y558978D01*
X793904Y556968D01*
X795914Y555426D01*
X798254Y554457D01*
X800766Y554126D01*
X803277Y554457D01*
X805617Y555426D01*
X807626Y556968D01*
X809168Y558978D01*
X810138Y561318D01*
X810469Y563829D01*
X810138Y566340D01*
X809168Y568681D01*
X807626Y570690D01*
X805617Y572232D01*
X803277Y573202D01*
X800766Y573532D01*
D02*
G37*
G36*
X423458Y580380D02*
X420587Y580002D01*
X417911Y578894D01*
X415613Y577130D01*
X413850Y574832D01*
X412742Y572157D01*
X412363Y569285D01*
X412742Y566413D01*
X413850Y563737D01*
X415613Y561440D01*
X417911Y559677D01*
X420587Y558568D01*
X423458Y558190D01*
X426330Y558568D01*
X429006Y559677D01*
X431304Y561440D01*
X433067Y563737D01*
X434175Y566413D01*
X434553Y569285D01*
X434175Y572157D01*
X433067Y574832D01*
X431304Y577130D01*
X429006Y578894D01*
X426330Y580002D01*
X423458Y580380D01*
D02*
G37*
G36*
X379925Y571111D02*
X379228Y570973D01*
X377561Y569859D01*
X376447Y568192D01*
X376309Y567495D01*
X379925D01*
Y571111D01*
D02*
G37*
G36*
X382465D02*
Y567495D01*
X386081D01*
X385942Y568192D01*
X384828Y569859D01*
X383161Y570973D01*
X382465Y571111D01*
D02*
G37*
G36*
X826165Y585242D02*
X823654Y584911D01*
X821314Y583942D01*
X819304Y582400D01*
X817762Y580390D01*
X816793Y578050D01*
X816462Y575539D01*
X816793Y573027D01*
X817762Y570687D01*
X819304Y568678D01*
X821314Y567136D01*
X823654Y566166D01*
X826165Y565836D01*
X828677Y566166D01*
X831017Y567136D01*
X833027Y568678D01*
X834568Y570687D01*
X835538Y573027D01*
X835869Y575539D01*
X835538Y578050D01*
X834568Y580390D01*
X833027Y582400D01*
X831017Y583942D01*
X828677Y584911D01*
X826165Y585242D01*
D02*
G37*
G36*
X386081Y564955D02*
X382465D01*
Y561339D01*
X383161Y561478D01*
X384828Y562592D01*
X385942Y564259D01*
X386081Y564955D01*
D02*
G37*
G36*
X511120Y569409D02*
X509754Y569137D01*
X508597Y568363D01*
X507823Y567206D01*
X507551Y565840D01*
X507823Y564474D01*
X508597Y563317D01*
X509754Y562543D01*
X511120Y562271D01*
X512486Y562543D01*
X513643Y563317D01*
X514417Y564474D01*
X514689Y565840D01*
X514417Y567206D01*
X513643Y568363D01*
X512486Y569137D01*
X511120Y569409D01*
D02*
G37*
G36*
X730636Y549910D02*
X727020D01*
Y546294D01*
X727717Y546432D01*
X729384Y547546D01*
X730498Y549213D01*
X730636Y549910D01*
D02*
G37*
G36*
X629920Y554749D02*
X628554Y554477D01*
X627397Y553703D01*
X626623Y552546D01*
X626351Y551180D01*
X626623Y549814D01*
X627397Y548657D01*
X628554Y547883D01*
X629920Y547611D01*
X631286Y547883D01*
X632443Y548657D01*
X633217Y549814D01*
X633489Y551180D01*
X633217Y552546D01*
X632443Y553703D01*
X631286Y554477D01*
X629920Y554749D01*
D02*
G37*
G36*
X724480Y549910D02*
X720864D01*
X721002Y549213D01*
X722116Y547546D01*
X723783Y546432D01*
X724480Y546294D01*
Y549910D01*
D02*
G37*
G36*
X599440D02*
X595824D01*
X595962Y549213D01*
X597076Y547546D01*
X598744Y546432D01*
X599440Y546294D01*
Y549910D01*
D02*
G37*
G36*
X605596D02*
X601980D01*
Y546294D01*
X602677Y546432D01*
X604344Y547546D01*
X605458Y549213D01*
X605596Y549910D01*
D02*
G37*
G36*
X724480Y556066D02*
X723783Y555928D01*
X722116Y554814D01*
X721002Y553147D01*
X720864Y552450D01*
X724480D01*
Y556066D01*
D02*
G37*
G36*
X727020D02*
Y552450D01*
X730636D01*
X730498Y553147D01*
X729384Y554814D01*
X727717Y555928D01*
X727020Y556066D01*
D02*
G37*
G36*
X601980D02*
Y552450D01*
X605596D01*
X605458Y553147D01*
X604344Y554814D01*
X602677Y555928D01*
X601980Y556066D01*
D02*
G37*
G36*
X701040Y554749D02*
X699674Y554477D01*
X698517Y553703D01*
X697743Y552546D01*
X697471Y551180D01*
X697743Y549814D01*
X698517Y548657D01*
X699674Y547883D01*
X701040Y547611D01*
X702406Y547883D01*
X703563Y548657D01*
X704337Y549814D01*
X704609Y551180D01*
X704337Y552546D01*
X703563Y553703D01*
X702406Y554477D01*
X701040Y554749D01*
D02*
G37*
G36*
X599440Y556066D02*
X598744Y555928D01*
X597076Y554814D01*
X595962Y553147D01*
X595824Y552450D01*
X599440D01*
Y556066D01*
D02*
G37*
G36*
X530860Y523046D02*
Y518160D01*
Y513274D01*
X531557Y513412D01*
X533224Y514526D01*
X533224D01*
X533732Y513653D01*
Y513653D01*
X533732Y513653D01*
X534846Y511986D01*
X536513Y510872D01*
X537210Y510734D01*
Y515620D01*
Y520506D01*
X536513Y520368D01*
X535617Y519769D01*
X534380Y520054D01*
X534338Y520126D01*
Y520126D01*
X534338Y520126D01*
X533224Y521794D01*
X531557Y522908D01*
X530860Y523046D01*
D02*
G37*
G36*
X543366Y514350D02*
X539750D01*
Y510734D01*
X540447Y510872D01*
X542114Y511986D01*
X543228Y513653D01*
X543366Y514350D01*
D02*
G37*
G36*
X714996Y515379D02*
X713630Y515107D01*
X712473Y514333D01*
X711699Y513176D01*
X711428Y511810D01*
X711699Y510444D01*
X712473Y509287D01*
X713630Y508513D01*
X714996Y508241D01*
X716362Y508513D01*
X717519Y509287D01*
X718293Y510444D01*
X718565Y511810D01*
X718293Y513176D01*
X717519Y514333D01*
X716362Y515107D01*
X714996Y515379D01*
D02*
G37*
G36*
X115569Y517450D02*
X114021Y517246D01*
X111396Y516158D01*
X109142Y514429D01*
X107412Y512175D01*
X106325Y509550D01*
X106121Y508002D01*
X115569D01*
Y517450D01*
D02*
G37*
G36*
X118109Y517449D02*
Y508002D01*
X127554D01*
X127350Y509550D01*
X126263Y512175D01*
X124533Y514429D01*
X122279Y516158D01*
X119654Y517246D01*
X118109Y517449D01*
D02*
G37*
G36*
X740410Y516696D02*
Y513080D01*
X744026D01*
X743888Y513777D01*
X742774Y515444D01*
X741106Y516558D01*
X740410Y516696D01*
D02*
G37*
G36*
X528320Y516890D02*
X524704D01*
X524842Y516194D01*
X525956Y514526D01*
X527623Y513412D01*
X528320Y513274D01*
Y516890D01*
D02*
G37*
G36*
X737870Y516696D02*
X737173Y516558D01*
X735506Y515444D01*
X734392Y513777D01*
X734254Y513080D01*
X737870D01*
Y516696D01*
D02*
G37*
G36*
X497919Y519966D02*
X489107D01*
Y511155D01*
X490491Y511337D01*
X492962Y512361D01*
X495085Y513990D01*
X496713Y516112D01*
X497737Y518583D01*
X497919Y519966D01*
D02*
G37*
G36*
X486567D02*
X477758D01*
X477940Y518583D01*
X478964Y516112D01*
X480592Y513990D01*
X482715Y512361D01*
X485186Y511337D01*
X486567Y511156D01*
Y519966D01*
D02*
G37*
G36*
X939195Y514781D02*
X936454Y514420D01*
X933900Y513362D01*
X931707Y511679D01*
X930024Y509485D01*
X928966Y506931D01*
X928605Y504190D01*
X928966Y501449D01*
X930024Y498895D01*
X931707Y496701D01*
X933900Y495018D01*
X936454Y493960D01*
X939195Y493599D01*
X941936Y493960D01*
X944491Y495018D01*
X946684Y496701D01*
X948367Y498895D01*
X949425Y501449D01*
X949786Y504190D01*
X949425Y506931D01*
X948367Y509485D01*
X946684Y511679D01*
X944491Y513362D01*
X941936Y514420D01*
X939195Y514781D01*
D02*
G37*
G36*
X115569Y505462D02*
X106122D01*
X106325Y503917D01*
X107412Y501292D01*
X109142Y499038D01*
X111396Y497308D01*
X114021Y496221D01*
X115569Y496017D01*
Y505462D01*
D02*
G37*
G36*
X365962Y496174D02*
Y492558D01*
X369579D01*
X369440Y493254D01*
X368326Y494921D01*
X366659Y496035D01*
X365962Y496174D01*
D02*
G37*
G36*
X702740Y493406D02*
Y489790D01*
X706356D01*
X706218Y490486D01*
X705104Y492154D01*
X703437Y493268D01*
X702740Y493406D01*
D02*
G37*
G36*
X363422Y496174D02*
X362726Y496035D01*
X361059Y494921D01*
X359945Y493254D01*
X359806Y492558D01*
X363422D01*
Y496174D01*
D02*
G37*
G36*
X737870Y510540D02*
X734254D01*
X734392Y509843D01*
X735506Y508176D01*
X737173Y507062D01*
X737870Y506924D01*
Y510540D01*
D02*
G37*
G36*
X744026D02*
X740410D01*
Y506924D01*
X741106Y507062D01*
X742774Y508176D01*
X743888Y509843D01*
X744026Y510540D01*
D02*
G37*
G36*
X800766Y522732D02*
X798254Y522402D01*
X795914Y521432D01*
X793904Y519890D01*
X792362Y517881D01*
X791393Y515541D01*
X791062Y513029D01*
X791393Y510518D01*
X792362Y508178D01*
X793904Y506168D01*
X795914Y504626D01*
X798254Y503657D01*
X800766Y503326D01*
X803277Y503657D01*
X805617Y504626D01*
X807626Y506168D01*
X809168Y508178D01*
X810138Y510518D01*
X810469Y513029D01*
X810138Y515541D01*
X809168Y517881D01*
X807626Y519890D01*
X805617Y521432D01*
X803277Y522402D01*
X800766Y522732D01*
D02*
G37*
G36*
X127553Y505462D02*
X118109D01*
Y496018D01*
X119654Y496221D01*
X122279Y497308D01*
X124533Y499038D01*
X126263Y501292D01*
X127350Y503917D01*
X127553Y505462D01*
D02*
G37*
G36*
X640486Y508165D02*
X639121Y507893D01*
X637963Y507120D01*
X637189Y505962D01*
X636918Y504596D01*
X637189Y503231D01*
X637963Y502073D01*
X639121Y501300D01*
X640486Y501028D01*
X641852Y501300D01*
X643010Y502073D01*
X643783Y503231D01*
X644055Y504596D01*
X643783Y505962D01*
X643010Y507120D01*
X641852Y507893D01*
X640486Y508165D01*
D02*
G37*
G36*
X580390Y527050D02*
X576774D01*
X576912Y526353D01*
X578026Y524686D01*
X579693Y523572D01*
X580390Y523434D01*
Y527050D01*
D02*
G37*
G36*
X586546D02*
X582930D01*
Y523434D01*
X583627Y523572D01*
X585294Y524686D01*
X586408Y526353D01*
X586546Y527050D01*
D02*
G37*
G36*
X489107Y531316D02*
Y522506D01*
X497919D01*
X497737Y523888D01*
X496713Y526360D01*
X495085Y528482D01*
X492962Y530111D01*
X490491Y531134D01*
X489107Y531316D01*
D02*
G37*
G36*
X708660Y528079D02*
X707294Y527807D01*
X706137Y527033D01*
X705363Y525876D01*
X705091Y524510D01*
X705363Y523144D01*
X706137Y521987D01*
X707294Y521213D01*
X708660Y520941D01*
X710026Y521213D01*
X711183Y521987D01*
X711957Y523144D01*
X712229Y524510D01*
X711957Y525876D01*
X711183Y527033D01*
X710026Y527807D01*
X708660Y528079D01*
D02*
G37*
G36*
X486567Y531316D02*
X485186Y531134D01*
X482715Y530111D01*
X480592Y528482D01*
X478964Y526360D01*
X477940Y523888D01*
X477758Y522506D01*
X486567D01*
Y531316D01*
D02*
G37*
G36*
X670560Y528126D02*
X669864Y527988D01*
X668196Y526874D01*
X667082Y525206D01*
X666944Y524510D01*
X670560D01*
Y528126D01*
D02*
G37*
G36*
X673100D02*
Y524510D01*
X676716D01*
X676578Y525206D01*
X675464Y526874D01*
X673796Y527988D01*
X673100Y528126D01*
D02*
G37*
G36*
X659130D02*
Y524510D01*
X662746D01*
X662608Y525206D01*
X661494Y526874D01*
X659827Y527988D01*
X659130Y528126D01*
D02*
G37*
G36*
X447275Y530854D02*
X445909Y530582D01*
X444752Y529808D01*
X443978Y528651D01*
X443706Y527285D01*
X443978Y525919D01*
X444752Y524762D01*
X445909Y523988D01*
X447275Y523716D01*
X448641Y523988D01*
X449798Y524762D01*
X450572Y525919D01*
X450844Y527285D01*
X450572Y528651D01*
X449798Y529808D01*
X448641Y530582D01*
X447275Y530854D01*
D02*
G37*
G36*
X656590Y528126D02*
X655893Y527988D01*
X654226Y526874D01*
X653112Y525206D01*
X652974Y524510D01*
X656590D01*
Y528126D01*
D02*
G37*
G36*
Y521970D02*
X652974D01*
X653112Y521273D01*
X654226Y519606D01*
X655893Y518492D01*
X656590Y518354D01*
Y521970D01*
D02*
G37*
G36*
X662746D02*
X659130D01*
Y518354D01*
X659827Y518492D01*
X661494Y519606D01*
X662608Y521273D01*
X662746Y521970D01*
D02*
G37*
G36*
X539750Y520506D02*
Y516890D01*
X543366D01*
X543228Y517587D01*
X542114Y519254D01*
X540447Y520368D01*
X539750Y520506D01*
D02*
G37*
G36*
X826165Y534442D02*
X823654Y534111D01*
X821314Y533142D01*
X819304Y531600D01*
X817762Y529590D01*
X816793Y527250D01*
X816462Y524739D01*
X816793Y522227D01*
X817762Y519887D01*
X819304Y517878D01*
X821314Y516336D01*
X823654Y515366D01*
X826165Y515036D01*
X828677Y515366D01*
X831017Y516336D01*
X833027Y517878D01*
X834568Y519887D01*
X835538Y522227D01*
X835869Y524739D01*
X835538Y527250D01*
X834568Y529590D01*
X833027Y531600D01*
X831017Y533142D01*
X828677Y534111D01*
X826165Y534442D01*
D02*
G37*
G36*
X450850Y522854D02*
X449484Y522582D01*
X448327Y521808D01*
X447553Y520651D01*
X447281Y519285D01*
X447553Y517919D01*
X448327Y516762D01*
X449484Y515988D01*
X450850Y515716D01*
X452216Y515988D01*
X453373Y516762D01*
X454147Y517919D01*
X454419Y519285D01*
X454147Y520651D01*
X453373Y521808D01*
X452216Y522582D01*
X450850Y522854D01*
D02*
G37*
G36*
X731520Y523240D02*
X727904D01*
X728042Y522543D01*
X729156Y520876D01*
X730824Y519762D01*
X731520Y519624D01*
Y523240D01*
D02*
G37*
G36*
X737676D02*
X734060D01*
Y519624D01*
X734756Y519762D01*
X736424Y520876D01*
X737538Y522543D01*
X737676Y523240D01*
D02*
G37*
G36*
X528320Y523046D02*
X527623Y522908D01*
X525956Y521794D01*
X524842Y520126D01*
X524704Y519430D01*
X528320D01*
Y523046D01*
D02*
G37*
G36*
X670560Y521970D02*
X666944D01*
X667082Y521273D01*
X668196Y519606D01*
X669864Y518492D01*
X670560Y518354D01*
Y521970D01*
D02*
G37*
G36*
X676716D02*
X673100D01*
Y518354D01*
X673796Y518492D01*
X675464Y519606D01*
X676578Y521273D01*
X676716Y521970D01*
D02*
G37*
G36*
X664210Y576339D02*
X662844Y576067D01*
X661687Y575293D01*
X660913Y574136D01*
X660641Y572770D01*
X660913Y571404D01*
X661687Y570247D01*
X662844Y569473D01*
X664210Y569201D01*
X665576Y569473D01*
X666733Y570247D01*
X667507Y571404D01*
X667779Y572770D01*
X667507Y574136D01*
X666733Y575293D01*
X665576Y576067D01*
X664210Y576339D01*
D02*
G37*
G36*
X120468Y619760D02*
X114300D01*
Y613592D01*
X114998Y613684D01*
X116833Y614444D01*
X118408Y615652D01*
X119616Y617228D01*
X120376Y619062D01*
X120468Y619760D01*
D02*
G37*
G36*
X138430Y628090D02*
X136603Y627850D01*
X134900Y627145D01*
X133438Y626022D01*
X132316Y624560D01*
X131610Y622857D01*
X131370Y621030D01*
X131610Y619203D01*
X132316Y617500D01*
X133438Y616038D01*
X134900Y614916D01*
X136603Y614210D01*
X138430Y613970D01*
X140257Y614210D01*
X141960Y614916D01*
X143422Y616038D01*
X144544Y617500D01*
X145250Y619203D01*
X145490Y621030D01*
X145250Y622857D01*
X144544Y624560D01*
X143422Y626022D01*
X141960Y627145D01*
X140257Y627850D01*
X138430Y628090D01*
D02*
G37*
G36*
X111760Y619760D02*
X105592D01*
X105684Y619062D01*
X106444Y617228D01*
X107652Y615652D01*
X109228Y614444D01*
X111062Y613684D01*
X111760Y613592D01*
Y619760D01*
D02*
G37*
G36*
X86360D02*
X80192D01*
X80284Y619062D01*
X81044Y617228D01*
X82252Y615652D01*
X83827Y614444D01*
X85662Y613684D01*
X86360Y613592D01*
Y619760D01*
D02*
G37*
G36*
X95068D02*
X88900D01*
Y613592D01*
X89598Y613684D01*
X91433Y614444D01*
X93008Y615652D01*
X94216Y617228D01*
X94976Y619062D01*
X95068Y619760D01*
D02*
G37*
G36*
X240030Y628090D02*
X238203Y627850D01*
X236500Y627145D01*
X235038Y626022D01*
X233916Y624560D01*
X233210Y622857D01*
X232970Y621030D01*
X233210Y619203D01*
X233916Y617500D01*
X235038Y616038D01*
X236500Y614916D01*
X238203Y614210D01*
X240030Y613970D01*
X241857Y614210D01*
X243560Y614916D01*
X245022Y616038D01*
X246145Y617500D01*
X246850Y619203D01*
X247090Y621030D01*
X246850Y622857D01*
X246145Y624560D01*
X245022Y626022D01*
X243560Y627145D01*
X241857Y627850D01*
X240030Y628090D01*
D02*
G37*
G36*
X265430D02*
X263603Y627850D01*
X261900Y627145D01*
X260438Y626022D01*
X259315Y624560D01*
X258610Y622857D01*
X258370Y621030D01*
X258610Y619203D01*
X259315Y617500D01*
X260438Y616038D01*
X261900Y614916D01*
X263603Y614210D01*
X265430Y613970D01*
X267257Y614210D01*
X268960Y614916D01*
X270422Y616038D01*
X271544Y617500D01*
X272250Y619203D01*
X272490Y621030D01*
X272250Y622857D01*
X271544Y624560D01*
X270422Y626022D01*
X268960Y627145D01*
X267257Y627850D01*
X265430Y628090D01*
D02*
G37*
G36*
X214630D02*
X212803Y627850D01*
X211100Y627145D01*
X209638Y626022D01*
X208515Y624560D01*
X207810Y622857D01*
X207570Y621030D01*
X207810Y619203D01*
X208515Y617500D01*
X209638Y616038D01*
X211100Y614916D01*
X212803Y614210D01*
X214630Y613970D01*
X216457Y614210D01*
X218160Y614916D01*
X219622Y616038D01*
X220744Y617500D01*
X221450Y619203D01*
X221690Y621030D01*
X221450Y622857D01*
X220744Y624560D01*
X219622Y626022D01*
X218160Y627145D01*
X216457Y627850D01*
X214630Y628090D01*
D02*
G37*
G36*
X163830D02*
X162003Y627850D01*
X160300Y627145D01*
X158838Y626022D01*
X157716Y624560D01*
X157010Y622857D01*
X156770Y621030D01*
X157010Y619203D01*
X157716Y617500D01*
X158838Y616038D01*
X160300Y614916D01*
X162003Y614210D01*
X163830Y613970D01*
X165657Y614210D01*
X167360Y614916D01*
X168822Y616038D01*
X169944Y617500D01*
X170650Y619203D01*
X170890Y621030D01*
X170650Y622857D01*
X169944Y624560D01*
X168822Y626022D01*
X167360Y627145D01*
X165657Y627850D01*
X163830Y628090D01*
D02*
G37*
G36*
X189230D02*
X187403Y627850D01*
X185700Y627145D01*
X184238Y626022D01*
X183116Y624560D01*
X182410Y622857D01*
X182170Y621030D01*
X182410Y619203D01*
X183116Y617500D01*
X184238Y616038D01*
X185700Y614916D01*
X187403Y614210D01*
X189230Y613970D01*
X191057Y614210D01*
X192760Y614916D01*
X194222Y616038D01*
X195345Y617500D01*
X196050Y619203D01*
X196290Y621030D01*
X196050Y622857D01*
X195345Y624560D01*
X194222Y626022D01*
X192760Y627145D01*
X191057Y627850D01*
X189230Y628090D01*
D02*
G37*
G36*
X657860Y610676D02*
Y607060D01*
X661476D01*
X661338Y607757D01*
X660224Y609424D01*
X658557Y610538D01*
X657860Y610676D01*
D02*
G37*
G36*
X668020D02*
X667324Y610538D01*
X665656Y609424D01*
X664542Y607757D01*
X664404Y607060D01*
X668020D01*
Y610676D01*
D02*
G37*
G36*
X655320D02*
X654623Y610538D01*
X652956Y609424D01*
X651842Y607757D01*
X651704Y607060D01*
X655320D01*
Y610676D01*
D02*
G37*
G36*
X642620D02*
X641924Y610538D01*
X640256Y609424D01*
X639142Y607757D01*
X639004Y607060D01*
X642620D01*
Y610676D01*
D02*
G37*
G36*
X645160D02*
Y607060D01*
X648776D01*
X648638Y607757D01*
X647524Y609424D01*
X645856Y610538D01*
X645160Y610676D01*
D02*
G37*
G36*
X857890Y623570D02*
X845877D01*
X846168Y621359D01*
X847512Y618115D01*
X849649Y615329D01*
X852435Y613192D01*
X855679Y611848D01*
X857890Y611557D01*
Y623570D01*
D02*
G37*
G36*
X872443D02*
X860430D01*
Y611557D01*
X862641Y611848D01*
X865885Y613192D01*
X868671Y615329D01*
X870808Y618115D01*
X872152Y621359D01*
X872443Y623570D01*
D02*
G37*
G36*
X683260Y610676D02*
Y607060D01*
X686876D01*
X686738Y607757D01*
X685624Y609424D01*
X683957Y610538D01*
X683260Y610676D01*
D02*
G37*
G36*
X670560D02*
Y607060D01*
X674176D01*
X674038Y607757D01*
X672924Y609424D01*
X671256Y610538D01*
X670560Y610676D01*
D02*
G37*
G36*
X680720D02*
X680023Y610538D01*
X678356Y609424D01*
X677242Y607757D01*
X677104Y607060D01*
X680720D01*
Y610676D01*
D02*
G37*
G36*
X271586Y664210D02*
X267970D01*
Y660594D01*
X268666Y660732D01*
X270334Y661846D01*
X271448Y663513D01*
X271586Y664210D01*
D02*
G37*
G36*
X323850D02*
X320234D01*
X320372Y663513D01*
X321486Y661846D01*
X323153Y660732D01*
X323850Y660594D01*
Y664210D01*
D02*
G37*
G36*
X265430D02*
X261814D01*
X261952Y663513D01*
X263066Y661846D01*
X264734Y660732D01*
X265430Y660594D01*
Y664210D01*
D02*
G37*
G36*
X970000Y672106D02*
X965687Y671682D01*
X961540Y670424D01*
X957718Y668381D01*
X954368Y665632D01*
X951619Y662282D01*
X949576Y658460D01*
X948318Y654313D01*
X947894Y650000D01*
X948318Y645687D01*
X949576Y641540D01*
X951619Y637718D01*
X954368Y634368D01*
X957718Y631619D01*
X961540Y629576D01*
X965687Y628318D01*
X970000Y627894D01*
X974313Y628318D01*
X978460Y629576D01*
X982282Y631619D01*
X985632Y634368D01*
X988381Y637718D01*
X990424Y641540D01*
X991682Y645687D01*
X992106Y650000D01*
X991682Y654313D01*
X990424Y658460D01*
X988381Y662282D01*
X985632Y665632D01*
X982282Y668381D01*
X978460Y670424D01*
X974313Y671682D01*
X970000Y672106D01*
D02*
G37*
G36*
X541020Y647459D02*
X539654Y647187D01*
X538497Y646413D01*
X537723Y645256D01*
X537451Y643890D01*
X537723Y642524D01*
X538497Y641367D01*
X539654Y640593D01*
X541020Y640321D01*
X542386Y640593D01*
X543543Y641367D01*
X544317Y642524D01*
X544589Y643890D01*
X544317Y645256D01*
X543543Y646413D01*
X542386Y647187D01*
X541020Y647459D01*
D02*
G37*
G36*
X323850Y670366D02*
X323153Y670228D01*
X321486Y669114D01*
X320372Y667447D01*
X320234Y666750D01*
X323850D01*
Y670366D01*
D02*
G37*
G36*
X326390D02*
Y666750D01*
X330006D01*
X329868Y667447D01*
X328754Y669114D01*
X327086Y670228D01*
X326390Y670366D01*
D02*
G37*
G36*
X267970D02*
Y666750D01*
X271586D01*
X271448Y667447D01*
X270334Y669114D01*
X268666Y670228D01*
X267970Y670366D01*
D02*
G37*
G36*
X330006Y664210D02*
X326390D01*
Y660594D01*
X327086Y660732D01*
X328754Y661846D01*
X329868Y663513D01*
X330006Y664210D01*
D02*
G37*
G36*
X265430Y670366D02*
X264734Y670228D01*
X263066Y669114D01*
X261952Y667447D01*
X261814Y666750D01*
X265430D01*
Y670366D01*
D02*
G37*
G36*
X88900Y628468D02*
Y622300D01*
X95068D01*
X94976Y622998D01*
X94216Y624832D01*
X93008Y626408D01*
X91433Y627616D01*
X89598Y628376D01*
X88900Y628468D01*
D02*
G37*
G36*
X111760D02*
X111062Y628376D01*
X109228Y627616D01*
X107652Y626408D01*
X106444Y624832D01*
X105684Y622998D01*
X105592Y622300D01*
X111760D01*
Y628468D01*
D02*
G37*
G36*
X86360D02*
X85662Y628376D01*
X83827Y627616D01*
X82252Y626408D01*
X81044Y624832D01*
X80284Y622998D01*
X80192Y622300D01*
X86360D01*
Y628468D01*
D02*
G37*
G36*
X290830Y628090D02*
X289003Y627850D01*
X287300Y627145D01*
X285838Y626022D01*
X284715Y624560D01*
X284010Y622857D01*
X283770Y621030D01*
X284010Y619203D01*
X284715Y617500D01*
X285838Y616038D01*
X287300Y614916D01*
X289003Y614210D01*
X290830Y613970D01*
X292657Y614210D01*
X294360Y614916D01*
X295822Y616038D01*
X296945Y617500D01*
X297650Y619203D01*
X297890Y621030D01*
X297650Y622857D01*
X296945Y624560D01*
X295822Y626022D01*
X294360Y627145D01*
X292657Y627850D01*
X290830Y628090D01*
D02*
G37*
G36*
X323230Y628030D02*
X309230D01*
Y614030D01*
X323230D01*
Y628030D01*
D02*
G37*
G36*
X541020Y634759D02*
X539654Y634487D01*
X538497Y633713D01*
X537723Y632556D01*
X537451Y631190D01*
X537723Y629824D01*
X538497Y628667D01*
X539654Y627893D01*
X541020Y627621D01*
X542386Y627893D01*
X543543Y628667D01*
X544317Y629824D01*
X544589Y631190D01*
X544317Y632556D01*
X543543Y633713D01*
X542386Y634487D01*
X541020Y634759D01*
D02*
G37*
G36*
X30000Y672106D02*
X25687Y671682D01*
X21540Y670424D01*
X17718Y668381D01*
X14368Y665632D01*
X11619Y662282D01*
X9576Y658460D01*
X8318Y654313D01*
X7894Y650000D01*
X8318Y645687D01*
X9576Y641540D01*
X11619Y637718D01*
X14368Y634368D01*
X17718Y631619D01*
X21540Y629576D01*
X25687Y628318D01*
X30000Y627894D01*
X34313Y628318D01*
X38460Y629576D01*
X42282Y631619D01*
X45632Y634368D01*
X48381Y637718D01*
X50424Y641540D01*
X51682Y645687D01*
X52106Y650000D01*
X51682Y654313D01*
X50424Y658460D01*
X48381Y662282D01*
X45632Y665632D01*
X42282Y668381D01*
X38460Y670424D01*
X34313Y671682D01*
X30000Y672106D01*
D02*
G37*
G36*
X860430Y638123D02*
Y626110D01*
X872443D01*
X872152Y628321D01*
X870808Y631565D01*
X868671Y634351D01*
X865885Y636488D01*
X862641Y637832D01*
X860430Y638123D01*
D02*
G37*
G36*
X114300Y628468D02*
Y622300D01*
X120468D01*
X120376Y622998D01*
X119616Y624832D01*
X118408Y626408D01*
X116833Y627616D01*
X114998Y628376D01*
X114300Y628468D01*
D02*
G37*
G36*
X857890Y638123D02*
X855679Y637832D01*
X852435Y636488D01*
X849649Y634351D01*
X847512Y631565D01*
X846168Y628321D01*
X845877Y626110D01*
X857890D01*
Y638123D01*
D02*
G37*
G36*
X327555Y591264D02*
X318110D01*
Y581818D01*
X319656Y582021D01*
X322280Y583109D01*
X324534Y584838D01*
X326264Y587092D01*
X327351Y589717D01*
X327555Y591264D01*
D02*
G37*
G36*
X415569D02*
X406758D01*
X406940Y589882D01*
X407964Y587410D01*
X409592Y585288D01*
X411715Y583659D01*
X414186Y582635D01*
X415569Y582453D01*
Y591264D01*
D02*
G37*
G36*
X315570D02*
X306123D01*
X306327Y589717D01*
X307414Y587092D01*
X309143Y584838D01*
X311397Y583109D01*
X314022Y582021D01*
X315570Y581818D01*
Y591264D01*
D02*
G37*
G36*
X127555Y591263D02*
X118110D01*
Y581818D01*
X119656Y582021D01*
X122280Y583108D01*
X124534Y584838D01*
X126264Y587092D01*
X127351Y589717D01*
X127555Y591263D01*
D02*
G37*
G36*
X227555Y591264D02*
X218110D01*
Y581818D01*
X219655Y582021D01*
X222280Y583108D01*
X224534Y584838D01*
X226264Y587092D01*
X227351Y589717D01*
X227555Y591264D01*
D02*
G37*
G36*
X354919Y591265D02*
X346108D01*
Y582455D01*
X347491Y582637D01*
X349963Y583661D01*
X352085Y585289D01*
X353713Y587412D01*
X354737Y589883D01*
X354919Y591265D01*
D02*
G37*
G36*
X451919D02*
X443108D01*
Y582455D01*
X444491Y582637D01*
X446963Y583661D01*
X449085Y585289D01*
X450714Y587412D01*
X451737Y589883D01*
X451919Y591265D01*
D02*
G37*
G36*
X390568Y591265D02*
X381758D01*
X381940Y589883D01*
X382964Y587411D01*
X384593Y585289D01*
X386715Y583660D01*
X389186Y582637D01*
X390568Y582455D01*
Y591265D01*
D02*
G37*
G36*
X426919Y591264D02*
X418109D01*
Y582453D01*
X419491Y582635D01*
X421963Y583659D01*
X424085Y585288D01*
X425713Y587410D01*
X426737Y589882D01*
X426919Y591264D01*
D02*
G37*
G36*
X401919Y591265D02*
X393108D01*
Y582455D01*
X394491Y582637D01*
X396963Y583660D01*
X399085Y585289D01*
X400713Y587411D01*
X401737Y589883D01*
X401919Y591265D01*
D02*
G37*
G36*
X545520Y574620D02*
X541904D01*
X542042Y573923D01*
X543156Y572256D01*
X544823Y571142D01*
X545520Y571004D01*
Y574620D01*
D02*
G37*
G36*
X939195Y596061D02*
X936454Y595700D01*
X933900Y594642D01*
X931707Y592959D01*
X930024Y590765D01*
X928966Y588211D01*
X928605Y585470D01*
X928966Y582729D01*
X930024Y580175D01*
X931707Y577981D01*
X933900Y576298D01*
X936454Y575240D01*
X939195Y574879D01*
X941936Y575240D01*
X944491Y576298D01*
X946684Y577981D01*
X948367Y580175D01*
X949425Y582729D01*
X949786Y585470D01*
X949425Y588211D01*
X948367Y590765D01*
X946684Y592959D01*
X944491Y594642D01*
X941936Y595700D01*
X939195Y596061D01*
D02*
G37*
G36*
X489108Y579317D02*
Y570507D01*
X497920D01*
X497738Y571888D01*
X496714Y574360D01*
X495085Y576482D01*
X492963Y578111D01*
X490492Y579134D01*
X489108Y579317D01*
D02*
G37*
G36*
X649685Y576894D02*
X648319Y576622D01*
X647162Y575848D01*
X646388Y574691D01*
X646116Y573325D01*
X646388Y571959D01*
X647162Y570802D01*
X648319Y570028D01*
X649685Y569756D01*
X651051Y570028D01*
X652208Y570802D01*
X652982Y571959D01*
X653254Y573325D01*
X652982Y574691D01*
X652208Y575848D01*
X651051Y576622D01*
X649685Y576894D01*
D02*
G37*
G36*
X486568Y579316D02*
X485187Y579134D01*
X482715Y578111D01*
X480593Y576482D01*
X478965Y574360D01*
X477941Y571888D01*
X477759Y570507D01*
X486568D01*
Y579316D01*
D02*
G37*
G36*
X115570Y591263D02*
X106123D01*
X106326Y589717D01*
X107414Y587092D01*
X109143Y584838D01*
X111397Y583108D01*
X114022Y582021D01*
X115570Y581817D01*
Y591263D01*
D02*
G37*
G36*
X215570Y591264D02*
X206123D01*
X206327Y589717D01*
X207414Y587092D01*
X209143Y584838D01*
X211397Y583108D01*
X214022Y582021D01*
X215570Y581818D01*
Y591264D01*
D02*
G37*
G36*
X800766Y598932D02*
X798254Y598602D01*
X795914Y597632D01*
X793904Y596090D01*
X792362Y594081D01*
X791393Y591740D01*
X791062Y589229D01*
X791393Y586718D01*
X792362Y584378D01*
X793904Y582368D01*
X795914Y580826D01*
X798254Y579857D01*
X800766Y579526D01*
X803277Y579857D01*
X805617Y580826D01*
X807626Y582368D01*
X809168Y584378D01*
X810138Y586718D01*
X810469Y589229D01*
X810138Y591740D01*
X809168Y594081D01*
X807626Y596090D01*
X805617Y597632D01*
X803277Y598602D01*
X800766Y598932D01*
D02*
G37*
G36*
X545520Y580776D02*
X544823Y580638D01*
X543156Y579524D01*
X542042Y577856D01*
X541904Y577160D01*
X545520D01*
Y580776D01*
D02*
G37*
G36*
X656590Y586499D02*
X655224Y586227D01*
X654067Y585453D01*
X653293Y584296D01*
X653021Y582930D01*
X653293Y581564D01*
X654067Y580407D01*
X655224Y579633D01*
X656590Y579361D01*
X657956Y579633D01*
X659113Y580407D01*
X659887Y581564D01*
X660159Y582930D01*
X659887Y584296D01*
X659113Y585453D01*
X657956Y586227D01*
X656590Y586499D01*
D02*
G37*
G36*
X661476Y604520D02*
X657860D01*
Y600904D01*
X658557Y601042D01*
X660224Y602156D01*
X661338Y603824D01*
X661476Y604520D01*
D02*
G37*
G36*
X668020D02*
X664404D01*
X664542Y603824D01*
X665656Y602156D01*
X667324Y601042D01*
X668020Y600904D01*
Y604520D01*
D02*
G37*
G36*
X655320D02*
X651704D01*
X651842Y603824D01*
X652956Y602156D01*
X654623Y601042D01*
X655320Y600904D01*
Y604520D01*
D02*
G37*
G36*
X642620D02*
X639004D01*
X639142Y603824D01*
X640256Y602156D01*
X641924Y601042D01*
X642620Y600904D01*
Y604520D01*
D02*
G37*
G36*
X648776D02*
X645160D01*
Y600904D01*
X645856Y601042D01*
X647524Y602156D01*
X648638Y603824D01*
X648776Y604520D01*
D02*
G37*
G36*
X824895Y611019D02*
X823513Y610837D01*
X821042Y609813D01*
X818919Y608185D01*
X817291Y606063D01*
X816267Y603591D01*
X816085Y602209D01*
X824895D01*
Y611019D01*
D02*
G37*
G36*
X827436D02*
Y602209D01*
X836246D01*
X836064Y603591D01*
X835040Y606063D01*
X833412Y608185D01*
X831289Y609813D01*
X828818Y610837D01*
X827436Y611019D01*
D02*
G37*
G36*
X686876Y604520D02*
X683260D01*
Y600904D01*
X683957Y601042D01*
X685624Y602156D01*
X686738Y603824D01*
X686876Y604520D01*
D02*
G37*
G36*
X674176D02*
X670560D01*
Y600904D01*
X671256Y601042D01*
X672924Y602156D01*
X674038Y603824D01*
X674176Y604520D01*
D02*
G37*
G36*
X680720D02*
X677104D01*
X677242Y603824D01*
X678356Y602156D01*
X680023Y601042D01*
X680720Y600904D01*
Y604520D01*
D02*
G37*
G36*
X544636Y586740D02*
X541020D01*
Y583124D01*
X541716Y583262D01*
X543384Y584376D01*
X544498Y586044D01*
X544636Y586740D01*
D02*
G37*
G36*
X889666Y620166D02*
X886088Y619813D01*
X882648Y618770D01*
X879477Y617075D01*
X876698Y614795D01*
X874418Y612016D01*
X872723Y608845D01*
X871680Y605405D01*
X871327Y601828D01*
X871680Y598250D01*
X872723Y594810D01*
X874418Y591640D01*
X876698Y588861D01*
X879477Y586580D01*
X882648Y584885D01*
X886088Y583842D01*
X889666Y583489D01*
X893243Y583842D01*
X896683Y584885D01*
X899854Y586580D01*
X902633Y588861D01*
X904913Y591640D01*
X906608Y594810D01*
X907651Y598250D01*
X908004Y601828D01*
X907651Y605405D01*
X906608Y608845D01*
X904913Y612016D01*
X902633Y614795D01*
X899854Y617075D01*
X896683Y618770D01*
X893243Y619813D01*
X889666Y620166D01*
D02*
G37*
G36*
X538480Y586740D02*
X534864D01*
X535002Y586044D01*
X536116Y584376D01*
X537784Y583262D01*
X538480Y583124D01*
Y586740D01*
D02*
G37*
G36*
X343568Y591265D02*
X334758D01*
X334940Y589883D01*
X335964Y587412D01*
X337593Y585289D01*
X339715Y583661D01*
X342187Y582637D01*
X343568Y582455D01*
Y591265D01*
D02*
G37*
G36*
X440568D02*
X431758D01*
X431940Y589883D01*
X432964Y587412D01*
X434593Y585289D01*
X436715Y583661D01*
X439187Y582637D01*
X440568Y582455D01*
Y591265D01*
D02*
G37*
G36*
X836246Y599669D02*
X827436D01*
Y590858D01*
X828818Y591040D01*
X831289Y592064D01*
X833412Y593692D01*
X835040Y595815D01*
X836064Y598286D01*
X836246Y599669D01*
D02*
G37*
G36*
X939195Y621461D02*
X936454Y621100D01*
X933900Y620042D01*
X931707Y618359D01*
X930024Y616165D01*
X928966Y613611D01*
X928605Y610870D01*
X928966Y608129D01*
X930024Y605575D01*
X931707Y603381D01*
X933900Y601698D01*
X936454Y600640D01*
X939195Y600279D01*
X941936Y600640D01*
X944491Y601698D01*
X946684Y603381D01*
X948367Y605575D01*
X949425Y608129D01*
X949786Y610870D01*
X949425Y613611D01*
X948367Y616165D01*
X946684Y618359D01*
X944491Y620042D01*
X941936Y621100D01*
X939195Y621461D01*
D02*
G37*
G36*
X824895Y599669D02*
X816085D01*
X816267Y598286D01*
X817291Y595815D01*
X818919Y593692D01*
X821042Y592064D01*
X823513Y591040D01*
X824895Y590858D01*
Y599669D01*
D02*
G37*
G36*
X538480Y592896D02*
X537784Y592758D01*
X536116Y591644D01*
X535002Y589977D01*
X534864Y589280D01*
X538480D01*
Y592896D01*
D02*
G37*
G36*
X541020D02*
Y589280D01*
X544636D01*
X544498Y589977D01*
X543384Y591644D01*
X541716Y592758D01*
X541020Y592896D01*
D02*
G37*
G36*
X700200Y493406D02*
X699503Y493268D01*
X697836Y492154D01*
X696722Y490486D01*
X696584Y489790D01*
X700200D01*
Y493406D01*
D02*
G37*
G36*
X189036Y386080D02*
X185420D01*
Y382464D01*
X186117Y382602D01*
X187784Y383716D01*
X188898Y385383D01*
X189036Y386080D01*
D02*
G37*
G36*
X955040Y387350D02*
X951424D01*
X951562Y386654D01*
X952676Y384986D01*
X954343Y383872D01*
X955040Y383734D01*
Y387350D01*
D02*
G37*
G36*
X182880Y386080D02*
X179264D01*
X179402Y385383D01*
X180516Y383716D01*
X182183Y382602D01*
X182880Y382464D01*
Y386080D01*
D02*
G37*
G36*
X131500Y383540D02*
X127884D01*
X128022Y382844D01*
X129136Y381176D01*
X130803Y380062D01*
X131500Y379924D01*
Y383540D01*
D02*
G37*
G36*
X137656D02*
X134040D01*
Y379924D01*
X134736Y380062D01*
X136404Y381176D01*
X137518Y382844D01*
X137656Y383540D01*
D02*
G37*
G36*
X131500Y389696D02*
X130803Y389558D01*
X129136Y388444D01*
X128022Y386777D01*
X127884Y386080D01*
X131500D01*
Y389696D01*
D02*
G37*
G36*
X134040D02*
Y386080D01*
X137656D01*
X137518Y386777D01*
X136404Y388444D01*
X134736Y389558D01*
X134040Y389696D01*
D02*
G37*
G36*
X990406Y387350D02*
X986790D01*
Y383734D01*
X987486Y383872D01*
X989154Y384986D01*
X990268Y386654D01*
X990406Y387350D01*
D02*
G37*
G36*
X961196D02*
X957580D01*
Y383734D01*
X958277Y383872D01*
X959944Y384986D01*
X961058Y386654D01*
X961196Y387350D01*
D02*
G37*
G36*
X984250D02*
X980634D01*
X980772Y386654D01*
X981886Y384986D01*
X983553Y383872D01*
X984250Y383734D01*
Y387350D01*
D02*
G37*
G36*
X232410Y371916D02*
X231714Y371778D01*
X230046Y370664D01*
X228932Y368997D01*
X228794Y368300D01*
X232410D01*
Y371916D01*
D02*
G37*
G36*
X234950D02*
Y368300D01*
X238566D01*
X238428Y368997D01*
X237314Y370664D01*
X235646Y371778D01*
X234950Y371916D01*
D02*
G37*
G36*
X134040D02*
Y368300D01*
X137656D01*
X137518Y368997D01*
X136404Y370664D01*
X134736Y371778D01*
X134040Y371916D01*
D02*
G37*
G36*
X990406Y370840D02*
X986790D01*
Y367224D01*
X987486Y367362D01*
X989154Y368476D01*
X990268Y370144D01*
X990406Y370840D01*
D02*
G37*
G36*
X131500Y371916D02*
X130803Y371778D01*
X129136Y370664D01*
X128022Y368997D01*
X127884Y368300D01*
X131500D01*
Y371916D01*
D02*
G37*
G36*
X984250Y376996D02*
X983553Y376858D01*
X981886Y375744D01*
X980772Y374076D01*
X980634Y373380D01*
X984250D01*
Y376996D01*
D02*
G37*
G36*
X986790D02*
Y373380D01*
X990406D01*
X990268Y374076D01*
X989154Y375744D01*
X987486Y376858D01*
X986790Y376996D01*
D02*
G37*
G36*
X957580D02*
Y373380D01*
X961196D01*
X961058Y374076D01*
X959944Y375744D01*
X958277Y376858D01*
X957580Y376996D01*
D02*
G37*
G36*
X904666Y390236D02*
X879666D01*
X877186Y389910D01*
X874875Y388952D01*
X872890Y387430D01*
X871367Y385445D01*
X870410Y383134D01*
X870084Y380654D01*
X870410Y378174D01*
X871367Y375863D01*
X872890Y373879D01*
X874875Y372356D01*
X877186Y371399D01*
X879666Y371072D01*
X904666D01*
X907146Y371399D01*
X909457Y372356D01*
X911441Y373879D01*
X912964Y375863D01*
X913921Y378174D01*
X914248Y380654D01*
X913921Y383134D01*
X912964Y385445D01*
X911441Y387430D01*
X909457Y388952D01*
X907146Y389910D01*
X904666Y390236D01*
D02*
G37*
G36*
X955040Y376996D02*
X954343Y376858D01*
X952676Y375744D01*
X951562Y374076D01*
X951424Y373380D01*
X955040D01*
Y376996D01*
D02*
G37*
G36*
X775970Y416560D02*
X772354D01*
X772492Y415863D01*
X773606Y414196D01*
X775274Y413082D01*
X775970Y412944D01*
Y416560D01*
D02*
G37*
G36*
X782126D02*
X778510D01*
Y412944D01*
X779206Y413082D01*
X780874Y414196D01*
X781988Y415863D01*
X782126Y416560D01*
D02*
G37*
G36*
X523930Y412509D02*
X522564Y412237D01*
X521407Y411463D01*
X520633Y410306D01*
X520361Y408940D01*
X520633Y407574D01*
X521407Y406417D01*
X522564Y405643D01*
X523930Y405371D01*
X525296Y405643D01*
X526453Y406417D01*
X527227Y407574D01*
X527499Y408940D01*
X527227Y410306D01*
X526453Y411463D01*
X525296Y412237D01*
X523930Y412509D01*
D02*
G37*
G36*
X413440D02*
X412074Y412237D01*
X410917Y411463D01*
X410143Y410306D01*
X409871Y408940D01*
X410143Y407574D01*
X410917Y406417D01*
X412074Y405643D01*
X413440Y405371D01*
X414806Y405643D01*
X415963Y406417D01*
X416737Y407574D01*
X417009Y408940D01*
X416737Y410306D01*
X415963Y411463D01*
X414806Y412237D01*
X413440Y412509D01*
D02*
G37*
G36*
X465510D02*
X464144Y412237D01*
X462987Y411463D01*
X462213Y410306D01*
X461941Y408940D01*
X462213Y407574D01*
X462987Y406417D01*
X464144Y405643D01*
X465510Y405371D01*
X466876Y405643D01*
X468033Y406417D01*
X468807Y407574D01*
X469079Y408940D01*
X468807Y410306D01*
X468033Y411463D01*
X466876Y412237D01*
X465510Y412509D01*
D02*
G37*
G36*
X291410Y425899D02*
X290044Y425627D01*
X288887Y424853D01*
X288113Y423696D01*
X287841Y422330D01*
X288113Y420964D01*
X288887Y419807D01*
X290044Y419033D01*
X291410Y418761D01*
X292776Y419033D01*
X293933Y419807D01*
X294707Y420964D01*
X294979Y422330D01*
X294707Y423696D01*
X293933Y424853D01*
X292776Y425627D01*
X291410Y425899D01*
D02*
G37*
G36*
X775970Y422716D02*
X775274Y422578D01*
X773606Y421464D01*
X772492Y419796D01*
X772354Y419100D01*
X775970D01*
Y422716D01*
D02*
G37*
G36*
X249416Y421060D02*
X245800D01*
Y417444D01*
X246497Y417582D01*
X248164Y418696D01*
X249278Y420364D01*
X249416Y421060D01*
D02*
G37*
G36*
X589280Y422669D02*
X587914Y422397D01*
X586757Y421623D01*
X585983Y420466D01*
X585711Y419100D01*
X585983Y417734D01*
X586757Y416577D01*
X587914Y415803D01*
X589280Y415531D01*
X590646Y415803D01*
X591803Y416577D01*
X592577Y417734D01*
X592849Y419100D01*
X592577Y420466D01*
X591803Y421623D01*
X590646Y422397D01*
X589280Y422669D01*
D02*
G37*
G36*
X243260Y421060D02*
X239644D01*
X239782Y420364D01*
X240896Y418696D01*
X242563Y417582D01*
X243260Y417444D01*
Y421060D01*
D02*
G37*
G36*
X185420Y392236D02*
Y388620D01*
X189036D01*
X188898Y389316D01*
X187784Y390984D01*
X186117Y392098D01*
X185420Y392236D01*
D02*
G37*
G36*
X955040Y393506D02*
X954343Y393368D01*
X952676Y392254D01*
X951562Y390587D01*
X951424Y389890D01*
X955040D01*
Y393506D01*
D02*
G37*
G36*
X182880Y392236D02*
X182183Y392098D01*
X180516Y390984D01*
X179402Y389316D01*
X179264Y388620D01*
X182880D01*
Y392236D01*
D02*
G37*
G36*
X351100Y390580D02*
X347484D01*
X347622Y389883D01*
X348736Y388216D01*
X350404Y387102D01*
X351100Y386964D01*
Y390580D01*
D02*
G37*
G36*
X357256D02*
X353640D01*
Y386964D01*
X354337Y387102D01*
X356004Y388216D01*
X357118Y389883D01*
X357256Y390580D01*
D02*
G37*
G36*
X351100Y396736D02*
X350404Y396598D01*
X348736Y395484D01*
X347622Y393816D01*
X347484Y393120D01*
X351100D01*
Y396736D01*
D02*
G37*
G36*
X353640D02*
Y393120D01*
X357256D01*
X357118Y393816D01*
X356004Y395484D01*
X354337Y396598D01*
X353640Y396736D01*
D02*
G37*
G36*
X986790Y393506D02*
Y389890D01*
X990406D01*
X990268Y390587D01*
X989154Y392254D01*
X987486Y393368D01*
X986790Y393506D01*
D02*
G37*
G36*
X957580D02*
Y389890D01*
X961196D01*
X961058Y390587D01*
X959944Y392254D01*
X958277Y393368D01*
X957580Y393506D01*
D02*
G37*
G36*
X984250D02*
X983553Y393368D01*
X981886Y392254D01*
X980772Y390587D01*
X980634Y389890D01*
X984250D01*
Y393506D01*
D02*
G37*
G36*
X182880Y344170D02*
X179264D01*
X179402Y343474D01*
X180516Y341806D01*
X182183Y340692D01*
X182880Y340554D01*
Y344170D01*
D02*
G37*
G36*
X189036D02*
X185420D01*
Y340554D01*
X186117Y340692D01*
X187784Y341806D01*
X188898Y343474D01*
X189036Y344170D01*
D02*
G37*
G36*
X986790Y342706D02*
Y339090D01*
X990406D01*
X990268Y339786D01*
X989154Y341454D01*
X987486Y342568D01*
X986790Y342706D01*
D02*
G37*
G36*
X957580D02*
Y339090D01*
X961196D01*
X961058Y339786D01*
X959944Y341454D01*
X958277Y342568D01*
X957580Y342706D01*
D02*
G37*
G36*
X984250D02*
X983553Y342568D01*
X981886Y341454D01*
X980772Y339786D01*
X980634Y339090D01*
X984250D01*
Y342706D01*
D02*
G37*
G36*
X185420Y350326D02*
Y346710D01*
X189036D01*
X188898Y347407D01*
X187784Y349074D01*
X186117Y350188D01*
X185420Y350326D01*
D02*
G37*
G36*
X955040Y353060D02*
X951424D01*
X951562Y352364D01*
X952676Y350696D01*
X954343Y349582D01*
X955040Y349444D01*
Y353060D01*
D02*
G37*
G36*
X182880Y350326D02*
X182183Y350188D01*
X180516Y349074D01*
X179402Y347407D01*
X179264Y346710D01*
X182880D01*
Y350326D01*
D02*
G37*
G36*
X131500Y349250D02*
X127884D01*
X128022Y348554D01*
X129136Y346886D01*
X130803Y345772D01*
X131500Y345634D01*
Y349250D01*
D02*
G37*
G36*
X137656D02*
X134040D01*
Y345634D01*
X134736Y345772D01*
X136404Y346886D01*
X137518Y348554D01*
X137656Y349250D01*
D02*
G37*
G36*
X955040Y336550D02*
X951424D01*
X951562Y335854D01*
X952676Y334186D01*
X954343Y333072D01*
X955040Y332934D01*
Y336550D01*
D02*
G37*
G36*
X961196D02*
X957580D01*
Y332934D01*
X958277Y333072D01*
X959944Y334186D01*
X961058Y335854D01*
X961196Y336550D01*
D02*
G37*
G36*
X986790Y323656D02*
Y320040D01*
X990406D01*
X990268Y320737D01*
X989154Y322404D01*
X987486Y323518D01*
X986790Y323656D01*
D02*
G37*
G36*
X957580D02*
Y320040D01*
X961196D01*
X961058Y320737D01*
X959944Y322404D01*
X958277Y323518D01*
X957580Y323656D01*
D02*
G37*
G36*
X984250D02*
X983553Y323518D01*
X981886Y322404D01*
X980772Y320737D01*
X980634Y320040D01*
X984250D01*
Y323656D01*
D02*
G37*
G36*
X923141Y358420D02*
Y337230D01*
X931998D01*
Y348460D01*
X931653Y351081D01*
X930641Y353524D01*
X929032Y355621D01*
X926934Y357230D01*
X924492Y358242D01*
X923141Y358420D01*
D02*
G37*
G36*
X955040Y342706D02*
X954343Y342568D01*
X952676Y341454D01*
X951562Y339786D01*
X951424Y339090D01*
X955040D01*
Y342706D01*
D02*
G37*
G36*
X920601Y358420D02*
X919250Y358242D01*
X916808Y357230D01*
X914710Y355621D01*
X913101Y353524D01*
X912089Y351081D01*
X911744Y348460D01*
Y337230D01*
X920601D01*
Y358420D01*
D02*
G37*
G36*
X984250Y336550D02*
X980634D01*
X980772Y335854D01*
X981886Y334186D01*
X983553Y333072D01*
X984250Y332934D01*
Y336550D01*
D02*
G37*
G36*
X990406D02*
X986790D01*
Y332934D01*
X987486Y333072D01*
X989154Y334186D01*
X990268Y335854D01*
X990406Y336550D01*
D02*
G37*
G36*
X232410Y365760D02*
X228794D01*
X228932Y365064D01*
X230046Y363396D01*
X231714Y362282D01*
X232410Y362144D01*
Y365760D01*
D02*
G37*
G36*
X238566D02*
X234950D01*
Y362144D01*
X235646Y362282D01*
X237314Y363396D01*
X238428Y365064D01*
X238566Y365760D01*
D02*
G37*
G36*
X137656D02*
X134040D01*
Y362144D01*
X134736Y362282D01*
X136404Y363396D01*
X137518Y365064D01*
X137656Y365760D01*
D02*
G37*
G36*
X189036Y364490D02*
X185420D01*
Y360874D01*
X186117Y361012D01*
X187784Y362126D01*
X188898Y363793D01*
X189036Y364490D01*
D02*
G37*
G36*
X131500Y365760D02*
X127884D01*
X128022Y365064D01*
X129136Y363396D01*
X130803Y362282D01*
X131500Y362144D01*
Y365760D01*
D02*
G37*
G36*
X961196Y370840D02*
X957580D01*
Y367224D01*
X958277Y367362D01*
X959944Y368476D01*
X961058Y370144D01*
X961196Y370840D01*
D02*
G37*
G36*
X984250D02*
X980634D01*
X980772Y370144D01*
X981886Y368476D01*
X983553Y367362D01*
X984250Y367224D01*
Y370840D01*
D02*
G37*
G36*
X955040D02*
X951424D01*
X951562Y370144D01*
X952676Y368476D01*
X954343Y367362D01*
X955040Y367224D01*
Y370840D01*
D02*
G37*
G36*
X182880Y370646D02*
X182183Y370508D01*
X180516Y369394D01*
X179402Y367727D01*
X179264Y367030D01*
X182880D01*
Y370646D01*
D02*
G37*
G36*
X185420D02*
Y367030D01*
X189036D01*
X188898Y367727D01*
X187784Y369394D01*
X186117Y370508D01*
X185420Y370646D01*
D02*
G37*
G36*
X131500Y355406D02*
X130803Y355268D01*
X129136Y354154D01*
X128022Y352486D01*
X127884Y351790D01*
X131500D01*
Y355406D01*
D02*
G37*
G36*
X134040D02*
Y351790D01*
X137656D01*
X137518Y352486D01*
X136404Y354154D01*
X134736Y355268D01*
X134040Y355406D01*
D02*
G37*
G36*
X990406Y353060D02*
X986790D01*
Y349444D01*
X987486Y349582D01*
X989154Y350696D01*
X990268Y352364D01*
X990406Y353060D01*
D02*
G37*
G36*
X961196D02*
X957580D01*
Y349444D01*
X958277Y349582D01*
X959944Y350696D01*
X961058Y352364D01*
X961196Y353060D01*
D02*
G37*
G36*
X984250D02*
X980634D01*
X980772Y352364D01*
X981886Y350696D01*
X983553Y349582D01*
X984250Y349444D01*
Y353060D01*
D02*
G37*
G36*
X986790Y359216D02*
Y355600D01*
X990406D01*
X990268Y356297D01*
X989154Y357964D01*
X987486Y359078D01*
X986790Y359216D01*
D02*
G37*
G36*
X182880Y364490D02*
X179264D01*
X179402Y363793D01*
X180516Y362126D01*
X182183Y361012D01*
X182880Y360874D01*
Y364490D01*
D02*
G37*
G36*
X984250Y359216D02*
X983553Y359078D01*
X981886Y357964D01*
X980772Y356297D01*
X980634Y355600D01*
X984250D01*
Y359216D01*
D02*
G37*
G36*
X955040D02*
X954343Y359078D01*
X952676Y357964D01*
X951562Y356297D01*
X951424Y355600D01*
X955040D01*
Y359216D01*
D02*
G37*
G36*
X957580D02*
Y355600D01*
X961196D01*
X961058Y356297D01*
X959944Y357964D01*
X958277Y359078D01*
X957580Y359216D01*
D02*
G37*
G36*
X778510Y422716D02*
Y419100D01*
X782126D01*
X781988Y419796D01*
X780874Y421464D01*
X779206Y422578D01*
X778510Y422716D01*
D02*
G37*
G36*
X646430Y472246D02*
X645733Y472108D01*
X644066Y470994D01*
X642952Y469327D01*
X642814Y468630D01*
X646430D01*
Y472246D01*
D02*
G37*
G36*
X648970D02*
Y468630D01*
X652586D01*
X652448Y469327D01*
X651334Y470994D01*
X649667Y472108D01*
X648970Y472246D01*
D02*
G37*
G36*
X939195Y489381D02*
X936454Y489020D01*
X933900Y487962D01*
X931707Y486279D01*
X930024Y484085D01*
X928966Y481531D01*
X928605Y478790D01*
X928966Y476049D01*
X930024Y473495D01*
X931707Y471301D01*
X933900Y469618D01*
X936454Y468560D01*
X939195Y468199D01*
X941936Y468560D01*
X944491Y469618D01*
X946684Y471301D01*
X948367Y473495D01*
X949425Y476049D01*
X949786Y478790D01*
X949425Y481531D01*
X948367Y484085D01*
X946684Y486279D01*
X944491Y487962D01*
X941936Y489020D01*
X939195Y489381D01*
D02*
G37*
G36*
X857890Y478103D02*
X855679Y477812D01*
X852435Y476468D01*
X849649Y474331D01*
X847512Y471545D01*
X846168Y468301D01*
X845877Y466090D01*
X857890D01*
Y478103D01*
D02*
G37*
G36*
X860430D02*
Y466090D01*
X872443D01*
X872152Y468301D01*
X870808Y471545D01*
X868671Y474331D01*
X865885Y476468D01*
X862641Y477812D01*
X860430Y478103D01*
D02*
G37*
G36*
X369376Y472440D02*
X365760D01*
Y468824D01*
X366456Y468962D01*
X368124Y470076D01*
X369238Y471744D01*
X369376Y472440D01*
D02*
G37*
G36*
X889666Y506171D02*
X886088Y505818D01*
X882648Y504775D01*
X879477Y503080D01*
X876698Y500799D01*
X874418Y498021D01*
X872723Y494850D01*
X871680Y491410D01*
X871327Y487832D01*
X871680Y484255D01*
X872723Y480815D01*
X874418Y477644D01*
X876698Y474865D01*
X879477Y472585D01*
X882648Y470890D01*
X886088Y469847D01*
X889666Y469494D01*
X893243Y469847D01*
X896683Y470890D01*
X899854Y472585D01*
X902633Y474865D01*
X904913Y477644D01*
X906608Y480815D01*
X907651Y484255D01*
X908004Y487832D01*
X907651Y491410D01*
X906608Y494850D01*
X904913Y498021D01*
X902633Y500799D01*
X899854Y503080D01*
X896683Y504775D01*
X893243Y505818D01*
X889666Y506171D01*
D02*
G37*
G36*
X363220Y472440D02*
X359604D01*
X359742Y471744D01*
X360856Y470076D01*
X362523Y468962D01*
X363220Y468824D01*
Y472440D01*
D02*
G37*
G36*
X678180Y472246D02*
X677484Y472108D01*
X675816Y470994D01*
X674702Y469327D01*
X674564Y468630D01*
X678180D01*
Y472246D01*
D02*
G37*
G36*
X680720D02*
Y468630D01*
X684336D01*
X684198Y469327D01*
X683084Y470994D01*
X681416Y472108D01*
X680720Y472246D01*
D02*
G37*
G36*
X684336Y466090D02*
X680720D01*
Y462474D01*
X681416Y462612D01*
X683084Y463726D01*
X684198Y465393D01*
X684336Y466090D01*
D02*
G37*
G36*
X497918Y471965D02*
X489106D01*
Y463155D01*
X490490Y463337D01*
X492961Y464361D01*
X495084Y465990D01*
X496712Y468112D01*
X497736Y470584D01*
X497918Y471965D01*
D02*
G37*
G36*
X678180Y466090D02*
X674564D01*
X674702Y465393D01*
X675816Y463726D01*
X677484Y462612D01*
X678180Y462474D01*
Y466090D01*
D02*
G37*
G36*
X646430D02*
X642814D01*
X642952Y465393D01*
X644066Y463726D01*
X645733Y462612D01*
X646430Y462474D01*
Y466090D01*
D02*
G37*
G36*
X652586D02*
X648970D01*
Y462474D01*
X649667Y462612D01*
X651334Y463726D01*
X652448Y465393D01*
X652586Y466090D01*
D02*
G37*
G36*
X582930Y472199D02*
X581564Y471927D01*
X580407Y471153D01*
X579633Y469996D01*
X579361Y468630D01*
X579633Y467264D01*
X580407Y466107D01*
X581564Y465333D01*
X582930Y465061D01*
X584296Y465333D01*
X585453Y466107D01*
X586227Y467264D01*
X586499Y468630D01*
X586227Y469996D01*
X585453Y471153D01*
X584296Y471927D01*
X582930Y472199D01*
D02*
G37*
G36*
X593090D02*
X591724Y471927D01*
X590567Y471153D01*
X589793Y469996D01*
X589521Y468630D01*
X589793Y467264D01*
X590567Y466107D01*
X591724Y465333D01*
X593090Y465061D01*
X594456Y465333D01*
X595613Y466107D01*
X596387Y467264D01*
X596659Y468630D01*
X596387Y469996D01*
X595613Y471153D01*
X594456Y471927D01*
X593090Y472199D01*
D02*
G37*
G36*
X739140Y467166D02*
Y463550D01*
X742756D01*
X742618Y464246D01*
X741504Y465914D01*
X739837Y467028D01*
X739140Y467166D01*
D02*
G37*
G36*
X486566Y471965D02*
X477757D01*
X477939Y470584D01*
X478963Y468112D01*
X480591Y465990D01*
X482714Y464361D01*
X485185Y463337D01*
X486566Y463156D01*
Y471965D01*
D02*
G37*
G36*
X736600Y467166D02*
X735903Y467028D01*
X734236Y465914D01*
X733122Y464246D01*
X732984Y463550D01*
X736600D01*
Y467166D01*
D02*
G37*
G36*
X700200Y487250D02*
X696584D01*
X696722Y486553D01*
X697836Y484886D01*
X699503Y483772D01*
X700200Y483634D01*
Y487250D01*
D02*
G37*
G36*
X706356D02*
X702740D01*
Y483634D01*
X703437Y483772D01*
X705104Y484886D01*
X706218Y486553D01*
X706356Y487250D01*
D02*
G37*
G36*
X318110Y492450D02*
Y483004D01*
X327555D01*
X327351Y484551D01*
X326264Y487176D01*
X324534Y489430D01*
X322280Y491159D01*
X319656Y492246D01*
X318110Y492450D01*
D02*
G37*
G36*
X636270Y481136D02*
Y477520D01*
X639886D01*
X639748Y478217D01*
X638634Y479884D01*
X636967Y480998D01*
X636270Y481136D01*
D02*
G37*
G36*
X315570Y492450D02*
X314022Y492246D01*
X311397Y491159D01*
X309143Y489430D01*
X307414Y487176D01*
X306327Y484551D01*
X306123Y483004D01*
X315570D01*
Y492450D01*
D02*
G37*
G36*
X679450Y495059D02*
X678084Y494787D01*
X676927Y494013D01*
X676153Y492856D01*
X675881Y491490D01*
X676153Y490124D01*
X676927Y488967D01*
X678084Y488193D01*
X679450Y487921D01*
X680816Y488193D01*
X681973Y488967D01*
X682747Y490124D01*
X683019Y491490D01*
X682747Y492856D01*
X681973Y494013D01*
X680816Y494787D01*
X679450Y495059D01*
D02*
G37*
G36*
X826165Y509042D02*
X823654Y508711D01*
X821314Y507742D01*
X819304Y506200D01*
X817762Y504190D01*
X816793Y501850D01*
X816462Y499339D01*
X816793Y496827D01*
X817762Y494487D01*
X819304Y492478D01*
X821314Y490936D01*
X823654Y489966D01*
X826165Y489636D01*
X828677Y489966D01*
X831017Y490936D01*
X833027Y492478D01*
X834568Y494487D01*
X835538Y496827D01*
X835869Y499339D01*
X835538Y501850D01*
X834568Y504190D01*
X833027Y506200D01*
X831017Y507742D01*
X828677Y508711D01*
X826165Y509042D01*
D02*
G37*
G36*
X647700Y495059D02*
X646334Y494787D01*
X645177Y494013D01*
X644403Y492856D01*
X644131Y491490D01*
X644403Y490124D01*
X645177Y488967D01*
X646334Y488193D01*
X647700Y487921D01*
X649066Y488193D01*
X650223Y488967D01*
X650997Y490124D01*
X651269Y491490D01*
X650997Y492856D01*
X650223Y494013D01*
X649066Y494787D01*
X647700Y495059D01*
D02*
G37*
G36*
X363422Y490018D02*
X359806D01*
X359945Y489321D01*
X361059Y487654D01*
X362726Y486540D01*
X363422Y486401D01*
Y490018D01*
D02*
G37*
G36*
X369579D02*
X365962D01*
Y486401D01*
X366659Y486540D01*
X368326Y487654D01*
X369440Y489321D01*
X369579Y490018D01*
D02*
G37*
G36*
X639886Y474980D02*
X636270D01*
Y471364D01*
X636967Y471502D01*
X638634Y472616D01*
X639748Y474283D01*
X639886Y474980D01*
D02*
G37*
G36*
X486566Y483316D02*
X485185Y483134D01*
X482714Y482111D01*
X480591Y480482D01*
X478963Y478360D01*
X477939Y475888D01*
X477757Y474505D01*
X486566D01*
Y483316D01*
D02*
G37*
G36*
X633730Y474980D02*
X630114D01*
X630252Y474283D01*
X631366Y472616D01*
X633033Y471502D01*
X633730Y471364D01*
Y474980D01*
D02*
G37*
G36*
X315570Y480464D02*
X306123D01*
X306327Y478917D01*
X307414Y476292D01*
X309143Y474038D01*
X311397Y472309D01*
X314022Y471222D01*
X315570Y471018D01*
Y480464D01*
D02*
G37*
G36*
X327555D02*
X318110D01*
Y471018D01*
X319656Y471222D01*
X322280Y472309D01*
X324534Y474038D01*
X326264Y476292D01*
X327351Y478917D01*
X327555Y480464D01*
D02*
G37*
G36*
X810324Y496124D02*
X791085D01*
Y476884D01*
X810324D01*
Y496124D01*
D02*
G37*
G36*
X633730Y481136D02*
X633033Y480998D01*
X631366Y479884D01*
X630252Y478217D01*
X630114Y477520D01*
X633730D01*
Y481136D01*
D02*
G37*
G36*
X365760Y478596D02*
Y474980D01*
X369376D01*
X369238Y475676D01*
X368124Y477344D01*
X366456Y478458D01*
X365760Y478596D01*
D02*
G37*
G36*
X489106Y483317D02*
Y474505D01*
X497918D01*
X497736Y475888D01*
X496712Y478360D01*
X495084Y480482D01*
X492961Y482111D01*
X490490Y483134D01*
X489106Y483317D01*
D02*
G37*
G36*
X363220Y478596D02*
X362523Y478458D01*
X360856Y477344D01*
X359742Y475676D01*
X359604Y474980D01*
X363220D01*
Y478596D01*
D02*
G37*
G36*
X598170Y443230D02*
X594554D01*
X594692Y442533D01*
X595806Y440866D01*
X597473Y439752D01*
X598170Y439614D01*
Y443230D01*
D02*
G37*
G36*
X604326D02*
X600710D01*
Y439614D01*
X601407Y439752D01*
X603074Y440866D01*
X604188Y442533D01*
X604326Y443230D01*
D02*
G37*
G36*
X591626D02*
X588010D01*
Y439614D01*
X588707Y439752D01*
X590374Y440866D01*
X591488Y442533D01*
X591626Y443230D01*
D02*
G37*
G36*
X702310Y437956D02*
Y434340D01*
X705926D01*
X705788Y435037D01*
X704674Y436704D01*
X703007Y437818D01*
X702310Y437956D01*
D02*
G37*
G36*
X585470Y443230D02*
X581854D01*
X581992Y442533D01*
X583106Y440866D01*
X584773Y439752D01*
X585470Y439614D01*
Y443230D01*
D02*
G37*
G36*
X600710Y449386D02*
Y445770D01*
X604326D01*
X604188Y446466D01*
X603074Y448134D01*
X601407Y449248D01*
X600710Y449386D01*
D02*
G37*
G36*
X165571Y460750D02*
X164023Y460546D01*
X161398Y459459D01*
X159144Y457729D01*
X157415Y455475D01*
X156328Y452850D01*
X156124Y451305D01*
X165571D01*
Y460750D01*
D02*
G37*
G36*
X598170Y449386D02*
X597473Y449248D01*
X595806Y448134D01*
X594692Y446466D01*
X594554Y445770D01*
X598170D01*
Y449386D01*
D02*
G37*
G36*
X585470D02*
X584773Y449248D01*
X583106Y448134D01*
X581992Y446466D01*
X581854Y445770D01*
X585470D01*
Y449386D01*
D02*
G37*
G36*
X588010D02*
Y445770D01*
X591626D01*
X591488Y446466D01*
X590374Y448134D01*
X588707Y449248D01*
X588010Y449386D01*
D02*
G37*
G36*
X798830Y430530D02*
X795214D01*
X795352Y429833D01*
X796466Y428166D01*
X798133Y427052D01*
X798830Y426914D01*
Y430530D01*
D02*
G37*
G36*
X804986D02*
X801370D01*
Y426914D01*
X802066Y427052D01*
X803734Y428166D01*
X804848Y429833D01*
X804986Y430530D01*
D02*
G37*
G36*
X245800Y427216D02*
Y423600D01*
X249416D01*
X249278Y424296D01*
X248164Y425964D01*
X246497Y427078D01*
X245800Y427216D01*
D02*
G37*
G36*
X732210Y428329D02*
X730844Y428057D01*
X729687Y427283D01*
X728913Y426126D01*
X728641Y424760D01*
X728913Y423394D01*
X729687Y422237D01*
X730844Y421463D01*
X732210Y421191D01*
X733576Y421463D01*
X734733Y422237D01*
X735507Y423394D01*
X735779Y424760D01*
X735507Y426126D01*
X734733Y427283D01*
X733576Y428057D01*
X732210Y428329D01*
D02*
G37*
G36*
X243260Y427216D02*
X242563Y427078D01*
X240896Y425964D01*
X239782Y424296D01*
X239644Y423600D01*
X243260D01*
Y427216D01*
D02*
G37*
G36*
X801370Y436686D02*
Y433070D01*
X804986D01*
X804848Y433767D01*
X803734Y435434D01*
X802066Y436548D01*
X801370Y436686D01*
D02*
G37*
G36*
X699770Y437956D02*
X699073Y437818D01*
X697406Y436704D01*
X696292Y435037D01*
X696154Y434340D01*
X699770D01*
Y437956D01*
D02*
G37*
G36*
X798830Y436686D02*
X798133Y436548D01*
X796466Y435434D01*
X795352Y433767D01*
X795214Y433070D01*
X798830D01*
Y436686D01*
D02*
G37*
G36*
X699770Y431800D02*
X696154D01*
X696292Y431104D01*
X697406Y429436D01*
X699073Y428322D01*
X699770Y428184D01*
Y431800D01*
D02*
G37*
G36*
X705926D02*
X702310D01*
Y428184D01*
X703007Y428322D01*
X704674Y429436D01*
X705788Y431104D01*
X705926Y431800D01*
D02*
G37*
G36*
X511810Y459740D02*
X508194D01*
X508332Y459044D01*
X509446Y457376D01*
X511114Y456262D01*
X511810Y456124D01*
Y459740D01*
D02*
G37*
G36*
X517966D02*
X514350D01*
Y456124D01*
X515047Y456262D01*
X516714Y457376D01*
X517828Y459044D01*
X517966Y459740D01*
D02*
G37*
G36*
X872443Y463550D02*
X860430D01*
Y451537D01*
X862641Y451828D01*
X865885Y453172D01*
X868671Y455309D01*
X870808Y458095D01*
X872152Y461339D01*
X872443Y463550D01*
D02*
G37*
G36*
X443109Y460116D02*
Y451306D01*
X451920D01*
X451738Y452688D01*
X450715Y455159D01*
X449086Y457281D01*
X446964Y458910D01*
X444492Y459934D01*
X443109Y460116D01*
D02*
G37*
G36*
X857890Y463550D02*
X845877D01*
X846168Y461339D01*
X847512Y458095D01*
X849649Y455309D01*
X852435Y453172D01*
X855679Y451828D01*
X857890Y451537D01*
Y463550D01*
D02*
G37*
G36*
X511810Y465896D02*
X511114Y465758D01*
X509446Y464644D01*
X508332Y462976D01*
X508194Y462280D01*
X511810D01*
Y465896D01*
D02*
G37*
G36*
X514350D02*
Y462280D01*
X517966D01*
X517828Y462976D01*
X516714Y464644D01*
X515047Y465758D01*
X514350Y465896D01*
D02*
G37*
G36*
X423458Y484380D02*
X420587Y484002D01*
X417911Y482893D01*
X415613Y481130D01*
X413850Y478832D01*
X412742Y476157D01*
X412363Y473285D01*
X412742Y470413D01*
X413850Y467738D01*
X415613Y465440D01*
X417911Y463676D01*
X420587Y462568D01*
X423458Y462190D01*
X426330Y462568D01*
X429006Y463676D01*
X431304Y465440D01*
X433067Y467738D01*
X434175Y470413D01*
X434553Y473285D01*
X434175Y476157D01*
X433067Y478832D01*
X431304Y481130D01*
X429006Y482893D01*
X426330Y484002D01*
X423458Y484380D01*
D02*
G37*
G36*
X736600Y461010D02*
X732984D01*
X733122Y460313D01*
X734236Y458646D01*
X735903Y457532D01*
X736600Y457394D01*
Y461010D01*
D02*
G37*
G36*
X742756D02*
X739140D01*
Y457394D01*
X739837Y457532D01*
X741504Y458646D01*
X742618Y460313D01*
X742756Y461010D01*
D02*
G37*
G36*
X368111Y460750D02*
Y451305D01*
X377556D01*
X377352Y452850D01*
X376265Y455475D01*
X374535Y457729D01*
X372281Y459459D01*
X369656Y460546D01*
X368111Y460750D01*
D02*
G37*
G36*
X465570Y460750D02*
X464023Y460546D01*
X461398Y459459D01*
X459144Y457730D01*
X457415Y455476D01*
X456328Y452851D01*
X456124Y451305D01*
X465570D01*
Y460750D01*
D02*
G37*
G36*
X268111Y460750D02*
Y451305D01*
X277556D01*
X277352Y452850D01*
X276265Y455475D01*
X274536Y457729D01*
X272281Y459459D01*
X269657Y460546D01*
X268111Y460750D01*
D02*
G37*
G36*
X168111Y460749D02*
Y451305D01*
X177556D01*
X177352Y452850D01*
X176265Y455475D01*
X174536Y457729D01*
X172281Y459459D01*
X169657Y460546D01*
X168111Y460749D01*
D02*
G37*
G36*
X265571Y460750D02*
X264023Y460546D01*
X261398Y459459D01*
X259144Y457729D01*
X257415Y455475D01*
X256328Y452850D01*
X256124Y451305D01*
X265571D01*
Y460750D01*
D02*
G37*
G36*
X393109Y460116D02*
Y451306D01*
X401920D01*
X401739Y452688D01*
X400715Y455159D01*
X399086Y457281D01*
X396964Y458910D01*
X394492Y459934D01*
X393109Y460116D01*
D02*
G37*
G36*
X440569Y460116D02*
X439188Y459934D01*
X436716Y458910D01*
X434594Y457281D01*
X432965Y455159D01*
X431941Y452688D01*
X431759Y451306D01*
X440569D01*
Y460116D01*
D02*
G37*
G36*
X390569D02*
X389188Y459934D01*
X386716Y458910D01*
X384594Y457281D01*
X382965Y455159D01*
X381941Y452688D01*
X381760Y451306D01*
X390569D01*
Y460116D01*
D02*
G37*
G36*
X468110Y460750D02*
Y451305D01*
X477556D01*
X477352Y452851D01*
X476265Y455476D01*
X474535Y457730D01*
X472281Y459459D01*
X469657Y460546D01*
X468110Y460750D01*
D02*
G37*
G36*
X343569Y460116D02*
X342188Y459934D01*
X339716Y458910D01*
X337594Y457281D01*
X335965Y455159D01*
X334941Y452688D01*
X334759Y451306D01*
X343569D01*
Y460116D01*
D02*
G37*
%LPD*%
D22*
X46990Y260350D02*
D03*
X21590D02*
D03*
X113030Y621030D02*
D03*
X87630D02*
D03*
D41*
X826165Y600939D02*
D03*
Y191999D02*
D03*
X344840Y450035D02*
D03*
X391840D02*
D03*
X441840D02*
D03*
X487837Y473236D02*
D03*
X487839Y521236D02*
D03*
X487839Y569236D02*
D03*
X441839Y592535D02*
D03*
X416839Y592534D02*
D03*
X391839Y592535D02*
D03*
X344839Y592535D02*
D03*
X344840Y88642D02*
D03*
X391840D02*
D03*
X441840D02*
D03*
X487837Y111843D02*
D03*
X487839Y159843D02*
D03*
X487839Y207843D02*
D03*
X441839Y231142D02*
D03*
X416839Y231140D02*
D03*
X391839Y231142D02*
D03*
X344839Y231142D02*
D03*
D42*
X859160Y464820D02*
D03*
Y624840D02*
D03*
Y55880D02*
D03*
Y215900D02*
D03*
D44*
X316839Y535734D02*
D03*
X316839Y481734D02*
D03*
X116838Y506733D02*
D03*
X166840Y450033D02*
D03*
X266840Y450034D02*
D03*
X366840D02*
D03*
X466840Y450034D02*
D03*
X316839Y592534D02*
D03*
X216839Y592534D02*
D03*
X116839Y592533D02*
D03*
X316839Y174340D02*
D03*
X316839Y120341D02*
D03*
X116838Y145340D02*
D03*
X166840Y88640D02*
D03*
X266840Y88640D02*
D03*
X366840D02*
D03*
X466840Y88641D02*
D03*
X316839Y231140D02*
D03*
X216839Y231140D02*
D03*
X116839Y231140D02*
D03*
D47*
X921871Y335960D02*
D03*
D49*
X985520Y388620D02*
D03*
X956310D02*
D03*
X985520Y283210D02*
D03*
X956310D02*
D03*
X985520Y302260D02*
D03*
X956310D02*
D03*
X985520Y318770D02*
D03*
X956310D02*
D03*
X985520Y337820D02*
D03*
X956310D02*
D03*
X985520Y354330D02*
D03*
X956310D02*
D03*
X985520Y372110D02*
D03*
X956310D02*
D03*
X529590Y518160D02*
D03*
X676910Y134620D02*
D03*
X660400Y135890D02*
D03*
X676910Y151130D02*
D03*
X671830Y523240D02*
D03*
X657860D02*
D03*
X671830Y537210D02*
D03*
X657860D02*
D03*
X352370Y391850D02*
D03*
X749990Y88320D02*
D03*
X599440Y444500D02*
D03*
X586740D02*
D03*
X828040Y304220D02*
D03*
X808990D02*
D03*
X723900D02*
D03*
X633040Y308610D02*
D03*
X606480D02*
D03*
X619760Y295330D02*
D03*
X800100Y431800D02*
D03*
X777240Y417830D02*
D03*
X635000Y476250D02*
D03*
X647700Y467360D02*
D03*
X679450D02*
D03*
X701040Y433070D02*
D03*
X737870Y462280D02*
D03*
X739140Y511810D02*
D03*
X732790Y524510D02*
D03*
X725750Y551180D02*
D03*
X581660Y528320D02*
D03*
X600710Y551180D02*
D03*
X681990Y605790D02*
D03*
X669290D02*
D03*
X656590D02*
D03*
X643890D02*
D03*
X539750Y600710D02*
D03*
Y588010D02*
D03*
X538480Y515620D02*
D03*
X546790Y575890D02*
D03*
X513080Y461010D02*
D03*
X364692Y491288D02*
D03*
X364490Y473710D02*
D03*
X381195Y566225D02*
D03*
X269240Y429260D02*
D03*
X244530Y422330D02*
D03*
X132770Y367030D02*
D03*
Y350520D02*
D03*
Y384810D02*
D03*
X184150Y365760D02*
D03*
Y387350D02*
D03*
Y345440D02*
D03*
X233680Y367030D02*
D03*
X224790Y317500D02*
D03*
X801370Y22860D02*
D03*
X774010Y41220D02*
D03*
X683260Y215900D02*
D03*
X670560D02*
D03*
X657860D02*
D03*
X645160D02*
D03*
X261040Y34290D02*
D03*
X558800Y96520D02*
D03*
Y83820D02*
D03*
X612140Y166370D02*
D03*
X582930Y139700D02*
D03*
X741680Y125730D02*
D03*
X732790Y138430D02*
D03*
Y163830D02*
D03*
X683260Y82550D02*
D03*
X651510D02*
D03*
X638810Y90170D02*
D03*
X739260Y78860D02*
D03*
X702310Y48260D02*
D03*
X521970Y104140D02*
D03*
X533400Y151130D02*
D03*
X551180Y163830D02*
D03*
X542980Y210240D02*
D03*
X541020Y222250D02*
D03*
Y236220D02*
D03*
X426720Y297180D02*
D03*
X414020D02*
D03*
X392430Y279400D02*
D03*
X382463Y206817D02*
D03*
Y111953D02*
D03*
X450850Y125892D02*
D03*
X701470Y488520D02*
D03*
X702310Y102560D02*
D03*
X660400Y151130D02*
D03*
X266700Y665480D02*
D03*
X325120D02*
D03*
X676910Y44450D02*
D03*
M02*
