%FSLAX44Y44*%
%MOMM*%
G71*
G01*
G75*
G04 Layer_Color=255*
%ADD10R,0.5000X0.6000*%
%ADD11R,0.6000X0.5000*%
%ADD12R,1.2954X1.1938*%
%ADD13R,2.0000X0.5004*%
%ADD14R,1.0160X0.8890*%
%ADD15R,1.3970X1.3970*%
G04:AMPARAMS|DCode=16|XSize=1.5mm|YSize=1.4mm|CornerRadius=0mm|HoleSize=0mm|Usage=FLASHONLY|Rotation=225.000|XOffset=0mm|YOffset=0mm|HoleType=Round|Shape=Rectangle|*
%AMROTATEDRECTD16*
4,1,4,0.0354,1.0253,1.0253,0.0354,-0.0354,-1.0253,-1.0253,-0.0354,0.0354,1.0253,0.0*
%
%ADD16ROTATEDRECTD16*%

%ADD17R,0.8000X0.2000*%
%ADD18R,0.2000X0.8000*%
%ADD19R,3.7000X3.7000*%
%ADD20R,1.4000X1.2000*%
%ADD21R,0.8128X0.8128*%
%ADD22C,1.0000*%
G04:AMPARAMS|DCode=23|XSize=2mm|YSize=2mm|CornerRadius=0mm|HoleSize=0mm|Usage=FLASHONLY|Rotation=180.000|XOffset=0mm|YOffset=0mm|HoleType=Round|Shape=RoundedRectangle|*
%AMROUNDEDRECTD23*
21,1,2.0000,2.0000,0,0,180.0*
21,1,2.0000,2.0000,0,0,180.0*
1,1,0.0000,-1.0000,1.0000*
1,1,0.0000,1.0000,1.0000*
1,1,0.0000,1.0000,-1.0000*
1,1,0.0000,-1.0000,-1.0000*
%
%ADD23ROUNDEDRECTD23*%
%ADD24R,2.4000X0.8000*%
%ADD25R,5.0000X5.3000*%
%ADD26R,1.3970X1.3970*%
%ADD27R,7.3000X2.6500*%
%ADD28C,0.8000*%
%ADD29C,0.1780*%
%ADD30C,0.4000*%
%ADD31C,0.2000*%
%ADD32C,0.3000*%
%ADD33C,0.6000*%
%ADD34C,0.1270*%
%ADD35C,0.2540*%
%ADD36C,0.1800*%
%ADD37C,1.0000*%
%ADD38R,0.8890X0.8890*%
%ADD39C,3.2500*%
%ADD40R,1.5240X1.5240*%
%ADD41C,1.5240*%
%ADD42C,2.1590*%
%ADD43C,1.7000*%
%ADD44C,1.6500*%
%ADD45R,1.0000X1.0000*%
%ADD46C,4.0000*%
%ADD47O,1.5000X4.0000*%
%ADD48O,4.0000X1.5000*%
%ADD49C,0.5000*%
%ADD50C,2.0000*%
D22*
X123190Y260350D02*
D03*
X148590D02*
D03*
X173990D02*
D03*
X199390D02*
D03*
X224790D02*
D03*
X97790D02*
D03*
X72390D02*
D03*
X46990D02*
D03*
X21590D02*
D03*
X189230Y621030D02*
D03*
X214630D02*
D03*
X240030D02*
D03*
X265430D02*
D03*
X290830D02*
D03*
X163830D02*
D03*
X138430D02*
D03*
X113030D02*
D03*
X87630D02*
D03*
D39*
X889666Y601828D02*
D03*
Y487832D02*
D03*
Y192888D02*
D03*
Y78892D02*
D03*
D40*
X800704Y486504D02*
D03*
Y77564D02*
D03*
D41*
X826165Y499339D02*
D03*
X800766Y513029D02*
D03*
X826165Y524739D02*
D03*
X800766Y538429D02*
D03*
X826165Y550139D02*
D03*
X800766Y563829D02*
D03*
X826165Y575539D02*
D03*
X800766Y589229D02*
D03*
X826165Y600939D02*
D03*
Y90399D02*
D03*
X800766Y104089D02*
D03*
X826165Y115799D02*
D03*
X800766Y129489D02*
D03*
X826165Y141199D02*
D03*
X800766Y154889D02*
D03*
X826165Y166599D02*
D03*
X800766Y180289D02*
D03*
X826165Y191999D02*
D03*
X344840Y450035D02*
D03*
X391840D02*
D03*
X441840D02*
D03*
X487837Y473236D02*
D03*
X487839Y521236D02*
D03*
X487839Y569236D02*
D03*
X441839Y592535D02*
D03*
X416839Y592534D02*
D03*
X391839Y592535D02*
D03*
X344839Y592535D02*
D03*
X344840Y88642D02*
D03*
X391840D02*
D03*
X441840D02*
D03*
X487837Y111843D02*
D03*
X487839Y159843D02*
D03*
X487839Y207843D02*
D03*
X441839Y231142D02*
D03*
X416839Y231140D02*
D03*
X391839Y231142D02*
D03*
X344839Y231142D02*
D03*
D42*
X859160Y464820D02*
D03*
Y624840D02*
D03*
Y55880D02*
D03*
Y215900D02*
D03*
D43*
X939195Y610870D02*
D03*
Y585470D02*
D03*
Y478790D02*
D03*
Y504190D02*
D03*
Y201930D02*
D03*
Y176530D02*
D03*
Y69850D02*
D03*
Y95250D02*
D03*
D44*
X316839Y535734D02*
D03*
X316839Y481734D02*
D03*
X116838Y506733D02*
D03*
X166840Y450033D02*
D03*
X266840Y450034D02*
D03*
X366840D02*
D03*
X466840Y450034D02*
D03*
X316839Y592534D02*
D03*
X216839Y592534D02*
D03*
X116839Y592533D02*
D03*
X316839Y174340D02*
D03*
X316839Y120341D02*
D03*
X116838Y145340D02*
D03*
X166840Y88640D02*
D03*
X266840Y88640D02*
D03*
X366840D02*
D03*
X466840Y88641D02*
D03*
X316839Y231140D02*
D03*
X216839Y231140D02*
D03*
X116839Y231140D02*
D03*
D45*
X250190Y260350D02*
D03*
X316230Y621030D02*
D03*
D46*
X970000Y650000D02*
D03*
Y30000D02*
D03*
X30000Y650000D02*
D03*
Y30000D02*
D03*
D47*
X921871Y335960D02*
D03*
X861653Y335628D02*
D03*
D48*
X892166Y380654D02*
D03*
M02*
